<?xml version="1.0" standalone="no"?>
<!DOCTYPE svg PUBLIC "-//W3C//DTD SVG 1.1//EN" "http://www.w3.org/Graphics/SVG/1.1/DTD/svg11.dtd">
<svg version="1.1" id="Layer_1" xmlns="http://www.w3.org/2000/svg" xmlns:xlink="http://www.w3.org/1999/xlink" x="0px" y="0px"
	 width="576px" height="576px" viewBox="0 0 576 576" enable-background="new 0 0 576 576" xml:space="preserve">
<g>
	<path d="M518.5,535.005c-9.823,2.571-19.646,4.696-29.469,6.759c-9.823,2.03-19.646,3.887-29.47,5.63
		c-9.823,1.755-19.646,3.36-29.469,4.882c-4.912,0.754-9.823,1.506-14.734,2.199c-4.912,0.726-9.823,1.396-14.735,2.06
		c-19.646,2.654-39.292,4.949-58.938,6.941c-4.912,0.524-9.823,0.97-14.735,1.438c-4.911,0.479-9.822,0.916-14.734,1.329
		c-9.823,0.878-19.646,1.615-29.469,2.357l-14.735,1.021l-14.734,0.912c-4.912,0.314-9.823,0.578-14.735,0.826
		c-4.911,0.245-9.823,0.537-14.734,0.745c-9.823,0.432-19.646,0.875-29.469,1.184c-9.823,0.361-19.646,0.641-29.469,0.863
		c-9.823,0.219-19.646,0.4-29.469,0.497c-9.823,0.089-19.646,0.04-29.469-0.153c-9.823-0.193-19.646-0.544-29.469-1.032
		c-9.823-0.471-19.646-1.146-29.469-1.907l-44.507-3.452l3.006-38.05c0.783-9.91,1.704-19.819,2.741-29.729
		c1.054-9.909,2.17-19.819,3.441-29.729l1.882-14.864l1.977-14.864l3.989-29.729c1.273-9.91,2.613-19.819,3.797-29.729
		c1.187-9.91,2.323-19.819,3.3-29.729c1.021-9.909,1.846-19.819,2.622-29.729c0.705-9.91,1.352-19.82,1.793-29.729
		c0.463-9.91,0.769-19.82,0.942-29.729c0.183-9.91,0.184-19.819,0.115-29.729c-0.015-4.955-0.125-9.91-0.183-14.864l-0.335-14.865
		c-0.311-9.91-0.666-19.819-1.18-29.729c-0.475-9.91-1.117-19.819-1.809-29.729c-0.725-9.91-1.516-19.82-2.435-29.729
		c-0.882-9.91-1.91-19.819-2.967-29.729c-1.008-9.91-2.192-19.82-3.292-29.729L17.267,30.75l29.727-3.468l29.469-3.438l29.469-3.376
		c9.823-1.121,19.646-2.104,29.469-3.149c9.823-0.971,19.646-1.923,29.469-2.75c9.823-0.859,19.646-1.603,29.469-2.304l14.735-0.968
		l14.734-0.837l58.938-2.812l58.938-2.778l29.469-1.263c9.823-0.417,19.646-0.751,29.469-1.089
		c9.823-0.316,19.646-0.587,29.47-0.822c9.823-0.23,19.646-0.374,29.469-0.48c19.646-0.187,39.292-0.133,58.938,0.21l53.762,0.937
		l-0.801,52.023c-0.153,9.91-0.407,19.82-0.683,29.729c-0.298,9.91-0.639,19.819-1.043,29.729c-0.403,9.91-0.845,19.82-1.35,29.729
		c-0.472,9.91-1.074,19.819-1.606,29.729c-0.623,9.91-1.176,19.82-1.872,29.729l-1.012,14.865l-1.101,14.864
		c-0.74,9.91-1.545,19.82-2.378,29.729l-1.283,14.865l-1.373,14.865l-1.439,14.864c-0.478,4.955-0.984,9.91-1.511,14.865
		c-1.02,9.909-2.121,19.819-3.251,29.729c-2.274,19.82-4.769,39.64-7.524,59.459c-1.381,9.909-2.81,19.819-4.334,29.729
		l-2.325,14.864l-2.472,14.864c-0.798,4.955-1.72,9.91-2.59,14.865c-0.858,4.955-1.793,9.909-2.737,14.864
		c-1.878,9.91-3.857,19.819-6.127,29.729l-0.89,3.888L518.5,535.005z M512.216,523.582c-1.686-7.76-3.323-15.497-4.793-23.257
		c-0.944-4.955-1.879-9.909-2.737-14.864c-0.87-4.955-1.792-9.91-2.59-14.865l-2.472-14.864l-2.325-14.864
		c-1.524-9.91-2.953-19.82-4.334-29.729c-2.756-19.819-5.25-39.639-7.524-59.459c-1.13-9.909-2.231-19.819-3.251-29.729
		c-0.526-4.955-1.033-9.91-1.511-14.865l-1.439-14.864l-1.373-14.865l-1.283-14.865c-0.833-9.91-1.638-19.819-2.378-29.729
		l-1.101-14.864l-1.012-14.865c-0.696-9.91-1.249-19.819-1.872-29.729c-0.532-9.91-1.135-19.819-1.606-29.729
		c-0.505-9.91-0.946-19.82-1.35-29.729c-0.404-9.91-0.745-19.819-1.043-29.729c-0.275-9.91-0.529-19.82-0.683-29.729l52.961,52.96
		c-19.646,0.343-39.292,0.396-58.938,0.21c-9.823-0.106-19.646-0.25-29.469-0.48c-9.823-0.235-19.646-0.506-29.47-0.822
		c-9.822-0.338-19.646-0.672-29.469-1.089l-29.469-1.263l-58.938-2.778l-58.938-2.812l-14.734-0.837l-14.735-0.968
		c-9.823-0.701-19.646-1.445-29.469-2.304c-9.823-0.828-19.646-1.779-29.469-2.75c-9.823-1.045-19.646-2.028-29.469-3.149
		l-29.469-3.376L46.994,81.49l27.104-27.104c-1.1,9.91-2.285,19.82-3.292,29.729c-1.057,9.91-2.085,19.819-2.967,29.729
		c-0.918,9.91-1.71,19.82-2.435,29.729c-0.691,9.91-1.334,19.819-1.809,29.729c-0.514,9.91-0.869,19.82-1.18,29.729l-0.335,14.865
		c-0.058,4.955-0.168,9.91-0.183,14.864c-0.068,9.91-0.068,19.82,0.115,29.729c0.173,9.91,0.479,19.819,0.942,29.729
		c0.442,9.909,1.089,19.819,1.793,29.729c0.775,9.909,1.601,19.819,2.622,29.729c0.977,9.91,2.113,19.819,3.3,29.729
		c1.185,9.91,2.524,19.819,3.797,29.729l3.989,29.729l1.977,14.864l1.882,14.864c1.271,9.91,2.387,19.82,3.441,29.729
		c1.037,9.91,1.958,19.819,2.741,29.729l-41.501-41.502c9.823-0.762,19.646-1.437,29.469-1.907
		c9.823-0.488,19.646-0.839,29.469-1.032c9.823-0.193,19.646-0.242,29.469-0.153c9.823,0.097,19.646,0.278,29.469,0.497
		c9.823,0.223,19.646,0.502,29.469,0.863c9.823,0.309,19.646,0.752,29.469,1.184c4.912,0.208,9.823,0.5,14.734,0.745
		c4.912,0.248,9.823,0.512,14.735,0.826l14.734,0.912l14.735,1.021c9.823,0.742,19.646,1.479,29.469,2.357
		c4.912,0.413,9.823,0.85,14.734,1.329c4.912,0.469,9.823,0.914,14.735,1.438c19.646,1.992,39.292,4.287,58.938,6.941
		c4.912,0.664,9.823,1.334,14.735,2.06c4.911,0.693,9.822,1.445,14.734,2.199c9.823,1.521,19.646,3.127,29.469,4.882
		c9.823,1.743,19.646,3.6,29.47,5.63C496.764,519.97,504.482,521.693,512.216,523.582z"/>
</g>
<g>
</g>
<g>
</g>
<g>
</g>
<g>
</g>
<g>
</g>
<g>
</g>
</svg>
