<?xml version="1.0" encoding="utf-8"?>
<!-- Generator: Adobe Illustrator 16.2.0, SVG Export Plug-In . SVG Version: 6.00 Build 0)  -->
<!DOCTYPE svg PUBLIC "-//W3C//DTD SVG 1.1//EN" "http://www.w3.org/Graphics/SVG/1.1/DTD/svg11.dtd">
<svg version="1.1" id="Layer_1" xmlns="http://www.w3.org/2000/svg" xmlns:xlink="http://www.w3.org/1999/xlink" x="0px" y="0px"
	 width="573.667px" height="161.628px" viewBox="0 0 573.667 161.628" enable-background="new 0 0 573.667 161.628"
	 xml:space="preserve" preserveAspectRatio="none">
<g>
	<path fill="#FFFFFF" d="M2.734,84.391h463.689v305.555H2.734V84.391L2.734,84.391z"/>
	<g>
		<path d="M2.297,83.958l29.417-0.72l28.98-0.58l28.981-0.496l28.98-0.421l57.961-0.654l57.961-0.42l57.961-0.214l28.98-0.046
			l28.98,0.042l28.98,0.183l14.488,0.104l14.492,0.169l57.959,0.774l2.76,0.037l-0.039,2.674l-0.549,38.195l-0.445,38.193
			l-0.158,19.098l-0.123,19.096l-0.104,38.195l0.078,38.193l0.215,38.193l0.809,76.389l0.025,2.402l-2.469,0.03l-57.959,0.724
			l-57.963,0.588l-57.963,0.348l-57.96,0.273l-57.961,0.27l-28.98,0.094l-28.98,0.016l-28.98,0.017l-28.98-0.101L2.734,394.38
			l-4.482-0.02l0.033-4.414l0.568-76.391l0.816-76.39l0.501-38.192l0.59-38.193l0.719-38.195l0.363-19.096L2.297,83.958z
			 M3.19,84.847l0.435,18.643l0.363,19.098l0.719,38.193l0.59,38.192l0.501,38.195l0.816,76.389l0.568,76.39l-4.449-4.435
			l57.961-0.229l28.98-0.1l28.98,0.018l28.98,0.016l28.98,0.092l57.961,0.273l57.959,0.27l57.963,0.353l57.961,0.588l57.963,0.722
			l-2.443,2.436l0.809-76.391l0.217-38.193l0.078-38.193l-0.105-38.195l-0.125-19.096l-0.154-19.098l-0.447-38.193l-0.549-38.195
			l2.721,2.711l-57.961,0.774l-14.492,0.169l-14.486,0.104l-28.982,0.18l-28.979,0.042l-28.982-0.046l-57.96-0.214l-57.961-0.42
			l-57.962-0.654l-28.979-0.421l-28.981-0.496l-28.98-0.58L3.19,84.847z"/>
	</g>
</g>
<g>
	<polygon fill="#FFFFFF" points="556.312,34.353 486.113,96.867 486.113,348.513 553.765,297.589 555.935,47.816 	"/>
	<path d="M555.921,35.196l-7.854,7.565l-8.518,8.102c-5.701,5.374-11.395,10.759-17.137,16.087
		c-5.725,5.35-11.465,10.682-17.238,15.979c-5.76,5.309-11.514,10.627-17.316,15.887l0.875-1.949l0.191,15.728
		c0.078,5.244,0.072,10.486,0.113,15.729l0.09,15.729c0.049,5.241-0.01,10.483-0.008,15.729l-0.025,7.863l-0.094,7.862
		c-0.061,5.242-0.121,10.486-0.242,15.729l-0.717,31.455c-0.215,10.486-0.535,20.973-0.668,31.455
		c-0.059,5.244-0.176,10.485-0.178,15.729l-0.07,15.728l0.055,15.729l0.143,15.729c0.035,5.242,0.164,10.484,0.254,15.729
		l0.289,15.729l-2.814-1.396l33.309-26.145c5.562-4.344,11.133-8.681,16.729-12.976l16.791-12.896l-1.242,2.459l0.021-32.906
		l0.012-16.453c-0.008-5.484,0.014-10.969,0.066-16.453l0.127-16.453c0.025-5.484,0.107-10.967,0.197-16.451
		c0.182-10.969,0.305-21.936,0.531-32.903l0.719-32.9l0.42-16.448l0.475-16.452l0.52-16.449l0.58-16.449l0.672-16.448
		C555.167,45.562,555.578,40.392,555.921,35.196z M556.638,33.646l0.107,8.949c0.021,2.758,0.008,5.468,0.096,8.214l0.383,16.457
		l0.295,16.457l0.232,16.456l0.188,16.457l0.135,16.455l0.146,32.908c0.037,10.969-0.029,21.938-0.039,32.908
		c-0.006,5.484-0.021,10.969-0.09,16.451l-0.158,16.453c-0.039,5.483-0.111,10.969-0.219,16.451l-0.271,16.45l-0.551,32.904
		l-0.025,1.562l-1.215,0.897l-17.039,12.565c-5.678,4.191-11.387,8.344-17.1,12.486l-34.344,24.779l-2.879,2.076l0.062-3.474
		l0.291-15.729c0.09-5.242,0.219-10.484,0.252-15.729l0.145-15.729l0.055-15.729l-0.068-15.727
		c-0.002-5.244-0.119-10.486-0.18-15.729c-0.135-10.482-0.451-20.97-0.67-31.455l-0.717-31.455
		c-0.119-5.242-0.182-10.484-0.24-15.729l-0.096-7.863l-0.023-7.864c0-5.242-0.059-10.484-0.008-15.728l0.088-15.729
		c0.041-5.242,0.035-10.483,0.115-15.729l0.191-15.728l0.014-1.196l0.861-0.753c5.895-5.159,11.842-10.26,17.781-15.37
		c5.93-5.122,11.889-10.209,17.863-15.278c5.959-5.091,11.967-10.125,17.963-15.17l9.031-7.526L556.638,33.646z"/>
</g>
<g>
	<path fill="#FFFFFF" d="M570.054-0.055l-103.91,72.634v316.635l103.91-72.633V-0.055L570.054-0.055z"/>
	<g>
		<path d="M569.701,0.633l-12.146,9.086l-12.744,9.425l-12.773,9.38l-12.818,9.327c-8.529,6.233-17.131,12.368-25.693,18.557
			l-25.789,18.426l1.176-2.256c0.158,13.193,0.145,26.386,0.227,39.582c0.035,6.596,0.062,13.19,0.031,19.789l-0.061,19.791
			l-0.189,19.788l-0.34,19.791l-0.691,39.578l-0.352,19.789l-0.23,19.789c-0.094,6.599-0.066,13.193-0.105,19.791
			c-0.035,6.599-0.045,13.193-0.016,19.789l0.076,19.789l0.168,19.791l0.564,39.578l-2.91-1.508l25.68-18.584l25.727-18.52
			l25.822-18.375l25.865-18.316l-1.393,2.67l-0.246-39.578c-0.047-6.598-0.084-13.193-0.076-19.791l-0.016-19.789l0.027-19.789
			l0.1-19.791l0.104-19.789l0.182-19.791c0.113-13.19,0.246-26.385,0.438-39.58l0.268-19.79l0.357-19.79l0.357-19.79
			c0.129-6.597,0.213-13.193,0.396-19.79l0.488-19.79C569.304,13.368,569.5,7,569.701,0.633z M570.394-0.055
			c0.205,6.597,0.406,13.193,0.557,19.79l0.488,19.79c0.186,6.597,0.271,13.193,0.396,19.79l0.357,19.79l0.357,19.79l0.268,19.79
			c0.189,13.193,0.32,26.388,0.438,39.58l0.182,19.791l0.104,19.789l0.1,19.791l0.027,19.789l-0.016,19.789
			c0.008,6.598-0.027,13.193-0.076,19.791l-0.244,39.578l-0.012,1.717l-1.383,0.955l-26.092,17.998l-26.131,17.941l-26.23,17.797
			l-26.277,17.732l-2.961,2l0.051-3.509l0.564-39.58l0.168-19.788l0.076-19.789c0.031-6.599,0.023-13.193-0.014-19.791
			c-0.039-6.597-0.014-13.191-0.107-19.789l-0.229-19.789l-0.354-19.791l-0.689-39.578l-0.34-19.793l-0.189-19.789l-0.061-19.789
			c-0.029-6.598-0.004-13.193,0.031-19.791c0.078-13.194,0.064-26.387,0.225-39.581l0.02-1.463l1.158-0.793l26.166-17.891
			c8.756-5.917,17.473-11.887,26.26-17.759l13.164-8.832l13.199-8.778l13.232-8.733l13.797-8.994L570.394-0.055z"/>
	</g>
</g>
<g>
	<polygon fill="#FFFFFF" points="131.97,3.469 9.69,81.402 467.435,81.706 562.16,3.469 	"/>
	<path d="M132.069,3.808l-14.958,10.067l-15.09,10.044L86.929,33.963l-15.128,9.986c-10.087,6.653-20.189,13.287-30.316,19.879
		c-10.119,6.606-20.229,13.224-30.382,19.776l-1.41-4.814l28.608-0.187l28.609-0.094l28.608-0.077l28.609,0.06l28.609,0.199
		l28.608,0.363l57.218,0.8l28.609,0.395l28.608,0.246l28.609,0.1L353,80.567l28.609-0.13c9.535-0.03,19.07-0.173,28.609-0.258
		l57.217-0.627l-1.379,0.496l23.438-19.85l23.518-19.755l23.523-19.751l23.588-19.671l2.037,5.632l-53.773,0.254L481.5,7.035
		l-26.887,0.026l-26.887,0.016l-26.889-0.094l-53.773-0.262l-53.773-0.433l-26.887-0.267L239.518,5.66L212.63,5.288l-26.886-0.399
		l-26.888-0.508C149.927,4.227,140.999,4.022,132.069,3.808z M131.97,3.133c8.963-0.217,17.925-0.421,26.886-0.575l26.888-0.508
		l26.886-0.4l26.888-0.371l26.886-0.361l26.887-0.267l53.775-0.433l53.771-0.262l26.889-0.094l26.889,0.016l26.887,0.026
		l26.887,0.127l53.773,0.254l8.871,0.042l-6.834,5.59l-23.773,19.447l-23.84,19.367l-23.848,19.363l-23.924,19.269l-0.627,0.505
		l-0.756-0.009l-57.217-0.702c-9.535-0.097-19.07-0.253-28.607-0.296l-28.609-0.168l-28.607-0.065l-28.61,0.062l-28.609,0.208
		l-28.609,0.357l-57.219,0.725l-28.61,0.325l-28.608,0.161l-28.609,0.022l-28.609-0.115l-28.609-0.132L9.689,84.016l-8.949-0.07
		l7.536-4.745c10.226-6.437,20.496-12.808,30.758-19.191c10.253-6.396,20.532-12.751,30.823-19.088L85.3,31.425l15.479-9.44
		l15.479-9.44l15.613-9.411L131.97,3.133z"/>
</g>
<g>
	<polygon points="129.761,22.945 80.782,56.042 454.587,58.826 492.886,27.433 141.021,23.506 	"/>
	<path d="M129.858,23.29l-11.859,8.638l-12.004,8.63l-12.037,8.581l-12.071,8.529l-1.091-3.587
		c7.788-0.117,15.577-0.134,23.366-0.205c7.789-0.071,15.576-0.11,23.365-0.115l23.364-0.05l23.364,0.067
		c7.788,0.023,15.576,0.028,23.363,0.123c7.787,0.08,15.576,0.121,23.362,0.281c7.787,0.128,15.575,0.257,23.36,0.479l23.359,0.59
		l46.72,1.199l23.359,0.415l23.363,0.25l23.361,0.101l23.365-0.042l46.729-0.37l-1.305,0.46l18.863-16.042l18.922-15.97l1.771,5.007
		l-45.398-0.154l-45.395-0.215c-7.564-0.048-15.133-0.042-22.697-0.142l-22.695-0.236c-7.566-0.062-15.131-0.172-22.695-0.308
		l-22.691-0.373c-15.131-0.217-30.261-0.605-45.391-0.899l-22.693-0.541c-7.564-0.196-15.128-0.347-22.692-0.592l-45.383-1.357
		l-22.689-0.823l-11.345-0.417L129.858,23.29z M129.667,22.605l11.437,0.207l11.351-0.164l22.703-0.317l45.402-0.343
		c7.566-0.076,15.132-0.058,22.7-0.085l22.699-0.034c15.132,0.043,30.265-0.007,45.398,0.114l22.695,0.134
		c7.566,0.033,15.131,0.092,22.697,0.198l22.693,0.271c7.566,0.069,15.131,0.244,22.695,0.365l45.389,0.798l45.391,0.859
		l7.871,0.149l-6.102,4.857L475.31,45.037l-19.434,15.351l-0.605,0.477l-0.699-0.016l-46.723-1.065l-23.359-0.39l-23.361-0.248
		l-23.363-0.098l-23.363,0.067l-46.732,0.503l-23.366,0.243c-7.789,0.105-15.576,0.119-23.365,0.131
		c-7.789,0.044-15.576-0.03-23.364-0.066c-7.788-0.021-15.575-0.132-23.362-0.225L150.85,59.42l-23.361-0.398
		c-7.788-0.121-15.575-0.276-23.361-0.463c-7.787-0.187-15.574-0.32-23.36-0.553l-6.352-0.189l5.26-3.396L92.095,46.4l12.453-7.968
		l12.486-7.92L129.667,22.605z"/>
</g>
</svg>
