<?xml version="1.0" standalone="no"?>
<!DOCTYPE svg PUBLIC "-//W3C//DTD SVG 1.1//EN" "http://www.w3.org/Graphics/SVG/1.1/DTD/svg11.dtd">
<svg version="1.1" xmlns="http://www.w3.org/2000/svg" xmlns:xlink="http://www.w3.org/1999/xlink" x="0px" y="0px" width="288px"
	 height="77.25px" viewBox="0 0 288 77.25" enable-background="new 0 0 288 77.25" xml:space="preserve" preserveAspectRatio="none">
<g id="Layer_1">
	<g>
		<g>
			<path d="M287.896,63.593c0,6.88-5.373,12.464-11.994,12.464H14.046c-6.624,0-11.993-5.584-11.993-12.464V16.844
				c0-6.882,5.37-12.463,11.993-12.463h261.856c6.621,0,11.994,5.581,11.994,12.463V63.593L287.896,63.593z"/>
			<path d="M288.001,63.598c0,0-0.007,0.17-0.022,0.504c-0.014,0.332-0.021,0.83-0.138,1.488c-0.21,1.293-0.661,3.278-2.141,5.396
				c-1.421,2.091-4.013,4.367-7.733,5.033c-0.912,0.183-1.9,0.205-2.882,0.203c-0.989,0.004-2.013,0.006-3.069,0.01
				c-2.111,0.006-4.356,0.014-6.729,0.021c-9.488-0.001-21.011,0.159-34.228,0.254c-13.217,0.108-28.127,0.23-44.394,0.364
				c-8.133,0.032-16.604,0.067-25.374,0.103c-8.768,0.043-17.833-0.021-27.152-0.027c-18.639,0.002-38.293-0.211-58.626-0.329
				c-20.338-0.099-41.354-0.2-62.708-0.304c-2.758-0.311-5.362-1.541-7.306-3.506c-1.94-1.947-3.264-4.524-3.643-7.265
				C1.637,64.166,1.704,62.8,1.69,61.467l-0.008-4.039c-0.006-2.695-0.011-5.393-0.017-8.093c-0.06-10.811-0.12-21.665-0.181-32.518
				c0.012-2.742,0.861-5.679,2.576-7.931c1.675-2.29,4.13-4.048,6.913-4.754c1.362-0.379,2.878-0.451,4.192-0.427l4.059-0.021
				c2.705-0.014,5.408-0.029,8.108-0.043c10.802-0.057,21.562-0.114,32.236-0.17c21.349-0.057,42.36-0.112,62.693-0.166
				c20.333,0.006,39.988,0.012,58.625,0.017c18.639-0.016,36.262,0.095,52.527,0.195c8.133,0.069,15.927,0.135,23.34,0.198
				c3.707,0.036,7.318,0.07,10.828,0.104c1.756,0.017,3.484,0.034,5.189,0.05c1.696,0.046,3.381-0.067,5.092,0.22
				c3.429,0.582,6.328,2.652,8.099,5.288c0.894,1.317,1.519,2.772,1.874,4.256c0.371,1.477,0.408,3.017,0.369,4.426
				c-0.061,5.719-0.092,10.971-0.1,15.715c-0.066,18.978-0.104,29.822-0.104,29.822V63.598z M287.793,63.593
				c0,0-0.038-10.844-0.104-29.822c-0.008-4.744-0.039-9.997-0.101-15.715c0.015-1.444-0.048-2.85-0.425-4.258
				c-0.361-1.399-0.977-2.761-1.837-3.984c-1.7-2.449-4.472-4.323-7.597-4.795c-1.558-0.242-3.252-0.108-4.957-0.122
				c-1.705,0.016-3.436,0.033-5.19,0.05c-3.511,0.034-7.121,0.068-10.828,0.104c-7.413,0.063-15.207,0.129-23.34,0.198
				c-16.267,0.1-33.89,0.211-52.526,0.195c-18.639,0.005-38.294,0.011-58.626,0.017c-20.333-0.054-41.344-0.11-62.693-0.167
				c-10.675-0.057-21.435-0.113-32.236-0.17c-2.7-0.014-5.403-0.029-8.108-0.043L15.166,5.06c-1.39-0.037-2.606,0.017-3.864,0.34
				C8.813,6.001,6.585,7.556,5.044,9.615c-0.776,1.026-1.395,2.182-1.787,3.414c-0.402,1.255-0.606,2.445-0.635,3.843
				c-0.061,10.835-0.121,21.67-0.181,32.462c-0.006,2.7-0.011,5.398-0.017,8.093l-0.008,4.039c0.007,1.353-0.06,2.693,0.142,3.974
				c0.347,2.595,1.591,5.039,3.419,6.89c1.818,1.866,4.319,3.041,6.86,3.342c2.631,0.136,5.322,0.048,7.971,0.063
				c2.658-0.006,5.309-0.014,7.954-0.021c5.29-0.015,10.553-0.029,15.784-0.043c10.463-0.059,20.799-0.115,30.965-0.173
				c20.333-0.118,39.988-0.331,58.626-0.329c9.319-0.006,18.384-0.07,27.152-0.027c8.77,0.035,17.24,0.069,25.374,0.103
				c16.267,0.133,31.177,0.255,44.394,0.364c13.217,0.096,24.738,0.254,34.228,0.254c2.373,0.007,4.618,0.014,6.729,0.021
				c2.108-0.034,4.11,0.129,5.896-0.172c3.624-0.624,6.174-2.83,7.578-4.871c1.461-2.063,1.92-4.016,2.132-5.276
				c0.116-0.637,0.13-1.137,0.146-1.471c0.019-0.333,0.026-0.502,0.026-0.502L287.793,63.593z"/>
		</g>
	</g>
	<g>
		<g>
			<linearGradient id="SVGID_1_" gradientUnits="userSpaceOnUse" x1="0.6885" y1="36.7148" x2="287.1553" y2="36.7148">
				<stop  offset="0" style="stop-color:#B21C1E"/>
				<stop  offset="0.5521" style="stop-color:#FF0000"/>
				<stop  offset="0.609" style="stop-color:#EB0707"/>
				<stop  offset="0.7076" style="stop-color:#CF1010"/>
				<stop  offset="0.8061" style="stop-color:#BA1717"/>
				<stop  offset="0.9039" style="stop-color:#AE1C1C"/>
				<stop  offset="1" style="stop-color:#AA1D1D"/>
			</linearGradient>
			<path fill-rule="evenodd" clip-rule="evenodd" fill="url(#SVGID_1_)" d="M287.155,60.138c0,6.898-5.38,12.494-12.022,12.494
				H12.709c-6.64,0-12.021-5.596-12.021-12.494V13.292c0-6.897,5.381-12.493,12.021-12.493h262.423
				c6.643,0,12.022,5.596,12.022,12.493V60.138z"/>
			<path d="M287.26,60.143c0,0-0.008,0.17-0.023,0.504c-0.014,0.334-0.022,0.832-0.138,1.492c-0.21,1.297-0.662,3.285-2.143,5.408
				c-1.423,2.096-4.02,4.378-7.748,5.046c-0.916,0.183-1.905,0.206-2.889,0.205c-0.992,0.004-2.018,0.007-3.076,0.01
				c-2.117,0.007-4.367,0.014-6.745,0.021c-9.509-0.001-21.056,0.158-34.301,0.255c-13.246,0.108-28.189,0.23-44.491,0.364
				c-8.15,0.032-16.641,0.066-25.429,0.103c-8.788,0.043-17.873-0.021-27.212-0.027c-18.679,0.002-38.377-0.212-58.754-0.33
				c-20.382-0.099-41.444-0.2-62.845-0.304c-2.764-0.311-5.374-1.544-7.322-3.513c-1.945-1.95-3.271-4.534-3.653-7.278
				c-0.22-1.382-0.154-2.75-0.167-4.087l-0.008-4.048c-0.006-2.7-0.011-5.404-0.017-8.11C0.239,35.028,0.178,24.16,0.117,13.292
				C0.13,10.49,0.98,7.586,2.698,5.316c1.678-2.295,4.138-4.058,6.926-4.768c1.365-0.38,2.885-0.453,4.202-0.429l4.068-0.021
				c2.711-0.015,5.42-0.029,8.126-0.043c10.825-0.057,21.608-0.114,32.306-0.171c21.396-0.057,42.453-0.112,62.83-0.167
				c20.377,0.006,40.075,0.011,58.754,0.017c18.68-0.017,36.34,0.095,52.642,0.195c8.15,0.069,15.962,0.135,23.392,0.198
				c3.714,0.036,7.333,0.07,10.852,0.104c1.759,0.017,3.493,0.033,5.201,0.05c1.7,0.046,3.389-0.067,5.102,0.22
				c3.437,0.583,6.344,2.657,8.117,5.298c0.896,1.32,1.522,2.778,1.879,4.265c0.373,1.48,0.41,3.023,0.37,4.436
				c-0.06,5.731-0.091,10.996-0.099,15.75c-0.067,19.019-0.105,29.887-0.105,29.887V60.143z M287.051,60.138
				c0,0-0.038-10.868-0.105-29.887c-0.008-4.754-0.039-10.019-0.099-15.75c0.013-1.447-0.05-2.855-0.427-4.267
				c-0.363-1.402-0.979-2.768-1.843-3.993c-1.703-2.454-4.479-4.332-7.611-4.805c-1.562-0.242-3.261-0.108-4.97-0.122
				c-1.708,0.017-3.442,0.033-5.201,0.05c-3.519,0.034-7.138,0.069-10.852,0.104c-7.43,0.063-15.241,0.129-23.392,0.198
				c-16.302,0.1-33.962,0.212-52.642,0.195c-18.679,0.005-38.377,0.011-58.754,0.017c-20.377-0.054-41.434-0.11-62.83-0.167
				C47.628,1.656,36.845,1.599,26.02,1.542c-2.707-0.014-5.416-0.028-8.126-0.043l-4.068-0.021c-1.392-0.035-2.61,0.02-3.871,0.344
				c-2.494,0.604-4.726,2.162-6.27,4.227c-1.586,2.068-2.376,4.628-2.425,7.245C1.199,24.16,1.138,35.028,1.078,45.854
				c-0.005,2.706-0.011,5.41-0.017,8.11l-0.008,4.048c0.007,1.356-0.061,2.699,0.143,3.982c0.349,2.599,1.596,5.049,3.428,6.902
				c1.822,1.872,4.33,3.047,6.876,3.349c2.637,0.135,5.333,0.049,7.988,0.064c2.663-0.007,5.32-0.015,7.971-0.022
				c5.301-0.015,10.576-0.029,15.819-0.043c10.485-0.06,20.844-0.117,31.033-0.174c20.377-0.118,40.075-0.332,58.754-0.33
				c9.339-0.006,18.424-0.07,27.212-0.027c8.788,0.036,17.278,0.07,25.429,0.103c16.302,0.134,31.245,0.256,44.491,0.364
				c13.245,0.097,24.792,0.256,34.301,0.255c2.378,0.008,4.628,0.015,6.745,0.021c2.112-0.034,4.12,0.129,5.909-0.174
				c3.632-0.626,6.188-2.837,7.593-4.883c1.464-2.068,1.922-4.025,2.135-5.29c0.117-0.638,0.13-1.139,0.146-1.474
				c0.017-0.334,0.025-0.503,0.025-0.503V60.138z"/>
		</g>
	</g>
	<g>
		<g>
			<path fill="#FFFFFF" stroke="#FFFFFF" stroke-width="0.6939" stroke-miterlimit="10" d="M93.999,32.374
				c0-7.397,0-8.723-0.094-10.241c-0.098-1.612-0.478-2.37-2.039-2.703c-0.38-0.095-1.185-0.142-1.61-0.142
				c-0.193,0-0.381-0.095-0.381-0.284c0-0.284,0.237-0.38,0.758-0.38c2.136,0,5.119,0.144,5.354,0.144
				c0.525,0,4.126-0.144,5.593-0.144c2.991,0,6.166,0.285,8.678,2.086c1.185,0.853,3.271,3.174,3.271,6.446
				c0,3.508-1.469,7.016-5.736,10.953c3.892,4.978,7.109,9.196,9.861,12.135c2.559,2.699,4.598,3.221,5.782,3.41
				c0.897,0.143,1.565,0.143,1.849,0.143c0.236,0,0.427,0.143,0.427,0.285c0,0.287-0.284,0.379-1.138,0.379h-3.366
				c-2.652,0-3.84-0.236-5.071-0.9c-2.038-1.09-3.697-3.416-6.399-6.969c-1.991-2.607-4.218-5.781-5.166-7.016
				c-0.19-0.188-0.331-0.282-0.617-0.282L98.121,39.2c-0.236,0-0.331,0.14-0.331,0.375v1.14c0,4.553,0,8.295,0.239,10.288
				c0.141,1.371,0.424,2.415,1.849,2.606c0.664,0.095,1.701,0.188,2.131,0.188c0.286,0,0.379,0.143,0.379,0.285
				c0,0.236-0.236,0.379-0.76,0.379c-2.603,0-5.593-0.143-5.829-0.143c-0.048,0-3.031,0.143-4.454,0.143
				c-0.523,0-0.758-0.092-0.758-0.379c0-0.143,0.094-0.285,0.378-0.285c0.425,0,0.992-0.093,1.419-0.188
				c0.952-0.191,1.187-1.235,1.375-2.606c0.239-1.993,0.239-5.735,0.239-10.288L93.999,32.374L93.999,32.374z M97.79,36.496
				c0,0.236,0.095,0.427,0.331,0.569c0.71,0.425,2.893,0.756,4.976,0.756c1.142,0,2.465-0.14,3.559-0.898
				c1.66-1.138,2.888-3.698,2.888-7.302c0-5.923-3.125-9.48-8.199-9.48c-1.421,0-2.703,0.142-3.174,0.285
				c-0.239,0.095-0.38,0.285-0.38,0.571L97.79,36.496L97.79,36.496z"/>
			<path fill="#FFFFFF" stroke="#FFFFFF" stroke-width="0.6939" stroke-miterlimit="10" d="M128.668,35.641
				c0-6.255,0-7.393-0.095-8.674c-0.094-1.375-0.328-2.038-1.705-2.227c-0.331-0.048-1.045-0.096-1.421-0.096
				c-0.146,0-0.333-0.188-0.333-0.33c0-0.238,0.187-0.333,0.663-0.333c1.896,0,4.599,0.095,4.833,0.095c0.288,0,9.006,0.049,9.955,0
				c0.807-0.047,1.565-0.191,1.896-0.238c0.191-0.046,0.38-0.188,0.57-0.188c0.143,0,0.193,0.188,0.193,0.378
				c0,0.285-0.24,0.76-0.332,1.897c-0.051,0.38-0.147,2.18-0.24,2.654c-0.049,0.191-0.191,0.426-0.379,0.426
				c-0.235,0-0.332-0.191-0.332-0.523c0-0.283-0.049-0.947-0.234-1.419c-0.288-0.664-0.715-0.95-2.993-1.233
				c-0.708-0.096-5.544-0.144-6.016-0.144c-0.192,0-0.237,0.144-0.237,0.427v10.951c0,0.285,0,0.425,0.237,0.425
				c0.52,0,6.016,0,6.965-0.095c0.997-0.094,1.614-0.14,2.043-0.569c0.282-0.281,0.47-0.521,0.612-0.521
				c0.141,0,0.238,0.096,0.238,0.334c0,0.235-0.238,0.899-0.331,2.226c-0.096,0.806-0.188,2.324-0.188,2.611
				c0,0.33-0.097,0.754-0.382,0.754c-0.189,0-0.284-0.142-0.284-0.377c0-0.377,0-0.807-0.19-1.326
				c-0.14-0.57-0.521-1.045-2.135-1.233c-1.136-0.144-5.592-0.192-6.3-0.192c-0.241,0-0.286,0.144-0.286,0.286v3.365
				c0,1.375-0.047,6.069,0,6.874c0.094,2.703,0.852,3.225,4.975,3.225c1.095,0,3.086,0,4.175-0.427
				c1.089-0.473,1.657-1.187,1.894-2.798c0.095-0.473,0.189-0.615,0.427-0.615c0.236,0,0.287,0.332,0.287,0.615
				c0,0.287-0.331,3.033-0.572,3.887c-0.284,1.043-0.71,1.043-2.323,1.043c-3.127,0-5.543-0.094-7.251-0.142
				c-1.755-0.097-2.846-0.097-3.463-0.097c-0.095,0-0.898,0-1.798,0.052c-0.809,0.045-1.754,0.092-2.418,0.092
				c-0.429,0-0.666-0.092-0.666-0.33c0-0.144,0.094-0.334,0.333-0.334c0.38,0,0.902-0.142,1.279-0.188
				c0.805-0.144,0.905-0.95,1.09-2.135c0.237-1.656,0.237-4.834,0.237-8.723v-7.109H128.668z"/>
			<path fill="#FFFFFF" stroke="#FFFFFF" stroke-width="0.6939" stroke-miterlimit="10" d="M155.13,50.67
				c-4.075-3.509-5.065-8.107-5.065-11.945c0-2.704,0.99-7.396,4.689-10.999c2.51-2.417,6.305-4.314,12.704-4.314
				c1.655,0,4.03,0.144,6.065,0.473c1.566,0.285,2.895,0.571,4.27,0.617c0.423,0,0.521,0.19,0.521,0.428
				c0,0.331-0.1,0.806-0.188,2.275c-0.053,1.328-0.053,3.555-0.097,4.125c-0.051,0.614-0.236,0.853-0.475,0.853
				c-0.285,0-0.334-0.283-0.334-0.853c0-1.564-0.664-3.176-1.75-4.032c-1.473-1.231-4.507-2.226-8.205-2.226
				c-5.353,0-7.91,1.422-9.383,2.796c-3.084,2.845-3.748,6.448-3.748,10.524c0,7.725,6.115,14.598,15.03,14.598
				c3.125,0,5.21-0.237,6.873-1.895c0.899-0.9,1.468-2.607,1.606-3.365c0.097-0.428,0.146-0.57,0.428-0.57
				c0.193,0,0.383,0.281,0.383,0.57c0,0.283-0.569,3.791-0.995,5.166c-0.239,0.758-0.333,0.899-1.043,1.186
				c-1.713,0.664-4.838,0.9-7.54,0.9C162.622,54.982,158.402,53.514,155.13,50.67z"/>
			<path fill="#FFFFFF" stroke="#FFFFFF" stroke-width="0.6939" stroke-miterlimit="10" d="M188.382,35.641
				c0-6.255,0-7.393-0.095-8.674c-0.098-1.375-0.335-2.038-1.707-2.227c-0.332-0.048-1.042-0.096-1.424-0.096
				c-0.141,0-0.333-0.188-0.333-0.33c0-0.238,0.192-0.333,0.668-0.333c1.896,0,4.595,0.095,4.833,0.095c0.283,0,9.005,0.049,9.953,0
				c0.806-0.047,1.562-0.191,1.896-0.238c0.192-0.046,0.379-0.188,0.571-0.188c0.14,0,0.188,0.188,0.188,0.378
				c0,0.285-0.233,0.76-0.334,1.897c-0.048,0.38-0.143,2.18-0.233,2.654c-0.052,0.191-0.192,0.426-0.384,0.426
				c-0.234,0-0.332-0.191-0.332-0.523c0-0.283-0.045-0.947-0.237-1.419c-0.279-0.664-0.707-0.95-2.985-1.233
				c-0.707-0.096-5.545-0.144-6.017-0.144c-0.19,0-0.239,0.144-0.239,0.427v10.951c0,0.285,0,0.425,0.239,0.425
				c0.521,0,6.017,0,6.97-0.095c0.991-0.094,1.607-0.14,2.032-0.569c0.29-0.281,0.478-0.521,0.623-0.521
				c0.138,0,0.233,0.096,0.233,0.334c0,0.235-0.233,0.899-0.332,2.226c-0.099,0.806-0.189,2.324-0.189,2.611
				c0,0.33-0.098,0.754-0.381,0.754c-0.188,0-0.285-0.142-0.285-0.377c0-0.377,0-0.807-0.188-1.326
				c-0.145-0.57-0.522-1.045-2.136-1.233c-1.136-0.144-5.592-0.192-6.304-0.192c-0.236,0-0.284,0.144-0.284,0.286v3.365
				c0,1.375-0.044,6.069,0,6.874c0.095,2.703,0.854,3.225,4.979,3.225c1.088,0,3.08,0,4.168-0.427
				c1.091-0.473,1.658-1.187,1.898-2.798c0.092-0.473,0.186-0.615,0.424-0.615c0.24,0,0.287,0.332,0.287,0.615
				c0,0.287-0.332,3.033-0.57,3.887c-0.281,1.043-0.711,1.043-2.324,1.043c-3.126,0-5.544-0.094-7.252-0.142
				c-1.754-0.097-2.84-0.097-3.459-0.097c-0.092,0-0.898,0-1.803,0.052c-0.805,0.045-1.756,0.092-2.416,0.092
				c-0.43,0-0.664-0.092-0.664-0.33c0-0.144,0.097-0.334,0.334-0.334c0.381,0,0.896-0.142,1.279-0.188
				c0.803-0.144,0.896-0.95,1.088-2.135c0.238-1.656,0.238-4.834,0.238-8.723v-7.109H188.382z"/>
			<path fill="#FFFFFF" stroke="#FFFFFF" stroke-width="0.6939" stroke-miterlimit="10" d="M211.008,53.893
				c-0.568-0.283-0.613-0.427-0.613-1.518c0-1.99,0.188-3.602,0.231-4.266c0-0.426,0.099-0.666,0.331-0.666
				c0.238,0,0.383,0.144,0.383,0.478c0,0.332,0,0.901,0.141,1.47c0.664,2.939,3.793,3.982,6.588,3.982
				c4.127,0,6.259-2.324,6.259-5.357c0-2.892-1.563-4.264-5.261-7.015l-1.897-1.424c-4.504-3.365-5.974-5.828-5.974-8.625
				c0-4.742,3.746-7.585,9.246-7.585c1.656,0,3.314,0.237,4.314,0.473c0.803,0.191,1.135,0.191,1.469,0.191
				c0.33,0,0.426,0.047,0.426,0.285c0,0.188-0.189,1.517-0.189,4.266c0,0.616-0.052,0.898-0.332,0.898
				c-0.283,0-0.333-0.188-0.384-0.52c-0.043-0.475-0.377-1.566-0.613-1.992c-0.282-0.474-1.657-1.99-5.403-1.99
				c-3.031,0-5.545,1.517-5.545,4.363c0,2.559,1.276,4.027,5.4,6.826l1.188,0.804c5.074,3.46,6.824,6.257,6.824,9.716
				c0,2.371-0.898,4.931-3.884,6.875c-1.753,1.136-4.36,1.422-6.64,1.422C215.125,54.982,212.711,54.695,211.008,53.893z"/>
			<path fill="#FFFFFF" stroke="#FFFFFF" stroke-width="0.6939" stroke-miterlimit="10" d="M235.861,53.893
				c-0.568-0.283-0.618-0.427-0.618-1.518c0-1.99,0.188-3.602,0.235-4.266c0-0.426,0.094-0.666,0.334-0.666
				c0.236,0,0.379,0.144,0.379,0.478c0,0.332,0,0.901,0.142,1.47c0.664,2.939,3.789,3.982,6.589,3.982
				c4.125,0,6.258-2.324,6.258-5.357c0-2.892-1.562-4.264-5.265-7.015l-1.896-1.424c-4.502-3.365-5.971-5.828-5.971-8.625
				c0-4.742,3.743-7.585,9.242-7.585c1.66,0,3.318,0.237,4.312,0.473c0.808,0.191,1.141,0.191,1.472,0.191
				c0.334,0,0.424,0.047,0.424,0.285c0,0.188-0.187,1.517-0.187,4.266c0,0.616-0.053,0.898-0.332,0.898
				c-0.285,0-0.332-0.188-0.383-0.52c-0.045-0.475-0.377-1.566-0.615-1.992c-0.282-0.474-1.657-1.99-5.403-1.99
				c-3.031,0-5.544,1.517-5.544,4.363c0,2.559,1.275,4.027,5.4,6.826l1.187,0.804c5.073,3.46,6.826,6.257,6.826,9.716
				c0,2.371-0.899,4.931-3.886,6.875c-1.754,1.136-4.362,1.422-6.638,1.422C239.98,54.982,237.564,54.695,235.861,53.893z"/>
		</g>
		<g>
			<path fill="#FFFFFF" d="M47.5,53.225c-2.719,0-5.5-1.276-5.5-2.855V23.236c0-1.577,2.781-2.855,5.5-2.855l0,0
				c2.716,0,5.5,1.279,5.5,2.855v27.133C53,51.948,50.216,53.225,47.5,53.225L47.5,53.225z"/>
			<g>
				<path fill="#FFFFFF" d="M67.5,53.225c-2.718,0-5.5-1.276-5.5-2.855V23.236c0-1.577,2.782-2.855,5.5-2.855l0,0
					c2.716,0,5.5,1.279,5.5,2.855v27.133C73,51.948,70.216,53.225,67.5,53.225L67.5,53.225z"/>
			</g>
		</g>
	</g>
</g>
<g id="Layer_2">
</g>
</svg>
