<?xml version="1.0" standalone="no"?>
<!DOCTYPE svg PUBLIC "-//W3C//DTD SVG 1.1//EN" "http://www.w3.org/Graphics/SVG/1.1/DTD/svg11.dtd">
<svg version="1.1" id="Layer_1" xmlns="http://www.w3.org/2000/svg" xmlns:xlink="http://www.w3.org/1999/xlink" x="0px" y="0px"
	 width="288px" height="77.25px" viewBox="0 0 288 77.25" enable-background="new 0 0 288 77.25" xml:space="preserve" preserveAspectRatio="none">
<g>
	<g>
		<path d="M287.896,63.593c0,6.88-5.373,12.464-11.994,12.464H14.046c-6.624,0-11.993-5.584-11.993-12.464V16.844
			c0-6.882,5.37-12.463,11.993-12.463h261.856c6.621,0,11.994,5.581,11.994,12.463V63.593L287.896,63.593z"/>
		<path d="M288.001,63.598c0,0-0.007,0.17-0.022,0.504c-0.014,0.332-0.021,0.83-0.138,1.488c-0.21,1.293-0.661,3.278-2.141,5.396
			c-1.421,2.091-4.013,4.367-7.733,5.033c-0.912,0.183-1.9,0.205-2.882,0.203c-0.989,0.004-2.013,0.006-3.069,0.01
			c-2.111,0.007-4.356,0.014-6.729,0.021c-9.488-0.001-21.011,0.159-34.228,0.254c-13.217,0.108-28.127,0.23-44.394,0.364
			c-8.133,0.032-16.604,0.067-25.374,0.103c-8.768,0.043-17.833-0.021-27.152-0.027c-18.639,0.002-38.293-0.211-58.626-0.329
			c-20.338-0.099-41.354-0.2-62.708-0.304c-2.758-0.311-5.362-1.541-7.306-3.506c-1.94-1.947-3.264-4.524-3.643-7.265
			C1.637,64.166,1.704,62.8,1.69,61.467l-0.008-4.039c-0.006-2.695-0.011-5.393-0.017-8.093c-0.06-10.811-0.12-21.665-0.181-32.518
			c0.012-2.742,0.861-5.679,2.576-7.931c1.675-2.29,4.13-4.048,6.913-4.754c1.362-0.379,2.878-0.451,4.192-0.427l4.059-0.021
			c2.705-0.014,5.408-0.029,8.108-0.043c10.802-0.057,21.562-0.114,32.236-0.17c21.349-0.057,42.36-0.112,62.693-0.166
			c20.333,0.006,39.988,0.012,58.625,0.017c18.639-0.016,36.262,0.095,52.527,0.195c8.133,0.069,15.927,0.135,23.34,0.198
			c3.707,0.036,7.318,0.07,10.828,0.104c1.756,0.017,3.484,0.034,5.189,0.05c1.696,0.046,3.381-0.067,5.092,0.22
			c3.429,0.582,6.328,2.652,8.099,5.288c0.894,1.317,1.519,2.772,1.874,4.256c0.371,1.477,0.408,3.017,0.369,4.426
			c-0.061,5.719-0.092,10.971-0.1,15.715c-0.066,18.978-0.104,29.822-0.104,29.822V63.598z M287.793,63.593
			c0,0-0.038-10.844-0.104-29.822c-0.008-4.744-0.039-9.997-0.101-15.715c0.015-1.444-0.048-2.85-0.425-4.258
			c-0.361-1.399-0.977-2.761-1.837-3.984c-1.7-2.449-4.472-4.323-7.597-4.795c-1.558-0.242-3.252-0.108-4.957-0.122
			c-1.705,0.016-3.436,0.033-5.19,0.05c-3.511,0.034-7.121,0.068-10.828,0.104c-7.413,0.063-15.207,0.129-23.34,0.198
			c-16.267,0.1-33.89,0.211-52.526,0.195c-18.639,0.005-38.294,0.011-58.626,0.017c-20.333-0.054-41.344-0.11-62.693-0.167
			c-10.675-0.057-21.435-0.113-32.236-0.17c-2.7-0.014-5.403-0.029-8.108-0.043L15.166,5.06c-1.39-0.037-2.606,0.017-3.864,0.34
			C8.813,6.001,6.585,7.556,5.044,9.615c-0.776,1.026-1.395,2.182-1.787,3.414c-0.402,1.255-0.606,2.445-0.635,3.843
			c-0.061,10.835-0.121,21.67-0.181,32.462c-0.006,2.7-0.011,5.398-0.017,8.093l-0.008,4.039c0.007,1.353-0.06,2.693,0.142,3.974
			c0.347,2.595,1.591,5.039,3.419,6.89c1.818,1.866,4.319,3.041,6.86,3.342c2.631,0.136,5.322,0.048,7.971,0.063
			c2.658-0.006,5.309-0.014,7.954-0.021c5.29-0.015,10.553-0.029,15.784-0.043c10.463-0.059,20.799-0.115,30.965-0.173
			c20.333-0.118,39.988-0.331,58.626-0.329c9.319-0.006,18.384-0.07,27.152-0.027c8.77,0.035,17.24,0.069,25.374,0.103
			c16.267,0.133,31.177,0.255,44.394,0.364c13.217,0.096,24.738,0.254,34.228,0.254c2.373,0.007,4.618,0.014,6.729,0.021
			c2.108-0.034,4.11,0.129,5.896-0.172c3.624-0.624,6.174-2.83,7.578-4.871c1.461-2.063,1.92-4.016,2.132-5.276
			c0.116-0.637,0.13-1.137,0.146-1.471c0.019-0.333,0.026-0.502,0.026-0.502L287.793,63.593z"/>
	</g>
</g>
<g>
	<g>
		
			<linearGradient id="SVGID_1_" gradientUnits="userSpaceOnUse" x1="36.5669" y1="-65.9116" x2="322.4111" y2="-65.9116" gradientTransform="matrix(1 0 0 -1 -36 -29.75)">
			<stop  offset="0" style="stop-color:#002E62"/>
			<stop  offset="0.1453" style="stop-color:#003269"/>
			<stop  offset="0.3518" style="stop-color:#003E7B"/>
			<stop  offset="0.5674" style="stop-color:#004E96"/>
			<stop  offset="0.6745" style="stop-color:#003C7A"/>
			<stop  offset="0.7838" style="stop-color:#002E66"/>
			<stop  offset="0.8927" style="stop-color:#00265A"/>
			<stop  offset="1" style="stop-color:#002356"/>
		</linearGradient>
		<path fill="url(#SVGID_1_)" d="M286.411,59.533c0,6.884-5.367,12.467-11.994,12.467H12.562C5.937,72,0.567,66.417,0.567,59.533
			V12.789c0-6.882,5.37-12.466,11.995-12.466h261.855c6.627,0,11.994,5.583,11.994,12.466V59.533z"/>
		<path d="M286.516,59.538c0,0-0.008,0.169-0.022,0.503c-0.015,0.333-0.022,0.83-0.138,1.488c-0.209,1.295-0.662,3.279-2.139,5.396
			c-1.419,2.092-4.01,4.369-7.73,5.035c-0.913,0.182-1.9,0.206-2.883,0.205c-0.989,0.003-2.013,0.006-3.068,0.01
			c-2.113,0.006-4.357,0.014-6.73,0.021c-9.488-0.002-21.011,0.158-34.227,0.254c-13.217,0.107-28.128,0.23-44.395,0.363
			c-8.134,0.033-16.604,0.066-25.373,0.103c-8.77,0.043-17.834-0.021-27.153-0.026c-18.639,0.002-38.294-0.211-58.627-0.33
			c-20.338-0.098-41.354-0.199-62.708-0.303c-2.758-0.31-5.362-1.54-7.306-3.505c-1.941-1.946-3.265-4.524-3.645-7.263
			c-0.22-1.379-0.153-2.744-0.167-4.077l-0.008-4.039C0.19,50.68,0.185,47.98,0.179,45.281c-0.06-10.802-0.121-21.646-0.181-32.49
			C0.01,9.994,0.859,7.097,2.573,4.832c1.674-2.29,4.129-4.049,6.911-4.756c1.362-0.38,2.878-0.453,4.192-0.429l4.059-0.021
			c2.705-0.014,5.408-0.029,8.108-0.043c10.802-0.057,21.562-0.114,32.236-0.17c21.35-0.057,42.36-0.112,62.693-0.166
			c20.333,0.006,39.988,0.011,58.626,0.017c18.639-0.017,36.261,0.095,52.526,0.195c8.134,0.069,15.927,0.135,23.341,0.198
			c3.707,0.036,7.317,0.07,10.828,0.104c1.756,0.017,3.485,0.034,5.189,0.05c1.695,0.046,3.381-0.066,5.091,0.219
			c3.429,0.581,6.329,2.65,8.101,5.287c0.893,1.317,1.519,2.772,1.873,4.256c0.373,1.477,0.409,3.017,0.371,4.426
			c-0.062,5.718-0.093,10.971-0.101,15.715c-0.065,18.978-0.104,29.822-0.104,29.822L286.516,59.538z M286.307,59.533
			c0,0-0.037-10.844-0.104-29.822c-0.008-4.744-0.039-9.997-0.1-15.715c0.014-1.445-0.049-2.85-0.427-4.258
			c-0.36-1.399-0.977-2.761-1.838-3.984c-1.698-2.449-4.47-4.322-7.595-4.794c-1.559-0.241-3.254-0.108-4.959-0.121
			c-1.704,0.016-3.436,0.033-5.189,0.05c-3.511,0.034-7.121,0.068-10.828,0.104c-7.414,0.063-15.207,0.129-23.341,0.198
			c-16.267,0.1-33.889,0.211-52.526,0.195c-18.64,0.005-38.293,0.011-58.626,0.017C100.44,1.347,79.429,1.292,58.08,1.235
			c-10.675-0.057-21.434-0.113-32.236-0.17c-2.7-0.014-5.403-0.029-8.108-0.043L13.676,1c-1.389-0.035-2.604,0.02-3.863,0.344
			C7.325,1.946,5.097,3.501,3.557,5.561c-1.582,2.064-2.371,4.618-2.42,7.229C1.076,23.634,1.016,34.478,0.956,45.28
			c-0.006,2.7-0.011,5.397-0.017,8.093L0.93,57.412c0.007,1.354-0.061,2.693,0.143,3.974c0.348,2.593,1.592,5.037,3.421,6.888
			c1.818,1.867,4.32,3.039,6.861,3.341c2.632,0.134,5.322,0.048,7.971,0.063c2.657-0.007,5.309-0.015,7.954-0.021
			c5.29-0.016,10.553-0.029,15.785-0.045c10.463-0.059,20.799-0.115,30.965-0.172c20.333-0.119,39.988-0.332,58.627-0.33
			c9.319-0.006,18.384-0.069,27.153-0.026c8.769,0.035,17.239,0.069,25.373,0.103c16.267,0.133,31.178,0.256,44.395,0.363
			c13.216,0.096,24.738,0.256,34.227,0.254c2.372,0.008,4.617,0.014,6.73,0.021c2.107-0.034,4.109,0.129,5.896-0.172
			c3.623-0.625,6.174-2.832,7.575-4.873c1.46-2.064,1.917-4.018,2.129-5.279c0.117-0.636,0.13-1.136,0.146-1.47
			c0.018-0.333,0.026-0.503,0.026-0.503L286.307,59.533z"/>
	</g>
</g>
<g>
	<path fill="#FFFFFF" d="M96.056,47.306c-3.24-2.906-4.042-6.714-4.042-9.887c0-2.237,0.768-6.146,3.741-9.118
		c2.004-2.004,5.043-3.574,10.187-3.574c1.336,0,3.207,0.101,4.843,0.401c1.27,0.234,2.338,0.435,3.407,0.501
		c0.367,0.034,0.434,0.167,0.434,0.368c0,0.268-0.1,0.668-0.167,1.87c-0.067,1.103-0.067,2.939-0.1,3.44
		c-0.034,0.501-0.1,0.701-0.301,0.701c-0.234,0-0.267-0.233-0.267-0.701c0-1.303-0.535-2.672-1.403-3.407
		c-1.169-1.002-3.741-1.903-6.68-1.903c-4.442,0-6.514,1.303-7.683,2.438c-2.438,2.338-3.006,5.311-3.006,8.718
		c0,6.379,4.91,12.224,12.058,12.224c2.505,0,4.476-0.301,5.812-1.67c0.701-0.735,1.136-2.204,1.236-2.806
		c0.067-0.367,0.134-0.501,0.334-0.501c0.167,0,0.234,0.233,0.234,0.501c0,0.233-0.401,3.14-0.735,4.275
		c-0.201,0.635-0.267,0.701-0.869,0.969c-1.336,0.534-3.875,0.768-6.012,0.768C102.068,50.912,98.695,49.677,96.056,47.306z"/>
	<path fill="#FFFFFF" d="M129.893,28.568c6.614,0,11.624,4.041,11.624,10.654c0,6.347-4.71,11.591-11.791,11.591
		c-8.05,0-11.49-6.046-11.49-11.156C118.235,35.081,121.776,28.568,129.893,28.568z M130.561,49.644c2.639,0,7.95-1.403,7.95-9.62
		c0-6.813-4.142-10.387-8.785-10.387c-4.91,0-8.451,3.073-8.451,9.252C121.275,45.502,125.25,49.644,130.561,49.644z"/>
	<path fill="#FFFFFF" d="M148.898,46.57c0.067,2.338,0.335,3.04,1.136,3.24c0.535,0.134,1.203,0.167,1.47,0.167
		c0.134,0,0.234,0.1,0.234,0.233c0,0.167-0.2,0.234-0.534,0.234c-1.671,0-2.84-0.101-3.106-0.101c-0.268,0-1.504,0.101-2.84,0.101
		c-0.3,0-0.467-0.034-0.467-0.234c0-0.134,0.1-0.233,0.233-0.233c0.233,0,0.769-0.033,1.202-0.167
		c0.735-0.2,0.835-0.969,0.835-3.541V30.003c0-1.136,0.167-1.436,0.401-1.436c0.334,0,0.835,0.567,1.136,0.868
		c0.468,0.468,4.743,5.01,9.285,9.687c2.906,3.005,6.046,6.379,6.947,7.314l-0.3-14.228c-0.034-1.837-0.201-2.472-1.103-2.639
		c-0.534-0.101-1.202-0.134-1.437-0.134c-0.2,0-0.233-0.167-0.233-0.268c0-0.167,0.233-0.2,0.567-0.2
		c1.336,0,2.739,0.066,3.073,0.066s1.303-0.066,2.505-0.066c0.301,0,0.534,0.033,0.534,0.2c0,0.101-0.133,0.268-0.334,0.268
		c-0.134,0-0.367,0-0.701,0.066c-0.969,0.2-1.035,0.769-1.035,2.472l-0.067,16.633c0,1.871-0.033,2.038-0.233,2.038
		c-0.301,0-0.602-0.234-2.238-1.737c-0.301-0.267-4.542-4.442-7.648-7.682c-3.407-3.574-6.714-7.047-7.616-8.049L148.898,46.57z"/>
	<path fill="#FFFFFF" d="M181.934,46.737c1.703-3.808,5.544-13.494,6.179-15.531c0.134-0.435,0.268-0.835,0.268-1.069
		c0-0.233-0.101-0.501-0.401-0.602c-0.334-0.1-0.668-0.1-1.002-0.1c-0.167,0-0.334-0.101-0.334-0.234
		c0-0.167,0.201-0.233,0.668-0.233c1.17,0,2.506,0.066,2.873,0.066c0.167,0,1.437-0.066,2.305-0.066c0.301,0,0.468,0.066,0.468,0.2
		s-0.101,0.268-0.334,0.268c-0.201,0-0.869,0-1.403,0.334c-0.4,0.268-0.868,0.668-1.637,2.605c-0.334,0.802-1.771,4.208-3.273,7.681
		c-1.804,4.143-3.106,7.215-3.774,8.618c-0.802,1.703-0.969,2.138-1.269,2.138c-0.334,0-0.535-0.367-1.103-1.737l-7.215-17.402
		c-0.668-1.603-1.068-1.903-2.037-2.138c-0.468-0.1-0.969-0.1-1.136-0.1s-0.234-0.167-0.234-0.268c0-0.167,0.301-0.2,0.769-0.2
		c1.403,0,3.073,0.066,3.44,0.066c0.301,0,1.604-0.066,2.739-0.066c0.534,0,0.801,0.066,0.801,0.2s-0.1,0.268-0.3,0.268
		c-0.334,0-0.802,0.033-1.069,0.134c-0.301,0.133-0.334,0.3-0.334,0.501c0,0.367,0.367,1.235,0.802,2.371L181.934,46.737z"/>
	<path fill="#FFFFFF" d="M197.298,37.185c0-4.409,0-5.211-0.066-6.112c-0.066-0.969-0.233-1.437-1.202-1.57
		c-0.234-0.033-0.735-0.066-1.002-0.066c-0.101,0-0.234-0.134-0.234-0.234c0-0.167,0.134-0.233,0.468-0.233
		c1.336,0,3.24,0.066,3.407,0.066c0.2,0,6.346,0.034,7.014,0c0.568-0.033,1.103-0.133,1.337-0.167
		c0.133-0.033,0.267-0.133,0.4-0.133c0.101,0,0.134,0.133,0.134,0.267c0,0.2-0.167,0.534-0.234,1.336
		c-0.033,0.268-0.1,1.537-0.167,1.871c-0.033,0.134-0.133,0.301-0.267,0.301c-0.167,0-0.234-0.134-0.234-0.368
		c0-0.2-0.033-0.668-0.167-1.002c-0.2-0.468-0.501-0.668-2.104-0.868c-0.501-0.066-3.908-0.101-4.242-0.101
		c-0.134,0-0.167,0.101-0.167,0.301v7.716c0,0.2,0,0.301,0.167,0.301c0.367,0,4.242,0,4.91-0.067c0.701-0.066,1.136-0.1,1.436-0.4
		c0.201-0.2,0.334-0.367,0.435-0.367s0.167,0.066,0.167,0.233s-0.167,0.635-0.233,1.57c-0.067,0.567-0.134,1.637-0.134,1.837
		c0,0.233-0.067,0.534-0.268,0.534c-0.134,0-0.2-0.1-0.2-0.267c0-0.268,0-0.568-0.134-0.936c-0.101-0.401-0.367-0.735-1.503-0.868
		c-0.802-0.101-3.941-0.134-4.442-0.134c-0.167,0-0.2,0.1-0.2,0.2v2.371c0,0.969-0.033,4.275,0,4.844
		c0.066,1.903,0.601,2.271,3.507,2.271c0.769,0,2.171,0,2.939-0.301c0.769-0.334,1.169-0.835,1.336-1.971
		c0.066-0.334,0.134-0.435,0.301-0.435s0.2,0.234,0.2,0.435s-0.233,2.138-0.4,2.739c-0.201,0.734-0.501,0.734-1.637,0.734
		c-2.205,0-3.908-0.066-5.11-0.101c-1.236-0.066-2.005-0.066-2.438-0.066c-0.067,0-0.635,0-1.27,0.033
		c-0.567,0.033-1.235,0.067-1.703,0.067c-0.301,0-0.468-0.067-0.468-0.234c0-0.1,0.066-0.233,0.233-0.233
		c0.268,0,0.635-0.101,0.902-0.134c0.567-0.101,0.635-0.668,0.768-1.503c0.167-1.169,0.167-3.407,0.167-6.146V37.185z"/>
	<path fill="#FFFFFF" d="M216.938,46.57c0.066,2.338,0.334,3.04,1.136,3.24c0.534,0.134,1.202,0.167,1.47,0.167
		c0.134,0,0.233,0.1,0.233,0.233c0,0.167-0.2,0.234-0.534,0.234c-1.67,0-2.839-0.101-3.106-0.101s-1.503,0.101-2.839,0.101
		c-0.301,0-0.468-0.034-0.468-0.234c0-0.134,0.101-0.233,0.233-0.233c0.234,0,0.769-0.033,1.203-0.167
		c0.734-0.2,0.835-0.969,0.835-3.541V30.003c0-1.136,0.167-1.436,0.4-1.436c0.334,0,0.835,0.567,1.136,0.868
		c0.468,0.468,4.743,5.01,9.286,9.687c2.905,3.005,6.045,6.379,6.947,7.314l-0.301-14.228c-0.033-1.837-0.2-2.472-1.103-2.639
		c-0.534-0.101-1.202-0.134-1.436-0.134c-0.201,0-0.234-0.167-0.234-0.268c0-0.167,0.234-0.2,0.568-0.2
		c1.336,0,2.738,0.066,3.072,0.066s1.303-0.066,2.506-0.066c0.3,0,0.534,0.033,0.534,0.2c0,0.101-0.134,0.268-0.334,0.268
		c-0.134,0-0.367,0-0.701,0.066c-0.969,0.2-1.036,0.769-1.036,2.472l-0.066,16.633c0,1.871-0.033,2.038-0.234,2.038
		c-0.3,0-0.601-0.234-2.237-1.737c-0.301-0.267-4.543-4.442-7.649-7.682c-3.406-3.574-6.714-7.047-7.615-8.049L216.938,46.57z"/>
	<path fill="#FFFFFF" d="M242.858,37.185c0-4.409,0-5.211-0.066-6.112c-0.066-0.969-0.233-1.437-1.202-1.57
		c-0.234-0.033-0.735-0.066-1.002-0.066c-0.101,0-0.234-0.134-0.234-0.234c0-0.167,0.134-0.233,0.468-0.233
		c1.336,0,3.24,0.066,3.407,0.066c0.2,0,6.346,0.034,7.014,0c0.568-0.033,1.103-0.133,1.337-0.167
		c0.133-0.033,0.267-0.133,0.4-0.133c0.101,0,0.134,0.133,0.134,0.267c0,0.2-0.167,0.534-0.234,1.336
		c-0.033,0.268-0.1,1.537-0.167,1.871c-0.033,0.134-0.133,0.301-0.267,0.301c-0.167,0-0.234-0.134-0.234-0.368
		c0-0.2-0.033-0.668-0.167-1.002c-0.2-0.468-0.501-0.668-2.104-0.868c-0.501-0.066-3.908-0.101-4.242-0.101
		c-0.134,0-0.167,0.101-0.167,0.301v7.716c0,0.2,0,0.301,0.167,0.301c0.367,0,4.242,0,4.91-0.067c0.701-0.066,1.136-0.1,1.436-0.4
		c0.201-0.2,0.334-0.367,0.435-0.367s0.167,0.066,0.167,0.233s-0.167,0.635-0.233,1.57c-0.067,0.567-0.134,1.637-0.134,1.837
		c0,0.233-0.067,0.534-0.268,0.534c-0.134,0-0.2-0.1-0.2-0.267c0-0.268,0-0.568-0.134-0.936c-0.101-0.401-0.367-0.735-1.503-0.868
		c-0.802-0.101-3.941-0.134-4.442-0.134c-0.167,0-0.2,0.1-0.2,0.2v2.371c0,0.969-0.033,4.275,0,4.844
		c0.066,1.903,0.601,2.271,3.507,2.271c0.769,0,2.171,0,2.939-0.301c0.769-0.334,1.169-0.835,1.336-1.971
		c0.066-0.334,0.134-0.435,0.301-0.435s0.2,0.234,0.2,0.435s-0.233,2.138-0.4,2.739c-0.201,0.734-0.501,0.734-1.637,0.734
		c-2.205,0-3.908-0.066-5.11-0.101c-1.236-0.066-2.005-0.066-2.438-0.066c-0.067,0-0.635,0-1.27,0.033
		c-0.567,0.033-1.235,0.067-1.703,0.067c-0.301,0-0.468-0.067-0.468-0.234c0-0.1,0.066-0.233,0.233-0.233
		c0.268,0,0.635-0.101,0.902-0.134c0.567-0.101,0.635-0.668,0.768-1.503c0.167-1.169,0.167-3.407,0.167-6.146V37.185z"/>
</g>
<polygon fill="#FFFFFF" points="72.392,37.62 56.66,46.89 40.932,56.157 40.932,37.62 40.932,19.083 56.66,28.352 "/>
</svg>
