<?xml version="1.0" standalone="no"?>
<!DOCTYPE svg PUBLIC "-//W3C//DTD SVG 1.1//EN" "http://www.w3.org/Graphics/SVG/1.1/DTD/svg11.dtd">
<svg version="1.1" id="Layer_1" xmlns="http://www.w3.org/2000/svg" xmlns:xlink="http://www.w3.org/1999/xlink" x="0px" y="0px"
	 width="432px" height="77.25px" viewBox="0 0 432 77.25" enable-background="new 0 0 432 77.25" xml:space="preserve" preserveAspectRatio="none">
<g>
	<g>
		<path d="M431.646,63.607c-0.002,6.879-8.061,12.463-17.985,12.463l-392.65-0.033c-9.933,0-17.982-5.585-17.981-12.465
			l0.004-46.749c0-6.882,8.053-12.462,17.983-12.461l392.65,0.032c9.928,0.001,17.983,5.583,17.983,12.464L431.646,63.607
			L431.646,63.607z"/>
		<path d="M431.804,63.611c0,0-0.011,0.171-0.032,0.505c-0.021,0.332-0.029,0.829-0.205,1.487c-0.315,1.293-0.993,3.276-3.211,5.396
			c-2.133,2.091-6.02,4.366-11.599,5.032c-1.368,0.183-2.85,0.203-4.319,0.201c-1.483,0.006-3.021,0.008-4.604,0.011
			c-3.163,0.006-6.53,0.013-10.088,0.021c-14.229-0.003-31.508,0.155-51.326,0.25c-19.816,0.105-42.176,0.228-66.564,0.357
			c-12.194,0.029-24.898,0.062-38.047,0.102c-13.148,0.043-26.741-0.021-40.718-0.029c-27.947-0.002-57.42-0.217-87.908-0.338
			c-30.497-0.102-62.01-0.205-94.03-0.312c-4.136-0.312-8.041-1.541-10.956-3.507c-2.908-1.947-4.894-4.521-5.462-7.268
			c-0.327-1.377-0.228-2.744-0.249-4.076l-0.011-4.039c-0.01-2.693-0.016-5.393-0.025-8.094C2.36,38.5,2.271,27.646,2.18,16.793
			c0.018-2.742,1.292-5.679,3.864-7.931c2.511-2.29,6.193-4.047,10.367-4.753c2.042-0.379,4.315-0.45,6.286-0.426l6.086-0.021
			c4.056-0.014,8.108-0.029,12.157-0.042c16.198-0.056,32.332-0.112,48.338-0.167c32.013-0.054,63.517-0.107,94.007-0.158
			c30.486,0.009,59.961,0.017,87.906,0.024c27.949-0.014,54.375,0.099,78.765,0.202c12.194,0.069,23.881,0.136,34.997,0.201
			c5.559,0.036,10.973,0.071,16.237,0.105c2.633,0.017,5.224,0.035,7.777,0.051c2.543,0.046,5.068-0.067,7.636,0.22
			c5.145,0.583,9.486,2.653,12.146,5.29c1.341,1.317,2.279,2.772,2.812,4.256c0.559,1.477,0.61,3.017,0.555,4.426
			c-0.093,5.719-0.144,10.971-0.153,15.715c-0.098,18.979-0.156,29.822-0.156,29.822L431.804,63.611L431.804,63.611L431.804,63.611z
			 M431.492,63.607c0,0-0.058-10.844-0.154-29.822c-0.011-4.744-0.058-9.997-0.148-15.715c0.021-1.444-0.071-2.85-0.639-4.258
			c-0.541-1.399-1.466-2.761-2.755-3.984c-2.55-2.449-6.706-4.323-11.392-4.796c-2.335-0.242-4.877-0.108-7.436-0.123
			c-2.557,0.016-5.147,0.033-7.779,0.05c-5.268,0.033-10.68,0.067-16.235,0.103c-11.117,0.062-22.804,0.127-34.997,0.195
			c-24.395,0.098-50.818,0.207-78.762,0.188c-27.95,0.003-57.424,0.007-87.911,0.01C152.797,5.398,121.291,5.34,89.277,5.28
			C73.27,5.222,57.136,5.165,40.94,5.107c-4.049-0.015-8.102-0.03-12.158-0.044l-6.086-0.022c-2.084-0.037-3.908,0.017-5.795,0.339
			c-3.732,0.601-7.073,2.156-9.383,4.215c-1.163,1.026-2.092,2.182-2.68,3.414c-0.603,1.255-0.908,2.445-0.952,3.843
			c-0.093,10.835-0.183,21.67-0.274,32.462c-0.009,2.699-0.017,5.396-0.026,8.093l-0.012,4.038c0.01,1.354-0.09,2.693,0.212,3.975
			c0.52,2.596,2.385,5.039,5.126,6.893c2.726,1.864,6.476,3.041,10.286,3.344c3.945,0.138,7.981,0.049,11.953,0.062
			c3.985-0.006,7.96-0.013,11.926-0.019c7.932-0.016,15.824-0.027,23.668-0.041c15.689-0.061,31.189-0.112,46.434-0.172
			c30.487-0.113,59.959-0.324,87.906-0.319c13.976-0.005,27.567-0.065,40.716-0.022c13.148,0.035,25.852,0.07,38.047,0.104
			c24.396,0.135,46.75,0.259,66.567,0.37c19.819,0.097,37.095,0.257,51.325,0.258c3.559,0.007,6.924,0.016,10.09,0.021
			c3.162-0.031,6.163,0.131,8.841-0.17c5.437-0.625,9.259-2.83,11.364-4.871c2.188-2.062,2.879-4.017,3.196-5.274
			c0.176-0.638,0.193-1.138,0.22-1.472c0.029-0.334,0.038-0.502,0.038-0.502h0.003V63.607z"/>
	</g>
</g>
<g id="Layer_2">
</g>
<path fill="#666666" d="M430.646,63.77c0,6.885-8.055,12.465-17.993,12.465H19.849c-9.94,0-17.994-5.58-17.994-12.465V17.046
	c0-6.879,8.055-12.459,17.994-12.459h392.803c9.938,0,17.992,5.58,17.992,12.459V63.77H430.646z"/>
<path d="M430.801,63.771c0,0-0.011,0.17-0.031,0.504c-0.021,0.332-0.033,0.828-0.208,1.485c-0.312,1.296-0.99,3.277-3.204,5.396
	c-2.13,2.092-6.016,4.366-11.6,5.032c-1.369,0.185-2.85,0.207-4.323,0.205c-1.481,0.004-3.02,0.006-4.603,0.013
	c-3.17,0.006-6.536,0.012-10.095,0.02c-14.234,0-31.521,0.158-51.347,0.255c-19.826,0.108-42.191,0.229-66.596,0.362
	c-12.199,0.033-24.906,0.067-38.062,0.104c-13.151,0.043-26.751-0.021-40.73-0.026c-27.96,0.004-57.443-0.211-87.945-0.328
	c-30.508-0.101-62.034-0.199-94.068-0.303c-4.136-0.312-8.044-1.537-10.96-3.503c-2.912-1.944-4.899-4.521-5.47-7.26
	c-0.331-1.379-0.232-2.742-0.251-4.076l-0.011-4.036c-0.009-2.693-0.016-5.392-0.026-8.091C1.183,38.729,1.093,27.89,1.001,17.051
	c0.018-2.795,1.289-5.691,3.86-7.956c2.51-2.29,6.192-4.048,10.366-4.756c2.042-0.379,4.317-0.453,6.29-0.429l6.089-0.021
	c4.058-0.015,8.113-0.029,12.164-0.043c16.204-0.057,32.343-0.114,48.356-0.17c32.025-0.057,63.544-0.112,94.045-0.166
	c30.5,0.006,59.985,0.011,87.942,0.017c27.962-0.017,54.396,0.095,78.795,0.194c12.203,0.069,23.896,0.135,35.014,0.198
	c5.562,0.036,10.979,0.071,16.243,0.104c2.634,0.017,5.229,0.033,7.787,0.05c2.544,0.045,5.072-0.067,7.636,0.218
	c5.146,0.58,9.494,2.648,12.152,5.283c1.34,1.316,2.276,2.77,2.812,4.253c0.561,1.476,0.614,3.015,0.557,4.424
	c-0.091,5.716-0.139,10.966-0.148,15.708c-0.1,18.969-0.157,29.809-0.157,29.809L430.801,63.771z M430.488,63.77
	c0,0-0.059-10.838-0.156-29.809c-0.012-4.742-0.059-9.993-0.147-15.708c0.021-1.444-0.074-2.848-0.642-4.256
	c-0.542-1.398-1.466-2.76-2.757-3.982c-2.55-2.447-6.708-4.319-11.396-4.79c-2.342-0.241-4.882-0.107-7.438-0.121
	c-2.558,0.017-5.153,0.033-7.787,0.05c-5.267,0.034-10.683,0.069-16.243,0.104c-11.117,0.062-22.811,0.129-35.014,0.198
	c-24.399,0.1-50.833,0.211-78.794,0.194c-27.958,0.005-57.443,0.011-87.943,0.017C151.67,5.613,120.15,5.558,88.126,5.501
	C72.113,5.444,55.974,5.388,39.77,5.331c-4.051-0.014-8.106-0.028-12.164-0.043l-6.089-0.021c-2.085-0.036-3.907,0.02-5.794,0.344
	C11.99,6.212,8.649,7.766,6.34,9.826c-2.372,2.063-3.555,4.616-3.627,7.226C2.621,27.891,2.532,38.73,2.441,49.527
	c-0.008,2.699-0.017,5.396-0.026,8.09l-0.013,4.037c0.011,1.354-0.091,2.689,0.215,3.973c0.524,2.592,2.39,5.035,5.133,6.883
	c2.727,1.867,6.482,3.039,10.294,3.338c3.947,0.135,7.982,0.049,11.956,0.064c3.987-0.008,7.965-0.016,11.932-0.021
	c7.937-0.016,15.83-0.029,23.678-0.043c15.695-0.059,31.2-0.117,46.451-0.174c30.5-0.117,59.986-0.332,87.945-0.328
	c13.98-0.008,27.578-0.07,40.733-0.027c13.153,0.035,25.86,0.068,38.062,0.104c24.399,0.134,46.77,0.254,66.596,0.363
	c19.826,0.096,37.107,0.254,51.344,0.254c3.559,0.008,6.925,0.015,10.097,0.021c3.161-0.033,6.165,0.131,8.845-0.172
	c5.438-0.625,9.262-2.832,11.362-4.873c2.189-2.062,2.876-4.017,3.193-5.274c0.175-0.638,0.192-1.138,0.218-1.472
	c0.027-0.332,0.039-0.502,0.039-0.502L430.488,63.77z"/>
<g>
	<path fill="#FFFFFF" d="M95.871,54.048c-4.615-4.141-5.757-9.563-5.757-14.084c0-3.189,1.094-8.755,5.329-12.99
		c2.854-2.854,7.184-5.091,14.511-5.091c1.903,0,4.567,0.143,6.898,0.571c1.808,0.333,3.33,0.618,4.853,0.713
		c0.523,0.048,0.619,0.238,0.619,0.523c0,0.381-0.143,0.952-0.238,2.665c-0.095,1.57-0.095,4.187-0.143,4.9
		c-0.048,0.713-0.143,0.999-0.428,0.999c-0.333,0-0.381-0.333-0.381-0.999c0-1.855-0.762-3.806-1.998-4.854
		c-1.665-1.427-5.329-2.712-9.516-2.712c-6.328,0-9.277,1.855-10.942,3.473c-3.473,3.331-4.282,7.565-4.282,12.418
		c0,9.088,6.994,17.414,17.175,17.414c3.568,0,6.376-0.43,8.278-2.379c1-1.049,1.618-3.141,1.761-3.996
		c0.095-0.523,0.19-0.715,0.476-0.715c0.238,0,0.333,0.334,0.333,0.715c0,0.332-0.57,4.471-1.047,6.09
		c-0.285,0.902-0.38,0.998-1.236,1.379c-1.903,0.762-5.52,1.094-8.564,1.094C104.435,59.186,99.63,57.425,95.871,54.048z"/>
	<path fill="#FFFFFF" d="M142.112,27.355c9.42,0,16.557,5.757,16.557,15.177c0,9.041-6.708,16.51-16.794,16.51
		c-11.467,0-16.367-8.61-16.367-15.892C125.508,36.633,130.551,27.355,142.112,27.355z M143.063,57.378
		c3.759,0,11.323-1.998,11.323-13.703c0-9.707-5.899-14.797-12.512-14.797c-6.994,0-12.037,4.377-12.037,13.181
		C129.838,51.479,135.499,57.378,143.063,57.378z"/>
	<path fill="#FFFFFF" d="M197.68,53.333c0.144,1.428,0.43,3.615,2.142,4.188c1.188,0.381,2.282,0.381,2.712,0.381
		c0.189,0,0.333,0.096,0.333,0.285c0,0.236-0.38,0.381-0.854,0.381c-0.951,0-5.613-0.049-7.138-0.189
		c-0.999-0.096-1.188-0.238-1.188-0.428c0-0.145,0.096-0.287,0.285-0.334c0.237-0.049,0.285-0.666,0.189-1.428l-1.998-20.556h-0.096
		l-10.088,20.65c-0.854,1.76-1.094,2.141-1.475,2.141s-0.619-0.381-1.428-1.854c-1.094-2-3.854-7.187-4.9-9.372
		c-1.236-2.57-4.615-9.375-5.328-11.04h-0.189l-1.618,18.271c-0.048,0.618-0.048,1.379-0.048,2.045c0,0.618,0.381,1,1,1.144
		c0.713,0.188,1.332,0.237,1.617,0.237c0.143,0,0.333,0.144,0.333,0.285c0,0.284-0.285,0.381-0.762,0.381
		c-1.569,0-3.567-0.144-3.9-0.144c-0.381,0-2.379,0.144-3.521,0.144c-0.428,0-0.713-0.097-0.713-0.381
		c0-0.144,0.189-0.285,0.428-0.285c0.333,0,0.618-0.049,1.237-0.144c1.38-0.237,1.427-1.713,1.617-3.235l3.045-26.406
		c0.048-0.428,0.238-0.713,0.476-0.713c0.286,0,0.619,0.143,0.856,0.618L181.362,53.1l12.18-25.075
		c0.188-0.381,0.382-0.666,0.666-0.666c0.285,0,0.521,0.333,0.618,1.094L197.68,53.333z"/>
	<path fill="#FFFFFF" d="M208.331,39.632c0-6.282,0-7.424-0.095-8.708c-0.096-1.38-0.333-2.046-1.713-2.236
		c-0.334-0.047-1.047-0.095-1.428-0.095c-0.145,0-0.332-0.19-0.332-0.333c0-0.238,0.188-0.333,0.666-0.333
		c1.9,0,4.52,0.095,4.853,0.095c0.903,0,4.044-0.095,5.946-0.095c5.377,0,7.279,1.665,7.993,2.284
		c0.952,0.856,2.094,2.665,2.094,4.853c0,5.805-4.377,9.659-10.799,9.659c-0.238,0-0.951,0-1.189-0.047
		c-0.189,0-0.428-0.191-0.428-0.381c0-0.334,0.236-0.428,1.094-0.428c4.52,0,7.755-2.855,7.755-6.52
		c0-1.333-0.144-3.949-2.379-6.138c-2.188-2.188-4.71-1.951-5.661-1.951c-0.714,0-1.902,0.19-2.332,0.286
		c-0.236,0.047-0.333,0.333-0.333,0.761v16.462c0,3.9,0,7.09,0.19,8.754c0.143,1.188,0.381,1.951,1.666,2.143
		c0.57,0.096,1.475,0.189,1.854,0.189c0.237,0,0.333,0.188,0.333,0.332c0,0.189-0.188,0.334-0.667,0.334
		c-2.281,0-5.043-0.145-5.232-0.145c-0.144,0-2.854,0.145-4.14,0.145c-0.429,0-0.665-0.098-0.665-0.334
		c0-0.145,0.096-0.332,0.334-0.332c0.381,0,0.902-0.098,1.282-0.189c0.812-0.191,0.904-0.951,1.097-2.143
		c0.235-1.664,0.235-4.854,0.235-8.754L208.331,39.632L208.331,39.632z"/>
	<path fill="#FFFFFF" d="M233.592,39.632c0-6.282,0-7.424-0.095-8.708c-0.095-1.38-0.333-2.046-1.713-2.236
		c-0.333-0.047-1.048-0.095-1.427-0.095c-0.146,0-0.334-0.19-0.334-0.333c0-0.238,0.188-0.333,0.666-0.333
		c1.901,0,4.711,0.095,4.947,0.095c0.43,0,3.947-0.095,5.231-0.095c2.665,0,5.612,0.238,7.804,1.76
		c1.049,0.761,2.901,2.712,2.901,5.519c0,2.997-1.237,5.899-5.142,9.229c3.428,4.281,6.328,7.943,8.756,10.469
		c2.234,2.283,3.615,2.664,4.662,2.807c0.811,0.143,1.236,0.143,1.477,0.143s0.381,0.191,0.381,0.334
		c0,0.238-0.236,0.332-0.999,0.332h-2.615c-2.38,0-3.427-0.234-4.474-0.809c-1.811-0.951-3.33-2.902-5.709-5.947
		c-1.762-2.188-3.616-4.805-4.521-5.896c-0.188-0.189-0.285-0.238-0.568-0.238l-5.329-0.094c-0.188,0-0.285,0.094-0.285,0.332v0.949
		c0,3.9,0,7.041,0.188,8.707c0.145,1.189,0.381,1.949,1.666,2.143c0.569,0.096,1.476,0.188,1.854,0.188
		c0.285,0,0.333,0.191,0.333,0.334c0,0.189-0.188,0.332-0.666,0.332c-2.282,0-4.945-0.143-5.141-0.143
		c-0.047,0-2.854,0.143-4.139,0.143c-0.43,0-0.666-0.094-0.666-0.332c0-0.143,0.096-0.334,0.332-0.334
		c0.381,0,0.904-0.094,1.285-0.188c0.809-0.188,0.903-0.951,1.094-2.143c0.238-1.666,0.238-4.854,0.238-8.754v-7.137L233.592,39.632
		L233.592,39.632z M237.208,43.059c0,0.235,0.095,0.379,0.285,0.521c0.618,0.334,2.76,0.619,4.614,0.619
		c1,0,2.142-0.051,3.141-0.717c1.428-0.949,2.521-3.092,2.521-6.185c0-5.043-2.761-7.945-7.231-7.945
		c-1.235,0-2.567,0.143-2.997,0.238c-0.189,0.095-0.333,0.238-0.333,0.476V43.059L237.208,43.059z"/>
	<path fill="#FFFFFF" d="M276.122,27.355c9.421,0,16.558,5.757,16.558,15.177c0,9.041-6.709,16.51-16.795,16.51
		c-11.466,0-16.363-8.61-16.363-15.892C259.518,36.633,264.562,27.355,276.122,27.355z M277.074,57.378
		c3.759,0,11.322-1.998,11.322-13.703c0-9.707-5.898-14.797-12.515-14.797c-6.993,0-12.036,4.377-12.036,13.181
		C263.848,51.479,269.509,57.378,277.074,57.378z"/>
	<path fill="#FFFFFF" d="M331.688,53.333c0.144,1.428,0.43,3.615,2.142,4.188c1.188,0.381,2.284,0.381,2.712,0.381
		c0.189,0,0.333,0.096,0.333,0.285c0,0.236-0.38,0.381-0.854,0.381c-0.951,0-5.612-0.049-7.138-0.189
		c-0.999-0.096-1.188-0.238-1.188-0.428c0-0.145,0.096-0.287,0.285-0.334c0.236-0.049,0.285-0.666,0.188-1.428l-1.998-20.556h-0.096
		l-10.087,20.65c-0.855,1.76-1.094,2.141-1.476,2.141s-0.618-0.381-1.429-1.854c-1.094-2-3.854-7.187-4.898-9.372
		c-1.236-2.57-4.615-9.375-5.328-11.04h-0.189l-1.618,18.271C301,55.048,301,55.809,301,56.475c0,0.618,0.381,1,1,1.144
		c0.713,0.188,1.332,0.237,1.617,0.237c0.143,0,0.333,0.144,0.333,0.285c0,0.284-0.285,0.381-0.761,0.381
		c-1.57,0-3.568-0.144-3.901-0.144c-0.381,0-2.379,0.144-3.521,0.144c-0.431,0-0.715-0.097-0.715-0.381
		c0-0.144,0.188-0.285,0.43-0.285c0.332,0,0.617-0.049,1.235-0.144c1.382-0.237,1.429-1.713,1.616-3.235l3.045-26.406
		c0.049-0.428,0.238-0.713,0.479-0.713c0.285,0,0.619,0.143,0.854,0.618L315.369,53.1l12.18-25.075
		c0.189-0.381,0.381-0.666,0.666-0.666s0.521,0.333,0.618,1.094L331.688,53.333z"/>
	<path fill="#FFFFFF" d="M346.146,46.77c0,3.899,0,7.088,0.188,8.754c0.146,1.188,0.285,1.949,1.522,2.142
		c0.617,0.096,1.521,0.188,1.9,0.188c0.237,0,0.334,0.19,0.334,0.334c0,0.188-0.189,0.332-0.668,0.332
		c-2.33,0-5.043-0.144-5.23-0.144c-0.237,0-2.854,0.144-4.141,0.144c-0.43,0-0.666-0.095-0.666-0.332
		c0-0.144,0.096-0.334,0.334-0.334c0.381,0,0.902-0.095,1.282-0.188c0.812-0.188,0.952-0.951,1.097-2.142
		c0.188-1.666,0.235-4.854,0.235-8.754v-7.138c0-6.282,0-7.424-0.095-8.708c-0.096-1.38-0.428-1.999-1.332-2.189
		c-0.477-0.095-0.999-0.143-1.285-0.143c-0.188,0-0.333-0.19-0.333-0.333c0-0.238,0.19-0.333,0.666-0.333
		c1.38,0,3.997,0.095,4.233,0.095c0.188,0,2.901-0.095,4.188-0.095c0.478,0,0.666,0.095,0.666,0.333
		c0,0.143-0.188,0.333-0.333,0.333c-0.286,0-0.568,0-1.047,0.095c-1.143,0.238-1.38,0.809-1.475,2.236
		c-0.049,1.284-0.049,2.426-0.049,8.708v7.139H346.146L346.146,46.77z"/>
	<path fill="#FFFFFF" d="M355.375,57.95c-0.57-0.287-0.618-0.431-0.618-1.523c0-1.997,0.19-3.614,0.237-4.28
		c0-0.431,0.096-0.666,0.334-0.666c0.236,0,0.38,0.144,0.38,0.478c0,0.332,0,0.901,0.146,1.476c0.666,2.948,3.807,3.996,6.61,3.996
		c4.142,0,6.28-2.332,6.28-5.378c0-2.899-1.57-4.28-5.281-7.041l-1.9-1.428c-4.521-3.377-5.994-5.853-5.994-8.66
		c0-4.757,3.759-7.612,9.274-7.612c1.665,0,3.331,0.238,4.33,0.476c0.812,0.19,1.144,0.19,1.478,0.19
		c0.332,0,0.428,0.048,0.428,0.286c0,0.19-0.189,1.522-0.189,4.282c0,0.619-0.048,0.904-0.33,0.904c-0.287,0-0.336-0.19-0.384-0.523
		c-0.048-0.476-0.381-1.57-0.616-1.998c-0.285-0.476-1.666-1.999-5.427-1.999c-3.045,0-5.563,1.522-5.563,4.377
		c0,2.569,1.285,4.044,5.424,6.853l1.188,0.809c5.094,3.474,6.854,6.279,6.854,9.753c0,2.379-0.904,4.948-3.901,6.897
		c-1.761,1.143-4.377,1.428-6.66,1.428C359.514,59.042,357.088,58.757,355.375,57.95z"/>
	<path fill="#FFFFFF" d="M380.921,39.632c0-6.282,0-7.424-0.095-8.708c-0.096-1.38-0.333-2.046-1.713-2.236
		c-0.334-0.047-1.047-0.095-1.428-0.095c-0.146,0-0.332-0.19-0.332-0.333c0-0.238,0.188-0.333,0.666-0.333
		c1.899,0,4.611,0.095,4.853,0.095c0.284,0,9.039,0.047,9.991,0c0.809-0.048,1.568-0.19,1.902-0.238
		c0.188-0.048,0.381-0.19,0.568-0.19c0.145,0,0.189,0.19,0.189,0.38c0,0.286-0.237,0.761-0.332,1.903
		c-0.049,0.38-0.146,2.188-0.238,2.664c-0.047,0.19-0.188,0.428-0.381,0.428c-0.237,0-0.332-0.19-0.332-0.523
		c0-0.286-0.049-0.952-0.238-1.428c-0.285-0.666-0.714-0.951-2.997-1.237c-0.714-0.095-5.563-0.143-6.043-0.143
		c-0.188,0-0.235,0.143-0.235,0.428v10.991c0,0.285,0,0.428,0.235,0.428c0.522,0,6.043,0,6.994-0.094
		c0.999-0.096,1.618-0.145,2.046-0.572c0.285-0.283,0.479-0.521,0.618-0.521c0.144,0,0.237,0.095,0.237,0.332
		c0,0.238-0.237,0.904-0.332,2.236c-0.098,0.809-0.19,2.329-0.19,2.614c0,0.334-0.095,0.765-0.381,0.765
		c-0.19,0-0.285-0.146-0.285-0.384c0-0.381,0-0.81-0.188-1.329c-0.145-0.572-0.522-1.05-2.143-1.238
		c-1.143-0.144-5.613-0.188-6.328-0.188c-0.234,0-0.283,0.144-0.283,0.285v3.379c0,1.379-0.05,6.09,0,6.897
		c0.096,2.711,0.854,3.233,4.993,3.233c1.097,0,3.095,0,4.188-0.43c1.094-0.476,1.664-1.188,1.9-2.808
		c0.098-0.478,0.189-0.617,0.431-0.617c0.235,0,0.284,0.332,0.284,0.617s-0.333,3.045-0.569,3.899
		c-0.286,1.047-0.714,1.047-2.332,1.047c-3.14,0-5.566-0.096-7.279-0.144c-1.76-0.096-2.854-0.096-3.473-0.096
		c-0.097,0-0.904,0-1.81,0.049c-0.811,0.047-1.762,0.095-2.428,0.095c-0.429,0-0.666-0.095-0.666-0.332
		c0-0.144,0.098-0.334,0.333-0.334c0.382,0,0.904-0.144,1.284-0.188c0.812-0.144,0.904-0.951,1.095-2.142
		c0.237-1.666,0.237-4.854,0.237-8.754L380.921,39.632L380.921,39.632z"/>
</g>
<path fill="#FFFFFF" d="M73.076,27.72c-0.019-0.671-0.037-1.306-0.045-1.794c-0.027-1.506-0.382-3.22-0.842-4.075
	c-0.423-0.785-0.704-1.058-1.105-1.313l-0.07-0.045c-0.213-0.137-0.26-0.154-0.626-0.289c-0.107-0.039-0.246-0.091-0.432-0.161
	c-0.431-0.161-0.76-0.237-1.036-0.237c-0.213,0-0.364,0.043-0.474,0.076c-0.089-0.046-0.186-0.096-0.284-0.145
	c-0.027-0.069-0.056-0.141-0.085-0.213l-0.043-0.11c-0.301-0.753-0.961-1.141-1.999-1.556c-0.698-0.279-1.206-0.398-1.697-0.398
	c-0.179,0-0.339,0.016-0.457,0.03c-0.205,0.024-0.408,0.106-0.595,0.209c-0.076-0.029-0.158-0.054-0.242-0.076
	c-0.125-0.273-0.257-0.542-0.386-0.777c-0.536-0.98-0.87-1.194-1.125-1.274c-0.485-0.152-1.363-0.306-2.101-0.306
	c-0.064,0-0.128,0.001-0.19,0.003c-0.568,0.021-1.188,0.414-1.625,0.759c-0.099-0.186-0.218-0.413-0.356-0.681
	c-0.568-1.101-1.578-1.204-2.389-1.287l-0.069-0.007c-0.111-0.011-0.226-0.017-0.34-0.017c-0.771,0-1.37,0.254-1.436,0.283
	c-0.01,0.004-0.02,0.009-0.029,0.014c-0.237,0.121-1.441,0.755-1.884,1.356c-0.275,0.374-0.522,0.966-0.674,1.376
	c-0.145-0.015-0.313-0.025-0.494-0.025c-0.326,0-0.63,0.035-0.902,0.103c-1.009,0.252-1.576,1.467-1.637,1.605l-1.036,2.367
	c-0.36,0.822-0.764,1.771-1.154,2.688c-0.745,1.75-1.515,3.56-2.089,4.755c-0.837,1.744-0.663,3.337,0.52,4.734
	c0.625,0.738,3.399,4.267,5.557,8.043c1.97,3.449,1.919,5.037,1.481,9.123c-0.406,3.787-1.822,14.533-2.039,16.174h3.578
	c-0.187-1.471-0.614-5.149-0.526-7.286c0.11-2.716,0.554-8.255,0.997-10.416c0.443-2.16,0.166-3.271,2.493-3.88
	c2.327-0.608,2.05-0.553,2.937-1.106c0.886-0.553,1.274-1.053,0.388-0.774c-0.886,0.276-1.33,0.058-4.432-3.435
	c-3.103-3.491-5.707-5.762-7.037-6.981c-1.33-1.219-2.493-3.491-1.108-7.313c1.385-3.822,2.382-6.261,2.382-6.261
	s0.386-0.903,1.191-1.087c0.607-0.14,1.596-0.171,2.723-0.074c1.151,0.186,2.76,0.366,4.109,0.218
	c2.131-0.234,2.642-0.002,2.643-0.002c0.012,0.007,0.025,0.012,0.04,0.016c0.037,0.01,0.901,0.252,0.708,1.292
	c-0.123,0.663-0.403,1.001-1.25,1.508c-0.059,0.035-0.181,0.097-0.334,0.177c-0.41,0.211-1.022,0.525-1.513,0.861
	c-0.272,0.158-1.511,0.847-2.57,1.024c-0.975,0.163-1.874,0.112-2.527-0.16c-0.135-0.079-0.265-0.17-0.387-0.277
	c-0.069-0.061-0.174-0.054-0.235,0.015c-0.059,0.067-0.054,0.169,0.011,0.23c0.048,0.057,0.196,0.235,0.361,0.463
	c0.323,0.588,0.776,1.719,0.049,2.529c0,0,0.305,1.052-0.416,1.745c0,0,0.053,0.063,0.184,0.166c0.386,0.352,1.301,1.2,1.969,1.938
	c0.867,0.96,3.964,3.035,6.349,4.893c2.384,1.858,3.407,4.119,3.407,4.119s-1.022-2.509-1.982-3.469
	c-0.959-0.96-2.261-1.92-2.292-2.57c-0.031-0.65,0.558-0.805,1.022-0.279c0.464,0.527,1.61,1.765,3.004,1.394
	c1.393-0.372,2.353-0.495,3.004-0.495c0.65,0,1.734-0.062,2.415-0.96c0.607-0.8,0.871-1.649,2.148-1.802
	c0.764,0.002,0.903,0.018,1.153-0.04c0.27-0.062,0.022-0.083-0.413-0.27c-0.435-0.187-1.199-0.583-0.39-0.957
	c0.212-0.098,0.36-0.181,0.46-0.254c0.056-0.033,0.117-0.069,0.185-0.112c0.226-0.143,0.598-0.478,0.79-0.485
	c0.404-0.015,0.533,0.698,0.576,1.52c0.007,0.2,0.012,0.363,0.018,0.489c0,0.031,0.001,0.062,0.002,0.093c0,0.003,0,0.006,0,0.01
	c0.005,0.418,0.005,0.792,0,1.088c-0.011,0.528-0.014,1.126-0.016,1.705c-0.003,0.882-0.006,1.716-0.04,2.199
	c-0.053,0.765-0.214,2.686-0.58,4.008c-0.114,0.41-0.239,0.781-0.37,1.115c-0.308,0.602-1.557,3.006-2.252,3.953
	c-0.797,1.088-1.548,1.572-2.369,1.838c-0.821,0.266-1.163,0.266-3.203-0.24c0,0,1.756,1.207,2.42,1.797
	c0.665,0.592,1.182,1.848,1.33,4.986c0.124,2.645,0.589,11.023,0.732,13.604h1.373c-0.221-5.137-0.669-15.795-0.628-16.963
	c0.051-1.455,1.898-6.289,2.28-6.943c0.422-0.723,0.903-1.645,1.274-2.98c0.38-1.376,0.547-3.345,0.601-4.128
	c0.034-0.503,0.038-1.346,0.041-2.238c0.002-0.576,0.005-1.172,0.015-1.694C73.161,30.767,73.116,29.148,73.076,27.72z
	 M69.743,20.613c0.188,0.07,0.328,0.122,0.436,0.162c0.35,0.129,0.35,0.129,0.506,0.23l0.073,0.046
	c0.285,0.181,0.5,0.355,0.896,1.088c0.072,0.134,0.146,0.308,0.217,0.51c0.326,1.04,0.188,1.875-0.098,2.636
	c-0.311,0.83-1.071,1.953-1.071,1.953l0,0c-0.147,0.187-0.342,0.468-0.551,0.776c-0.527,0.775-1.053,1.662-2.078,1.413
	c-1.025-0.25-2.022-1.081-2.022-1.081s-0.665-0.416-0.249-1.302c0.416-0.887,1.191-2.41,1.552-3.629
	c0.36-1.219,0.443-2.161,0.775-2.632c0.04-0.056,0.078-0.107,0.115-0.155c0.072-0.06,0.15-0.108,0.229-0.124
	c0.05-0.01,0.096-0.023,0.142-0.037c0.092-0.027,0.178-0.053,0.308-0.053C69.121,20.415,69.383,20.478,69.743,20.613z
	 M63.951,18.096c0.102-0.012,0.239-0.026,0.386-0.026c0.409,0,0.849,0.106,1.471,0.354c0.906,0.362,1.438,0.663,1.659,1.216
	l0.044,0.111c0.059,0.146,0.112,0.28,0.159,0.405c0.039,0.282,0.045,0.616-0.041,0.96c-0.222,0.886-1.357,2.936-1.801,4.321
	c-0.444,1.385-0.554,2.41-1.025,3.075c-0.471,0.665-1.025,0.915-2.05,0.72c-1.025-0.194-1.524-0.969-1.607-1.883
	s0.274-1.853,0.609-2.826c0.305-0.886,0.416-1.523,0.637-2.715c0.205-1.097,0.313-2.658,0.876-3.365
	C63.47,18.286,63.726,18.122,63.951,18.096z M56.721,15.628c0.118,0.229,0.222,0.427,0.312,0.596
	c0.058,0.203,0.122,0.529,0.048,0.848c-0.07,0.303-0.167,0.558-0.236,0.717c-0.109,0.006-0.221,0.013-0.337,0.019
	c-1.2,0.066-2.573-0.12-3.255-0.231c-0.004-0.089-0.022-0.201-0.061-0.346c-0.179-0.662-0.664-2.323,1.002-2.571
	c0.087-0.008,0.178-0.013,0.271-0.013c0.094,0,0.188,0.005,0.278,0.014l0.069,0.007C55.579,14.746,56.305,14.821,56.721,15.628z
	 M60.062,19.599c0.104-0.56-0.043-0.943-0.251-1.201l0.003,0.002c-0.002-0.003-0.005-0.005-0.008-0.008
	c-0.118-0.145-0.254-0.249-0.374-0.321c-0.514-0.337-1.133-0.359-2.018-0.315c0.04-0.258,0.175-0.85,0.586-1.249
	c0.365-0.287,0.864-0.614,1.265-0.628c0.712-0.026,1.608,0.125,2.087,0.274c0.327,0.103,0.873,1.096,1.255,1.986
	c0.072,0.349,0.115,0.799,0.008,1.23c-0.222,0.887-1.08,3.629-1.468,5.375c-0.388,1.745-0.471,3.075-1.911,3.02
	c-1.441-0.056-2.494-0.832-2.771-2.272c-0.239-1.243-0.125-2.631,1.62-3.86c0.079-0.041,0.152-0.079,0.218-0.113
	c0.166-0.085,0.285-0.146,0.354-0.187C59.483,20.837,59.905,20.452,60.062,19.599z"/>
</svg>
