<?xml version="1.0" standalone="no"?>
<!DOCTYPE svg PUBLIC "-//W3C//DTD SVG 1.1//EN" "http://www.w3.org/Graphics/SVG/1.1/DTD/svg11.dtd">
<svg version="1.1" id="Layer_1" xmlns="http://www.w3.org/2000/svg" xmlns:xlink="http://www.w3.org/1999/xlink" x="0px" y="0px"
	 width="432px" height="77.25px" viewBox="0 0 432 77.25" enable-background="new 0 0 432 77.25" xml:space="preserve" preserveAspectRatio="none">
<g>
	<g>
		<path d="M431.513,63.607c-0.001,6.879-8.061,12.463-17.984,12.463l-392.65-0.033c-9.933,0-17.982-5.585-17.981-12.465L2.9,16.823
			c0-6.882,8.053-12.462,17.983-12.461l392.65,0.032c9.928,0.001,17.982,5.583,17.982,12.464L431.513,63.607L431.513,63.607z"/>
		<path d="M431.67,63.611c0,0-0.011,0.171-0.031,0.505c-0.021,0.332-0.029,0.829-0.206,1.487c-0.314,1.293-0.992,3.275-3.211,5.396
			c-2.133,2.091-6.02,4.366-11.599,5.032c-1.368,0.183-2.85,0.203-4.318,0.201c-1.483,0.006-3.021,0.008-4.604,0.011
			c-3.163,0.006-6.53,0.013-10.088,0.021c-14.229-0.003-31.508,0.155-51.326,0.25c-19.814,0.105-42.176,0.229-66.564,0.357
			c-12.193,0.029-24.897,0.062-38.047,0.102c-13.148,0.043-26.74-0.021-40.717-0.029c-27.947-0.002-57.421-0.217-87.909-0.338
			c-30.497-0.102-62.01-0.205-94.03-0.312c-4.136-0.312-8.041-1.541-10.956-3.507C5.156,70.84,3.17,68.266,2.602,65.52
			c-0.327-1.377-0.228-2.744-0.249-4.076l-0.011-4.039c-0.01-2.693-0.016-5.393-0.025-8.094C2.228,38.5,2.138,27.646,2.047,16.793
			c0.018-2.742,1.292-5.679,3.864-7.931c2.511-2.29,6.193-4.047,10.367-4.753c2.042-0.379,4.315-0.45,6.286-0.426l6.086-0.021
			c4.056-0.014,8.108-0.029,12.157-0.042c16.198-0.056,32.332-0.112,48.338-0.167c32.013-0.054,63.517-0.107,94.007-0.158
			c30.485,0.009,59.961,0.017,87.907,0.024c27.949-0.014,54.375,0.099,78.765,0.202c12.194,0.069,23.881,0.136,34.997,0.201
			c5.558,0.036,10.973,0.071,16.236,0.105c2.634,0.017,5.225,0.035,7.777,0.051c2.543,0.046,5.068-0.067,7.637,0.22
			c5.145,0.583,9.485,2.653,12.146,5.29c1.341,1.317,2.278,2.772,2.812,4.256c0.559,1.477,0.609,3.017,0.555,4.426
			c-0.094,5.719-0.145,10.971-0.153,15.715c-0.098,18.979-0.156,29.822-0.156,29.822L431.67,63.611L431.67,63.611L431.67,63.611z
			 M431.358,63.607c0,0-0.058-10.844-0.154-29.822c-0.011-4.744-0.058-9.997-0.148-15.715c0.021-1.444-0.07-2.85-0.639-4.258
			c-0.541-1.399-1.466-2.761-2.755-3.984c-2.55-2.449-6.706-4.323-11.393-4.796c-2.335-0.242-4.877-0.108-7.436-0.123
			c-2.557,0.016-5.147,0.033-7.779,0.05c-5.268,0.033-10.68,0.067-16.234,0.103c-11.117,0.062-22.805,0.127-34.997,0.195
			c-24.396,0.098-50.819,0.207-78.763,0.188c-27.949,0.003-57.423,0.007-87.911,0.01C152.664,5.398,121.157,5.34,89.144,5.28
			C73.136,5.222,57.002,5.165,40.806,5.107c-4.049-0.015-8.102-0.03-12.158-0.044l-6.086-0.022
			c-2.084-0.037-3.908,0.017-5.795,0.339c-3.732,0.601-7.073,2.156-9.383,4.215c-1.163,1.026-2.092,2.182-2.68,3.414
			c-0.603,1.255-0.908,2.445-0.952,3.843c-0.093,10.835-0.183,21.67-0.274,32.462c-0.009,2.699-0.017,5.396-0.026,8.093L3.44,61.445
			c0.01,1.354-0.09,2.693,0.212,3.975c0.52,2.596,2.385,5.039,5.126,6.893c2.726,1.864,6.476,3.041,10.286,3.345
			c3.945,0.138,7.981,0.049,11.953,0.062c3.985-0.006,7.96-0.013,11.926-0.019c7.932-0.017,15.824-0.027,23.668-0.041
			c15.689-0.062,31.189-0.112,46.434-0.173c30.487-0.112,59.959-0.323,87.906-0.318c13.976-0.005,27.568-0.064,40.716-0.021
			c13.147,0.035,25.853,0.069,38.047,0.104c24.396,0.135,46.749,0.259,66.567,0.37c19.818,0.097,37.095,0.257,51.325,0.258
			c3.559,0.007,6.924,0.017,10.09,0.021c3.162-0.03,6.163,0.131,8.841-0.17c5.437-0.625,9.259-2.83,11.364-4.871
			c2.188-2.062,2.879-4.017,3.195-5.273c0.177-0.639,0.193-1.139,0.221-1.473c0.028-0.334,0.038-0.502,0.038-0.502h0.003V63.607
			L431.358,63.607z"/>
	</g>
</g>
<g id="Layer_2">
</g>
<path fill="#666666" d="M430.512,63.77c0,6.887-8.055,12.465-17.993,12.465H19.715c-9.94,0-17.994-5.578-17.994-12.465V17.046
	c0-6.879,8.055-12.459,17.994-12.459h392.803c9.938,0,17.993,5.58,17.993,12.459L430.512,63.77L430.512,63.77z"/>
<path d="M430.667,63.771c0,0-0.011,0.17-0.03,0.504c-0.021,0.332-0.034,0.828-0.208,1.484c-0.312,1.297-0.991,3.277-3.205,5.396
	c-2.129,2.092-6.016,4.365-11.6,5.031c-1.369,0.186-2.85,0.207-4.322,0.205c-1.481,0.004-3.021,0.006-4.604,0.014
	c-3.17,0.006-6.536,0.012-10.096,0.02c-14.233,0-31.521,0.158-51.347,0.256c-19.824,0.107-42.191,0.229-66.596,0.361
	c-12.2,0.033-24.906,0.066-38.062,0.104c-13.15,0.043-26.751-0.021-40.729-0.025c-27.96,0.004-57.443-0.211-87.945-0.328
	c-30.508-0.102-62.034-0.199-94.068-0.303c-4.136-0.312-8.044-1.537-10.96-3.502c-2.912-1.945-4.899-4.521-5.47-7.262
	c-0.331-1.379-0.232-2.742-0.251-4.076l-0.011-4.035c-0.009-2.693-0.016-5.393-0.026-8.092C1.048,38.729,0.958,27.89,0.866,17.05
	c0.018-2.795,1.289-5.691,3.86-7.956c2.51-2.29,6.192-4.048,10.366-4.756c2.042-0.379,4.317-0.453,6.29-0.429l6.089-0.021
	c4.058-0.015,8.113-0.029,12.164-0.043c16.204-0.057,32.343-0.114,48.356-0.17c32.025-0.057,63.544-0.112,94.045-0.166
	c30.5,0.006,59.985,0.011,87.942,0.017c27.961-0.017,54.396,0.095,78.795,0.194c12.203,0.069,23.896,0.135,35.014,0.198
	c5.562,0.036,10.979,0.071,16.243,0.104c2.634,0.017,5.229,0.033,7.787,0.05c2.544,0.045,5.071-0.067,7.636,0.218
	c5.146,0.58,9.494,2.648,12.152,5.283c1.34,1.316,2.276,2.77,2.812,4.253c0.562,1.476,0.614,3.015,0.557,4.424
	c-0.09,5.716-0.139,10.966-0.147,15.708c-0.101,18.969-0.157,29.81-0.157,29.81L430.667,63.771z M430.354,63.77
	c0,0-0.059-10.838-0.155-29.809c-0.013-4.742-0.06-9.993-0.146-15.708c0.021-1.444-0.075-2.848-0.643-4.256
	c-0.542-1.398-1.466-2.76-2.757-3.982c-2.551-2.447-6.708-4.319-11.396-4.79c-2.343-0.241-4.883-0.107-7.438-0.121
	c-2.558,0.017-5.153,0.033-7.787,0.05c-5.266,0.034-10.684,0.069-16.243,0.104c-11.118,0.062-22.812,0.129-35.015,0.198
	c-24.398,0.1-50.832,0.211-78.793,0.194c-27.959,0.005-57.443,0.011-87.943,0.017c-30.501-0.054-62.021-0.109-94.045-0.166
	C71.979,5.444,55.84,5.388,39.636,5.331c-4.051-0.014-8.106-0.028-12.164-0.043l-6.089-0.021c-2.085-0.036-3.907,0.02-5.794,0.344
	c-3.733,0.601-7.074,2.155-9.383,4.215c-2.372,2.063-3.555,4.616-3.627,7.226C2.487,27.891,2.398,38.73,2.307,49.527
	c-0.008,2.699-0.017,5.396-0.026,8.091l-0.013,4.036c0.011,1.354-0.091,2.689,0.215,3.974c0.524,2.593,2.39,5.035,5.133,6.883
	c2.727,1.867,6.482,3.039,10.294,3.339c3.947,0.135,7.982,0.049,11.956,0.063c3.987-0.009,7.965-0.017,11.932-0.021
	c7.937-0.018,15.83-0.029,23.678-0.043c15.695-0.061,31.2-0.117,46.451-0.176c30.5-0.115,59.986-0.332,87.945-0.326
	c13.98-0.01,27.578-0.07,40.733-0.027c13.152,0.035,25.86,0.068,38.062,0.104c24.399,0.135,46.771,0.254,66.597,0.363
	c19.824,0.096,37.106,0.254,51.344,0.254c3.559,0.008,6.925,0.014,10.097,0.021c3.161-0.033,6.165,0.131,8.846-0.172
	c5.438-0.625,9.261-2.832,11.361-4.873c2.188-2.062,2.876-4.019,3.193-5.275c0.175-0.637,0.191-1.137,0.218-1.471
	c0.026-0.332,0.039-0.502,0.039-0.502H430.354L430.354,63.77z"/>
<g>
	<g>
		
			<text transform="matrix(0.903 0.4296 -0.4296 0.903 36.0811 47.1465)" fill="#FFFFFF" font-family="'TrajanPro-Regular'" font-size="45.9792">$</text>
		<g>
			<path fill="#FFFFFF" d="M51.756,67.659c0,0-0.058-0.769,0.083-2.083c0.066-0.659,0.198-1.45,0.407-2.354
				c0.231-0.896,0.518-1.912,1-2.986c0.487-1.065,1.115-2.229,2.171-3.31c0.525-0.536,1.192-1.051,2.035-1.385
				c0.424-0.153,0.879-0.276,1.354-0.308c0.236-0.012,0.486-0.024,0.667,0l0.354,0.047c0.077,0.013,0.145,0.02,0.31,0.058
				c0.062,0.019,0.056,0.015,0.171,0.052l0.135,0.055c0.013,0.002,0.205,0.101,0.286,0.172c0.044,0.029,0.289,0.218,0.437,0.607
				c0.117,0.334,0.09,0.659-0.047,0.978c-0.136,0.264-0.152,0.245-0.253,0.366c-0.106,0.104-0.131,0.117-0.166,0.146
				c-0.294,0.192-0.343,0.175-0.433,0.211c-0.082,0.024-0.142,0.037-0.202,0.05c-0.117,0.021-0.219,0.039-0.318,0.049
				c-0.2,0.021-0.387,0.027-0.573,0.035c-0.371,0.017-0.735,0.02-1.101,0.019c-0.729,0.002-1.457-0.003-2.182,0.04
				c-1.45,0.076-2.888,0.338-4.325,0.683c-1.435,0.351-2.867,0.808-4.298,1.104c-1.432,0.289-2.856,0.459-4.239,0.619
				c-1.383,0.146-2.73,0.25-4.012,0.215c-1.282-0.021-2.497-0.153-3.615-0.312c-1.118-0.162-2.14-0.371-3.034-0.625
				c-0.896-0.238-1.663-0.521-2.282-0.783C29.467,58.753,29,58.5,28.688,58.318c-0.305-0.194-0.468-0.301-0.468-0.301l0.097-0.317
				c0,0,0.739-0.021,2.032-0.058c0.63-0.029,1.395-0.063,2.272-0.104c0.87-0.052,1.851-0.104,2.921-0.168
				c1.068-0.058,2.225-0.146,3.451-0.183c1.226-0.052,2.523-0.025,3.872-0.012c1.35,0.027,2.747,0.008,4.177,0.057
				c1.431,0.057,2.903,0.218,4.366,0.228c1.462,0.004,2.916-0.121,4.305-0.479c0.695-0.18,1.373-0.416,2.028-0.672
				c0.32-0.136,0.639-0.269,0.956-0.397C58.85,55.84,59,55.77,59.134,55.702l0.177-0.095c0.023-0.016,0.043-0.027,0.042-0.034
				c-0.01,0.007,0.02-0.048-0.203,0.099c-0.026,0.021-0.042,0.026-0.142,0.124c-0.095,0.114-0.101,0.088-0.233,0.343
				c-0.136,0.307-0.154,0.621-0.046,0.945c0.143,0.381,0.383,0.562,0.416,0.585c0.072,0.065,0.259,0.157,0.259,0.156l0.105,0.043
				l0.109,0.034c0.082,0.021,0.064,0.021,0.057,0.029c-0.026,0.01-0.097,0.021-0.156,0.036c-0.159,0.021-0.244,0.056-0.342,0.076
				c-0.194,0.052-0.379,0.127-0.564,0.22c-0.373,0.185-0.749,0.467-1.118,0.801c-0.726,0.69-1.376,1.562-1.921,2.42
				c-1.115,1.72-1.913,3.348-2.528,4.464c-0.612,1.14-0.962,1.788-0.962,1.788L51.756,67.659z"/>
		</g>
	</g>
	<g enable-background="new    ">
		<path fill="#FFFFFF" d="M93.534,36.453c0-7.477,0-8.819-0.096-10.353c-0.096-1.63-0.479-2.396-2.061-2.732
			c-0.383-0.096-1.198-0.144-1.63-0.144c-0.191,0-0.383-0.096-0.383-0.287c0-0.288,0.24-0.384,0.767-0.384
			c1.102,0,2.396,0,3.451,0.048l1.965,0.048c0.959,0,10.688,0.048,11.791,0c0.911-0.048,1.677-0.048,2.109-0.191
			c0.288-0.096,0.479-0.287,0.671-0.287c0.191,0,0.288,0.191,0.288,0.431c0,0.336-0.24,0.911-0.383,2.253
			c-0.048,0.479-0.144,2.588-0.24,3.163c-0.048,0.239-0.144,0.527-0.383,0.527c-0.24,0-0.336-0.239-0.336-0.575
			c0-0.384-0.144-1.198-0.431-1.821c-0.287-0.623-1.39-1.485-3.259-1.533l-7.381-0.145c-0.288,0-0.431,0.145-0.431,0.527v13.229
			c0,0.287,0.048,0.431,0.335,0.431l6.135-0.048c0.815,0,1.486,0,2.157-0.048c1.15-0.096,1.773-0.239,2.205-0.862
			c0.192-0.24,0.335-0.479,0.527-0.479s0.24,0.144,0.24,0.384c0,0.287-0.24,1.103-0.383,2.684c-0.096,0.959-0.192,2.876-0.192,3.211
			c0,0.432,0,0.911-0.335,0.911c-0.24,0-0.335-0.192-0.335-0.433c-0.048-0.479-0.096-1.149-0.288-1.727
			c-0.24-0.671-1.007-1.533-2.492-1.727c-1.198-0.145-6.422-0.145-7.237-0.145c-0.24,0-0.335,0.096-0.335,0.432v4.074
			c0,4.602,0,8.387,0.24,10.4c0.144,1.39,0.431,2.443,1.869,2.636c0.671,0.097,1.725,0.19,2.157,0.19
			c0.288,0,0.383,0.145,0.383,0.289c0,0.238-0.24,0.383-0.767,0.383c-2.636,0-5.656-0.145-5.896-0.145
			c-0.239,0-3.259,0.145-4.697,0.145c-0.527,0-0.767-0.096-0.767-0.383c0-0.146,0.096-0.289,0.383-0.289
			c0.431,0,1.006-0.096,1.438-0.19c0.959-0.19,1.198-1.245,1.39-2.636c0.24-2.014,0.24-5.801,0.24-10.4v-8.436h-0.003V36.453z"/>
		<path fill="#FFFFFF" d="M124.634,46.949c0,3.93,0,7.142,0.191,8.818c0.144,1.196,0.288,1.965,1.534,2.155
			c0.623,0.097,1.534,0.191,1.917,0.191c0.239,0,0.335,0.19,0.335,0.336c0,0.19-0.192,0.335-0.671,0.335
			c-2.348,0-5.08-0.145-5.272-0.145c-0.239,0-2.875,0.145-4.169,0.145c-0.432,0-0.671-0.098-0.671-0.335
			c0-0.146,0.096-0.336,0.335-0.336c0.383,0,0.911-0.097,1.294-0.191c0.815-0.19,0.958-0.959,1.102-2.155
			c0.192-1.679,0.24-4.891,0.24-8.818V39.76c0-6.326,0-7.477-0.096-8.771c-0.096-1.39-0.431-2.013-1.342-2.205
			c-0.479-0.096-1.007-0.144-1.294-0.144c-0.191,0-0.335-0.191-0.335-0.335c0-0.24,0.192-0.336,0.671-0.336
			c1.39,0,4.026,0.096,4.266,0.096c0.192,0,2.924-0.096,4.218-0.096c0.479,0,0.671,0.096,0.671,0.336
			c0,0.144-0.191,0.335-0.335,0.335c-0.288,0-0.575,0-1.054,0.096c-1.15,0.24-1.39,0.815-1.486,2.253
			c-0.048,1.294-0.048,2.444-0.048,8.771L124.634,46.949L124.634,46.949z"/>
		<path fill="#FFFFFF" d="M135.896,58.212c-0.575-0.287-0.623-0.431-0.623-1.532c0-2.014,0.191-3.644,0.239-4.312
			c0-0.434,0.096-0.672,0.335-0.672c0.24,0,0.384,0.145,0.384,0.479c0,0.336,0,0.911,0.144,1.486
			c0.671,2.972,3.834,4.024,6.662,4.024c4.17,0,6.327-2.349,6.327-5.416c0-2.924-1.582-4.312-5.32-7.094l-1.917-1.438
			c-4.553-3.403-6.039-5.896-6.039-8.724c0-4.792,3.787-7.668,9.346-7.668c1.677,0,3.355,0.239,4.361,0.479
			c0.815,0.191,1.15,0.191,1.486,0.191c0.336,0,0.431,0.048,0.431,0.288c0,0.191-0.191,1.533-0.191,4.313
			c0,0.623-0.048,0.91-0.336,0.91c-0.287,0-0.335-0.191-0.383-0.527c-0.048-0.479-0.383-1.581-0.623-2.013
			c-0.288-0.479-1.677-2.013-5.464-2.013c-3.067,0-5.607,1.533-5.607,4.409c0,2.588,1.294,4.073,5.464,6.901l1.198,0.813
			c5.128,3.5,6.901,6.326,6.901,9.824c0,2.396-0.911,4.985-3.93,6.95c-1.773,1.149-4.41,1.438-6.71,1.438
			C140.064,59.314,137.62,59.027,135.896,58.212z"/>
		<path fill="#FFFFFF" d="M164.886,54.953c-4.122-3.547-5.128-8.195-5.128-12.078c0-2.73,1.006-7.477,4.745-11.119
			c2.541-2.444,6.375-4.361,12.845-4.361c1.677,0,4.072,0.144,6.135,0.479c1.581,0.287,2.923,0.575,4.312,0.623
			c0.432,0,0.526,0.191,0.526,0.432c0,0.335-0.096,0.814-0.19,2.3c-0.049,1.343-0.049,3.595-0.097,4.17
			c-0.048,0.623-0.239,0.862-0.479,0.862c-0.287,0-0.334-0.287-0.334-0.862c0-1.581-0.672-3.211-1.773-4.074
			c-1.486-1.246-4.554-2.252-8.292-2.252c-5.415,0-8.004,1.438-9.489,2.827c-3.116,2.876-3.787,6.519-3.787,10.641
			c0,7.812,6.183,14.762,15.193,14.762c3.164,0,5.271-0.24,6.949-1.917c0.91-0.911,1.486-2.637,1.631-3.403
			c0.096-0.432,0.143-0.573,0.432-0.573c0.191,0,0.383,0.286,0.383,0.573c0,0.289-0.576,3.834-1.006,5.227
			c-0.24,0.768-0.336,0.91-1.056,1.198c-1.726,0.671-4.888,0.909-7.62,0.909C172.46,59.314,168.194,57.829,164.886,54.953z"/>
		<path fill="#FFFFFF" d="M204.901,28.784c0.527-1.342,0.719-1.581,1.006-1.581c0.432,0,0.575,0.575,1.008,1.485
			c0.766,1.726,7.523,18.548,10.11,24.73c1.535,3.643,2.685,4.17,3.596,4.458c0.623,0.19,1.246,0.239,1.679,0.239
			c0.238,0,0.526,0.096,0.526,0.336c0,0.238-0.479,0.335-0.959,0.335c-0.623,0-3.737,0-6.661-0.097
			c-0.814-0.047-1.486-0.047-1.486-0.287c0-0.191,0.097-0.191,0.287-0.287c0.24-0.096,0.672-0.432,0.385-1.104l-3.786-9.346
			c-0.097-0.19-0.146-0.239-0.384-0.239h-9.729c-0.19,0-0.335,0.098-0.432,0.335l-2.396,6.521c-0.384,1.007-0.622,2.013-0.622,2.729
			c0,0.815,0.719,1.104,1.438,1.104h0.384c0.336,0,0.433,0.144,0.433,0.336c0,0.238-0.24,0.335-0.623,0.335
			c-1.008,0-3.309-0.144-3.787-0.144c-0.433,0-2.541,0.144-4.267,0.144c-0.526,0-0.813-0.097-0.813-0.335
			c0-0.192,0.19-0.336,0.383-0.336c0.287,0,0.91-0.049,1.246-0.096c1.918-0.24,2.732-1.68,3.547-3.738L204.901,28.784z
			 M209.597,45.751c0.193,0,0.193-0.097,0.145-0.287l-4.17-11.168c-0.238-0.623-0.479-0.623-0.719,0l-3.93,11.168
			c-0.049,0.19,0,0.287,0.145,0.287H209.597z"/>
		<path fill="#FFFFFF" d="M232.216,47.045c0,5.991,0.097,8.436,0.861,9.154c0.672,0.671,2.301,0.959,5.606,0.959
			c2.203,0,4.072-0.049,5.08-1.246c0.527-0.623,0.861-1.486,1.008-2.301c0.047-0.288,0.189-0.527,0.432-0.527
			c0.191,0,0.287,0.191,0.287,0.623s-0.287,2.876-0.623,4.074c-0.287,0.958-0.432,1.102-2.686,1.102
			c-3.02,0-5.367-0.048-7.334-0.144c-1.916-0.048-3.354-0.097-4.601-0.097c-0.19,0-0.911,0-1.726,0.049
			c-0.862,0.048-1.773,0.096-2.443,0.096c-0.432,0-0.672-0.096-0.672-0.335c0-0.146,0.096-0.336,0.336-0.336
			c0.383,0,0.91-0.097,1.294-0.191c0.813-0.19,0.911-0.959,1.103-2.157c0.24-1.677,0.24-4.889,0.24-8.816v-7.19
			c0-6.326,0-7.477-0.097-8.771c-0.097-1.39-0.335-2.062-1.726-2.253c-0.336-0.048-1.056-0.096-1.438-0.096
			c-0.146,0-0.336-0.191-0.336-0.335c0-0.24,0.19-0.336,0.672-0.336c1.916,0,4.554,0.096,4.792,0.096
			c0.191,0,3.354-0.096,4.648-0.096c0.433,0,0.672,0.096,0.672,0.336c0,0.144-0.191,0.287-0.336,0.287
			c-0.287,0-0.91,0.048-1.392,0.096c-1.245,0.24-1.485,0.863-1.582,2.301c-0.047,1.294-0.047,2.444-0.047,8.771v7.285
			L232.216,47.045L232.216,47.045z"/>
		<path fill="#FFFFFF" d="M271.029,54.282c-4.647-4.171-5.799-9.634-5.799-14.188c0-3.211,1.103-8.819,5.367-13.085
			c2.875-2.875,7.235-5.128,14.617-5.128c1.918,0,4.602,0.144,6.949,0.575c1.82,0.336,3.354,0.623,4.891,0.719
			c0.524,0.048,0.623,0.24,0.623,0.527c0,0.384-0.146,0.959-0.24,2.684c-0.096,1.582-0.096,4.218-0.146,4.937
			c-0.048,0.72-0.144,1.007-0.433,1.007c-0.334,0-0.383-0.335-0.383-1.007c0-1.869-0.769-3.834-2.015-4.888
			c-1.677-1.438-5.366-2.732-9.585-2.732c-6.374,0-9.346,1.869-11.021,3.499c-3.5,3.354-4.313,7.62-4.313,12.509
			c0,9.154,7.046,17.542,17.304,17.542c3.594,0,6.422-0.433,8.34-2.396c1.006-1.056,1.629-3.162,1.771-4.025
			c0.099-0.527,0.192-0.719,0.479-0.719c0.239,0,0.336,0.336,0.336,0.719c0,0.336-0.576,4.506-1.055,6.135
			c-0.287,0.911-0.386,1.008-1.246,1.391c-1.918,0.769-5.562,1.104-8.627,1.104C279.657,59.458,274.814,57.686,271.029,54.282z"/>
		<path fill="#FFFFFF" d="M312.002,47.045c0,5.991,0.098,8.436,0.862,9.154c0.672,0.671,2.301,0.959,5.606,0.959
			c2.205,0,4.073-0.049,5.08-1.246c0.526-0.623,0.862-1.486,1.008-2.301c0.047-0.288,0.19-0.527,0.432-0.527
			c0.191,0,0.287,0.191,0.287,0.623s-0.287,2.876-0.623,4.074c-0.287,0.958-0.432,1.102-2.684,1.102
			c-3.021,0-5.369-0.048-7.334-0.144c-1.916-0.048-3.354-0.097-4.603-0.097c-0.19,0-0.91,0-1.726,0.049
			c-0.863,0.048-1.772,0.096-2.443,0.096c-0.432,0-0.672-0.096-0.672-0.335c0-0.146,0.097-0.336,0.336-0.336
			c0.384,0,0.91-0.097,1.294-0.191c0.815-0.19,0.911-0.959,1.104-2.157c0.238-1.677,0.238-4.889,0.238-8.816v-7.19
			c0-6.326,0-7.477-0.097-8.771c-0.096-1.39-0.334-2.062-1.725-2.253c-0.336-0.048-1.056-0.096-1.438-0.096
			c-0.145,0-0.336-0.191-0.336-0.335c0-0.24,0.191-0.336,0.671-0.336c1.917,0,4.554,0.096,4.792,0.096
			c0.191,0,3.355-0.096,4.648-0.096c0.432,0,0.672,0.096,0.672,0.336c0,0.144-0.191,0.287-0.336,0.287
			c-0.287,0-0.91,0.048-1.391,0.096c-1.245,0.24-1.484,0.863-1.582,2.301c-0.048,1.294-0.048,2.444-0.048,8.771v7.285
			L312.002,47.045L312.002,47.045z"/>
		<path fill="#FFFFFF" d="M337.641,46.949c0,3.93,0,7.142,0.189,8.818c0.145,1.196,0.287,1.965,1.533,2.155
			c0.623,0.097,1.533,0.191,1.918,0.191c0.238,0,0.335,0.19,0.335,0.336c0,0.19-0.191,0.335-0.671,0.335
			c-2.35,0-5.08-0.145-5.272-0.145c-0.237,0-2.876,0.145-4.169,0.145c-0.432,0-0.672-0.098-0.672-0.335
			c0-0.146,0.098-0.336,0.336-0.336c0.384,0,0.91-0.097,1.294-0.191c0.813-0.19,0.958-0.959,1.104-2.155
			c0.19-1.679,0.238-4.891,0.238-8.818V39.76c0-6.326,0-7.477-0.097-8.771c-0.097-1.39-0.433-2.013-1.342-2.205
			c-0.479-0.096-1.007-0.144-1.294-0.144c-0.191,0-0.336-0.191-0.336-0.335c0-0.24,0.191-0.336,0.671-0.336
			c1.39,0,4.026,0.096,4.266,0.096c0.192,0,2.925-0.096,4.22-0.096c0.479,0,0.67,0.096,0.67,0.336c0,0.144-0.19,0.335-0.334,0.335
			c-0.289,0-0.576,0-1.057,0.096c-1.148,0.24-1.391,0.815-1.484,2.253c-0.047,1.294-0.047,2.444-0.047,8.771V46.949L337.641,46.949z
			"/>
		<path fill="#FFFFFF" d="M351.486,39.76c0-6.326,0-7.477-0.096-8.771c-0.097-1.39-0.336-2.062-1.727-2.253
			c-0.335-0.048-1.055-0.096-1.438-0.096c-0.146,0-0.336-0.191-0.336-0.335c0-0.24,0.19-0.336,0.67-0.336
			c1.918,0,4.555,0.096,4.793,0.096c0.813,0,9.97,0.048,10.929,0c0.813-0.048,1.532-0.048,1.917-0.191
			c0.238-0.048,0.432-0.24,0.574-0.24c0.191,0,0.287,0.192,0.287,0.384c0,0.288-0.19,0.767-0.334,1.917
			c-0.049,0.384-0.098,2.205-0.191,2.685c-0.049,0.191-0.191,0.431-0.385,0.431c-0.192,0-0.336-0.191-0.336-0.479
			c0-0.336-0.145-1.007-0.383-1.534c-0.24-0.527-1.246-1.198-2.875-1.198l-6.902-0.096c-0.238,0-0.336,0.096-0.336,0.432v11.119
			c0,0.239,0,0.383,0.289,0.383l5.75-0.048c0.72,0,1.343,0,1.918-0.048c1.007-0.096,1.582-0.239,1.966-0.719
			c0.19-0.239,0.383-0.432,0.526-0.432c0.19,0,0.239,0.145,0.239,0.336c0,0.237-0.288,0.908-0.385,2.252
			c-0.097,0.813-0.144,2.443-0.144,2.73c0,0.384-0.098,0.812-0.385,0.812c-0.238,0-0.287-0.189-0.287-0.383
			c-0.048-0.432-0.097-1.007-0.287-1.486c-0.191-0.573-0.862-1.103-2.156-1.293c-1.055-0.145-6.039-0.096-6.758-0.096
			c-0.24,0-0.289,0.096-0.289,0.383v3.261c0,4.024,0,7.235,0.192,8.817c0.144,1.197,0.384,1.965,1.532,2.156
			c0.623,0.096,1.534,0.191,1.917,0.191c0.239,0,0.336,0.191,0.336,0.336c0,0.191-0.19,0.335-0.671,0.335
			c-2.35,0-5.081-0.144-5.271-0.144c-0.238,0-2.875,0.144-4.17,0.144c-0.433,0-0.67-0.097-0.67-0.335
			c0-0.145,0.096-0.336,0.336-0.336c0.383,0,0.91-0.146,1.293-0.191c0.813-0.145,0.91-0.959,1.103-2.156
			c0.239-1.678,0.239-4.89,0.239-8.817V39.76H351.486z"/>
		<path fill="#FFFFFF" d="M377.125,39.76c0-6.326,0-7.477-0.096-8.771c-0.096-1.39-0.336-2.062-1.727-2.253
			c-0.335-0.048-1.056-0.096-1.438-0.096c-0.145,0-0.336-0.191-0.336-0.335c0-0.24,0.191-0.336,0.671-0.336
			c1.917,0,4.554,0.096,4.793,0.096c0.813,0,9.969,0.048,10.928,0c0.813-0.048,1.533-0.048,1.917-0.191
			c0.239-0.048,0.434-0.24,0.575-0.24c0.19,0,0.288,0.192,0.288,0.384c0,0.288-0.191,0.767-0.336,1.917
			c-0.049,0.384-0.096,2.205-0.19,2.685c-0.049,0.191-0.192,0.431-0.385,0.431c-0.19,0-0.336-0.191-0.336-0.479
			c0-0.336-0.144-1.007-0.384-1.534c-0.239-0.527-1.245-1.198-2.875-1.198l-6.901-0.096c-0.237,0-0.336,0.096-0.336,0.432v11.119
			c0,0.239,0,0.383,0.288,0.383l5.751-0.048c0.719,0,1.342,0,1.917-0.048c1.007-0.096,1.582-0.239,1.966-0.719
			c0.19-0.239,0.384-0.432,0.526-0.432c0.191,0,0.24,0.145,0.24,0.336c0,0.237-0.289,0.908-0.385,2.252
			c-0.097,0.813-0.145,2.443-0.145,2.73c0,0.384-0.096,0.812-0.385,0.812c-0.238,0-0.287-0.189-0.287-0.383
			c-0.047-0.432-0.096-1.007-0.287-1.486c-0.19-0.573-0.862-1.103-2.156-1.293c-1.055-0.145-6.039-0.096-6.758-0.096
			c-0.24,0-0.288,0.096-0.288,0.383v3.261c0,4.024,0,7.235,0.192,8.817c0.144,1.197,0.383,1.965,1.533,2.156
			c0.622,0.096,1.532,0.191,1.916,0.191c0.239,0,0.336,0.191,0.336,0.336c0,0.191-0.19,0.335-0.67,0.335
			c-2.351,0-5.082-0.144-5.272-0.144c-0.239,0-2.876,0.144-4.171,0.144c-0.43,0-0.67-0.097-0.67-0.335
			c0-0.145,0.096-0.336,0.336-0.336c0.383,0,0.91-0.146,1.293-0.191c0.814-0.145,0.91-0.959,1.104-2.156
			c0.239-1.678,0.239-4.89,0.239-8.817V39.76H377.125z"/>
	</g>
</g>
</svg>
