<?xml version="1.0" standalone="no"?>
<!DOCTYPE svg PUBLIC "-//W3C//DTD SVG 1.1//EN" "http://www.w3.org/Graphics/SVG/1.1/DTD/svg11.dtd">
<svg version="1.1" id="Layer_1" xmlns="http://www.w3.org/2000/svg" xmlns:xlink="http://www.w3.org/1999/xlink" x="0px" y="0px"
	 width="288px" height="77.25px" viewBox="0 0 288 77.25" enable-background="new 0 0 288 77.25" xml:space="preserve" preserveAspectRatio="none">
<g>
	<g>
		<g>
			<path fill-rule="evenodd" clip-rule="evenodd" d="M287.897,63.593c0,6.88-5.373,12.463-11.995,12.463H14.046
				c-6.624,0-11.993-5.583-11.993-12.463V16.844c0-6.882,5.37-12.463,11.993-12.463l261.856,0c6.622,0,11.995,5.581,11.995,12.463
				V63.593z"/>
			<path d="M288.001,63.598c0,0-0.007,0.169-0.022,0.503c-0.014,0.333-0.022,0.83-0.138,1.489c-0.21,1.293-0.662,3.278-2.141,5.396
				c-1.42,2.091-4.012,4.367-7.733,5.033c-0.913,0.183-1.9,0.205-2.882,0.204c-0.989,0.003-2.013,0.006-3.069,0.01
				c-2.112,0.006-4.357,0.013-6.73,0.021c-9.488-0.001-21.01,0.159-34.227,0.254c-13.217,0.108-28.127,0.23-44.394,0.364
				c-8.133,0.033-16.605,0.067-25.374,0.102c-8.768,0.043-17.833-0.021-27.152-0.027c-18.639,0.002-38.293-0.211-58.626-0.329
				c-20.338-0.099-41.354-0.2-62.708-0.303c-2.758-0.311-5.362-1.542-7.306-3.507c-1.94-1.947-3.264-4.524-3.643-7.264
				c-0.219-1.378-0.152-2.744-0.166-4.077l-0.008-4.039c-0.006-2.695-0.011-5.393-0.017-8.093
				c-0.06-10.811-0.12-21.665-0.181-32.518c0.012-2.742,0.861-5.679,2.576-7.931c1.675-2.29,4.13-4.048,6.913-4.754
				c1.362-0.379,2.878-0.451,4.192-0.427l4.059-0.021c2.705-0.014,5.408-0.029,8.108-0.043c10.802-0.057,21.562-0.114,32.236-0.17
				c21.349-0.057,42.36-0.112,62.693-0.166c20.333,0.006,39.988,0.012,58.626,0.017c18.639-0.016,36.261,0.095,52.527,0.195
				c8.133,0.069,15.927,0.135,23.34,0.198c3.707,0.036,7.318,0.07,10.828,0.104c1.756,0.017,3.485,0.034,5.19,0.05
				c1.696,0.046,3.381-0.067,5.091,0.22c3.429,0.582,6.328,2.652,8.099,5.288c0.893,1.317,1.519,2.772,1.874,4.256
				c0.371,1.477,0.408,3.017,0.369,4.426c-0.061,5.719-0.092,10.971-0.1,15.715c-0.066,18.978-0.104,29.822-0.104,29.822
				L288.001,63.598z M287.793,63.593c0,0-0.038-10.844-0.104-29.822c-0.008-4.744-0.039-9.997-0.1-15.715
				c0.014-1.444-0.048-2.85-0.425-4.258c-0.361-1.399-0.977-2.761-1.837-3.984c-1.7-2.449-4.471-4.323-7.596-4.795
				c-1.558-0.242-3.253-0.108-4.958-0.122c-1.705,0.016-3.435,0.033-5.19,0.05c-3.51,0.034-7.121,0.068-10.828,0.104
				c-7.413,0.063-15.207,0.129-23.34,0.198c-16.267,0.1-33.889,0.211-52.527,0.195c-18.638,0.005-38.293,0.011-58.626,0.017
				c-20.333-0.054-41.344-0.11-62.693-0.167c-10.675-0.057-21.435-0.113-32.236-0.17c-2.7-0.014-5.403-0.029-8.108-0.043
				l-4.059-0.021C13.776,5.023,12.56,5.077,11.302,5.4C8.813,6.001,6.585,7.556,5.044,9.615c-0.776,1.026-1.395,2.182-1.787,3.414
				c-0.402,1.255-0.606,2.445-0.635,3.843c-0.061,10.835-0.121,21.67-0.181,32.462c-0.006,2.7-0.011,5.398-0.017,8.093l-0.008,4.039
				c0.007,1.353-0.06,2.693,0.142,3.974c0.347,2.594,1.591,5.038,3.419,6.889c1.818,1.867,4.319,3.041,6.86,3.342
				c2.631,0.135,5.322,0.048,7.971,0.064c2.658-0.007,5.309-0.015,7.954-0.022c5.29-0.015,10.553-0.029,15.784-0.043
				c10.463-0.059,20.799-0.116,30.965-0.173c20.333-0.118,39.988-0.331,58.626-0.329c9.319-0.006,18.385-0.07,27.152-0.027
				c8.769,0.035,17.241,0.069,25.374,0.102c16.267,0.133,31.177,0.255,44.394,0.364c13.217,0.096,24.738,0.255,34.227,0.254
				c2.373,0.007,4.618,0.014,6.73,0.021c2.108-0.034,4.11,0.129,5.896-0.172c3.624-0.624,6.174-2.83,7.578-4.871
				c1.461-2.063,1.92-4.016,2.132-5.277c0.117-0.636,0.13-1.136,0.146-1.47c0.018-0.333,0.026-0.502,0.026-0.502L287.793,63.593z"/>
		</g>
	</g>
	<g>
		<g>
			<linearGradient id="SVGID_1_" gradientUnits="userSpaceOnUse" x1="0.5669" y1="36.1611" x2="286.4111" y2="36.1611">
				<stop  offset="0" style="stop-color:#002E62"/>
				<stop  offset="0.1453" style="stop-color:#003269"/>
				<stop  offset="0.3518" style="stop-color:#003E7B"/>
				<stop  offset="0.5674" style="stop-color:#004E96"/>
				<stop  offset="0.6745" style="stop-color:#003C7A"/>
				<stop  offset="0.7838" style="stop-color:#002E66"/>
				<stop  offset="0.8927" style="stop-color:#00265A"/>
				<stop  offset="1" style="stop-color:#002356"/>
			</linearGradient>
			<path fill-rule="evenodd" clip-rule="evenodd" fill="url(#SVGID_1_)" d="M286.411,59.533c0,6.884-5.367,12.467-11.994,12.467
				H12.562C5.937,72,0.567,66.417,0.567,59.533V12.789c0-6.882,5.37-12.466,11.995-12.466h261.855
				c6.627,0,11.994,5.583,11.994,12.466V59.533z"/>
			<path d="M286.515,59.538c0,0-0.007,0.169-0.022,0.503c-0.014,0.333-0.022,0.83-0.138,1.489c-0.209,1.294-0.661,3.278-2.138,5.396
				c-1.419,2.092-4.01,4.369-7.731,5.035c-0.913,0.182-1.9,0.206-2.882,0.205c-0.99,0.003-2.013,0.006-3.069,0.01
				c-2.113,0.006-4.358,0.013-6.73,0.021c-9.488-0.001-21.011,0.159-34.227,0.254c-13.217,0.108-28.128,0.23-44.394,0.363
				c-8.134,0.033-16.605,0.067-25.374,0.103c-8.769,0.043-17.834-0.021-27.153-0.027c-18.639,0.002-38.294-0.211-58.627-0.329
				c-20.338-0.098-41.354-0.2-62.708-0.303c-2.758-0.31-5.362-1.54-7.306-3.505c-1.941-1.946-3.265-4.524-3.645-7.263
				c-0.22-1.378-0.153-2.744-0.167-4.077l-0.008-4.039c-0.006-2.695-0.011-5.393-0.017-8.093c-0.06-10.802-0.121-21.646-0.181-32.49
				c0.012-2.797,0.861-5.694,2.575-7.959c1.674-2.29,4.129-4.049,6.911-4.756c1.362-0.38,2.878-0.453,4.192-0.429l4.059-0.021
				c2.705-0.014,5.408-0.029,8.108-0.043c10.802-0.057,21.562-0.114,32.236-0.17c21.35-0.057,42.36-0.112,62.693-0.166
				c20.333,0.006,39.988,0.011,58.626,0.017c18.639-0.017,36.261,0.095,52.527,0.195c8.133,0.069,15.927,0.135,23.34,0.198
				c3.707,0.036,7.318,0.07,10.829,0.104c1.755,0.017,3.485,0.034,5.189,0.05c1.696,0.046,3.381-0.066,5.091,0.219
				c3.429,0.581,6.329,2.65,8.1,5.287c0.893,1.317,1.519,2.772,1.874,4.256c0.372,1.477,0.409,3.017,0.37,4.426
				c-0.061,5.718-0.092,10.971-0.1,15.715c-0.066,18.978-0.104,29.822-0.104,29.822L286.515,59.538z M286.307,59.533
				c0,0-0.038-10.844-0.104-29.822c-0.008-4.744-0.039-9.997-0.1-15.715c0.014-1.445-0.049-2.85-0.426-4.258
				c-0.361-1.399-0.977-2.761-1.838-3.984c-1.699-2.449-4.47-4.322-7.595-4.794c-1.559-0.241-3.254-0.108-4.959-0.121
				c-1.704,0.016-3.435,0.033-5.189,0.05c-3.511,0.034-7.122,0.068-10.829,0.104c-7.413,0.063-15.207,0.129-23.34,0.198
				c-16.267,0.1-33.889,0.211-52.527,0.195c-18.639,0.005-38.293,0.011-58.626,0.017C100.44,1.347,79.429,1.292,58.08,1.235
				c-10.675-0.057-21.434-0.113-32.236-0.17c-2.7-0.014-5.403-0.029-8.108-0.043L13.676,1c-1.389-0.035-2.604,0.02-3.863,0.344
				C7.325,1.946,5.097,3.501,3.557,5.561c-1.582,2.064-2.371,4.618-2.42,7.229C1.076,23.634,1.016,34.478,0.956,45.28
				c-0.006,2.701-0.011,5.398-0.017,8.093L0.93,57.412c0.007,1.353-0.061,2.693,0.143,3.974c0.348,2.593,1.592,5.037,3.421,6.887
				c1.818,1.867,4.32,3.04,6.861,3.341c2.632,0.134,5.322,0.048,7.971,0.064c2.657-0.007,5.309-0.015,7.954-0.022
				c5.29-0.015,10.553-0.029,15.785-0.044c10.463-0.059,20.799-0.116,30.965-0.173c20.333-0.118,39.988-0.331,58.627-0.329
				c9.319-0.006,18.384-0.07,27.153-0.027c8.769,0.035,17.24,0.069,25.374,0.103c16.266,0.133,31.177,0.255,44.394,0.363
				c13.216,0.096,24.738,0.255,34.227,0.254c2.372,0.007,4.617,0.014,6.73,0.021c2.108-0.034,4.11,0.129,5.896-0.172
				c3.624-0.625,6.174-2.831,7.576-4.873c1.46-2.064,1.917-4.017,2.129-5.279c0.117-0.636,0.13-1.136,0.146-1.47
				c0.018-0.333,0.026-0.502,0.026-0.502L286.307,59.533z"/>
		</g>
	</g>
	<g>
		<g>
			<path fill="#FFFFFF" stroke="#FFFFFF" stroke-width="0.6939" stroke-miterlimit="10" d="M93.999,32.374
				c0-7.397,0-8.723-0.094-10.241c-0.098-1.612-0.478-2.37-2.039-2.703c-0.38-0.095-1.185-0.142-1.61-0.142
				c-0.193,0-0.381-0.095-0.381-0.284c0-0.284,0.237-0.38,0.758-0.38c2.136,0,5.119,0.144,5.354,0.144
				c0.525,0,4.126-0.144,5.593-0.144c2.991,0,6.166,0.285,8.678,2.086c1.185,0.853,3.271,3.174,3.271,6.446
				c0,3.508-1.469,7.016-5.736,10.953c3.892,4.978,7.109,9.195,9.861,12.135c2.559,2.699,4.598,3.221,5.782,3.411
				c0.897,0.142,1.565,0.142,1.849,0.142c0.236,0,0.427,0.143,0.427,0.285c0,0.287-0.284,0.379-1.138,0.379h-3.366
				c-2.652,0-3.84-0.236-5.071-0.901c-2.038-1.09-3.697-3.415-6.399-6.968c-1.991-2.607-4.218-5.781-5.166-7.016
				c-0.19-0.188-0.331-0.282-0.617-0.282L98.121,39.2c-0.236,0-0.331,0.14-0.331,0.375v1.14c0,4.553,0,8.295,0.239,10.288
				c0.141,1.371,0.424,2.415,1.849,2.606c0.664,0.095,1.701,0.188,2.131,0.188c0.286,0,0.379,0.143,0.379,0.285
				c0,0.236-0.236,0.379-0.76,0.379c-2.603,0-5.593-0.143-5.829-0.143c-0.048,0-3.031,0.143-4.454,0.143
				c-0.523,0-0.758-0.092-0.758-0.379c0-0.143,0.094-0.285,0.378-0.285c0.425,0,0.992-0.093,1.419-0.188
				c0.952-0.191,1.187-1.235,1.375-2.606c0.239-1.993,0.239-5.735,0.239-10.288V32.374z M97.79,36.496
				c0,0.236,0.095,0.427,0.331,0.569c0.71,0.425,2.893,0.756,4.976,0.756c1.142,0,2.465-0.14,3.559-0.898
				c1.66-1.138,2.888-3.698,2.888-7.302c0-5.923-3.125-9.48-8.199-9.48c-1.421,0-2.703,0.142-3.174,0.285
				c-0.239,0.095-0.38,0.285-0.38,0.571V36.496z"/>
			<path fill="#FFFFFF" stroke="#FFFFFF" stroke-width="0.6939" stroke-miterlimit="10" d="M128.668,35.641
				c0-6.255,0-7.393-0.095-8.674c-0.094-1.375-0.328-2.038-1.705-2.227c-0.331-0.048-1.045-0.096-1.421-0.096
				c-0.146,0-0.333-0.188-0.333-0.33c0-0.238,0.187-0.333,0.663-0.333c1.896,0,4.599,0.095,4.833,0.095c0.288,0,9.006,0.049,9.955,0
				c0.807-0.047,1.565-0.191,1.896-0.238c0.191-0.046,0.38-0.188,0.57-0.188c0.143,0,0.193,0.188,0.193,0.378
				c0,0.285-0.24,0.76-0.332,1.897c-0.051,0.38-0.147,2.18-0.24,2.654c-0.049,0.191-0.191,0.426-0.379,0.426
				c-0.235,0-0.332-0.191-0.332-0.523c0-0.283-0.049-0.947-0.234-1.419c-0.288-0.664-0.715-0.95-2.993-1.233
				c-0.708-0.096-5.544-0.144-6.016-0.144c-0.192,0-0.237,0.144-0.237,0.427v10.951c0,0.285,0,0.425,0.237,0.425
				c0.52,0,6.016,0,6.965-0.095c0.997-0.094,1.614-0.14,2.043-0.569c0.282-0.281,0.47-0.521,0.612-0.521
				c0.141,0,0.238,0.096,0.238,0.334c0,0.235-0.238,0.899-0.331,2.226c-0.096,0.806-0.188,2.324-0.188,2.61
				c0,0.33-0.097,0.755-0.382,0.755c-0.189,0-0.284-0.142-0.284-0.378c0-0.377,0-0.806-0.19-1.326
				c-0.14-0.57-0.521-1.044-2.135-1.233c-1.136-0.144-5.592-0.192-6.3-0.192c-0.241,0-0.286,0.144-0.286,0.286v3.365
				c0,1.375-0.047,6.069,0,6.874c0.094,2.703,0.852,3.225,4.975,3.225c1.095,0,3.086,0,4.175-0.427
				c1.089-0.473,1.657-1.187,1.894-2.798c0.095-0.473,0.189-0.615,0.427-0.615c0.236,0,0.287,0.332,0.287,0.615
				c0,0.287-0.331,3.033-0.572,3.887c-0.284,1.043-0.71,1.043-2.323,1.043c-3.127,0-5.543-0.094-7.251-0.142
				c-1.755-0.096-2.846-0.096-3.463-0.096c-0.095,0-0.898,0-1.798,0.051c-0.809,0.045-1.754,0.092-2.418,0.092
				c-0.429,0-0.666-0.092-0.666-0.33c0-0.144,0.094-0.334,0.333-0.334c0.38,0,0.902-0.142,1.279-0.188
				c0.805-0.144,0.905-0.951,1.09-2.136c0.237-1.656,0.237-4.834,0.237-8.722V35.641z"/>
			<path fill="#FFFFFF" stroke="#FFFFFF" stroke-width="0.6939" stroke-miterlimit="10" d="M155.13,50.67
				c-4.076-3.509-5.065-8.107-5.065-11.945c0-2.704,0.989-7.396,4.689-10.999c2.51-2.417,6.304-4.314,12.704-4.314
				c1.656,0,4.031,0.144,6.065,0.473c1.567,0.285,2.895,0.571,4.27,0.617c0.423,0,0.521,0.19,0.521,0.428
				c0,0.331-0.099,0.806-0.188,2.275c-0.053,1.328-0.053,3.555-0.096,4.125c-0.051,0.614-0.237,0.853-0.476,0.853
				c-0.284,0-0.334-0.283-0.334-0.853c0-1.564-0.664-3.176-1.75-4.032c-1.472-1.231-4.506-2.226-8.205-2.226
				c-5.352,0-7.91,1.422-9.382,2.796c-3.084,2.845-3.748,6.448-3.748,10.524c0,7.725,6.115,14.598,15.03,14.598
				c3.125,0,5.21-0.237,6.873-1.895c0.899-0.9,1.468-2.607,1.606-3.364c0.097-0.428,0.147-0.571,0.428-0.571
				c0.193,0,0.383,0.282,0.383,0.571c0,0.282-0.569,3.791-0.995,5.166c-0.24,0.757-0.333,0.899-1.043,1.185
				c-1.713,0.664-4.838,0.9-7.54,0.9C162.622,54.982,158.403,53.513,155.13,50.67z"/>
			<path fill="#FFFFFF" stroke="#FFFFFF" stroke-width="0.6939" stroke-miterlimit="10" d="M188.382,35.641
				c0-6.255,0-7.393-0.095-8.674c-0.097-1.375-0.335-2.038-1.707-2.227c-0.332-0.048-1.042-0.096-1.424-0.096
				c-0.141,0-0.333-0.188-0.333-0.33c0-0.238,0.192-0.333,0.668-0.333c1.895,0,4.595,0.095,4.833,0.095c0.283,0,9.005,0.049,9.953,0
				c0.806-0.047,1.563-0.191,1.897-0.238c0.192-0.046,0.379-0.188,0.571-0.188c0.14,0,0.189,0.188,0.189,0.378
				c0,0.285-0.234,0.76-0.334,1.897c-0.048,0.38-0.143,2.18-0.234,2.654c-0.052,0.191-0.192,0.426-0.383,0.426
				c-0.235,0-0.333-0.191-0.333-0.523c0-0.283-0.045-0.947-0.237-1.419c-0.279-0.664-0.707-0.95-2.986-1.233
				c-0.706-0.096-5.544-0.144-6.016-0.144c-0.191,0-0.239,0.144-0.239,0.427v10.951c0,0.285,0,0.425,0.239,0.425
				c0.52,0,6.016,0,6.97-0.095c0.991-0.094,1.607-0.14,2.032-0.569c0.29-0.281,0.477-0.521,0.623-0.521
				c0.138,0,0.234,0.096,0.234,0.334c0,0.235-0.234,0.899-0.333,2.226c-0.098,0.806-0.189,2.324-0.189,2.61
				c0,0.33-0.098,0.755-0.381,0.755c-0.187,0-0.285-0.142-0.285-0.378c0-0.377,0-0.806-0.188-1.326
				c-0.144-0.57-0.522-1.044-2.135-1.233c-1.136-0.144-5.592-0.192-6.304-0.192c-0.236,0-0.284,0.144-0.284,0.286v3.365
				c0,1.375-0.044,6.069,0,6.874c0.095,2.703,0.854,3.225,4.979,3.225c1.088,0,3.08,0,4.169-0.427
				c1.09-0.473,1.658-1.187,1.898-2.798c0.092-0.473,0.186-0.615,0.424-0.615c0.24,0,0.286,0.332,0.286,0.615
				c0,0.287-0.332,3.033-0.57,3.887c-0.281,1.043-0.71,1.043-2.324,1.043c-3.126,0-5.544-0.094-7.252-0.142
				c-1.753-0.096-2.839-0.096-3.459-0.096c-0.092,0-0.898,0-1.803,0.051c-0.804,0.045-1.755,0.092-2.415,0.092
				c-0.43,0-0.665-0.092-0.665-0.33c0-0.144,0.097-0.334,0.334-0.334c0.381,0,0.896-0.142,1.279-0.188
				c0.803-0.144,0.897-0.951,1.088-2.136c0.239-1.656,0.239-4.834,0.239-8.722V35.641z"/>
			<path fill="#FFFFFF" stroke="#FFFFFF" stroke-width="0.6939" stroke-miterlimit="10" d="M211.008,53.892
				c-0.569-0.282-0.614-0.426-0.614-1.517c0-1.99,0.188-3.602,0.232-4.265c0-0.427,0.098-0.666,0.331-0.666
				c0.238,0,0.383,0.143,0.383,0.477c0,0.332,0,0.901,0.14,1.469c0.664,2.94,3.793,3.983,6.589,3.983
				c4.126,0,6.258-2.324,6.258-5.358c0-2.891-1.563-4.263-5.261-7.014l-1.897-1.424c-4.504-3.365-5.973-5.828-5.973-8.625
				c0-4.742,3.746-7.585,9.246-7.585c1.656,0,3.314,0.237,4.314,0.473c0.802,0.191,1.134,0.191,1.468,0.191
				c0.33,0,0.427,0.047,0.427,0.285c0,0.188-0.19,1.517-0.19,4.266c0,0.616-0.052,0.898-0.332,0.898
				c-0.283,0-0.333-0.188-0.384-0.52c-0.043-0.475-0.377-1.566-0.613-1.992c-0.282-0.474-1.658-1.99-5.403-1.99
				c-3.032,0-5.546,1.517-5.546,4.363c0,2.559,1.277,4.027,5.401,6.826l1.187,0.804c5.075,3.461,6.825,6.258,6.825,9.717
				c0,2.371-0.898,4.93-3.884,6.874c-1.753,1.136-4.36,1.422-6.639,1.422C215.125,54.982,212.711,54.696,211.008,53.892z"/>
			<path fill="#FFFFFF" stroke="#FFFFFF" stroke-width="0.6939" stroke-miterlimit="10" d="M235.861,53.892
				c-0.568-0.282-0.618-0.426-0.618-1.517c0-1.99,0.188-3.602,0.236-4.265c0-0.427,0.094-0.666,0.333-0.666
				c0.237,0,0.38,0.143,0.38,0.477c0,0.332,0,0.901,0.141,1.469c0.664,2.94,3.789,3.983,6.589,3.983
				c4.125,0,6.257-2.324,6.257-5.358c0-2.891-1.562-4.263-5.264-7.014l-1.895-1.424c-4.503-3.365-5.971-5.828-5.971-8.625
				c0-4.742,3.743-7.585,9.242-7.585c1.66,0,3.319,0.237,4.313,0.473c0.807,0.191,1.14,0.191,1.471,0.191
				c0.334,0,0.424,0.047,0.424,0.285c0,0.188-0.187,1.517-0.187,4.266c0,0.616-0.052,0.898-0.331,0.898
				c-0.286,0-0.333-0.188-0.384-0.52c-0.045-0.475-0.377-1.566-0.614-1.992c-0.283-0.474-1.658-1.99-5.404-1.99
				c-3.031,0-5.544,1.517-5.544,4.363c0,2.559,1.276,4.027,5.401,6.826l1.186,0.804c5.073,3.461,6.826,6.258,6.826,9.717
				c0,2.371-0.899,4.93-3.886,6.874c-1.754,1.136-4.362,1.422-6.637,1.422C239.98,54.982,237.565,54.696,235.861,53.892z"/>
		</g>
		<g>
			<path fill="#FFFFFF" d="M47.5,53.225c-2.719,0-5.5-1.277-5.5-2.856V23.236c0-1.577,2.781-2.855,5.5-2.855l0,0
				c2.716,0,5.5,1.279,5.5,2.855v27.133C53,51.948,50.216,53.225,47.5,53.225L47.5,53.225z"/>
			<g>
				<path fill="#FFFFFF" d="M67.5,53.225c-2.718,0-5.5-1.277-5.5-2.856V23.236c0-1.577,2.782-2.855,5.5-2.855l0,0
					c2.716,0,5.5,1.279,5.5,2.855v27.133C73,51.948,70.216,53.225,67.5,53.225L67.5,53.225z"/>
			</g>
		</g>
	</g>
</g>
</svg>
