<?xml version="1.0" standalone="no"?>
<!DOCTYPE svg PUBLIC "-//W3C//DTD SVG 1.1//EN" "http://www.w3.org/Graphics/SVG/1.1/DTD/svg11.dtd">
<svg version="1.1" id="Layer_1" xmlns="http://www.w3.org/2000/svg" xmlns:xlink="http://www.w3.org/1999/xlink" x="0px" y="0px"
	 width="288px" height="77.25px" viewBox="0 0 288 77.25" enable-background="new 0 0 288 77.25" xml:space="preserve" preserveAspectRatio="none">
<g>
	<g>
		<path d="M287.896,63.593c0,6.88-5.373,12.464-11.994,12.464H14.046c-6.624,0-11.993-5.584-11.993-12.464V16.844
			c0-6.882,5.37-12.463,11.993-12.463h261.856c6.621,0,11.994,5.581,11.994,12.463V63.593L287.896,63.593z"/>
		<path d="M288.001,63.598c0,0-0.007,0.17-0.022,0.504c-0.014,0.332-0.021,0.83-0.138,1.488c-0.21,1.293-0.661,3.278-2.141,5.396
			c-1.421,2.091-4.013,4.367-7.733,5.033c-0.912,0.183-1.9,0.205-2.882,0.203c-0.989,0.004-2.013,0.006-3.069,0.01
			c-2.11,0.007-4.355,0.014-6.729,0.021c-9.488-0.001-21.012,0.159-34.229,0.254c-13.217,0.108-28.127,0.229-44.394,0.364
			c-8.133,0.031-16.604,0.066-25.374,0.104c-8.768,0.043-17.833-0.021-27.152-0.027c-18.639,0.002-38.293-0.211-58.626-0.329
			c-20.338-0.099-41.354-0.2-62.708-0.304c-2.758-0.312-5.362-1.541-7.306-3.506c-1.94-1.947-3.264-4.524-3.643-7.266
			C1.637,64.166,1.704,62.8,1.69,61.467l-0.008-4.039c-0.006-2.695-0.011-5.393-0.017-8.093c-0.06-10.811-0.12-21.665-0.181-32.518
			c0.012-2.742,0.861-5.679,2.576-7.931c1.675-2.29,4.13-4.048,6.913-4.754c1.362-0.379,2.878-0.451,4.192-0.427l4.059-0.021
			c2.705-0.014,5.408-0.029,8.108-0.043c10.802-0.057,21.562-0.114,32.236-0.17c21.349-0.057,42.36-0.112,62.693-0.166
			c20.333,0.006,39.988,0.012,58.625,0.017c18.639-0.016,36.262,0.095,52.526,0.195c8.133,0.069,15.927,0.135,23.34,0.198
			c3.707,0.036,7.317,0.07,10.828,0.104c1.756,0.017,3.483,0.034,5.188,0.05c1.696,0.046,3.381-0.067,5.092,0.22
			c3.43,0.582,6.328,2.652,8.1,5.288c0.895,1.317,1.52,2.772,1.874,4.256c0.371,1.477,0.408,3.017,0.369,4.426
			c-0.062,5.719-0.093,10.971-0.101,15.715C288.038,52.752,288,63.596,288,63.596L288.001,63.598L288.001,63.598z M287.793,63.593
			c0,0-0.038-10.844-0.104-29.822c-0.008-4.744-0.039-9.997-0.102-15.715c0.016-1.444-0.048-2.85-0.425-4.258
			c-0.361-1.399-0.978-2.761-1.837-3.984c-1.7-2.449-4.473-4.323-7.598-4.795c-1.558-0.242-3.252-0.108-4.957-0.122
			c-1.705,0.016-3.436,0.033-5.189,0.05c-3.512,0.034-7.121,0.068-10.828,0.104c-7.413,0.063-15.207,0.129-23.34,0.198
			c-16.268,0.1-33.891,0.211-52.525,0.195c-18.64,0.005-38.295,0.011-58.626,0.017c-20.333-0.054-41.344-0.11-62.693-0.167
			c-10.675-0.057-21.435-0.113-32.236-0.17c-2.7-0.014-5.403-0.029-8.108-0.043L15.166,5.06c-1.39-0.037-2.606,0.017-3.864,0.34
			C8.813,6.001,6.585,7.556,5.044,9.615c-0.776,1.026-1.395,2.182-1.787,3.414c-0.402,1.255-0.606,2.445-0.635,3.843
			c-0.061,10.835-0.121,21.67-0.181,32.462c-0.006,2.7-0.011,5.398-0.017,8.093l-0.008,4.039c0.007,1.353-0.06,2.693,0.142,3.974
			c0.347,2.596,1.591,5.039,3.419,6.891c1.818,1.865,4.319,3.041,6.86,3.342c2.631,0.137,5.322,0.048,7.971,0.062
			c2.658-0.006,5.309-0.014,7.954-0.021c5.29-0.015,10.553-0.028,15.784-0.043c10.463-0.06,20.799-0.114,30.965-0.173
			c20.333-0.118,39.988-0.331,58.626-0.329c9.319-0.006,18.384-0.069,27.152-0.026c8.77,0.034,17.24,0.068,25.374,0.103
			c16.267,0.133,31.177,0.255,44.394,0.364c13.217,0.096,24.738,0.254,34.229,0.254c2.373,0.007,4.617,0.014,6.729,0.021
			c2.108-0.034,4.11,0.13,5.896-0.172c3.624-0.624,6.174-2.83,7.578-4.871c1.461-2.063,1.92-4.016,2.132-5.276
			c0.116-0.637,0.13-1.137,0.146-1.471C287.785,63.761,287.792,63.592,287.793,63.593L287.793,63.593z"/>
	</g>
</g>
<g>
	<g>
		
			<linearGradient id="SVGID_1_" gradientUnits="userSpaceOnUse" x1="324.5664" y1="749.9121" x2="610.4111" y2="749.9121" gradientTransform="matrix(1 0 0 1 -324 -713.75)">
			<stop  offset="0" style="stop-color:#002E62"/>
			<stop  offset="0.1453" style="stop-color:#003269"/>
			<stop  offset="0.3518" style="stop-color:#003E7B"/>
			<stop  offset="0.5674" style="stop-color:#004E96"/>
			<stop  offset="0.6745" style="stop-color:#003C7A"/>
			<stop  offset="0.7838" style="stop-color:#002E66"/>
			<stop  offset="0.8927" style="stop-color:#00265A"/>
			<stop  offset="1" style="stop-color:#002356"/>
		</linearGradient>
		<path fill="url(#SVGID_1_)" d="M286.411,59.533c0,6.884-5.367,12.467-11.994,12.467H12.562C5.937,72,0.567,66.417,0.567,59.533
			V12.789c0-6.882,5.37-12.466,11.995-12.466h261.855c6.627,0,11.994,5.583,11.994,12.466V59.533z"/>
		<path d="M286.516,59.538c0,0-0.008,0.169-0.021,0.503c-0.016,0.333-0.021,0.83-0.139,1.488c-0.209,1.295-0.662,3.279-2.139,5.396
			c-1.419,2.093-4.01,4.369-7.73,5.035c-0.912,0.183-1.899,0.206-2.883,0.205c-0.988,0.003-2.013,0.006-3.067,0.01
			c-2.113,0.007-4.356,0.015-6.729,0.021c-9.488-0.002-21.012,0.158-34.228,0.255c-13.218,0.106-28.128,0.229-44.396,0.362
			c-8.134,0.033-16.604,0.066-25.373,0.104c-8.77,0.043-17.833-0.021-27.152-0.025c-18.639,0.002-38.294-0.211-58.627-0.33
			c-20.338-0.099-41.354-0.199-62.708-0.304c-2.758-0.31-5.362-1.54-7.306-3.505c-1.941-1.945-3.265-4.523-3.645-7.263
			c-0.22-1.38-0.153-2.744-0.167-4.077l-0.008-4.039C0.19,50.68,0.185,47.98,0.179,45.281c-0.06-10.802-0.121-21.646-0.181-32.49
			C0.01,9.994,0.859,7.097,2.573,4.832c1.674-2.29,4.129-4.049,6.911-4.756c1.362-0.38,2.878-0.453,4.192-0.429l4.059-0.021
			c2.705-0.014,5.408-0.029,8.108-0.043c10.802-0.057,21.562-0.114,32.236-0.17c21.35-0.057,42.36-0.112,62.693-0.166
			c20.333,0.006,39.988,0.011,58.626,0.017c18.639-0.017,36.261,0.095,52.525,0.195c8.135,0.069,15.928,0.135,23.342,0.198
			c3.707,0.036,7.316,0.07,10.827,0.104c1.757,0.017,3.485,0.034,5.189,0.05c1.694,0.046,3.381-0.066,5.091,0.219
			c3.429,0.581,6.329,2.65,8.102,5.287c0.893,1.317,1.519,2.772,1.873,4.256c0.373,1.477,0.408,3.017,0.37,4.426
			c-0.062,5.718-0.093,10.971-0.101,15.715c-0.065,18.978-0.104,29.822-0.104,29.822L286.516,59.538z M286.307,59.533
			c0,0-0.037-10.844-0.104-29.822c-0.008-4.744-0.039-9.997-0.1-15.715c0.014-1.445-0.049-2.85-0.428-4.258
			c-0.359-1.399-0.977-2.761-1.838-3.984c-1.697-2.449-4.47-4.322-7.595-4.794c-1.56-0.241-3.255-0.108-4.959-0.121
			c-1.704,0.016-3.437,0.033-5.189,0.05c-3.511,0.034-7.12,0.068-10.827,0.104c-7.414,0.063-15.207,0.129-23.342,0.198
			c-16.267,0.1-33.889,0.211-52.525,0.195c-18.641,0.005-38.293,0.011-58.626,0.017C100.44,1.347,79.429,1.292,58.08,1.235
			c-10.675-0.057-21.434-0.113-32.236-0.17c-2.7-0.014-5.403-0.029-8.108-0.043L13.676,1c-1.389-0.035-2.604,0.02-3.863,0.344
			C7.325,1.946,5.097,3.501,3.557,5.561c-1.582,2.064-2.371,4.618-2.42,7.229C1.076,23.634,1.016,34.478,0.956,45.28
			c-0.006,2.7-0.011,5.396-0.017,8.093L0.93,57.412c0.007,1.354-0.061,2.693,0.143,3.974c0.348,2.593,1.592,5.037,3.421,6.888
			c1.818,1.867,4.32,3.039,6.861,3.342c2.632,0.134,5.322,0.048,7.971,0.062c2.657-0.007,5.309-0.015,7.954-0.021
			c5.29-0.017,10.553-0.029,15.785-0.046c10.463-0.059,20.799-0.114,30.965-0.172c20.333-0.119,39.988-0.332,58.627-0.33
			c9.319-0.006,18.384-0.068,27.153-0.025c8.769,0.035,17.238,0.068,25.373,0.104c16.267,0.133,31.178,0.256,44.395,0.362
			c13.216,0.097,24.738,0.257,34.227,0.255c2.372,0.008,4.617,0.014,6.73,0.021c2.107-0.034,4.109,0.129,5.896-0.173
			c3.623-0.625,6.174-2.832,7.574-4.872c1.46-2.064,1.917-4.019,2.129-5.279c0.117-0.636,0.131-1.136,0.146-1.47
			c0.018-0.333,0.025-0.504,0.025-0.504V59.533z"/>
	</g>
</g>
<g enable-background="new    ">
	<path fill="#FFFFFF" d="M73.033,32.148c0-7.489,0-8.833-0.096-10.369c-0.096-1.632-0.48-2.4-2.064-2.736
		c-0.384-0.096-1.2-0.144-1.632-0.144c-0.192,0-0.384-0.097-0.384-0.288c0-0.288,0.24-0.385,0.768-0.385
		c2.161,0,5.185,0.145,5.425,0.145c0.528,0,4.176-0.145,5.665-0.145c3.024,0,6.24,0.288,8.785,2.112
		c1.2,0.864,3.312,3.217,3.312,6.528c0,3.553-1.488,7.105-5.808,11.09c3.936,5.04,7.2,9.312,9.985,12.289
		c2.592,2.735,4.656,3.264,5.856,3.456c0.912,0.144,1.584,0.144,1.872,0.144c0.24,0,0.432,0.145,0.432,0.288
		c0,0.288-0.288,0.384-1.152,0.384h-3.408c-2.688,0-3.888-0.239-5.136-0.911c-2.064-1.104-3.745-3.457-6.481-7.057
		c-2.016-2.641-4.272-5.857-5.232-7.105c-0.192-0.191-0.336-0.288-0.624-0.288l-5.904-0.096c-0.24,0-0.336,0.145-0.336,0.384v1.152
		c0,4.608,0,8.4,0.24,10.417c0.144,1.393,0.432,2.448,1.872,2.641c0.672,0.096,1.729,0.191,2.16,0.191
		c0.288,0,0.384,0.145,0.384,0.288c0,0.24-0.24,0.384-0.768,0.384c-2.64,0-5.665-0.144-5.904-0.144
		c-0.048,0-3.072,0.144-4.513,0.144c-0.528,0-0.768-0.096-0.768-0.384c0-0.144,0.096-0.288,0.384-0.288
		c0.432,0,1.008-0.096,1.44-0.191c0.96-0.192,1.2-1.248,1.392-2.641c0.24-2.017,0.24-5.809,0.24-10.417V32.148z M76.873,36.324
		c0,0.24,0.096,0.433,0.336,0.576c0.72,0.433,2.928,0.769,5.041,0.769c1.152,0,2.496-0.145,3.6-0.912
		c1.68-1.152,2.928-3.745,2.928-7.393c0-6.001-3.168-9.602-8.305-9.602c-1.44,0-2.736,0.145-3.216,0.288
		c-0.24,0.097-0.384,0.288-0.384,0.576V36.324z"/>
	<path fill="#FFFFFF" d="M108.12,35.46c0-6.336,0-7.488-0.096-8.784c-0.096-1.393-0.336-2.064-1.728-2.257
		c-0.336-0.048-1.056-0.096-1.44-0.096c-0.144,0-0.336-0.191-0.336-0.336c0-0.24,0.192-0.336,0.672-0.336
		c1.92,0,4.657,0.096,4.896,0.096c0.288,0,9.121,0.048,10.081,0c0.816-0.048,1.584-0.191,1.92-0.239
		c0.192-0.049,0.384-0.192,0.576-0.192c0.144,0,0.192,0.192,0.192,0.384c0,0.288-0.24,0.769-0.336,1.92
		c-0.048,0.385-0.144,2.209-0.24,2.688c-0.048,0.192-0.192,0.433-0.384,0.433c-0.24,0-0.336-0.192-0.336-0.528
		c0-0.288-0.048-0.96-0.24-1.44c-0.288-0.672-0.72-0.96-3.024-1.248c-0.72-0.096-5.617-0.144-6.097-0.144
		c-0.192,0-0.24,0.144-0.24,0.432V36.9c0,0.288,0,0.433,0.24,0.433c0.528,0,6.097,0,7.057-0.097
		c1.008-0.096,1.632-0.144,2.064-0.576c0.288-0.288,0.48-0.527,0.624-0.527s0.24,0.096,0.24,0.336c0,0.239-0.24,0.912-0.336,2.256
		c-0.096,0.816-0.192,2.353-0.192,2.641c0,0.336-0.096,0.768-0.384,0.768c-0.192,0-0.288-0.144-0.288-0.384
		c0-0.384,0-0.816-0.192-1.344c-0.144-0.576-0.528-1.057-2.16-1.249c-1.152-0.144-5.665-0.191-6.385-0.191
		c-0.24,0-0.288,0.144-0.288,0.288v3.408c0,1.392-0.048,6.145,0,6.961c0.096,2.735,0.864,3.264,5.041,3.264
		c1.104,0,3.121,0,4.225-0.432c1.104-0.48,1.68-1.2,1.92-2.832c0.096-0.48,0.192-0.625,0.432-0.625s0.288,0.337,0.288,0.625
		c0,0.287-0.336,3.072-0.576,3.936c-0.288,1.057-0.72,1.057-2.352,1.057c-3.168,0-5.617-0.097-7.345-0.145
		c-1.776-0.096-2.88-0.096-3.504-0.096c-0.096,0-0.912,0-1.824,0.048c-0.816,0.048-1.776,0.096-2.448,0.096
		c-0.432,0-0.672-0.096-0.672-0.336c0-0.144,0.096-0.336,0.336-0.336c0.384,0,0.912-0.144,1.296-0.191
		c0.816-0.145,0.912-0.96,1.104-2.16c0.24-1.681,0.24-4.896,0.24-8.833V35.46z"/>
	<path fill="#FFFFFF" d="M131.016,53.942c-0.576-0.288-0.624-0.433-0.624-1.536c0-2.017,0.192-3.648,0.24-4.32
		c0-0.433,0.096-0.673,0.336-0.673s0.384,0.145,0.384,0.48s0,0.912,0.144,1.488c0.672,2.976,3.84,4.032,6.673,4.032
		c4.176,0,6.336-2.353,6.336-5.425c0-2.928-1.584-4.32-5.329-7.104l-1.92-1.44c-4.561-3.408-6.048-5.904-6.048-8.736
		c0-4.801,3.792-7.681,9.361-7.681c1.68,0,3.36,0.24,4.369,0.48c0.815,0.191,1.151,0.191,1.488,0.191
		c0.336,0,0.432,0.048,0.432,0.288c0,0.192-0.192,1.536-0.192,4.32c0,0.624-0.048,0.912-0.336,0.912s-0.336-0.191-0.384-0.528
		c-0.049-0.479-0.385-1.584-0.625-2.016c-0.287-0.48-1.679-2.017-5.472-2.017c-3.072,0-5.617,1.536-5.617,4.417
		c0,2.592,1.296,4.08,5.473,6.912l1.2,0.816c5.136,3.504,6.913,6.336,6.913,9.841c0,2.4-0.912,4.992-3.937,6.961
		c-1.776,1.151-4.417,1.439-6.721,1.439C135.192,55.046,132.744,54.758,131.016,53.942z"/>
	<path fill="#FFFFFF" d="M168.936,42.661c0,3.937,0,7.152,0.193,8.833c0.144,1.2,0.336,1.968,1.631,2.16
		c0.576,0.096,1.537,0.191,1.921,0.191c0.288,0,0.336,0.192,0.336,0.336c0,0.192-0.192,0.336-0.672,0.336
		c-2.304,0-4.993-0.144-5.232-0.144c-0.192,0-3.12,0.144-4.368,0.144c-0.48,0-0.672-0.096-0.672-0.336
		c0-0.144,0.096-0.288,0.336-0.288c0.383,0,0.863-0.096,1.248-0.191c0.863-0.192,1.104-1.008,1.248-2.208
		c0.191-1.681,0.191-4.896,0.191-8.833V25.523L159,25.619c-2.641,0.049-3.648,0.337-4.273,1.297
		c-0.479,0.72-0.527,1.008-0.672,1.296c-0.096,0.336-0.24,0.384-0.432,0.384c-0.096,0-0.288-0.096-0.288-0.336
		c0-0.432,0.815-4.08,0.912-4.416c0.048-0.24,0.288-0.769,0.433-0.769c0.287,0,0.719,0.336,1.871,0.48
		c1.201,0.144,2.832,0.191,3.312,0.191h15.938c1.393,0,2.352-0.096,3.024-0.191c0.624-0.097,1.008-0.192,1.2-0.192
		c0.191,0,0.191,0.24,0.191,0.48c0,1.248-0.144,4.176-0.144,4.656c0,0.336-0.192,0.528-0.384,0.528
		c-0.192,0-0.288-0.145-0.336-0.721l-0.049-0.432c-0.144-1.248-1.056-2.16-5.088-2.257l-5.281-0.096V42.661z"/>
	<path fill="#FFFFFF" d="M193.464,24.468c0.528-1.345,0.72-1.584,1.009-1.584c0.432,0,0.576,0.575,1.008,1.487
		c0.768,1.729,7.537,18.578,10.129,24.771c1.535,3.648,2.688,4.177,3.6,4.465c0.625,0.191,1.248,0.239,1.68,0.239
		c0.24,0,0.529,0.097,0.529,0.336c0,0.24-0.48,0.336-0.961,0.336c-0.623,0-3.744,0-6.672-0.096
		c-0.816-0.048-1.488-0.048-1.488-0.288c0-0.191,0.096-0.191,0.288-0.288c0.239-0.096,0.672-0.432,0.384-1.104l-3.793-9.361
		c-0.096-0.191-0.143-0.24-0.383-0.24h-9.745c-0.192,0-0.337,0.097-0.433,0.337l-2.4,6.528c-0.383,1.008-0.623,2.016-0.623,2.736
		c0,0.815,0.72,1.104,1.439,1.104h0.385c0.336,0,0.432,0.145,0.432,0.336c0,0.24-0.24,0.336-0.624,0.336
		c-1.009,0-3.312-0.144-3.792-0.144c-0.433,0-2.545,0.144-4.273,0.144c-0.527,0-0.815-0.096-0.815-0.336
		c0-0.191,0.192-0.336,0.384-0.336c0.288,0,0.912-0.048,1.248-0.096c1.92-0.24,2.736-1.681,3.553-3.744L193.464,24.468z
		 M198.168,41.461c0.192,0,0.192-0.096,0.145-0.288l-4.176-11.185c-0.24-0.624-0.48-0.624-0.721,0l-3.937,11.185
		c-0.048,0.192,0,0.288,0.144,0.288H198.168z"/>
	<path fill="#FFFFFF" d="M216.982,35.46c0-6.336,0-7.488-0.096-8.784c-0.096-1.393-0.336-2.064-1.729-2.257
		c-0.336-0.048-1.055-0.096-1.439-0.096c-0.145,0-0.336-0.191-0.336-0.336c0-0.24,0.191-0.336,0.672-0.336
		c1.92,0,4.752,0.096,4.992,0.096c0.432,0,3.984-0.096,5.281-0.096c2.688,0,5.664,0.24,7.873,1.776
		c1.055,0.768,2.928,2.736,2.928,5.568c0,3.024-1.248,5.952-5.186,9.312c3.457,4.32,6.385,8.017,8.834,10.562
		c2.256,2.304,3.648,2.688,4.703,2.832c0.816,0.144,1.25,0.144,1.488,0.144c0.24,0,0.385,0.192,0.385,0.336
		c0,0.24-0.24,0.336-1.008,0.336h-2.641c-2.4,0-3.457-0.239-4.512-0.815c-1.824-0.96-3.361-2.929-5.762-6.001
		c-1.775-2.208-3.648-4.849-4.561-5.952c-0.191-0.192-0.287-0.24-0.574-0.24l-5.377-0.096c-0.193,0-0.289,0.096-0.289,0.336v0.96
		c0,3.937,0,7.104,0.193,8.785c0.143,1.2,0.383,1.968,1.68,2.16c0.576,0.096,1.488,0.191,1.871,0.191
		c0.289,0,0.336,0.192,0.336,0.336c0,0.192-0.191,0.336-0.672,0.336c-2.303,0-4.992-0.144-5.184-0.144
		c-0.049,0-2.881,0.144-4.176,0.144c-0.434,0-0.672-0.096-0.672-0.336c0-0.144,0.096-0.336,0.336-0.336
		c0.383,0,0.912-0.096,1.295-0.191c0.816-0.192,0.912-0.96,1.104-2.16c0.24-1.681,0.24-4.896,0.24-8.833V35.46z M220.631,38.917
		c0,0.239,0.096,0.384,0.289,0.527c0.623,0.336,2.783,0.624,4.656,0.624c1.008,0,2.16-0.048,3.168-0.72
		c1.439-0.96,2.545-3.12,2.545-6.24c0-5.089-2.785-8.017-7.297-8.017c-1.248,0-2.592,0.144-3.025,0.239
		c-0.191,0.097-0.336,0.24-0.336,0.48V38.917z"/>
	<path fill="#FFFFFF" d="M256.248,42.661c0,3.937,0,7.152,0.193,8.833c0.143,1.2,0.336,1.968,1.631,2.16
		c0.576,0.096,1.537,0.191,1.92,0.191c0.289,0,0.338,0.192,0.338,0.336c0,0.192-0.193,0.336-0.674,0.336
		c-2.303,0-4.992-0.144-5.232-0.144c-0.191,0-3.119,0.144-4.367,0.144c-0.48,0-0.672-0.096-0.672-0.336
		c0-0.144,0.096-0.288,0.336-0.288c0.383,0,0.863-0.096,1.248-0.191c0.863-0.192,1.104-1.008,1.248-2.208
		c0.191-1.681,0.191-4.896,0.191-8.833V25.523l-6.096,0.096c-2.641,0.049-3.648,0.337-4.273,1.297
		c-0.48,0.72-0.527,1.008-0.672,1.296c-0.096,0.336-0.24,0.384-0.432,0.384c-0.096,0-0.289-0.096-0.289-0.336
		c0-0.432,0.816-4.08,0.912-4.416c0.049-0.24,0.289-0.769,0.434-0.769c0.287,0,0.719,0.336,1.871,0.48
		c1.201,0.144,2.832,0.191,3.312,0.191h15.938c1.393,0,2.352-0.096,3.023-0.191c0.625-0.097,1.01-0.192,1.201-0.192
		s0.191,0.24,0.191,0.48c0,1.248-0.145,4.176-0.145,4.656c0,0.336-0.191,0.528-0.383,0.528s-0.289-0.145-0.336-0.721l-0.049-0.432
		c-0.143-1.248-1.055-2.16-5.088-2.257l-5.281-0.096V42.661z"/>
</g>
<path fill="#FFFFFF" d="M35.535,20.167c-4.417,0-8.624,1.788-11.688,4.852l-4.837-4.852v13.521h14.166l-5.979-5.979
	c2.178-2.193,5.183-2.824,8.337-2.824c6.505,0,11.808,5.303,11.808,11.807c0,6.506-5.303,11.808-11.808,11.808
	c-4.206,0-8.112-2.27-10.23-5.902l-4.086,2.357c2.944,5.094,8.442,8.263,14.316,8.263c9.119,0,16.525-7.42,16.525-16.525
	C52.06,27.588,44.654,20.167,35.535,20.167z"/>
</svg>
