<?xml version="1.0" standalone="no"?>
<!DOCTYPE svg PUBLIC "-//W3C//DTD SVG 1.1//EN" "http://www.w3.org/Graphics/SVG/1.1/DTD/svg11.dtd">
<svg version="1.1" id="Layer_1" xmlns="http://www.w3.org/2000/svg" xmlns:xlink="http://www.w3.org/1999/xlink" x="0px" y="0px"
	 width="222.348px" height="288px" viewBox="0 0 222.348 288" enable-background="new 0 0 222.348 288" xml:space="preserve">
<g>
	<g>
		<path d="M56.542-0.029l-1.469,0.311L3.071,11.311l10.587,81.417L0,113.469l33.515,59.381l-11.536,61.553l166.379,53.232
			l33.989-79.773l-63.152-40.332l13.474-52.162c0,0-11.633-50.367-12.89-51.126c-1.258-0.758-50.393,18.379-50.393,18.379
			l-31.918-8.45l31.327-59.428l-39.293,8.332"/>
		<path d="M56.542-0.029L3.101,11.452l0.113-0.159l10.771,81.394L14,92.807l-0.068,0.103L0.294,113.663l0.012-0.367l33.569,59.351
			l0.074,0.131l-0.027,0.148l-11.48,61.563l-0.318-0.535l166.427,53.083l-0.769,0.352L77.05,74.352l31.651-59.659l0.115,0.153
			l-39.314,8.228l39.271-8.436l0.222-0.047l-0.105,0.201c0,0,16.922,61.109,25.221,57.971c4.149-1.567,82.038-36.305,82.064-36.263
			c0.051,0.083-5.16,53.341-5,53.875c0.319,1.067,0.083,38.679,0.375,39.75c0.583,2.143,6.452,25.064,7.5,29.375
			c2.094,8.622,3.592,47.896,3.592,47.896l0.21,0.677l-33.917,79.806l-0.224,0.525l-0.545-0.174L21.836,234.852l-0.396-0.127
			l0.077-0.408l11.591-61.543l0.046,0.279l-33.461-59.411l-0.105-0.188l0.118-0.179l13.676-20.728l-0.052,0.224L2.928,11.33
			l-0.017-0.132l0.129-0.027L56.542-0.029z"/>
	</g>
	<g>
		<g>
			
				<linearGradient id="SVGID_1_" gradientUnits="userSpaceOnUse" x1="6.4182" y1="-41.2168" x2="16.5803" y2="-41.2168" gradientTransform="matrix(0.984 -0.1784 -0.1784 -0.984 3.6394 197.2175)">
				<stop  offset="0" style="stop-color:#FFFFFF"/>
				<stop  offset="1" style="stop-color:#808284"/>
			</linearGradient>
			<polygon fill="url(#SVGID_1_)" points="23.488,229.76 27.232,234.395 24.376,241.096 17.583,238.146 			"/>
			<path d="M23.488,229.76c0.708,0.705,1.379,1.439,2.062,2.165c0.687,0.722,1.343,1.47,2.009,2.207l0.156,0.173l-0.096,0.254
				c-0.856,2.274-1.741,4.536-2.68,6.775l-0.234,0.562l-0.57-0.24c-2.274-0.959-4.534-1.951-6.774-2.99l-0.638-0.296l0.401-0.548
				c1.012-1.377,2.049-2.737,3.104-4.086c0.524-0.676,1.063-1.342,1.61-2.002C22.38,231.07,22.92,230.404,23.488,229.76z
				 M23.488,229.76c-0.416,0.752-0.859,1.485-1.302,2.221c-0.438,0.736-0.882,1.47-1.342,2.189
				c-0.912,1.449-1.842,2.885-2.799,4.303l-0.237-0.843c2.289,0.927,4.558,1.897,6.812,2.904l-0.806,0.321
				c0.966-2.229,1.985-4.434,3.033-6.625l0.06,0.427c-0.582-0.808-1.175-1.604-1.735-2.429
				C24.606,231.41,24.028,230.6,23.488,229.76z"/>
		</g>
		<g>
			
				<linearGradient id="SVGID_2_" gradientUnits="userSpaceOnUse" x1="16.5295" y1="-37.6699" x2="26.6946" y2="-37.6699" gradientTransform="matrix(0.984 -0.1784 -0.1784 -0.984 3.6394 197.2175)">
				<stop  offset="0" style="stop-color:#FFFFFF"/>
				<stop  offset="1" style="stop-color:#808284"/>
			</linearGradient>
			<polygon fill="url(#SVGID_2_)" points="32.807,224.465 36.551,229.102 33.697,235.803 26.901,232.854 			"/>
			<path d="M32.807,224.465c0.708,0.705,1.378,1.439,2.062,2.166c0.687,0.723,1.343,1.469,2.009,2.207l0.156,0.172l-0.097,0.256
				c-0.855,2.273-1.74,4.536-2.677,6.776l-0.235,0.562l-0.569-0.24c-2.275-0.961-4.536-1.953-6.777-2.992l-0.638-0.296l0.4-0.548
				c1.013-1.377,2.05-2.738,3.106-4.086c0.523-0.676,1.063-1.342,1.61-2.002C31.699,225.775,32.239,225.109,32.807,224.465z
				 M32.807,224.465c-0.417,0.752-0.861,1.485-1.302,2.221c-0.438,0.736-0.882,1.469-1.342,2.19c-0.912,1.449-1.844,2.885-2.8,4.304
				l-0.236-0.844c2.29,0.928,4.559,1.9,6.813,2.906l-0.805,0.32c0.965-2.229,1.984-4.434,3.032-6.627l0.059,0.428
				c-0.582-0.807-1.174-1.605-1.734-2.43C33.925,226.115,33.347,225.307,32.807,224.465z"/>
		</g>
		<g>
			<polygon fill="#575656" points="34.742,226.343 40.554,222.861 44.215,228.512 35.252,231.127 			"/>
			<path d="M34.742,226.343c0.896-0.698,1.835-1.331,2.751-1.997c0.931-0.645,1.864-1.281,2.812-1.896l0.373-0.242l0.28,0.395
				c1.304,1.828,2.55,3.694,3.78,5.571l0.466,0.708l-0.814,0.232l-2.244,0.641c-0.748,0.215-1.498,0.421-2.252,0.615
				c-1.503,0.404-3.014,0.779-4.532,1.133l-0.473,0.109l-0.023-0.442c-0.042-0.802-0.075-1.604-0.089-2.409
				C34.757,227.954,34.73,227.15,34.742,226.343z M34.742,226.343c0.182,0.787,0.325,1.578,0.476,2.368
				c0.157,0.79,0.294,1.582,0.422,2.375l-0.497-0.333c1.469-0.521,2.946-1.015,4.431-1.481c0.739-0.242,1.482-0.473,2.229-0.692
				l2.237-0.667l-0.351,0.939c-1.21-1.89-2.404-3.789-3.542-5.727l0.653,0.15c-0.99,0.545-1.993,1.067-3,1.584
				C36.782,225.354,35.782,225.882,34.742,226.343z"/>
		</g>
		<g>
			
				<linearGradient id="SVGID_3_" gradientUnits="userSpaceOnUse" x1="21.3821" y1="-45.7061" x2="34.7405" y2="-45.7061" gradientTransform="matrix(0.984 -0.1784 -0.1784 -0.984 3.6394 197.2175)">
				<stop  offset="0" style="stop-color:#FFFFFF"/>
				<stop  offset="1" style="stop-color:#808284"/>
			</linearGradient>
			<polygon fill="url(#SVGID_3_)" points="41.069,230.059 45.885,235.482 42.016,243.538 33.165,240.207 			"/>
			<path d="M41.069,230.059c0.882,0.834,1.729,1.699,2.585,2.556c0.862,0.853,1.697,1.728,2.539,2.597l0.18,0.186l-0.116,0.267
				c-1.193,2.731-2.419,5.446-3.69,8.142l-0.235,0.5l-0.528-0.193c-2.959-1.086-5.907-2.203-8.835-3.372l-0.721-0.287l0.474-0.591
				c1.344-1.67,2.712-3.321,4.1-4.959c0.69-0.82,1.395-1.631,2.105-2.437C39.632,231.657,40.336,230.848,41.069,230.059z
				 M41.069,230.059c-0.585,0.903-1.197,1.784-1.807,2.67c-0.604,0.887-1.219,1.768-1.846,2.638
				c-1.247,1.745-2.515,3.478-3.805,5.188l-0.246-0.877c2.972,1.053,5.925,2.155,8.865,3.29l-0.764,0.308
				c1.309-2.676,2.661-5.332,4.048-7.969l0.063,0.45c-0.765-0.938-1.534-1.872-2.278-2.829
				C42.551,231.977,41.793,231.032,41.069,230.059z"/>
		</g>
		<g>
			<polygon fill="#575656" points="40.26,239.646 46.073,236.165 49.733,241.811 40.771,244.426 			"/>
			<path d="M40.26,239.646c0.897-0.699,1.835-1.332,2.752-1.998c0.931-0.645,1.866-1.28,2.813-1.896l0.373-0.242l0.279,0.395
				c1.305,1.826,2.549,3.691,3.78,5.566l0.465,0.709l-0.813,0.231l-2.245,0.641c-0.748,0.216-1.498,0.423-2.251,0.616
				c-1.503,0.402-3.015,0.78-4.532,1.133l-0.473,0.109l-0.023-0.442c-0.043-0.801-0.075-1.604-0.089-2.407
				C40.275,241.256,40.249,240.452,40.26,239.646z M40.26,239.646c0.182,0.785,0.325,1.576,0.476,2.365
				c0.157,0.789,0.294,1.58,0.423,2.373l-0.496-0.333c1.469-0.52,2.944-1.015,4.43-1.483c0.74-0.24,1.483-0.471,2.229-0.69
				l2.237-0.668l-0.349,0.94c-1.209-1.889-2.404-3.786-3.541-5.723l0.652,0.151c-0.989,0.544-1.993,1.067-3,1.584
				C42.3,238.656,41.3,239.186,40.26,239.646z"/>
		</g>
		<g>
			
				<linearGradient id="SVGID_4_" gradientUnits="userSpaceOnUse" x1="30.8762" y1="-44.9658" x2="44.2375" y2="-44.9658" gradientTransform="matrix(0.984 -0.1784 -0.1784 -0.984 3.6394 197.2175)">
				<stop  offset="0" style="stop-color:#FFFFFF"/>
				<stop  offset="1" style="stop-color:#808284"/>
			</linearGradient>
			<polygon fill="url(#SVGID_4_)" points="50.279,227.635 55.099,233.062 51.227,241.116 42.375,237.782 			"/>
			<path d="M50.279,227.635c0.883,0.836,1.729,1.7,2.588,2.557c0.862,0.854,1.698,1.729,2.541,2.6l0.18,0.186l-0.117,0.268
				c-1.194,2.73-2.421,5.445-3.693,8.138l-0.235,0.5l-0.528-0.192c-2.959-1.088-5.908-2.205-8.836-3.375l-0.721-0.289l0.474-0.588
				c1.344-1.672,2.712-3.322,4.1-4.959c0.69-0.821,1.395-1.633,2.106-2.437C48.842,229.232,49.546,228.423,50.279,227.635z
				 M50.279,227.635c-0.585,0.903-1.197,1.784-1.807,2.668c-0.604,0.889-1.219,1.77-1.846,2.639
				c-1.247,1.746-2.515,3.478-3.805,5.188l-0.246-0.877c2.972,1.054,5.925,2.157,8.866,3.293l-0.764,0.308
				c1.309-2.677,2.663-5.33,4.05-7.968l0.063,0.451c-0.766-0.938-1.535-1.873-2.28-2.83
				C51.762,229.555,51.003,228.609,50.279,227.635z"/>
		</g>
		<g>
			<polygon fill="#575656" points="38.278,226.923 44.091,223.441 47.751,229.09 38.788,231.706 			"/>
			<path d="M38.278,226.923c0.897-0.698,1.835-1.331,2.752-1.998c0.932-0.644,1.866-1.28,2.813-1.896l0.373-0.242l0.28,0.395
				c1.304,1.828,2.549,3.693,3.779,5.569l0.465,0.708l-0.813,0.232l-2.245,0.641c-0.748,0.216-1.498,0.422-2.252,0.616
				c-1.503,0.403-3.014,0.78-4.532,1.133l-0.473,0.11l-0.024-0.443c-0.042-0.803-0.074-1.604-0.088-2.409
				C38.292,228.534,38.266,227.73,38.278,226.923z M38.278,226.923c0.183,0.787,0.325,1.578,0.477,2.368
				c0.157,0.789,0.294,1.581,0.422,2.374l-0.496-0.333c1.469-0.52,2.946-1.016,4.43-1.482c0.74-0.242,1.483-0.473,2.229-0.691
				l2.237-0.668l-0.351,0.939c-1.209-1.889-2.404-3.787-3.54-5.725l0.653,0.15c-0.99,0.545-1.994,1.067-3,1.584
				C40.318,225.934,39.318,226.462,38.278,226.923z"/>
		</g>
		<g>
			
				<linearGradient id="SVGID_5_" gradientUnits="userSpaceOnUse" x1="37.4719" y1="-47.1558" x2="50.8303" y2="-47.1558" gradientTransform="matrix(0.984 -0.1784 -0.1784 -0.984 3.6394 197.2175)">
				<stop  offset="0" style="stop-color:#FFFFFF"/>
				<stop  offset="1" style="stop-color:#808284"/>
			</linearGradient>
			<polygon fill="url(#SVGID_5_)" points="57.161,228.616 61.977,234.042 58.107,242.092 49.256,238.761 			"/>
			<path d="M57.161,228.616c0.881,0.834,1.728,1.698,2.585,2.556c0.861,0.852,1.696,1.727,2.539,2.598l0.179,0.186l-0.116,0.268
				c-1.193,2.729-2.419,5.441-3.689,8.135l-0.236,0.5l-0.528-0.193c-2.959-1.086-5.907-2.203-8.836-3.372l-0.722-0.288l0.475-0.589
				c1.344-1.67,2.713-3.321,4.101-4.957c0.689-0.821,1.394-1.632,2.105-2.437C55.724,230.214,56.428,229.404,57.161,228.616z
				 M57.161,228.616c-0.585,0.901-1.198,1.784-1.808,2.668c-0.604,0.887-1.219,1.768-1.847,2.637
				c-1.248,1.745-2.514,3.476-3.805,5.188l-0.247-0.877c2.973,1.052,5.925,2.154,8.866,3.289l-0.763,0.308
				c1.309-2.675,2.661-5.327,4.047-7.964l0.063,0.451c-0.765-0.938-1.534-1.873-2.277-2.83
				C58.643,230.534,57.884,229.591,57.161,228.616z"/>
		</g>
		<g>
			
				<linearGradient id="SVGID_6_" gradientUnits="userSpaceOnUse" x1="33.9192" y1="-53.5371" x2="44.0803" y2="-53.5371" gradientTransform="matrix(0.984 -0.1784 -0.1784 -0.984 3.6394 197.2175)">
				<stop  offset="0" style="stop-color:#FFFFFF"/>
				<stop  offset="1" style="stop-color:#808284"/>
			</linearGradient>
			<polygon fill="url(#SVGID_6_)" points="52.746,236.979 56.49,241.615 53.636,248.312 46.843,245.367 			"/>
			<path d="M52.746,236.979c0.708,0.705,1.378,1.44,2.06,2.166c0.688,0.723,1.343,1.47,2.01,2.207l0.155,0.172l-0.096,0.256
				c-0.855,2.272-1.739,4.535-2.676,6.772l-0.235,0.562l-0.57-0.24c-2.273-0.959-4.535-1.951-6.774-2.989l-0.639-0.296l0.401-0.547
				c1.011-1.378,2.048-2.737,3.104-4.085c0.523-0.678,1.063-1.344,1.609-2.003C51.638,238.29,52.178,237.625,52.746,236.979z
				 M52.746,236.979c-0.416,0.752-0.86,1.485-1.303,2.221c-0.438,0.736-0.881,1.47-1.342,2.189
				c-0.911,1.449-1.842,2.885-2.798,4.303l-0.237-0.842c2.289,0.926,4.559,1.897,6.812,2.902l-0.805,0.321
				c0.965-2.228,1.983-4.431,3.029-6.623l0.061,0.427c-0.582-0.807-1.174-1.604-1.734-2.429
				C53.864,238.63,53.286,237.82,52.746,236.979z"/>
		</g>
		<g>
			<polygon fill="#575656" points="56.196,244.193 62.007,240.714 65.668,246.359 56.706,248.979 			"/>
			<path d="M56.196,244.193c0.897-0.699,1.834-1.332,2.751-1.998c0.932-0.644,1.865-1.279,2.812-1.896l0.37-0.239l0.283,0.392
				c0.656,0.911,1.282,1.842,1.918,2.767c0.634,0.926,1.24,1.869,1.861,2.803l0.471,0.707l-0.819,0.233l-2.245,0.642
				c-0.748,0.215-1.498,0.422-2.252,0.615c-1.503,0.404-3.014,0.781-4.532,1.135l-0.474,0.109l-0.023-0.443
				c-0.042-0.802-0.074-1.604-0.088-2.408C56.211,245.805,56.184,245.001,56.196,244.193z M56.196,244.193
				c0.183,0.787,0.325,1.578,0.476,2.367c0.157,0.791,0.294,1.582,0.422,2.375l-0.497-0.332c1.47-0.521,2.946-1.017,4.431-1.483
				c0.74-0.242,1.483-0.472,2.229-0.692l2.237-0.667l-0.35,0.939c-0.599-0.948-1.212-1.888-1.799-2.845
				c-0.584-0.957-1.179-1.907-1.743-2.879l0.652,0.15c-0.99,0.544-1.993,1.066-2.999,1.584
				C58.236,243.205,57.236,243.732,56.196,244.193z"/>
		</g>
		<g>
			
				<linearGradient id="SVGID_7_" gradientUnits="userSpaceOnUse" x1="61.9915" y1="-54.9722" x2="75.3528" y2="-54.9722" gradientTransform="matrix(0.984 -0.1784 -0.1784 -0.984 3.6394 197.2175)">
				<stop  offset="0" style="stop-color:#FFFFFF"/>
				<stop  offset="1" style="stop-color:#808284"/>
			</linearGradient>
			<polygon fill="url(#SVGID_7_)" points="82.684,231.932 87.501,237.355 83.631,245.41 74.778,242.078 			"/>
			<path d="M82.684,231.932c0.881,0.834,1.729,1.698,2.585,2.555c0.862,0.853,1.698,1.728,2.539,2.597l0.179,0.187l-0.115,0.266
				c-1.193,2.73-2.42,5.447-3.691,8.141l-0.236,0.5l-0.527-0.193c-2.96-1.086-5.908-2.203-8.837-3.373l-0.722-0.287l0.475-0.59
				c1.345-1.67,2.713-3.321,4.101-4.959c0.69-0.82,1.395-1.631,2.106-2.436C81.247,233.527,81.952,232.719,82.684,231.932z
				 M82.684,231.932c-0.585,0.902-1.198,1.783-1.808,2.668c-0.605,0.887-1.219,1.769-1.848,2.639
				c-1.248,1.744-2.514,3.477-3.805,5.188l-0.247-0.877c2.974,1.053,5.926,2.156,8.868,3.291l-0.764,0.307
				c1.309-2.676,2.662-5.33,4.049-7.969l0.062,0.451c-0.764-0.938-1.533-1.872-2.277-2.828
				C84.167,233.848,83.408,232.904,82.684,231.932z"/>
		</g>
		<g>
			
				<linearGradient id="SVGID_8_" gradientUnits="userSpaceOnUse" x1="55.3118" y1="-56.2725" x2="68.6702" y2="-56.2725" gradientTransform="matrix(0.984 -0.1784 -0.1784 -0.984 3.6394 197.2175)">
				<stop  offset="0" style="stop-color:#FFFFFF"/>
				<stop  offset="1" style="stop-color:#808284"/>
			</linearGradient>
			<polygon fill="url(#SVGID_8_)" points="76.339,234.404 81.157,239.829 77.286,247.881 68.437,244.551 			"/>
			<path d="M76.339,234.404c0.882,0.834,1.729,1.699,2.586,2.555c0.862,0.852,1.698,1.727,2.54,2.598l0.179,0.186l-0.116,0.267
				c-1.192,2.729-2.421,5.444-3.691,8.138l-0.236,0.5l-0.528-0.193c-2.958-1.086-5.905-2.203-8.834-3.371l-0.721-0.287l0.475-0.59
				c1.344-1.67,2.712-3.321,4.099-4.958c0.688-0.821,1.394-1.632,2.104-2.437C74.902,236.002,75.607,235.191,76.339,234.404z
				 M76.339,234.404c-0.585,0.902-1.197,1.783-1.807,2.668c-0.605,0.887-1.22,1.768-1.847,2.638
				c-1.247,1.746-2.513,3.478-3.804,5.188l-0.247-0.877c2.972,1.052,5.924,2.154,8.865,3.289l-0.764,0.307
				c1.31-2.676,2.662-5.329,4.05-7.967l0.062,0.451c-0.765-0.938-1.535-1.871-2.278-2.828
				C77.822,236.32,77.063,235.378,76.339,234.404z"/>
		</g>
		<g>
			<polygon fill="#575656" points="58.682,224.534 64.494,221.055 68.155,226.701 59.192,229.316 			"/>
			<path d="M58.682,224.534c0.897-0.699,1.834-1.331,2.751-1.998c0.931-0.644,1.865-1.28,2.812-1.896l0.373-0.242l0.279,0.394
				c1.305,1.828,2.551,3.694,3.781,5.569l0.465,0.709l-0.813,0.231l-2.244,0.642c-0.748,0.215-1.498,0.421-2.251,0.615
				c-1.503,0.403-3.015,0.779-4.532,1.133l-0.473,0.109l-0.023-0.443c-0.043-0.801-0.075-1.604-0.088-2.407
				C58.697,226.145,58.67,225.342,58.682,224.534z M58.682,224.534c0.182,0.786,0.325,1.577,0.477,2.366
				c0.156,0.791,0.294,1.582,0.422,2.375l-0.496-0.334c1.469-0.52,2.945-1.015,4.43-1.481c0.74-0.242,1.483-0.472,2.229-0.692
				l2.236-0.666l-0.349,0.939c-1.21-1.889-2.405-3.788-3.542-5.725l0.653,0.15c-0.99,0.544-1.993,1.067-3,1.584
				C60.722,223.545,59.722,224.073,58.682,224.534z"/>
		</g>
		<g>
			
				<linearGradient id="SVGID_9_" gradientUnits="userSpaceOnUse" x1="71.0745" y1="-55.8667" x2="81.2375" y2="-55.8667" gradientTransform="matrix(0.984 -0.1784 -0.1784 -0.984 3.6394 197.2175)">
				<stop  offset="0" style="stop-color:#FFFFFF"/>
				<stop  offset="1" style="stop-color:#808284"/>
			</linearGradient>
			<polygon fill="url(#SVGID_9_)" points="89.725,232.639 93.468,237.277 90.613,243.979 83.82,241.031 			"/>
			<path d="M89.725,232.639c0.708,0.705,1.378,1.441,2.061,2.168c0.687,0.724,1.343,1.471,2.009,2.209l0.155,0.172l-0.097,0.256
				c-0.855,2.273-1.74,4.535-2.677,6.774l-0.235,0.562l-0.569-0.239c-2.274-0.959-4.535-1.951-6.775-2.99l-0.638-0.296l0.4-0.547
				c1.013-1.379,2.05-2.74,3.106-4.088c0.523-0.678,1.062-1.344,1.61-2.004C88.617,233.95,89.157,233.285,89.725,232.639z
				 M89.725,232.639c-0.416,0.754-0.861,1.485-1.302,2.221c-0.438,0.738-0.882,1.472-1.342,2.192
				c-0.912,1.45-1.844,2.886-2.799,4.304l-0.237-0.842c2.289,0.926,4.558,1.898,6.812,2.904l-0.805,0.321
				c0.966-2.228,1.985-4.433,3.032-6.625l0.06,0.427c-0.582-0.809-1.174-1.605-1.733-2.432
				C90.843,234.29,90.265,233.479,89.725,232.639z"/>
		</g>
		<g>
			
				<linearGradient id="SVGID_10_" gradientUnits="userSpaceOnUse" x1="69.4465" y1="-60.7935" x2="77.0774" y2="-60.7935" gradientTransform="matrix(0.984 -0.1784 -0.1784 -0.984 3.6394 197.2175)">
				<stop  offset="0" style="stop-color:#FFFFFF"/>
				<stop  offset="1" style="stop-color:#808284"/>
			</linearGradient>
			<polygon fill="url(#SVGID_10_)" points="87.488,239.665 90.274,242.979 88.099,247.828 83.02,245.749 			"/>
			<path d="M87.488,239.665c1.082,0.976,2.102,2.005,3.104,3.046l0.163,0.169l-0.103,0.269c-0.629,1.66-1.287,3.307-1.997,4.931
				l-0.232,0.532l-0.556-0.219c-1.703-0.668-3.393-1.371-5.062-2.121l-0.672-0.301l0.431-0.557c0.772-0.993,1.569-1.969,2.386-2.932
				C85.762,241.52,86.602,240.575,87.488,239.665z M87.488,239.665c-0.604,1.117-1.253,2.201-1.93,3.267
				c-0.673,1.065-1.365,2.118-2.083,3.151l-0.242-0.856c1.718,0.637,3.413,1.32,5.098,2.037l-0.788,0.314
				c0.741-1.609,1.532-3.196,2.353-4.77l0.062,0.438C89.102,242.078,88.263,240.898,87.488,239.665z"/>
		</g>
		<g>
			<polygon fill="#575656" points="97.733,236.566 103.545,233.089 107.205,238.734 98.242,241.348 			"/>
			<path d="M97.733,236.566c0.897-0.697,1.834-1.33,2.751-1.996c0.932-0.644,1.865-1.28,2.812-1.896l0.373-0.242l0.28,0.395
				c1.304,1.828,2.549,3.693,3.779,5.568l0.465,0.709l-0.813,0.231l-2.245,0.64c-0.748,0.215-1.498,0.422-2.252,0.615
				c-1.503,0.403-3.014,0.778-4.533,1.131l-0.473,0.109l-0.023-0.441c-0.042-0.802-0.075-1.604-0.087-2.408
				C97.748,238.178,97.721,237.374,97.733,236.566z M97.733,236.566c0.183,0.787,0.325,1.578,0.476,2.367
				c0.157,0.789,0.294,1.58,0.421,2.373l-0.496-0.334c1.47-0.519,2.946-1.014,4.431-1.48c0.74-0.241,1.483-0.471,2.229-0.69
				l2.236-0.667l-0.35,0.94c-1.209-1.89-2.403-3.787-3.54-5.724l0.652,0.15c-0.99,0.544-1.993,1.066-2.999,1.583
				C99.773,235.579,98.773,236.105,97.733,236.566z"/>
		</g>
		<g>
			
				<linearGradient id="SVGID_11_" gradientUnits="userSpaceOnUse" x1="54.7844" y1="-35.5576" x2="68.3538" y2="-35.5576" gradientTransform="matrix(0.9492 -0.3147 -0.3147 -0.9492 24.7464 224.1062)">
				<stop  offset="0" style="stop-color:#FFFFFF"/>
				<stop  offset="1" style="stop-color:#808284"/>
			</linearGradient>
			<polygon fill="url(#SVGID_11_)" points="95.225,231.182 100.616,235.741 97.724,244.391 88.592,242.59 			"/>
			<path d="M95.225,231.182c0.964,0.684,1.901,1.397,2.844,2.104c0.948,0.702,1.877,1.426,2.807,2.149l0.203,0.156l-0.081,0.277
				c-0.855,2.919-1.753,5.824-2.696,8.715l-0.164,0.504l-0.531-0.1c-3.049-0.575-6.092-1.184-9.125-1.838l-0.791-0.172l0.407-0.677
				c1.135-1.884,2.295-3.754,3.479-5.61c0.588-0.93,1.188-1.854,1.802-2.769C93.986,233.006,94.59,232.084,95.225,231.182z
				 M95.225,231.182c-0.47,1-0.973,1.979-1.47,2.963c-0.492,0.984-0.997,1.963-1.515,2.936c-1.028,1.945-2.08,3.879-3.155,5.798
				l-0.383-0.847c3.055,0.544,6.1,1.137,9.139,1.763l-0.695,0.404c0.986-2.876,2.017-5.736,3.089-8.583l0.122,0.434
				c-0.868-0.796-1.734-1.593-2.585-2.41C96.918,232.824,96.058,232.02,95.225,231.182z"/>
		</g>
		<g>
			<polygon fill="#575656" points="107.382,242.135 113.192,238.654 116.855,244.305 107.892,246.918 			"/>
			<path d="M107.382,242.135c0.896-0.699,1.834-1.33,2.751-1.996c0.931-0.645,1.865-1.281,2.811-1.896l0.37-0.24l0.283,0.393
				c0.657,0.91,1.283,1.842,1.919,2.768c0.635,0.926,1.241,1.869,1.863,2.804l0.471,0.706l-0.82,0.234l-2.243,0.64
				c-0.748,0.216-1.499,0.422-2.252,0.616c-1.504,0.402-3.016,0.779-4.533,1.132l-0.475,0.11l-0.022-0.443
				c-0.042-0.802-0.075-1.604-0.088-2.409C107.396,243.746,107.37,242.941,107.382,242.135z M107.382,242.135
				c0.182,0.787,0.325,1.578,0.476,2.368c0.157,0.789,0.294,1.581,0.422,2.374l-0.496-0.333c1.47-0.519,2.945-1.015,4.431-1.481
				c0.739-0.242,1.482-0.472,2.229-0.691l2.237-0.667l-0.35,0.94c-0.601-0.949-1.213-1.889-1.801-2.846
				c-0.585-0.958-1.18-1.908-1.742-2.881l0.651,0.15c-0.989,0.545-1.992,1.066-2.999,1.584
				C109.421,241.146,108.421,241.674,107.382,242.135z"/>
		</g>
		<g>
			
				<linearGradient id="SVGID_12_" gradientUnits="userSpaceOnUse" x1="93.5657" y1="-79.543" x2="106.928" y2="-79.543" gradientTransform="matrix(0.984 -0.1784 -0.1784 -0.984 3.6394 197.2175)">
				<stop  offset="0" style="stop-color:#FFFFFF"/>
				<stop  offset="1" style="stop-color:#808284"/>
			</linearGradient>
			<polygon fill="url(#SVGID_12_)" points="118.136,250.477 122.953,255.896 119.082,263.954 110.23,260.622 			"/>
			<path d="M118.136,250.477c0.882,0.834,1.729,1.697,2.585,2.553c0.862,0.853,1.697,1.727,2.539,2.596l0.179,0.186l-0.115,0.267
				c-1.193,2.731-2.421,5.448-3.692,8.144l-0.235,0.5l-0.527-0.193c-2.959-1.088-5.907-2.204-8.835-3.373l-0.722-0.288l0.475-0.589
				c1.344-1.672,2.713-3.321,4.101-4.959c0.689-0.82,1.394-1.631,2.105-2.436C116.699,252.073,117.404,251.264,118.136,250.477z
				 M118.136,250.477c-0.585,0.902-1.198,1.783-1.808,2.668c-0.605,0.888-1.22,1.769-1.848,2.638
				c-1.248,1.745-2.514,3.477-3.805,5.188l-0.247-0.878c2.972,1.054,5.925,2.156,8.867,3.291l-0.764,0.308
				c1.309-2.678,2.661-5.332,4.049-7.972l0.062,0.451c-0.764-0.938-1.534-1.871-2.276-2.827
				C119.619,252.393,118.86,251.449,118.136,250.477z"/>
		</g>
		<g>
			
				<linearGradient id="SVGID_13_" gradientUnits="userSpaceOnUse" x1="65.718" y1="-71.6211" x2="75.8801" y2="-71.6211" gradientTransform="matrix(0.984 -0.1784 -0.1784 -0.984 3.6394 197.2175)">
				<stop  offset="0" style="stop-color:#FFFFFF"/>
				<stop  offset="1" style="stop-color:#808284"/>
			</linearGradient>
			<polygon fill="url(#SVGID_13_)" points="87.262,249.1 91.006,253.734 88.152,260.434 81.359,257.486 			"/>
			<path d="M87.262,249.1c0.708,0.705,1.378,1.439,2.06,2.166c0.688,0.721,1.344,1.469,2.011,2.207l0.154,0.172l-0.096,0.254
				c-0.854,2.273-1.739,4.535-2.676,6.773l-0.235,0.562l-0.569-0.24c-2.274-0.959-4.534-1.95-6.774-2.988l-0.638-0.296l0.4-0.547
				c1.012-1.378,2.048-2.739,3.104-4.086c0.523-0.677,1.062-1.343,1.608-2.003C86.154,250.41,86.694,249.744,87.262,249.1z
				 M87.262,249.1c-0.416,0.752-0.86,1.484-1.301,2.219c-0.438,0.738-0.882,1.471-1.342,2.191c-0.911,1.449-1.843,2.885-2.799,4.303
				l-0.236-0.843c2.289,0.927,4.557,1.897,6.812,2.902l-0.805,0.321c0.965-2.228,1.984-4.432,3.03-6.623l0.06,0.427
				c-0.582-0.808-1.174-1.604-1.734-2.429C88.38,250.749,87.802,249.939,87.262,249.1z"/>
		</g>
		<g>
			
				<linearGradient id="SVGID_14_" gradientUnits="userSpaceOnUse" x1="71.9368" y1="-72.4258" x2="79.5667" y2="-72.4258" gradientTransform="matrix(0.984 -0.1784 -0.1784 -0.984 3.6394 197.2175)">
				<stop  offset="0" style="stop-color:#FFFFFF"/>
				<stop  offset="1" style="stop-color:#808284"/>
			</linearGradient>
			<polygon fill="url(#SVGID_14_)" points="92.013,250.666 94.798,253.982 92.625,258.831 87.545,256.748 			"/>
			<path d="M92.013,250.666c1.082,0.977,2.1,2.007,3.104,3.049l0.162,0.169l-0.102,0.269c-0.628,1.66-1.287,3.306-1.995,4.93
				l-0.232,0.533l-0.556-0.219c-1.703-0.672-3.393-1.373-5.062-2.125l-0.672-0.303l0.431-0.556c0.771-0.993,1.569-1.97,2.385-2.931
				C90.288,252.52,91.128,251.576,92.013,250.666z M92.013,250.666c-0.604,1.117-1.253,2.201-1.93,3.266
				c-0.673,1.065-1.365,2.117-2.083,3.15l-0.241-0.855c1.717,0.637,3.414,1.322,5.097,2.041l-0.789,0.313
				c0.741-1.608,1.531-3.195,2.353-4.769l0.061,0.437C93.626,253.081,92.788,251.9,92.013,250.666z"/>
		</g>
		<g>
			
				<linearGradient id="SVGID_15_" gradientUnits="userSpaceOnUse" x1="75.8313" y1="-68.0742" x2="85.9924" y2="-68.0742" gradientTransform="matrix(0.984 -0.1784 -0.1784 -0.984 3.6394 197.2175)">
				<stop  offset="0" style="stop-color:#FFFFFF"/>
				<stop  offset="1" style="stop-color:#808284"/>
			</linearGradient>
			<polygon fill="url(#SVGID_15_)" points="96.58,243.807 100.324,248.441 97.472,255.139 90.678,252.193 			"/>
			<path d="M96.58,243.807c0.708,0.704,1.378,1.439,2.061,2.166c0.688,0.721,1.343,1.467,2.01,2.207l0.155,0.172l-0.096,0.254
				c-0.855,2.273-1.739,4.535-2.675,6.772l-0.235,0.562l-0.57-0.239c-2.273-0.958-4.535-1.949-6.773-2.987l-0.64-0.296l0.401-0.547
				c1.011-1.378,2.048-2.739,3.104-4.086c0.523-0.677,1.063-1.343,1.609-2.003C95.473,245.117,96.012,244.451,96.58,243.807z
				 M96.58,243.807c-0.416,0.752-0.86,1.484-1.302,2.219c-0.437,0.738-0.881,1.471-1.341,2.191
				c-0.911,1.449-1.841,2.885-2.797,4.303l-0.237-0.843c2.289,0.925,4.558,1.896,6.812,2.901l-0.805,0.32
				c0.965-2.227,1.982-4.431,3.028-6.621l0.061,0.427c-0.582-0.808-1.174-1.604-1.735-2.429
				C97.698,245.456,97.12,244.646,96.58,243.807z"/>
		</g>
		<g>
			<polygon fill="#575656" points="98.518,245.682 104.33,242.204 107.989,247.852 99.026,250.465 			"/>
			<path d="M98.518,245.682c0.897-0.697,1.835-1.33,2.751-1.996c0.932-0.644,1.865-1.279,2.812-1.896l0.37-0.24l0.282,0.392
				c0.657,0.912,1.282,1.843,1.917,2.768c0.635,0.926,1.24,1.869,1.861,2.803l0.47,0.706l-0.819,0.234l-2.244,0.64
				c-0.748,0.217-1.498,0.422-2.251,0.616c-1.503,0.403-3.015,0.778-4.532,1.132l-0.474,0.11l-0.023-0.443
				c-0.042-0.802-0.074-1.604-0.087-2.409C98.532,247.293,98.506,246.489,98.518,245.682z M98.518,245.682
				c0.183,0.787,0.325,1.578,0.476,2.368c0.156,0.789,0.294,1.581,0.421,2.374l-0.497-0.333c1.469-0.519,2.945-1.015,4.43-1.481
				c0.74-0.241,1.483-0.471,2.229-0.691l2.236-0.667l-0.35,0.94c-0.598-0.948-1.211-1.889-1.797-2.844
				c-0.584-0.959-1.18-1.91-1.742-2.881l0.652,0.151c-0.99,0.544-1.993,1.065-2.999,1.583
				C100.558,244.693,99.558,245.221,98.518,245.682z"/>
		</g>
		<g>
			<polygon fill="#575656" points="104.265,248.744 110.076,245.266 113.736,250.914 104.774,253.525 			"/>
			<path d="M104.265,248.744c0.897-0.699,1.834-1.331,2.751-1.998c0.931-0.643,1.865-1.279,2.812-1.896l0.373-0.242l0.28,0.395
				c1.304,1.829,2.548,3.696,3.779,5.572l0.465,0.708l-0.813,0.231c-1.496,0.426-2.988,0.866-4.496,1.254
				c-1.503,0.403-3.015,0.779-4.532,1.131l-0.473,0.109l-0.023-0.441c-0.042-0.801-0.075-1.604-0.088-2.408
				C104.279,250.354,104.252,249.552,104.265,248.744z M104.265,248.744c0.182,0.785,0.325,1.576,0.476,2.367
				c0.156,0.789,0.294,1.58,0.421,2.373l-0.496-0.334c1.469-0.519,2.945-1.014,4.43-1.479c1.48-0.483,2.975-0.912,4.466-1.356
				l-0.351,0.939c-1.208-1.89-2.403-3.79-3.539-5.727l0.652,0.15c-0.99,0.545-1.993,1.066-2.999,1.584
				C106.304,247.756,105.304,248.283,104.265,248.744z"/>
		</g>
		<g>
			
				<linearGradient id="SVGID_16_" gradientUnits="userSpaceOnUse" x1="80.6799" y1="-76.1113" x2="94.0393" y2="-76.1113" gradientTransform="matrix(0.984 -0.1784 -0.1784 -0.984 3.6394 197.2175)">
				<stop  offset="0" style="stop-color:#FFFFFF"/>
				<stop  offset="1" style="stop-color:#808284"/>
			</linearGradient>
			<polygon fill="url(#SVGID_16_)" points="104.844,249.398 109.659,254.822 105.79,262.878 96.939,259.545 			"/>
			<path d="M104.844,249.398c0.881,0.834,1.728,1.699,2.585,2.555c0.861,0.852,1.697,1.727,2.538,2.596l0.179,0.186L110.03,255
				c-1.192,2.732-2.42,5.447-3.69,8.143l-0.236,0.5l-0.527-0.193c-2.959-1.088-5.907-2.205-8.835-3.374l-0.722-0.288l0.475-0.589
				c1.344-1.671,2.713-3.321,4.1-4.958c0.69-0.821,1.394-1.631,2.106-2.436C103.407,250.997,104.111,250.188,104.844,249.398z
				 M104.844,249.398c-0.585,0.903-1.198,1.785-1.807,2.668c-0.605,0.888-1.22,1.769-1.848,2.639
				c-1.248,1.745-2.514,3.477-3.805,5.188l-0.247-0.877c2.972,1.053,5.924,2.157,8.866,3.293l-0.764,0.307
				c1.309-2.678,2.661-5.331,4.048-7.971l0.062,0.451c-0.764-0.938-1.534-1.871-2.276-2.828
				C106.326,251.316,105.567,250.373,104.844,249.398z"/>
		</g>
		<g>
			
				<linearGradient id="SVGID_17_" gradientUnits="userSpaceOnUse" x1="55.6379" y1="-18.5386" x2="69.5706" y2="-18.5386" gradientTransform="matrix(0.8812 -0.4728 -0.4728 -0.8812 55.2474 260.0008)">
				<stop  offset="0" style="stop-color:#FFFFFF"/>
				<stop  offset="1" style="stop-color:#808284"/>
			</linearGradient>
			<polygon fill="url(#SVGID_17_)" points="119.02,239.398 124.964,242.785 123.347,251.924 114.119,252.044 			"/>
			<path d="M119.02,239.398c1.039,0.479,2.06,0.992,3.082,1.5c1.027,0.502,2.044,1.021,3.057,1.547l0.229,0.119l-0.039,0.289
				c-0.419,3.066-0.891,6.125-1.403,9.176l-0.083,0.49l-0.508,0.012c-3.076,0.066-6.151,0.101-9.229,0.089l-0.862-0.003l0.317-0.781
				c0.85-2.095,1.724-4.182,2.624-6.255c0.447-1.039,0.905-2.073,1.382-3.101C118.057,241.45,118.521,240.418,119.02,239.398z
				 M119.02,239.398c-0.316,1.09-0.671,2.164-1.019,3.242c-0.341,1.08-0.7,2.151-1.068,3.221c-0.731,2.142-1.493,4.271-2.277,6.391
				l-0.545-0.784c3.076-0.092,6.152-0.139,9.229-0.151l-0.591,0.502c0.564-3.041,1.172-6.075,1.831-9.102l0.19,0.408
				c-0.97-0.604-1.935-1.212-2.889-1.839C120.924,240.664,119.962,240.049,119.02,239.398z"/>
		</g>
		<g>
			<polygon fill="#575656" points="119.254,243.794 125.069,240.316 128.728,245.962 119.763,248.575 			"/>
			<path d="M119.254,243.794c0.896-0.698,1.836-1.33,2.753-1.997c0.932-0.643,1.866-1.279,2.812-1.895l0.373-0.242l0.28,0.395
				c1.303,1.827,2.548,3.692,3.778,5.567l0.465,0.708l-0.814,0.232l-2.244,0.64c-0.748,0.216-1.498,0.421-2.253,0.614
				c-1.504,0.403-3.015,0.779-4.532,1.133l-0.475,0.109l-0.022-0.442c-0.042-0.802-0.074-1.604-0.087-2.408
				C119.269,245.404,119.243,244.602,119.254,243.794z M119.254,243.794c0.182,0.786,0.325,1.577,0.475,2.367
				c0.157,0.789,0.294,1.58,0.422,2.373l-0.497-0.333c1.472-0.52,2.947-1.014,4.433-1.48c0.74-0.242,1.482-0.473,2.229-0.691
				l2.237-0.668l-0.35,0.94c-1.209-1.889-2.403-3.786-3.54-5.723l0.652,0.151c-0.99,0.543-1.994,1.065-3.001,1.582
				C121.295,242.807,120.294,243.333,119.254,243.794z"/>
		</g>
		<g>
			
				<linearGradient id="SVGID_18_" gradientUnits="userSpaceOnUse" x1="94.1545" y1="-70.5542" x2="108.4124" y2="-70.5542" gradientTransform="matrix(0.984 -0.1784 -0.1784 -0.984 3.6394 197.2175)">
				<stop  offset="0" style="stop-color:#FFFFFF"/>
				<stop  offset="1" style="stop-color:#808284"/>
			</linearGradient>
			<polygon fill="url(#SVGID_18_)" points="117.715,241.312 122.809,246.777 118.62,255.008 109.214,251.717 			"/>
			<path d="M117.715,241.312c0.925,0.84,1.817,1.711,2.719,2.572c0.905,0.858,1.788,1.737,2.673,2.614l0.192,0.19l-0.127,0.272
				c-1.299,2.792-2.635,5.565-4.011,8.32l-0.235,0.471l-0.508-0.173c-3.145-1.072-6.277-2.176-9.392-3.33l-0.765-0.284l0.514-0.608
				c1.443-1.713,2.91-3.405,4.396-5.084c0.739-0.842,1.491-1.672,2.253-2.496C116.181,242.951,116.934,242.121,117.715,241.312z
				 M117.715,241.312c-0.636,0.927-1.299,1.83-1.959,2.736c-0.656,0.91-1.32,1.812-1.998,2.705c-1.348,1.79-2.715,3.564-4.105,5.32
				l-0.251-0.893c3.156,1.036,6.292,2.129,9.419,3.25l-0.742,0.299c1.417-2.732,2.874-5.444,4.367-8.139l0.064,0.463
				c-0.812-0.945-1.628-1.887-2.42-2.851C119.294,243.246,118.488,242.295,117.715,241.312z"/>
		</g>
		<g>
			
				<linearGradient id="SVGID_19_" gradientUnits="userSpaceOnUse" x1="109.6809" y1="-71.1763" x2="123.9348" y2="-71.1763" gradientTransform="matrix(0.984 -0.1784 -0.1784 -0.984 3.6394 197.2175)">
				<stop  offset="0" style="stop-color:#FFFFFF"/>
				<stop  offset="1" style="stop-color:#808284"/>
			</linearGradient>
			<polygon fill="url(#SVGID_19_)" points="133.106,239.154 138.194,244.619 134.006,252.85 124.603,249.557 			"/>
			<path d="M133.106,239.154c0.924,0.84,1.815,1.711,2.716,2.572c0.904,0.857,1.786,1.737,2.672,2.613l0.19,0.19l-0.127,0.271
				c-1.299,2.794-2.634,5.567-4.009,8.32l-0.235,0.472l-0.508-0.173c-3.143-1.073-6.275-2.176-9.39-3.332l-0.766-0.284l0.515-0.609
				c1.442-1.711,2.91-3.404,4.396-5.081c0.739-0.843,1.492-1.673,2.253-2.496C131.571,240.792,132.325,239.962,133.106,239.154z
				 M133.106,239.154c-0.636,0.926-1.3,1.83-1.96,2.736c-0.654,0.908-1.319,1.812-1.998,2.703c-1.348,1.79-2.716,3.564-4.105,5.319
				l-0.251-0.894c3.154,1.039,6.291,2.131,9.417,3.254l-0.743,0.297c1.416-2.731,2.873-5.443,4.366-8.137l0.063,0.461
				c-0.811-0.943-1.626-1.886-2.417-2.85C134.682,241.087,133.877,240.136,133.106,239.154z"/>
		</g>
		<g>
			<polygon fill="#575656" points="127.573,244.575 135.796,240.121 140.743,246.814 128.142,250.348 			"/>
			<path d="M127.573,244.575c1.302-0.87,2.643-1.666,3.963-2.502c1.336-0.808,2.675-1.607,4.023-2.388l0.359-0.207l0.274,0.349
				c1.719,2.18,3.394,4.392,5.051,6.616l0.543,0.729l-0.877,0.242l-3.153,0.871c-1.051,0.292-2.104,0.571-3.161,0.842
				c-2.11,0.554-4.229,1.078-6.354,1.57l-0.438,0.101l-0.025-0.416c-0.059-0.966-0.091-1.935-0.125-2.902
				C127.617,246.514,127.58,245.546,127.573,244.575z M127.573,244.575c0.183,0.952,0.336,1.909,0.487,2.866
				c0.155,0.955,0.312,1.912,0.444,2.869l-0.462-0.314c2.073-0.686,4.155-1.337,6.245-1.962c1.044-0.318,2.09-0.628,3.139-0.925
				l3.146-0.896l-0.333,0.972c-1.642-2.238-3.264-4.488-4.844-6.771l0.635,0.142c-1.392,0.705-2.794,1.389-4.198,2.066
				C130.413,243.271,129.012,243.96,127.573,244.575z"/>
		</g>
		<g>
			
				<linearGradient id="SVGID_20_" gradientUnits="userSpaceOnUse" x1="122.8157" y1="-87.0757" x2="141.5549" y2="-87.0757" gradientTransform="matrix(0.984 -0.1784 -0.1784 -0.984 3.6394 197.2175)">
				<stop  offset="0" style="stop-color:#FFFFFF"/>
				<stop  offset="1" style="stop-color:#808284"/>
			</linearGradient>
			<polygon fill="url(#SVGID_20_)" points="151.78,250.635 158.349,257.01 152.699,266.914 140.434,263.245 			"/>
			<path d="M151.78,250.635c1.166,0.989,2.303,2.01,3.444,3.022c1.149,1.006,2.272,2.04,3.396,3.073l0.214,0.197l-0.146,0.273
				l-2.695,5.025l-2.766,4.986l-0.23,0.417l-0.47-0.137c-4.096-1.197-8.184-2.423-12.254-3.706l-0.855-0.271l0.598-0.652
				c1.907-2.088,3.875-4.119,5.819-6.174c0.968-1.03,1.953-2.045,2.951-3.049C149.775,252.635,150.764,251.623,151.78,250.635z
				 M151.78,250.635c-0.875,1.114-1.776,2.204-2.676,3.297c-0.893,1.1-1.799,2.186-2.722,3.256c-1.838,2.15-3.652,4.32-5.526,6.438
				l-0.259-0.924c4.106,1.161,8.194,2.383,12.275,3.632l-0.7,0.279l2.886-4.916l2.954-4.879l0.067,0.471
				c-1.068-1.092-2.136-2.184-3.176-3.301C153.858,252.875,152.804,251.771,151.78,250.635z"/>
		</g>
		<g>
			<polygon fill="#575656" points="134.555,255.62 142.781,251.169 147.723,257.857 135.126,261.391 			"/>
			<path d="M134.555,255.62c1.302-0.869,2.645-1.665,3.964-2.501c1.336-0.807,2.676-1.605,4.026-2.387l0.358-0.207l0.274,0.35
				c1.717,2.18,3.391,4.389,5.046,6.611l0.543,0.729l-0.877,0.242l-3.152,0.871c-1.05,0.292-2.104,0.571-3.159,0.841
				c-2.11,0.553-4.228,1.078-6.354,1.569l-0.437,0.102l-0.025-0.416c-0.059-0.966-0.091-1.934-0.126-2.899
				C134.6,257.559,134.562,256.591,134.555,255.62z M134.555,255.62c0.184,0.953,0.336,1.909,0.489,2.864
				c0.155,0.955,0.312,1.91,0.444,2.869l-0.462-0.315c2.072-0.687,4.154-1.337,6.243-1.961c1.043-0.319,2.089-0.628,3.139-0.925
				l3.146-0.896l-0.333,0.972c-1.64-2.235-3.261-4.484-4.839-6.767l0.634,0.142c-1.391,0.705-2.794,1.389-4.199,2.065
				C137.395,254.316,135.995,255.006,134.555,255.62z"/>
		</g>
		<g>
			
				<linearGradient id="SVGID_21_" gradientUnits="userSpaceOnUse" x1="155.8167" y1="-93.8853" x2="174.5549" y2="-93.8853" gradientTransform="matrix(0.984 -0.1784 -0.1784 -0.984 3.6394 197.2175)">
				<stop  offset="0" style="stop-color:#FFFFFF"/>
				<stop  offset="1" style="stop-color:#808284"/>
			</linearGradient>
			<polygon fill="url(#SVGID_21_)" points="185.466,251.447 192.034,257.816 186.383,267.729 174.12,264.055 			"/>
			<path d="M185.466,251.447c1.165,0.988,2.301,2.008,3.443,3.021c1.148,1.005,2.271,2.038,3.394,3.071l0.214,0.197l-0.146,0.272
				l-2.695,5.029l-2.765,4.989l-0.232,0.42l-0.469-0.139c-4.096-1.199-8.185-2.426-12.253-3.711l-0.856-0.271l0.599-0.653
				c1.907-2.086,3.875-4.118,5.818-6.172c0.969-1.03,1.954-2.045,2.952-3.048C183.461,253.445,184.451,252.436,185.466,251.447z
				 M185.466,251.447c-0.876,1.113-1.777,2.203-2.677,3.296c-0.894,1.099-1.798,2.185-2.722,3.256
				c-1.838,2.149-3.651,4.319-5.526,6.437l-0.259-0.924c4.105,1.163,8.193,2.387,12.273,3.637l-0.7,0.281l2.886-4.922l2.954-4.882
				l0.067,0.47c-1.067-1.09-2.134-2.181-3.174-3.299C187.543,253.686,186.491,252.582,185.466,251.447z"/>
		</g>
		<g>
			
				<linearGradient id="SVGID_22_" gradientUnits="userSpaceOnUse" x1="107.1985" y1="-92.3091" x2="121.4553" y2="-92.3091" gradientTransform="matrix(0.984 -0.1784 -0.1784 -0.984 3.6394 197.2175)">
				<stop  offset="0" style="stop-color:#FFFFFF"/>
				<stop  offset="1" style="stop-color:#808284"/>
			</linearGradient>
			<polygon fill="url(#SVGID_22_)" points="134.431,260.393 139.525,265.857 135.336,274.087 125.931,270.797 			"/>
			<path d="M134.431,260.393c0.925,0.84,1.817,1.711,2.719,2.572c0.905,0.858,1.788,1.738,2.675,2.615l0.19,0.189l-0.127,0.273
				c-1.299,2.792-2.634,5.564-4.01,8.318l-0.235,0.472l-0.508-0.173c-3.144-1.072-6.276-2.174-9.391-3.329l-0.767-0.284l0.515-0.609
				c1.441-1.713,2.908-3.405,4.395-5.084c0.739-0.843,1.492-1.672,2.253-2.496C132.897,262.029,133.65,261.199,134.431,260.393z
				 M134.431,260.393c-0.636,0.926-1.299,1.83-1.959,2.736c-0.655,0.91-1.319,1.812-1.997,2.705
				c-1.348,1.791-2.715,3.564-4.104,5.32l-0.251-0.894c3.154,1.038,6.292,2.13,9.419,3.251l-0.743,0.299
				c1.417-2.732,2.874-5.443,4.367-8.138l0.063,0.464c-0.812-0.945-1.628-1.889-2.42-2.853
				C136.009,262.325,135.204,261.374,134.431,260.393z"/>
		</g>
		<g>
			<polygon fill="#575656" points="157.571,271.682 165.796,267.23 170.741,273.92 158.138,277.453 			"/>
			<path d="M157.571,271.682c1.303-0.869,2.645-1.664,3.965-2.5c1.336-0.807,2.676-1.606,4.025-2.387l0.359-0.207l0.273,0.35
				c1.718,2.179,3.393,4.389,5.049,6.611l0.543,0.729l-0.877,0.242l-3.153,0.871c-1.051,0.293-2.105,0.572-3.162,0.842
				c-2.111,0.554-4.229,1.08-6.356,1.572l-0.437,0.101l-0.025-0.417c-0.058-0.965-0.09-1.934-0.124-2.901
				C157.614,273.62,157.578,272.652,157.571,271.682z M157.571,271.682c0.184,0.953,0.336,1.909,0.487,2.865
				c0.154,0.956,0.312,1.912,0.443,2.87l-0.462-0.315c2.072-0.686,4.155-1.336,6.246-1.961c1.044-0.32,2.09-0.63,3.14-0.926
				l3.146-0.896l-0.333,0.973c-1.64-2.236-3.262-4.484-4.841-6.766l0.634,0.141c-1.391,0.704-2.794,1.389-4.198,2.064
				C160.411,270.379,159.01,271.066,157.571,271.682z"/>
		</g>
		<g>
			<polygon fill="#575656" points="148.93,269.217 157.16,264.768 162.104,271.453 149.503,274.986 			"/>
			<path d="M148.93,269.217c1.303-0.869,2.646-1.665,3.966-2.5c1.337-0.807,2.678-1.605,4.028-2.386l0.359-0.207l0.273,0.349
				c1.717,2.178,3.393,4.387,5.048,6.609l0.543,0.729l-0.877,0.242l-3.152,0.872c-1.052,0.292-2.104,0.571-3.161,0.843
				c-2.11,0.553-4.229,1.078-6.355,1.569l-0.436,0.103l-0.026-0.416c-0.059-0.967-0.092-1.935-0.127-2.901
				C148.975,271.154,148.938,270.188,148.93,269.217z M148.93,269.217c0.184,0.953,0.337,1.909,0.49,2.865
				c0.155,0.955,0.313,1.911,0.446,2.869l-0.463-0.315c2.073-0.686,4.155-1.338,6.245-1.963c1.044-0.317,2.089-0.628,3.14-0.925
				l3.146-0.896l-0.333,0.973c-1.64-2.235-3.262-4.483-4.841-6.764l0.634,0.142c-1.392,0.704-2.795,1.388-4.201,2.063
				C151.771,267.915,150.371,268.604,148.93,269.217z"/>
		</g>
		<g>
			
				<linearGradient id="SVGID_23_" gradientUnits="userSpaceOnUse" x1="133.301" y1="-84.0288" x2="147.5579" y2="-84.0288" gradientTransform="matrix(0.984 -0.1784 -0.1784 -0.984 3.6394 197.2175)">
				<stop  offset="0" style="stop-color:#FFFFFF"/>
				<stop  offset="1" style="stop-color:#808284"/>
			</linearGradient>
			<polygon fill="url(#SVGID_23_)" points="158.64,247.588 163.733,253.052 159.543,261.282 150.138,257.992 			"/>
			<path d="M158.64,247.588c0.925,0.84,1.816,1.71,2.718,2.572c0.906,0.857,1.788,1.736,2.674,2.613l0.191,0.189l-0.127,0.273
				c-1.299,2.791-2.635,5.565-4.011,8.32l-0.235,0.471l-0.508-0.172c-3.144-1.072-6.276-2.174-9.391-3.33l-0.767-0.283l0.515-0.609
				c1.442-1.713,2.909-3.406,4.396-5.084c0.739-0.842,1.492-1.673,2.253-2.497C157.105,249.227,157.859,248.396,158.64,247.588z
				 M158.64,247.588c-0.636,0.928-1.299,1.83-1.959,2.737c-0.656,0.909-1.32,1.812-1.998,2.704c-1.349,1.791-2.716,3.564-4.105,5.32
				l-0.251-0.894c3.154,1.038,6.292,2.13,9.419,3.251l-0.743,0.298c1.417-2.731,2.874-5.444,4.368-8.139l0.063,0.463
				c-0.812-0.945-1.627-1.888-2.419-2.851C160.218,249.521,159.413,248.568,158.64,247.588z"/>
		</g>
		<g>
			<polygon fill="#575656" points="163.244,256.188 171.468,251.734 176.411,258.427 163.814,261.956 			"/>
			<path d="M163.244,256.188c1.302-0.869,2.644-1.666,3.963-2.502c1.336-0.807,2.676-1.605,4.024-2.387l0.36-0.208l0.274,0.351
				c1.717,2.179,3.391,4.391,5.046,6.613l0.543,0.73l-0.877,0.24l-3.152,0.871c-1.05,0.291-2.104,0.57-3.161,0.84
				c-2.108,0.554-4.227,1.078-6.353,1.568l-0.437,0.102l-0.024-0.415c-0.061-0.966-0.093-1.933-0.126-2.899
				C163.288,258.125,163.25,257.158,163.244,256.188z M163.244,256.188c0.183,0.953,0.336,1.908,0.487,2.863
				c0.155,0.956,0.313,1.911,0.444,2.868l-0.461-0.313c2.072-0.687,4.154-1.338,6.244-1.961c1.042-0.318,2.088-0.629,3.137-0.924
				l3.146-0.896l-0.334,0.972c-1.641-2.236-3.262-4.486-4.84-6.77l0.635,0.143c-1.392,0.705-2.793,1.389-4.199,2.066
				C166.083,254.886,164.683,255.574,163.244,256.188z"/>
		</g>
		<g>
			<polygon fill="#575656" points="181.778,258.873 190.003,254.426 194.948,261.115 182.345,264.645 			"/>
			<path d="M181.778,258.873c1.303-0.869,2.645-1.664,3.965-2.499c1.336-0.806,2.676-1.604,4.025-2.384l0.359-0.207l0.273,0.349
				c1.718,2.179,3.393,4.39,5.049,6.612l0.543,0.73l-0.877,0.24l-3.153,0.87c-1.051,0.293-2.105,0.571-3.163,0.841
				c-2.11,0.553-4.229,1.078-6.355,1.569l-0.437,0.101l-0.025-0.416c-0.058-0.966-0.09-1.935-0.124-2.902
				C181.821,260.812,181.785,259.844,181.778,258.873z M181.778,258.873c0.184,0.953,0.335,1.909,0.487,2.865
				c0.155,0.955,0.312,1.912,0.443,2.869l-0.462-0.314c2.072-0.686,4.155-1.336,6.247-1.96c1.043-0.319,2.089-0.628,3.139-0.924
				l3.146-0.896l-0.334,0.973c-1.64-2.236-3.262-4.485-4.841-6.768l0.634,0.143c-1.392,0.703-2.794,1.387-4.198,2.062
				C184.618,257.572,183.217,258.26,181.778,258.873z"/>
		</g>
		<g>
			
				<linearGradient id="SVGID_24_" gradientUnits="userSpaceOnUse" x1="56.0681" y1="6.0898" x2="76.0857" y2="6.0898" gradientTransform="matrix(0.8097 -0.5868 -0.5868 -0.8097 97.3036 310.9478)">
				<stop  offset="0" style="stop-color:#FFFFFF"/>
				<stop  offset="1" style="stop-color:#808284"/>
			</linearGradient>
			<polygon fill="url(#SVGID_24_)" points="146.558,258.177 154.717,260.512 153.202,272.471 140.91,275.572 			"/>
			<path d="M146.558,258.177c1.385,0.302,2.761,0.636,4.138,0.966c1.379,0.325,2.755,0.657,4.121,1.021l0.293,0.077l-0.03,0.318
				l-0.6,5.998l-0.679,5.989l-0.046,0.406l-0.406,0.104l-6.141,1.569l-6.156,1.511l-1.038,0.254l0.343-0.998
				c0.496-1.44,0.972-2.89,1.483-4.324l1.529-4.312c0.505-1.438,1.018-2.874,1.562-4.3
				C145.466,261.027,145.993,259.596,146.558,258.177z M146.558,258.177c-0.376,1.48-0.791,2.948-1.197,4.419
				c-0.396,1.473-0.825,2.938-1.263,4.397l-1.295,4.387c-0.429,1.463-0.896,2.914-1.341,4.372l-0.694-0.743l6.135-1.593l6.15-1.532
				l-0.451,0.511l0.837-5.97l0.917-5.959l0.262,0.396c-1.353-0.416-2.695-0.861-4.037-1.313
				C149.237,259.1,147.893,258.654,146.558,258.177z"/>
		</g>
		<g>
			<polygon fill="#575656" points="166.17,265.734 174.392,261.282 179.34,267.977 166.738,271.507 			"/>
			<path d="M166.17,265.734c1.301-0.868,2.643-1.666,3.962-2.5c1.335-0.808,2.674-1.607,4.022-2.389l0.359-0.207l0.275,0.35
				c1.719,2.18,3.394,4.392,5.052,6.615l0.543,0.729l-0.877,0.242l-3.153,0.87c-1.051,0.293-2.104,0.572-3.162,0.842
				c-2.11,0.553-4.229,1.078-6.355,1.568l-0.438,0.103l-0.024-0.417c-0.059-0.965-0.09-1.934-0.124-2.9
				C166.213,267.674,166.177,266.706,166.17,265.734z M166.17,265.734c0.183,0.953,0.335,1.91,0.487,2.865
				c0.153,0.957,0.312,1.912,0.442,2.87l-0.462-0.315c2.073-0.686,4.156-1.336,6.246-1.961c1.044-0.318,2.09-0.627,3.14-0.924
				l3.147-0.896l-0.334,0.972c-1.642-2.236-3.266-4.486-4.845-6.771l0.634,0.142c-1.392,0.704-2.792,1.389-4.197,2.066
				C169.009,264.434,167.61,265.12,166.17,265.734z"/>
		</g>
		<g>
			<polygon fill="#575656" points="164.203,271.311 172.425,266.855 177.37,273.547 164.769,277.08 			"/>
			<path d="M164.203,271.311c1.302-0.869,2.643-1.666,3.962-2.502c1.336-0.808,2.675-1.607,4.023-2.389l0.359-0.207l0.275,0.35
				c1.717,2.179,3.392,4.39,5.048,6.613l0.543,0.729l-0.877,0.241l-3.153,0.871c-1.051,0.293-2.104,0.572-3.161,0.842
				c-2.11,0.554-4.229,1.08-6.354,1.57l-0.438,0.103l-0.024-0.417c-0.059-0.965-0.09-1.934-0.123-2.9
				C164.246,273.248,164.209,272.281,164.203,271.311z M164.203,271.311c0.183,0.953,0.335,1.91,0.485,2.865
				c0.155,0.955,0.312,1.91,0.443,2.868l-0.462-0.313c2.073-0.688,4.155-1.338,6.245-1.963c1.044-0.319,2.089-0.629,3.139-0.926
				l3.146-0.896l-0.333,0.973c-1.641-2.236-3.263-4.486-4.842-6.77l0.635,0.143c-1.392,0.705-2.792,1.389-4.197,2.066
				C167.042,270.007,165.642,270.695,164.203,271.311z"/>
		</g>
		<g>
			
				<linearGradient id="SVGID_25_" gradientUnits="userSpaceOnUse" x1="142.1096" y1="-110.2339" x2="160.8499" y2="-110.2339" gradientTransform="matrix(0.984 -0.1784 -0.1784 -0.984 3.6394 197.2175)">
				<stop  offset="0" style="stop-color:#FFFFFF"/>
				<stop  offset="1" style="stop-color:#808284"/>
			</linearGradient>
			<polygon fill="url(#SVGID_25_)" points="174.897,269.979 181.465,276.35 175.817,286.261 163.55,282.59 			"/>
			<path d="M174.897,269.979c1.165,0.988,2.302,2.008,3.444,3.021c1.149,1.005,2.271,2.038,3.394,3.071l0.215,0.197l-0.146,0.271
				l-2.694,5.029l-2.764,4.99l-0.231,0.418l-0.47-0.137c-4.097-1.197-8.185-2.423-12.256-3.708l-0.855-0.271l0.598-0.653
				c1.908-2.087,3.875-4.119,5.819-6.173c0.969-1.031,1.953-2.047,2.951-3.051C172.892,271.979,173.881,270.967,174.897,269.979z
				 M174.897,269.979c-0.875,1.114-1.776,2.205-2.676,3.297c-0.894,1.1-1.799,2.186-2.722,3.257
				c-1.838,2.149-3.652,4.319-5.527,6.438l-0.259-0.925c4.105,1.162,8.196,2.386,12.277,3.634l-0.701,0.28l2.885-4.921l2.954-4.882
				l0.066,0.47c-1.066-1.09-2.135-2.182-3.175-3.298C176.975,272.218,175.921,271.114,174.897,269.979z"/>
		</g>
		<g>
			<polygon fill="#575656" points="173.483,281.617 181.705,277.166 186.651,283.855 174.05,287.387 			"/>
			<path d="M173.483,281.617c1.302-0.869,2.644-1.665,3.962-2.501c1.335-0.806,2.675-1.606,4.024-2.386l0.358-0.207l0.274,0.349
				c1.718,2.178,3.394,4.39,5.05,6.612l0.544,0.729l-0.878,0.242l-3.152,0.871c-1.051,0.292-2.104,0.57-3.161,0.841
				c-2.11,0.554-4.229,1.078-6.355,1.569l-0.437,0.102l-0.025-0.417c-0.058-0.965-0.09-1.933-0.124-2.899
				C173.526,283.555,173.49,282.588,173.483,281.617z M173.483,281.617c0.184,0.953,0.335,1.908,0.487,2.863
				c0.154,0.957,0.312,1.912,0.443,2.869l-0.462-0.314c2.072-0.686,4.154-1.337,6.244-1.961c1.045-0.319,2.091-0.629,3.14-0.926
				l3.146-0.895l-0.333,0.973c-1.641-2.236-3.263-4.485-4.843-6.767l0.634,0.142c-1.391,0.703-2.792,1.388-4.196,2.064
				C176.322,280.314,174.922,281.003,173.483,281.617z"/>
		</g>
		<g>
			
				<linearGradient id="SVGID_26_" gradientUnits="userSpaceOnUse" x1="155.4358" y1="-109.2856" x2="174.175" y2="-109.2856" gradientTransform="matrix(0.984 -0.1784 -0.1784 -0.984 3.6394 197.2175)">
				<stop  offset="0" style="stop-color:#FFFFFF"/>
				<stop  offset="1" style="stop-color:#808284"/>
			</linearGradient>
			<polygon fill="url(#SVGID_26_)" points="187.836,266.67 194.408,273.041 188.757,282.95 176.493,279.275 			"/>
			<path d="M187.836,266.67c1.166,0.989,2.302,2.01,3.445,3.021c1.149,1.006,2.272,2.037,3.396,3.072l0.214,0.195l-0.146,0.273
				l-2.695,5.028l-2.765,4.989l-0.232,0.418l-0.469-0.139c-4.098-1.198-8.185-2.426-12.254-3.711l-0.856-0.271l0.599-0.652
				c1.906-2.086,3.873-4.119,5.817-6.172c0.968-1.029,1.953-2.045,2.951-3.048C185.833,268.669,186.821,267.657,187.836,266.67z
				 M187.836,266.67c-0.875,1.113-1.777,2.203-2.676,3.296c-0.894,1.099-1.799,2.185-2.722,3.255
				c-1.837,2.148-3.65,4.318-5.524,6.436l-0.26-0.924c4.106,1.164,8.195,2.387,12.275,3.638l-0.7,0.28l2.886-4.92l2.954-4.881
				l0.067,0.471c-1.068-1.09-2.136-2.182-3.176-3.299C189.916,268.908,188.861,267.805,187.836,266.67z"/>
		</g>
		<g>
			
				<linearGradient id="SVGID_27_" gradientUnits="userSpaceOnUse" x1="137.0042" y1="-87.3936" x2="155.7454" y2="-87.3936" gradientTransform="matrix(0.984 -0.1784 -0.1784 -0.984 3.6394 197.2175)">
				<stop  offset="0" style="stop-color:#FFFFFF"/>
				<stop  offset="1" style="stop-color:#808284"/>
			</linearGradient>
			<polygon fill="url(#SVGID_27_)" points="165.798,248.413 172.367,254.785 166.712,264.699 154.45,261.021 			"/>
			<path d="M165.798,248.413c1.165,0.989,2.301,2.009,3.444,3.021c1.148,1.006,2.271,2.039,3.394,3.072
				c0.128,0.118,0.155,0.307,0.076,0.452l-0.009,0.019l-2.697,5.03L167.24,265c-0.14,0.249-0.43,0.359-0.69,0.283l-0.011-0.004
				c-4.097-1.199-8.184-2.428-12.252-3.713l-0.014-0.004c-0.297-0.095-0.462-0.412-0.367-0.709c0.024-0.08,0.068-0.152,0.121-0.211
				c1.908-2.088,3.876-4.119,5.82-6.174c0.969-1.029,1.954-2.045,2.953-3.049C163.793,250.412,164.783,249.4,165.798,248.413z
				 M165.798,248.413c-0.876,1.114-1.778,2.204-2.677,3.297c-0.894,1.099-1.8,2.185-2.723,3.256
				c-1.839,2.149-3.652,4.319-5.527,6.437l-0.26-0.924c4.105,1.166,8.194,2.39,12.273,3.641l-0.7,0.279l2.887-4.922l2.957-4.883
				l0.067,0.471c-1.068-1.09-2.135-2.183-3.175-3.301C167.876,250.652,166.823,249.548,165.798,248.413z"/>
		</g>
		<g>
			
				<linearGradient id="SVGID_28_" gradientUnits="userSpaceOnUse" x1="84.97" y1="-9.0171" x2="105.093" y2="-9.0171" gradientTransform="matrix(0.7924 -0.61 -0.61 -0.7924 105.708 316.3373)">
				<stop  offset="0" style="stop-color:#FFFFFF"/>
				<stop  offset="1" style="stop-color:#808284"/>
			</linearGradient>
			<polygon fill="url(#SVGID_28_)" points="185.625,256.479 193.835,258.532 192.605,270.54 180.4,274.068 			"/>
			<path d="M185.625,256.479c1.391,0.254,2.771,0.539,4.154,0.823c1.386,0.278,2.769,0.562,4.144,0.878l0.298,0.067l-0.024,0.321
				l-0.455,6.021l-0.535,6.013l-0.035,0.401l-0.397,0.116l-6.098,1.783l-6.114,1.725l-1.039,0.293l0.321-1.018
				c0.46-1.459,0.899-2.924,1.378-4.377l1.424-4.361c0.472-1.455,0.948-2.908,1.457-4.354
				C184.603,259.366,185.094,257.917,185.625,256.479z M185.625,256.479c-0.34,1.494-0.719,2.978-1.09,4.463
				c-0.361,1.486-0.756,2.966-1.155,4.441l-1.188,4.434c-0.394,1.478-0.823,2.945-1.233,4.418l-0.719-0.725l6.091-1.806l6.106-1.745
				l-0.433,0.52l0.695-5.996l0.773-5.987l0.273,0.39c-1.361-0.369-2.717-0.771-4.068-1.176
				C188.326,257.309,186.972,256.91,185.625,256.479z"/>
		</g>
	</g>
</g>
</svg>
