<?xml version="1.0" standalone="no"?>
<!DOCTYPE svg PUBLIC "-//W3C//DTD SVG 1.1//EN" "http://www.w3.org/Graphics/SVG/1.1/DTD/svg11.dtd">
<svg version="1.1" xmlns="http://www.w3.org/2000/svg" xmlns:xlink="http://www.w3.org/1999/xlink" x="0px" y="0px" width="1152px"
	 height="72px" viewBox="0 0 1152 72" enable-background="new 0 0 1152 72" xml:space="preserve" preserveAspectRatio="none">
<g id="Layer_2">
	<rect x="0.915" stroke="#231F20" stroke-miterlimit="10" width="1150.375" height="71.166"/>
</g>
<g id="Layer_1">
	<path fill="#231F20" d="M1149.45,0l0.06,2.599c0.83-0.016,1.66-0.034,2.49-0.049L1149.45,0z"/>
	<path fill="#231F20" d="M3.489,68.444c-0.05,0.05-0.101,0.1-0.15,0.149l0.148,0.002L3.489,68.444z"/>
	<polygon fill="#231F20" points="0,4.38 4.322,4.441 4.38,0 	"/>
	<g>
		<path fill="#231F20" d="M1.962,70.343c23.74-0.754,47.479-1.317,71.219-1.885l36.052-0.739l18.026-0.366l18.026-0.297
			c24.034-0.379,48.069-0.833,72.104-1.12l72.104-0.834l72.104-0.59l72.104-0.389l72.104-0.156l36.052,0.05l36.052,0.177
			c24.034,0.143,48.068,0.407,72.104,0.742l36.052,0.491l36.052,0.585l72.104,1.181c24.034,0.312,48.069,0.727,72.104,0.953
			c48.069,0.517,96.138,0.688,144.207,0.587l36.053-0.111l36.052-0.234l36.051-0.271l32.561-0.354l0.044,3.404l1.711-1.708
			c1.469,1.636,2.812,3.371,3.961,5.175l-2.225-0.024l-36.052-0.393l-36.051-0.271l-36.052-0.234L1010.53,73.6
			c-48.069-0.101-96.138,0.07-144.207,0.587c-24.035,0.227-48.07,0.642-72.104,0.953l-72.104,1.181l-36.052,0.585l-36.052,0.491
			c-24.035,0.335-48.069,0.6-72.104,0.742l-36.052,0.177l-36.052,0.05L433.7,78.209l-72.104-0.389l-72.104-0.59l-72.104-0.834
			c-24.035-0.287-48.069-0.741-72.104-1.12l-18.026-0.297l-18.026-0.366l-36.052-0.739c-24.034-0.575-48.069-1.141-72.104-1.908
			l-0.162-0.005C1.287,71.438,1.634,70.897,1.962,70.343z"/>
		<path fill="#231F20" d="M0,68.558l3.339,0.036c0.05-0.05,0.1-0.1,0.15-0.149L4.322,4.441L0,4.38L4.38,0L4.322,4.441L72,5.396
			c24,0.349,48,0.685,72,0.924l36,0.386l36,0.274l72,0.475l144,0.779l72,0.293l72,0.06l72-0.155l72-0.354l72-0.543
			c24-0.217,48-0.334,72-0.634L936,6.1l72-0.992c24-0.306,48-0.774,72-1.17c23.17-0.363,46.34-0.89,69.51-1.338L1149.45,0l2.55,2.55
			c-0.83,0.016-1.66,0.033-2.49,0.049L1150.271,36l0.908,35.179c-0.021-0.001-0.041-0.001-0.062-0.002
			c0.327,0.555,0.674,1.095,1.045,1.618l0.618-0.02L1153.729,36l0.82-36l0.057-2.5L1152-2.55c-24-0.458-48-1.011-72-1.388
			c-24-0.396-48-0.864-72-1.17L936-6.1l-72-0.802c-24-0.299-48-0.417-72-0.634l-72-0.543l-72-0.354l-72-0.155l-72,0.06l-72,0.293
			L288-7.455L216-6.98l-36,0.274L144-6.32c-24,0.24-48,0.576-72,0.924L0-4.38l-4.436,0.062L-4.38,0l0.937,72l0.045,3.479
			l1.177-0.013c1.147-1.804,2.488-3.539,3.955-5.175L0,68.558z"/>
	</g>
	<path fill="#231F20" d="M3.487,68.596l-0.148-0.002c-0.549,0.553-1.085,1.118-1.604,1.698L3.443,72L3.487,68.596z"/>
	<path fill="#231F20" d="M3.339,68.594L0,68.558l1.734,1.734C2.254,69.712,2.79,69.146,3.339,68.594z"/>
	<g>
	</g>
	<g>
	</g>
	<g>
	</g>
	<g>
	</g>
	<g>
	</g>
	<g>
	</g>
</g>
</svg>
