<?xml version="1.0" standalone="no"?>
<!DOCTYPE svg PUBLIC "-//W3C//DTD SVG 1.1//EN" "http://www.w3.org/Graphics/SVG/1.1/DTD/svg11.dtd">
<svg version="1.1" id="Layer_1" xmlns="http://www.w3.org/2000/svg" xmlns:xlink="http://www.w3.org/1999/xlink" x="0px" y="0px"
	 width="576px" height="576px" viewBox="0 0 576 576" enable-background="new 0 0 576 576" xml:space="preserve">
<g>
	<path d="M518.5,535.005c-9.823,2.571-19.646,4.696-29.469,6.759c-9.823,2.03-19.646,3.887-29.47,5.63
		c-9.823,1.755-19.646,3.36-29.469,4.882c-4.912,0.754-9.823,1.506-14.734,2.199c-4.912,0.726-9.823,1.396-14.735,2.06
		c-19.646,2.654-39.292,4.949-58.938,6.941c-4.912,0.524-9.823,0.97-14.735,1.438c-4.911,0.479-9.822,0.916-14.734,1.329
		c-9.823,0.878-19.646,1.615-29.469,2.357l-14.735,1.021l-14.734,0.912c-4.912,0.314-9.823,0.578-14.735,0.826
		c-4.911,0.245-9.823,0.537-14.734,0.745c-9.823,0.432-19.646,0.875-29.469,1.184c-9.823,0.361-19.646,0.641-29.469,0.863
		c-9.823,0.219-19.646,0.4-29.469,0.497c-9.823,0.089-19.646,0.04-29.469-0.153c-9.823-0.193-19.646-0.544-29.469-1.032
		c-9.823-0.471-19.646-1.146-29.469-1.907l-44.507-3.452l3.006-38.05c0.783-9.91,1.704-19.819,2.741-29.729
		c1.054-9.909,2.17-19.819,3.441-29.729l1.882-14.864l1.977-14.864l3.989-29.729c1.273-9.91,2.613-19.819,3.797-29.729
		c1.187-9.91,2.323-19.819,3.3-29.729c1.021-9.909,1.846-19.819,2.622-29.729c0.705-9.91,1.352-19.82,1.793-29.729
		c0.463-9.91,0.769-19.82,0.942-29.729c0.183-9.91,0.184-19.819,0.115-29.729c-0.015-4.955-0.125-9.91-0.183-14.864l-0.335-14.865
		c-0.311-9.91-0.666-19.819-1.18-29.729c-0.475-9.91-1.117-19.819-1.809-29.729c-0.725-9.91-1.516-19.82-2.435-29.729
		c-0.882-9.91-1.91-19.819-2.967-29.729c-1.008-9.91-2.192-19.82-3.292-29.729L17.267,30.75l29.727-3.468l29.469-3.438l29.469-3.376
		c9.823-1.121,19.646-2.104,29.469-3.149c9.823-0.971,19.646-1.923,29.469-2.75c9.823-0.859,19.646-1.603,29.469-2.304l14.735-0.968
		l14.734-0.837l58.938-2.812l58.938-2.778l29.469-1.263c9.823-0.417,19.646-0.751,29.469-1.089
		c9.823-0.316,19.646-0.587,29.47-0.822c9.823-0.23,19.646-0.374,29.469-0.48c19.646-0.187,39.292-0.133,58.938,0.21l53.762,0.937
		l-0.801,52.023c-0.153,9.91-0.407,19.82-0.683,29.729c-0.298,9.91-0.639,19.819-1.043,29.729c-0.403,9.91-0.845,19.82-1.35,29.729
		c-0.472,9.91-1.074,19.819-1.606,29.729c-0.623,9.91-1.176,19.82-1.872,29.729l-1.012,14.865l-1.101,14.864
		c-0.74,9.91-1.545,19.82-2.378,29.729l-1.283,14.865l-1.373,14.865l-1.439,14.864c-0.478,4.955-0.984,9.91-1.511,14.865
		c-1.02,9.909-2.121,19.819-3.251,29.729c-2.274,19.82-4.769,39.64-7.524,59.459c-1.381,9.909-2.81,19.819-4.334,29.729
		l-2.325,14.864l-2.472,14.864c-0.798,4.955-1.72,9.91-2.59,14.865c-0.858,4.955-1.793,9.909-2.737,14.864
		c-1.878,9.91-3.857,19.819-6.127,29.729l-0.89,3.888L518.5,535.005z M512.216,523.582c-1.686-7.76-3.323-15.497-4.793-23.257
		c-0.944-4.955-1.879-9.909-2.737-14.864c-0.87-4.955-1.792-9.91-2.59-14.865l-2.472-14.864l-2.325-14.864
		c-1.524-9.91-2.953-19.82-4.334-29.729c-2.756-19.819-5.25-39.639-7.524-59.459c-1.13-9.909-2.231-19.819-3.251-29.729
		c-0.526-4.955-1.033-9.91-1.511-14.865l-1.439-14.864l-1.373-14.865l-1.283-14.865c-0.833-9.91-1.638-19.819-2.378-29.729
		l-1.101-14.864l-1.012-14.865c-0.696-9.91-1.249-19.819-1.872-29.729c-0.532-9.91-1.135-19.819-1.606-29.729
		c-0.505-9.91-0.946-19.82-1.35-29.729c-0.404-9.91-0.745-19.819-1.043-29.729c-0.275-9.91-0.529-19.82-0.683-29.729l52.961,52.96
		c-19.646,0.343-39.292,0.396-58.938,0.21c-9.823-0.106-19.646-0.25-29.469-0.48c-9.823-0.235-19.646-0.506-29.47-0.822
		c-9.822-0.338-19.646-0.672-29.469-1.089l-29.469-1.263l-58.938-2.778l-58.938-2.812l-14.734-0.837l-14.735-0.968
		c-9.823-0.701-19.646-1.445-29.469-2.304c-9.823-0.828-19.646-1.779-29.469-2.75c-9.823-1.045-19.646-2.028-29.469-3.149
		l-29.469-3.376L46.994,81.49l27.104-27.104c-1.1,9.91-2.285,19.82-3.292,29.729c-1.057,9.91-2.085,19.819-2.967,29.729
		c-0.918,9.91-1.71,19.82-2.435,29.729c-0.691,9.91-1.334,19.819-1.809,29.729c-0.514,9.91-0.869,19.82-1.18,29.729l-0.335,14.865
		c-0.058,4.955-0.168,9.91-0.183,14.864c-0.068,9.91-0.068,19.82,0.115,29.729c0.173,9.91,0.479,19.819,0.942,29.729
		c0.442,9.909,1.089,19.819,1.793,29.729c0.775,9.909,1.601,19.819,2.622,29.729c0.977,9.91,2.113,19.819,3.3,29.729
		c1.185,9.91,2.524,19.819,3.797,29.729l3.989,29.729l1.977,14.864l1.882,14.864c1.271,9.91,2.387,19.82,3.441,29.729
		c1.037,9.91,1.958,19.819,2.741,29.729l-41.501-41.502c9.823-0.762,19.646-1.437,29.469-1.907
		c9.823-0.488,19.646-0.839,29.469-1.032c9.823-0.193,19.646-0.242,29.469-0.153c9.823,0.097,19.646,0.278,29.469,0.497
		c9.823,0.223,19.646,0.502,29.469,0.863c9.823,0.309,19.646,0.752,29.469,1.184c4.912,0.208,9.823,0.5,14.734,0.745
		c4.912,0.248,9.823,0.512,14.735,0.826l14.734,0.912l14.735,1.021c9.823,0.742,19.646,1.479,29.469,2.357
		c4.912,0.413,9.823,0.85,14.734,1.329c4.912,0.469,9.823,0.914,14.735,1.438c19.646,1.992,39.292,4.287,58.938,6.941
		c4.912,0.664,9.823,1.334,14.735,2.06c4.911,0.693,9.822,1.445,14.734,2.199c9.823,1.521,19.646,3.127,29.469,4.882
		c9.823,1.743,19.646,3.6,29.47,5.63C496.764,519.97,504.482,521.693,512.216,523.582z"/>
</g>
<g>
	<g>
		<line fill="#CC0000" x1="122.486" y1="290.352" x2="288.144" y2="431.15"/>
		<g>
			<g>
				<g>
					<g>
						<path fill="#D22020" d="M275.552,445.966c1.713-1.84,5.361-6.231,4.391-5.576l-6.446,7.238L275.552,445.966z"/>
						<path fill="#D22020" d="M285.534,430.945c-3.323,3.338-8.981,9.335-14.547,16.254c6.296-6.842,3.851-3.826,11.333-12.019
							c0.952-0.633-1.604,2.737-3.956,5.422c1.693-1.82-0.994,1.927,3.072-2.596c4.53-5.964,4.328-6.529-0.088-2.173
							C282.636,434.139,284.358,432.287,285.534,430.945z"/>
						<path fill="#D22020" d="M271.811,399.484l-0.588,0.999C271.588,399.97,271.767,399.653,271.811,399.484z"/>
						<path fill="#D22020" d="M260.693,383.068c0.259-0.08,0.933-0.78,1.503-1.438C261.677,382.031,261.213,382.405,260.693,383.068
							z"/>
						<path fill="#D22020" d="M265.112,372.833c-0.141,0.273-0.188,0.421-0.279,0.625
							C265.359,372.726,265.617,372.308,265.112,372.833z"/>
						<path fill="#D22020" d="M271.811,399.484l1.58-2.646C271.32,399.218,272.074,398.791,271.811,399.484z"/>
						<path fill="#D22020" d="M267.184,445.971c0.386-0.29,1.036-0.917,1.865-1.767c-0.344,0.269-0.63,0.475-0.864,0.614
							C267.845,445.21,267.553,445.546,267.184,445.971z"/>
						<path fill="#D22020" d="M283.319,398.946l0.118,0.101c0.839-0.924,1.713-1.887,2.64-2.906L283.319,398.946z"/>
						<path fill="#D22020" d="M289.195,402.012c0.11-0.355-5.242,5.864-7.604,8.558c2.244-2.513,3.38-3.683,3.884-4.078
							C286.493,405.297,287.689,403.859,289.195,402.012z"/>
						<path fill="#D22020" d="M287.632,419.675l0.878-0.752C288.252,419.153,287.97,419.362,287.632,419.675z"/>
						<path fill="#D22020" d="M280.932,394.613c0.786-0.942,1.453-1.762,1.859-2.278
							C282.125,393.118,281.505,393.884,280.932,394.613z"/>
						<path fill="#D22020" d="M103.218,324.59c0.391-0.461,0.617-0.727,0.942-1.109C103.595,324.087,103.208,324.525,103.218,324.59
							z"/>
						<path fill="#D22020" d="M123.859,288.737l0.366-0.27c1.024-1.193,2.018-2.351,2.993-3.487L123.859,288.737z"/>
						<path fill="#D22020" d="M267.375,360.953c-0.047,0.073-0.043,0.075-0.072,0.126
							C268.023,360.475,267.854,360.536,267.375,360.953z"/>
						<path fill="#D22020" d="M221.704,330.077c-4.277,5.991-6.87,6.522-11.444,13.348
							C212.273,340.922,219.207,334.21,221.704,330.077z"/>
						<path fill="#D22020" d="M267.758,445.036c-0.131,0.02-0.245,0.017-0.257-0.106
							C267.417,445.214,267.498,445.245,267.758,445.036z"/>
						<path fill="#D22020" d="M210.26,343.425c-0.019,0.021-0.046,0.054-0.046,0.054l-0.425,0.65
							C209.982,343.839,210.094,343.673,210.26,343.425z"/>
						<path fill="#D22020" d="M253.707,355.798c-0.921,1.128-1.591,2-2.231,2.842C252.026,357.984,252.668,357.181,253.707,355.798z
							"/>
						<path fill="#D22020" d="M253.945,371.339l0.509-0.99C254.05,370.979,253.945,371.228,253.945,371.339z"/>
						<path fill="#D22020" d="M242.14,361.193c0.302-0.567,1.005-1.468,0.141-0.742c-0.203,0.269-0.377,0.5-0.604,0.799
							C242.459,360.435,242.87,360.091,242.14,361.193z"/>
						<path fill="#D22020" d="M237.902,357.629c-0.319,0.426-0.671,0.895-1.013,1.35c0.153-0.095,0.294-0.162,0.43-0.234
							L237.902,357.629z"/>
						<path fill="#D22020" d="M118.6,332.476c1.405-1.84,3.011-3.847,4.593-5.798C119.468,331.191,117.499,332.252,118.6,332.476z"
							/>
						<path fill="#D22020" d="M270.167,442.457c-1.355,1.545-2.057,2.297-2.408,2.579c0.104-0.024,0.261-0.115,0.427-0.218
							C268.983,443.904,269.734,443.025,270.167,442.457z"/>
						<path fill="#D22020" d="M199.99,410.437l0.125-1.505C199.785,409.7,199.751,410.233,199.99,410.437z"/>
						<path fill="#D22020" d="M149.625,357.31l-0.792,0.62C148.773,358.121,148.985,357.982,149.625,357.31z"/>
						<path fill="#D22020" d="M197.331,408.176c1.766-2.319,2.73-3.71,3.301-4.648c-0.435,0.455-0.808,0.83-1.446,1.543
							L197.331,408.176z"/>
						<path fill="#D22020" d="M123.237,326.622c-0.03,0.037-0.045,0.056-0.045,0.056S123.208,326.659,123.237,326.622z"/>
						<path fill="#D22020" d="M106.188,337.733c0.481,0.729,7.158-7.813,11.295-12.406c2.75-1.69-4.804,6.367-8.112,10.785
							c2.324-1.771,9.113-9.017,9.19-8.389c-1.12,1.37-1.476,1.93-2.998,3.557c6.058-6.107,1.771,0.943,9.335-6.768
							c-0.576,0.766-1.136,1.469-1.661,2.109c3.417-4.213,6.97-8.423,9.503-11.364c0.416,0.092,4.949-4.746,0.491,0.718
							c-0.037-0.312-1.899,1.85-3.415,3.466l2.296-2.094c-6.31,7.972-2.683,2.326-7.544,8.046c2.711-2.003,8.836-7.828,7.427-5.262
							c-6.33,7.637-3.211,1.653-8.324,8.882l1.755-3.471c-9.608,12.379,0.29-1.196-10.073,11.983
							c-0.954,2.973,4.302-2.992,3.337-0.011c3.772-4.022,5.219-6.277,8.991-10.301c7.717-6.457-15.146,19.885-5.627,10.613
							c4.525-4.825,12.754-14.312,9.134-8.681l-7.504,8.361c0.172,1.589,10.958-11.869,6.994-5.331
							c-3.011,3.21-3.106,2.248-3.833,3.373c-5.14,7.263,4.537-4.479,4.998-4.087l-6.337,7.649c1.958-0.396,7.643-4.984,9.868-5.491
							c-1.989,2.224-4.173,4.432-5.898,6.955c4.54-2.678,2.011,3.32-0.529,8.878l6.03-6.113c0.057,0.161-2.296,3.125-3.499,4.293
							c-1.604,2.889,3.556-4.132,5.975-6.496c0.669-0.218-2.826,4.078-4.668,5.884c5.585-4.805,12.631-9.828,7.598-2.045
							l-1.824,1.783c-1.54,3.261,12.193-12.711,7.672-6.047l-1.097,1.034c-0.869,4.168,5.948-0.376-1.269,10.516
							c8.229-9.226-2.031,5.503,9.225-7.537c-4.641,7.256-6.891,9.39-9.357,14.822c-0.184,0.892,7.465-7.777,9.042-8.797
							l-5.831,6.881l6.687-6.733l-6.68,8.463l1.884-1.433c0.197-0.545,2.297-3.367,4.002-5.326c3.238-2.586-2.594,6.036-5.573,9.572
							l6.364-4.593c-2.379,2.735-3.422,3.478-5.109,5.079c6.715-6.354-6.007,7.349,0.145,1.527c1.237-1.646,3.525-4.046,4.725-5.424
							c-3.182,4.449-2.417,5.156-0.342,3.904l-4.143,4.646c0.043,2.097,4.175-0.385,5.291,0.713
							c1.449-2.569,8.507-10.675,9.53-11.172l-6.025,7.372c4.033-4.289,1.965-3.05,7.085-8.138
							c-0.258,1.204-6.707,8.496-8.967,10.639l2.684-2.063c-1.816,2.202-2.914,3.236-5.294,5.97
							c4.048-4.313-5.259,8.078,1.715,0.521l-1.791,2.168c1.125,1.087,3.79-0.955,5.063-0.491c5.342-6.247,4.538-4.533,9.125-9.345
							c-0.979,2.596-4.367,8.182-3.065,8.389c3.264-2.619,4.677-5.146,8.108-8.634c-4.789,5.725-3.479,5.92-7.408,9.642
							c1.815-0.05,2.285-0.024,7.533-3.562c1.828-2.436,2.538-3.593,4.265-5.459c1.041-0.745-1.496,2.85-3.858,5.561l-0.562,0.534
							c8.726-7.305-10.758,19.493,0.516,8.586l-0.574,0.543l6.484-5.184c-0.276,1.45-3.983,4.012-6.567,7.885
							c9.379-8.397,0.874,3.14,7.352-2.311c-13.486,17.549,3.942,1.328-4.06,13.013l3.291-4.002c3.589-3.636-1.582,2.57-2.135,3.654
							c2.585-3.104,2.708-3.823,4.736-5.845c6.5-2.679,0.126,10.108-0.401,15.822c0.023,1.836,17.962-20.075,11.071-9.619
							l-6.586,7.082c9.351-7.242,3.536,3.529,11.71-2.408c-1.541,1.594-3.42,3.798-3.579,3.626
							c-4.164,5.676,1.197,1.467,4.919-2.899c-0.143,0.741-3.299,4.014-5.01,6.381c-2.295,3.48,6.77-6.008,2.455-0.517
							c-0.695,0.889-1.578,1.637-2,1.99c2.451-2.375,0.605,1.656,5.605-4.714c-1.804,3.505,3.633-1.631,1.072,2.484
							c6.223-6.604-1.643,4.298,6.751-5.35c-8.607,10.027-5.718,9.149-1.248,4.764c-2.741,2.934-2.306,3.473-6.069,7.559
							c0.621,0.266,2.662-1.221,6.975-6.47c-9.343,12.829,10.065-8.151-2.557,7.734c6.064-4.174,10.531-6.688,13.851-7.931
							c-8.587,10.007-2.303-0.234-11.212,10.36c4.769-3.083,12.808-11.083,11.992-7.618c-0.844,1.642-3.888,4.206-5.456,5.832
							c4.776-3.095,1.633,2.961,7.39-1.566c-0.798,0.933-1.787,1.853-2.546,2.518c0.496-0.141-0.749,1.911,3.108-2.677l-1.266,1.059
							c5.289-6.93,12.632-13.105,15.647-16.573c-11.489,12.766-1.696,4.214-16.342,20.253c0.874-0.737,2.894-2.747,5.458-5.831
							c-0.544,1.073-1.992,2.914-5.157,6.198c2.89-1.813,6.743-6.91,7.36-6.199c-1.879,2.205-2.752,2.942-5.034,5.479
							c4.019-4.001,8.049-8.012,7.058-5.632c-1.173,1.307-2.573,3.095-2.724,2.91c1.611,0.189,11.514-9.992,9.093-4.857
							c-8.475,9.297-2.296,3.48-9.288,11.828l2.705-1.953l3.185-4.241c0.412,0.594,6.021-5.053,4.167-1.946l-3.307,3.09l2.336-0.729
							l2.117-3.633c4.179-3.827,8.898-10.586,7.637-7.668c-0.883,0.747,0.43,0.571-3.461,5.711c0,0-0.002-0.002-0.011,0.01
							c2.509-2.419,5.146-4.973,3.783-2.572c-2.153,2.739-7.892,9.118-9.323,10.937c6.175-6.739,2.881-0.866,9.495-7.981
							c-1.579,1.636-5.3,6.002-6.013,6.914l5.015-5.459c-1.297,2.025-2,2.926-4.998,6.372c-0.137,1.662,8.729-10.748,5.746-5.455
							c-0.457,0.397-1.145,1.273-2.01,2c-1.131,3.121,4.747-2.127,3.202,1.335c-6.877,8.576-2.456,1.453-8.18,8.743
							c2.464-0.528,10.954-7.978,10.404-5.036l0.574-1.104c10.194-11.676-4.11,6.545,1.194,1.465
							c-0.889,0.761-5.766,6.411-4.601,5.116c-0.842,2.562,4.044-1.545,8.379-4.265l-2.724,2.91
							c-1.844,3.096-0.118,2.578-0.789,4.367c2.707-2.888,2.573-2.158,6.154-6.719c-13.173,18.583,10.778-6.797-0.108,8.748
							c-0.189-0.104-2.63,2.315-2.53,2.457l3.535-1.827c4.271-5.21,2.493-3.238,5.661-7.456c2.733-2.921,5.073-5.016,5.358-4.773
							c-3.419,2.975-7.02,8.268-9.236,11.328c1.312-1.619,2.858-3.283,4.198-4.897c-7.181,9.667,8.899-10.267,4.479-3.403
							l-2.327,2.648c1.481-1.12,4.786-4.436,4.461-3.382c-4.909,6.054-2.693,2.506-6.873,7.382
							c0.761,0.047,10.502-10.497,5.886-4.213c-1.611,1.496-1.923,1.287-3.516,2.762c-5.475,7.37-3.906,5.632-4.518,7.042
							l0.096-0.181l-1.902,3.833l1.417-2.073c13.761-15.012,3.588-1.82,13.014-11.32c-8.941,8.976-4.858,5.46-10.656,12.163
							c-1.39,2.04-2.86,4.387-4.563,6.216c5-5.133-3.023,4.811,4.256-2.694c-1.816,2.185,0.221,0.544-4.493,5.921
							c1.933-1.298,3.093-3.87,5.454-6.565c7.045-6.785-5.907,10.487,3.812,1.217c4.489-3.414,10.888-10.599,14.83-13.504
							c-2.66,3.714-6.955,7.705-6.955,7.705c-2.252,3.592-1.402,3.303,1.152,1.186c-1.697,1.816-2.973,3.503-4.91,6.053
							c0.833-0.267,6.955-7.705,4.692-4.103c-2.131,2.346-5.523,6.13-7.754,8.411c2.106-1.638,5.963-5.346,8.056-6.938
							c-3.103,3.881-5.139,5.521-7.388,7.86c1.924-1.286,4.161-2.362,9.403-8.228l1.502-2.395c0.435-0.154-4.263,5.199-5.335,6.198
							c-4.406,4.346,1.168-2.584,3.003-4.79l1.479-1.121c10.518-13.011-2.966,1.001-2.934-0.284l8.122-9.035l-7.156,7.141
							c1.908-2.518,6.207-7.761,7.693-8.895c3.45-4.952-3.191,2.963,0.764-2.459c0.633-0.829,1.031-1.259,1.375-1.585l-2.769,2.385
							c1.739-1.875,5.492-6.607,4.62-5.045c3.764-5.996-7.145,5.877-1.484-1.373l0.554-0.521
							c-3.745,2.229-5.898,6.729-13.479,14.016l13.719-17.239l-5.891,6.718c0.102-0.345,0.317-1.042,2.668-3.726
							c-4.368,4.304-2.443,3.018-6.417,7.207c4.735-6.651-3.919,1.632,5.156-9.29c-4.572,4.992-2.882,4.425-6.51,7.54
							c9.745-11.795-2.35,1.431,1.702-4.322c5.27-5.897,3.014-2.309,7.092-8.094c-8.926,9.906,0.946-3.036-1.119-1.438
							c-6.896,8.073-3.768,2.622-6.74,4.723c2.354-2.682,2.492-5.562,4.328-9.021l1.165-1.332c-7.074,8.071-6.423,5.965-8.347,7.252
							c4.196-4.899,5.909-6.739,8.037-8.714l-0.48-0.353c-2.334,2.53-3.658,3.802-4.729,4.466l5.299-6.004
							c-0.889-0.175-7.341,6.178-4.642,1.431c-4.887,5.66-12.886,16.41-16.932,19.509c2.585-3.104,7.037-8.403,8.324-9.481
							c-0.413,0.342-2.432,2.353-1.446,0.905l4.727-4.897c1.587-2.583-3.863,4.171-3.739,3.453c3.749-4.399,2.462-3.32,5.469-6.776
							c0.433-0.363-1.307,2.036,0.28,0.388c0.347-1.053,2.18-3.99,4.881-7.426c-2.098,2.524-5.028,5.916-5.751,6.294
							c-0.871-0.197,4.295-5.471,5.866-8.031c-2.752,2.942-0.438-0.56-6.04,6.01c-0.149-0.183,2.425-3.276,3.873-5.117
							c-2.78,2.638-2.15-0.423-7.751,6.878l-0.317,0.536c-0.125,0.117-0.152,0.113-0.291,0.239c0.002,0.002,0,0,0.002,0.002
							l-0.002-0.002c-6.577,5.666,1.037-5.524-2.362-3.581l1.878-2.206c-2.759,2.02-2.624,0.355-7.076,4.718
							c-0.179-0.152,2.997-4.383,5.292-6.927c-1.868,1.259-4.018,3.684-1.608-0.506c3.737-3.454,2.741-3.551,2.871-2.411
							c1.025-2.425,3.874-6.053-1.883-0.589c5.007-5.445,5.573-7.475,3.854-6.032l-3.007,4.393c-1.015,0.542-0.871-0.196-0.75-0.918
							l6.458-7.284c6.431-10.062-15.26,13.456-3.36-2.444c-4.743,4.921-2.446,4.232-7.885,10.042
							c0.142-0.74,2.326-3.896,4.453-6.886c1.09-1.525,2.082-2.913,2.888-4.041c0.774-1.092,1.272-1.82,1.233-1.863
							c2.709-4.759-9.929,10.216-8.356,6.72c-2.133,2.72-8.023,9.85-10.756,11.835c0.265-1.46,8.721-11.672,10.881-13.488
							c0.33-0.113-0.316,0.78-1.089,1.678c1.005-0.812,2.207-1.739,4.413-4.79l-2.319,2.58c2.011-2.936,0.991-3.315,4.862-7.498
							c-2.572,2.158-3.871,4.183-4.718,5.822c2.526-4.445-1.043-1.073,0.399-4.286c-1.12,1.558-3.644,4.75-3.744,4.628
							c1.685-4.206-4.744,4.603-6.476,5.134c3.007-4.394,8.331-9.495,4.708-6.749c1.872-3.129,5.874-7.106,7.885-9.105
							c-5.016,4.521,1.573-4.432,1.979-5.698l2.17-1.826c-1.296,1.09-1.444,0.908-1.614,0.745l-4.277,5.447
							c0.575-1.103,0.405-1.266,2.276-3.459c-3.156,3.273-7.301,8.928-11.762,13.303c2.011-2.937-3.296,2.143,2.559-4.942
							c-1.14,3.133,5.891-7.13,7.601-7.625c-0.847,0.704-1.004,0.533-0.421-0.582c0.634-0.81,1.268-1.432,1.659-1.774
							c4.487-6.993-7.126,7.597-7.865,6.688c3.476-3.863,6.174-7.676,5.31-6.949c0.289,0.377-5.422,6.723-8.334,9.491
							c2.053-3.555-2.552,1.765-2.541,1.155l-0.893,1.732c-3.479,3.861-3.316,3.101-4.771,4.018
							c2.582-3.105,2.149-1.808,3.164-3.285c-6.341,6.578,5.135-8.034,0.545-3.863c2.001-2.925,6.294-7.461,7.591-9.486
							c-5.042,4.554,3.866-6.041-0.453-2.408c-4.304,5.481-3.168,4.218-8.071,8.967l4.354-2.742l-7.325,7.091
							c0.29,0.377,3.586-2.703,3.031-1.619c-4.029,4.011-2.883,2.737-6.465,7.297c6.299-8.395-4.899,3.814-0.894-2.034l11.2-13.143
							c4.147-6.589-7.228,5.468-5.514,1.231l-1.589,2.583c-4.602,5.116-1.305,0.165-3.452,1.973c3.767-4.364,4.895-6.141,7.072-9.01
							c-2.754,3.278-0.543-0.985-8.11,7.716l4.438-6.211c1.13-3.122-11.656,11.669-11.24,9.457
							c4.322-4.567,6.588-8.016,10.06-10.946c-0.247-0.285,0.182-1.307-2.419,1.745c2.182-2.902-5.815,5.247-2.527,0.85
							c-1.765,1.834-5.713,6.4-5.718,5.76c0.714-0.91,1.841-2.163,1.841-2.163c-1.841,2.163-3.013,2.534-6.866,7.631
							c10.79-14.466-3.284-1.087,5.955-13.499c-1.867,0.941-3.814,1.721-4.645,1.559c1.164-1.296,1.859-2.185,1.578-1.637
							c2.699-4.748-11.207,12.219-8.208,6.901c5.594-7.494,3.74-3.451,5.742-6.376c12.179-14.576-2.747,1.074,3.84-7.88l0.874-0.736
							c3.732-5.312-5.775,4.55-5.621,2.864c0,0,1.108-1.23,1.844-2.16c-6.773,6.941-9.804,8.562-12.264,10.01
							c5.037-5.477,2.875-2.726,7.628-8.593c-1.022,0.555-7.762,9.322-9.768,10.39c2.426-3.276,4.267-6.375,9.418-12.56l0.889,0.175
							c6.448-8.211-1.01-0.391-0.154-2.042l2.989-3.434c-1.875,0.335-9.328,9.078-9.784,7.604l-2.134,2.718
							c-7.908,8.206,3.686-5.258-2.326,0.721l7.304-8.926c-2.16,1.816-8.471,7.428-10.526,8.547
							c5.908-6.216,9.487-8.905,13.242-12.382c-0.299-0.366-1.75-0.383-5.623,3.799c0.864-0.727,2.874-2.727,1.869-1.258
							c-6.313,6.546-9.778,9.463-10.346,8.699c14.599-16.922,1.8-5.85,12.544-19.529c-6.61,5.245-0.197-4.793-2.512-5.02
							c-10.75,13.694-0.739,0.009-12.212,13.688c-1.088,0.593-1.032,0.266-0.314-0.641l5.886-9.008
							c3.129-4.176,2.873-2.727,5.439-5.809c0.145-1.676,4.587-6.028,7.182-10.078c-4.04,4.957-6.191,6.762-5.034,4.543l-4.737,6.78
							c-7.202,6.371,8.807-12.18,1.662-5.892l3.972-4.004c-2.681,2.067-1.897-1.78-11.721,8.712
							c1.236-1.646,4.281-5.483,5.349-6.261c0.113-2.732-12.745,9.208-8.021,1.63l2.925-3.245c-1.053,0.754-5.74,5.909-3.184,2.295
							c1.18-1.357,2.934-3.257,2.989-3.547c-1.115,1.056-5.608,5.311-4.271,3.094l3.45-3.51c2.455-5.424-9.674,7.491-12.665,8.883
							c8.33-9.795,10.062-13.829,10.92-15.834l1.191-1.366c-0.422-2.456-9.378,6.019-14,8.722
							c8.201-11.347,0.952-6.869,4.689-13.994c-1.319,1.969-6.54,7.627-7.602,8.391c1.357-2.236-6.668,6.076,1.016-2.863
							l-0.026,0.259c7.257-9.021,4.612-7.224,4.318-7.904l-10.084,11.694c13.212-18.231-8.816,3.332,3.483-12.604
							c-2.815,2.664-3.193,2.306-6.006,4.973l5.378-6.293c0.481-2.362,0.723-3.543-1.658-2.963l4.068-4.334
							c-0.285-0.917-16.242,17.528-17.136,17.425l7.832-9.562c-1.198-0.775,4.734-9.967-3.577-2.348
							c1.173-1.344,3.524-4.047,4.013-4.268c-0.295-0.682,3.453-8.041-7.333,5.023c7.131-8.417-0.419-1.762-4.153,1.451l5.368-6.132
							c-7.238,7.521-9.093,9.671-11.646,11.284c0.53-0.954,4.081-5.091,2.948-3.319c2.221-3.712-5.413,5.513-3.261,1.648l3.609-3.75
							c-0.151-0.952-1.918,1.217-6.153,5.577c-2.467,2.192,0.282-2.476,4.969-8.156c-2.986,3.361-7.183,7.68-6.134,5.78
							c1.758-2.158,2.996-3.373,3.601-3.963c2.653-5.012-7.514,6.031-2.979-0.604c1.733-2.066,2.561-3.124,3.043-3.8
							c0.612,0.781,0.913,1.637,0.478,2.035c4.861-5.72,5.123-7.24,12.309-14.729c-4.141,3.897-12.929,12.573-11.229,9.392
							c0.443-0.579,0.877-1.146,1.605-2.045l0.605-0.59c0.346-0.681-0.218-0.261-1.154,0.61c0.618-1.104,1.091-1.9,0.986-2.139
							c3.942-4.778,1.477-3.128,1.381-3.621c-5.299,6.284-4.839,4.952-8.863,10.428c0.332-0.486,0.694-0.702,1.114-0.795
							c0.202-0.146,0.329-0.188,0.672-0.533c-0.146,0.16-0.318,0.348-0.491,0.537c0.353-0.019,0.729,0.058,1.102,0.207
							c-2.944,2.985-5.455,5.44-2.836,1.69c-3.424,3.708-7.073,7.658-9.002,9.748c7.013-9.078,10.237-14.467,14.703-19.942
							c-3.896,2.738-4.115,0.492-14.669,11.749c-1.553,1.302,2.549-3.603,4.023-5.533c1.157-1.059,1.178-0.723,2.7-2.35
							c-3.087,2.583-2.532-0.13-9.625,7.964c2.489-4.252,6.781-7.234,4.738-6.648l2.265-2.42
							c9.391-14.625-20.697,18.537-8.328,0.021c-0.743,1.147-1.082,1.684-2.218,3.077c4.082-9.322-10.529,3.075-2.712-10.583
							c1.389-2.902-3.133,2.281-6.907,5.948l5.594-6.857l-7.261,7.22c-5.75,4.89,12.427-17.869,2.124-8.122l-3.703,4.663
							c0.309-1.217-3.598,1.531,0.89-3.607c-0.736,0.779-4.13,4.58-2.299,2.091l2.982-3.534l-6.154,5.145
							c1.371-3.236,11.993-13.855,11.405-15.535c-1.59,0.99-9.944,9.191-11.777,11.679c0.019,0.334-1.418,2.578-4.4,6.112
							l-1.959,1.5c-8.889,10.312-18.215,20.666-23.395,28.737l6.068-5.762l-4.06,5.221l-0.831-0.182
							c-3.687,4.995,0.068,0.995,2.739-1.68c-2.219,2.721-3.704,4.661-4.428,5.787l9.087-9.338
							c-3.367,4.125-7.148,7.803-8.604,10.424c4.231-4.345,7.436-9.356,10.523-11.939c-3.676,4.985-7.043,8.754-3.242,5.055
							c-2.21,2.71-3.743,4.349-4.892,5.395c3.066-2.919,2.055-0.595,6.916-5.959c-4.605,6.105,2.433-0.536-5.946,9.255
							c2.103-2.258,7.151-7.201,7.815-7.349c-10.562,11.27,0.577,1.689-10.285,14.164c9.405-10.211,5.518-3.401,11.247-8.627
							c-0.753,0.802-2.278,2.429-1.891,1.84c-0.318,1.228-2.904,4.518-4.334,6.748c7.475-8.686,9.822-10.118,14.75-15.201
							c-6.646,8.866-9.019,9.978-15.733,18.205c5.991-7.101,6.895-6.295,11.729-12.338c-4.033,5.544-1.804,2.812-7.756,10.227
							c9.348-10.858,1.948-1.547,7.959-7.957c-3.995,5.857-8.541,10.347-5.085,7.553
							C110.036,334.337,106.188,337.733,106.188,337.733z M137.141,331.547c-0.056,0.065-0.092,0.109-0.111,0.131
							c-0.239,0.021-0.46,0.059-0.604,0.086C136.564,331.731,136.765,331.677,137.141,331.547z M138.478,332.515
							c0.06-0.38-0.093-0.585-0.331-0.712c1.786-2.19,3.728-4.379,3.762-4.163C140.611,329.027,139.844,330.529,138.478,332.515z
							 M172.693,286.885c0.957-0.723-0.021,0.562-1.085,1.868c-0.186,0.029-0.471,0.143-0.984,0.456
							c-0.18,0.199-0.467,0.517-0.67,0.741C170.989,288.77,171.962,287.668,172.693,286.885z"/>
						<path fill="#D22020" d="M165.368,294.78c-0.148,0.117-0.386,0.365-0.47,0.388c-0.379,0.529-0.733,1.024-1.083,1.514
							c0.592-0.647,1.19-1.302,1.734-1.897C165.485,294.786,165.438,294.766,165.368,294.78z"/>
						<path fill="#D22020" d="M271.128,400.646l0.094-0.163c-0.2,0.279-0.383,0.536-0.702,0.938
							C270.841,401.013,270.908,400.928,271.128,400.646z"/>
						<polygon fill="#D22020" points="145.614,359.2 146.943,357.633 145.669,358.91 						"/>
						<path fill="#D22020" d="M259.771,428.002c-0.458,0.566-0.913,1.153-1.277,1.687
							C258.841,429.272,259.292,428.662,259.771,428.002z"/>
						<path fill="#D22020" d="M261.562,431.94l-1.482,2.599C260.978,433.111,261.363,432.39,261.562,431.94z"/>
						<path fill="#D22020" d="M261.211,436.999c1.08-1.229,1.71-1.945,2.318-2.637c0.017-0.023,0.027-0.037,0.042-0.059
							L261.211,436.999z"/>
						<path fill="#D22020" d="M218.502,413.359c-0.068,0.018-0.163,0.067-0.329,0.208
							C216.93,414.608,217.479,414.25,218.502,413.359z"/>
						<path fill="#D22020" d="M241.783,407.957c-1.085,1.043-2.142,2.056-2.854,2.65
							C238.698,411.271,238.746,411.519,241.783,407.957z"/>
						<path fill="#D22020" d="M199.98,410.597c0.041-0.046,0.038-0.043,0.085-0.097l-0.075-0.063L199.98,410.597z"/>
						<path fill="#D22020" d="M238.508,410.08c-0.87,1.415-0.486,1.291,0.421,0.527C239.113,410.07,239.472,409.27,238.508,410.08z"
							/>
						<path fill="#D22020" d="M268.738,448.285l-0.111,0.354c0.35-0.415,0.643-0.746,0.882-1.011L268.738,448.285z"/>
						<path fill="#D22020" d="M269.509,447.629l0.751-0.635C270.204,446.945,270.1,446.97,269.509,447.629z"/>
						<path fill="#D22020" d="M271.84,445.658l-1.58,1.336C270.322,447.103,270.266,447.392,271.84,445.658z"/>
						<path fill="#D22020" d="M268.161,442.812l-1.966,2.243C266.62,444.593,267.243,443.886,268.161,442.812z"/>
						<path fill="#D22020" d="M266.675,442.691c-0.214,0.698-3.561,5.309-2.043,4.145l1.563-1.78
							C263.185,448.304,270.137,439.041,266.675,442.691z"/>
						<path fill="#D22020" d="M286.678,411.354l-0.771,2.473c1.935-2.551,4.521-5.953,5.353-6.22
							C296.414,399.569,286.877,413.171,286.678,411.354z"/>
						<path fill="#D22020" d="M287.266,405.804c1.367-0.768,2.981-3.517,4.167-4.868
							C289.294,402.919,288.758,403.42,287.266,405.804z"/>
						<path fill="#D22020" d="M269.962,391.059l4.885-5.662C273.825,385.951,272.968,387.602,269.962,391.059z"/>
						<polygon fill="#D22020" points="241.624,417.691 238.94,421.479 243.507,416.407 						"/>
						<polygon fill="#D22020" points="274.159,375.447 274.983,374.762 272.711,376.352 						"/>
						<path fill="#D22020" d="M243.348,352.743l-5.864,7.096C238.763,358.772,245.508,350.928,243.348,352.743z"/>
						<path fill="#D22020" d="M224.707,349.224c2.848-3.629,4.408-6.18,1.27-2.929C225.843,347.024,223.814,349.981,224.707,349.224
							z"/>
						<polygon fill="#D22020" points="196.763,305.771 199.012,303.636 196.873,305.188 						"/>
					</g>
				</g>
			</g>
		</g>
	</g>
	<g>
		<line fill="#CC0000" x1="265.853" y1="415.565" x2="548.216" y2="-0.216"/>
		<g>
			<g>
				<g>
					<g>
						<path fill="#D22020" d="M564.301,10.708c-1.929-1.63-6.735-4.713-6.212-3.477l7.726,5.872L564.301,10.708z"/>
						<path fill="#D22020" d="M546.729,4.703c3.402,3.347,9.659,8.791,17.314,13.318c-7.209-5.921-3.883-3.911-12.542-10.896
							c-0.499-1.222,3.301,0.702,6.184,2.808c-1.91-1.608,2.384,0.25-2.425-3.491c-6.72-3.416-7.644-2.59-3.237,1.921
							C550.113,7.392,548.171,5.756,546.729,4.703z"/>
						<path fill="#D22020" d="M494.208,55.192l1.202,0.262C494.82,55.205,494.437,55.134,494.208,55.192z"/>
						<path fill="#D22020" d="M465.006,88.742c0-0.406-0.724-1.067-1.435-1.571C463.928,87.791,464.268,88.331,465.006,88.742z"/>
						<path fill="#D22020" d="M451.951,88.99c0.339,0.035,0.533,0.002,0.793,0.001C451.905,88.627,451.408,88.496,451.951,88.99z"/>
						<path fill="#D22020" d="M494.208,55.192l-3.178-0.732C493.593,56.3,493.307,55.275,494.208,55.192z"/>
						<path fill="#D22020" d="M560.51,25.942c-0.25-0.469-0.879-1.144-1.753-1.965c0.24,0.408,0.413,0.763,0.512,1.075
							C559.67,25.34,560.008,25.582,560.51,25.942z"/>
						<path fill="#D22020" d="M498.64,34.669l0.202-0.297c-0.851-0.705-1.893-1.532-3.08-2.451L498.64,34.669z"/>
						<path fill="#D22020" d="M505.817,21.484c-0.474,0.087,6.249,4.794,9.14,6.914c-2.679-2.05-3.885-3.17-4.237-3.769
							C509.424,23.743,507.853,22.729,505.817,21.484z"/>
						<path fill="#D22020" d="M531.098,10.016l-0.708-0.989C530.611,9.31,530.791,9.654,531.098,10.016z"/>
						<path fill="#D22020" d="M491.18,42.53c-1.029-0.669-1.933-1.218-2.508-1.539C489.521,41.568,490.366,42.077,491.18,42.53z"/>
						<path fill="#D22020" d="M307.488,422.905c-0.564-0.382-0.78-0.528-1.205-0.816
							C306.919,422.626,307.388,422.977,307.488,422.905z"/>
						<path fill="#D22020" d="M264.1,414.375l-0.231-0.447c-1.343-0.935-2.593-1.805-3.772-2.625L264.1,414.375z"/>
						<path fill="#D22020" d="M435.498,94.497c0.086,0.026,0.091,0.018,0.152,0.029C435.087,93.705,435.102,93.963,435.498,94.497z"
							/>
						<path fill="#D22020" d="M369.337,202.69c6.874,2.934,6.479,7.224,14.446,10.022
							C381.014,211.075,374.285,203.889,369.337,202.69z"/>
						<path fill="#D22020" d="M559.396,25.653c-0.03,0.223-0.087,0.433-0.273,0.555C559.503,26.13,559.585,25.958,559.396,25.653z"
							/>
						<path fill="#D22020" d="M383.783,212.712c0.023,0.016,0.06,0.041,0.06,0.041l0.763,0.249
							C384.266,212.882,384.073,212.814,383.783,212.712z"/>
						<path fill="#D22020" d="M421.709,123.565c1.241,0.764,2.221,1.276,3.169,1.76
							C424.164,124.853,423.272,124.337,421.709,123.565z"/>
						<path fill="#D22020" d="M444.685,110.537l-1.226-0.125C444.203,110.637,444.521,110.625,444.685,110.537z"/>
						<path fill="#D22020" d="M424.398,140.257c-0.699-0.089-1.704-0.641-1.027,0.345c0.364,0.199,0.611,0.318,0.9,0.452
							C423.427,140.29,423.108,139.82,424.398,140.257z"/>
						<path fill="#D22020" d="M417.23,150.862c0.581,0.312,0.997,0.487,1.525,0.751c-0.07-0.201-0.105-0.404-0.149-0.592
							L417.23,150.862z"/>
						<path fill="#D22020" d="M326.073,388.503c-2.07-1.066-4.294-2.365-6.448-3.664
							C324.576,387.963,325.244,390.689,326.073,388.503z"/>
						<path fill="#D22020" d="M556.693,23.358c1.658,1.216,2.446,1.884,2.702,2.295c0.012-0.169-0.051-0.383-0.127-0.601
							C558.286,24.34,557.334,23.684,556.693,23.358z"/>
						<path fill="#D22020" d="M477.728,177.103l-2.157,0.993C476.551,178.075,477.32,177.704,477.728,177.103z"/>
						<path fill="#D22020" d="M376.696,311.877l0.552,0.939C377.503,312.771,377.396,312.499,376.696,311.877z"/>
						<path fill="#D22020" d="M473.194,183.778c-2.612-1.335-4.222-1.963-5.342-2.244c0.472,0.422,0.854,0.799,1.614,1.382
							L473.194,183.778z"/>
						<path fill="#D22020" d="M319.563,384.803c0.055,0.032,0.062,0.036,0.062,0.036S319.618,384.835,319.563,384.803z"/>
						<path fill="#D22020" d="M328.177,406.845c1.289-1.467-8.249-6.702-13.13-10.514c-1.238-3.638,7.189,3.588,12.188,6.031
							c-1.55-2.798-9.133-9.287-8.173-9.938c1.509,0.929,2.169,1.124,3.873,2.577c-6.237-6.081,2.192-3.989-5.722-11.515
							c0.865,0.428,1.646,0.878,2.35,1.315c-4.647-2.809-9.229-5.867-12.408-8.096c0.323-0.831-4.737-5.167,1.279-1.477
							c-0.477,0.32,1.859,1.96,3.55,3.409l-2.039-2.484c8.866,5.03,2.206,3,8.416,7.218c-1.718-3.312-7.51-9.746-4.372-9.26
							c8.364,5.337,0.976,4.507,9.291,7.96l-4.311-0.384c13.854,7.465-1.628,0.44,13.062,8.631c3.94-0.671-2.451-5.408,1.498-6.066
							c-4.208-3.609-6.868-4.416-11.076-8.025c-5.999-8.82,22.385,11.466,13.062,1.645c-5.046-4.33-15.272-11.625-8.628-9.597
							l8.897,6.889c2.415-1.601-12.492-10.334-4.669-8.416c3.355,2.883,1.896,3.836,3.223,4.246c8.354,3.474-4.53-4.632-3.745-5.789
							l8.38,5.341c0.306-3.244-3.866-9.878-3.602-13.52c2.369,1.82,4.627,4.008,7.557,5.104c-1.88-6.098,5.798-6.353,12.823-6.231
							l-6.259-6.026c0.264-0.234,3.556,1.648,4.729,2.892c3.522,0.58-4.466-3.126-6.848-5.614c-0.017-1.043,4.718,1.842,6.539,3.732
							c-4.535-6.277-8.729-15.037,0.439-12.18l1.796,1.877c4.1,0.161-13.169-11.904-5.415-9.071l1.023,1.161
							c5.739-1.796,2.146-10.527,14.897-6.213c-9.84-7.509,7.176-0.762-6.903-10.689c8.57,2.569,10.688,4.938,17.562,5.027
							c1.229-0.388-8.054-7.293-8.839-9.337l7.479,5.041l-6.873-6.72l9.421,5.306l-1.254-2.27c-0.711,0.082-3.91-1.455-6.02-2.973
							c-2.335-3.802,7.704-0.168,11.555,2.392l-3.869-7.867c2.945,2.116,3.564,3.414,5.154,5.188
							c-6.303-7.077,8.087,4.984,2.313-1.501c-1.86-0.919-4.353-3.142-5.837-4.207c5.104,2.188,6.491,0.222,5.59-2.542l4.956,3.778
							c3.104-1.778,1.329-7.292,3.451-10.213c-3.124-0.557-11.847-6.84-12.114-8.301l8.112,4.998
							c-4.479-3.868-3.596-1.106-8.758-6.307c1.654-0.506,9.458,5.328,11.585,7.708l-1.818-3.216
							c2.415,1.524,3.438,2.684,6.382,4.803c-4.51-3.875,9.499,3.031,1.544-3.544l2.378,1.503c2.109-2.928,0.312-6.125,1.574-8.821
							c-6.768-4.666-4.611-4.59-9.608-9.042c3.373-0.319,10.057,1.322,10.951-1.216c-2.372-3.822-5.449-4.346-9.024-7.768
							c6.25,4.082,7.131,1.539,10.825,5.677c0.751-3.265,1.001-4.142-1.821-10.833c-2.755-1.354-4.136-1.708-6.097-3.342
							c-0.625-1.291,3.514,0.415,6.431,2.52l0.531,0.59c-6.789-9.97,23.8,3.793,12.867-7.898l0.539,0.604l-4.685-7.607
							c2.009-0.672,4.096,4.003,8.621,5.569c-8.1-10.274,5.017-4.136-0.062-11.517c19.701,10.337,3.743-8.256,17.305-3.153
							l-4.396-2.748c-3.722-3.589,3.064,0.797,4.407,0.927c-3.393-2.193-4.396-1.833-6.45-3.889
							c-0.991-9.666,14.932-8.421,23.101-12.094c2.712-1.53-21.389-16.438-9.13-12.365l7.432,6.254
							c-6.411-11.159,6.798-9.298,1.771-19.374c1.646,1.514,4.037,3.149,3.711,3.579c6.463,2.982,2.701-3.369-2.033-6.608
							c1.025-0.341,4.409,2.754,7.114,3.952c4.08,1.359-5.768-7.459,0.354-4.053c0.992,0.546,1.692,1.546,2.021,2.028
							c-2.383-2.538,2.712-2.443-4.392-6.386c4.338,0.445-0.752-5.294,4.142-3.965c-6.893-5.981,5.578-0.492-4.808-7.958
							c10.849,7.547,10.868,2.997,6.443-1.588c3.071,2.615,4.062,1.384,8.367,4.927c0.673-1.347-0.589-3.857-6.354-7.458
							c14.637,6.617-7.426-11.724,10.22-1.612c-3.389-7.661-5.062-13.756-5.384-18.795c10.828,7.527-1.391,4.384,10.157,12.02
							c-2.372-6.185-10.496-14.34-5.768-15.664c2.033,0.207,4.425,3.671,6.105,5.209c-2.387-6.189,5.098-5.373,1.049-12.188
							c1.01,0.697,1.916,1.751,2.55,2.596c0.019-0.789,2.472-0.185-2.529-3.49l0.983,1.448
							c-7.797-4.015-13.551-12.384-17.285-15.063c13.57,10.576,5.432-0.327,22.384,13.346c-0.688-0.995-2.729-3.042-6.103-5.213
							c1.332,0.122,3.383,1.267,6.78,4.368c-1.357-3.792-7.108-6.678-5.782-8.378c2.393,1.634,3.081,2.626,5.777,4.727
							c-4.062-4.076-8.135-8.164-5.083-8.289c1.391,1.077,3.386,2.177,3.046,2.601c1.011-3.087-9.478-12.868-3.02-12.623
							c9.833,7.899,4.078,1.361,13.188,7.329l-1.646-3.344l-4.796-2.363c1.061-1.23-4.703-6.868-0.973-6.01l3.046,3.517
							l-0.014-3.664l-4.385-0.91c-3.734-4.509-11.538-7.624-7.817-7.693c0.699,1.002,1.037-1.247,6.834,1.673
							c0,0-0.004,0.004,0.009,0.013c-2.421-2.608-4.982-5.34-2.068-4.804c3.055,1.7,9.836,6.981,11.861,8.113
							c-7.113-5.783,0.033-4.545-7.435-10.822c1.69,1.55,6.427,4.787,7.444,5.346l-5.756-4.708c2.391,0.721,3.397,1.271,7.106,3.938
							c2.385-1.098-11.853-7.187-5.419-6.042c0.378,0.51,1.355,1.052,2.031,2.039c4.079-0.469-0.976-6.921,3.418-6.914
							c9.498,5.573,1.022,3.295,9.151,7.811c0.342-4.059-6.767-13.481-2.688-14.864l-1.363-0.151
							c-12.554-9.101,7.765,2.181,2.696-3.362c0.718,1.001,6.817,5.304,5.442,4.231c3.388-0.543-0.438-6.112-2.474-11.803
							l3.046,2.602c3.719,0.849,3.74-1.875,6.068-2.103c-3.021-2.588-2.008-2.937-7.093-5.761
							c21.365,8.927-5.11-14.118,12.822-6.893c-0.239,0.429,2.213,2.914,2.468,2.616l-1.085-4.956
							c-5.728-3.556-3.634-1.915-8.402-4.267c-3.057-2.61-5.077-5.173-4.592-5.889c2.825,3.816,8.98,6.083,12.478,7.638
							c-1.787-1.077-3.534-2.544-5.302-3.675c10.965,5.243-11.067-7.886-2.975-5.399l2.842,2.09
							c-0.977-1.789-4.354-5.121-2.952-5.383c6.681,4.033,2.466,2.873,7.742,6.534c0.415-1.423-10.679-10.617-3.526-7.304
							c1.469,1.722,1.021,2.459,2.467,4.166c8.36,3.997,6.515,2.548,8.312,2.52l-0.223-0.028l4.777,0.356l-2.407-0.899
							c-15.844-12.894-1.05-5.059-10.752-14.523c9.149,9.008,5.83,4.421,13.062,9.546c2.372,0.876,5.157,1.652,7.076,3.272
							c-5.284-4.946,5.705,1.606-2.033-5.567c2.389,1.537,0.899-0.843,6.672,3.384c-1.032-2.468-4.29-2.496-7.185-4.61
							c-6.786-7.332,12.75,2.257,3.521-7.928c-2.987-5.407-10.653-11.238-13.14-16.061c4.258,1.833,8.18,6.421,8.18,6.421
							c4.265,1.189,4.224-0.123,2.268-3.06c1.902,1.618,3.806,2.575,6.679,4.035c-0.015-1.3-8.182-6.419-3.908-5.219
							c2.485,1.979,6.515,5.09,8.857,7.304c-1.453-2.508-5.159-6.527-6.552-9.048c4.303,2.504,5.792,4.884,8.214,7.083
							c-1.02-2.462-1.588-5.664-7.839-10.456l-2.842-0.794c-0.031-0.666,5.715,3.549,6.698,4.692
							c4.395,4.501-3.272-0.034-5.685-1.587l-0.979-1.786c-14.372-8.608,0.126,4.59-1.749,5.574l-9.61-7.467l7.26,7.245
							c-2.838-1.436-8.603-5.013-9.596-6.802c-5.723-2.268,2.911,3.41-3.271,0.602c-0.934-0.48-1.386-0.856-1.709-1.218l2.252,3.11
							c-1.969-1.647-7.229-4.646-5.326-4.325c-7.115-1.995,5.405,8.248-2.694,3.815l-0.515-0.587
							c1.581,5.012,7.225,5.288,14.506,13.186L520.18,14.205l7.211,5.284c-0.461,0.094-1.389,0.267-4.271-1.839
							c4.351,4.466,3.331,2.004,7.692,5.844c-7.638-3.232,0.623,5.814-11.328-1.861c5.27,4.281,5.201,1.663,8.139,5.745
							c-12.933-8.187,1.039,3.119-5.588,0.405c-6.285-4.817-2.028-3.618-8.69-6.355c10.525,8.226-4.037,0.737-2.624,3.203
							c8.75,6.014,2.148,4.736,3.89,8.447c-2.877-2.114-7.052-0.031-11.309-0.57l-1.432-1.042c8.666,6.34,5.862,6.862,6.883,9.322
							c-5.304-3.671-7.234-5.3-9.174-7.574l-0.736,1.16c2.663,2.201,3.934,3.581,4.424,4.992l-6.429-4.784
							c-0.661,1.761,5.759,8.362-0.003,7.294c6.112,4.31,18.3,10.166,21.022,15.021c-3.393-2.193-9.17-6.005-10.174-7.474
							c0.317,0.473,2.358,2.521,0.677,1.899l-5.061-4.639c-3.081-0.797,4.384,3.655,3.383,4.011
							c-4.771-3.261-3.768-1.792-7.488-4.468c-0.338-0.494,2.403,0.729,0.698-0.826c-1.393,0.222-4.882-0.736-8.712-2.87
							c2.763,1.774,6.423,4.361,6.651,5.372c-0.686,1.745-6.102-3.387-9.156-4.172c3.08,2.627-1.022,1.251,6.104,6.127
							c-0.337,0.419-3.722-1.761-5.773-2.904c2.62,2.923-1.599,4.258,6.604,8.539l0.645,0.144c0.116,0.134,0.098,0.186,0.22,0.336
							c0.005-0.006,0,0,0.005-0.006l-0.005,0.006c5.353,7.385-7.657,2.589-6.341,7.204l-2.394-1.632
							c1.719,3.389-0.668,4.49,3.73,9.062c-0.306,0.449-5.089-1.905-7.792-4.021c1.006,2.38,3.598,4.33-1.474,3.339
							c-3.386-4.006-3.98-2.115-2.245-3.273c-3.103,0.098-7.148-2.149-1.721,3.905c-5.74-4.705-8.469-4.091-7.126-2.131l5.098,1.917
							c0.338,1.409-0.685,1.745-1.69,2.109l-7.789-5.855c-11.885-3.557,12.875,16.884-5.12,8.1c5.088,4.649,5.118,1.024,11.197,6.22
							c-2.051,0.684-14.603-5.677-14.929-5.248c-5.772-1.076,10.525,9.802,6.096,9.771c3.034,1.68,10.852,6.628,12.533,9.995
							c-2.028,0.701-13.218-6.422-14.91-8.883c-0.016-0.51,1.005-0.057,1.975,0.623c-0.738-1.173-1.557-2.609-5.044-4.155
							l2.743,2.133c-3.407-1.283-4.429,0.882-8.827-2.776c2.01,2.935,4.398,3.659,6.427,3.873c-5.395-0.998-2.054,2.77-6.126,2.747
							c1.784,0.776,5.336,2.786,5.11,3.067c-5.424,0.34,4.619,4.908,4.615,7.632c-5.1-1.915-10.19-7.475-7.794-3.104
							c-3.754-0.874-7.791-4.937-9.819-6.98c4.375,5.472-5.808,0.728-7.486,1.016l-1.702-2.472c1.016,1.477,0.68,1.895,0.363,2.336
							l6.075,3.374c-1.363-0.153-1.68,0.288-4.058-1.342c3.384,3.095,9.823,6.061,14.235,10.639
							c-3.407-1.283,1.657,4.265-6.111-0.654c4.093-0.464-7.816-4.951-7.769-7.663c0.651,0.972,0.327,1.397-1.049,1.239
							c-0.903-0.498-1.53-1.149-1.857-1.583c-8.254-2.503,7.943,6.821,6.272,8.901c-4.107-3.198-8.493-5.022-7.815-4.038
							c0.685-0.831,7.431,4.427,10.184,7.485c-4.3-0.858,1.438,3.217,0.546,3.691l2.144,0.223c4.103,3.204,3.058,3.525,3.747,5.431
							c-3.398-2.185-1.684-2.449-3.398-3.1c6.803,6.215-9.491-2.84-5.437,2.138c-3.396-1.275-8.122-5.416-10.514-6.135
							c4.413,5.491-7.135-2.145-3.749,2.776c6.112,3.396,4.769,2.351,9.53,7.431l-2.059-5.707l7.109,7.593
							c0.687-0.834-2.35-4.339-1.007-4.208c4.074,4.085,2.72,3.03,7.803,5.859c-9.492-4.667,3.39,5.83-3.398,3.277l-14.256-9.745
							c-7.812-2.212,4.766,8.732-0.689,9.042l3.079,0.8c5.439,4.233-0.35,2.242,1.336,4.688c-4.713-3.322-6.814-3.936-10.048-5.576
							c3.573,2.359-1.696,1.787,7.673,8.515l-7.125-3.047c-4.081,0.472,11.88,11.769,8.813,12.804
							c-4.758-4.17-8.805-5.502-11.541-9.448c-0.531,0.68-1.84,0.727,1.471,2.991c-3.282-1.62,5.081,6.336,0.103,3.913
							c1.897,1.728,6.824,5.217,5.88,5.744c-1.015-0.562-2.347-1.599-2.347-1.599c2.347,1.599,2.361,3.433,8.112,6.318
							c-16.389-7.924-3.09,6.862-17.161,0.097c0.538,2.637,0.802,5.552,0.186,7.195c-1.379-1.069-2.37-1.616-1.692-1.546
							c-5.762-1.068,12.894,10.505,6.431,9.353c-8.489-4.112-3.381-4.014-6.775-5.289c-15.922-10.365,0.333,4.132-9.853-0.607
							l-0.688-0.995c-6.122-2.492,4.074,6.829,1.665,7.913c0,0-1.309-1.021-2.342-1.606c7.14,6.709,8.147,10.915,9.162,14.221
							c-5.772-4.735-2.706-3.027-9.182-6.928c0.352,1.412,10.194,6.58,10.854,9.368c-3.719-1.764-7.443-2.604-14.206-6.973
							l0.661-1.76c-9.156-5.087-1.034,2.157-3.074,1.935l-3.697-2.659c-0.356,3.142,9.125,9.628,6.75,11.653l3.031,1.683
							c8.485,7.75-6.063-2.452,0.004,3.652l-9.817-6.067c1.692,2.461,7.084,9.406,7.798,12.243
							c-6.465-5.723-8.798-10.06-12.209-14.08c-0.675,0.842-1.357,3.497,3.038,7.16c-0.677-0.984-2.708-3.023-1.003-2.383
							c6.767,6.191,9.486,10.137,8.105,11.79c-18.274-12.87-7.791,1.463-23.044-7.016c4.718,7.787-7.142,4.242-8.525,8.643
							c15.271,8.477-0.323,1.339,14.598,11.145c0.379,1.5-0.078,1.665-1.086,1.092l-10.582-3.418
							c-4.725-2.315-2.709-3.022-6.08-5.197c-2.398,1.094-6.788-3.467-11.568-4.912c5.461,3.339,7.14,5.795,4.399,5.486l7.827,3.13
							c6.106,7.952-13.925-6.167-7.916,1.75l-4.087-3.989c1.823,3.207-3.481,4.897,7.498,14.284
							c-1.862-0.916-6.125-3.352-6.785-4.666c-3.969,2.009,7.766,15.746-1.241,13.285l-3.447-2.697
							c0.631,1.306,6.09,5.664,1.932,3.938c-1.461-1.049-3.46-2.703-3.861-2.569c1.047,1.176,5.268,5.909,2.614,5.27l-3.6-3.438
							c-6.867-0.075,6.632,11.546,7.323,15.863c-10.633-7.23-15.782-7.116-18.343-7.054l-1.471-1.061
							c-3.806,2.759,4.601,12.201,6.48,18.425c-12.974-5.739-9.676,3.833-18.464,2.802c2.299,0.806,8.255,5.728,8.897,7.042
							c-2.676-0.659,5.914,7.219-3.753,0.47l0.369-0.162c-9.979-5.905-8.536-2.543-9.672-1.456l12.632,8.885
							c-20.831-9.284,0.902,13.353-16.966,3.873c2.643,2.967,1.943,3.946,4.59,6.907l-6.817-4.693
							c-3.259,1.039-4.887,1.556-5.113,5.42l-4.53-3.896c-1.479,1.263,18.421,15.372,17.862,17.083l-10.517-6.513
							c-1.684,2.811-12.517-0.543-5.077,8.417c-1.445-1.047-4.354-3.139-4.459-3.85c-1.137,1.09-10.265,0.229,4.063,9.283
							c-9.147-6.165-2.781,2.191,0.251,6.387l-6.586-4.805c7.78,7.086,10.103,8.721,11.317,12.062
							c-1.162-0.192-5.638-3.306-3.546-2.678c-4.454-1.037,5.655,5.39,0.946,4.602l-3.88-3.533
							c-1.471,1.048,0.919,2.508,5.413,6.686c2.106,2.716-3.515,1.493-9.747-2.438c3.591,2.714,8.041,6.855,5.722,6.486
							c-2.378-1.452-3.603-2.723-4.196-3.347c-6.17-0.771,5.464,8.796-2.241,5.915c-2.253-1.481-3.435-2.131-4.21-2.462
							c1.428-1.747,2.822-2.987,3.212-2.519c-6.21-4.218-8.328-3.462-16.088-10.477c3.856,4.38,12.633,13.353,8.723,12.837
							c-0.649-0.339-1.287-0.67-2.28-1.267l-0.594-0.624c-0.843-0.079-0.482,0.608,0.375,1.606c-1.345-0.23-2.302-0.446-2.701-0.062
							c-5.242-3.306-3.932-0.153-4.7,0.419c6.842,4.556,5.09,4.799,11.322,7.688c-0.565-0.209-0.719-0.694-0.664-1.385
							c-0.124-0.249-0.129-0.445-0.479-0.792c0.163,0.132,0.36,0.292,0.567,0.46c0.133-0.628,0.415-1.374,0.804-2.175
							c3.058,2.941,5.529,5.523,1.201,3.794c4.107,3.351,8.307,6.82,10.258,8.494c-10.176-5.413-16.641-6.918-22.672-10.611
							c2.261,4.876-1.144,7.095,10.631,17.191c1.211,1.772-4.145-1.723-6.316-2.843c-1.032-1.249-0.528-1.559-2.232-3.013
							c2.399,3.528-1.34,4.717,7.351,11.072c-5.127-1.087-7.568-6.484-7.633-3.239l-2.533-2.163
							c-17.257-5.249,17.884,22.665-3.75,15.148c1.353,0.421,1.987,0.604,3.522,1.545c-11.865,0.122-0.255,16.683-16.804,13.516
							c-3.64-0.178,1.935,3.856,5.617,7.758l-7.551-4.631l7.329,7.371c4.585,6.508-20.654-8.147-10.987,2.715l5.181,2.964
							c-1.65,0.423,0.62,5.311-4.903,1.302c0.812,0.71,4.865,3.811,2.034,2.491l-3.847-2.565l4.778,7.036
							c-4.141,0.128-14.945-10.608-17.683-8.178c0.735,2.093,9.011,10.659,11.839,11.981c0.5-0.305,3.149,0.494,6.996,3.059
							l1.317,2.354c11.14,7.83,22.141,16.422,31.667,19.312l-5.724-6.381l5.84,3.162l-0.645,1.661
							c5.677,2.664,1.494-0.931-1.229-3.626c2.997,1.835,5.179,2.967,6.507,3.373l-9.617-8.979
							c4.542,2.787,8.238,6.692,11.434,7.219c-4.473-4.184-10.393-5.957-12.792-9.485c5.667,2.654,9.684,5.73,5.967,1.806
							c2.983,1.83,4.699,3.292,5.717,4.538c-2.903-3.219,0.058-3.261-5.629-7.766c6.894,3.438,0.315-3.995,10.919,3.328
							c-2.368-2-7.35-7.187-7.267-8.275c11.79,10.099,2.748-2.421,16.174,7.25c-10.755-8.853-2.5-7.291-7.589-13.489
							c0.838,0.722,2.539,2.179,1.849,1.952c1.661-0.416,5.329,1.627,7.963,2.423c-9.388-6.574-10.432-9.687-15.673-14.541
							c10.028,4.918,10.587,8.338,19.646,13.896c-7.729-5.154-6.134-7.453-12.832-11.358c6.328,2.851,3.318,1.007,11.527,5.836
							c-11.734-8.223-1.393-2.292-8.095-8.045c6.805,2.527,11.348,7.168,8.805,3.14C324.925,402.59,328.177,406.845,328.177,406.845
							z M333.121,355.491c0.071,0.048,0.118,0.08,0.142,0.097c-0.077,0.418-0.122,0.789-0.146,1.029
							C333.131,356.392,333.141,356.072,333.121,355.491z M335.152,352.272c-0.532,0.198-0.903,0.644-1.198,1.18
							c-2.413-1.477-4.752-3.239-4.419-3.477C330.988,351.215,332.85,351.395,335.152,352.272z M283.539,326.946
							c-0.63-1.155,0.817-0.416,2.257,0.461c-0.042,0.315-0.004,0.743,0.223,1.425c0.199,0.157,0.577,0.454,0.787,0.62
							C285.539,328.522,284.359,327.643,283.539,326.946z"/>
						<path fill="#D22020" d="M291.832,333.887c0.104,0.176,0.361,0.408,0.356,0.542c0.671,0.308,1.245,0.555,1.736,0.745
							c-0.688-0.556-1.386-1.119-2.005-1.619C291.894,333.669,291.842,333.771,291.832,333.887z"/>
						<path fill="#D22020" d="M495.608,55.491l-0.198-0.038c0.321,0.137,0.615,0.263,1.062,0.518
							C496.112,55.792,495.888,55.639,495.608,55.491z"/>
						<polygon fill="#D22020" points="377.657,317.65 375.954,316.5 377.255,317.785 						"/>
						<path fill="#D22020" d="M530.706,54.004c0.625,0.375,1.283,0.728,1.902,0.959C532.152,54.668,531.46,54.341,530.706,54.004z"
							/>
						<path fill="#D22020" d="M537.313,47.552l3.15,0.593C538.771,47.665,537.884,47.549,537.313,47.552z"/>
						<path fill="#D22020" d="M544.599,44.089c-1.144-0.883-2.026-1.513-2.828-2.085c-0.026-0.012-0.028-0.008-0.066-0.029
							L544.599,44.089z"/>
						<path fill="#D22020" d="M490.431,141.024c-0.006,0.109,0.025,0.242,0.156,0.43
							C491.555,142.874,491.276,142.166,490.431,141.024z"/>
						<path fill="#D22020" d="M493.047,103.006c1.043,1.131,2.054,2.234,2.604,3.048
							C496.523,105.938,496.909,105.65,493.047,103.006z"/>
						<path fill="#D22020" d="M477.959,176.991c-0.074-0.054-0.025-0.019-0.104-0.075c-0.044,0.065-0.083,0.123-0.128,0.188
							L477.959,176.991z"/>
						<path fill="#D22020" d="M494.685,107.249c1.688,0.437,1.679-0.161,0.967-1.194C494.944,106.155,493.93,106.15,494.685,107.249
							z"/>
						<path fill="#D22020" d="M564.621,21.235l0.472-0.084c-0.452-0.3-0.807-0.565-1.087-0.787L564.621,21.235z"/>
						<path fill="#D22020" d="M564.006,20.364l-0.594-0.854C563.315,19.652,563.304,19.823,564.006,20.364z"/>
						<path fill="#D22020" d="M562.164,17.716l1.248,1.794C563.6,19.311,564,19.178,562.164,17.716z"/>
						<path fill="#D22020" d="M556.307,26.722l2.408,1.763C558.228,28.085,557.469,27.525,556.307,26.722z"/>
						<path fill="#D22020" d="M555.454,29.527c0.93-0.175,6.194,2.182,5.171,0.361l-1.91-1.402
							C562.128,31.333,551.654,26.18,555.454,29.527z"/>
						<path fill="#D22020" d="M518.42,18.498l3.289-0.601c-2.875-1.457-6.708-3.408-6.723-4.707
							C505.498,10.32,521.185,16.662,518.42,18.498z"/>
						<path fill="#D22020" d="M510.521,21.925c-0.508-1.868-3.821-2.578-5.271-3.643C507.197,20.571,507.69,21.14,510.521,21.925z"
							/>
						<path fill="#D22020" d="M480.972,65.385l-6.115-4.306C475.208,62.493,477.248,62.715,480.972,65.385z"/>
						<polygon fill="#D22020" points="507.298,95.408 511.654,97.224 506.264,93.019 						"/>
						<polygon fill="#D22020" points="459.904,70.396 459.269,69.452 460.578,72.299 						"/>
						<path fill="#D22020" d="M412.512,144.906l7.78,4.928C419.303,148.369,410.821,142.443,412.512,144.906z"/>
						<path fill="#D22020" d="M398.873,181.704c-4.047-2.246-7.093-3.02-3.733,0.061
							C396.152,181.417,399.584,182.714,398.873,181.704z"/>
						<polygon fill="#D22020" points="322.251,267.808 320.132,265.442 321.445,268.08 						"/>
					</g>
				</g>
			</g>
		</g>
	</g>
</g>
<g>
</g>
<g>
</g>
<g>
</g>
<g>
</g>
<g>
</g>
<g>
</g>
</svg>
