<?xml version="1.0" standalone="no"?>
<!DOCTYPE svg PUBLIC "-//W3C//DTD SVG 1.1//EN" "http://www.w3.org/Graphics/SVG/1.1/DTD/svg11.dtd">
<svg version="1.1" xmlns="http://www.w3.org/2000/svg" xmlns:xlink="http://www.w3.org/1999/xlink" x="0px" y="0px" width="288px"
	 height="77.25px" viewBox="0 0 288 77.25" enable-background="new 0 0 288 77.25" xml:space="preserve" preserveAspectRatio="none">
<g id="Layer_1">
	<g>
		<g>
			<path d="M287.896,63.593c0,6.88-5.373,12.464-11.994,12.464H14.046c-6.624,0-11.993-5.584-11.993-12.464V16.844
				c0-6.882,5.37-12.463,11.993-12.463h261.856c6.621,0,11.994,5.581,11.994,12.463V63.593L287.896,63.593z"/>
			<path d="M288.001,63.598c0,0-0.007,0.17-0.022,0.504c-0.014,0.332-0.021,0.83-0.138,1.488c-0.21,1.293-0.661,3.278-2.141,5.396
				c-1.421,2.091-4.013,4.367-7.733,5.033c-0.912,0.183-1.9,0.205-2.882,0.203c-0.989,0.004-2.013,0.006-3.069,0.01
				c-2.111,0.006-4.356,0.014-6.729,0.021c-9.488-0.001-21.011,0.159-34.228,0.254c-13.217,0.108-28.127,0.23-44.394,0.364
				c-8.133,0.032-16.604,0.067-25.374,0.103c-8.768,0.043-17.833-0.021-27.152-0.027c-18.639,0.002-38.293-0.211-58.626-0.329
				c-20.338-0.099-41.354-0.2-62.708-0.304c-2.758-0.311-5.362-1.541-7.306-3.506c-1.94-1.947-3.264-4.524-3.643-7.265
				C1.637,64.166,1.704,62.8,1.69,61.467l-0.008-4.039c-0.006-2.695-0.011-5.393-0.017-8.093c-0.06-10.811-0.12-21.665-0.181-32.518
				c0.012-2.742,0.861-5.679,2.576-7.931c1.675-2.29,4.13-4.048,6.913-4.754c1.362-0.379,2.878-0.451,4.192-0.427l4.059-0.021
				c2.705-0.014,5.408-0.029,8.108-0.043c10.802-0.057,21.562-0.114,32.236-0.17c21.349-0.057,42.36-0.112,62.693-0.166
				c20.333,0.006,39.988,0.012,58.625,0.017c18.639-0.016,36.262,0.095,52.527,0.195c8.133,0.069,15.927,0.135,23.34,0.198
				c3.707,0.036,7.318,0.07,10.828,0.104c1.756,0.017,3.484,0.034,5.189,0.05c1.696,0.046,3.381-0.067,5.092,0.22
				c3.429,0.582,6.328,2.652,8.099,5.288c0.894,1.317,1.519,2.772,1.874,4.256c0.371,1.477,0.408,3.017,0.369,4.426
				c-0.061,5.719-0.092,10.971-0.1,15.715c-0.066,18.978-0.104,29.822-0.104,29.822V63.598z M287.793,63.593
				c0,0-0.038-10.844-0.104-29.822c-0.008-4.744-0.039-9.997-0.101-15.715c0.015-1.444-0.048-2.85-0.425-4.258
				c-0.361-1.399-0.977-2.761-1.837-3.984c-1.7-2.449-4.472-4.323-7.597-4.795c-1.558-0.242-3.252-0.108-4.957-0.122
				c-1.705,0.016-3.436,0.033-5.19,0.05c-3.511,0.034-7.121,0.068-10.828,0.104c-7.413,0.063-15.207,0.129-23.34,0.198
				c-16.267,0.1-33.89,0.211-52.526,0.195c-18.639,0.005-38.294,0.011-58.626,0.017c-20.333-0.054-41.344-0.11-62.693-0.167
				c-10.675-0.057-21.435-0.113-32.236-0.17c-2.7-0.014-5.403-0.029-8.108-0.043L15.166,5.06c-1.39-0.037-2.606,0.017-3.864,0.34
				C8.813,6.001,6.585,7.556,5.044,9.615c-0.776,1.026-1.395,2.182-1.787,3.414c-0.402,1.255-0.606,2.445-0.635,3.843
				c-0.061,10.835-0.121,21.67-0.181,32.462c-0.006,2.7-0.011,5.398-0.017,8.093l-0.008,4.039c0.007,1.353-0.06,2.693,0.142,3.974
				c0.347,2.595,1.591,5.039,3.419,6.89c1.818,1.866,4.319,3.041,6.86,3.342c2.631,0.136,5.322,0.048,7.971,0.063
				c2.658-0.006,5.309-0.014,7.954-0.021c5.29-0.015,10.553-0.029,15.784-0.043c10.463-0.059,20.799-0.115,30.965-0.173
				c20.333-0.118,39.988-0.331,58.626-0.329c9.319-0.006,18.384-0.07,27.152-0.027c8.77,0.035,17.24,0.069,25.374,0.103
				c16.267,0.133,31.177,0.255,44.394,0.364c13.217,0.096,24.738,0.254,34.228,0.254c2.373,0.007,4.618,0.014,6.729,0.021
				c2.108-0.034,4.11,0.129,5.896-0.172c3.624-0.624,6.174-2.83,7.578-4.871c1.461-2.063,1.92-4.016,2.132-5.276
				c0.116-0.637,0.13-1.137,0.146-1.471c0.019-0.333,0.026-0.502,0.026-0.502L287.793,63.593z"/>
		</g>
	</g>
	<g>
		<g>
			<g>
				<g>
					<g>
						<linearGradient id="SVGID_1_" gradientUnits="userSpaceOnUse" x1="2.022" y1="40.3271" x2="287.7324" y2="40.3271">
							<stop  offset="0" style="stop-color:#B21C1E"/>
							<stop  offset="1" style="stop-color:#AA1D1D"/>
						</linearGradient>
						<path fill-rule="evenodd" clip-rule="evenodd" fill="url(#SVGID_1_)" d="M287.732,63.686c0,6.884-5.365,12.464-11.989,12.464
							H14.011c-6.623,0-11.989-5.58-11.989-12.464V16.964c0-6.879,5.367-12.459,11.989-12.459h261.732
							c6.624,0,11.989,5.58,11.989,12.459V63.686z"/>
						<path d="M287.836,63.69c0,0-0.007,0.169-0.022,0.503c-0.014,0.333-0.022,0.829-0.138,1.487
							c-0.208,1.294-0.66,3.277-2.136,5.396c-1.418,2.091-4.007,4.367-7.727,5.034c-0.913,0.182-1.899,0.206-2.881,0.205
							c-0.989,0.003-2.012,0.006-3.067,0.01c-2.112,0.006-4.355,0.013-6.727,0.021c-9.484-0.001-21.001,0.158-34.212,0.254
							c-13.21,0.108-28.114,0.23-44.373,0.363c-8.129,0.033-16.597,0.067-25.361,0.103c-8.765,0.043-17.826-0.021-27.141-0.027
							c-18.63,0.003-38.276-0.211-58.6-0.328c-20.328-0.099-41.334-0.2-62.679-0.304c-2.756-0.31-5.36-1.537-7.303-3.502
							c-1.94-1.944-3.264-4.521-3.645-7.259c-0.22-1.378-0.154-2.742-0.167-4.075L1.65,57.533c-0.006-2.693-0.011-5.39-0.017-8.089
							C1.573,38.647,1.513,27.808,1.452,16.969c0.012-2.795,0.859-5.691,2.572-7.956c1.673-2.29,4.126-4.048,6.907-4.756
							c1.361-0.379,2.877-0.453,4.191-0.429l4.057-0.021c2.704-0.015,5.406-0.029,8.105-0.043
							c10.797-0.057,21.551-0.114,32.221-0.17c21.339-0.057,42.34-0.112,62.664-0.166c20.323,0.006,39.969,0.011,58.599,0.017
							c18.63-0.017,36.243,0.095,52.502,0.194c8.13,0.069,15.921,0.135,23.33,0.198c3.705,0.036,7.314,0.071,10.823,0.104
							c1.755,0.017,3.484,0.033,5.188,0.05c1.695,0.045,3.38-0.067,5.088,0.218c3.428,0.58,6.327,2.648,8.098,5.283
							c0.893,1.316,1.518,2.77,1.874,4.253c0.372,1.476,0.409,3.015,0.369,4.424c-0.06,5.716-0.091,10.966-0.099,15.708
							c-0.066,18.969-0.104,29.808-0.104,29.808L287.836,63.69z M287.628,63.686c0,0-0.038-10.839-0.104-29.808
							c-0.008-4.742-0.039-9.993-0.099-15.708c0.013-1.444-0.05-2.848-0.427-4.256c-0.361-1.398-0.977-2.76-1.837-3.982
							c-1.699-2.447-4.47-4.319-7.593-4.79c-1.559-0.241-3.252-0.107-4.957-0.121c-1.703,0.017-3.433,0.033-5.188,0.05
							c-3.509,0.034-7.118,0.069-10.823,0.104c-7.409,0.062-15.2,0.129-23.33,0.198c-16.259,0.1-33.872,0.211-52.502,0.194
							c-18.63,0.005-38.276,0.011-58.599,0.017c-20.324-0.054-41.325-0.109-62.664-0.166c-10.67-0.057-21.424-0.113-32.221-0.17
							c-2.699-0.014-5.401-0.028-8.105-0.043l-4.057-0.021c-1.389-0.036-2.603,0.02-3.861,0.344
							C8.774,6.129,6.548,7.683,5.009,9.743c-1.581,2.063-2.369,4.616-2.417,7.226C2.531,27.808,2.471,38.647,2.41,49.444
							c-0.005,2.699-0.011,5.396-0.017,8.089L2.385,61.57c0.007,1.353-0.061,2.691,0.143,3.972c0.349,2.592,1.592,5.035,3.42,6.884
							c1.817,1.866,4.319,3.038,6.859,3.338c2.63,0.135,5.319,0.049,7.967,0.064c2.656-0.008,5.307-0.015,7.95-0.022
							c5.288-0.015,10.548-0.029,15.777-0.043c10.458-0.059,20.789-0.116,30.951-0.174c20.324-0.117,39.97-0.331,58.6-0.328
							c9.315-0.007,18.376-0.07,27.141-0.027c8.765,0.035,17.232,0.069,25.361,0.103c16.259,0.133,31.163,0.255,44.373,0.363
							c13.211,0.096,24.728,0.255,34.212,0.254c2.371,0.008,4.614,0.015,6.727,0.021c2.107-0.033,4.108,0.13,5.894-0.173
							c3.622-0.625,6.17-2.831,7.571-4.872c1.459-2.063,1.916-4.016,2.128-5.276c0.116-0.637,0.129-1.137,0.145-1.47
							c0.018-0.333,0.026-0.502,0.026-0.502L287.628,63.686z"/>
					</g>
				</g>
			</g>
		</g>
	</g>
	<g>
		<g>
			<polygon fill="#FFFFFF" points="65.379,40.412 49.938,49.698 34.5,58.984 34.5,40.412 34.5,21.839 49.938,31.125 			"/>
			<g>
				<path fill="#FFFFFF" stroke="#FFFFFF" stroke-width="0.6936" stroke-miterlimit="10" d="M81.909,35.668
					c0-7.179,0-8.467-0.091-9.941c-0.094-1.563-0.463-2.3-1.98-2.624c-0.371-0.09-1.148-0.135-1.563-0.135
					c-0.185,0-0.368-0.093-0.368-0.276c0-0.274,0.229-0.371,0.734-0.371c2.072,0,4.97,0.139,5.202,0.139
					c0.503,0,4.001-0.139,5.426-0.139c2.902,0,5.98,0.278,8.422,2.026c1.148,0.828,3.176,3.084,3.176,6.259
					c0,3.404-1.43,6.809-5.568,10.63c3.77,4.83,6.899,8.926,9.572,11.779c2.484,2.623,4.459,3.127,5.611,3.311
					c0.873,0.141,1.519,0.141,1.796,0.141c0.228,0,0.414,0.137,0.414,0.271c0,0.28-0.277,0.371-1.104,0.371h-3.271
					c-2.575,0-3.728-0.231-4.92-0.875c-1.981-1.058-3.589-3.314-6.213-6.763c-1.935-2.533-4.095-5.614-5.014-6.809
					c-0.186-0.186-0.324-0.279-0.603-0.279l-5.657-0.091c-0.229,0-0.321,0.137-0.321,0.37v1.104c0,4.418,0,8.052,0.229,9.984
					c0.14,1.332,0.417,2.344,1.794,2.531c0.647,0.092,1.656,0.185,2.071,0.185c0.278,0,0.371,0.137,0.371,0.271
					c0,0.231-0.233,0.371-0.738,0.371c-2.531,0-5.43-0.14-5.659-0.14c-0.047,0-2.945,0.14-4.327,0.14
					c-0.506,0-0.735-0.091-0.735-0.371c0-0.135,0.094-0.271,0.37-0.271c0.413,0,0.964-0.093,1.377-0.185
					c0.92-0.188,1.148-1.199,1.336-2.531c0.23-1.933,0.23-5.566,0.23-9.984V35.668z M85.59,39.669c0,0.23,0.092,0.415,0.321,0.551
					c0.689,0.417,2.807,0.738,4.83,0.738c1.105,0,2.392-0.138,3.452-0.874c1.612-1.104,2.808-3.588,2.808-7.087
					c0-5.75-3.037-9.201-7.963-9.201c-1.38,0-2.621,0.136-3.081,0.275c-0.23,0.092-0.368,0.276-0.368,0.551V39.669z"/>
				<path fill="#FFFFFF" stroke="#FFFFFF" stroke-width="0.6936" stroke-miterlimit="10" d="M115.563,38.841
					c0-6.075,0-7.177-0.093-8.418c-0.091-1.334-0.32-1.981-1.658-2.164c-0.32-0.048-1.015-0.092-1.379-0.092
					c-0.137,0-0.322-0.183-0.322-0.322c0-0.229,0.185-0.32,0.643-0.32c1.843,0,4.463,0.091,4.694,0.091c0.279,0,8.743,0.048,9.661,0
					c0.785-0.045,1.521-0.183,1.842-0.231c0.185-0.045,0.368-0.183,0.553-0.183c0.136,0,0.186,0.183,0.186,0.369
					c0,0.274-0.232,0.736-0.326,1.839c-0.044,0.367-0.136,2.118-0.228,2.576c-0.043,0.184-0.185,0.416-0.369,0.416
					c-0.23,0-0.321-0.186-0.321-0.509c0-0.274-0.047-0.919-0.231-1.378c-0.276-0.645-0.689-0.92-2.899-1.195
					c-0.689-0.092-5.384-0.139-5.843-0.139c-0.183,0-0.231,0.139-0.231,0.414V40.22c0,0.281,0,0.417,0.231,0.417
					c0.507,0,5.843,0,6.763-0.092c0.967-0.093,1.566-0.137,1.979-0.553c0.274-0.276,0.459-0.507,0.598-0.507
					c0.138,0,0.23,0.093,0.23,0.321c0,0.232-0.23,0.876-0.322,2.165c-0.091,0.781-0.185,2.253-0.185,2.53
					c0,0.322-0.091,0.737-0.37,0.737c-0.181,0-0.273-0.139-0.273-0.371c0-0.366,0-0.781-0.184-1.288
					c-0.138-0.553-0.506-1.011-2.071-1.196c-1.104-0.137-5.429-0.186-6.119-0.186c-0.229,0-0.277,0.139-0.277,0.279v3.266
					c0,1.335-0.045,5.892,0,6.671c0.093,2.623,0.828,3.131,4.833,3.131c1.057,0,2.992,0,4.052-0.415
					c1.056-0.458,1.606-1.151,1.839-2.716c0.088-0.459,0.184-0.596,0.413-0.596c0.229,0,0.275,0.319,0.275,0.596
					c0,0.277-0.318,2.944-0.552,3.774c-0.276,1.014-0.691,1.014-2.255,1.014c-3.036,0-5.385-0.093-7.039-0.141
					c-1.703-0.092-2.76-0.092-3.36-0.092c-0.09,0-0.871,0-1.748,0.049c-0.784,0.043-1.703,0.091-2.346,0.091
					c-0.416,0-0.646-0.091-0.646-0.323c0-0.137,0.089-0.319,0.322-0.319c0.37,0,0.874-0.141,1.243-0.185
					c0.78-0.14,0.876-0.924,1.058-2.071c0.232-1.61,0.232-4.693,0.232-8.468V38.841z"/>
				<path fill="#FFFFFF" stroke="#FFFFFF" stroke-width="0.6936" stroke-miterlimit="10" d="M137.523,56.558
					c-0.552-0.275-0.599-0.415-0.599-1.475c0-1.932,0.183-3.496,0.233-4.14c0-0.417,0.09-0.644,0.322-0.644
					c0.228,0,0.364,0.136,0.364,0.458c0,0.324,0,0.877,0.138,1.428c0.646,2.852,3.682,3.865,6.396,3.865
					c4.001,0,6.076-2.255,6.076-5.2c0-2.807-1.519-4.139-5.107-6.809l-1.839-1.379c-4.374-3.271-5.799-5.663-5.799-8.376
					c0-4.602,3.635-7.361,8.969-7.361c1.611,0,3.223,0.229,4.191,0.458c0.782,0.186,1.101,0.186,1.423,0.186
					c0.324,0,0.414,0.045,0.414,0.274c0,0.183-0.183,1.475-0.183,4.141c0,0.599-0.047,0.874-0.323,0.874
					c-0.275,0-0.323-0.183-0.365-0.504c-0.046-0.462-0.37-1.52-0.601-1.932c-0.273-0.461-1.612-1.933-5.245-1.933
					c-2.945,0-5.382,1.472-5.382,4.232c0,2.484,1.241,3.912,5.244,6.627l1.152,0.781c4.922,3.359,6.626,6.074,6.626,9.433
					c0,2.302-0.872,4.784-3.775,6.672c-1.702,1.104-4.23,1.38-6.438,1.38C141.526,57.614,139.183,57.338,137.523,56.558z"/>
				<path fill="#FFFFFF" stroke="#FFFFFF" stroke-width="0.6936" stroke-miterlimit="10" d="M162.98,38.841
					c0-6.075,0-7.177-0.093-8.418c-0.09-1.243-0.321-1.981-1.657-2.164c-0.319-0.048-1.013-0.092-1.377-0.092
					c-0.138,0-0.32-0.183-0.32-0.322c0-0.229,0.183-0.32,0.642-0.32c1.841,0,4.275,0.091,4.644,0.091
					c0.371,0,2.903-0.091,4.097-0.091c0.458,0,0.691,0.091,0.691,0.32c0,0.14-0.182,0.322-0.372,0.322c-0.27,0-0.505,0-1.009,0.092
					c-1.062,0.183-1.286,0.875-1.379,2.164c-0.092,1.241-0.092,2.344-0.092,8.418v5.476c0,5.659,1.242,8.006,2.991,9.57
					c1.977,1.796,3.728,2.116,6.027,2.116c2.485,0,4.877-1.102,6.258-2.76c1.885-2.253,2.299-5.474,2.299-9.477v-4.926
					c0-6.075-0.047-7.177-0.092-8.418c-0.046-1.243-0.279-1.981-1.611-2.164c-0.319-0.048-1.012-0.092-1.379-0.092
					c-0.184,0-0.324-0.183-0.324-0.322c0-0.229,0.187-0.32,0.645-0.32c1.797,0,4.143,0.091,4.373,0.091
					c0.275,0,2.21-0.091,3.403-0.091c0.461,0,0.645,0.091,0.645,0.32c0,0.14-0.139,0.322-0.321,0.322c-0.277,0-0.508,0-1.014,0.092
					c-1.104,0.231-1.334,0.875-1.425,2.164c-0.094,1.241-0.047,2.344-0.047,8.418v4.187c0,4.234-0.553,8.974-3.771,11.736
					c-2.945,2.528-6.076,2.851-8.469,2.851c-1.334,0-5.569-0.092-8.419-2.76c-1.977-1.839-3.543-4.555-3.543-10.261V38.841z"/>
				<path fill="#FFFFFF" stroke="#FFFFFF" stroke-width="0.6936" stroke-miterlimit="10" d="M228.383,52.047
					c0.139,1.38,0.414,3.498,2.07,4.048c1.15,0.372,2.208,0.372,2.622,0.372c0.183,0,0.322,0.091,0.322,0.271
					c0,0.231-0.366,0.371-0.828,0.371c-0.923,0-5.431-0.091-6.9-0.231c-0.97-0.092-1.152-0.229-1.152-0.411
					c0-0.141,0.091-0.278,0.274-0.324c0.233-0.048,0.278-0.646,0.188-1.379l-1.93-19.788h-0.096l-9.757,19.972
					c-0.828,1.702-1.058,2.071-1.423,2.071c-0.37,0-0.603-0.369-1.382-1.796c-1.06-1.934-3.729-6.948-4.739-9.065
					c-1.196-2.484-4.463-9.064-5.155-10.676h-0.182l-1.562,17.67c-0.05,0.6-0.05,1.333-0.05,1.979c0,0.6,0.368,0.965,0.965,1.104
					c0.691,0.185,1.289,0.232,1.565,0.232c0.139,0,0.325,0.137,0.325,0.271c0,0.28-0.276,0.371-0.739,0.371
					c-1.518,0-3.448-0.14-3.772-0.14c-0.367,0-2.302,0.14-3.406,0.14c-0.414,0-0.687-0.091-0.687-0.371
					c0-0.135,0.178-0.271,0.411-0.271c0.323,0,0.601-0.048,1.195-0.141c1.337-0.231,1.382-1.654,1.566-3.127l2.944-25.537
					c0.046-0.416,0.23-0.693,0.461-0.693c0.276,0,0.601,0.137,0.827,0.6l12.237,24.294l11.783-24.25
					c0.181-0.368,0.37-0.645,0.644-0.645c0.275,0,0.505,0.322,0.598,1.057L228.383,52.047z"/>
				<path fill="#FFFFFF" stroke="#FFFFFF" stroke-width="0.6936" stroke-miterlimit="10" d="M240.6,38.841
					c0-6.075,0-7.177-0.092-8.418c-0.094-1.334-0.323-1.981-1.654-2.164c-0.325-0.048-1.016-0.092-1.385-0.092
					c-0.14,0-0.318-0.183-0.318-0.322c0-0.229,0.179-0.32,0.64-0.32c1.844,0,4.465,0.091,4.694,0.091c0.276,0,8.741,0.048,9.664,0
					c0.777-0.045,1.518-0.183,1.841-0.231c0.184-0.045,0.368-0.183,0.548-0.183c0.143,0,0.185,0.183,0.185,0.369
					c0,0.274-0.227,0.736-0.319,1.839c-0.045,0.367-0.136,2.118-0.229,2.576c-0.047,0.184-0.184,0.416-0.366,0.416
					c-0.234,0-0.324-0.186-0.324-0.509c0-0.274-0.045-0.919-0.23-1.378c-0.273-0.645-0.691-0.92-2.897-1.195
					c-0.688-0.092-5.383-0.139-5.848-0.139c-0.181,0-0.224,0.139-0.224,0.414V40.22c0,0.281,0,0.417,0.224,0.417
					c0.508,0,5.848,0,6.767-0.092c0.964-0.093,1.565-0.137,1.979-0.553c0.278-0.276,0.461-0.507,0.599-0.507
					c0.139,0,0.225,0.093,0.225,0.321c0,0.232-0.225,0.876-0.318,2.165c-0.091,0.781-0.185,2.253-0.185,2.53
					c0,0.322-0.09,0.737-0.368,0.737c-0.181,0-0.278-0.139-0.278-0.371c0-0.366,0-0.781-0.18-1.288
					c-0.136-0.553-0.509-1.011-2.067-1.196c-1.106-0.137-5.434-0.186-6.122-0.186c-0.23,0-0.273,0.139-0.273,0.279v3.266
					c0,1.335-0.05,5.892,0,6.671c0.09,2.623,0.827,3.131,4.829,3.131c1.06,0,2.987,0,4.05-0.415
					c1.058-0.458,1.611-1.151,1.837-2.716c0.096-0.459,0.185-0.596,0.418-0.596c0.228,0,0.273,0.319,0.273,0.596
					c0,0.277-0.323,2.944-0.551,3.774c-0.278,1.014-0.689,1.014-2.257,1.014c-3.032,0-5.385-0.093-7.037-0.141
					c-1.703-0.092-2.765-0.092-3.361-0.092c-0.093,0-0.873,0-1.747,0.049c-0.781,0.043-1.705,0.091-2.35,0.091
					c-0.413,0-0.643-0.091-0.643-0.323c0-0.137,0.093-0.319,0.322-0.319c0.368,0,0.878-0.141,1.243-0.185
					c0.78-0.14,0.874-0.924,1.057-2.071c0.232-1.61,0.232-4.693,0.232-8.468V38.841z"/>
			</g>
		</g>
	</g>
</g>
<g id="Layer_2">
</g>
</svg>
