<?xml version="1.0" standalone="no"?>
<!DOCTYPE svg PUBLIC "-//W3C//DTD SVG 1.1//EN" "http://www.w3.org/Graphics/SVG/1.1/DTD/svg11.dtd">
<svg version="1.1" id="Layer_1" xmlns="http://www.w3.org/2000/svg" xmlns:xlink="http://www.w3.org/1999/xlink" x="0px" y="0px"
	 width="432px" height="77.25px" viewBox="0 0 432 77.25" enable-background="new 0 0 432 77.25" xml:space="preserve" preserveAspectRatio="none">
<g>
	<g>
		<path d="M431.515,63.607c-0.001,6.879-8.06,12.463-17.985,12.463l-392.65-0.033c-9.933,0-17.982-5.585-17.981-12.465l0.004-46.749
			c0-6.882,8.053-12.462,17.983-12.461l392.65,0.032c9.928,0.001,17.983,5.583,17.983,12.464L431.515,63.607L431.515,63.607z"/>
		<path d="M431.672,63.611c0,0-0.011,0.171-0.032,0.505c-0.021,0.332-0.03,0.829-0.206,1.487c-0.315,1.293-0.993,3.277-3.211,5.396
			c-2.132,2.091-6.019,4.366-11.598,5.032c-1.368,0.183-2.85,0.203-4.319,0.201c-1.484,0.006-3.021,0.008-4.604,0.011
			c-3.163,0.006-6.53,0.013-10.088,0.021c-14.229-0.003-31.508,0.155-51.326,0.25c-19.816,0.105-42.176,0.227-66.565,0.357
			c-12.194,0.029-24.898,0.062-38.047,0.102c-13.148,0.043-26.74-0.022-40.717-0.029c-27.947-0.002-57.42-0.217-87.908-0.338
			c-30.497-0.102-62.01-0.205-94.03-0.312c-4.136-0.312-8.041-1.541-10.956-3.507c-2.908-1.947-4.894-4.522-5.462-7.267
			c-0.327-1.377-0.228-2.744-0.249-4.076l-0.011-4.039c-0.01-2.694-0.016-5.393-0.025-8.094C2.229,38.5,2.139,27.646,2.048,16.793
			c0.018-2.742,1.292-5.679,3.864-7.931c2.511-2.29,6.193-4.047,10.367-4.753c2.042-0.379,4.315-0.45,6.286-0.426l6.086-0.021
			c4.056-0.014,8.108-0.029,12.157-0.042C57.006,3.564,73.14,3.508,89.146,3.453c32.013-0.054,63.517-0.107,94.007-0.158
			c30.486,0.009,59.961,0.017,87.907,0.024c27.949-0.014,54.374,0.099,78.764,0.202c12.194,0.069,23.881,0.136,34.997,0.201
			c5.558,0.036,10.973,0.071,16.237,0.105c2.633,0.017,5.224,0.035,7.778,0.051c2.543,0.046,5.068-0.067,7.636,0.22
			c5.144,0.583,9.486,2.653,12.145,5.29c1.341,1.317,2.279,2.772,2.812,4.256c0.558,1.477,0.61,3.017,0.554,4.426
			c-0.093,5.719-0.143,10.971-0.153,15.715c-0.098,18.979-0.156,29.822-0.156,29.822L431.672,63.611L431.672,63.611L431.672,63.611z
			 M431.36,63.607c0,0-0.057-10.844-0.154-29.822c-0.011-4.744-0.058-9.997-0.149-15.715c0.022-1.444-0.071-2.85-0.638-4.258
			c-0.541-1.399-1.466-2.761-2.755-3.984c-2.55-2.449-6.706-4.323-11.392-4.796c-2.335-0.242-4.877-0.108-7.435-0.123
			c-2.557,0.016-5.148,0.033-7.78,0.05c-5.267,0.033-10.679,0.067-16.235,0.103c-11.117,0.062-22.804,0.127-34.997,0.195
			c-24.395,0.098-50.819,0.207-78.762,0.188c-27.95,0.003-57.424,0.007-87.911,0.01C152.666,5.398,121.159,5.34,89.146,5.28
			C73.138,5.222,57.004,5.165,40.808,5.107c-4.049-0.015-8.102-0.03-12.158-0.044l-6.086-0.022C20.48,5.004,18.656,5.058,16.77,5.38
			c-3.732,0.601-7.073,2.156-9.383,4.215c-1.163,1.026-2.092,2.182-2.68,3.414c-0.603,1.255-0.908,2.445-0.952,3.843
			C3.661,27.687,3.571,38.522,3.48,49.314c-0.009,2.699-0.017,5.396-0.026,8.093l-0.012,4.038c0.01,1.354-0.09,2.693,0.212,3.975
			c0.52,2.596,2.385,5.039,5.126,6.893c2.726,1.864,6.476,3.041,10.286,3.343c3.945,0.138,7.981,0.049,11.953,0.062
			c3.985-0.006,7.96-0.013,11.926-0.019c7.932-0.015,15.824-0.027,23.668-0.041c15.689-0.06,31.189-0.112,46.434-0.171
			c30.487-0.114,59.959-0.325,87.906-0.32c13.976-0.005,27.568-0.066,40.716-0.023c13.148,0.035,25.852,0.071,38.047,0.105
			c24.395,0.135,46.749,0.259,66.567,0.37c19.819,0.097,37.095,0.257,51.325,0.258c3.559,0.007,6.924,0.015,10.09,0.021
			c3.162-0.031,6.163,0.131,8.841-0.17c5.436-0.625,9.259-2.83,11.364-4.871c2.189-2.062,2.879-4.016,3.196-5.274
			c0.176-0.638,0.194-1.138,0.22-1.472c0.029-0.334,0.038-0.502,0.038-0.502H431.36L431.36,63.607z"/>
	</g>
</g>
<linearGradient id="SVGID_1_" gradientUnits="userSpaceOnUse" x1="158.8154" y1="-780.2026" x2="516.418" y2="-780.2026" gradientTransform="matrix(1.2012 9.855800e-05 8.070691e-05 -1 -189.855 -743.524)">
	<stop  offset="0" style="stop-color:#002E62"/>
	<stop  offset="0.1453" style="stop-color:#003269"/>
	<stop  offset="0.3518" style="stop-color:#003E7B"/>
	<stop  offset="0.5674" style="stop-color:#004E96"/>
	<stop  offset="0.6745" style="stop-color:#003C7A"/>
	<stop  offset="0.7838" style="stop-color:#002E66"/>
	<stop  offset="0.8927" style="stop-color:#00265A"/>
	<stop  offset="1" style="stop-color:#002356"/>
</linearGradient>
<path fill="url(#SVGID_1_)" stroke="#000000" stroke-width="1.6308" stroke-miterlimit="10" d="M430.402,60.152
	c-0.001,6.896-8.067,12.492-18.028,12.492l-393.5-0.033c-9.957,0-18.025-5.596-18.024-12.493l0.004-46.847
	c0-6.897,8.07-12.493,18.026-12.492l393.499,0.033c9.962,0.001,18.028,5.598,18.026,12.495L430.402,60.152L430.402,60.152z"/>
<path d="M430.56,60.157c0,0-0.013,0.17-0.034,0.504s-0.033,0.832-0.206,1.491c-0.315,1.298-0.992,3.285-3.215,5.408
	c-2.133,2.097-6.028,4.377-11.618,5.045c-1.373,0.184-2.856,0.207-4.332,0.205c-1.487,0.004-3.025,0.006-4.612,0.01
	c-3.174,0.007-6.548,0.014-10.113,0.021c-14.259-0.002-31.572,0.154-51.434,0.251c-19.86,0.105-42.27,0.227-66.714,0.358
	c-12.221,0.032-24.955,0.063-38.131,0.1c-13.177,0.042-26.802-0.022-40.806-0.03c-28.006,0-57.545-0.215-88.102-0.338
	c-30.562-0.101-62.144-0.203-94.235-0.311c-4.144-0.312-8.059-1.545-10.978-3.516c-2.916-1.949-4.904-4.533-5.477-7.276
	c-0.331-1.384-0.231-2.75-0.25-4.088l-0.013-4.048c-0.008-2.7-0.015-5.403-0.024-8.11C0.177,35.007,0.086,24.14-0.005,13.271
	c0.02-2.802,1.294-5.706,3.871-7.976c2.516-2.294,6.205-4.058,10.385-4.767c2.046-0.38,4.326-0.453,6.301-0.428l6.1-0.02
	c4.065-0.015,8.127-0.029,12.184-0.042c16.232-0.056,32.401-0.111,48.443-0.167c32.084-0.054,63.658-0.106,94.214-0.159
	c30.557,0.009,60.092,0.017,88.102,0.024c28.01-0.015,54.489,0.1,78.936,0.202c12.221,0.069,23.935,0.136,35.075,0.2
	c5.57,0.037,10.997,0.071,16.271,0.105c2.639,0.017,5.238,0.034,7.801,0.051c2.55,0.046,5.081-0.067,7.649,0.22
	c5.152,0.583,9.514,2.658,12.169,5.299c1.342,1.32,2.282,2.778,2.817,4.265c0.559,1.48,0.615,3.023,0.556,4.436
	c-0.092,5.731-0.138,10.996-0.147,15.75c-0.104,19.02-0.161,29.886-0.161,29.886L430.56,60.157L430.56,60.157z M430.246,60.152
	c0,0-0.054-10.868-0.155-29.887c-0.012-4.754-0.058-10.019-0.146-15.75c0.018-1.447-0.075-2.855-0.64-4.267
	c-0.545-1.402-1.47-2.768-2.767-3.993c-2.553-2.455-6.716-4.333-11.412-4.807c-2.342-0.242-4.889-0.108-7.45-0.123
	c-2.562,0.017-5.16,0.033-7.801,0.05c-5.275,0.033-10.701,0.068-16.271,0.102c-11.143,0.062-22.854,0.127-35.076,0.195
	C324.085,1.77,297.604,1.88,269.595,1.86c-28.01,0.003-57.547,0.007-88.104,0.01c-30.556-0.056-62.128-0.115-94.211-0.175
	c-16.041-0.056-32.21-0.114-48.442-0.173c-4.058-0.014-8.121-0.028-12.184-0.043l-6.1-0.022c-2.087-0.036-3.914,0.02-5.805,0.344
	c-3.74,0.603-7.087,2.161-9.403,4.226c-2.377,2.068-3.562,4.627-3.637,7.245c-0.092,10.866-0.184,21.734-0.275,32.56
	c-0.007,2.707-0.017,5.41-0.026,8.109L1.396,57.99c0.01,1.354-0.092,2.699,0.213,3.982c0.524,2.598,2.394,5.049,5.141,6.9
	c2.731,1.872,6.492,3.048,10.31,3.352c3.955,0.135,7.997,0.049,11.978,0.062c3.992-0.007,7.978-0.016,11.953-0.021
	c7.947-0.016,15.858-0.026,23.719-0.041c15.723-0.06,31.256-0.115,46.534-0.17c30.555-0.115,60.095-0.328,88.101-0.322
	c14.004-0.006,27.627-0.067,40.807-0.023c13.176,0.037,25.906,0.073,38.131,0.105c24.443,0.137,46.853,0.261,66.714,0.369
	c19.859,0.1,37.175,0.258,51.434,0.26c3.565,0.009,6.939,0.017,10.113,0.021c3.168-0.031,6.181,0.131,8.86-0.173
	c5.446-0.626,9.279-2.836,11.386-4.883c2.197-2.067,2.883-4.024,3.203-5.289c0.176-0.64,0.194-1.142,0.218-1.476
	c0.025-0.334,0.037-0.504,0.037-0.504L430.246,60.152L430.246,60.152z"/>
<g id="Layer_2">
</g>
<g>
	<g>
		
			<text transform="matrix(0.903 0.4296 -0.4296 0.903 38.3057 42.9375)" fill="#FFFFFF" font-family="'TrajanPro-Regular'" font-size="45.9792">$</text>
		<g>
			<path fill="#FFFFFF" d="M53.98,63.45c0,0-0.058-0.769,0.083-2.083c0.066-0.659,0.198-1.45,0.407-2.354
				c0.231-0.896,0.518-1.912,1-2.986c0.487-1.065,1.115-2.229,2.171-3.309c0.525-0.537,1.192-1.051,2.035-1.385
				c0.424-0.154,0.879-0.277,1.354-0.307c0.236-0.012,0.486-0.025,0.667,0l0.354,0.046c0.077,0.013,0.145,0.02,0.31,0.058
				c0.062,0.018,0.056,0.014,0.171,0.051l0.135,0.055c0.013,0.002,0.205,0.101,0.286,0.172c0.044,0.029,0.289,0.218,0.437,0.607
				c0.117,0.334,0.09,0.66-0.047,0.978c-0.136,0.264-0.152,0.245-0.253,0.366c-0.106,0.105-0.131,0.117-0.166,0.146
				c-0.294,0.192-0.343,0.175-0.433,0.211c-0.082,0.024-0.142,0.037-0.202,0.05c-0.117,0.021-0.219,0.039-0.318,0.049
				c-0.2,0.02-0.387,0.027-0.573,0.035c-0.371,0.016-0.735,0.019-1.101,0.018c-0.729,0.002-1.457-0.003-2.182,0.04
				c-1.45,0.077-2.888,0.338-4.325,0.683c-1.435,0.35-2.867,0.807-4.298,1.104c-1.432,0.289-2.856,0.459-4.239,0.619
				c-1.383,0.147-2.73,0.25-4.012,0.215c-1.282-0.021-2.497-0.153-3.615-0.312c-1.118-0.162-2.14-0.372-3.034-0.625
				c-0.896-0.238-1.663-0.521-2.282-0.783c-0.619-0.265-1.086-0.518-1.398-0.699c-0.305-0.195-0.468-0.301-0.468-0.301l0.097-0.318
				c0,0,0.739-0.021,2.032-0.057c0.63-0.029,1.395-0.064,2.272-0.105c0.87-0.051,1.851-0.106,2.921-0.168
				c1.068-0.057,2.225-0.146,3.451-0.182c1.226-0.052,2.523-0.026,3.872-0.012c1.35,0.027,2.747,0.008,4.177,0.057
				c1.431,0.056,2.903,0.217,4.366,0.227c1.462,0.004,2.916-0.121,4.305-0.48c0.695-0.179,1.373-0.416,2.028-0.673
				c0.32-0.134,0.639-0.267,0.956-0.396c0.153-0.067,0.303-0.138,0.437-0.205l0.177-0.095c0.023-0.015,0.043-0.027,0.042-0.034
				c-0.01,0.007,0.02-0.048-0.203,0.099c-0.026,0.021-0.042,0.026-0.142,0.124c-0.095,0.114-0.101,0.088-0.233,0.343
				c-0.136,0.307-0.154,0.621-0.046,0.945c0.143,0.381,0.383,0.562,0.416,0.585c0.072,0.065,0.259,0.157,0.259,0.156l0.105,0.043
				l0.109,0.034c0.082,0.021,0.064,0.021,0.057,0.029c-0.026,0.01-0.097,0.022-0.156,0.037c-0.159,0.021-0.244,0.055-0.342,0.076
				c-0.194,0.051-0.379,0.127-0.564,0.219c-0.373,0.185-0.749,0.467-1.118,0.801c-0.726,0.691-1.376,1.563-1.921,2.42
				c-1.115,1.72-1.913,3.348-2.528,4.464c-0.612,1.14-0.962,1.788-0.962,1.788L53.98,63.45z"/>
		</g>
	</g>
	<g enable-background="new    ">
		<path fill="#FFFFFF" d="M95.758,32.244c0-7.477,0-8.819-0.096-10.353c-0.096-1.63-0.479-2.396-2.061-2.732
			c-0.383-0.096-1.198-0.144-1.63-0.144c-0.191,0-0.383-0.096-0.383-0.287c0-0.288,0.24-0.384,0.767-0.384
			c1.102,0,2.396,0,3.451,0.048l1.965,0.048c0.959,0,10.688,0.048,11.791,0c0.911-0.048,1.677-0.048,2.109-0.191
			c0.288-0.096,0.479-0.287,0.671-0.287c0.191,0,0.288,0.191,0.288,0.431c0,0.336-0.24,0.911-0.383,2.253
			c-0.048,0.479-0.144,2.588-0.24,3.163c-0.048,0.239-0.144,0.527-0.383,0.527c-0.24,0-0.336-0.239-0.336-0.575
			c0-0.384-0.144-1.198-0.431-1.821s-1.39-1.485-3.259-1.533l-7.381-0.145c-0.288,0-0.431,0.145-0.431,0.527v13.229
			c0,0.287,0.048,0.431,0.335,0.431l6.135-0.048c0.815,0,1.486,0,2.157-0.048c1.15-0.096,1.773-0.239,2.205-0.862
			c0.192-0.24,0.335-0.479,0.527-0.479c0.192,0,0.24,0.144,0.24,0.384c0,0.287-0.24,1.103-0.383,2.684
			c-0.096,0.959-0.192,2.876-0.192,3.211c0,0.432,0,0.911-0.335,0.911c-0.24,0-0.335-0.192-0.335-0.433
			c-0.048-0.479-0.096-1.149-0.288-1.726c-0.24-0.671-1.007-1.533-2.492-1.726c-1.198-0.144-6.422-0.144-7.237-0.144
			c-0.24,0-0.335,0.096-0.335,0.432v4.074c0,4.602,0,8.387,0.24,10.4c0.144,1.39,0.431,2.443,1.869,2.636
			c0.671,0.097,1.725,0.191,2.157,0.191c0.288,0,0.383,0.144,0.383,0.288c0,0.238-0.24,0.383-0.767,0.383
			c-2.636,0-5.656-0.145-5.896-0.145c-0.239,0-3.259,0.145-4.697,0.145c-0.527,0-0.767-0.096-0.767-0.383
			c0-0.146,0.096-0.288,0.383-0.288c0.431,0,1.006-0.097,1.438-0.191c0.959-0.19,1.198-1.246,1.39-2.636
			c0.24-2.014,0.24-5.801,0.24-10.4v-8.436H95.758z"/>
		<path fill="#FFFFFF" d="M126.859,42.74c0,3.93,0,7.142,0.191,8.818c0.144,1.197,0.288,1.965,1.534,2.156
			c0.623,0.096,1.534,0.191,1.917,0.191c0.239,0,0.335,0.191,0.335,0.336c0,0.191-0.192,0.335-0.671,0.335
			c-2.348,0-5.08-0.144-5.272-0.144c-0.239,0-2.875,0.144-4.169,0.144c-0.432,0-0.671-0.097-0.671-0.335
			c0-0.145,0.096-0.336,0.335-0.336c0.383,0,0.911-0.096,1.294-0.191c0.815-0.191,0.958-0.959,1.102-2.156
			c0.192-1.678,0.24-4.89,0.24-8.818v-7.189c0-6.326,0-7.477-0.096-8.771c-0.096-1.39-0.431-2.013-1.342-2.205
			c-0.479-0.096-1.007-0.144-1.294-0.144c-0.191,0-0.335-0.191-0.335-0.335c0-0.24,0.192-0.336,0.671-0.336
			c1.39,0,4.026,0.096,4.266,0.096c0.192,0,2.924-0.096,4.218-0.096c0.479,0,0.671,0.096,0.671,0.336
			c0,0.144-0.191,0.335-0.335,0.335c-0.288,0-0.575,0-1.054,0.096c-1.15,0.24-1.39,0.815-1.486,2.253
			c-0.048,1.294-0.048,2.444-0.048,8.771L126.859,42.74L126.859,42.74z"/>
		<path fill="#FFFFFF" d="M138.119,54.003c-0.575-0.287-0.623-0.431-0.623-1.533c0-2.013,0.191-3.643,0.239-4.312
			c0-0.433,0.096-0.671,0.335-0.671c0.24,0,0.384,0.144,0.384,0.479c0,0.336,0,0.911,0.144,1.486
			c0.671,2.972,3.834,4.025,6.662,4.025c4.17,0,6.327-2.349,6.327-5.416c0-2.924-1.582-4.312-5.32-7.094l-1.917-1.438
			c-4.553-3.403-6.039-5.896-6.039-8.724c0-4.792,3.787-7.668,9.346-7.668c1.677,0,3.355,0.239,4.361,0.479
			c0.815,0.191,1.15,0.191,1.486,0.191s0.431,0.048,0.431,0.288c0,0.191-0.191,1.533-0.191,4.313c0,0.623-0.048,0.91-0.336,0.91
			c-0.287,0-0.335-0.191-0.383-0.527c-0.048-0.479-0.383-1.581-0.623-2.013c-0.288-0.479-1.677-2.013-5.464-2.013
			c-3.067,0-5.607,1.533-5.607,4.409c0,2.588,1.294,4.073,5.464,6.901l1.198,0.814c5.128,3.5,6.901,6.327,6.901,9.825
			c0,2.396-0.911,4.985-3.93,6.95c-1.773,1.15-4.41,1.438-6.71,1.438C142.289,55.105,139.844,54.818,138.119,54.003z"/>
		<path fill="#FFFFFF" d="M167.111,50.744c-4.121-3.547-5.128-8.195-5.128-12.078c0-2.731,1.007-7.477,4.745-11.119
			c2.54-2.444,6.374-4.361,12.845-4.361c1.678,0,4.073,0.144,6.135,0.479c1.581,0.287,2.924,0.575,4.312,0.623
			c0.432,0,0.527,0.191,0.527,0.432c0,0.335-0.097,0.814-0.191,2.3c-0.049,1.343-0.049,3.595-0.096,4.17
			c-0.049,0.623-0.24,0.862-0.479,0.862c-0.288,0-0.335-0.287-0.335-0.862c0-1.581-0.672-3.211-1.773-4.074
			c-1.485-1.246-4.554-2.252-8.291-2.252c-5.416,0-8.004,1.438-9.49,2.827c-3.114,2.876-3.785,6.519-3.785,10.641
			c0,7.812,6.183,14.762,15.191,14.762c3.164,0,5.272-0.24,6.949-1.917c0.911-0.911,1.486-2.637,1.631-3.403
			c0.096-0.432,0.144-0.574,0.432-0.574c0.191,0,0.384,0.287,0.384,0.574c0,0.289-0.576,3.834-1.007,5.226
			c-0.239,0.767-0.336,0.91-1.055,1.198c-1.727,0.671-4.889,0.91-7.621,0.91C174.685,55.105,170.419,53.62,167.111,50.744z"/>
		<path fill="#FFFFFF" d="M207.126,24.575c0.527-1.342,0.719-1.581,1.006-1.581c0.433,0,0.575,0.575,1.008,1.485
			c0.767,1.726,7.523,18.548,10.111,24.73c1.534,3.643,2.684,4.17,3.596,4.458c0.623,0.19,1.246,0.239,1.678,0.239
			c0.238,0,0.527,0.096,0.527,0.336c0,0.238-0.479,0.335-0.959,0.335c-0.623,0-3.738,0-6.662-0.097
			c-0.814-0.047-1.485-0.047-1.485-0.287c0-0.191,0.097-0.191,0.287-0.287c0.239-0.096,0.672-0.432,0.384-1.104l-3.786-9.346
			c-0.096-0.191-0.146-0.239-0.384-0.239h-9.729c-0.191,0-0.336,0.097-0.433,0.335l-2.396,6.52c-0.385,1.007-0.623,2.013-0.623,2.73
			c0,0.815,0.719,1.104,1.438,1.104h0.385c0.336,0,0.432,0.144,0.432,0.336c0,0.238-0.24,0.335-0.623,0.335
			c-1.008,0-3.309-0.144-3.787-0.144c-0.432,0-2.54,0.144-4.266,0.144c-0.527,0-0.814-0.097-0.814-0.335
			c0-0.192,0.191-0.336,0.383-0.336c0.288,0,0.911-0.049,1.246-0.096c1.918-0.24,2.732-1.679,3.547-3.738L207.126,24.575z
			 M211.822,41.542c0.192,0,0.192-0.097,0.144-0.287l-4.17-11.168c-0.238-0.623-0.479-0.623-0.719,0l-3.93,11.168
			c-0.049,0.19,0,0.287,0.145,0.287H211.822z"/>
		<path fill="#FFFFFF" d="M234.44,42.836c0,5.991,0.096,8.436,0.861,9.154c0.672,0.671,2.301,0.959,5.607,0.959
			c2.204,0,4.073-0.049,5.08-1.246c0.527-0.623,0.861-1.486,1.007-2.301c0.048-0.288,0.191-0.527,0.433-0.527
			c0.19,0,0.287,0.191,0.287,0.623s-0.287,2.876-0.623,4.074c-0.287,0.958-0.433,1.102-2.685,1.102
			c-3.021,0-5.368-0.048-7.334-0.144c-1.916-0.048-3.354-0.097-4.601-0.097c-0.191,0-0.912,0-1.727,0.049
			c-0.861,0.048-1.773,0.096-2.443,0.096c-0.432,0-0.672-0.096-0.672-0.335c0-0.146,0.096-0.336,0.336-0.336
			c0.383,0,0.91-0.097,1.295-0.191c0.813-0.19,0.91-0.959,1.103-2.157c0.239-1.677,0.239-4.889,0.239-8.817v-7.189
			c0-6.326,0-7.477-0.096-8.771c-0.097-1.39-0.336-2.062-1.727-2.253c-0.336-0.048-1.055-0.096-1.438-0.096
			c-0.146,0-0.336-0.191-0.336-0.335c0-0.24,0.19-0.336,0.672-0.336c1.916,0,4.553,0.096,4.791,0.096
			c0.192,0,3.354-0.096,4.649-0.096c0.433,0,0.671,0.096,0.671,0.336c0,0.144-0.191,0.287-0.335,0.287
			c-0.288,0-0.911,0.048-1.391,0.096c-1.246,0.24-1.486,0.863-1.582,2.301c-0.048,1.294-0.048,2.444-0.048,8.771v7.284H234.44z"/>
		<path fill="#FFFFFF" d="M273.255,50.073c-4.648-4.171-5.8-9.634-5.8-14.188c0-3.211,1.104-8.819,5.368-13.085
			c2.875-2.875,7.236-5.128,14.617-5.128c1.918,0,4.602,0.144,6.95,0.575c1.82,0.336,3.354,0.623,4.889,0.719
			c0.526,0.048,0.623,0.24,0.623,0.527c0,0.384-0.144,0.959-0.239,2.684c-0.096,1.582-0.096,4.218-0.145,4.938
			c-0.048,0.72-0.145,1.007-0.433,1.007c-0.335,0-0.383-0.335-0.383-1.007c0-1.869-0.768-3.834-2.014-4.888
			c-1.677-1.438-5.367-2.732-9.585-2.732c-6.374,0-9.346,1.869-11.023,3.499c-3.499,3.354-4.312,7.62-4.312,12.509
			c0,9.154,7.045,17.542,17.302,17.542c3.595,0,6.423-0.432,8.34-2.396c1.007-1.055,1.63-3.162,1.772-4.025
			c0.097-0.527,0.191-0.719,0.479-0.719c0.239,0,0.335,0.336,0.335,0.719c0,0.336-0.575,4.506-1.054,6.135
			c-0.288,0.911-0.385,1.008-1.246,1.391c-1.918,0.768-5.561,1.103-8.628,1.103C281.882,55.249,277.04,53.477,273.255,50.073z"/>
		<path fill="#FFFFFF" d="M314.227,42.836c0,5.991,0.096,8.436,0.861,9.154c0.673,0.671,2.302,0.959,5.607,0.959
			c2.205,0,4.074-0.049,5.08-1.246c0.527-0.623,0.863-1.486,1.008-2.301c0.047-0.288,0.191-0.527,0.431-0.527
			c0.192,0,0.288,0.191,0.288,0.623s-0.288,2.876-0.623,4.074c-0.288,0.958-0.432,1.102-2.685,1.102
			c-3.021,0-5.368-0.048-7.333-0.144c-1.917-0.048-3.355-0.097-4.603-0.097c-0.19,0-0.909,0-1.725,0.049
			c-0.863,0.048-1.772,0.096-2.444,0.096c-0.432,0-0.671-0.096-0.671-0.335c0-0.146,0.097-0.336,0.336-0.336
			c0.384,0,0.91-0.097,1.293-0.191c0.815-0.19,0.911-0.959,1.104-2.157c0.239-1.677,0.239-4.889,0.239-8.817v-7.189
			c0-6.326,0-7.477-0.097-8.771c-0.096-1.39-0.335-2.062-1.725-2.253c-0.336-0.048-1.055-0.096-1.438-0.096
			c-0.145,0-0.336-0.191-0.336-0.335c0-0.24,0.191-0.336,0.671-0.336c1.917,0,4.555,0.096,4.792,0.096
			c0.192,0,3.355-0.096,4.649-0.096c0.432,0,0.671,0.096,0.671,0.336c0,0.144-0.19,0.287-0.335,0.287
			c-0.288,0-0.911,0.048-1.39,0.096c-1.246,0.24-1.486,0.863-1.582,2.301c-0.048,1.294-0.048,2.444-0.048,8.771v7.284H314.227z"/>
		<path fill="#FFFFFF" d="M339.864,42.74c0,3.93,0,7.142,0.191,8.818c0.144,1.197,0.287,1.965,1.532,2.156
			c0.623,0.096,1.533,0.191,1.918,0.191c0.238,0,0.335,0.191,0.335,0.336c0,0.191-0.191,0.335-0.671,0.335
			c-2.349,0-5.08-0.144-5.271-0.144c-0.239,0-2.876,0.144-4.169,0.144c-0.433,0-0.672-0.097-0.672-0.335
			c0-0.145,0.096-0.336,0.336-0.336c0.383,0,0.91-0.096,1.294-0.191c0.813-0.191,0.958-0.959,1.103-2.156
			c0.191-1.678,0.239-4.89,0.239-8.818v-7.189c0-6.326,0-7.477-0.096-8.771c-0.097-1.39-0.433-2.013-1.343-2.205
			c-0.479-0.096-1.007-0.144-1.294-0.144c-0.19,0-0.336-0.191-0.336-0.335c0-0.24,0.191-0.336,0.671-0.336
			c1.391,0,4.026,0.096,4.267,0.096c0.191,0,2.924-0.096,4.218-0.096c0.479,0,0.671,0.096,0.671,0.336
			c0,0.144-0.19,0.335-0.335,0.335c-0.288,0-0.576,0-1.055,0.096c-1.15,0.24-1.392,0.815-1.486,2.253
			c-0.047,1.294-0.047,2.444-0.047,8.771V42.74L339.864,42.74z"/>
		<path fill="#FFFFFF" d="M353.712,35.551c0-6.326,0-7.477-0.096-8.771c-0.096-1.39-0.336-2.062-1.726-2.253
			c-0.335-0.048-1.055-0.096-1.438-0.096c-0.144,0-0.336-0.191-0.336-0.335c0-0.24,0.192-0.336,0.671-0.336
			c1.918,0,4.554,0.096,4.793,0.096c0.814,0,9.969,0.048,10.928,0c0.814-0.048,1.533-0.048,1.917-0.191
			c0.239-0.048,0.433-0.24,0.575-0.24c0.191,0,0.287,0.192,0.287,0.384c0,0.288-0.19,0.767-0.335,1.917
			c-0.048,0.384-0.096,2.205-0.19,2.685c-0.049,0.191-0.192,0.431-0.385,0.431c-0.191,0-0.336-0.191-0.336-0.479
			c0-0.336-0.144-1.007-0.383-1.534c-0.24-0.527-1.246-1.198-2.876-1.198l-6.901-0.096c-0.238,0-0.336,0.096-0.336,0.432v11.119
			c0,0.239,0,0.383,0.288,0.383l5.751-0.048c0.72,0,1.343,0,1.917-0.048c1.007-0.096,1.582-0.239,1.966-0.719
			c0.191-0.239,0.384-0.432,0.526-0.432c0.192,0,0.24,0.145,0.24,0.336c0,0.239-0.288,0.91-0.384,2.253
			c-0.097,0.814-0.145,2.444-0.145,2.731c0,0.384-0.096,0.813-0.384,0.813c-0.239,0-0.287-0.19-0.287-0.383
			c-0.048-0.432-0.096-1.007-0.288-1.486c-0.19-0.574-0.862-1.103-2.156-1.293c-1.055-0.145-6.039-0.096-6.758-0.096
			c-0.24,0-0.288,0.096-0.288,0.383v3.26c0,4.025,0,7.236,0.192,8.818c0.144,1.197,0.383,1.965,1.533,2.156
			c0.623,0.096,1.534,0.191,1.917,0.191c0.239,0,0.336,0.191,0.336,0.336c0,0.191-0.191,0.335-0.671,0.335
			c-2.35,0-5.081-0.144-5.272-0.144c-0.239,0-2.875,0.144-4.17,0.144c-0.432,0-0.67-0.097-0.67-0.335
			c0-0.145,0.096-0.336,0.335-0.336c0.384,0,0.911-0.145,1.294-0.191c0.814-0.145,0.91-0.959,1.102-2.156
			c0.24-1.678,0.24-4.89,0.24-8.818v-7.189H353.712z"/>
		<path fill="#FFFFFF" d="M379.35,35.551c0-6.326,0-7.477-0.097-8.771c-0.096-1.39-0.336-2.062-1.726-2.253
			c-0.335-0.048-1.055-0.096-1.438-0.096c-0.144,0-0.336-0.191-0.336-0.335c0-0.24,0.192-0.336,0.671-0.336
			c1.917,0,4.555,0.096,4.794,0.096c0.813,0,9.969,0.048,10.928,0c0.813-0.048,1.533-0.048,1.917-0.191
			c0.239-0.048,0.432-0.24,0.575-0.24c0.19,0,0.287,0.192,0.287,0.384c0,0.288-0.191,0.767-0.336,1.917
			c-0.048,0.384-0.096,2.205-0.19,2.685c-0.048,0.191-0.192,0.431-0.384,0.431c-0.192,0-0.336-0.191-0.336-0.479
			c0-0.336-0.145-1.007-0.384-1.534c-0.239-0.527-1.246-1.198-2.876-1.198l-6.9-0.096c-0.239,0-0.336,0.096-0.336,0.432v11.119
			c0,0.239,0,0.383,0.288,0.383l5.751-0.048c0.719,0,1.342,0,1.917-0.048c1.007-0.096,1.582-0.239,1.966-0.719
			c0.19-0.239,0.383-0.432,0.525-0.432c0.192,0,0.24,0.145,0.24,0.336c0,0.239-0.288,0.91-0.384,2.253
			c-0.096,0.814-0.145,2.444-0.145,2.731c0,0.384-0.096,0.813-0.384,0.813c-0.238,0-0.287-0.19-0.287-0.383
			c-0.048-0.432-0.096-1.007-0.288-1.486c-0.19-0.574-0.861-1.103-2.155-1.293c-1.056-0.145-6.039-0.096-6.758-0.096
			c-0.24,0-0.288,0.096-0.288,0.383v3.26c0,4.025,0,7.236,0.191,8.818c0.145,1.197,0.383,1.965,1.533,2.156
			c0.623,0.096,1.534,0.191,1.917,0.191c0.24,0,0.336,0.191,0.336,0.336c0,0.191-0.191,0.335-0.671,0.335
			c-2.349,0-5.081-0.144-5.272-0.144c-0.238,0-2.876,0.144-4.17,0.144c-0.431,0-0.671-0.097-0.671-0.335
			c0-0.145,0.097-0.336,0.336-0.336c0.384,0,0.91-0.145,1.294-0.191c0.814-0.145,0.91-0.959,1.104-2.156
			c0.239-1.678,0.239-4.89,0.239-8.818v-7.189H379.35z"/>
	</g>
</g>
</svg>
