<?xml version="1.0" standalone="no"?>
<!DOCTYPE svg PUBLIC "-//W3C//DTD SVG 1.1//EN" "http://www.w3.org/Graphics/SVG/1.1/DTD/svg11.dtd">
<svg version="1.1" id="Layer_1" xmlns="http://www.w3.org/2000/svg" xmlns:xlink="http://www.w3.org/1999/xlink" x="0px" y="0px"
	 width="288px" height="77.25px" viewBox="0 0 288 77.25" enable-background="new 0 0 288 77.25" xml:space="preserve" preserveAspectRatio="none">
<g>
	<g>
		<g>
			<g>
				<linearGradient id="SVGID_1_" gradientUnits="userSpaceOnUse" x1="2.1704" y1="40.4521" x2="287.3252" y2="40.4521">
					<stop  offset="0" style="stop-color:#002E62"/>
					<stop  offset="0.6767" style="stop-color:#00285B"/>
					<stop  offset="1" style="stop-color:#002356"/>
				</linearGradient>
				<path fill-rule="evenodd" clip-rule="evenodd" fill="url(#SVGID_1_)" d="M287.325,63.766c0,6.869-5.356,12.438-11.967,12.438
					H14.136c-6.609,0-11.965-5.569-11.965-12.438v-46.63C2.17,10.27,7.527,4.7,14.136,4.7h261.223c6.61,0,11.967,5.57,11.967,12.436
					V63.766z"/>
				<path d="M287.429,63.771c0,0-0.008,0.169-0.022,0.501c-0.014,0.333-0.022,0.828-0.138,1.485
					c-0.208,1.291-0.659,3.27-2.133,5.384c-1.415,2.086-4,4.358-7.712,5.023c-0.911,0.182-1.896,0.206-2.875,0.205
					c-0.987,0.003-2.008,0.006-3.062,0.01c-2.107,0.006-4.347,0.013-6.713,0.021c-9.466-0.001-20.96,0.158-34.145,0.254
					c-13.185,0.108-28.06,0.229-44.287,0.362c-8.113,0.033-16.565,0.067-25.312,0.103c-8.747,0.042-17.791-0.021-27.087-0.027
					c-18.594,0.002-38.201-0.21-58.485-0.328c-20.289-0.098-41.254-0.199-62.557-0.302c-2.751-0.309-5.35-1.536-7.289-3.496
					c-1.937-1.941-3.257-4.513-3.637-7.245c-0.219-1.375-0.153-2.737-0.167-4.067l-0.008-4.029
					c-0.005-2.688-0.011-5.379-0.017-8.073c-0.06-10.776-0.121-21.594-0.181-32.412c0.012-2.79,0.858-5.68,2.568-7.94
					c1.67-2.285,4.119-4.04,6.894-4.746C12.422,4.073,13.936,4,15.246,4.024l4.049-0.021c2.699-0.014,5.396-0.028,8.089-0.042
					c10.776-0.057,21.509-0.114,32.158-0.17c21.298-0.057,42.258-0.112,62.542-0.166c20.284,0.006,39.892,0.011,58.485,0.017
					c18.594-0.017,36.173,0.095,52.4,0.194c8.113,0.069,15.889,0.135,23.284,0.197c3.697,0.036,7.3,0.07,10.802,0.104
					c1.751,0.017,3.478,0.033,5.178,0.05c1.692,0.045,3.373-0.067,5.078,0.218c3.421,0.58,6.314,2.645,8.08,5.274
					c0.892,1.313,1.516,2.765,1.871,4.245c0.371,1.473,0.408,3.009,0.369,4.415c-0.06,5.705-0.091,10.945-0.099,15.678
					c-0.067,18.932-0.105,29.75-0.105,29.75V63.771z M287.222,63.766c0,0-0.038-10.818-0.105-29.75
					c-0.008-4.733-0.039-9.973-0.099-15.678c0.014-1.441-0.049-2.842-0.425-4.248c-0.361-1.396-0.975-2.754-1.834-3.975
					c-1.696-2.442-4.46-4.311-7.577-4.782c-1.555-0.241-3.246-0.107-4.947-0.121c-1.7,0.017-3.427,0.033-5.178,0.05
					c-3.502,0.034-7.104,0.068-10.802,0.104c-7.396,0.062-15.171,0.128-23.284,0.197c-16.228,0.1-33.807,0.211-52.4,0.194
					c-18.594,0.005-38.201,0.011-58.485,0.017c-20.284-0.054-41.244-0.109-62.542-0.166c-10.649-0.056-21.382-0.113-32.158-0.17
					c-2.694-0.014-5.391-0.028-8.089-0.042l-4.049-0.021c-1.385-0.035-2.598,0.02-3.853,0.343C8.911,6.319,6.688,7.871,5.152,9.926
					c-1.578,2.059-2.365,4.607-2.414,7.212C2.679,27.956,2.618,38.774,2.558,49.55c-0.006,2.694-0.011,5.385-0.017,8.073
					l-0.008,4.029c0.006,1.35-0.061,2.687,0.142,3.964c0.347,2.587,1.588,5.025,3.413,6.871c1.813,1.863,4.31,3.032,6.845,3.332
					c2.625,0.134,5.309,0.048,7.952,0.064c2.651-0.007,5.296-0.015,7.935-0.022c5.277-0.015,10.528-0.029,15.747-0.043
					c10.438-0.059,20.749-0.116,30.891-0.173c20.284-0.118,39.892-0.331,58.485-0.328c9.297-0.006,18.34-0.07,27.087-0.027
					c8.747,0.036,17.199,0.069,25.312,0.103c16.228,0.133,31.103,0.254,44.287,0.362c13.185,0.096,24.679,0.255,34.145,0.254
					c2.366,0.007,4.605,0.014,6.713,0.021c2.104-0.034,4.102,0.129,5.883-0.172c3.615-0.624,6.158-2.825,7.558-4.862
					c1.456-2.06,1.913-4.007,2.124-5.266c0.116-0.635,0.13-1.134,0.145-1.466c0.018-0.333,0.026-0.501,0.026-0.501V63.766z"/>
			</g>
		</g>
	</g>
</g>
<g>
	<g>
		<polygon fill="#FFFFFF" points="65.46,40.621 49.729,49.89 34,59.158 34,40.621 34,22.084 49.729,31.353 		"/>
		<g>
			<path fill="#FFFFFF" stroke="#FFFFFF" stroke-width="0.6922" stroke-miterlimit="10" d="M81.789,35.972
				c0-7.166,0-8.452-0.092-9.923c-0.093-1.56-0.461-2.295-1.975-2.618c-0.371-0.09-1.146-0.135-1.561-0.135
				c-0.186,0-0.368-0.092-0.368-0.276c0-0.275,0.228-0.371,0.733-0.371c2.068,0,4.96,0.139,5.193,0.139
				c0.502,0,3.992-0.139,5.415-0.139c2.896,0,5.969,0.278,8.405,2.022c1.146,0.827,3.171,3.078,3.171,6.247
				c0,3.398-1.428,6.797-5.557,10.608c3.763,4.822,6.886,8.91,9.552,11.758c2.479,2.618,4.453,3.121,5.602,3.305
				c0.871,0.139,1.516,0.139,1.791,0.139c0.229,0,0.412,0.138,0.412,0.272c0,0.279-0.275,0.371-1.1,0.371h-3.264
				c-2.57,0-3.721-0.232-4.91-0.874c-1.979-1.056-3.583-3.309-6.202-6.751c-1.931-2.526-4.087-5.602-5.004-6.796
				c-0.185-0.185-0.323-0.277-0.601-0.277l-5.647-0.092c-0.228,0-0.32,0.138-0.32,0.369v1.103c0,4.408,0,8.035,0.229,9.964
				c0.139,1.331,0.416,2.34,1.792,2.526c0.645,0.092,1.652,0.184,2.067,0.184c0.277,0,0.369,0.138,0.369,0.272
				c0,0.231-0.233,0.371-0.737,0.371c-2.525,0-5.419-0.139-5.647-0.139c-0.047,0-2.939,0.139-4.319,0.139
				c-0.505,0-0.733-0.091-0.733-0.371c0-0.135,0.093-0.272,0.369-0.272c0.412,0,0.962-0.092,1.375-0.184
				c0.917-0.187,1.145-1.196,1.333-2.526c0.23-1.93,0.23-5.557,0.23-9.964V35.972z M85.463,39.964c0,0.231,0.092,0.415,0.32,0.551
				c0.69,0.415,2.801,0.737,4.821,0.737c1.104,0,2.388-0.139,3.445-0.874c1.609-1.102,2.803-3.582,2.803-7.073
				c0-5.74-3.032-9.184-7.948-9.183c-1.377,0-2.616,0.137-3.074,0.275c-0.23,0.092-0.368,0.274-0.368,0.55V39.964z"/>
			<path fill="#FFFFFF" stroke="#FFFFFF" stroke-width="0.6922" stroke-miterlimit="10" d="M115.378,39.138
				c0-6.063,0-7.164-0.092-8.402c-0.09-1.332-0.32-1.976-1.654-2.16c-0.32-0.047-1.014-0.092-1.376-0.092
				c-0.137,0-0.322-0.182-0.322-0.322c0-0.228,0.185-0.319,0.64-0.319c1.84,0,4.455,0.091,4.687,0.091c0.278,0,8.727,0.047,9.642,0
				c0.784-0.045,1.519-0.184,1.838-0.231c0.185-0.045,0.368-0.182,0.553-0.182c0.135,0,0.184,0.182,0.184,0.368
				c0,0.273-0.231,0.735-0.326,1.835c-0.043,0.368-0.135,2.114-0.227,2.572c-0.044,0.183-0.185,0.415-0.368,0.415
				c-0.229,0-0.32-0.186-0.32-0.507c0-0.274-0.046-0.918-0.229-1.376c-0.276-0.644-0.69-0.918-2.894-1.193
				c-0.688-0.092-5.374-0.139-5.831-0.139c-0.183,0-0.231,0.139-0.231,0.414v10.606c0,0.279,0,0.415,0.231,0.415
				c0.505,0,5.831,0,6.75-0.091c0.965-0.092,1.563-0.137,1.976-0.553c0.272-0.274,0.458-0.505,0.596-0.505s0.23,0.091,0.23,0.321
				c0,0.232-0.23,0.874-0.321,2.161c-0.091,0.779-0.184,2.248-0.184,2.525c0,0.32-0.092,0.735-0.371,0.735
				c-0.18,0-0.271-0.139-0.271-0.37c0-0.365,0-0.78-0.184-1.286c-0.138-0.55-0.506-1.009-2.067-1.194
				c-1.102-0.137-5.419-0.185-6.107-0.185c-0.229,0-0.277,0.138-0.277,0.277v3.26c0,1.333-0.044,5.88,0,6.66
				c0.093,2.617,0.826,3.125,4.824,3.125c1.055,0,2.986,0,4.045-0.415c1.053-0.459,1.603-1.149,1.834-2.709
				c0.089-0.46,0.184-0.598,0.413-0.598s0.274,0.321,0.274,0.598c0,0.275-0.318,2.937-0.55,3.765
				c-0.276,1.012-0.689,1.012-2.25,1.012c-3.031,0-5.375-0.091-7.026-0.139c-1.699-0.092-2.753-0.092-3.353-0.092
				c-0.091,0-0.871,0-1.744,0.048c-0.783,0.044-1.701,0.091-2.342,0.091c-0.415,0-0.646-0.091-0.646-0.324
				c0-0.137,0.089-0.319,0.322-0.319c0.369,0,0.872-0.139,1.241-0.184c0.778-0.139,0.874-0.921,1.055-2.066
				c0.231-1.608,0.231-4.685,0.231-8.452V39.138z"/>
			<path fill="#FFFFFF" stroke="#FFFFFF" stroke-width="0.6922" stroke-miterlimit="10" d="M137.296,56.82
				c-0.552-0.275-0.598-0.415-0.598-1.471c0-1.929,0.182-3.489,0.233-4.133c0-0.414,0.089-0.641,0.321-0.641
				c0.227,0,0.364,0.136,0.364,0.458s0,0.874,0.136,1.424c0.645,2.847,3.676,3.858,6.384,3.858c3.996,0,6.064-2.251,6.064-5.19
				c0-2.802-1.516-4.131-5.099-6.796l-1.834-1.377c-4.365-3.262-5.789-5.65-5.789-8.358c0-4.593,3.628-7.347,8.953-7.347
				c1.607,0,3.216,0.228,4.184,0.457c0.778,0.186,1.098,0.186,1.42,0.186c0.323,0,0.412,0.045,0.412,0.273
				c0,0.184-0.182,1.472-0.182,4.134c0,0.597-0.048,0.872-0.322,0.872c-0.275,0-0.322-0.184-0.366-0.503
				c-0.044-0.46-0.366-1.517-0.599-1.928c-0.271-0.459-1.609-1.929-5.235-1.929c-2.938,0-5.371,1.47-5.371,4.225
				c0,2.479,1.238,3.904,5.234,6.614l1.149,0.78c4.912,3.351,6.612,6.062,6.612,9.413c0,2.299-0.87,4.775-3.768,6.66
				c-1.698,1.102-4.223,1.377-6.426,1.377C141.291,57.875,138.952,57.6,137.296,56.82z"/>
			<path fill="#FFFFFF" stroke="#FFFFFF" stroke-width="0.6922" stroke-miterlimit="10" d="M162.703,39.138
				c0-6.063,0-7.164-0.092-8.402c-0.089-1.241-0.322-1.976-1.654-2.16c-0.318-0.047-1.011-0.092-1.375-0.092
				c-0.137,0-0.32-0.182-0.32-0.322c0-0.228,0.184-0.319,0.642-0.319c1.838,0,4.268,0.091,4.634,0.091
				c0.37,0,2.898-0.091,4.09-0.091c0.457,0,0.688,0.091,0.688,0.319c0,0.14-0.181,0.322-0.369,0.322c-0.271,0-0.504,0-1.008,0.092
				c-1.059,0.184-1.285,0.875-1.376,2.16c-0.092,1.238-0.092,2.339-0.092,8.402v5.465c0,5.649,1.239,7.992,2.984,9.551
				c1.973,1.792,3.72,2.113,6.016,2.113c2.479,0,4.869-1.1,6.246-2.756c1.881-2.249,2.294-5.464,2.294-9.458v-4.916
				c0-6.063-0.046-7.164-0.092-8.402c-0.046-1.241-0.277-1.976-1.607-2.16c-0.319-0.047-1.009-0.092-1.376-0.092
				c-0.185,0-0.323-0.182-0.323-0.322c0-0.228,0.186-0.319,0.644-0.319c1.792,0,4.134,0.091,4.364,0.091
				c0.273,0,2.204-0.091,3.396-0.091c0.46,0,0.644,0.091,0.644,0.319c0,0.14-0.14,0.322-0.322,0.322c-0.274,0-0.507,0-1.011,0.092
				c-1.103,0.231-1.331,0.875-1.424,2.16c-0.092,1.238-0.044,2.339-0.044,8.402v4.18c0,4.225-0.553,8.956-3.767,11.711
				c-2.938,2.524-6.062,2.847-8.451,2.847c-1.331,0-5.558-0.092-8.402-2.755c-1.974-1.835-3.536-4.546-3.536-10.239V39.138z"/>
			<path fill="#FFFFFF" stroke="#FFFFFF" stroke-width="0.6922" stroke-miterlimit="10" d="M227.979,52.318
				c0.138,1.377,0.413,3.493,2.065,4.04c1.148,0.37,2.203,0.37,2.616,0.37c0.184,0,0.321,0.092,0.321,0.272
				c0,0.231-0.365,0.37-0.826,0.37c-0.92,0-5.419-0.091-6.886-0.231c-0.969-0.092-1.15-0.229-1.15-0.411
				c0-0.139,0.09-0.277,0.274-0.323c0.232-0.047,0.277-0.644,0.187-1.377l-1.927-19.749h-0.095l-9.738,19.933
				c-0.826,1.699-1.056,2.068-1.42,2.068c-0.369,0-0.602-0.369-1.38-1.792c-1.056-1.929-3.721-6.935-4.73-9.047
				c-1.193-2.48-4.453-9.046-5.144-10.655h-0.183l-1.559,17.635c-0.048,0.598-0.048,1.332-0.048,1.976
				c0,0.599,0.367,0.962,0.962,1.102c0.69,0.184,1.286,0.23,1.562,0.23c0.139,0,0.325,0.138,0.325,0.272
				c0,0.279-0.274,0.37-0.737,0.37c-1.516,0-3.441-0.139-3.767-0.139c-0.365,0-2.296,0.139-3.397,0.139
				c-0.413,0-0.688-0.091-0.688-0.37c0-0.135,0.18-0.272,0.411-0.272c0.324,0,0.599-0.047,1.195-0.139
				c1.332-0.231,1.377-1.653,1.561-3.121l2.94-25.488c0.045-0.415,0.229-0.691,0.459-0.691c0.275,0,0.6,0.137,0.826,0.599
				l12.215,24.248l11.759-24.203c0.18-0.368,0.368-0.644,0.643-0.644c0.275,0,0.503,0.322,0.595,1.056L227.979,52.318z"/>
			<path fill="#FFFFFF" stroke="#FFFFFF" stroke-width="0.6922" stroke-miterlimit="10" d="M240.172,39.138
				c0-6.063,0-7.164-0.092-8.402c-0.093-1.332-0.324-1.976-1.651-2.16c-0.323-0.047-1.015-0.092-1.382-0.092
				c-0.14,0-0.318-0.182-0.318-0.322c0-0.228,0.179-0.319,0.64-0.319c1.839,0,4.454,0.091,4.684,0.091c0.276,0,8.725,0.047,9.647,0
				c0.775-0.045,1.513-0.184,1.838-0.231c0.181-0.045,0.365-0.182,0.545-0.182c0.141,0,0.185,0.182,0.185,0.368
				c0,0.273-0.227,0.735-0.318,1.835c-0.046,0.368-0.138,2.114-0.23,2.572c-0.045,0.183-0.181,0.415-0.365,0.415
				c-0.232,0-0.323-0.186-0.323-0.507c0-0.274-0.045-0.918-0.23-1.376c-0.272-0.644-0.689-0.918-2.892-1.193
				c-0.687-0.092-5.371-0.139-5.835-0.139c-0.182,0-0.226,0.139-0.226,0.414v10.606c0,0.279,0,0.415,0.226,0.415
				c0.505,0,5.835,0,6.752-0.091c0.963-0.092,1.562-0.137,1.975-0.553c0.277-0.274,0.46-0.505,0.598-0.505
				c0.141,0,0.226,0.091,0.226,0.321c0,0.232-0.226,0.874-0.318,2.161c-0.092,0.779-0.184,2.248-0.184,2.525
				c0,0.32-0.091,0.735-0.369,0.735c-0.181,0-0.276-0.139-0.276-0.37c0-0.365,0-0.78-0.181-1.286
				c-0.136-0.55-0.507-1.009-2.063-1.194c-1.105-0.137-5.423-0.185-6.109-0.185c-0.23,0-0.274,0.138-0.274,0.277v3.26
				c0,1.333-0.048,5.88,0,6.66c0.092,2.617,0.826,3.125,4.821,3.125c1.058,0,2.98,0,4.043-0.415
				c1.054-0.459,1.606-1.149,1.833-2.709c0.094-0.46,0.183-0.598,0.416-0.598c0.229,0,0.273,0.321,0.273,0.598
				c0,0.275-0.322,2.937-0.551,3.765c-0.277,1.012-0.688,1.012-2.252,1.012c-3.026,0-5.374-0.092-7.024-0.139
				c-1.698-0.092-2.758-0.092-3.354-0.092c-0.092,0-0.87,0-1.742,0.048c-0.779,0.044-1.701,0.091-2.345,0.091
				c-0.413,0-0.644-0.091-0.644-0.323c0-0.137,0.093-0.319,0.322-0.319c0.37,0,0.877-0.139,1.241-0.184
				c0.78-0.139,0.871-0.921,1.055-2.066c0.232-1.608,0.232-4.685,0.232-8.452V39.138z"/>
		</g>
	</g>
</g>
</svg>
