<?xml version="1.0" standalone="no"?>
<!DOCTYPE svg PUBLIC "-//W3C//DTD SVG 1.1//EN" "http://www.w3.org/Graphics/SVG/1.1/DTD/svg11.dtd">
<svg version="1.1" id="Layer_1" xmlns="http://www.w3.org/2000/svg" xmlns:xlink="http://www.w3.org/1999/xlink" x="0px" y="0px"
	 width="288px" height="77.25px" viewBox="0 0 288 77.25" enable-background="new 0 0 288 77.25" xml:space="preserve" preserveAspectRatio="none">
<g>
	<g>
		<path d="M287.896,63.593c0,6.88-5.373,12.464-11.994,12.464H14.046c-6.624,0-11.993-5.584-11.993-12.464V16.844
			c0-6.882,5.37-12.463,11.993-12.463h261.856c6.621,0,11.994,5.581,11.994,12.463V63.593L287.896,63.593z"/>
		<path d="M288.001,63.598c0,0-0.007,0.17-0.022,0.504c-0.014,0.332-0.021,0.83-0.138,1.488c-0.21,1.293-0.661,3.278-2.141,5.396
			c-1.421,2.091-4.013,4.367-7.733,5.033c-0.912,0.183-1.9,0.205-2.882,0.203c-0.989,0.004-2.013,0.006-3.069,0.01
			c-2.111,0.007-4.356,0.014-6.729,0.021c-9.488-0.001-21.011,0.159-34.228,0.254c-13.217,0.108-28.127,0.23-44.394,0.364
			c-8.133,0.032-16.604,0.067-25.374,0.103c-8.768,0.043-17.833-0.021-27.152-0.027c-18.639,0.002-38.293-0.211-58.626-0.329
			c-20.338-0.099-41.354-0.2-62.708-0.304c-2.758-0.311-5.362-1.541-7.306-3.506c-1.94-1.947-3.264-4.524-3.643-7.265
			C1.637,64.166,1.704,62.8,1.69,61.467l-0.008-4.039c-0.006-2.695-0.011-5.393-0.017-8.093c-0.06-10.811-0.12-21.665-0.181-32.518
			c0.012-2.742,0.861-5.679,2.576-7.931c1.675-2.29,4.13-4.048,6.913-4.754c1.362-0.379,2.878-0.451,4.192-0.427l4.059-0.021
			c2.705-0.014,5.408-0.029,8.108-0.043c10.802-0.057,21.562-0.114,32.236-0.17c21.349-0.057,42.36-0.112,62.693-0.166
			c20.333,0.006,39.988,0.012,58.625,0.017c18.639-0.016,36.262,0.095,52.527,0.195c8.133,0.069,15.927,0.135,23.34,0.198
			c3.707,0.036,7.318,0.07,10.828,0.104c1.756,0.017,3.484,0.034,5.189,0.05c1.696,0.046,3.381-0.067,5.092,0.22
			c3.429,0.582,6.328,2.652,8.099,5.288c0.894,1.317,1.519,2.772,1.874,4.256c0.371,1.477,0.408,3.017,0.369,4.426
			c-0.061,5.719-0.092,10.971-0.1,15.715c-0.066,18.978-0.104,29.822-0.104,29.822V63.598z M287.793,63.593
			c0,0-0.038-10.844-0.104-29.822c-0.008-4.744-0.039-9.997-0.101-15.715c0.015-1.444-0.048-2.85-0.425-4.258
			c-0.361-1.399-0.977-2.761-1.837-3.984c-1.7-2.449-4.472-4.323-7.597-4.795c-1.558-0.242-3.252-0.108-4.957-0.122
			c-1.705,0.016-3.436,0.033-5.19,0.05c-3.511,0.034-7.121,0.068-10.828,0.104c-7.413,0.063-15.207,0.129-23.34,0.198
			c-16.267,0.1-33.89,0.211-52.526,0.195c-18.639,0.005-38.294,0.011-58.626,0.017c-20.333-0.054-41.344-0.11-62.693-0.167
			c-10.675-0.057-21.435-0.113-32.236-0.17c-2.7-0.014-5.403-0.029-8.108-0.043L15.166,5.06c-1.39-0.037-2.606,0.017-3.864,0.34
			C8.813,6.001,6.585,7.556,5.044,9.615c-0.776,1.026-1.395,2.182-1.787,3.414c-0.402,1.255-0.606,2.445-0.635,3.843
			c-0.061,10.835-0.121,21.67-0.181,32.462c-0.006,2.7-0.011,5.398-0.017,8.093l-0.008,4.039c0.007,1.353-0.06,2.693,0.142,3.974
			c0.347,2.595,1.591,5.039,3.419,6.89c1.818,1.866,4.319,3.041,6.86,3.342c2.631,0.136,5.322,0.048,7.971,0.063
			c2.658-0.006,5.309-0.014,7.954-0.021c5.29-0.015,10.553-0.029,15.784-0.043c10.463-0.059,20.799-0.115,30.965-0.173
			c20.333-0.118,39.988-0.331,58.626-0.329c9.319-0.006,18.384-0.07,27.152-0.027c8.77,0.035,17.24,0.069,25.374,0.103
			c16.267,0.133,31.177,0.255,44.394,0.364c13.217,0.096,24.738,0.254,34.228,0.254c2.373,0.007,4.618,0.014,6.729,0.021
			c2.108-0.034,4.11,0.129,5.896-0.172c3.624-0.624,6.174-2.83,7.578-4.871c1.461-2.063,1.92-4.016,2.132-5.276
			c0.116-0.637,0.13-1.137,0.146-1.471c0.019-0.333,0.026-0.502,0.026-0.502L287.793,63.593z"/>
	</g>
</g>
<g>
	<g>
		
			<linearGradient id="SVGID_1_" gradientUnits="userSpaceOnUse" x1="36.5669" y1="-65.9116" x2="322.4111" y2="-65.9116" gradientTransform="matrix(1 0 0 -1 -36 -29.75)">
			<stop  offset="0" style="stop-color:#002E62"/>
			<stop  offset="0.1453" style="stop-color:#003269"/>
			<stop  offset="0.3518" style="stop-color:#003E7B"/>
			<stop  offset="0.5674" style="stop-color:#004E96"/>
			<stop  offset="0.6745" style="stop-color:#003C7A"/>
			<stop  offset="0.7838" style="stop-color:#002E66"/>
			<stop  offset="0.8927" style="stop-color:#00265A"/>
			<stop  offset="1" style="stop-color:#002356"/>
		</linearGradient>
		<path fill="url(#SVGID_1_)" d="M286.411,59.533c0,6.884-5.367,12.467-11.994,12.467H12.562C5.937,72,0.567,66.417,0.567,59.533
			V12.789c0-6.882,5.37-12.466,11.995-12.466h261.855c6.627,0,11.994,5.583,11.994,12.466V59.533z"/>
		<path d="M286.516,59.538c0,0-0.008,0.169-0.022,0.503c-0.015,0.333-0.022,0.83-0.138,1.488c-0.209,1.295-0.662,3.279-2.139,5.396
			c-1.419,2.092-4.01,4.369-7.73,5.035c-0.913,0.182-1.9,0.206-2.883,0.205c-0.989,0.003-2.013,0.006-3.068,0.01
			c-2.113,0.006-4.357,0.014-6.73,0.021c-9.488-0.002-21.011,0.158-34.227,0.254c-13.217,0.107-28.128,0.23-44.395,0.363
			c-8.134,0.033-16.604,0.066-25.373,0.103c-8.77,0.043-17.834-0.021-27.153-0.026c-18.639,0.002-38.294-0.211-58.627-0.33
			c-20.338-0.098-41.354-0.199-62.708-0.303c-2.758-0.31-5.362-1.54-7.306-3.505c-1.941-1.946-3.265-4.524-3.645-7.263
			c-0.22-1.379-0.153-2.744-0.167-4.077l-0.008-4.039C0.19,50.68,0.185,47.98,0.179,45.281c-0.06-10.802-0.121-21.646-0.181-32.49
			C0.01,9.994,0.859,7.097,2.573,4.832c1.674-2.29,4.129-4.049,6.911-4.756c1.362-0.38,2.878-0.453,4.192-0.429l4.059-0.021
			c2.705-0.014,5.408-0.029,8.108-0.043c10.802-0.057,21.562-0.114,32.236-0.17c21.35-0.057,42.36-0.112,62.693-0.166
			c20.333,0.006,39.988,0.011,58.626,0.017c18.639-0.017,36.261,0.095,52.526,0.195c8.134,0.069,15.927,0.135,23.341,0.198
			c3.707,0.036,7.317,0.07,10.828,0.104c1.756,0.017,3.485,0.034,5.189,0.05c1.695,0.046,3.381-0.066,5.091,0.219
			c3.429,0.581,6.329,2.65,8.101,5.287c0.893,1.317,1.519,2.772,1.873,4.256c0.373,1.477,0.409,3.017,0.371,4.426
			c-0.062,5.718-0.093,10.971-0.101,15.715c-0.065,18.978-0.104,29.822-0.104,29.822L286.516,59.538z M286.307,59.533
			c0,0-0.037-10.844-0.104-29.822c-0.008-4.744-0.039-9.997-0.1-15.715c0.014-1.445-0.049-2.85-0.427-4.258
			c-0.36-1.399-0.977-2.761-1.838-3.984c-1.698-2.449-4.47-4.322-7.595-4.794c-1.559-0.241-3.254-0.108-4.959-0.121
			c-1.704,0.016-3.436,0.033-5.189,0.05c-3.511,0.034-7.121,0.068-10.828,0.104c-7.414,0.063-15.207,0.129-23.341,0.198
			c-16.267,0.1-33.889,0.211-52.526,0.195c-18.64,0.005-38.293,0.011-58.626,0.017C100.44,1.347,79.429,1.292,58.08,1.235
			c-10.675-0.057-21.434-0.113-32.236-0.17c-2.7-0.014-5.403-0.029-8.108-0.043L13.676,1c-1.389-0.035-2.604,0.02-3.863,0.344
			C7.325,1.946,5.097,3.501,3.557,5.561c-1.582,2.064-2.371,4.618-2.42,7.229C1.076,23.634,1.016,34.478,0.956,45.28
			c-0.006,2.7-0.011,5.397-0.017,8.093L0.93,57.412c0.007,1.354-0.061,2.693,0.143,3.974c0.348,2.593,1.592,5.037,3.421,6.888
			c1.818,1.867,4.32,3.039,6.861,3.341c2.632,0.134,5.322,0.048,7.971,0.063c2.657-0.007,5.309-0.015,7.954-0.021
			c5.29-0.016,10.553-0.029,15.785-0.045c10.463-0.059,20.799-0.115,30.965-0.172c20.333-0.119,39.988-0.332,58.627-0.33
			c9.319-0.006,18.384-0.069,27.153-0.026c8.769,0.035,17.239,0.069,25.373,0.103c16.267,0.133,31.178,0.256,44.395,0.363
			c13.216,0.096,24.738,0.256,34.227,0.254c2.372,0.008,4.617,0.014,6.73,0.021c2.107-0.034,4.109,0.129,5.896-0.172
			c3.623-0.625,6.174-2.832,7.575-4.873c1.46-2.064,1.917-4.018,2.129-5.279c0.117-0.636,0.13-1.136,0.146-1.47
			c0.018-0.333,0.026-0.503,0.026-0.503L286.307,59.533z"/>
	</g>
</g>
<g>
	<path fill="#FFFFFF" d="M55.255,46.766l9.131-5.58L53.86,39.537l10.145-9.386L49.04,32.987l3.552-10.571l-7.102,5.581
		l-1.397-13.952L37.88,28.63l-6.849-6.976l-0.128,10.274l-12.935-4.693l9.132,8.624l-6.342,3.678l8.244,2.789l-10.146,6.342
		l11.921-0.634l0.379,9.13l5.835-8.369l5.139,5.326l2.218-4.438l7.355,5.454l-0.887-6.342l12.174,5.833L55.255,46.766z
		 M46.727,45.818l0.557,3.983l-4.621-3.427l-1.395,2.791l-3.226-3.348l-3.668,5.258l-0.238-5.737l-7.492,0.398l6.376-3.983L27.84,40
		l3.985-2.312l-5.74-5.419l8.13,2.948l0.079-6.453l4.304,4.385l3.906-9.166l0.875,8.766l4.464-3.506l-2.232,6.644l9.405-1.785
		L48.638,40l6.617,1.035l-5.738,3.508l4.862,4.94L46.727,45.818z"/>
	<g>
		<path fill="#FFFFFF" d="M78.098,32.375c0-6.548,0-7.724-0.083-9.067c-0.084-1.427-0.42-2.099-1.805-2.393
			c-0.336-0.084-1.049-0.126-1.427-0.126c-0.168,0-0.336-0.084-0.336-0.252c0-0.252,0.21-0.335,0.672-0.335
			c0.965,0,2.099,0,3.022,0.042l1.721,0.042c0.84,0,9.361,0.042,10.326,0c0.798-0.042,1.469-0.042,1.847-0.167
			c0.252-0.084,0.42-0.252,0.588-0.252c0.167,0,0.251,0.168,0.251,0.378c0,0.293-0.209,0.797-0.335,1.973
			c-0.042,0.42-0.126,2.267-0.21,2.771c-0.042,0.21-0.126,0.462-0.336,0.462s-0.294-0.21-0.294-0.504
			c0-0.336-0.126-1.049-0.377-1.595c-0.252-0.545-1.218-1.301-2.854-1.343l-6.464-0.126c-0.252,0-0.378,0.126-0.378,0.462v11.585
			c0,0.252,0.042,0.378,0.294,0.378l5.373-0.042c0.713,0,1.301,0,1.889-0.042c1.007-0.084,1.553-0.21,1.931-0.755
			c0.168-0.21,0.294-0.42,0.461-0.42c0.168,0,0.21,0.126,0.21,0.336c0,0.252-0.21,0.965-0.335,2.351
			c-0.084,0.84-0.168,2.519-0.168,2.812c0,0.378,0,0.798-0.294,0.798c-0.21,0-0.294-0.168-0.294-0.378
			c-0.042-0.42-0.084-1.008-0.252-1.512c-0.21-0.587-0.881-1.343-2.183-1.511c-1.049-0.126-5.625-0.126-6.338-0.126
			c-0.21,0-0.294,0.084-0.294,0.378v3.567c0,4.03,0,7.347,0.21,9.109c0.126,1.218,0.377,2.141,1.637,2.309
			c0.588,0.084,1.511,0.168,1.889,0.168c0.252,0,0.336,0.126,0.336,0.252c0,0.21-0.21,0.336-0.672,0.336
			c-2.309,0-4.953-0.126-5.163-0.126s-2.854,0.126-4.114,0.126c-0.461,0-0.671-0.084-0.671-0.336c0-0.126,0.084-0.252,0.335-0.252
			c0.378,0,0.882-0.084,1.259-0.168c0.84-0.168,1.05-1.091,1.218-2.309c0.209-1.763,0.209-5.079,0.209-9.109V32.375z"/>
		<path fill="#FFFFFF" d="M101.144,41.568c0,3.442,0,6.254,0.168,7.724c0.125,1.05,0.251,1.721,1.343,1.889
			c0.545,0.084,1.343,0.168,1.679,0.168c0.21,0,0.294,0.168,0.294,0.294c0,0.168-0.168,0.294-0.588,0.294
			c-2.057,0-4.449-0.126-4.617-0.126c-0.21,0-2.519,0.126-3.652,0.126c-0.378,0-0.588-0.084-0.588-0.294
			c0-0.126,0.084-0.294,0.294-0.294c0.336,0,0.797-0.084,1.133-0.168c0.714-0.168,0.839-0.839,0.965-1.889
			c0.168-1.47,0.21-4.281,0.21-7.724v-6.297c0-5.541,0-6.548-0.084-7.682c-0.084-1.217-0.377-1.763-1.175-1.931
			c-0.42-0.083-0.881-0.125-1.133-0.125c-0.168,0-0.294-0.168-0.294-0.294c0-0.21,0.168-0.294,0.588-0.294
			c1.217,0,3.526,0.084,3.736,0.084c0.168,0,2.561-0.084,3.694-0.084c0.42,0,0.588,0.084,0.588,0.294
			c0,0.126-0.168,0.294-0.294,0.294c-0.252,0-0.504,0-0.923,0.084c-1.008,0.209-1.217,0.713-1.301,1.973
			c-0.042,1.133-0.042,2.141-0.042,7.682V41.568z"/>
		<path fill="#FFFFFF" d="M112.436,41.652c0,5.247,0.084,7.388,0.755,8.018c0.588,0.588,2.015,0.839,4.911,0.839
			c1.931,0,3.568-0.041,4.45-1.091c0.462-0.546,0.756-1.302,0.881-2.015c0.042-0.252,0.168-0.462,0.378-0.462
			c0.168,0,0.252,0.168,0.252,0.546c0,0.377-0.252,2.519-0.546,3.567c-0.251,0.84-0.377,0.966-2.351,0.966
			c-2.645,0-4.701-0.042-6.422-0.126c-1.679-0.042-2.938-0.084-4.03-0.084c-0.168,0-0.797,0-1.511,0.042
			c-0.755,0.042-1.553,0.084-2.141,0.084c-0.378,0-0.588-0.084-0.588-0.294c0-0.126,0.084-0.294,0.294-0.294
			c0.336,0,0.797-0.084,1.133-0.168c0.714-0.168,0.797-0.839,0.965-1.889c0.21-1.47,0.21-4.281,0.21-7.724v-6.297
			c0-5.541,0-6.548-0.084-7.682c-0.084-1.217-0.294-1.805-1.511-1.973c-0.293-0.042-0.923-0.084-1.259-0.084
			c-0.126,0-0.293-0.168-0.293-0.294c0-0.21,0.167-0.294,0.587-0.294c1.679,0,3.988,0.084,4.198,0.084
			c0.168,0,2.938-0.084,4.072-0.084c0.378,0,0.587,0.084,0.587,0.294c0,0.126-0.167,0.252-0.293,0.252
			c-0.252,0-0.798,0.042-1.217,0.084c-1.092,0.209-1.301,0.755-1.385,2.015c-0.042,1.133-0.042,2.141-0.042,7.682V41.652z"/>
		<path fill="#FFFFFF" d="M130.696,41.568c0,3.442,0,6.254,0.168,7.724c0.125,1.05,0.251,1.721,1.343,1.889
			c0.545,0.084,1.343,0.168,1.679,0.168c0.21,0,0.294,0.168,0.294,0.294c0,0.168-0.168,0.294-0.588,0.294
			c-2.057,0-4.449-0.126-4.617-0.126c-0.21,0-2.519,0.126-3.652,0.126c-0.378,0-0.588-0.084-0.588-0.294
			c0-0.126,0.084-0.294,0.294-0.294c0.336,0,0.797-0.084,1.133-0.168c0.714-0.168,0.839-0.839,0.965-1.889
			c0.168-1.47,0.21-4.281,0.21-7.724v-6.297c0-5.541,0-6.548-0.084-7.682c-0.084-1.217-0.377-1.763-1.175-1.931
			c-0.42-0.083-0.881-0.125-1.133-0.125c-0.168,0-0.294-0.168-0.294-0.294c0-0.21,0.168-0.294,0.588-0.294
			c1.217,0,3.526,0.084,3.736,0.084c0.168,0,2.561-0.084,3.694-0.084c0.42,0,0.588,0.084,0.588,0.294
			c0,0.126-0.168,0.294-0.294,0.294c-0.252,0-0.504,0-0.923,0.084c-1.008,0.209-1.217,0.713-1.301,1.973
			c-0.042,1.133-0.042,2.141-0.042,7.682V41.568z"/>
		<path fill="#FFFFFF" d="M138.63,35.271c0-5.541,0-6.548-0.084-7.682c-0.084-1.217-0.294-1.889-1.511-2.057
			c-0.293-0.042-0.923-0.084-1.259-0.084c-0.126,0-0.294-0.084-0.294-0.21c0-0.21,0.168-0.294,0.588-0.294
			c1.679,0,4.072,0.084,4.282,0.084c0.881,0,2.603-0.084,4.324-0.084c6.171,0,7.766,3.568,7.766,5.457
			c0,2.812-1.847,4.576-3.736,6.255c2.812,0.839,6.507,3.399,6.507,7.43c0,3.987-2.98,7.934-9.277,7.934
			c-0.672,0-2.015-0.042-3.19-0.126c-1.175-0.042-2.224-0.084-2.392-0.084c-0.084,0-0.756,0.042-1.511,0.042
			c-0.755,0.042-1.637,0.084-2.225,0.084c-0.378,0-0.588-0.084-0.588-0.294c0-0.126,0.084-0.21,0.294-0.21
			c0.336,0,0.797-0.126,1.133-0.168c0.713-0.126,0.797-0.923,0.965-1.973c0.21-1.47,0.21-4.281,0.21-7.724V35.271z M141.82,36.027
			c0,0.252,0.084,0.336,0.252,0.378c0.21,0.042,0.882,0.168,2.267,0.168c2.057,0,2.854-0.084,3.609-0.924
			c0.798-0.881,1.428-2.099,1.428-3.82c0-2.729-1.512-5.751-5.205-5.751c-0.42,0-1.301,0.042-1.889,0.168
			c-0.336,0.084-0.462,0.168-0.462,0.378V36.027z M141.82,39.973c0,2.771,0,7.053,0.042,7.599c0.126,1.721,0.126,2.141,1.26,2.687
			c1.007,0.461,2.56,0.503,3.231,0.503c2.435,0,5.415-0.923,5.415-5.499c0-1.595-0.63-4.659-3.526-6.506
			c-1.259-0.798-2.435-0.756-3.316-0.924c-0.461-0.084-2.308-0.084-2.896-0.084c-0.126,0-0.21,0.084-0.21,0.252V39.973z"/>
		<path fill="#FFFFFF" d="M158.317,35.271c0-5.541,0-6.548-0.084-7.682s-0.294-1.805-1.511-1.973
			c-0.294-0.042-0.924-0.084-1.26-0.084c-0.126,0-0.294-0.168-0.294-0.294c0-0.21,0.168-0.294,0.588-0.294
			c1.68,0,3.904,0.084,4.24,0.084s2.645-0.084,3.735-0.084c0.42,0,0.63,0.084,0.63,0.294c0,0.126-0.168,0.294-0.336,0.294
			c-0.252,0-0.462,0-0.923,0.084c-0.966,0.167-1.176,0.797-1.26,1.973c-0.084,1.133-0.084,2.141-0.084,7.682v4.995
			c0,5.163,1.134,7.305,2.729,8.731c1.805,1.637,3.4,1.931,5.499,1.931c2.267,0,4.449-1.007,5.709-2.519
			c1.721-2.057,2.099-4.995,2.099-8.647v-4.491c0-5.541-0.042-6.548-0.084-7.682s-0.252-1.805-1.469-1.973
			c-0.294-0.042-0.924-0.084-1.26-0.084c-0.168,0-0.294-0.168-0.294-0.294c0-0.21,0.168-0.294,0.588-0.294
			c1.637,0,3.778,0.084,3.987,0.084c0.252,0,2.016-0.084,3.106-0.084c0.42,0,0.588,0.084,0.588,0.294
			c0,0.126-0.126,0.294-0.294,0.294c-0.252,0-0.462,0-0.923,0.084c-1.008,0.209-1.218,0.797-1.302,1.973
			c-0.084,1.133-0.042,2.141-0.042,7.682v3.82c0,3.861-0.504,8.186-3.442,10.704c-2.687,2.309-5.541,2.603-7.724,2.603
			c-1.217,0-5.079-0.084-7.682-2.519c-1.805-1.68-3.232-4.156-3.232-9.361V35.271z"/>
		<path fill="#FFFFFF" d="M183.63,51.433c-0.504-0.252-0.546-0.378-0.546-1.343c0-1.764,0.168-3.19,0.21-3.778
			c0-0.378,0.084-0.588,0.294-0.588s0.336,0.126,0.336,0.42s0,0.798,0.126,1.302c0.587,2.603,3.357,3.525,5.834,3.525
			c3.652,0,5.541-2.057,5.541-4.743c0-2.561-1.385-3.778-4.659-6.213l-1.679-1.259c-3.988-2.98-5.289-5.163-5.289-7.64
			c0-4.197,3.315-6.716,8.186-6.716c1.469,0,2.938,0.21,3.819,0.42c0.714,0.168,1.008,0.168,1.302,0.168s0.378,0.042,0.378,0.252
			c0,0.168-0.168,1.343-0.168,3.778c0,0.546-0.042,0.797-0.294,0.797s-0.294-0.168-0.336-0.461c-0.042-0.42-0.336-1.385-0.546-1.763
			c-0.252-0.42-1.469-1.763-4.785-1.763c-2.687,0-4.911,1.343-4.911,3.862c0,2.267,1.133,3.568,4.785,6.045l1.05,0.714
			c4.491,3.064,6.044,5.541,6.044,8.605c0,2.099-0.797,4.365-3.441,6.086c-1.554,1.008-3.862,1.26-5.877,1.26
			C187.281,52.398,185.141,52.146,183.63,51.433z"/>
		<path fill="#FFFFFF" d="M212.594,41.568c0,3.442,0,6.254,0.168,7.724c0.125,1.05,0.293,1.721,1.427,1.889
			c0.504,0.084,1.343,0.168,1.679,0.168c0.252,0,0.294,0.168,0.294,0.294c0,0.168-0.168,0.294-0.588,0.294
			c-2.015,0-4.365-0.126-4.575-0.126c-0.168,0-2.729,0.126-3.819,0.126c-0.42,0-0.588-0.084-0.588-0.294
			c0-0.126,0.084-0.252,0.294-0.252c0.336,0,0.755-0.084,1.091-0.168c0.756-0.168,0.966-0.881,1.092-1.931
			c0.168-1.47,0.168-4.281,0.168-7.724V26.583l-5.331,0.084c-2.309,0.042-3.19,0.293-3.736,1.133
			c-0.42,0.629-0.462,0.881-0.588,1.133c-0.084,0.294-0.209,0.336-0.377,0.336c-0.084,0-0.252-0.084-0.252-0.294
			c0-0.378,0.713-3.568,0.797-3.862c0.042-0.21,0.252-0.672,0.378-0.672c0.252,0,0.63,0.294,1.638,0.42
			c1.049,0.126,2.477,0.168,2.896,0.168h13.936c1.218,0,2.058-0.084,2.645-0.168c0.546-0.084,0.882-0.168,1.05-0.168
			s0.168,0.21,0.168,0.42c0,1.091-0.126,3.652-0.126,4.072c0,0.294-0.168,0.461-0.336,0.461s-0.252-0.125-0.294-0.629l-0.042-0.378
			c-0.126-1.091-0.923-1.889-4.449-1.973l-4.617-0.084V41.568z"/>
		<path fill="#FFFFFF" d="M225.942,35.271c0-5.541,0-6.548-0.084-7.682c-0.084-1.217-0.294-1.805-1.512-1.973
			c-0.294-0.042-0.923-0.084-1.259-0.084c-0.126,0-0.294-0.168-0.294-0.294c0-0.21,0.168-0.294,0.588-0.294
			c1.679,0,4.071,0.084,4.281,0.084c0.252,0,7.976,0.042,8.815,0c0.713-0.042,1.385-0.168,1.679-0.21
			c0.168-0.042,0.336-0.168,0.504-0.168c0.126,0,0.168,0.168,0.168,0.336c0,0.252-0.21,0.671-0.294,1.679
			c-0.042,0.335-0.126,1.931-0.21,2.351c-0.042,0.168-0.168,0.378-0.336,0.378c-0.21,0-0.294-0.168-0.294-0.462
			c0-0.252-0.042-0.839-0.21-1.259c-0.252-0.588-0.629-0.839-2.645-1.091c-0.63-0.084-4.911-0.126-5.331-0.126
			c-0.168,0-0.21,0.126-0.21,0.378v9.697c0,0.252,0,0.378,0.21,0.378c0.462,0,5.331,0,6.171-0.084
			c0.882-0.084,1.427-0.126,1.805-0.504c0.252-0.252,0.42-0.462,0.546-0.462s0.21,0.084,0.21,0.294s-0.21,0.798-0.294,1.973
			c-0.084,0.714-0.168,2.057-0.168,2.309c0,0.294-0.084,0.672-0.336,0.672c-0.168,0-0.252-0.126-0.252-0.336
			c0-0.336,0-0.714-0.168-1.175c-0.125-0.504-0.461-0.924-1.889-1.092c-1.007-0.126-4.953-0.168-5.583-0.168
			c-0.21,0-0.252,0.126-0.252,0.252v2.98c0,1.217-0.042,5.373,0,6.087c0.084,2.393,0.756,2.854,4.408,2.854
			c0.965,0,2.729,0,3.693-0.377c0.966-0.42,1.47-1.05,1.68-2.477c0.084-0.42,0.168-0.546,0.378-0.546
			c0.209,0,0.251,0.294,0.251,0.546c0,0.251-0.293,2.687-0.503,3.441c-0.252,0.924-0.63,0.924-2.058,0.924
			c-2.771,0-4.911-0.084-6.422-0.126c-1.554-0.084-2.519-0.084-3.064-0.084c-0.084,0-0.798,0-1.595,0.042
			c-0.714,0.042-1.554,0.084-2.142,0.084c-0.378,0-0.587-0.084-0.587-0.294c0-0.126,0.084-0.294,0.293-0.294
			c0.336,0,0.798-0.126,1.134-0.168c0.714-0.126,0.798-0.839,0.966-1.889c0.21-1.47,0.21-4.281,0.21-7.724V35.271z"/>
		<path fill="#FFFFFF" d="M244.874,35.271c0-5.541,0-6.548-0.084-7.682c-0.084-1.217-0.294-1.805-1.512-1.973
			c-0.294-0.042-0.923-0.084-1.259-0.084c-0.126,0-0.294-0.168-0.294-0.294c0-0.21,0.168-0.294,0.588-0.294
			c1.679,0,4.155,0.084,4.365,0.084c0.378,0,3.484-0.084,4.617-0.084c2.351,0,4.953,0.21,6.885,1.553
			c0.923,0.671,2.561,2.393,2.561,4.869c0,2.645-1.092,5.206-4.534,8.144c3.022,3.777,5.583,7.01,7.724,9.234
			c1.974,2.015,3.19,2.351,4.114,2.477c0.714,0.126,1.092,0.126,1.301,0.126c0.21,0,0.336,0.168,0.336,0.294
			c0,0.21-0.21,0.294-0.881,0.294h-2.309c-2.1,0-3.022-0.21-3.946-0.714c-1.595-0.839-2.938-2.561-5.037-5.247
			c-1.554-1.931-3.19-4.239-3.988-5.205c-0.168-0.168-0.252-0.21-0.503-0.21l-4.702-0.084c-0.168,0-0.252,0.084-0.252,0.294v0.84
			c0,3.442,0,6.212,0.168,7.682c0.126,1.05,0.336,1.721,1.47,1.889c0.504,0.084,1.301,0.168,1.637,0.168
			c0.252,0,0.294,0.168,0.294,0.294c0,0.168-0.168,0.294-0.588,0.294c-2.015,0-4.365-0.126-4.533-0.126
			c-0.042,0-2.519,0.126-3.652,0.126c-0.378,0-0.587-0.084-0.587-0.294c0-0.126,0.084-0.294,0.293-0.294
			c0.336,0,0.798-0.084,1.134-0.168c0.714-0.168,0.798-0.839,0.966-1.889c0.21-1.47,0.21-4.281,0.21-7.724V35.271z M248.063,38.294
			c0,0.21,0.084,0.336,0.252,0.462c0.546,0.294,2.435,0.546,4.072,0.546c0.881,0,1.889-0.042,2.771-0.63
			c1.259-0.84,2.225-2.729,2.225-5.457c0-4.45-2.435-7.01-6.381-7.01c-1.091,0-2.267,0.126-2.645,0.21
			c-0.168,0.084-0.294,0.21-0.294,0.42V38.294z"/>
	</g>
</g>
</svg>
