<?xml version="1.0" standalone="no"?>
<!DOCTYPE svg PUBLIC "-//W3C//DTD SVG 1.1//EN" "http://www.w3.org/Graphics/SVG/1.1/DTD/svg11.dtd">
<svg version="1.1" id="Layer_1" xmlns="http://www.w3.org/2000/svg" xmlns:xlink="http://www.w3.org/1999/xlink" x="0px" y="0px"
	 width="432px" height="77.25px" viewBox="0 0 432 77.25" enable-background="new 0 0 432 77.25" xml:space="preserve" preserveAspectRatio="none">
<g>
	<g>
		<path d="M431.516,63.607c-0.001,6.879-8.059,12.463-17.985,12.463L20.88,76.037c-9.933,0-17.982-5.585-17.981-12.465l0.004-46.749
			c0-6.882,8.053-12.462,17.983-12.461l392.65,0.032c9.928,0.001,17.983,5.583,17.983,12.464L431.516,63.607L431.516,63.607z"/>
		<path d="M431.673,63.611c0,0-0.011,0.171-0.033,0.505c-0.021,0.332-0.03,0.829-0.206,1.487c-0.315,1.293-0.993,3.278-3.211,5.396
			c-2.132,2.091-6.018,4.366-11.597,5.032c-1.368,0.183-2.85,0.204-4.32,0.202c-1.484,0.005-3.02,0.007-4.604,0.01
			c-3.163,0.006-6.53,0.013-10.088,0.02c-14.229-0.002-31.508,0.156-51.326,0.25c-19.817,0.106-42.176,0.227-66.566,0.358
			c-12.194,0.03-24.898,0.063-38.047,0.101c-13.148,0.043-26.74-0.022-40.717-0.029c-27.947-0.002-57.419-0.217-87.907-0.338
			c-30.497-0.101-62.01-0.205-94.03-0.312c-4.136-0.312-8.041-1.541-10.956-3.507c-2.908-1.947-4.894-4.523-5.462-7.266
			c-0.327-1.377-0.228-2.744-0.249-4.076l-0.011-4.039c-0.01-2.695-0.016-5.393-0.025-8.094C2.229,38.502,2.139,27.648,2.048,16.795
			c0.018-2.742,1.292-5.679,3.864-7.931c2.511-2.29,6.193-4.047,10.367-4.753c2.042-0.379,4.315-0.45,6.286-0.426l6.086-0.021
			c4.056-0.014,8.108-0.029,12.157-0.042C57.006,3.566,73.14,3.51,89.146,3.455c32.013-0.054,63.517-0.107,94.007-0.158
			c30.487,0.009,59.961,0.017,87.907,0.024c27.949-0.014,54.374,0.099,78.764,0.202c12.194,0.069,23.881,0.136,34.997,0.201
			c5.558,0.036,10.973,0.071,16.237,0.105c2.633,0.017,5.224,0.035,7.779,0.051c2.543,0.046,5.068-0.067,7.635,0.22
			c5.144,0.583,9.487,2.653,12.145,5.29c1.341,1.317,2.279,2.772,2.811,4.256c0.558,1.477,0.611,3.017,0.554,4.426
			c-0.093,5.719-0.142,10.971-0.153,15.715c-0.098,18.979-0.156,29.822-0.156,29.822L431.673,63.611L431.673,63.611L431.673,63.611z
			 M431.361,63.607c0,0-0.057-10.844-0.154-29.822c-0.011-4.744-0.058-9.997-0.15-15.715c0.023-1.444-0.071-2.85-0.637-4.258
			c-0.541-1.399-1.466-2.761-2.755-3.984c-2.55-2.449-6.706-4.323-11.392-4.796c-2.335-0.242-4.877-0.108-7.434-0.123
			c-2.557,0.016-5.149,0.033-7.781,0.05c-5.266,0.033-10.678,0.067-16.235,0.103c-11.117,0.062-22.804,0.127-34.997,0.195
			c-24.395,0.098-50.819,0.207-78.762,0.188c-27.95,0.003-57.424,0.007-87.911,0.01C152.666,5.398,121.16,5.34,89.146,5.28
			C73.139,5.222,57.005,5.165,40.809,5.107c-4.049-0.015-8.102-0.03-12.158-0.044l-6.086-0.022
			c-2.084-0.037-3.908,0.017-5.795,0.339c-3.732,0.601-7.073,2.156-9.383,4.215c-1.163,1.026-2.092,2.182-2.68,3.414
			c-0.603,1.255-0.908,2.445-0.952,3.843c-0.093,10.835-0.183,21.67-0.274,32.462c-0.009,2.699-0.017,5.397-0.026,8.093
			l-0.012,4.038c0.01,1.354-0.09,2.693,0.212,3.975c0.52,2.596,2.385,5.039,5.126,6.893c2.726,1.864,6.476,3.041,10.286,3.342
			c3.945,0.138,7.981,0.049,11.953,0.062c3.985-0.006,7.96-0.013,11.926-0.019c7.932-0.015,15.824-0.027,23.668-0.041
			c15.689-0.06,31.189-0.112,46.434-0.171c30.487-0.114,59.959-0.325,87.906-0.32c13.976-0.005,27.568-0.066,40.716-0.023
			c13.148,0.035,25.851,0.071,38.047,0.105c24.394,0.135,46.749,0.259,66.567,0.37c19.819,0.097,37.095,0.257,51.325,0.258
			c3.559,0.007,6.924,0.015,10.09,0.021c3.162-0.032,6.163,0.131,8.841-0.17c5.435-0.625,9.259-2.83,11.364-4.871
			c2.189-2.062,2.879-4.016,3.196-5.275c0.176-0.637,0.195-1.137,0.22-1.471c0.029-0.334,0.038-0.502,0.038-0.502H431.361z"/>
	</g>
</g>
<g>
	<g>
		
			<linearGradient id="SVGID_1_" gradientUnits="userSpaceOnUse" x1="137.7832" y1="750.4609" x2="495.3857" y2="750.4609" gradientTransform="matrix(1.2012 9.855800e-05 -8.070691e-05 1 -164.5922 -713.7799)">
			<stop  offset="0" style="stop-color:#B21C1E"/>
			<stop  offset="0.5521" style="stop-color:#FF0000"/>
			<stop  offset="0.609" style="stop-color:#EB0707"/>
			<stop  offset="0.7076" style="stop-color:#CF1010"/>
			<stop  offset="0.8061" style="stop-color:#BA1717"/>
			<stop  offset="0.9039" style="stop-color:#AE1C1C"/>
			<stop  offset="1" style="stop-color:#AA1D1D"/>
		</linearGradient>
		<path fill="url(#SVGID_1_)" d="M430.403,60.152c-0.001,6.897-8.067,12.492-18.028,12.492l-393.5-0.033
			c-9.957,0-18.025-5.596-18.024-12.493l0.004-46.847c0-6.897,8.07-12.493,18.026-12.492L412.38,0.812
			c9.962,0.001,18.028,5.598,18.026,12.495L430.403,60.152L430.403,60.152z"/>
		<path d="M430.561,60.157c0,0-0.012,0.17-0.034,0.504c-0.021,0.334-0.033,0.832-0.206,1.491c-0.315,1.298-0.992,3.285-3.215,5.408
			c-2.133,2.097-6.028,4.377-11.618,5.045c-1.373,0.184-2.856,0.207-4.332,0.205c-1.487,0.004-3.025,0.006-4.612,0.01
			c-3.174,0.007-6.548,0.014-10.114,0.021c-14.258-0.002-31.572,0.154-51.433,0.251c-19.861,0.105-42.27,0.227-66.714,0.358
			c-12.221,0.032-24.955,0.063-38.131,0.1c-13.177,0.042-26.802-0.022-40.806-0.03c-28.006,0-57.545-0.215-88.101-0.338
			c-30.562-0.101-62.144-0.203-94.235-0.311c-4.144-0.312-8.059-1.545-10.978-3.516c-2.916-1.949-4.904-4.533-5.477-7.276
			c-0.331-1.384-0.231-2.75-0.25-4.088l-0.013-4.048c-0.008-2.7-0.015-5.403-0.024-8.11C0.179,35.007,0.088,24.14-0.003,13.271
			c0.02-2.802,1.294-5.706,3.871-7.976c2.516-2.294,6.205-4.058,10.385-4.767c2.046-0.38,4.326-0.453,6.301-0.428l6.1-0.02
			c4.065-0.015,8.127-0.029,12.184-0.042C55.07-0.018,71.239-0.073,87.281-0.129c32.084-0.054,63.658-0.106,94.214-0.159
			c30.556,0.009,60.091,0.017,88.101,0.024c28.01-0.015,54.49,0.1,78.936,0.202c12.221,0.069,23.935,0.136,35.075,0.2
			c5.57,0.037,10.997,0.071,16.272,0.105c2.638,0.017,5.238,0.034,7.8,0.051c2.55,0.046,5.081-0.067,7.65,0.22
			c5.152,0.583,9.514,2.658,12.169,5.299c1.342,1.32,2.282,2.778,2.817,4.265c0.559,1.48,0.615,3.023,0.556,4.436
			c-0.092,5.731-0.138,10.996-0.148,15.75c-0.104,19.02-0.161,29.886-0.161,29.886L430.561,60.157L430.561,60.157z M430.247,60.152
			c0,0-0.054-10.868-0.155-29.887c-0.012-4.754-0.058-10.019-0.146-15.75c0.018-1.447-0.075-2.855-0.64-4.267
			c-0.545-1.402-1.469-2.768-2.766-3.993c-2.553-2.455-6.716-4.333-11.412-4.807c-2.342-0.242-4.889-0.108-7.451-0.123
			c-2.561,0.017-5.16,0.033-7.8,0.05c-5.276,0.033-10.702,0.068-16.271,0.102c-11.142,0.062-22.854,0.127-35.076,0.195
			C324.086,1.77,297.605,1.88,269.596,1.86c-28.01,0.003-57.547,0.007-88.104,0.01c-30.556-0.056-62.128-0.115-94.211-0.175
			C71.24,1.639,55.071,1.581,38.839,1.522c-4.058-0.014-8.121-0.028-12.184-0.043l-6.1-0.022c-2.087-0.036-3.914,0.02-5.805,0.344
			c-3.74,0.603-7.087,2.161-9.403,4.226C2.97,8.095,1.785,10.654,1.71,13.272c-0.092,10.866-0.184,21.734-0.275,32.56
			c-0.007,2.707-0.017,5.41-0.026,8.109L1.397,57.99c0.01,1.355-0.092,2.699,0.213,3.982c0.524,2.598,2.394,5.049,5.141,6.901
			c2.731,1.872,6.492,3.048,10.31,3.351c3.955,0.135,7.997,0.049,11.978,0.063c3.992-0.007,7.978-0.015,11.953-0.021
			c7.947-0.016,15.858-0.027,23.719-0.041c15.723-0.06,31.256-0.115,46.534-0.17c30.555-0.115,60.095-0.328,88.101-0.322
			c14.004-0.006,27.627-0.068,40.806-0.024c13.176,0.037,25.906,0.073,38.131,0.106c24.443,0.136,46.852,0.26,66.714,0.369
			c19.859,0.099,37.175,0.258,51.433,0.26c3.566,0.008,6.94,0.016,10.114,0.021c3.168-0.032,6.18,0.13,8.86-0.173
			c5.446-0.626,9.279-2.836,11.386-4.883c2.197-2.067,2.883-4.024,3.203-5.289c0.176-0.639,0.194-1.141,0.218-1.475
			c0.025-0.334,0.037-0.504,0.037-0.504V60.152L430.247,60.152z"/>
	</g>
</g>
<g id="Layer_2">
</g>
<g>
	<path fill="#FFFFFF" d="M94.867,49.697c-4.615-4.141-5.757-9.563-5.757-14.083c0-3.188,1.094-8.754,5.329-12.989
		c2.854-2.854,7.184-5.091,14.511-5.091c1.903,0,4.567,0.143,6.898,0.571c1.808,0.333,3.33,0.618,4.853,0.713
		c0.523,0.048,0.619,0.238,0.619,0.523c0,0.381-0.143,0.952-0.238,2.665c-0.095,1.57-0.095,4.187-0.143,4.9
		c-0.048,0.713-0.143,0.999-0.428,0.999c-0.333,0-0.381-0.333-0.381-0.999c0-1.855-0.762-3.806-1.998-4.854
		c-1.665-1.427-5.329-2.712-9.516-2.712c-6.328,0-9.277,1.855-10.942,3.473c-3.473,3.331-4.282,7.565-4.282,12.417
		c0,9.087,6.994,17.414,17.175,17.414c3.568,0,6.376-0.429,8.278-2.379c1-1.048,1.618-3.141,1.761-3.996
		c0.095-0.523,0.19-0.715,0.476-0.715c0.238,0,0.333,0.334,0.333,0.715c0,0.332-0.57,4.472-1.047,6.09
		c-0.285,0.902-0.38,0.998-1.236,1.38c-1.903,0.761-5.52,1.094-8.564,1.094C103.431,54.835,98.626,53.075,94.867,49.697z"/>
	<path fill="#FFFFFF" d="M141.108,23.006c9.42,0,16.557,5.757,16.557,15.177c0,9.04-6.708,16.508-16.794,16.508
		c-11.467,0-16.367-8.61-16.367-15.891C124.504,32.284,129.547,23.006,141.108,23.006z M142.059,53.027
		c3.759,0,11.323-1.998,11.323-13.702c0-9.706-5.899-14.796-12.512-14.796c-6.994,0-12.037,4.377-12.037,13.179
		C128.834,47.128,134.495,53.027,142.059,53.027z"/>
	<path fill="#FFFFFF" d="M196.676,48.982c0.143,1.428,0.429,3.615,2.141,4.188c1.189,0.381,2.283,0.381,2.712,0.381
		c0.19,0,0.333,0.096,0.333,0.285c0,0.238-0.38,0.381-0.855,0.381c-0.951,0-5.613-0.048-7.137-0.189
		c-0.999-0.096-1.189-0.238-1.189-0.428c0-0.145,0.096-0.287,0.285-0.334c0.238-0.048,0.285-0.666,0.19-1.428l-1.998-20.553h-0.096
		l-10.087,20.648c-0.855,1.76-1.094,2.142-1.475,2.142s-0.619-0.382-1.428-1.854c-1.094-2-3.854-7.186-4.9-9.373
		c-1.236-2.57-4.615-9.374-5.328-11.039h-0.19l-1.618,18.269c-0.048,0.619-0.048,1.38-0.048,2.046c0,0.619,0.381,0.999,1,1.142
		c0.713,0.19,1.332,0.238,1.617,0.238c0.143,0,0.333,0.143,0.333,0.285c0,0.286-0.285,0.381-0.761,0.381
		c-1.57,0-3.568-0.143-3.901-0.143c-0.381,0-2.379,0.143-3.521,0.143c-0.428,0-0.713-0.095-0.713-0.381
		c0-0.143,0.189-0.285,0.428-0.285c0.333,0,0.618-0.048,1.237-0.143c1.38-0.238,1.427-1.713,1.617-3.235l3.045-26.405
		c0.048-0.428,0.238-0.713,0.476-0.713c0.286,0,0.619,0.143,0.856,0.618l12.656,25.121l12.18-25.073
		c0.189-0.381,0.381-0.666,0.666-0.666s0.521,0.333,0.618,1.094L196.676,48.982z"/>
	<path fill="#FFFFFF" d="M207.327,35.281c0-6.28,0-7.422-0.095-8.707c-0.096-1.38-0.333-2.046-1.713-2.236
		c-0.333-0.047-1.047-0.095-1.428-0.095c-0.144,0-0.332-0.19-0.332-0.333c0-0.238,0.188-0.333,0.666-0.333
		c1.901,0,4.52,0.095,4.853,0.095c0.903,0,4.044-0.095,5.946-0.095c5.377,0,7.279,1.665,7.992,2.284
		c0.953,0.856,2.095,2.665,2.095,4.853c0,5.804-4.378,9.658-10.8,9.658c-0.238,0-0.951,0-1.189-0.048
		c-0.189,0-0.428-0.19-0.428-0.381c0-0.334,0.236-0.428,1.094-0.428c4.52,0,7.755-2.855,7.755-6.519
		c0-1.333-0.144-3.949-2.379-6.138c-2.188-2.188-4.71-1.951-5.661-1.951c-0.714,0-1.902,0.19-2.332,0.286
		c-0.236,0.047-0.333,0.333-0.333,0.761v16.462c0,3.901,0,7.089,0.19,8.754c0.143,1.188,0.381,1.95,1.666,2.142
		c0.57,0.096,1.475,0.189,1.854,0.189c0.237,0,0.333,0.189,0.333,0.333c0,0.19-0.189,0.333-0.667,0.333
		c-2.282,0-5.043-0.143-5.233-0.143c-0.143,0-2.854,0.143-4.139,0.143c-0.429,0-0.666-0.095-0.666-0.333
		c0-0.144,0.096-0.333,0.334-0.333c0.381,0,0.903-0.095,1.283-0.189c0.811-0.19,0.904-0.951,1.096-2.142
		c0.236-1.665,0.236-4.853,0.236-8.754L207.327,35.281L207.327,35.281z"/>
	<path fill="#FFFFFF" d="M232.588,35.281c0-6.28,0-7.422-0.095-8.707c-0.095-1.38-0.333-2.046-1.713-2.236
		c-0.333-0.047-1.047-0.095-1.427-0.095c-0.145,0-0.334-0.19-0.334-0.333c0-0.238,0.189-0.333,0.666-0.333
		c1.902,0,4.711,0.095,4.947,0.095c0.43,0,3.949-0.095,5.233-0.095c2.665,0,5.614,0.238,7.804,1.76
		c1.047,0.761,2.901,2.712,2.901,5.519c0,2.997-1.237,5.899-5.14,9.229c3.427,4.282,6.328,7.945,8.756,10.468
		c2.234,2.283,3.615,2.664,4.662,2.807c0.809,0.144,1.236,0.144,1.475,0.144s0.381,0.19,0.381,0.333
		c0,0.238-0.237,0.333-0.999,0.333h-2.616c-2.379,0-3.426-0.237-4.473-0.81c-1.809-0.95-3.33-2.901-5.709-5.946
		c-1.761-2.188-3.616-4.806-4.521-5.899c-0.188-0.189-0.285-0.238-0.569-0.238l-5.329-0.094c-0.189,0-0.285,0.094-0.285,0.332v0.951
		c0,3.901,0,7.042,0.189,8.707c0.144,1.189,0.382,1.95,1.666,2.141c0.57,0.097,1.475,0.19,1.854,0.19
		c0.285,0,0.333,0.19,0.333,0.333c0,0.189-0.189,0.333-0.666,0.333c-2.283,0-4.947-0.144-5.139-0.144
		c-0.047,0-2.854,0.144-4.139,0.144c-0.43,0-0.666-0.095-0.666-0.333c0-0.143,0.095-0.333,0.332-0.333
		c0.381,0,0.904-0.095,1.285-0.19c0.809-0.189,0.903-0.951,1.094-2.141c0.238-1.665,0.238-4.854,0.238-8.754v-7.137H232.588z
		 M236.204,38.707c0,0.237,0.095,0.38,0.285,0.521c0.619,0.334,2.76,0.619,4.615,0.619c0.999,0,2.141-0.048,3.14-0.714
		c1.428-0.951,2.521-3.092,2.521-6.185c0-5.043-2.76-7.945-7.231-7.945c-1.235,0-2.567,0.143-2.997,0.238
		c-0.189,0.095-0.333,0.238-0.333,0.476V38.707z"/>
	<path fill="#FFFFFF" d="M275.118,23.006c9.421,0,16.558,5.757,16.558,15.177c0,9.04-6.709,16.508-16.795,16.508
		c-11.466,0-16.365-8.61-16.365-15.891C258.514,32.284,263.558,23.006,275.118,23.006z M276.07,53.027
		c3.759,0,11.323-1.998,11.323-13.702c0-9.706-5.899-14.796-12.514-14.796c-6.993,0-12.036,4.377-12.036,13.179
		C262.844,47.128,268.505,53.027,276.07,53.027z"/>
	<path fill="#FFFFFF" d="M330.685,48.982c0.143,1.428,0.429,3.615,2.141,4.188c1.189,0.381,2.284,0.381,2.712,0.381
		c0.19,0,0.333,0.096,0.333,0.285c0,0.238-0.38,0.381-0.855,0.381c-0.951,0-5.613-0.048-7.137-0.189
		c-0.999-0.096-1.188-0.238-1.188-0.428c0-0.145,0.095-0.287,0.285-0.334c0.237-0.048,0.285-0.666,0.189-1.428l-1.998-20.553h-0.096
		l-10.086,20.648c-0.856,1.76-1.095,2.142-1.475,2.142c-0.382,0-0.619-0.382-1.429-1.854c-1.094-2-3.854-7.186-4.899-9.373
		c-1.237-2.57-4.615-9.374-5.328-11.039h-0.19l-1.618,18.269c-0.048,0.619-0.048,1.38-0.048,2.046c0,0.619,0.381,0.999,1,1.142
		c0.713,0.19,1.332,0.238,1.617,0.238c0.143,0,0.333,0.143,0.333,0.285c0,0.286-0.285,0.381-0.761,0.381
		c-1.57,0-3.568-0.143-3.901-0.143c-0.381,0-2.379,0.143-3.521,0.143c-0.429,0-0.713-0.095-0.713-0.381
		c0-0.143,0.188-0.285,0.428-0.285c0.333,0,0.618-0.048,1.237-0.143c1.38-0.238,1.427-1.713,1.616-3.235l3.045-26.405
		c0.049-0.428,0.238-0.713,0.477-0.713c0.286,0,0.619,0.143,0.855,0.618l12.656,25.121l12.18-25.073
		c0.189-0.381,0.381-0.666,0.666-0.666s0.522,0.333,0.618,1.094L330.685,48.982z"/>
	<path fill="#FFFFFF" d="M345.144,42.418c0,3.9,0,7.089,0.189,8.754c0.144,1.189,0.285,1.95,1.522,2.141
		c0.618,0.097,1.521,0.19,1.902,0.19c0.237,0,0.334,0.19,0.334,0.333c0,0.189-0.19,0.333-0.668,0.333
		c-2.33,0-5.043-0.144-5.232-0.144c-0.237,0-2.854,0.144-4.139,0.144c-0.43,0-0.666-0.095-0.666-0.333
		c0-0.143,0.095-0.333,0.333-0.333c0.381,0,0.903-0.095,1.283-0.19c0.811-0.189,0.952-0.951,1.096-2.141
		c0.189-1.665,0.236-4.854,0.236-8.754v-7.137c0-6.28,0-7.422-0.095-8.707c-0.095-1.38-0.428-1.999-1.332-2.189
		c-0.476-0.095-0.999-0.143-1.285-0.143c-0.188,0-0.333-0.19-0.333-0.333c0-0.238,0.19-0.333,0.666-0.333
		c1.38,0,3.997,0.095,4.234,0.095c0.189,0,2.902-0.095,4.188-0.095c0.477,0,0.666,0.095,0.666,0.333
		c0,0.143-0.189,0.333-0.333,0.333c-0.286,0-0.57,0-1.047,0.095c-1.142,0.238-1.38,0.809-1.475,2.236
		c-0.048,1.284-0.048,2.426-0.048,8.707v7.138H345.144z"/>
	<path fill="#FFFFFF" d="M354.371,53.6c-0.57-0.287-0.618-0.43-0.618-1.522c0-1.999,0.19-3.616,0.237-4.282
		c0-0.429,0.096-0.666,0.334-0.666c0.237,0,0.38,0.143,0.38,0.477c0,0.332,0,0.903,0.144,1.475c0.666,2.95,3.807,3.997,6.612,3.997
		c4.141,0,6.28-2.332,6.28-5.377c0-2.901-1.57-4.281-5.281-7.041l-1.901-1.429c-4.521-3.376-5.995-5.852-5.995-8.658
		c0-4.757,3.759-7.612,9.276-7.612c1.665,0,3.331,0.238,4.33,0.476c0.81,0.19,1.143,0.19,1.476,0.19s0.428,0.048,0.428,0.286
		c0,0.19-0.189,1.522-0.189,4.282c0,0.619-0.048,0.904-0.332,0.904c-0.286,0-0.335-0.19-0.382-0.523
		c-0.048-0.476-0.381-1.57-0.618-1.998c-0.285-0.476-1.665-1.999-5.425-1.999c-3.045,0-5.565,1.522-5.565,4.377
		c0,2.569,1.285,4.044,5.424,6.851l1.188,0.809c5.092,3.473,6.853,6.279,6.853,9.753c0,2.379-0.904,4.948-3.901,6.897
		c-1.761,1.144-4.377,1.428-6.661,1.428C358.51,54.691,356.084,54.407,354.371,53.6z"/>
	<path fill="#FFFFFF" d="M379.917,35.281c0-6.28,0-7.422-0.095-8.707c-0.095-1.38-0.333-2.046-1.713-2.236
		c-0.333-0.047-1.047-0.095-1.427-0.095c-0.145,0-0.333-0.19-0.333-0.333c0-0.238,0.188-0.333,0.666-0.333
		c1.901,0,4.613,0.095,4.853,0.095c0.285,0,9.039,0.047,9.991,0c0.809-0.048,1.57-0.19,1.903-0.238
		c0.188-0.048,0.38-0.19,0.569-0.19c0.144,0,0.19,0.19,0.19,0.38c0,0.286-0.238,0.761-0.333,1.903
		c-0.048,0.38-0.144,2.188-0.238,2.664c-0.047,0.19-0.188,0.428-0.38,0.428c-0.238,0-0.333-0.19-0.333-0.523
		c0-0.286-0.048-0.952-0.238-1.428c-0.285-0.666-0.714-0.951-2.997-1.237c-0.714-0.095-5.565-0.143-6.043-0.143
		c-0.188,0-0.236,0.143-0.236,0.428v10.99c0,0.285,0,0.428,0.236,0.428c0.523,0,6.043,0,6.994-0.095
		c0.999-0.095,1.618-0.143,2.046-0.571c0.285-0.286,0.477-0.523,0.618-0.523c0.144,0,0.238,0.095,0.238,0.333
		c0,0.238-0.238,0.904-0.333,2.236c-0.096,0.809-0.19,2.331-0.19,2.616c0,0.333-0.095,0.763-0.381,0.763
		c-0.19,0-0.285-0.144-0.285-0.382c0-0.381,0-0.809-0.189-1.331c-0.144-0.572-0.523-1.048-2.142-1.238
		c-1.142-0.143-5.613-0.19-6.328-0.19c-0.236,0-0.284,0.143-0.284,0.286v3.378c0,1.379-0.049,6.09,0,6.898
		c0.095,2.711,0.855,3.234,4.994,3.234c1.096,0,3.094,0,4.188-0.429c1.094-0.476,1.665-1.188,1.902-2.808
		c0.096-0.476,0.189-0.617,0.429-0.617c0.237,0,0.285,0.332,0.285,0.617s-0.333,3.045-0.57,3.901
		c-0.286,1.047-0.714,1.047-2.332,1.047c-3.14,0-5.566-0.096-7.279-0.144c-1.76-0.096-2.854-0.096-3.473-0.096
		c-0.096,0-0.904,0-1.808,0.049c-0.811,0.047-1.762,0.095-2.428,0.095c-0.429,0-0.666-0.095-0.666-0.333
		c0-0.143,0.096-0.333,0.333-0.333c0.382,0,0.904-0.144,1.284-0.19c0.811-0.143,0.904-0.951,1.095-2.141
		c0.237-1.665,0.237-4.854,0.237-8.754L379.917,35.281L379.917,35.281z"/>
</g>
<path fill="#FFFFFF" d="M72.072,23.371c-0.019-0.671-0.037-1.306-0.045-1.794c-0.027-1.506-0.382-3.22-0.842-4.075
	c-0.423-0.785-0.704-1.058-1.105-1.313l-0.07-0.045c-0.213-0.137-0.26-0.154-0.626-0.289c-0.107-0.039-0.246-0.091-0.432-0.161
	c-0.431-0.161-0.76-0.237-1.036-0.237c-0.213,0-0.364,0.043-0.474,0.076c-0.089-0.046-0.186-0.096-0.284-0.145
	c-0.027-0.069-0.056-0.141-0.085-0.213l-0.043-0.11c-0.301-0.753-0.961-1.141-1.999-1.556c-0.698-0.279-1.206-0.398-1.697-0.398
	c-0.179,0-0.339,0.016-0.457,0.03c-0.205,0.024-0.408,0.106-0.595,0.209c-0.076-0.029-0.158-0.054-0.242-0.076
	c-0.125-0.273-0.257-0.542-0.386-0.777c-0.536-0.98-0.87-1.194-1.125-1.274c-0.485-0.152-1.363-0.306-2.101-0.306
	c-0.064,0-0.128,0.001-0.19,0.003c-0.568,0.021-1.188,0.414-1.625,0.759c-0.099-0.186-0.218-0.413-0.356-0.681
	c-0.568-1.101-1.578-1.204-2.389-1.287l-0.069-0.007c-0.111-0.011-0.226-0.017-0.34-0.017c-0.771,0-1.37,0.254-1.436,0.283
	c-0.01,0.004-0.02,0.009-0.029,0.014c-0.237,0.121-1.441,0.755-1.884,1.356c-0.275,0.374-0.522,0.966-0.674,1.376
	c-0.145-0.015-0.313-0.025-0.494-0.025c-0.326,0-0.63,0.035-0.902,0.103c-1.009,0.252-1.576,1.467-1.637,1.605l-1.036,2.367
	c-0.36,0.822-0.764,1.771-1.154,2.688c-0.745,1.75-1.515,3.56-2.089,4.755c-0.837,1.744-0.663,3.337,0.52,4.734
	c0.625,0.738,3.399,4.267,5.557,8.043c1.97,3.448,1.919,5.036,1.481,9.122c-0.406,3.787-1.822,14.533-2.039,16.175h3.578
	c-0.187-1.472-0.614-5.15-0.526-7.287c0.11-2.715,0.554-8.254,0.997-10.416c0.443-2.16,0.166-3.271,2.493-3.879
	c2.327-0.609,2.05-0.554,2.937-1.107c0.886-0.554,1.274-1.053,0.388-0.775c-0.886,0.277-1.33,0.055-4.432-3.435
	c-3.103-3.491-5.707-5.762-7.037-6.981c-1.33-1.219-2.493-3.491-1.108-7.313c1.385-3.822,2.382-6.261,2.382-6.261
	s0.386-0.903,1.191-1.087c0.607-0.14,1.596-0.171,2.723-0.074c1.151,0.186,2.76,0.366,4.109,0.218
	c2.131-0.234,2.642-0.002,2.643-0.002c0.012,0.007,0.025,0.012,0.04,0.016c0.037,0.01,0.901,0.252,0.708,1.292
	c-0.123,0.663-0.403,1.001-1.25,1.508c-0.059,0.035-0.181,0.097-0.334,0.177c-0.41,0.211-1.022,0.525-1.513,0.861
	c-0.272,0.158-1.511,0.847-2.57,1.024c-0.975,0.163-1.874,0.112-2.527-0.16c-0.135-0.079-0.265-0.17-0.387-0.277
	c-0.069-0.061-0.174-0.054-0.235,0.015c-0.059,0.067-0.054,0.169,0.011,0.23c0.048,0.057,0.196,0.235,0.361,0.463
	c0.323,0.588,0.776,1.719,0.049,2.529c0,0,0.305,1.052-0.416,1.745c0,0,0.053,0.064,0.184,0.166c0.386,0.352,1.301,1.2,1.969,1.939
	c0.867,0.96,3.964,3.035,6.349,4.893c2.384,1.858,3.407,4.119,3.407,4.119s-1.022-2.509-1.982-3.469
	c-0.959-0.96-2.261-1.92-2.292-2.57c-0.031-0.65,0.558-0.805,1.022-0.279c0.464,0.527,1.61,1.765,3.004,1.394
	c1.393-0.372,2.353-0.495,3.004-0.495c0.65,0,1.734-0.062,2.415-0.96c0.607-0.8,0.871-1.649,2.148-1.802
	c0.764,0.002,0.903,0.018,1.153-0.04c0.27-0.062,0.022-0.083-0.413-0.27s-1.199-0.583-0.39-0.957c0.212-0.098,0.36-0.181,0.46-0.254
	c0.056-0.033,0.117-0.069,0.185-0.112c0.226-0.143,0.598-0.478,0.79-0.485c0.404-0.015,0.533,0.698,0.576,1.52
	c0.007,0.2,0.012,0.363,0.018,0.489c0,0.031,0.001,0.062,0.002,0.093c0,0.003,0,0.006,0,0.01c0.005,0.418,0.005,0.792,0,1.088
	c-0.011,0.528-0.014,1.126-0.016,1.705c-0.003,0.882-0.006,1.716-0.04,2.199c-0.053,0.765-0.214,2.686-0.58,4.006
	c-0.114,0.411-0.239,0.781-0.37,1.116c-0.308,0.601-1.557,3.005-2.252,3.953c-0.797,1.088-1.548,1.572-2.369,1.838
	c-0.821,0.267-1.163,0.267-3.203-0.24c0,0,1.756,1.207,2.42,1.798c0.665,0.592,1.182,1.848,1.33,4.985
	c0.124,2.646,0.589,11.023,0.732,13.604h1.373c-0.221-5.138-0.669-15.795-0.628-16.963c0.051-1.455,1.898-6.289,2.28-6.943
	c0.422-0.723,0.903-1.644,1.274-2.984c0.38-1.374,0.547-3.343,0.601-4.126c0.034-0.503,0.038-1.346,0.041-2.238
	c0.002-0.576,0.005-1.172,0.015-1.694C72.157,26.418,72.112,24.799,72.072,23.371z M68.739,16.264
	c0.188,0.07,0.328,0.122,0.436,0.162c0.35,0.129,0.35,0.129,0.506,0.23l0.073,0.046c0.285,0.181,0.5,0.355,0.896,1.088
	c0.072,0.134,0.146,0.308,0.217,0.51c0.326,1.04,0.188,1.875-0.098,2.636c-0.311,0.83-1.071,1.953-1.071,1.953l0,0
	c-0.147,0.187-0.342,0.468-0.551,0.776c-0.527,0.775-1.053,1.662-2.078,1.413c-1.025-0.25-2.022-1.081-2.022-1.081
	s-0.665-0.416-0.249-1.302c0.416-0.887,1.191-2.41,1.552-3.629c0.36-1.219,0.443-2.161,0.775-2.632
	c0.04-0.056,0.078-0.107,0.115-0.155c0.072-0.06,0.15-0.108,0.229-0.124c0.05-0.01,0.096-0.023,0.142-0.037
	c0.092-0.027,0.178-0.053,0.308-0.053C68.117,16.066,68.379,16.129,68.739,16.264z M62.947,13.747
	c0.102-0.012,0.239-0.026,0.386-0.026c0.409,0,0.849,0.106,1.471,0.354c0.906,0.362,1.438,0.663,1.659,1.216l0.044,0.111
	c0.059,0.146,0.112,0.28,0.159,0.405c0.039,0.282,0.045,0.616-0.041,0.96c-0.222,0.886-1.357,2.936-1.801,4.321
	c-0.444,1.385-0.554,2.41-1.025,3.075c-0.471,0.665-1.025,0.915-2.05,0.72c-1.025-0.194-1.524-0.969-1.607-1.883
	s0.274-1.853,0.609-2.826c0.305-0.886,0.416-1.523,0.637-2.715c0.205-1.097,0.313-2.658,0.876-3.365
	C62.466,13.937,62.722,13.773,62.947,13.747z M55.717,11.279c0.118,0.229,0.222,0.427,0.312,0.596
	c0.058,0.203,0.122,0.529,0.048,0.848c-0.07,0.303-0.167,0.558-0.236,0.717c-0.109,0.006-0.221,0.013-0.337,0.019
	c-1.2,0.066-2.573-0.12-3.255-0.231c-0.004-0.089-0.022-0.201-0.061-0.346c-0.179-0.662-0.664-2.323,1.002-2.571
	c0.087-0.008,0.178-0.013,0.271-0.013c0.094,0,0.188,0.005,0.278,0.014l0.069,0.007C54.575,10.397,55.301,10.472,55.717,11.279z
	 M59.058,15.25c0.104-0.56-0.043-0.943-0.251-1.201l0.003,0.002c-0.002-0.003-0.005-0.005-0.008-0.008
	c-0.118-0.145-0.254-0.249-0.374-0.321c-0.514-0.337-1.133-0.359-2.018-0.315c0.04-0.258,0.175-0.85,0.586-1.249
	c0.365-0.287,0.864-0.614,1.265-0.628c0.712-0.026,1.608,0.125,2.087,0.274c0.327,0.103,0.873,1.096,1.255,1.986
	c0.072,0.349,0.115,0.799,0.008,1.23c-0.222,0.887-1.08,3.629-1.468,5.375c-0.388,1.745-0.471,3.075-1.911,3.02
	c-1.441-0.056-2.494-0.832-2.771-2.272c-0.239-1.243-0.125-2.631,1.62-3.86c0.079-0.041,0.152-0.079,0.218-0.113
	c0.166-0.085,0.285-0.146,0.354-0.187C58.479,16.488,58.901,16.103,59.058,15.25z"/>
</svg>
