<?xml version="1.0" standalone="no"?>
<!DOCTYPE svg PUBLIC "-//W3C//DTD SVG 1.1//EN" "http://www.w3.org/Graphics/SVG/1.1/DTD/svg11.dtd">
<svg version="1.1" id="Layer_1" xmlns="http://www.w3.org/2000/svg" xmlns:xlink="http://www.w3.org/1999/xlink" x="0px" y="0px"
	 width="288px" height="77.25px" viewBox="0 0 288 77.25" enable-background="new 0 0 288 77.25" xml:space="preserve" preserveAspectRatio="none">
<g>
	<g>
		<path d="M287.896,63.593c0,6.88-5.373,12.464-11.994,12.464H14.046c-6.624,0-11.993-5.584-11.993-12.464V16.844
			c0-6.882,5.37-12.463,11.993-12.463h261.856c6.621,0,11.994,5.581,11.994,12.463V63.593L287.896,63.593z"/>
		<path d="M288.001,63.598c0,0-0.007,0.17-0.022,0.504c-0.014,0.332-0.021,0.83-0.138,1.488c-0.21,1.293-0.661,3.278-2.141,5.396
			c-1.421,2.091-4.013,4.367-7.733,5.033c-0.912,0.183-1.9,0.205-2.882,0.203c-0.989,0.004-2.013,0.006-3.069,0.01
			c-2.109,0.006-4.354,0.014-6.729,0.021c-9.488-0.001-21.012,0.159-34.229,0.254c-13.218,0.108-28.127,0.229-44.395,0.364
			c-8.133,0.031-16.604,0.066-25.374,0.104c-8.769,0.043-17.833-0.021-27.152-0.026c-18.639,0.002-38.293-0.212-58.626-0.329
			c-20.338-0.1-41.354-0.2-62.708-0.305c-2.758-0.312-5.362-1.541-7.306-3.506c-1.94-1.947-3.264-4.523-3.643-7.266
			C1.637,64.166,1.704,62.8,1.69,61.467l-0.008-4.039c-0.006-2.695-0.011-5.393-0.017-8.093c-0.06-10.811-0.12-21.665-0.181-32.518
			c0.012-2.742,0.861-5.679,2.576-7.931c1.675-2.29,4.13-4.048,6.913-4.754c1.362-0.379,2.878-0.451,4.192-0.427l4.059-0.021
			c2.705-0.014,5.408-0.029,8.108-0.043c10.802-0.057,21.562-0.114,32.236-0.17c21.349-0.057,42.36-0.112,62.693-0.166
			c20.333,0.006,39.988,0.012,58.625,0.017c18.639-0.016,36.262,0.095,52.525,0.195c8.133,0.069,15.927,0.135,23.34,0.198
			c3.707,0.036,7.316,0.07,10.828,0.104c1.756,0.017,3.482,0.034,5.188,0.05c1.696,0.046,3.381-0.067,5.092,0.22
			c3.431,0.582,6.328,2.652,8.101,5.288c0.896,1.317,1.521,2.772,1.874,4.256c0.371,1.477,0.408,3.017,0.369,4.426
			c-0.062,5.719-0.094,10.971-0.102,15.715C288.038,52.752,288,63.596,288,63.596L288.001,63.598L288.001,63.598z M287.793,63.593
			c0,0-0.038-10.844-0.104-29.822c-0.008-4.744-0.039-9.997-0.103-15.715c0.017-1.444-0.048-2.85-0.425-4.258
			c-0.361-1.399-0.979-2.761-1.837-3.984c-1.7-2.449-4.474-4.323-7.599-4.795c-1.558-0.242-3.252-0.108-4.957-0.122
			c-1.705,0.016-3.436,0.033-5.188,0.05c-3.513,0.034-7.121,0.068-10.828,0.104c-7.413,0.063-15.207,0.129-23.34,0.198
			c-16.269,0.1-33.892,0.211-52.524,0.195c-18.641,0.005-38.295,0.011-58.626,0.017c-20.333-0.054-41.344-0.11-62.693-0.167
			c-10.675-0.057-21.435-0.113-32.236-0.17c-2.7-0.014-5.403-0.029-8.108-0.043L15.166,5.06c-1.39-0.037-2.606,0.017-3.864,0.34
			C8.813,6.001,6.585,7.556,5.044,9.615c-0.776,1.026-1.395,2.182-1.787,3.414c-0.402,1.255-0.606,2.445-0.635,3.843
			c-0.061,10.835-0.121,21.67-0.181,32.462c-0.006,2.7-0.011,5.398-0.017,8.093l-0.008,4.039c0.007,1.353-0.06,2.693,0.142,3.974
			c0.347,2.597,1.591,5.039,3.419,6.892c1.818,1.864,4.319,3.041,6.86,3.342c2.631,0.138,5.322,0.048,7.971,0.062
			c2.658-0.006,5.309-0.014,7.954-0.021c5.29-0.015,10.553-0.028,15.784-0.043c10.463-0.06,20.799-0.114,30.965-0.173
			c20.333-0.118,39.988-0.331,58.626-0.329c9.319-0.006,18.384-0.069,27.152-0.026c8.77,0.034,17.24,0.068,25.374,0.104
			c16.267,0.133,31.177,0.255,44.394,0.363c13.217,0.097,24.738,0.255,34.229,0.255c2.373,0.007,4.616,0.014,6.729,0.021
			c2.107-0.033,4.109,0.131,5.896-0.172c3.624-0.624,6.174-2.83,7.577-4.871c1.462-2.062,1.921-4.016,2.133-5.275
			c0.115-0.637,0.13-1.137,0.146-1.472C287.785,63.761,287.792,63.592,287.793,63.593L287.793,63.593z"/>
	</g>
</g>
<g>
	<g>
		
			<linearGradient id="SVGID_1_" gradientUnits="userSpaceOnUse" x1="324.6875" y1="750.4648" x2="611.1543" y2="750.4648" gradientTransform="matrix(1 0 0 1 -324 -713.75)">
			<stop  offset="0" style="stop-color:#B21C1E"/>
			<stop  offset="0.5521" style="stop-color:#FF0000"/>
			<stop  offset="0.609" style="stop-color:#EB0707"/>
			<stop  offset="0.7076" style="stop-color:#CF1010"/>
			<stop  offset="0.8061" style="stop-color:#BA1717"/>
			<stop  offset="0.9039" style="stop-color:#AE1C1C"/>
			<stop  offset="1" style="stop-color:#AA1D1D"/>
		</linearGradient>
		<path fill="url(#SVGID_1_)" d="M287.154,60.139c0,6.897-5.379,12.493-12.021,12.493H12.709c-6.64,0-12.021-5.596-12.021-12.493
			V13.292c0-6.897,5.381-12.493,12.021-12.493h262.423c6.644,0,12.022,5.596,12.022,12.493V60.139L287.154,60.139z"/>
		<path d="M287.26,60.143c0,0-0.008,0.17-0.023,0.504c-0.014,0.334-0.021,0.832-0.137,1.492c-0.211,1.297-0.662,3.285-2.144,5.408
			c-1.423,2.096-4.021,4.378-7.748,5.046c-0.916,0.183-1.905,0.206-2.89,0.205c-0.991,0.004-2.019,0.007-3.075,0.011
			c-2.117,0.006-4.367,0.015-6.745,0.021c-9.51-0.001-21.057,0.156-34.301,0.255c-13.246,0.106-28.189,0.229-44.491,0.364
			c-8.149,0.031-16.642,0.064-25.429,0.103c-8.789,0.043-17.875-0.021-27.212-0.026c-18.679,0.002-38.377-0.211-58.754-0.33
			c-20.382-0.1-41.444-0.199-62.845-0.303c-2.764-0.312-5.374-1.545-7.322-3.515c-1.945-1.95-3.271-4.534-3.653-7.276
			c-0.22-1.384-0.154-2.75-0.167-4.088l-0.008-4.049c-0.006-2.699-0.011-5.402-0.017-8.109C0.239,35.028,0.178,24.16,0.117,13.292
			C0.13,10.49,0.98,7.586,2.698,5.316c1.678-2.295,4.138-4.058,6.926-4.768c1.365-0.38,2.885-0.453,4.202-0.429l4.068-0.021
			c2.711-0.015,5.42-0.029,8.126-0.043c10.825-0.057,21.608-0.114,32.306-0.171c21.396-0.057,42.453-0.112,62.83-0.167
			c20.377,0.006,40.074,0.011,58.754,0.017c18.68-0.017,36.34,0.095,52.642,0.195c8.15,0.069,15.962,0.135,23.392,0.198
			c3.716,0.036,7.334,0.07,10.854,0.104c1.76,0.017,3.493,0.033,5.201,0.05c1.7,0.046,3.389-0.067,5.104,0.22
			c3.437,0.583,6.344,2.657,8.115,5.298c0.896,1.32,1.521,2.778,1.879,4.265c0.373,1.48,0.41,3.023,0.37,4.436
			c-0.062,5.731-0.091,10.996-0.099,15.75c-0.067,19.02-0.105,29.887-0.105,29.887L287.26,60.143L287.26,60.143z M287.051,60.139
			c0,0-0.037-10.869-0.105-29.888c-0.008-4.754-0.037-10.019-0.098-15.75c0.012-1.447-0.051-2.855-0.428-4.267
			c-0.363-1.402-0.979-2.768-1.843-3.993c-1.703-2.454-4.479-4.332-7.611-4.805c-1.562-0.242-3.261-0.108-4.97-0.122
			c-1.708,0.017-3.441,0.033-5.201,0.05c-3.52,0.034-7.138,0.069-10.852,0.104c-7.43,0.063-15.241,0.129-23.394,0.198
			c-16.302,0.1-33.962,0.212-52.642,0.195c-18.68,0.005-38.377,0.011-58.754,0.017c-20.377-0.054-41.434-0.11-62.83-0.167
			C47.628,1.656,36.845,1.599,26.02,1.542c-2.707-0.014-5.416-0.028-8.126-0.043l-4.068-0.021c-1.392-0.035-2.61,0.02-3.871,0.344
			c-2.494,0.604-4.726,2.162-6.27,4.227c-1.586,2.068-2.376,4.628-2.425,7.245C1.199,24.16,1.138,35.028,1.078,45.854
			c-0.005,2.707-0.011,5.41-0.017,8.11l-0.008,4.048c0.007,1.356-0.061,2.699,0.143,3.982c0.349,2.599,1.596,5.049,3.428,6.902
			c1.822,1.871,4.33,3.047,6.876,3.349c2.637,0.135,5.333,0.049,7.988,0.063c2.663-0.008,5.32-0.016,7.971-0.021
			c5.301-0.016,10.576-0.029,15.819-0.043c10.485-0.061,20.844-0.117,31.033-0.174c20.377-0.118,40.075-0.332,58.754-0.33
			c9.339-0.006,18.423-0.07,27.212-0.027c8.787,0.036,17.277,0.07,25.429,0.104c16.302,0.135,31.245,0.257,44.491,0.363
			c13.244,0.098,24.792,0.256,34.301,0.256c2.378,0.008,4.628,0.016,6.745,0.021c2.112-0.034,4.12,0.129,5.909-0.174
			c3.632-0.626,6.188-2.838,7.593-4.885c1.464-2.066,1.922-4.023,2.135-5.289c0.117-0.639,0.13-1.14,0.146-1.475
			c0.019-0.334,0.025-0.503,0.025-0.503V60.139z"/>
	</g>
</g>
<g id="Layer_2">
</g>
<g enable-background="new    ">
	<path fill="#FFFFFF" d="M74.025,32.155c0-7.489,0-8.833-0.096-10.369c-0.096-1.632-0.48-2.4-2.064-2.736
		c-0.384-0.096-1.2-0.144-1.632-0.144c-0.192,0-0.384-0.097-0.384-0.288c0-0.288,0.24-0.385,0.768-0.385
		c2.161,0,5.185,0.145,5.425,0.145c0.528,0,4.176-0.145,5.665-0.145c3.024,0,6.24,0.288,8.785,2.112
		c1.2,0.864,3.312,3.217,3.312,6.528c0,3.553-1.488,7.105-5.808,11.09c3.936,5.04,7.2,9.312,9.985,12.289
		c2.592,2.735,4.656,3.264,5.856,3.456c0.912,0.144,1.584,0.144,1.872,0.144c0.24,0,0.432,0.145,0.432,0.288
		c0,0.288-0.288,0.384-1.152,0.384h-3.408c-2.688,0-3.888-0.239-5.136-0.911c-2.064-1.104-3.745-3.457-6.481-7.057
		c-2.016-2.641-4.272-5.857-5.232-7.105c-0.192-0.191-0.336-0.288-0.624-0.288l-5.904-0.096c-0.24,0-0.336,0.145-0.336,0.384v1.152
		c0,4.608,0,8.4,0.24,10.417c0.144,1.393,0.432,2.448,1.872,2.641c0.672,0.096,1.729,0.191,2.16,0.191
		c0.288,0,0.384,0.145,0.384,0.288c0,0.24-0.24,0.384-0.768,0.384c-2.64,0-5.665-0.144-5.904-0.144
		c-0.048,0-3.072,0.144-4.513,0.144c-0.528,0-0.768-0.096-0.768-0.384c0-0.144,0.096-0.288,0.384-0.288
		c0.432,0,1.008-0.096,1.44-0.191c0.96-0.192,1.2-1.248,1.392-2.641c0.24-2.017,0.24-5.809,0.24-10.417V32.155z M77.865,36.331
		c0,0.24,0.096,0.433,0.336,0.576c0.72,0.433,2.928,0.769,5.041,0.769c1.152,0,2.496-0.145,3.6-0.912
		c1.68-1.152,2.928-3.745,2.928-7.393c0-6.001-3.168-9.602-8.305-9.602c-1.44,0-2.736,0.145-3.216,0.288
		c-0.24,0.097-0.384,0.288-0.384,0.576V36.331z"/>
	<path fill="#FFFFFF" d="M109.112,35.467c0-6.336,0-7.488-0.096-8.784c-0.096-1.393-0.336-2.064-1.728-2.257
		c-0.336-0.048-1.056-0.096-1.44-0.096c-0.144,0-0.336-0.191-0.336-0.336c0-0.24,0.192-0.336,0.672-0.336
		c1.92,0,4.657,0.096,4.896,0.096c0.288,0,9.121,0.048,10.081,0c0.816-0.048,1.584-0.191,1.92-0.239
		c0.192-0.049,0.384-0.192,0.576-0.192c0.144,0,0.192,0.192,0.192,0.384c0,0.288-0.24,0.769-0.336,1.92
		c-0.048,0.385-0.144,2.209-0.24,2.688c-0.048,0.192-0.192,0.433-0.384,0.433c-0.24,0-0.336-0.192-0.336-0.528
		c0-0.288-0.048-0.96-0.24-1.44c-0.288-0.672-0.72-0.96-3.024-1.248c-0.72-0.096-5.617-0.144-6.097-0.144
		c-0.192,0-0.24,0.144-0.24,0.432v11.089c0,0.288,0,0.433,0.24,0.433c0.528,0,6.097,0,7.057-0.097
		c1.008-0.096,1.632-0.144,2.064-0.576c0.288-0.288,0.48-0.527,0.624-0.527s0.24,0.096,0.24,0.336c0,0.239-0.24,0.912-0.336,2.256
		c-0.096,0.816-0.192,2.353-0.192,2.641c0,0.336-0.096,0.768-0.384,0.768c-0.192,0-0.288-0.144-0.288-0.384
		c0-0.384,0-0.816-0.192-1.344c-0.144-0.576-0.528-1.057-2.16-1.249c-1.152-0.144-5.665-0.191-6.385-0.191
		c-0.24,0-0.288,0.144-0.288,0.288v3.408c0,1.392-0.048,6.145,0,6.961c0.096,2.735,0.864,3.264,5.041,3.264
		c1.104,0,3.121,0,4.225-0.432c1.104-0.48,1.68-1.2,1.92-2.832c0.096-0.48,0.192-0.625,0.432-0.625s0.288,0.337,0.288,0.625
		c0,0.287-0.336,3.072-0.576,3.936c-0.288,1.057-0.72,1.057-2.352,1.057c-3.168,0-5.617-0.097-7.345-0.145
		c-1.776-0.096-2.88-0.096-3.504-0.096c-0.096,0-0.912,0-1.824,0.048c-0.816,0.048-1.776,0.096-2.448,0.096
		c-0.432,0-0.672-0.096-0.672-0.336c0-0.144,0.096-0.336,0.336-0.336c0.384,0,0.912-0.144,1.296-0.191
		c0.816-0.145,0.912-0.96,1.104-2.16c0.24-1.681,0.24-4.896,0.24-8.833V35.467z"/>
	<path fill="#FFFFFF" d="M132.008,53.949c-0.576-0.288-0.624-0.433-0.624-1.536c0-2.017,0.192-3.648,0.24-4.32
		c0-0.433,0.096-0.673,0.336-0.673s0.384,0.145,0.384,0.48s0,0.912,0.144,1.488c0.672,2.976,3.84,4.032,6.673,4.032
		c4.176,0,6.336-2.353,6.336-5.425c0-2.928-1.584-4.32-5.329-7.104l-1.92-1.44c-4.561-3.408-6.048-5.904-6.048-8.736
		c0-4.801,3.792-7.681,9.361-7.681c1.68,0,3.36,0.24,4.369,0.48c0.815,0.191,1.151,0.191,1.488,0.191
		c0.336,0,0.432,0.048,0.432,0.288c0,0.192-0.192,1.536-0.192,4.32c0,0.624-0.048,0.912-0.336,0.912s-0.336-0.191-0.384-0.528
		c-0.049-0.479-0.385-1.584-0.625-2.016c-0.287-0.48-1.68-2.017-5.472-2.017c-3.072,0-5.617,1.536-5.617,4.417
		c0,2.592,1.296,4.08,5.473,6.912l1.2,0.816c5.136,3.504,6.913,6.336,6.913,9.841c0,2.4-0.912,4.992-3.937,6.961
		c-1.776,1.151-4.417,1.439-6.721,1.439C136.184,55.053,133.736,54.765,132.008,53.949z"/>
	<path fill="#FFFFFF" d="M169.928,42.668c0,3.937,0,7.152,0.193,8.833c0.144,1.2,0.336,1.968,1.631,2.16
		c0.576,0.096,1.537,0.191,1.921,0.191c0.288,0,0.336,0.192,0.336,0.336c0,0.192-0.192,0.336-0.672,0.336
		c-2.304,0-4.993-0.144-5.232-0.144c-0.192,0-3.12,0.144-4.368,0.144c-0.48,0-0.672-0.096-0.672-0.336
		c0-0.144,0.096-0.288,0.336-0.288c0.383,0,0.863-0.096,1.248-0.191c0.863-0.192,1.104-1.008,1.248-2.208
		c0.191-1.681,0.191-4.896,0.191-8.833V25.53l-6.096,0.096c-2.641,0.049-3.648,0.337-4.273,1.297
		c-0.479,0.72-0.527,1.008-0.672,1.296c-0.096,0.336-0.24,0.384-0.432,0.384c-0.096,0-0.288-0.096-0.288-0.336
		c0-0.432,0.815-4.08,0.912-4.416c0.048-0.24,0.288-0.769,0.433-0.769c0.287,0,0.719,0.336,1.871,0.48
		c1.201,0.144,2.832,0.191,3.312,0.191h15.938c1.393,0,2.352-0.096,3.024-0.191c0.624-0.097,1.008-0.192,1.2-0.192
		c0.191,0,0.191,0.24,0.191,0.48c0,1.248-0.144,4.176-0.144,4.656c0,0.336-0.192,0.528-0.384,0.528
		c-0.192,0-0.288-0.145-0.336-0.721l-0.049-0.432c-0.144-1.248-1.056-2.16-5.088-2.257l-5.281-0.096V42.668z"/>
	<path fill="#FFFFFF" d="M194.456,24.475c0.528-1.345,0.72-1.584,1.009-1.584c0.432,0,0.576,0.575,1.008,1.487
		c0.768,1.729,7.537,18.578,10.129,24.771c1.535,3.648,2.688,4.177,3.6,4.465c0.625,0.191,1.248,0.239,1.68,0.239
		c0.24,0,0.529,0.097,0.529,0.336c0,0.24-0.48,0.336-0.961,0.336c-0.623,0-3.744,0-6.672-0.096
		c-0.816-0.048-1.488-0.048-1.488-0.288c0-0.191,0.096-0.191,0.288-0.288c0.239-0.096,0.672-0.432,0.384-1.104l-3.793-9.361
		c-0.096-0.191-0.143-0.24-0.383-0.24h-9.745c-0.192,0-0.337,0.097-0.433,0.337l-2.4,6.528c-0.383,1.008-0.623,2.016-0.623,2.736
		c0,0.815,0.72,1.104,1.439,1.104h0.385c0.336,0,0.432,0.145,0.432,0.336c0,0.24-0.24,0.336-0.624,0.336
		c-1.009,0-3.312-0.144-3.792-0.144c-0.433,0-2.545,0.144-4.273,0.144c-0.527,0-0.815-0.096-0.815-0.336
		c0-0.191,0.192-0.336,0.384-0.336c0.288,0,0.912-0.048,1.248-0.096c1.92-0.24,2.736-1.681,3.553-3.744L194.456,24.475z
		 M199.16,41.468c0.192,0,0.192-0.096,0.145-0.288l-4.176-11.185c-0.24-0.624-0.48-0.624-0.721,0l-3.937,11.185
		c-0.048,0.192,0,0.288,0.144,0.288H199.16z"/>
	<path fill="#FFFFFF" d="M217.975,35.467c0-6.336,0-7.488-0.096-8.784c-0.096-1.393-0.336-2.064-1.729-2.257
		c-0.336-0.048-1.055-0.096-1.439-0.096c-0.145,0-0.336-0.191-0.336-0.336c0-0.24,0.191-0.336,0.672-0.336
		c1.92,0,4.752,0.096,4.992,0.096c0.432,0,3.984-0.096,5.281-0.096c2.688,0,5.664,0.24,7.873,1.776
		c1.055,0.768,2.928,2.736,2.928,5.568c0,3.024-1.248,5.952-5.186,9.312c3.457,4.32,6.385,8.017,8.834,10.562
		c2.256,2.304,3.648,2.688,4.703,2.832c0.816,0.144,1.25,0.144,1.488,0.144c0.24,0,0.385,0.192,0.385,0.336
		c0,0.24-0.24,0.336-1.008,0.336h-2.641c-2.4,0-3.457-0.239-4.512-0.815c-1.824-0.96-3.361-2.929-5.762-6.001
		c-1.775-2.208-3.648-4.849-4.561-5.952c-0.191-0.192-0.287-0.24-0.574-0.24l-5.377-0.096c-0.193,0-0.289,0.096-0.289,0.336v0.96
		c0,3.937,0,7.104,0.193,8.785c0.143,1.2,0.383,1.968,1.68,2.16c0.576,0.096,1.488,0.191,1.871,0.191
		c0.289,0,0.336,0.192,0.336,0.336c0,0.192-0.191,0.336-0.672,0.336c-2.303,0-4.992-0.144-5.184-0.144
		c-0.049,0-2.881,0.144-4.176,0.144c-0.434,0-0.672-0.096-0.672-0.336c0-0.144,0.096-0.336,0.336-0.336
		c0.383,0,0.912-0.096,1.295-0.191c0.816-0.192,0.912-0.96,1.104-2.16c0.24-1.681,0.24-4.896,0.24-8.833V35.467z M221.623,38.924
		c0,0.239,0.096,0.384,0.289,0.527c0.623,0.336,2.783,0.624,4.656,0.624c1.008,0,2.16-0.048,3.168-0.72
		c1.439-0.96,2.545-3.12,2.545-6.24c0-5.089-2.785-8.017-7.297-8.017c-1.248,0-2.592,0.144-3.025,0.239
		c-0.191,0.097-0.336,0.24-0.336,0.48V38.924z"/>
	<path fill="#FFFFFF" d="M257.24,42.668c0,3.937,0,7.152,0.193,8.833c0.143,1.2,0.336,1.968,1.631,2.16
		c0.576,0.096,1.537,0.191,1.92,0.191c0.289,0,0.338,0.192,0.338,0.336c0,0.192-0.193,0.336-0.674,0.336
		c-2.303,0-4.992-0.144-5.232-0.144c-0.191,0-3.119,0.144-4.367,0.144c-0.48,0-0.672-0.096-0.672-0.336
		c0-0.144,0.096-0.288,0.336-0.288c0.383,0,0.863-0.096,1.248-0.191c0.863-0.192,1.104-1.008,1.248-2.208
		c0.191-1.681,0.191-4.896,0.191-8.833V25.53l-6.096,0.096c-2.641,0.049-3.648,0.337-4.273,1.297
		c-0.48,0.72-0.527,1.008-0.672,1.296c-0.096,0.336-0.24,0.384-0.432,0.384c-0.096,0-0.289-0.096-0.289-0.336
		c0-0.432,0.816-4.08,0.912-4.416c0.049-0.24,0.289-0.769,0.434-0.769c0.287,0,0.719,0.336,1.871,0.48
		c1.201,0.144,2.832,0.191,3.312,0.191h15.938c1.393,0,2.352-0.096,3.023-0.191c0.625-0.097,1.01-0.192,1.201-0.192
		s0.191,0.24,0.191,0.48c0,1.248-0.145,4.176-0.145,4.656c0,0.336-0.191,0.528-0.383,0.528s-0.289-0.145-0.336-0.721l-0.049-0.432
		c-0.143-1.248-1.055-2.16-5.088-2.257l-5.281-0.096V42.668z"/>
</g>
<path fill="#FFFFFF" d="M36.525,20.175c-4.417,0-8.624,1.788-11.688,4.852L20,20.175v13.521h14.166l-5.979-5.979
	c2.178-2.193,5.183-2.824,8.337-2.824c6.505,0,11.808,5.303,11.808,11.808c0,6.505-5.303,11.807-11.808,11.807
	c-4.206,0-8.112-2.269-10.23-5.902l-4.086,2.357c2.944,5.094,8.442,8.264,14.316,8.264c9.119,0,16.525-7.42,16.525-16.525
	C53.05,27.596,45.644,20.175,36.525,20.175z"/>
</svg>
