<?xml version="1.0" standalone="no"?>
<!DOCTYPE svg PUBLIC "-//W3C//DTD SVG 1.1//EN" "http://www.w3.org/Graphics/SVG/1.1/DTD/svg11.dtd">
<svg version="1.1" id="Layer_1" xmlns="http://www.w3.org/2000/svg" xmlns:xlink="http://www.w3.org/1999/xlink" x="0px" y="0px"
	 width="576px" height="227.5px" viewBox="0 0 576 227.5" enable-background="new 0 0 576 227.5" xml:space="preserve">
<path fill-rule="evenodd" clip-rule="evenodd" fill="#CC0000" d="M286.639,7.696h-1.956v1.31h1.956V7.696z M295.745,9.006h1.956
	C298.645,7.101,294.789,7.101,295.745,9.006z M294.447,9.006c-0.03,0.843-0.822,0.893-0.645,1.957
	c1.139-0.057,2.02,0.151,2.601,0.639C296.58,9.898,296.163,8.81,294.447,9.006z M260.625,9.665h-1.968v1.298h1.968V9.665z
	 M284.683,10.962h1.956V9.665h-1.956V10.962z M298.34,9.665c0.185,3.006,3.944,1.766,5.217,1.298
	C303.016,9.316,300.581,9.595,298.34,9.665z M304.866,9.665c-0.476,1.582,4.214,2.639,3.258,0.639
	C308.213,8.898,305.81,10.006,304.866,9.665z M258.658,14.208c1.912,0.956,1.912-2.904,0-1.949V14.208z M207.253,18.772h-1.285
	c-0.032,0.836-0.822,0.893-0.658,1.956h1.943V18.772z M189.051,25.924c2.615,0.208,3.613-1.159,6.492-0.652v-3.246h-1.936
	C195.74,25.405,189.171,22.949,189.051,25.924z M176.689,25.271c0.956,2.481-2.911,0.133-1.955,2.602
	c1.703-0.55,3.569,1.968,4.551,0c-1.026-0.063-2.252,0.088-1.956-1.304c2.898-0.506,4.349,0.45,5.867,1.304
	c-0.026-0.892,0.303-1.424,0.658-1.949C182.216,24.234,178.678,27.316,176.689,25.271z M172.133,27.873
	c-1.013-0.063-0.505-1.658-1.956-1.304C169.164,28.373,171.866,29.5,172.133,27.873z M174.076,28.519
	c-1.077,0.874-4.12-0.228-3.899,1.962C171.957,30.291,175,31.392,174.076,28.519z M141.558,29.177h-2.615v1.304h2.615V29.177z
	 M166.943,29.177H165v1.304h1.943V29.177z M157.178,33.088c3.538,0.208,5.417,0.208,5.197-1.962c-0.021,1.24,4.865,2.589,4.569,0
	C163.166,30.316,158.564,29.886,157.178,33.088z M136.348,31.126h-1.943v1.297h1.943V31.126z M155.203,32.423
	c-0.374,0.773-4.57,0.963-1.937,2.607c0.582-3.524,1.937,0.868,3.912,0C157.278,33.405,155.727,33.449,155.203,32.423z
	 M151.963,33.721h-3.254v2.607c0.943-0.36,3.361,0.759,3.254-0.64C147.86,35.36,152.366,35.702,151.963,33.721z M343.896,39.588
	c0.76-1.937-2.734-2.797-3.253-1.304C342.656,37.797,341.434,40.531,343.896,39.588z M135.703,38.284
	c-0.792,2.563,2.286,3.5,2.582,1.304C136.26,40.335,136.722,38.569,135.703,38.284z M410.89,40.892h-2.596v1.298
	C409.473,42.038,411.562,42.848,410.89,40.892z M105.127,43.487h-1.955v1.31h1.955V43.487z M443.422,46.753
	c-0.597-1.741-7.374-3.368-7.152,0C439.541,46.31,441.542,47.55,443.422,46.753z M258.658,48.05c1.627,0.089,2.714-0.33,3.251-1.297
	C260.677,47.031,257.986,45.854,258.658,48.05z M308.124,48.05v1.298h1.938V48.05H308.124z M377.714,48.05V50
	C379.623,50.943,379.623,47.094,377.714,48.05z M304.866,49.348c-1.356,0.386-4.285-0.804-4.57,0.651
	C301.655,49.619,304.566,50.797,304.866,49.348z M403.092,50.645h-4.551v1.304h4.551V50.645z M265.17,54.543
	C263.81,58.645,270.664,53.119,265.17,54.543L265.17,54.543z M440.181,56.493c1.809-0.569,6.108,1.342,5.854-1.31
	C444.229,55.785,439.926,53.867,440.181,56.493z M447.331,59.107h1.956v-1.304h-1.956V59.107z M87.571,61.057
	c-1.286,0.19-1.286-0.887-1.975-1.311c1.393,2.367-4.406,0.665-1.957,1.962C84.792,61.329,87.483,62.5,87.571,61.057z
	 M241.758,59.746h-2.601v1.311h2.601V59.746z M465.565,59.746h-2.626v1.311h2.626V59.746z M229.379,63.651h1.956v-1.298h-1.956
	V63.651z M508.502,64.31c0.392-1.689-0.267-2.348-1.969-1.956C506.103,64.101,507.896,63.626,508.502,64.31z M486.376,68.214
	c-0.025-1.728,0.602-4.082-1.957-3.266c0.464,2.013,0.464,1.267,0,3.266H486.376z M191.666,68.214h1.942v-1.304
	C192.577,66.974,191.366,66.822,191.666,68.214z M68.697,68.867c-0.747,0.993-1.879,1.607-2.601,2.601h3.24
	C69.234,70.48,69.564,69.062,68.697,68.867z M179.931,70.816h3.266C184.247,67.625,179.689,69.094,179.931,70.816z M55.679,78.626
	c2.196,0.664,1-2.032,1.297-3.253C55.034,75.24,54.679,77.689,55.679,78.626z M57.634,77.968h1.944V76.67h-1.944V77.968z
	 M174.076,81.233h-1.943v1.297h1.943V81.233z M31.61,85.771c-1.24,0.284-2.804,0.24-2.615,1.962
	C31.104,88.297,31.027,86.733,31.61,85.771z M141.558,94.885c-0.197-2.342,2.854-1.494,3.911-2.589
	c0.296-2.044-1.639-1.848-2.594-2.607c0.176,1.696,0.189,3.247-1.975,2.607C141.019,93.258,140.677,94.683,141.558,94.885z
	 M561.191,146.277h-1.955v1.298h1.955V146.277z M511.742,179.46h-2.594v1.304h2.594V179.46z M498.725,183.366
	c-2.164,0-2.684,1.664-3.88,2.613C496.635,185.606,499.23,186.036,498.725,183.366z M487.659,187.916
	c2.629,0.468,3.021-1.329,4.571-1.937C490.242,186.163,487.78,185.878,487.659,187.916z M473.356,186.625
	c0.032,0.899-0.311,1.437-0.64,1.949h1.938C474.598,187.555,474.75,186.328,473.356,186.625z M483.123,188.574
	c1.133-0.379,3.822,0.785,3.899-0.658C485.87,188.302,483.199,187.125,483.123,188.574z M473.356,189.219v1.962h2.601
	c-0.106-0.778,0.103-1.86-0.645-1.962C475.026,192.346,475.078,188.448,473.356,189.219z M454.484,191.182v1.298h1.975v-1.298
	H454.484z M436.27,196.384v1.943c-1.014,0.083-2.253-0.07-1.938,1.298h3.255C437.213,198.472,437.244,196.935,436.27,196.384z
	 M443.422,196.384h-3.241C440.08,198.725,443.541,198.725,443.422,196.384z M482.465,197.682h1.954v-1.298h-1.954V197.682z
	 M427.162,198.327v1.956h1.955v-1.956H427.162z M458.395,198.327v1.298h1.945v-1.298H458.395z M159.772,202.246
	c0.615-2.369-2.549-0.913-3.899-1.298C155.248,203.289,158.443,201.84,159.772,202.246z M415.459,200.948h-1.955v1.298h1.955
	V200.948z M397.901,203.542C406.649,204.675,401.035,200.795,397.901,203.542L397.901,203.542z M181.898,202.883v1.97h1.957
	C183.961,203.423,183.316,202.758,181.898,202.883z M394.632,202.883v1.97C396.541,205.796,396.541,201.928,394.632,202.883z
	 M450.591,204.853h2.615v-1.312h-2.615V204.853z M372.516,204.853v1.936c2.463,0.943,1.255-1.785,3.255-1.303
	c0.865,0.012,0.602,1.157,1.304,1.303C378.011,203.676,374.352,205.168,372.516,204.853z M328.935,205.486h-1.942v1.303h1.942
	V205.486z M360.17,205.486c-1.287-0.19-1.299,0.879-1.97,1.303c-1.02-0.044-0.507-1.664-1.956-1.303v1.961
	c2.076,0.709,1.494,0.051,3.926,0V205.486z M363.41,206.789h1.953v-1.303h-1.953V206.789z M441.483,206.789h2.597v-1.303h-2.597
	V206.789z M238.5,208.745c-2.937,0.348-4.297-0.999-7.165-0.658c0.779,0.114,0.702,1.031,0.645,1.956
	C233.961,209.415,238.594,211.434,238.5,208.745z M324.366,210.042c0.582-2.095-1.001-2.039-1.938-2.596
	C322.23,209.143,322.65,210.238,324.366,210.042z M365.363,210.042c3.869,0.393,5.811-1.145,9.755-0.646
	c-1.208-4.612-6.632,1.703-7.81-1.31C368.34,210.402,365.099,208.492,365.363,210.042z M205.31,209.396v-1.31h-1.938v1.31H205.31z
	 M364.705,208.745c-3.968-1.798-8.758,1.196-12.998,1.298C355.947,210.093,360.771,211.51,364.705,208.745z M295.745,209.396
	c-1.342,0.38-4.272-0.797-4.538,0.646C292.549,209.656,295.474,210.852,295.745,209.396z M380.965,210.042
	c-1.342,0.393-4.265-0.804-4.535,0.645c0.776,0.076,1.523,0.197,1.284,1.316C378.372,211.283,382.208,210.479,380.965,210.042z
	 M291.207,212.003c1.013-0.076,2.241,0.07,1.938-1.316h-1.938V212.003z M326.32,212.003c2.186,0.399,6.052-0.841,7.152,0.64
	c-0.771,0.077-1.518,0.202-1.285,1.298c2.558,0.828,1.931-1.538,1.943-3.254C331.77,211.371,326.594,209.225,326.32,212.003z
	 M336.732,210.687h-1.942v1.316h1.942V210.687z M338.688,212.003h2.596v-1.316h-2.596V212.003z M406.352,212.003h1.942v-1.316
	h-1.942V212.003z M308.124,213.941c0.235-3.209,2.836-0.032,3.881,0c-0.179-1.285,0.878-1.285,1.316-1.938h-5.855
	C307.555,212.764,307.346,213.839,308.124,213.941z M356.903,213.941c-1.557,0.278,0.374-2.955-1.943-1.938
	c-0.058,1.014,0.089,2.234-1.298,1.938c-1.569-2.778-4.468-1.305-7.151-1.938c-1.462,2.344-2.513,2.621-2.614,5.204
	c3.196,1.233,1.747-2.165,3.897-1.969v1.969c0.958-0.361,3.357,0.758,3.255-0.665c-1.152-0.151-3.255,0.665-2.604-1.304
	c3.647-0.146,3.408-0.361,7.153-0.652c0.406,2.811,5.558,1.038,7.812-1.943C359.333,212.592,358.675,211.909,356.903,213.941z
	 M389.434,213.941h1.942v-1.298h-1.942V213.941z M263.214,217.847v1.954C265.126,220.763,265.126,216.884,263.214,217.847z
	 M244.354,219.801H241.1c0.032,0.899-0.297,1.425-0.658,1.944C242.386,221.746,244.417,221.808,244.354,219.801z M271.677,221.746
	C280.934,223.257,283.758,219.447,271.677,221.746L271.677,221.746z M215.075,222.409c1.342-0.392,4.273,0.804,4.557-0.663
	C218.285,222.13,215.36,220.934,215.075,222.409z M229.379,223.707h2.601v-1.298h-2.601V223.707z M238.5,223.707h2.601v-1.298H238.5
	V223.707z M280.144,5.102c-0.581,1.341,2.133,2.468,1.938,1.297c6.361-3.088,24.252-0.348,40.347-1.949
	c-18.937-1.721-32.638,0.139-48.81,0C270.271,5.449,278.366,5.032,280.144,5.102z M259.302,9.006c1.418-4,7.121,0.64,8.462-2.607
	c-0.506-0.145-0.747-0.538-0.64-1.297c-3.512,2.297-7.588,0.505-12.366,1.949C257.93,6.057,257.207,8.956,259.302,9.006z
	 M228.095,11.601c1.525-1.538,3.183,0.107,5.208,0c1.734-0.216,2.26-1.601,3.887-1.937c2.012-0.494,0.803,2.24,3.252,1.298
	c2.019-3.924,9.139-0.514,12.379-1.957c-1.031-0.05-2.271,0.095-1.956-1.31c2.627-0.892,2.046,1.43,3.893,1.31
	c-2.98-4.151-7.475-0.107-13.659-1.31c-2.417,2.152-7.538,1.575-11.721,1.968c-0.848,0-0.596,1.133-1.284,1.298h-5.229
	C223.36,12.431,226.544,11.215,228.095,11.601z M269.721,13.57c2.077-0.095,2.897-1.437,4.557-1.969
	c-2.095,0.576-1.349-1.683-2.601-1.937c1.923,2.987-1.596,1.038-2.596,2.595C269.588,12.393,269.828,12.797,269.721,13.57z
	 M279.485,11.601c-0.385-1.342-0.999-2.456-3.251-1.937c-0.229,2.512,4.448,0.55,1.31,2.595c2.779-0.911,4.779,0.367,6.481-0.658
	c-1.102-0.253,0.15-0.836,0-1.937C281.683,9.468,281.519,11.475,279.485,11.601z M287.297,9.665
	c-0.703,2.367,6.627,2.386,5.194,1.298C289.385,11.924,289.791,9.335,287.297,9.665z M309.409,11.601
	c4.355-2.146,13.298,2.563,14.957-1.937c-1.686,2.17-8.463-1.374-13.647,0C312.036,11.753,307.018,10.576,309.409,11.601z
	 M267.125,11.601c-1.602,1.74-5.721-1.443-6.5,1.969h6.5C267.194,12.696,268.334,9.975,267.125,11.601z M340.644,11.601
	c-3.284,0.874-6.241-1.937-8.456,0C334.22,11.513,340.105,13.177,340.644,11.601z M220.272,13.57
	c-3.241-1.481,3.88-1.159,1.297-1.969c-2.197,0.197-3.729,1.038-6.495,0.658C214.645,14.475,220.569,13.652,220.272,13.57z
	 M258.018,11.601c-3.076-0.468-4.48,0.74-7.152,0.658c-0.151,1.234,0.729,1.437,0.639,2.607c2.418-1.423,2.988-0.835,6.513-0.658
	V11.601z M248.253,12.905c0.195,1.512-1.868,0.734-1.956,1.962c0.955-0.019,5.329,0.241,3.266-0.658
	c-0.519-0.132-1.279-0.025-1.31-0.639C249.266,13.614,248.702,11.665,248.253,12.905z M212.132,15.152
	c0.09,0.101,0.197,0.221,0.329,0.354C212.436,15.298,212.296,15.19,212.132,15.152z M198.804,18.107
	c-0.507-0.126-0.748-0.531-0.627-1.297c3.73-0.36,8.33,0.126,10.405-1.943c0.101,1.924,2.595,0.044,3.55,0.285
	c-1.266-1.481,2.065-0.229,2.304-1.582c-6.347,0.17-11.557,1.461-16.917,2.595C196.95,17.494,198.531,19.753,198.804,18.107z
	 M237.848,16.165c-0.855-0.013-0.602-1.133-1.305-1.298c-0.341,4.798,6.26-0.132,3.898-1.297c-0.221,2-3.296-1.728-3.898,0.639
	C238.354,13.196,239.455,15.898,237.848,16.165z M221.57,16.165c0.285,1.563-2.943-0.361-1.938,1.942
	c3.329-0.044,7.297,2.019,8.462-1.297c0.626,1.101,1.792,1.677,3.885,1.297c-1.646-2.765-1.646-0.474,0-3.24
	c-1.12,0.044-2.019-0.152-2.601-0.658c0.779,4.184-7.151,0.044-3.24,3.898C223.139,18.943,222.986,16.937,221.57,16.165z
	 M243.044,14.208c-0.394,3.684,1.936,0.823,2.594,0C243.879,14.165,244.341,15.298,243.044,14.208z M336.087,212.643
	c0.107,1.634-1.45,1.588-1.956,2.596c-0.12-0.956-1.569-0.595-2.597-0.652v-1.943c-2.446,1.887-1.448,1.887-3.897,0
	c-0.835,1.634,0.31,2.038-0.645,2.596c-2.494-1.197-7.538,0.151-9.791-1.298c3.241,0.589,7.151-1.494,7.165-1.938
	c-1.342-0.392-4.253,0.793-4.552-0.658c-0.626-2.359,3.165-0.297,1.956-3.259c-2.679,2.285-1.018-0.804-4.569-0.64
	c0.747,2.045-1.002,1.583-1.287,2.596c1.927-0.899,3.091,0.121,3.274,2.601c-1.659-0.348-3.723-0.431-4.591,0
	c0.943,0.165,0.75,1.444,1.316,1.943c-3.403,0.266-13.839-1.247-14.972,0.652c-0.658-2.285-2.418,0.107-3.241-1.298
	c1.032-2.373,5.911-1.285,7.165,0c0.15-0.5,0.019-1.285,0.645-1.298c0.146,0.506,0.014,1.291,0.639,1.298
	c-0.384-4.57-10.106,0.146-11.702-3.254c0.103,1.836-1.602,1.88-3.24,1.956c-1.031,2.323,2.209,0.393,1.938,1.943
	c-4.253,0.335-6.64,0.975-9.747-0.646c1.011-0.051,0.494-1.646,1.943-1.298c0.538,1.634,2.956,1.361,5.196,1.298
	c0.494-2.222-2.646-0.811-1.944-3.254c-2.506,0.329-5.911,2.267-9.107,0c-0.22,3.203-0.417-1.227-2.593,0v3.254
	c-4.962,1.558-13.323-0.298-18.234,1.298c0.107-0.962-0.222-2.387,0.645-2.596c5.539,1.298,13.153,2.209,16.932-1.956
	c-1.317-0.132-2.634,2.911-3.912,0.658c3.518-2.557,13.626-1.272,18.215-0.658c-16.025-2.378-27.133-2.164-39.032-0.645
	c1.418,1.272,6.436-1.905,6.513,1.961c-4.615-1.562-5.436,0.443-11.721,0v-3.917h-3.252c0.847,4.918-3.172,3.272,0,5.854
	c-5.171,0.195-11.369,0.278-15.608,0v-1.298c6.334-0.252,10.152,0.74,13.664-2.601c-2.689,0.121-10.018,1.854-9.765,0.645
	c-1.898,1.349-5.185,1.33-5.836,3.899c-1.24-0.096-0.417-2.195-1.316-2.583c1.165-0.15,3.254,0.64,2.602-1.316
	c-2.526-1.342-2.823,2.717-3.919,0.658c4.526-2.183,12.544-1.606,1.317-1.949c-0.074-1.024,0.076-2.246-1.317-1.949
	c-1.606-0.315,1.583,2.969-0.638,3.24c-0.76-0.095-1.856,0.121-1.956-0.645c1.956,1.006,1.956-3.62,0-2.596
	c0.15,1.222-1.001,3.316-4.557,2.596c0.063-1.14-0.134-2.014-0.64-2.596c-0.943,0.343-3.36-0.758-3.24,0.64
	c0.242,1.493,2.601,0.86,3.24,1.956h-5.208v-2.596c-1.975-0.487-1.931,1.121-3.899,0.64c-0.208,1.284,0.867,1.303,1.285,1.956
	c-1.064,0.076-5.886-0.354-3.881,0.645c6.134,0.464,6.849-0.012,11.063,0.658c-2.119,0.552-5.917,2.634-8.467,1.956
	c0-0.859,1.133-0.601,1.285-1.298c-3.285,0.633-8.007,0.292-11.052,0c0.09-2.962,5.59-0.493,4.571-4.557
	c-2.988,0.044-3.583,2.482-6.525,2.596c2.659-0.178,1.481,0.241,1.296,1.961c-4.758-0.493-5.834-0.157-6.492-2.607
	c1.91-0.171,2.019,1.47,3.911,1.291c1.33-3.53,2.677-1.696,1.286-5.834c-1.045,0.404-1.735,3.715-3.898,0.633
	c-1.399,2.967,5.007,1.43,1.961,3.91c-0.304-2.538-5.404-0.233-6.513-1.949c2.286,0.557,0.69-1.696,0-1.961
	c0.121,1.625-1.449,1.581-1.942,2.601c-0.146-1.228,0.721-1.437,0.658-2.601c-1.342,1.519-6.613,1.113-2.615,2.601
	c-6.689-0.139-11.492-0.481-16.063-1.488c-0.076,0.064-0.15,0.109-0.196,0.19c0-0.081,0-0.146,0-0.227
	c-1.31-0.304-2.594-0.646-3.91-1.076c-0.045,2.202,1.163,2.777-0.658,3.91c-0.146-1.796-3.189-0.702-3.893-1.949
	c4.119,1.525,2.639-2.563,3.893-3.905c0.303,2.229,4.842,0.215,4.568,3.02c0.064,0,0.121,0.012,0.196,0.037
	c1.894-2.265,5.673-1.442,8.241,0.19c0.089-3.069,0.822,1.438,3.253,0c-0.19-1.277,0.899-1.291,1.317-1.936
	c-2.57,0.601-5.043,0.645-7.165-0.665c-0.449-1.766,3.076,0.468,2.595-1.305h-3.899c-0.101,0.767,0.12,1.856-0.64,1.97
	c-1.551,0.253,0.342-2.988-1.955-1.97c-0.108,0.767,0.1,1.856-0.639,1.97c0.607-2.368-3.423-0.563-1.305-2.607
	c-2.056,1.778-3.968,0.215-7.164,1.296c-0.195,1.272,0.88,1.286,1.297,1.944c-2.549,0.834-2.177-1.785-1.297-2.603
	c-3.14-0.208-6.494,0.836-3.912-1.936c-2.626-0.899-2.296,1.152-3.24,1.936c-0.462-1.284-3.646,0.165-3.913-1.296
	c-0.461-1.767,3.077,0.461,2.596-1.305h-3.892c-0.064,1.026,0.088,2.26-1.305,1.963c3.006-3.639-6.329,0.304-1.298-2.621
	c-2.208-0.165-5.878,2.651-3.24,0c-3.657-1.113-4.284,2.665-5.867,0c1.02-0.063,2.241,0.088,1.943-1.298
	c-3.854,0.862-10.588-1.746-11.049,0c3.765-0.81,0.151,2.171,1.942,2.621c0.088-0.531,2.146-1.982,1.937-0.665
	c-1.311,0.19-1.696,1.305-2.584,1.963c-0.144-2.044-3.79-0.552-4.568-1.963c1.152-0.374,3.822,0.792,3.917-0.658
	c-2.589,0.633-2.03-1.88-2.6-3.241c-2.9-0.524-4.33,0.424-5.855,1.298c-1.519-5.798-21.107-1.917-22.785-4.563
	c0.095,0.146,5.076,0.292,1.956-0.639c-4.165-1.241-9.044-2.412-13.02-3.26c-24.411-5.228-44.189-11.474-64.378-25.379
	c-16.664-11.405-19.379-40.544-3.266-50.082c5.177-8.867,12.976-17.298,21.47-20.822c-0.836-1.62,1.911-2.684,0-3.247
	c-0.602,1.121-2.033,1.417-3.913,1.311c-0.538,2.493-3.734,5.759-6.494,3.886c4.374-1.475,9.121-6.189,8.462-7.151
	c3.613-1.241,2.297,2.461,4.538,2.601c0.298-1.658,2.063-1.842,3.259-2.601c-2.051,0.746-1.589-1.02-2.601-1.298
	c0.12,1.411-0.539,2.057-1.956,1.956c0-0.658-0.525-0.786-0.638-1.298c3.309-2.772,6.525-9.088,12.347-7.183
	c-0.437,1.297-1.987,1.493-2.601,2.619c0.088-1.17-0.627-1.525-1.943-1.297c0.152,2.734-2.31,2.893-2.607,5.203
	c4.418-2.31,9.031-4.437,11.715-8.468c-2.386-0.43-2.507,1.405-4.564,1.304c0.114-0.969-0.228-2.405,0.652-2.602
	c0.867,0,0.602,1.146,1.304,1.298c-1-2.31,2.209-0.386,1.956-1.962c-0.988-0.095-2.406,0.247-2.602-0.633
	c4.778,0.633,6.216-5.475,9.734-3.905c-3.196,0.361,0.702,0.336,0.671,1.298c0.36,2.741-5.089-0.304-4.551,2.607
	c2.735,1.849,5.811-1.544,7.152-3.253c-0.152-1.684-1.107,0.893-2.601,0c0.209-1.519-0.114-2.494-0.671-3.253
	c2.436,0.456,2.823-1.114,5.215-0.652c0.177-4.715,7.43-5.146,12.373-7.158c0.032-0.899-0.297-1.424-0.658-1.949
	c1.374,0.379,7.602,0.879,7.797-1.956c-1.449-0.898-2.436,1.677-2.602,0c2.305-1.823,6.603-1.665,7.823-4.557
	c-0.607,2.361,2.557,0.905,3.899,1.316c0.746-0.867,1.613-1.671,2.571-2.443c0,0.133,0,0.285,0.043,0.481h1.943v-1.304
	c-0.348,0.02-0.688,0.02-1.031,0.063c8.348-6.146,22.608-9.519,32.266-15.02c-0.197,1.317-1.297,1.728-1.975,2.595
	c1.556,0.025,1.943-1.12,3.918-0.658c0.208-1.26-0.867-1.285-1.287-1.938c1.938-0.062,3.616,1.507,5.836,0
	c-0.759-0.107-1.835,0.102-1.942-0.658c0.494-0.139,0.766-0.538,0.645-1.31c3.495,0.241,5.569-2.19,8.462-0.633
	c12.741-6.81,25.322-8.456,39.702-11.721c-0.519-0.146-1.298-0.013-1.316-0.64c1.228,0.133,4.305,1.671,5.196,0
	c-0.791-0.076-1.519-0.196-1.279-1.316c2.443-0.924,1.235,1.792,3.235,1.316c-0.697-4.538,4.258,0.449,5.194-1.956
	c-4.612-0.576,1.286,0.165,0.658-1.962c-44.746,7.968-83.087,25.785-119.054,40.341c-0.044-0.392-0.102-0.766-0.64-0.659
	c-0.151,1.247,0.729,1.45,0.64,2.615c-7.615,1.962-13.975,11.284-21.468,9.107c-0.811,2.114,2.101,0.506,1.297,2.602
	c-1.734-0.36-3.316,2.677-4.55,0.651c0.374,0,0.728-0.538,0-0.651c-1.095,1.304,0.057,0.835,0,2.601
	c-8.336,4.374-20.057,14.526-26.057,18.627c-0.297-1.748,1.734-1.152,1.988-2.355c-1.931-0.823-3.513,1.582-2.139,2.461
	c-0.969,0.659-1.791,1.152-2.418,1.437c0.405,0.039,0.779,0.095,0.658,0.652c-0.475,2.398-1.969-0.272-3.252,1.297
	c1.373,2.417-0.88,2.329-1.944,3.911c-0.031-0.911,0.298-1.437,0.646-1.955c-3.379,0.165-3.348,3.151-3.912,4.557
	c-0.094-0.81-0.196-1.538-1.303-1.316c0.089,2.917-3.519,2.126-5.208,3.259c-9.633,14.393-11.754,31.139-7.152,51.405
	c3.359-0.102,1.222,5.272,4.549,5.202c-1.025,0.057-2.234-0.095-1.937,1.304c3.386,0.285,6.506,6.874,7.134,9.753
	c1.797-1.431,2.721,2.05,2.613,3.266c5.526,2.284,9.095,6.506,12.367,11.056c3.222,0.399,7.45,2.721,6.494,5.203
	c5.133,0.93,9.779,2.367,11.702,6.5c-1.012-1.792,1.722-2.918,1.976-1.298c-0.791,0.077-1.538,0.197-1.304,1.298
	c7.082-0.354,9.393,4.779,16.259,3.266c3.259,4.158,18.051,8.038,27.98,8.448c-1.835-0.562-3.924-0.859-4.568-2.607
	c3.556,2.311,6.777-0.677,9.765,0.658c-3.449,0.051-0.772,0.348,0,1.298c0,1.88-3.671,1.539-4.538,0.651
	c0.241,1.919,2.837,1.488,3.88,2.607c-0.64-4,3.348,0.438,3.931-2.607c0.089,2.722,2.911-0.468,4.538,1.291
	c0.151-1.151-0.658-3.24,1.317-2.601c0.892,2.633-1.426,2.057-1.317,3.917c2.48-0.974,0.132,2.893,2.595,1.938
	c0.493-2-1.771-1.246-1.278-3.254c4.956,0.153,7.03,1.24,9.746,0.658c-0.526,1.659-4.197,0.146-3.912,2.596
	c3.178-1.096,6.747-2.64,9.767-0.64c0.461,1.767-3.063-0.481-2.602,1.285h3.898c0.374-1.139-0.791-3.811,0.64-3.899
	c-0.893,2.867,3.917,0.014,3.917,1.956c-0.797,0.077-1.537,0.202-1.302,1.298c1.792,0.589,4.569,0.195,5.854,1.298
	c-1.012,0.063-2.254-0.09-1.955,1.304c4.019-0.86,6.467-2.666,9.746-1.956c0.285,1.569-2.955-0.355-1.937,1.956h3.924
	c-0.044-1.115,0.494-1.665,1.286-1.956c1.987,0.551,3.315,0.095,3.911,0.652c0.032,0.897-0.311,1.442-0.658,1.969
	c2.482,0.12,5.588-0.374,5.854,1.936c3.108-0.702,9.227-3.684,11.962-1.626c-1.823-1.241-3.766,1.867-2.209,0.988
	c2.386,0.746,7.077,1.031,11.715,1.942c0.033,0.684,0.841,0.524,0.658-0.646c-2.385-0.146-6.107-2.448-6.506-0.658
	c-0.67-0.626-1.328-1.284-1.956-1.936c7.342,0.955,11.67-0.816,16.931,1.298c-0.602,1.131-2.032,1.43-3.931,1.296
	c-0.087-0.766,0.121-1.848-0.64-1.954c0.494,2.447-3.449,0.447-2.613,3.266h7.184c-0.868-2.413,3.834-2.596,4.537-1.312
	c-1.79-0.835-3.183,1.905-1.942,1.944c1.583-0.336,10.843,0.424,9.753-2.603c0.956,0.12,0.596,1.583,0.64,2.603
	c1.689-0.563,4.492-0.165,6.525,0.663c0.79-2.974-4.418,0.058-4.571-1.961c16.976-2.26,29.532,4.202,44.241-0.646
	c-1.759-0.404-5.151,0.829-5.854-0.658c2.153-2.165,4.735-0.955,6.513,0.658c0.658-1.088,3-0.462,3.254-1.954
	c0.252,3.15,3.6,0.271,4.537,0c-0.221,2.645,4.076,0.714,5.868,1.296c-0.12-1.626,1.468-1.562,1.943-2.601
	c1.342,1.305,0.626,1.305,1.956,0c0.569,2.088-0.57,2.493-1.298,3.259c2.925-0.538,3.956-3,5.854-4.562
	c-0.241,4.733,6.759,0,11.063,2.608c-2.512-0.57-2.809,1.087-3.913,1.954c3.76-1.91,8.078,2.113,9.121-1.954
	c-2.062,0.106-3.923,0.03-4.537-1.305c2.892,0.962,1.988-1.898,4.537-1.304c-2.45,3.012,4.33,2.367,0.658,4.562
	c2.267-0.322,4.222-0.962,7.153-0.658c-0.361-1.431-0.957-3.582,1.296-3.904c0.748,2.057-1.011,1.595-1.296,2.608
	c2.879,0.505,3.91-0.869,6.506-0.64c1.438-3.804,1.438-0.772,0-4.564c0.973,0.121,2.393-0.24,2.601,0.658
	c0.462,1.982-1.133,1.918-0.658,3.906c2.506,0.878,10.229-0.432,12.379,0c-0.625-0.703-2.423-0.209-1.975-1.969
	c5.052,5.184,11.456,3.739,16.918,1.969c-0.778,0.189-2.241-1.887-0.639-1.969c2.702,4.519,12.778-3.608,11.702,2.608
	c1.854-2.754,7.482-0.665,9.121-0.64v-3.267C341.193,214.739,336.308,215.517,336.087,212.643z M269.081,210.042
	c1.012,0.051,2.475-0.311,2.596,0.645C272.391,212.979,267.676,212.442,269.081,210.042z M267.125,210.687
	c-1.316,2.158-7.125,2.204-8.467,0.658C259.974,208.606,265.632,210.884,267.125,210.687z M27.059,99.448
	c-1.049,0.044-2.48-0.322-2.601,0.64C21.768,98.011,27.312,96.12,27.059,99.448z M15.337,109.195
	c1.551,0.253-0.348-2.961,1.957-1.962c0.399,2.38-1.361,2.576-3.26,2.62C14.053,109.214,14.831,109.347,15.337,109.195z
	 M55.034,187.916h-1.969v-1.291h1.969V187.916z M64.127,186.625h1.969v1.291h-1.969V186.625z M64.786,200.948
	c1.848-0.127,1.266,2.19,3.911,1.298C68.337,203.377,63.445,203.65,64.786,200.948z M71.312,204.853
	c0.297-1.393-0.943-1.261-1.975-1.312c0.152-0.941,1.942-0.246,1.975-1.296c0.803,2.473,3.267-0.742,3.241,2.607H71.312z
	 M76.507,205.486c0.55-2.406,5.462,1.222,7.791,1.303C81.399,209.201,79.609,205.004,76.507,205.486z M101.874,196.384h2.615v1.298
	h-2.615V196.384z M105.127,204.853C101.008,206.833,98.184,204.023,105.127,204.853L105.127,204.853z M112.918,199.625
	c-0.222-1.108,0.524-1.215,1.317-1.298c-0.431-0.659-1.506-0.677-1.317-1.943h3.271
	C115.279,197.638,115.399,199.923,112.918,199.625z M118.792,202.883c0.278-1.449,3.208-0.253,4.551-0.638
	C123.058,203.694,120.134,202.498,118.792,202.883z M124.641,209.396h-2.614v-1.31h2.614V209.396z M219.632,212.003
	c2.132,0.014,4.615-0.265,4.55,1.938c-3.315-0.854-1.24-0.854-4.55,0V212.003z M214.436,214.586c1.672-0.146-0.897-1.102,0-2.583
	c2.179-0.677,1.001,2.02,1.28,3.235h-7.792C209.506,212.808,211.031,214.833,214.436,214.586z M200.772,214.586
	c-0.209,0.898-1.64,0.551-2.596,0.652C198.355,213.738,199.905,213.751,200.772,214.586z M178.646,209.396
	c-0.088,1.444-2.761,0.278-3.912,0.646C174.823,208.606,177.494,209.764,178.646,209.396z M166.943,208.086h4.538
	c0.297,3.259,1.164-0.486,2.595,0c-0.386,1.778-1.778,2.563-3.899,2.601c0.677-1.942-1.442-1.151-2.595-1.291
	c3.088,1.723,0.747,1.039-1.944,0.646C166.044,209.389,167.133,209.371,166.943,208.086z M133.747,200.948
	C139.171,202.308,136.754,204.719,133.747,200.948L133.747,200.948z M131.81,200.948c1.88-0.981,1.88,2.893,0,1.936V200.948z
	 M134.405,203.542c0.089,2.753-4.867,2.09-5.227,0H134.405z M133.096,206.789c-0.273,1.451-3.197,0.26-4.557,0.658
	C128.824,205.998,131.747,207.182,133.096,206.789z M131.153,213.941c-1.341-0.387-4.512,1.044-3.912-1.298
	C128.583,213.036,131.766,211.598,131.153,213.941z M133.747,213.941h-1.938v-1.298h1.938V213.941z M129.178,210.042
	c2.393-0.398,10.303-0.76,11.722,1.961C136.228,212.106,133.704,210.093,129.178,210.042z M140.9,205.486h2.612v1.303H140.9V205.486
	z M141.558,210.687c2.462-0.948,1.252,1.799,3.252,1.316C144.336,213.448,141.109,212.314,141.558,210.687z M142.875,203.542
	c2.448-1.486,9.106-0.695,11.688,1.312C149.564,205.498,146.634,204.093,142.875,203.542z M153.266,206.789
	c-0.689,1.475-4.094,0.253-5.855,0.658c0.211-0.885,1.628-0.544,2.596-0.658v-1.303C150.785,206.213,151.191,207.34,153.266,206.789
	z M150.665,216.542h-1.956v-1.304h1.956V216.542z M151.963,217.208c0.347-0.526,0.688-1.071,0.645-1.969
	c2.551-0.595,1.639,2.266,4.57,1.304C158.905,217.712,153.354,217.024,151.963,217.208z M145.469,210.687
	c6.152,2.077,14.019,2.462,21.475,3.254c0.936-2.461-1.796-1.246-1.305-3.254c2-0.062,1.912,1.969,1.944,3.899
	c1.658-2.228,5.88,1.545,9.747-1.943c-2.386,2.45,0.45,2.696,3.931,2.596C173.987,215.979,155.786,216.156,145.469,210.687z
	 M180.589,210.042c-0.418-1.052,9.088-1.475,8.462,1.961c-3.284-1.467-1.626,0.014-5.854,0
	C183.854,209.821,182.304,209.865,180.589,210.042z M188.393,221.113h-1.279c0.09-0.773-0.151-1.178-0.658-1.312
	c0.208-0.874,1.627-0.538,2.596-0.658C188.696,219.675,188.367,220.207,188.393,221.113z M188.412,216.542h-0.019l0,0
	c-0.563-0.107-1.101-0.209-1.653-0.304c-0.106,0.132-0.227,0.24-0.285,0.304c0.032-0.151,0-0.234,0-0.361
	c-1.582-0.297-3.12-0.607-4.557-0.942c1.393,0.448,4.602-0.938,4.557,0.942l0.285,0.058c0.64-0.71,1.748-2.008,1.653,0.304H188.412
	c0.746-0.114,0.538-1.178,0.639-1.956c1.372-0.304,1.24,0.942,1.298,1.956c1.062-1.537,1.766-3.438,5.194-2.602
	c-0.234,1.475-3.803-0.343-2.582,2.602c6.855,0.139,15.323,0.291,26.013,1.305c-0.271-1.261-2.974-0.07-1.942-2.608
	c1.91,4.804,12.292,1.152,16.917,3.267C221.121,220.269,202.564,219.036,188.412,216.542z M230.037,215.239
	c2.57-0.836,1.328,2.151,3.912,1.304C233.259,217.998,229.588,217.054,230.037,215.239z M243.696,210.687h1.942v1.316h-1.942
	V210.687z M246.297,217.208c1.778-1.521,6.286-0.241,9.12-0.665C253.658,218.042,249.132,216.776,246.297,217.208z M239.158,216.542
	c-1.196-3.994,5.556-0.07,4.539-3.899h7.169c-0.24,1.298,0.134,2.038,1.297,1.943c2.208-0.689-1.803-0.195-0.658-1.943h5.855
	c-0.088,1.164,0.804,1.38,0.658,2.596C250.208,214.966,245.847,213.276,239.158,216.542z M276.892,214.586
	c0.341-0.499,0.683-1.051,0.651-1.943c3.285,1.449,1.613-0.007,5.854,0c-1.316,1.697-3.254,4.089,1.285,3.899
	C282.441,220.036,281.486,212.891,276.892,214.586z M310.062,215.239h3.259C314.302,217.251,309.061,217.251,310.062,215.239z
	 M293.803,217.847c-0.233,3.194-0.419-1.242-2.596,0c0.241,1.119-0.974,1.676,0,1.954c0.146-1.664,1.102,0.88,2.596,0
	C293.892,219.036,294.955,218.327,293.803,217.847z M218.974,18.772c-4.469,1.342-1.089-0.38-4.539-1.962
	c0.563,1.918,0.563,2.006,0,3.917h3.241C216.348,18.62,221.38,19.791,218.974,18.772z M208.582,22.025
	c0.627-1.152,6.582-0.298,3.879-2.614c-0.239,3.228-2.835,0.045-3.879,0C209.474,20.905,206.891,21.861,208.582,22.025z
	 M197.518,23.975c4,0.557,5.013-2.861,7.134-0.646c-0.025-0.893,0.315-1.437,0.658-1.962c-2.102-1.633-4.658,0.646-5.848,1.962
	c-2.317,1-0.394-2.216-1.944-1.962c-0.15,0.506-0.549,0.772-1.317,0.658C196.025,23.297,197.101,23.31,197.518,23.975z
	 M167.583,31.126c2.152,0.658,2.133-0.899,1.955-2.608C161.905,27.259,171.076,28.766,167.583,31.126z M147.411,37.626
	c1.014-2.304-2.208-0.387-1.942-1.938c0.899,0.045,2.482-0.152,1.284-0.658c-1.416,0.735-3.581,0.748-3.877,2.596
	C145.557,37.462,145.393,38.5,147.411,37.626z M140.272,37.626c1.001,0.063,0.45-1.88,0-0.64c-0.044,1.076-1.836,0.355-1.987,1.297
	c0.797,0.114,0.734,1.032,0.658,1.95c1.229,0.145,1.438-0.728,2.615-0.646C141.768,38.31,140.677,38.31,140.272,37.626z
	 M238.5,55.183c-4.209,0.551-5.867-1.5-8.462-2.589c-0.778,4.107-5.702,0.45-1.298,3.898c-2.941-0.538-3.658,1.101-4.557,2.615
	c-4.689-2.209-9.633-2.209-14.315,0c0.956,2.456-1.778,1.234-1.286,3.246c1.102,0.267,1.659-0.955,1.944,0
	c-0.812,2.019-4.483,1.146-5.874,2.595c3.589,0.563,4.469-1.613,7.809-1.297c0.274-1.126-0.955-1.658,0-1.943
	c4.944,1.62,8.558-1.924,0.658,0c-0.03-0.835-0.834-0.911-0.658-1.962c1.045,0.285,0.571,2.057,2.614,1.311
	c0.253-1.121-0.969-1.665,0-1.949c3.449,0.494,8.481,0.962,12.361,0c0.197-1.278-0.881-1.304-1.298-1.956
	c3.481,1.272,6.305-4.171,7.811-0.659c-0.482,0.267-0.969,0.545-1.462,0.797C234.86,56.955,237.936,57.335,238.5,55.183z
	 M215.715,57.803h3.259C219.975,59.791,214.734,59.791,215.715,57.803z M244.132,58.917c0.253,0.108,0.538,0.152,0.867,0.19
	C244.804,59,244.486,58.943,244.132,58.917z M551.357,86.348c0.252,0.253,0.504,0.512,0.759,0.791
	C552.059,86.677,551.875,86.348,551.357,86.348z M572.887,111.796c-0.746-0.082-1.841,0.126-1.941-0.646
	c0.789-0.069,1.538-0.184,1.309-1.298c-3.67-0.847-3.164-9.278-9.1-9.765c1.639-2.114-1.361-3.944-2.615-5.203
	c-0.106,0.962-1.582,0.601-2.6,0.652c-0.772-1.747-1.686-3.279-2.703-4.69c1.954,1.159,2.612,3.615,5.303,4.039
	c-0.555-2.494-3.151-5.924-5.917-4.854c-0.791-1.013-1.608-1.98-2.506-2.893c0.074,0.76-0.189,1.854-0.032,2.551
	c-0.969-0.563-1.398-1.639-1.31-3.253c0.24-0.083,0.417-0.088,0.583-0.088c-2.672-2.62-5.747-4.968-9.033-7.722
	c-2.537,0.234-4.766-1.811-5.854,0.646c-1.272-1.108-2.343-2.424-3.898-3.266c2.866-0.917,1.701,2.215,3.898,1.962V76.67
	c0.404-0.032,0.759-0.101,0.639-0.665c-2.703,0.361-3.285-1.468-5.195-1.943c-0.089,0.773,0.12,1.849-0.64,1.943
	c-1.151-2.088-5.538-0.962-5.867-3.886c3.03-0.854,2.177,2.165,5.229,1.297c-1.943-3.266-7.9-2.531-10.424-5.202
	c-0.615,1.203,1.941,2.177,0,2.602c0.075-1.171-0.647-1.525-1.971-1.304c1.21-1.152-0.258-1.898-0.645-3.241
	c-1.151-0.165-3.254,0.639-2.614-1.323c-2.209-0.468-0.803,2.653-3.24,1.962V64.31c-3.595,0.835-5.43-0.177-8.46-1.298
	c0.022-0.867,1.145-0.602,1.295-1.304c-1.15-0.803-3.415-0.474-3.898-1.962c0,4.013-5.24,2.311-5.834,0
	c2.627-0.893,2.044,1.424,3.88,1.311c0.106-1.823-1.584-1.867-3.241-1.949c-1.506-0.209-0.729,1.879-1.955,1.949
	c0.955-3.114-2.729-1.62-4.538-1.949v-2.615c-2.582-1.031-0.252,2.829-1.968,2.615c-0.823-1.621,0.328-2.026-0.646-2.615
	c-1.188,2.234-3.285-0.494-4.551,0c-0.195-1.271,0.879-1.284,1.298-1.949c-3.879,0.234-7.419,0.215-11.064-0.633
	c0.792-0.075,1.539-0.196,1.298-1.316c-0.55-0.614-4.133-1.392-4.549,0c1.758-0.456,1.252,1.342,1.956,1.949
	c-0.406-0.898-2.494-0.107-2.604-1.297c-0.145-1.216,0.734-1.437,0.647-2.602c-4.006,2.595-9.481,1.038-14.323-0.646
	c1.163-0.38,3.822,0.792,3.91-0.651c-0.626-1.108-1.791-1.671-3.91-1.298c0.194,1.702-0.233,2.797-1.955,2.595
	c-1.046-1.12-2.704-1.607-5.198-1.297v-2.595c-0.937,0.348-3.354-0.766-3.251,0.639c1.854-0.898,3.91,1.165,1.954,1.957
	c-3.596-3.253-9.689-0.57-14.304-3.253c0.507-1.444,4.02,0.107,3.241-2.607c-2.222-0.058-4.671-0.329-5.21,1.31
	c-0.36-2.474-6.973-2.114-7.797-1.968c1.305,0.449,1.494,1.986,2.601,2.607c-6.03-1.987-8.975,0.024-12.346-3.247
	c6.747,1.943,10.986-0.759,0.639,0c0.557-1.759-6.507,2.823-9.108,0h3.897c-0.163-2.24-6.075-3.367-6.492-1.298
	c0.955,0.102,2.386-0.24,2.595,0.64c-0.075,1.671-2.418,1.044-3.253,1.956c0.925-2.083-3.897-1.64-3.911-0.658
	c0.759,0.107,1.848-0.102,1.955,0.658c-4.119-1.703-7.823,3.12-9.107,0c2.898-0.45,6.405-0.038,3.925-2.596
	c12.068-1.094,1.658,0.64-1.982-2.607c-3.437-1.126-4.119,2.444-5.195,0c-0.271,3.247-1.139-0.506-2.612,0
	c0.209,1.285-0.855,1.285-1.287,1.95c2.838,0.417,7.349-0.836,9.095,0.657c0.21,1.715-0.898,2.133-2.601,1.938
	c0.045-0.83,0.836-0.893,0.658-1.938c-11.241,0.311-20.556-0.747-28.619-0.657c-0.911,3.524,3.492,1.715,4.549,3.253
	c-2.072-0.551-2.473,0.569-3.251,1.31c-0.361-5.234-6.165,0.874-9.121-2.607c2.176-0.658,7.088,1.43,7.179-1.298
	c-2.374-2.329-7.317,1.766-9.779-0.657c2.626,0.67,2.898-1.007,3.911-1.95c1.019,0.07,0.506,1.665,1.942,1.304
	c-0.195-1.278,0.894-1.278,1.329-1.961c-4.777,0.209-7.962,1.032-11.062-1.298c-0.571,1.184-1.701,1.792-1.975,3.259
	c1.107-0.893,4.93-2.411,6.513-0.665c-0.629,0.887-2.184,0.861-2.604,1.968c-7.864-0.703-14.58,0.165-20.809-1.304
	c1.253,0.197,1.298-0.88,1.944-1.304c1.475,0.475,5.076-1.171,4.55,1.304c1.716-0.019,4.075,0.614,3.255-1.961
	c-4.571,0.209-12.09,0.297-16.913,0c-0.12,0.835-1.885,3.202-0.658,3.265c0.299-1.665,2.823-1.094,3.253-2.607
	c0.267,3.159,3.626,0.279,4.569,0c-0.747,1.431-0.747,3.589-2.612,3.905c-1.792-0.582,1.525-2.646-1.957-1.955
	c1.177,2.125-7.658,4-5.195,0.657c-1.343-0.392-4.272,0.804-4.551-0.657c2.473-0.127,5.57,0.379,5.867-1.95
	c-5.076-0.721-7.57,1.114-10.438,2.607c-2.392-1.557-13.321-1.493-15.606,1.298c2.722,1.367,3.544-2.449,4.557-0.658
	c-1.942,2.626-4.019,0.57-3.898,3.266c-0.596-0.576-1.803-3.741-2.596-1.968c0.837,0.019,0.823,1.816,0,1.968
	c0.103-2.19-5.391-3.443-3.91-1.31c0.253-1.614,2.518-0.038,1.935,1.31c-1.745-0.404-5.145,0.81-5.833-0.664
	c0.988-0.779,5.436-1.437,3.241-3.241c-0.615,2.431-4.418,1.64-5.21,3.905c0.298-1.664-3.392-2.589-3.885-1.31
	c1.569,0.816,2.677,2.101,4.538,2.607c-2.911,2.24-4.146-2.753-7.133-2.607c0.418,2.158,2.044,3.146,3.879,3.904
	c-3.733-0.911-4.732,1.317-4.55,2.608c-1.075,0.063-5.887-0.354-3.913,0.646c1.027,0.063,2.267-0.088,1.957,1.304
	c-3.12,0.298-4.214-1.424-6.5-1.949c1.613,0.082,3.139,0.095,3.898-0.651c0.076-2.899-3.987-1.659-4.55-3.912
	c-2.406,2.43-1.571,1.987-4.545,2.614c-1.024,2.31,2.197,0.386,1.942,1.949c-1.986,0.468-2.373-0.665-3.91-0.651
	c0.151,1.227-0.728,1.443-0.64,2.601c3.912,1.506,4.733-3.48,7.152-1.304v1.304c-3.451,0.241-6.918,0.443-9.108,1.962
	c0.025-0.905-0.316-1.437-0.646-1.962c-4.341-0.221-9.032,2.126-11.062-1.304c-1.121,1.658,0.746,2.278-0.658,3.266
	c-0.595-4.506-3.595,4.171-4.539-0.664c0.924-1,2.524-1.354,4.539-1.298c-0.595-3.974-6.868-0.456-7.153,1.962
	c-0.146-0.519-0.012-1.285-0.64-1.316c1.152,5.639,9.987-0.165,11.691,2.589c-5.298,1.81-11.197,1.266-14.292,3.924
	c-0.069-3.811-2.221,2.139-3.233-0.614c-8.887,4.146-21.533,7.614-32.077,9.677c-0.55,0.912-2.239,0.715-3.746,0.697
	c1.208-0.209,2.48-0.443,3.746-0.697c0.183-0.291,0.273-0.696,0.183-1.259c-2.005,0.456-1.929-1.127-3.929-0.639
	c0.196,1.69-0.241,2.791-1.938,2.595c-0.747-0.146-1.02-0.728-1.316-1.298c-0.107-2.531,6.139-2.082,4.549-3.917
	c-4.397,0.88-7.118,5.158-11.03,4.563c-0.911,1.044-0.57,3.348-1.968,3.905c-1.659-0.512-3.153-1.19-3.899-2.607
	c-1.854,2.955,0.36,2.741-1.317,5.86c2.645,1.253,3.006-2.993,4.569-0.646c-6.583,2.531-14.051,7.627-20.169,8.443
	c4.81-2.981,10.676-4.93,15.601-7.797c-0.791-2.158-1.253-1.051-2.595-1.956c1.64,0.115,1.583-1.449,2.595-1.949
	c-0.924-0.747-4.449-0.132-4.538,1.949c0.062,1.033,1.646,0.5,1.285,1.956c-4-0.089-4.254,0.177-1.285,1.297
	c-2.076-0.551-2.475,0.57-3.253,1.298c0.57-2.297,0.089-1.595,0.64-3.906c-2.595,1.88-3.88,2.52-7.151,2.608
	c-0.189,1.292,0.886,1.292,1.303,1.956c-3.018-1.538-4.468,1.873-7.151,2.607c0.399,1.101,1.956,1.057,2.594,1.937
	c-2.012-0.322-3.152,1.538-1.954-0.64c-4.362,1.077-14.109,1.735-12.35,8.469c6.436,0.196,10.185-7.001,14.949-6.526
	c-7.512,4.215-14.082,9.342-22.133,13.02c-2.057,2.683-1.462,3.278,0.658,0.639c10.943-4.658,18.62-12.614,31.234-15.602
	c0-2.151,2.746-1.595,3.26-3.259c3.055-0.177,5.417-1.095,7.151-2.602c2.12-0.374,3.284,0.197,3.924,1.298
	c-0.595-3.12,3.481-5.013,4.538-2.595c11.26-8.861,29.904-9.392,44.252-14.316c1.69-0.583,8.108-2.368,10.829-2.14
	c-0.341-0.171-0.582-0.468-0.436-1.114c2.985,0.323,6.821-2.298,7.809,0c9.526-4.715,23.83-6.095,35.792-7.158
	c-14.633,2.494,5.194,3.152,9.106-0.646c-3.107-0.918-5.886,1.879-7.811,0c8.974-0.785,19.127-3.86,28.608-1.949
	c-1.253-0.203-1.287,0.867-1.945,1.298c0.092-1.165-0.638-1.526-1.935-1.298c0.582,3.443,3.373,0.626,6.493,1.298
	c1.012-2.317-2.195-0.387-1.942-1.957c2.925-3.411,7.69-0.898,11.709,0c-3.514,0.671-8.038-1.038-9.767,0
	c2.848,1.709,9.733-0.633,11.72,1.957c-0.139-1.912,4.21-2.671,5.198-1.298c-1.228,0.285-3.918-0.88-3.26,1.298h7.812
	c1.031-2.317-2.21-0.387-1.957-1.957c3.975-1.291,7.165,2.551,9.118-1.955c0.932,2.879-2.206,1.703-1.935,3.912
	c3.734-2.805,8.019-1.481,11.062-1.957c-0.526-0.139-1.283-0.013-1.329-0.639c2.047,0.747,1.596-1.038,2.596-1.316
	c4.424,3.961,5.91,1.316,11.734,1.316c-1.938,2.056,5.828,1.189,6.481,1.747c0.03-1.468-2.419-0.481-2.583-1.747
	c2.956,0.937,6.379-1.292,7.15,2.595h5.216c0.255-1.121-0.955-1.671,0-1.957c1.342,0.386,4.267-0.791,4.537,0.659
	c-1.327,0.386-4.512-1.057-3.886,1.298c5.799-0.178,6.658,0.165,3.886,1.297c3.286,0.462,4.687-0.949,5.868-2.595
	c1.145,0.373,3.823-0.797,3.911,0.639c0.57,1.361-4.45,0.184-1.956,1.31c3.431-0.595,7.344,1.893,7.152-0.651
	c2.595-0.133,2.891,0.165,1.296,1.297c5.957,0.272,3.761-0.247,8.451,0c-1.133,0.152-3.253-0.646-2.595,1.304
	c3.253,0.228,6.626,0.298,9.119,1.298c0.45,1.765-3.089-0.457-2.613,1.297c3.316,0.513,4.735-0.905,7.811-0.633
	c0.062,0.715-0.943,1,0,1.272c10.126-1.215,2.393-0.975-2.615-3.234c9.689-0.152,15.634,3.469,25.386,3.234
	c0.254,2.234,2.014,1.083,0,2.62c0.792,0.083,1.538,0.196,1.287,1.304c3.353-0.722,7.537,1.126,9.12,0
	c-2.047-1.418-6.166-0.773-7.792-2.615c6.146,1.374,18.645,2.829,18.853,5.861c2.824-1.417,8.678-0.316,7.812,1.956
	c3.969-1.703,1.88,0.266,1.309,0.639c8.35-1.791,12.862,3.785,14.95,4.564c2.268-0.646,5.823-1.494,3.252,1.304
	c2.166,1,2.451-3.088,3.901-0.64c-0.021,0.842-1.142,0.576-1.305,1.291c23.739,7.058,41.853,19.747,58.562,33.823
	c4.539,7.468,12.373,20.019,5.867,30.589c1.462,0.892,2.431-1.678,2.596,0c-2.242,1.569,0.537,4.316-2.596,5.202
	c-0.746-2.044,1.014-1.589,1.286-2.595c-2.899,1.639-4.843,4.265-6.501,7.152c2.962,0.747,3.569-4.184,5.215-2.602
	c-2.107,3.747-4.602,7.114-7.811,9.74c-1.449-1.709-3.271,0.937-4.568-0.639c-1.223,1.152,0.777,1.905-0.641,3.26
	c1.477-0.298,2.881-3.988,4.553-1.962c-3.179,2.975-4.033,4.266-8.451,5.866c0.658-2.829-1.011-2.949-1.954-1.304
	c1.898,0.475,2.315,2.456,3.24,3.905c-1.659-3.563-8.305,4.058-5.854-1.304c-5.628,0.051-1.734,3.259,0,4.557
	c-6.185-2.386-7.658,7.949-13.404,6.74c-0.284,0.013-0.57-0.051-0.88-0.24c0.296,0.12,0.596,0.189,0.88,0.24
	c1.64-0.031,2.163-3.012,1.057-1.538c-0.729,1.988-2.52-0.55-2.881-1.121c0.044,0.089,0.12,0.229,0.286,0.457
	c0.441,1.633,0.625,2.69-0.671,3.905c-1.887,0.848-3.35,0.152-4.545-1.297c2.076,2.424-11.417,5.443-4.55,4.557
	c-0.912,3.652-6.438,2.677-8.47,5.208c0.793,0.063,1.539,0.19,1.305,1.298c-0.512,0.145-1.286,0.031-1.305,0.658
	c2.9-0.513,4.317,0.43,5.854,1.304c26.981-12.729,54.544-24.829,57.26-61.81C572.868,120.948,573.679,115.582,572.887,111.796z
	 M168.879,77.968c-0.538,1.405-3.341,0.557-3.879,1.943C163.013,80.632,166.614,77.221,168.879,77.968z M162.375,79.271
	c1.804,1.019-0.646,3.202-1.957,3.259C159.937,80.31,163.07,81.696,162.375,79.271z M184.513,71.467
	c1.076-0.867,1.374-2.525,3.88-1.955C188.425,71.48,186.126,71.125,184.513,71.467z M185.797,73.417
	c0.539-2.278,2.987-2.645,5.869-2.601C189.797,71.784,187.412,72.208,185.797,73.417z M251.505,54.543v-1.949
	C253.417,51.639,253.403,55.505,251.505,54.543z M253.461,52.594h1.956C256.373,54.487,252.506,54.487,253.461,52.594z
	 M264.512,47.392c0.448,1.285,3.878-0.404,3.252,1.957C266.062,49.335,263.701,49.942,264.512,47.392z M276.234,48.05h3.251
	C280.473,50.043,275.246,50.043,276.234,48.05z M280.144,49.348c-0.778-2.95,4.031-2.273,4.539-1.957
	C283.34,48.228,281.322,48.36,280.144,49.348z M297.701,46.753h-5.854C291.265,44.651,298.283,44.651,297.701,46.753z
	 M298.34,45.437c1.779-1.5,6.271-0.234,9.126-0.64C305.701,46.284,301.183,45.025,298.34,45.437z M304.866,43.487
	c-1.749-0.165-2.64-2.278-6.526-1.298C305.17,39.037,314.499,44.449,304.866,43.487z M314.598,44.797h-4.535v-1.31h4.535V44.797z
	 M330.232,42.829C320.288,44.728,318.44,42.063,330.232,42.829L330.232,42.829z M341.929,43.487
	c-1.559,0.271-1.405-1.197-3.24-0.658C338.581,41.785,342.953,41.519,341.929,43.487z M343.896,42.829
	c-1.24-1.272,5.207-0.38,7.152-0.64C350.062,45.006,346.973,41.892,343.896,42.829z M372.516,43.487
	c0.286-1.45,3.21-0.267,4.559-0.658C376.789,44.303,373.864,43.107,372.516,43.487z M388.775,46.753h-2.595v-1.316h2.595V46.753z
	 M390.73,45.437h3.262C395.005,47.436,389.731,47.436,390.73,45.437z M417.415,45.437h2.595v1.316h-2.595V45.437z M419.357,50.645
	h3.266C423.611,52.645,418.37,52.645,419.357,50.645z M420.01,50c0.273-1.456,3.21-0.266,4.556-0.651
	C424.294,50.797,421.37,49.619,420.01,50z M425.205,45.437c0.108-1.431,2.767-0.279,3.912-0.64
	C429.048,46.227,426.358,45.069,425.205,45.437z M434.331,49.348c0.299-1.399-0.94-1.241-1.954-1.298
	c-0.854-1.659,4.074,0.759,6.506,0C439.389,50.512,435.806,48.873,434.331,49.348z M462.939,52.594h1.968
	C465.863,54.487,461.982,54.487,462.939,52.594z M467.521,53.911h-1.956c-0.207-1.069,0.597-1.121,0.64-1.962h1.316V53.911z
	 M480.527,56.493h-2.602v-1.31h2.602V56.493z M492.23,61.057h-1.942v-1.311h1.942V61.057z M511.103,66.271h-1.954
	c-0.299-1.398,0.937-1.247,1.954-1.323V66.271z M513.047,66.911h3.252c0.198,1.051-0.626,1.114-0.645,1.956
	c0.538-0.133,0.645-0.652,1.303-0.652C518.148,69.854,513.256,69.176,513.047,66.911z M538.426,79.271
	c-0.089-0.406,6.943,2.918,7.812,5.86C543.711,83.082,539.799,82.442,538.426,79.271z M513.698,183.366
	c2.151-3.279,6.14-4.709,11.063-5.203c-1.583,1.24-3.672,1.962-5.867,2.601c0.032,0.646,0.791,0.513,1.317,0.658
	C520.673,182.239,515.168,181.232,513.698,183.366z M522.168,181.422c1.076-0.874,1.372-2.531,3.878-1.962
	C526.11,181.486,524.109,181.41,522.168,181.422z M525.407,178.163c0.21-2.184,2.942-1.83,5.229-1.956
	C528.736,176.726,528.046,178.435,525.407,178.163z M541.665,169.061C539.736,173.923,536.623,170.802,541.665,169.061
	L541.665,169.061z M257.36,50.645c-3.108-1.013-7.735-0.494-11.063-1.297c0.563,1.595,1.936,2.379,3.924,2.601
	c-0.013-1.354,5.436-2.551,5.196,0C256.435,51.892,257.657,52.044,257.36,50.645z M377.056,48.5c0,0.07,0.03,0.114,0.019,0.19
	C377.143,48.613,377.131,48.557,377.056,48.5z M230.037,58.449c0,0.019,0.014,0.039,0.033,0.044
	c0.834-0.386,1.638-0.804,2.417-1.203C231.442,57.442,230.512,57.74,230.037,58.449z M224.183,54.543
	c-1.12,0.412-1.076,1.962-1.955,2.608c-0.672-0.602-0.21-2.411-1.956-1.968c-0.197,3.449,2.341,2.234,4.568,1.968
	C224.708,56.176,225.082,54.74,224.183,54.543z M200.114,61.708c-0.685,3.589-3.146,1.475-3.913,4.563
	c3.723-2.291,5.394-2.589,11.052-2.62c-0.012-0.899,0.329-1.424,0.669-1.943c-2.075,0.316-2.315-1.177-4.55-0.651
	c-0.12,0.968,0.222,2.399-0.658,2.595C203.373,61.48,201.815,61.531,200.114,61.708z M474.654,63.651
	c1.613-0.835,3.183,1.449,3.271,0c-0.519-0.133-0.777-0.538-0.67-1.298C476.103,62.5,474.003,61.695,474.654,63.651z
	 M371.232,38.284c2.956,1.95,7.14,3.101,9.096,0c-7.361-0.038-16.293-1.449-22.128,0.639
	C362.099,38.708,366.65,40.702,371.232,38.284z M131.81,40.892c2.09-0.81,0.476,2.102,2.596,1.298
	c0.176-1.285-0.879-1.285-1.309-1.955C136.374,39.74,131.766,39.271,131.81,40.892z M129.178,43.487
	c3.526-0.671,1.6-0.519,1.316-3.253c-0.892-0.032-1.418,0.31-1.955,0.657v1.298c0.778,0.101,1.866-0.108,1.955,0.64
	C129.988,42.981,129.209,42.86,129.178,43.487z M104.489,53.911c0.746-2.721,5.076-1.86,7.132-3.266
	c0.088-0.835-0.146-2,0.361-2.449c-3.001,1.633-7.141,2.107-9.469,4.398C103.558,52.645,103.039,54.247,104.489,53.911z
	 M112.28,48.05c1.865,0.791,4.252-0.247,7.138-1.355c-0.582-1.348-2.392-1.456-4.525-1.259c-0.197,0.36-0.437,0.677-0.658,0.962
	v-0.962h-1.955v1.316h1.657c-0.524,0.519-1.12,0.968-1.778,1.341C112.203,48.082,112.222,48.05,112.28,48.05z M122.685,42.829
	c0.416,0.252-2.266,2.69-3.197,3.848c2.304-0.88,4.886-1.797,7.753-1.88C127.329,43.038,121.102,41.911,122.685,42.829z
	 M119.488,46.677c-0.026,0.013-0.044,0.019-0.07,0.019c0.014,0.02,0.014,0.038,0.014,0.058
	C119.462,46.715,119.476,46.695,119.488,46.677z M274.277,43.487c-1.912,0.917-4.48,1.158-6.513,1.949
	c1.759-0.431,1.254,1.341,1.956,1.955c1.089-0.075,5.911,0.348,3.898-0.639c-0.943-0.361-3.349,0.747-3.254-0.658
	C270.873,44.43,274.562,45.949,274.277,43.487z M253.461,49.348c2.165,0.208,2.462-1.456,3.899-1.957
	C255.746,47.721,253.447,47.379,253.461,49.348z M92.109,50c0.448-1.291,3.878,0.398,3.252-1.949h-2.594
	C93.932,49.797,89.9,49.303,92.109,50z M101.874,54.543c-0.506-0.152-1.272-0.006-1.297-0.633c0.791-0.075,1.532-0.196,1.297-1.316
	c-1.513,0.88-3.328,1.443-4.57,2.589c0.88,0.025,0.596,1.158,1.33,1.31C97.229,52.303,103.646,56.689,101.874,54.543z
	 M92.768,57.151c2.328,0.082,4.12,1.297,1.936-0.659C96.678,54.417,93.57,56.461,92.768,57.151z M92.768,57.803
	c-1.286-0.19-1.286,0.873-1.944,1.304c-0.031-0.899,0.298-1.431,0.639-1.956c-1.518,0.208-2.684,1.272-3.892,0
	c-0.153,1.874,0.146,3.304,1.298,3.905C86.749,56.791,92.856,61.905,92.768,57.803z M83.001,63.012
	c-0.045,0.386-0.107,0.773-0.646,0.64c-0.792-0.734-1.191-1.848-3.254-1.298c0.043,1.133-0.146,2.032-0.658,2.595
	C81.033,65.866,84.957,62.456,83.001,63.012z M76.507,64.31c-0.569,0.937-0.525,2.513-2.601,1.962v1.943
	c2.184,0.443,2.12-1.348,3.241-1.943C74.849,66.189,78.539,64.12,76.507,64.31z M69.982,69.512h3.266
	c-1.538-1.335-1.475-4.639-1.937-3.899c-0.032,0.861-1.165,0.602-1.329,1.297C73.248,67.195,69.489,68.062,69.982,69.512z
	 M138.285,93.587c2.33,0.152,1.449-1.949,1.987-3.253c-0.892,0.899-3.493,3.405-1.987,4.551V93.587z M15.995,97.493
	C10.736,101.379,15.901,100.878,15.995,97.493L15.995,97.493z M513.698,179.46c-0.476-1.759,3.064,0.468,2.601-1.297
	c-2.107,0.81-0.493-2.108-2.601-1.304C514.609,178.34,512.027,179.308,513.698,179.46z M507.851,179.46
	c-2.436,4.051-5.734,0.278-8.47,4.564c4.034,0.12,5.734-2.064,9.121-2.602C508.381,180.663,508.61,179.574,507.851,179.46z
	 M509.786,184.024c-1.551,0.607-1.67,2.657-2.594,3.892c-0.582-0.392-1.438-3.632-2.615-1.291c1.178-0.095,1.539,0.646,1.317,1.949
	c-1.841-0.684-4.468,1.07-4.558,0c0.509-4.911,7.748-3.094,9.766-6.506c-3.703,1.278-12.72,2.893-16.916,5.848
	c3.088,0.696,5.417-2.772,7.15-1.291c-0.594,1.139-0.208,3.24-1.298,3.893c1.286-0.297,9.736-2.266,11.703-3.893
	c0.076,0.792,0.196,1.538,1.305,1.291C512.18,185.093,510.832,185.713,509.786,184.024z M500.039,190.517
	C499.767,190.58,499.812,190.574,500.039,190.517L500.039,190.517z M494.187,189.219v3.26c-2.254-0.513-2.508,0.98-4.552,0.639
	c0.398-0.595,1.488-2.386-0.645-1.937c-2.254,0.563-2.88,2.766-4.571,3.905c0.363-2.607,0.363-1.969,0-4.57
	c4.513,0.589,6.912-0.874,9.109-2.602c-4.881-0.304-9.121,3.456-13.001,1.949c-0.119-0.867,3.76-0.841,1.298-1.949
	c-0.792,1.62-4.779,0.02-4.569,2.602c0.968,0.368,3.373-0.753,3.271,0.665c-0.633,0-0.657,0.614-0.91,0.987
	c0.758-0.304,1.506-0.633,2.208-0.987c1.628-0.114,1.569,1.45,2.594,1.937c-2.999,0.272-9.833,0.121-8.462,2.601
	c2.032-0.188,5.405-2.354,6.508-1.297c-5.209,3.341-10.658,0.766-16.899,1.962c-0.998,2.735,3.362,0.102,3.242,1.943
	c-2.646-0.897-2.064,1.425-3.9,1.298c0.451-1.614-2.79-2.747-3.239-1.298c0.761,0.083,1.506,0.19,1.271,1.298
	c-4.479,0.937-11.304,1.918-14.304,0.658c0.816,2.392-3.239,3.203-3.897,1.963c1.011-0.064,2.253,0.062,1.941-1.298h-3.258
	c-0.235,1.101,0.986,1.652,0,1.936c0.119-1.057-4-1.057-3.881,0c0.97,0.108,2.387-0.228,2.594,0.658
	c-1.936,0.57-6.283-1.715-5.193,0c1.005,0.051,2.239-0.082,1.941,1.312h-3.911c0.733-1.355-1.032-3.115-1.299-1.312
	c0.913,0.16,0.749,1.418,1.299,1.944c22.486-2.684,42.088-8.222,62.467-13.006c1.031-2.57-2.804-0.216-2.594-1.962
	c2.151,0.215,2.448-1.449,3.88-1.943C496.68,188.251,496.439,189.746,494.187,189.219z M451.878,196.384
	c-0.351,1.804-2.097,1.836,0,3.241c7.15-4.075,18.535-4.013,27.062-7.189C472.179,191.403,462.117,196.954,451.878,196.384z
	 M479.199,192.479c0.221-0.044,0.341-0.165,0.418-0.311c-0.229,0.102-0.45,0.196-0.678,0.266
	C479.034,192.46,479.123,192.46,479.199,192.479z M448.636,196.384c3.297,0.044,5.405-1.12,9.107-0.665
	c0.747-0.955,0.747-1.619,0-2.601c-1.645,0.892-4.823,3.69-6.512,0.658c-0.013,0.899,0.328,1.431,0.646,1.942
	C450.382,195.531,449.08,194.352,448.636,196.384z M466.863,193.118c1.196-1.399,5.887,0.696,5.854-1.937
	c-0.417-1.392-3.999-0.607-4.557,0C469.49,193.27,464.458,192.093,466.863,193.118z M465.565,191.182
	c-2.448,1.759-3.747,1.354-6.513,1.937C461.743,193.138,465.49,195.017,465.565,191.182z M444.08,196.384
	c0.777,0.721,1.178,1.848,3.251,1.298C447.957,195.89,443.693,195.789,444.08,196.384z M437.586,202.246
	c2.645-3.412,12.391-0.336,11.05-4.564c-7.665,3.412-16.485,1.702-24.07,5.202C430.369,204.151,434.148,199.365,437.586,202.246z
	 M417.415,199.625c-0.152,0.507-0.537,0.767-1.316,0.658v1.963h3.259c1.013-2.323-2.216-0.406-1.942-1.963
	C417.771,200.283,418.144,199.758,417.415,199.625z M398.541,207.447c3.748-3.296,13.48-0.202,19.515-3.905
	c0.073,0.792,0.194,1.539,1.302,1.312c-0.81-3.057-3.38-0.818-6.499-1.97c-0.102,0.767,0.106,1.856-0.639,1.97
	c-1.779-0.197-4.824,0.897-3.926-1.97c0.608,0.405,2.418,1.513,1.95-0.638h-1.95c-0.898,0.385-0.095,2.494-1.306,2.607
	c-3.356,0.019-8.459-0.234-9.087,0.633C400.181,205.561,396.511,207.644,398.541,207.447z M393.358,205.486
	c-1.279,0.417-5.627,3.417-5.868,0.663c0.285-1.664,4.557,0.646,3.24-2.607c-0.447,1.754-6.908,0.836-5.835,1.944
	c1.014,0.062,2.242-0.083,1.943,1.303c-4.185-0.139-5.501,1.108-10.409,1.298C379.206,209.479,390.7,208.568,393.358,205.486z
	 M431.016,204.853h1.361c0.904-1.854-2.615-1.905-2.02-0.222c-3.088-0.784-6.835,0.519-9.031,2.158
	c-0.626-1.975-4.063-1.157-6.514-1.303c0.658,1.841,0.735,2.777-1.954,2.601c3.095-2.107-6.209-1.488-3.912-0.64
	c0.942,0.343,3.375-0.758,3.273,0.64c-5.019-0.183-3.659,2.184-8.47,0.658c-0.595-1.349,4.438-0.177,1.943-1.298h-4.538
	c-1.601,0.862,0.714,2.418-0.658,2.596h-4.537c0.032-0.842,0.833-0.899,0.626-1.956c-3.747-0.461-5.538,4.425-9.096,1.956
	c3.931-1.627-7.505-0.387-7.162,2.601c1.34-0.387,4.271,0.805,4.567-0.64c-0.778-0.113-0.733-1.031-0.669-1.961
	c0.979,0.101,2.396-0.234,2.612,0.645c-1.031,0.076-2.271-0.076-1.943,1.316c3.734,1.905,8.317-1.84,11.064-0.658
	c-0.045,0.867-1.153,0.596-1.328,1.298c1.46-1.075,3.536,0.14,3.909-0.64c-0.493-0.15-0.745-0.556-0.64-1.316
	c5.672-0.866,13.703-0.879,16.911-0.645c-1.935-1.861,8.502-2.228,11.698-3.254c-1.021-0.062-2.241,0.083-1.945-1.303
	c1.342,0.385,4.272-0.811,4.552,0.663c0.612,1.191-3.715,0.387-1.297,1.298c1.625-0.549,3.492-0.848,5.853-0.658
	C432.94,205.827,432.029,205.212,431.016,204.853z M403.092,209.396h-1.937c-0.296-1.404,0.925-1.247,1.937-1.31V209.396z
	 M205.968,206.789c0.48-2.348-1.121-2.348-0.658,0C199.221,206.213,203.158,208.606,205.968,206.789z M380.328,204.853
	c-1.244,0.26-2.794,0.215-2.614,1.936C379.358,206.902,379.295,205.333,380.328,204.853z M332.833,208.086
	c0.867,0.012,0.596,1.152,1.298,1.31c0.031-0.898-0.297-1.437-0.658-1.949c-1.518-0.012-1.911,1.121-3.892,0.64
	C329.252,210.776,332.758,209.016,332.833,208.086z M339.327,208.086c1.701,0.26,1.835,2.096,4.569,1.31
	c-0.03-0.898,0.31-1.437,0.64-1.949C342.865,208.903,340.181,206.916,339.327,208.086z M306.149,210.687
	c-0.087-1.208-0.416-2.164-1.283-2.601c-0.651,2.271-4.685,2.646-1.956,0C292.758,210.328,300.975,210.164,306.149,210.687z
	 M341.929,212.003c3.956,0.241,5.771-1.632,8.462-2.607c-2.33,0.299-3.747,1.045-5.854,0
	C345.555,212.143,340.923,209.246,341.929,212.003z M373.174,212.003c1.164,0.07,1.526-0.658,1.299-1.961
	c-2.178,2.601-3.299,2.633-8.463,2.601c-0.613,3.299,8.419-0.595,5.868,2.596c1.594-0.558,2.373-1.938,5.196-1.298
	C377.534,210.328,373.68,213.492,373.174,212.003z M360.814,212.003c4.284,0.388,5.284,0.158,9.76,0
	C367.756,210.238,363.353,210.581,360.814,212.003z M328.276,217.847c1.658-0.07,3.107-0.368,3.911-1.305
	C330.979,216.713,326.847,217.208,328.276,217.847z M298.999,219.801c1.93-0.575,2.02-0.575,3.911,0
	C303.7,215.365,297.581,219.783,298.999,219.801z M252.821,221.113c-4.886-0.577-5.032,0.125-7.183-1.312
	c0.12,0.982-0.223,2.398,0.658,2.607c1.747-2.278,4.177,1.21,7.164-1.296C253.593,219.998,252.733,219.493,252.821,221.113z"/>
<g>
</g>
<g>
</g>
<g>
</g>
<g>
</g>
<g>
</g>
<g>
</g>
</svg>
