<?xml version="1.0" standalone="no"?>
<!DOCTYPE svg PUBLIC "-//W3C//DTD SVG 1.1//EN" "http://www.w3.org/Graphics/SVG/1.1/DTD/svg11.dtd">
<svg version="1.1" id="Layer_1" xmlns="http://www.w3.org/2000/svg" xmlns:xlink="http://www.w3.org/1999/xlink" x="0px" y="0px"
	 width="288px" height="77.25px" viewBox="0 0 288 77.25" enable-background="new 0 0 288 77.25" xml:space="preserve" preserveAspectRatio="none">
<path fill="#666666" d="M287.325,63.766c0,6.869-5.356,12.438-11.968,12.438H14.136c-6.609,0-11.965-5.569-11.965-12.438v-46.63
	C2.17,10.27,7.527,4.7,14.136,4.7h261.223c6.608,0,11.967,5.57,11.967,12.436L287.325,63.766L287.325,63.766z"/>
<path d="M287.43,63.771c0,0-0.009,0.168-0.021,0.5c-0.016,0.334-0.022,0.828-0.139,1.484c-0.209,1.291-0.66,3.271-2.134,5.385
	c-1.415,2.086-4,4.357-7.712,5.022c-0.91,0.183-1.896,0.206-2.875,0.205c-0.986,0.003-2.008,0.006-3.062,0.01
	c-2.105,0.006-4.346,0.015-6.713,0.021c-9.465-0.002-20.959,0.158-34.145,0.254c-13.186,0.107-28.061,0.229-44.287,0.361
	c-8.113,0.033-16.564,0.067-25.312,0.104c-8.745,0.042-17.791-0.021-27.085-0.027c-18.594,0.002-38.201-0.21-58.485-0.327
	c-20.289-0.099-41.254-0.199-62.557-0.303c-2.751-0.311-5.35-1.536-7.289-3.496c-1.937-1.939-3.257-4.513-3.637-7.244
	c-0.219-1.375-0.153-2.736-0.167-4.066L1.8,57.625c-0.005-2.688-0.011-5.379-0.017-8.073C1.723,38.776,1.662,27.958,1.602,17.14
	C1.614,14.35,2.46,11.46,4.17,9.2c1.67-2.285,4.119-4.04,6.894-4.746c1.358-0.381,2.872-0.454,4.182-0.43l4.049-0.021
	c2.699-0.014,5.396-0.028,8.089-0.042c10.776-0.057,21.509-0.114,32.158-0.17C80.84,3.734,101.8,3.679,122.084,3.625
	c20.284,0.006,39.893,0.011,58.484,0.017c18.595-0.017,36.174,0.095,52.399,0.194c8.113,0.069,15.89,0.135,23.284,0.197
	c3.697,0.036,7.3,0.07,10.803,0.104c1.752,0.017,3.479,0.033,5.178,0.05c1.691,0.045,3.373-0.067,5.078,0.218
	c3.422,0.58,6.313,2.645,8.08,5.274c0.893,1.313,1.517,2.765,1.87,4.245c0.371,1.473,0.408,3.009,0.369,4.415
	c-0.062,5.705-0.091,10.945-0.099,15.678c-0.067,18.932-0.105,29.75-0.105,29.75v0.004H287.43z M287.223,63.766
	c0,0-0.039-10.816-0.104-29.75c-0.009-4.733-0.039-9.973-0.101-15.678c0.016-1.441-0.049-2.842-0.425-4.248
	c-0.36-1.396-0.975-2.754-1.834-3.975c-1.696-2.442-4.46-4.311-7.577-4.782c-1.555-0.241-3.246-0.107-4.947-0.121
	c-1.698,0.017-3.426,0.033-5.178,0.05c-3.502,0.034-7.104,0.068-10.802,0.104c-7.396,0.062-15.171,0.128-23.284,0.197
	c-16.228,0.1-33.807,0.211-52.4,0.194c-18.594,0.005-38.199,0.011-58.483,0.017C101.802,5.72,80.842,5.665,59.544,5.608
	c-10.649-0.056-21.382-0.113-32.158-0.17c-2.694-0.014-5.391-0.028-8.089-0.042l-4.049-0.021c-1.385-0.035-2.598,0.02-3.853,0.343
	C8.911,6.319,6.688,7.871,5.152,9.926c-1.578,2.059-2.365,4.607-2.414,7.212c-0.059,10.818-0.12,21.636-0.18,32.412
	c-0.006,2.694-0.011,5.386-0.017,8.073l-0.008,4.029c0.006,1.35-0.061,2.687,0.142,3.964c0.347,2.587,1.588,5.024,3.413,6.87
	c1.813,1.863,4.31,3.033,6.845,3.332c2.625,0.135,5.309,0.049,7.952,0.063c2.651-0.007,5.296-0.015,7.935-0.021
	c5.277-0.016,10.528-0.029,15.747-0.043c10.438-0.061,20.749-0.116,30.891-0.174c20.284-0.117,39.892-0.33,58.485-0.328
	c9.297-0.006,18.34-0.069,27.086-0.026c8.748,0.036,17.199,0.069,25.312,0.103c16.229,0.133,31.104,0.254,44.287,0.362
	c13.187,0.097,24.681,0.255,34.146,0.254c2.367,0.007,4.604,0.015,6.713,0.021c2.104-0.033,4.103,0.13,5.884-0.172
	c3.614-0.623,6.157-2.824,7.558-4.861c1.456-2.061,1.913-4.007,2.124-5.266c0.116-0.637,0.13-1.135,0.146-1.467
	c0.018-0.332,0.024-0.5,0.024-0.5V63.766L287.223,63.766z"/>
<g>
	<path fill="#FFFFFF" d="M55.258,50.77l9.131-5.58L53.863,43.54l10.145-9.386L49.043,36.99l3.552-10.571L45.493,32l-1.397-13.952
		l-6.213,14.584l-6.849-6.976L30.906,35.93l-12.935-4.693l9.132,8.625l-6.342,3.678l8.244,2.789L18.859,52.67l11.921-0.634
		l0.379,9.13l5.835-8.369l5.139,5.326l2.218-4.438l7.355,5.453l-0.887-6.342l12.174,5.833L55.258,50.77z M46.729,49.82l0.557,3.984
		l-4.621-3.428l-1.395,2.791l-3.226-3.348l-3.668,5.258l-0.238-5.737l-7.492,0.398l6.376-3.983l-5.18-1.754l3.985-2.312l-5.74-5.418
		l8.13,2.948l0.079-6.453l4.304,4.385l3.906-9.166l0.875,8.766l4.464-3.506l-2.232,6.644l9.405-1.785l-6.377,5.9l6.617,1.035
		l-5.738,3.508l4.862,4.939L46.729,49.82z"/>
	<g>
		<path fill="#FFFFFF" d="M78.101,36.378c0-6.548,0-7.724-0.083-9.067c-0.084-1.427-0.42-2.099-1.805-2.393
			c-0.336-0.084-1.049-0.126-1.427-0.126c-0.168,0-0.336-0.084-0.336-0.252c0-0.252,0.21-0.335,0.672-0.335
			c0.965,0,2.099,0,3.022,0.042l1.721,0.042c0.84,0,9.361,0.042,10.326,0c0.798-0.042,1.469-0.042,1.847-0.167
			c0.252-0.084,0.42-0.252,0.588-0.252c0.167,0,0.251,0.168,0.251,0.378c0,0.293-0.209,0.797-0.335,1.973
			c-0.042,0.42-0.126,2.267-0.21,2.771c-0.042,0.21-0.126,0.462-0.336,0.462s-0.294-0.21-0.294-0.504
			c0-0.336-0.126-1.049-0.377-1.595c-0.252-0.545-1.218-1.301-2.854-1.343l-6.464-0.126c-0.252,0-0.378,0.126-0.378,0.462v11.585
			c0,0.252,0.042,0.378,0.294,0.378l5.373-0.042c0.713,0,1.301,0,1.889-0.042c1.007-0.084,1.553-0.21,1.931-0.755
			c0.168-0.21,0.294-0.42,0.461-0.42c0.168,0,0.21,0.126,0.21,0.336c0,0.252-0.21,0.965-0.335,2.351
			c-0.084,0.84-0.168,2.519-0.168,2.812c0,0.379,0,0.799-0.294,0.799c-0.21,0-0.294-0.168-0.294-0.379
			c-0.042-0.42-0.084-1.008-0.252-1.512c-0.21-0.587-0.881-1.343-2.183-1.511c-1.049-0.126-5.625-0.126-6.338-0.126
			c-0.21,0-0.294,0.084-0.294,0.378v3.567c0,4.029,0,7.347,0.21,9.108c0.126,1.218,0.377,2.142,1.637,2.31
			c0.588,0.084,1.511,0.168,1.889,0.168c0.252,0,0.336,0.125,0.336,0.252c0,0.209-0.21,0.336-0.672,0.336
			c-2.309,0-4.953-0.127-5.163-0.127s-2.854,0.127-4.114,0.127c-0.461,0-0.671-0.084-0.671-0.336c0-0.127,0.084-0.252,0.335-0.252
			c0.378,0,0.882-0.084,1.259-0.168c0.84-0.168,1.05-1.092,1.218-2.31c0.209-1.763,0.209-5.079,0.209-9.108L78.101,36.378
			L78.101,36.378z"/>
		<path fill="#FFFFFF" d="M101.147,45.57c0,3.443,0,6.255,0.168,7.725c0.125,1.051,0.251,1.721,1.343,1.889
			c0.545,0.084,1.343,0.168,1.679,0.168c0.21,0,0.294,0.168,0.294,0.295c0,0.168-0.168,0.293-0.588,0.293
			c-2.057,0-4.449-0.125-4.617-0.125c-0.21,0-2.519,0.125-3.652,0.125c-0.378,0-0.588-0.084-0.588-0.293
			c0-0.127,0.084-0.295,0.294-0.295c0.336,0,0.797-0.084,1.133-0.168c0.714-0.168,0.839-0.838,0.965-1.889
			c0.168-1.47,0.21-4.281,0.21-7.725v-6.297c0-5.541,0-6.547-0.084-7.682c-0.084-1.217-0.377-1.763-1.175-1.931
			c-0.42-0.083-0.881-0.125-1.133-0.125c-0.168,0-0.294-0.168-0.294-0.294c0-0.21,0.168-0.294,0.588-0.294
			c1.217,0,3.526,0.084,3.736,0.084c0.168,0,2.561-0.084,3.694-0.084c0.42,0,0.588,0.084,0.588,0.294
			c0,0.126-0.168,0.294-0.294,0.294c-0.252,0-0.504,0-0.923,0.084c-1.008,0.209-1.217,0.713-1.301,1.973
			c-0.042,1.133-0.042,2.141-0.042,7.683L101.147,45.57L101.147,45.57z"/>
		<path fill="#FFFFFF" d="M112.439,45.654c0,5.248,0.084,7.389,0.755,8.019c0.588,0.588,2.015,0.839,4.911,0.839
			c1.931,0,3.568-0.041,4.45-1.091c0.462-0.546,0.756-1.302,0.881-2.015c0.042-0.252,0.168-0.463,0.378-0.463
			c0.168,0,0.252,0.168,0.252,0.547c0,0.377-0.252,2.519-0.546,3.566c-0.251,0.84-0.377,0.967-2.351,0.967
			c-2.645,0-4.701-0.043-6.422-0.127c-1.679-0.041-2.938-0.084-4.03-0.084c-0.168,0-0.797,0-1.511,0.043
			c-0.755,0.041-1.553,0.084-2.141,0.084c-0.378,0-0.588-0.084-0.588-0.295c0-0.125,0.084-0.293,0.294-0.293
			c0.336,0,0.797-0.084,1.133-0.168c0.714-0.168,0.797-0.84,0.965-1.89c0.21-1.47,0.21-4.28,0.21-7.724v-6.297
			c0-5.542,0-6.548-0.084-7.683c-0.084-1.217-0.294-1.805-1.511-1.973c-0.293-0.042-0.923-0.084-1.259-0.084
			c-0.126,0-0.293-0.168-0.293-0.294c0-0.21,0.167-0.294,0.587-0.294c1.679,0,3.988,0.084,4.198,0.084
			c0.168,0,2.938-0.084,4.072-0.084c0.378,0,0.587,0.084,0.587,0.294c0,0.126-0.167,0.252-0.293,0.252
			c-0.252,0-0.798,0.042-1.217,0.084c-1.092,0.209-1.301,0.755-1.385,2.015c-0.042,1.133-0.042,2.141-0.042,7.683V45.654
			L112.439,45.654z"/>
		<path fill="#FFFFFF" d="M130.699,45.57c0,3.443,0,6.255,0.168,7.725c0.125,1.051,0.251,1.721,1.343,1.889
			c0.545,0.084,1.343,0.168,1.679,0.168c0.21,0,0.294,0.168,0.294,0.295c0,0.168-0.168,0.293-0.588,0.293
			c-2.057,0-4.449-0.125-4.617-0.125c-0.21,0-2.519,0.125-3.652,0.125c-0.378,0-0.588-0.084-0.588-0.293
			c0-0.127,0.084-0.295,0.294-0.295c0.336,0,0.797-0.084,1.133-0.168c0.714-0.168,0.839-0.838,0.965-1.889
			c0.168-1.47,0.21-4.281,0.21-7.725v-6.297c0-5.541,0-6.547-0.084-7.682c-0.084-1.217-0.377-1.763-1.175-1.931
			c-0.42-0.083-0.881-0.125-1.133-0.125c-0.168,0-0.294-0.168-0.294-0.294c0-0.21,0.168-0.294,0.588-0.294
			c1.217,0,3.526,0.084,3.736,0.084c0.168,0,2.561-0.084,3.694-0.084c0.42,0,0.588,0.084,0.588,0.294
			c0,0.126-0.168,0.294-0.294,0.294c-0.252,0-0.504,0-0.923,0.084c-1.008,0.209-1.217,0.713-1.301,1.973
			c-0.042,1.133-0.042,2.141-0.042,7.683L130.699,45.57L130.699,45.57z"/>
		<path fill="#FFFFFF" d="M138.633,39.273c0-5.541,0-6.547-0.084-7.682c-0.084-1.217-0.294-1.889-1.511-2.057
			c-0.293-0.042-0.923-0.084-1.259-0.084c-0.126,0-0.294-0.084-0.294-0.21c0-0.21,0.168-0.294,0.588-0.294
			c1.679,0,4.072,0.084,4.282,0.084c0.881,0,2.603-0.084,4.325-0.084c6.17,0,7.766,3.568,7.766,5.457
			c0,2.812-1.848,4.576-3.736,6.255c2.812,0.839,6.507,3.399,6.507,7.43c0,3.987-2.979,7.935-9.276,7.935
			c-0.672,0-2.016-0.043-3.19-0.127c-1.175-0.041-2.225-0.084-2.393-0.084c-0.084,0-0.756,0.043-1.511,0.043
			c-0.755,0.041-1.637,0.084-2.225,0.084c-0.378,0-0.588-0.084-0.588-0.295c0-0.125,0.084-0.209,0.294-0.209
			c0.336,0,0.797-0.127,1.133-0.168c0.713-0.127,0.797-0.924,0.965-1.974c0.21-1.47,0.21-4.28,0.21-7.724L138.633,39.273
			L138.633,39.273z M141.823,40.029c0,0.253,0.084,0.337,0.252,0.379c0.209,0.042,0.881,0.168,2.267,0.168
			c2.057,0,2.854-0.084,3.609-0.924c0.798-0.881,1.428-2.099,1.428-3.82c0-2.729-1.512-5.751-5.205-5.751
			c-0.42,0-1.301,0.042-1.889,0.168c-0.335,0.084-0.461,0.168-0.461,0.378L141.823,40.029L141.823,40.029z M141.823,43.977
			c0,2.771,0,7.053,0.042,7.599c0.126,1.721,0.126,2.141,1.259,2.687c1.007,0.461,2.56,0.504,3.231,0.504
			c2.436,0,5.416-0.924,5.416-5.5c0-1.595-0.631-4.658-3.526-6.506c-1.259-0.798-2.435-0.756-3.315-0.924
			c-0.462-0.084-2.309-0.084-2.896-0.084c-0.126,0-0.21,0.084-0.21,0.252V43.977z"/>
		<path fill="#FFFFFF" d="M158.32,39.273c0-5.541,0-6.547-0.084-7.682c-0.084-1.134-0.295-1.805-1.512-1.973
			c-0.293-0.042-0.924-0.084-1.26-0.084c-0.126,0-0.294-0.168-0.294-0.294c0-0.21,0.168-0.294,0.588-0.294
			c1.681,0,3.904,0.084,4.24,0.084s2.646-0.084,3.735-0.084c0.42,0,0.63,0.084,0.63,0.294c0,0.126-0.169,0.294-0.337,0.294
			c-0.252,0-0.461,0-0.922,0.084c-0.967,0.167-1.176,0.797-1.26,1.973c-0.084,1.133-0.084,2.141-0.084,7.682v4.996
			c0,5.162,1.133,7.305,2.729,8.73c1.805,1.637,3.4,1.932,5.499,1.932c2.267,0,4.448-1.008,5.709-2.52
			c1.721-2.057,2.099-4.995,2.099-8.646v-4.492c0-5.541-0.042-6.547-0.084-7.682c-0.042-1.134-0.252-1.805-1.469-1.973
			c-0.294-0.042-0.924-0.084-1.26-0.084c-0.168,0-0.295-0.168-0.295-0.294c0-0.21,0.168-0.294,0.588-0.294
			c1.638,0,3.779,0.084,3.988,0.084c0.252,0,2.016-0.084,3.105-0.084c0.42,0,0.588,0.084,0.588,0.294
			c0,0.126-0.126,0.294-0.294,0.294c-0.252,0-0.462,0-0.923,0.084c-1.008,0.209-1.219,0.797-1.303,1.973
			c-0.084,1.133-0.041,2.141-0.041,7.682v3.82c0,3.861-0.504,8.186-3.442,10.704c-2.687,2.31-5.541,2.603-7.724,2.603
			c-1.217,0-5.08-0.084-7.683-2.519c-1.805-1.68-3.231-4.155-3.231-9.36v-5.248H158.32z"/>
		<path fill="#FFFFFF" d="M183.633,55.436c-0.504-0.252-0.546-0.377-0.546-1.343c0-1.764,0.168-3.19,0.21-3.778
			c0-0.377,0.084-0.588,0.294-0.588s0.336,0.127,0.336,0.42c0,0.295,0,0.799,0.126,1.303c0.588,2.603,3.357,3.525,5.834,3.525
			c3.652,0,5.541-2.058,5.541-4.744c0-2.561-1.385-3.777-4.658-6.213l-1.68-1.259c-3.988-2.979-5.289-5.163-5.289-7.64
			c0-4.197,3.315-6.716,8.186-6.716c1.47,0,2.938,0.21,3.82,0.42c0.713,0.168,1.008,0.168,1.301,0.168
			c0.295,0,0.379,0.042,0.379,0.252c0,0.168-0.168,1.343-0.168,3.778c0,0.546-0.043,0.797-0.295,0.797s-0.293-0.168-0.336-0.461
			c-0.041-0.42-0.336-1.385-0.545-1.763c-0.252-0.42-1.47-1.763-4.785-1.763c-2.688,0-4.912,1.343-4.912,3.862
			c0,2.267,1.134,3.568,4.785,6.045l1.051,0.714c4.49,3.063,6.044,5.541,6.044,8.604c0,2.1-0.798,4.365-3.441,6.086
			c-1.554,1.008-3.862,1.26-5.877,1.26C187.284,56.4,185.145,56.148,183.633,55.436z"/>
		<path fill="#FFFFFF" d="M212.598,45.57c0,3.443,0,6.255,0.168,7.725c0.125,1.051,0.293,1.721,1.426,1.889
			c0.504,0.084,1.344,0.168,1.68,0.168c0.252,0,0.294,0.168,0.294,0.295c0,0.168-0.168,0.293-0.588,0.293
			c-2.015,0-4.365-0.125-4.575-0.125c-0.168,0-2.729,0.125-3.818,0.125c-0.42,0-0.588-0.084-0.588-0.293
			c0-0.127,0.084-0.252,0.293-0.252c0.336,0,0.756-0.084,1.092-0.168c0.756-0.168,0.965-0.881,1.092-1.932
			c0.168-1.47,0.168-4.281,0.168-7.725V30.585l-5.331,0.084c-2.31,0.042-3.19,0.293-3.736,1.133
			c-0.42,0.629-0.462,0.881-0.588,1.133c-0.084,0.294-0.209,0.336-0.377,0.336c-0.084,0-0.252-0.084-0.252-0.294
			c0-0.378,0.713-3.568,0.797-3.862c0.042-0.21,0.252-0.672,0.378-0.672c0.252,0,0.631,0.294,1.639,0.42
			c1.049,0.126,2.477,0.168,2.896,0.168h13.937c1.217,0,2.058-0.084,2.645-0.168c0.546-0.084,0.882-0.168,1.05-0.168
			s0.168,0.21,0.168,0.42c0,1.091-0.126,3.652-0.126,4.072c0,0.294-0.168,0.461-0.336,0.461s-0.252-0.125-0.294-0.629l-0.042-0.378
			c-0.126-1.091-0.923-1.889-4.449-1.973l-4.617-0.084V45.57H212.598z"/>
		<path fill="#FFFFFF" d="M225.945,39.273c0-5.541,0-6.547-0.084-7.682c-0.084-1.217-0.295-1.805-1.512-1.973
			c-0.295-0.042-0.924-0.084-1.26-0.084c-0.126,0-0.294-0.168-0.294-0.294c0-0.21,0.168-0.294,0.588-0.294
			c1.679,0,4.071,0.084,4.281,0.084c0.252,0,7.976,0.042,8.815,0c0.713-0.042,1.385-0.168,1.679-0.21
			c0.168-0.042,0.336-0.168,0.504-0.168c0.126,0,0.168,0.168,0.168,0.336c0,0.252-0.21,0.671-0.294,1.679
			c-0.042,0.335-0.126,1.931-0.21,2.351c-0.042,0.168-0.168,0.378-0.336,0.378c-0.21,0-0.294-0.168-0.294-0.462
			c0-0.252-0.043-0.839-0.211-1.259c-0.252-0.588-0.629-0.839-2.645-1.091c-0.63-0.084-4.91-0.126-5.331-0.126
			c-0.168,0-0.21,0.126-0.21,0.378v9.697c0,0.252,0,0.378,0.21,0.378c0.462,0,5.331,0,6.171-0.084
			c0.883-0.084,1.428-0.126,1.805-0.504c0.252-0.252,0.421-0.463,0.547-0.463s0.21,0.084,0.21,0.295c0,0.21-0.21,0.798-0.294,1.973
			c-0.084,0.714-0.168,2.057-0.168,2.309c0,0.295-0.084,0.672-0.336,0.672c-0.168,0-0.252-0.125-0.252-0.336
			c0-0.336,0-0.713-0.168-1.174c-0.125-0.504-0.461-0.925-1.89-1.093c-1.007-0.126-4.952-0.168-5.583-0.168
			c-0.21,0-0.252,0.126-0.252,0.252v2.979c0,1.218-0.042,5.373,0,6.088c0.084,2.393,0.756,2.854,4.408,2.854
			c0.965,0,2.729,0,3.693-0.377c0.966-0.42,1.47-1.05,1.68-2.477c0.084-0.42,0.168-0.547,0.378-0.547
			c0.209,0,0.251,0.295,0.251,0.547c0,0.251-0.293,2.688-0.503,3.441c-0.252,0.924-0.63,0.924-2.058,0.924
			c-2.771,0-4.912-0.084-6.422-0.127c-1.555-0.084-2.52-0.084-3.064-0.084c-0.084,0-0.798,0-1.596,0.043
			c-0.713,0.041-1.553,0.084-2.142,0.084c-0.378,0-0.587-0.084-0.587-0.295c0-0.125,0.084-0.293,0.293-0.293
			c0.336,0,0.799-0.127,1.135-0.168c0.713-0.127,0.797-0.84,0.965-1.89c0.211-1.47,0.211-4.28,0.211-7.724v-6.297H225.945z"/>
		<path fill="#FFFFFF" d="M244.877,39.273c0-5.541,0-6.547-0.084-7.682c-0.084-1.217-0.294-1.805-1.512-1.973
			c-0.295-0.042-0.924-0.084-1.26-0.084c-0.125,0-0.293-0.168-0.293-0.294c0-0.21,0.168-0.294,0.588-0.294
			c1.679,0,4.154,0.084,4.365,0.084c0.377,0,3.483-0.084,4.616-0.084c2.351,0,4.953,0.21,6.886,1.553
			c0.922,0.671,2.561,2.393,2.561,4.869c0,2.645-1.092,5.206-4.534,8.145c3.022,3.776,5.583,7.01,7.724,9.233
			c1.975,2.015,3.19,2.351,4.114,2.478c0.714,0.125,1.093,0.125,1.302,0.125s0.336,0.168,0.336,0.295
			c0,0.209-0.211,0.293-0.881,0.293h-2.31c-2.101,0-3.022-0.209-3.946-0.713c-1.595-0.84-2.938-2.562-5.037-5.248
			c-1.554-1.931-3.189-4.238-3.988-5.205c-0.168-0.168-0.252-0.209-0.502-0.209l-4.703-0.084c-0.168,0-0.252,0.084-0.252,0.293v0.84
			c0,3.443,0,6.213,0.168,7.683c0.127,1.05,0.336,1.722,1.471,1.89c0.504,0.084,1.301,0.168,1.637,0.168
			c0.252,0,0.295,0.168,0.295,0.293c0,0.168-0.169,0.295-0.589,0.295c-2.015,0-4.364-0.127-4.532-0.127
			c-0.043,0-2.52,0.127-3.652,0.127c-0.379,0-0.588-0.084-0.588-0.295c0-0.125,0.084-0.293,0.293-0.293
			c0.336,0,0.799-0.084,1.135-0.168c0.714-0.168,0.798-0.84,0.966-1.89c0.21-1.47,0.21-4.28,0.21-7.724v-6.297H244.877z
			 M248.066,42.297c0,0.21,0.084,0.336,0.252,0.462c0.545,0.294,2.435,0.546,4.072,0.546c0.881,0,1.889-0.041,2.771-0.63
			c1.259-0.84,2.225-2.729,2.225-5.457c0-4.45-2.435-7.01-6.381-7.01c-1.091,0-2.267,0.126-2.646,0.21
			c-0.168,0.084-0.293,0.21-0.293,0.42V42.297L248.066,42.297z"/>
	</g>
</g>
</svg>
