<?xml version="1.0" standalone="no"?>
<!DOCTYPE svg PUBLIC "-//W3C//DTD SVG 1.1//EN" "http://www.w3.org/Graphics/SVG/1.1/DTD/svg11.dtd">
<svg version="1.1" id="Layer_1" xmlns="http://www.w3.org/2000/svg" xmlns:xlink="http://www.w3.org/1999/xlink" x="0px" y="0px"
	 width="288px" height="432px" viewBox="0 0 288 432" enable-background="new 0 0 288 432" xml:space="preserve" preserveAspectRatio="none">
<g>
	<g>
		
			<linearGradient id="SVGID_1_" gradientUnits="userSpaceOnUse" x1="129.2485" y1="388.6719" x2="80.9101" y2="367.7268" gradientTransform="matrix(-0.9973 0.0737 0.0737 0.9973 266.0195 27.582)">
			<stop  offset="0" style="stop-color:#959DA5"/>
			<stop  offset="0.7474" style="stop-color:#6A767E"/>
			<stop  offset="1" style="stop-color:#4A5964"/>
		</linearGradient>
		<path fill="url(#SVGID_1_)" d="M207.3,425.921c0,0-2.92-16.952-17.161-28.417c-14.24-11.465,27.082-16.359,36.879-10.039
			C236.813,393.787,220.23,420.318,207.3,425.921z"/>
		<path d="M207.009,425.975c0,0-0.797-1.907-2.383-5.058c-0.819-1.561-1.787-3.446-3.038-5.506
			c-1.252-2.055-2.673-4.347-4.459-6.647c-1.758-2.323-3.825-4.667-6.121-7.048c-0.589-0.582-1.186-1.173-1.79-1.771
			c-0.321-0.325-0.646-0.653-0.971-0.983l-0.244-0.246l-0.296-0.323c-0.197-0.216-0.39-0.434-0.558-0.659
			c-0.686-0.888-1.357-1.945-1.655-3.338c-0.329-1.387,0.078-3.075,0.915-4.075c0.805-1.052,1.765-1.679,2.714-2.207
			c0.961-0.507,1.928-0.896,2.902-1.236c1.951-0.671,3.92-1.182,5.916-1.64c3.992-0.884,8.068-1.614,12.231-2.153
			c4.166-0.487,8.416-0.762,12.746,0.042c1.085,0.202,2.177,0.476,3.294,0.873c0.557,0.193,1.125,0.442,1.696,0.727l0.433,0.239
			l0.107,0.061l0.055,0.031c0.106,0.072-0.162-0.121,0.252,0.171l0.15,0.107l0.604,0.428c0.467,0.388,1.284,1.166,1.624,1.717
			c0.205,0.298,0.409,0.6,0.597,0.906l0.444,0.95c0.298,0.64,0.434,1.276,0.611,1.915c0.095,0.615,0.244,1.267,0.247,1.854
			c0.15,2.42-0.248,4.581-0.797,6.565c-0.562,1.984-1.313,3.798-2.144,5.488c-1.699,3.355-3.67,6.247-5.704,8.723
			c-2.046,2.466-4.102,4.559-6.097,6.224c-1.97,1.688-3.86,2.959-5.479,3.881c-1.615,0.934-3.001,1.456-3.931,1.792
			c-0.957,0.293-1.466,0.414-1.466,0.414l-0.288,0.069L207.009,425.975z M207.581,425.354c0.192-0.142,0.45-0.332,0.774-0.572
			c0.739-0.595,1.803-1.46,3.03-2.695c1.229-1.231,2.627-2.806,4.124-4.686c1.477-1.896,3.074-4.086,4.591-6.601
			c1.543-2.489,3.066-5.268,4.355-8.263c0.64-1.494,1.214-3.042,1.663-4.6c0.448-1.551,0.751-3.137,0.752-4.547
			c0.03-0.373-0.057-0.665-0.057-1.009c-0.073-0.287-0.092-0.621-0.2-0.866c-0.048-0.127-0.092-0.258-0.131-0.392
			c-0.065-0.109-0.129-0.217-0.185-0.332c-0.058-0.146-0.107-0.188-0.139-0.236c-0.017-0.028-0.03-0.06-0.042-0.095
			c-0.014-0.036,0.006-0.064-0.124-0.16l-0.567-0.477l-0.142-0.119c0.389,0.274,0.093,0.066,0.173,0.123l-0.025-0.017l-0.052-0.034
			l-0.204-0.142c-0.303-0.181-0.629-0.366-1.002-0.531c-0.733-0.337-1.569-0.62-2.44-0.872c-1.751-0.483-3.636-0.897-5.567-1.193
			c-1.93-0.336-3.911-0.568-5.909-0.718c-3.993-0.309-8.071-0.169-11.931,0.662c-1.925,0.411-3.81,0.981-5.498,1.821
			c-0.839,0.419-1.641,0.891-2.307,1.448c-0.652,0.551-1.241,1.16-1.45,1.744c-0.242,0.59-0.133,0.951,0.076,1.367
			c0.221,0.425,0.689,0.911,1.238,1.372c0.135,0.122,0.275,0.222,0.411,0.319l0.477,0.348l0.513,0.363l0.573,0.426
			c0.755,0.577,1.512,1.143,2.217,1.745c2.79,2.461,4.936,5.277,6.688,7.964c1.755,2.701,2.966,5.392,3.9,7.798
			c0.932,2.413,1.48,4.601,1.833,6.41c0.374,1.805,0.491,3.257,0.563,4.237C207.586,424.769,207.579,425.105,207.581,425.354z"/>
	</g>
	<g>
		
			<linearGradient id="SVGID_2_" gradientUnits="userSpaceOnUse" x1="127.5425" y1="436.582" x2="168.0266" y2="299.1589" gradientTransform="matrix(-0.9973 0.0737 0.0737 0.9973 266.0195 27.582)">
			<stop  offset="0" style="stop-color:#959DA5"/>
			<stop  offset="0.5516" style="stop-color:#6A767E"/>
			<stop  offset="1" style="stop-color:#4A5964"/>
		</linearGradient>
		<path fill="url(#SVGID_2_)" d="M277.332,388.953c0,0,5.965,3.862,6.546,6.163c0.577,2.3-0.333,16.796-2.272,23.174
			c-1.938,6.378-3.293,4.523-3.293,4.523s-25.174,9.593-71.013,3.107c0,0,4.593-13.976,4.146-19.799c0,0-11.717-5.014-31.09,1.047
			c-19.374,6.06-33.871,17.626-65.929,21.859c-32.064,4.231-68.804,0.224-85.074-6.034c-16.267-6.247-25.899-15.706-26.197-19.585
			c-0.298-3.875,4.01-5.739,7.859-8.358c3.851-2.613,2.044,0.244,12.199,0.693c10.154,0.447,158.368-14.792,198.347-16.082
			C261.541,378.378,277.332,388.953,277.332,388.953z"/>
		<path d="M277.495,388.706c1.363,0.897,2.678,1.851,3.924,2.913c0.621,0.532,1.228,1.089,1.771,1.727
			c0.271,0.318,0.53,0.655,0.742,1.043c0.121,0.179,0.18,0.421,0.267,0.63c0.044,0.271,0.051,0.421,0.077,0.638
			c0.124,0.793,0.092,1.633,0.109,2.459c0.026,0.837-0.034,1.633-0.053,2.449c-0.02,0.812-0.06,1.622-0.121,2.431l-0.149,2.429
			c-0.146,1.615-0.241,3.236-0.455,4.849c-0.101,0.806-0.175,1.615-0.297,2.42l-0.39,2.415c-0.107,0.807-0.35,1.604-0.519,2.408
			c-0.173,0.816-0.403,1.596-0.672,2.373c-0.264,0.802-0.566,1.576-0.997,2.356c-0.213,0.387-0.479,0.78-0.909,1.149
			c-0.22,0.177-0.531,0.365-0.96,0.396c-0.219,0.003-0.438-0.038-0.635-0.13c-0.198-0.107-0.332-0.185-0.515-0.409l0.862,0.255
			c-1.452,0.562-2.876,0.993-4.33,1.427c-1.451,0.406-2.905,0.811-4.374,1.143c-1.463,0.362-2.936,0.674-4.41,0.979
			c-1.473,0.329-2.961,0.546-4.442,0.825c-1.482,0.271-2.977,0.448-4.467,0.677c-1.489,0.24-2.989,0.361-4.485,0.544
			c-1.497,0.187-2.997,0.317-4.5,0.425c-1.502,0.104-3.005,0.274-4.51,0.321l-4.519,0.198c-1.508,0.065-3.014,0.036-4.521,0.059
			c-1.508-0.001-3.019,0.053-4.523-0.014l-4.523-0.125c-1.509-0.031-3.011-0.157-4.516-0.261l-4.514-0.318
			c-1.503-0.121-2.999-0.307-4.499-0.457l-4.498-0.494l-2.958-0.326l0.902-2.98l0.717-2.368l0.68-2.4
			c0.441-1.604,0.847-3.211,1.218-4.816c0.188-0.804,0.358-1.605,0.517-2.405c0.155-0.798,0.308-1.599,0.422-2.386
			c0.126-0.794,0.22-1.562,0.305-2.328l0.067-1.102l-0.013-0.997l1.602,2.235c-0.132-0.053-0.448-0.168-0.702-0.248
			c-0.261-0.093-0.552-0.168-0.83-0.251c-0.567-0.153-1.145-0.31-1.737-0.425c-1.176-0.261-2.39-0.436-3.607-0.571
			c-2.44-0.275-4.922-0.29-7.407-0.219c-4.977,0.231-9.951,1.141-14.809,2.546c-9.796,2.777-19.197,7.433-29.039,11.216
			c-9.81,3.89-20.09,6.649-30.471,8.371c-1.293,0.249-2.6,0.408-3.903,0.59c-1.31,0.171-2.591,0.377-3.924,0.519
			c-2.607,0.237-5.181,0.604-7.818,0.771c-5.249,0.493-10.484,0.613-15.731,0.774c-5.245,0.076-10.493,0.054-15.734-0.188
			c-5.245-0.165-10.481-0.56-15.708-1.072c-5.232-0.476-10.447-1.199-15.641-2.126c-5.191-0.953-10.362-2.129-15.432-4.034
			c-2.411-0.89-4.968-1.99-7.348-3.147c-2.395-1.192-4.765-2.455-7.031-3.919c-2.272-1.451-4.48-3.027-6.558-4.836
			c-1.032-0.916-2.05-1.859-2.99-2.945c-0.952-1.065-1.848-2.229-2.578-3.82l-0.258-0.617c-0.073-0.245-0.133-0.521-0.188-0.785
			l-0.077-0.401c-0.012-0.135-0.023,0.02-0.034-0.353l-0.003-0.123l-0.01-0.49c0.026-0.448,0.093-1.201,0.245-1.611
			c0.123-0.492,0.322-0.937,0.536-1.373c0.921-1.693,2.193-2.763,3.337-3.636c1.165-0.875,2.305-1.594,3.37-2.296l1.621-1.086
			l0.421-0.277l0.599-0.346c0.431-0.223,0.893-0.447,1.572-0.601c0.315-0.075,0.718-0.1,1.064-0.104
			c0.313,0.021,0.725,0.054,0.947,0.118c0.265,0.059,0.527,0.126,0.694,0.184l0.53,0.17c0.63,0.214,1.135,0.365,1.695,0.504
			c1.101,0.27,2.27,0.445,3.484,0.546c0.599,0.065,1.217,0.092,1.833,0.122l0.462,0.023c0.153,0.004-0.08,0.004-0.01,0.001
			l0.123-0.005l0.245-0.009l0.979-0.037l1.959-0.073l1.902-0.138l3.795-0.282l3.88-0.328l7.792-0.688l15.597-1.467l31.205-3.033
			l31.234-2.825l31.266-2.553l15.65-1.107c5.218-0.347,10.444-0.624,15.668-0.924c10.454-0.523,20.913-0.968,31.402-1.183
			l3.936-0.062c0.665-0.006,1.289-0.029,1.988-0.021l1.961,0.03c2.613,0.037,5.223,0.062,7.864,0.213
			c5.273,0.15,10.491,0.736,15.705,1.35c5.204,0.703,10.367,1.698,15.441,3.036C267.891,384.371,272.918,385.987,277.495,388.706z
			 M277.169,389.2c-4.462-2.576-9.518-4.151-14.538-5.43c-5.054-1.248-10.217-2.005-15.389-2.553l-3.892-0.3l-1.946-0.133
			l-1.951-0.062l-3.898-0.126l-3.892,0.011c-2.582-0.034-5.199,0.128-7.812,0.24l-1.959,0.088c-0.607,0.029-1.287,0.094-1.928,0.139
			l-3.896,0.296c-10.39,0.829-20.781,1.933-31.169,3.033l-15.588,1.6l-15.596,1.539l-31.208,2.956l-31.228,2.819l-31.26,2.581
			l-15.645,1.232l-7.836,0.572l-3.937,0.272l-4.028,0.232l-2.01,0.11l-1.959,0.031l-0.98,0.016l-0.245,0.004l-0.123,0.002
			c-0.012,0.003-0.327-0.009-0.255-0.009l-0.517-0.037c-0.688-0.049-1.374-0.095-2.073-0.184c-1.387-0.148-2.806-0.386-4.236-0.77
			c-0.705-0.188-1.446-0.435-2.048-0.654l-0.4-0.14c-0.141-0.052-0.196-0.06-0.25-0.076c-0.112-0.026,0.038-0.005,0.07-0.025
			c0.04-0.014-0.1,0.028-0.249,0.104l-0.255,0.134l-0.403,0.253l-1.659,1.06c-1.136,0.705-2.23,1.348-3.175,2.016
			c-0.956,0.658-1.7,1.363-2.052,1.968c-0.073,0.15-0.158,0.296-0.191,0.441l-0.043,0.107c0,0.02,0,0.036-0.005,0.053
			c-0.004,0.057-0.038,0.016-0.047,0.152l-0.005,0.489l-0.001,0.123c-0.016-0.29,0.005-0.058,0.005-0.112l0.023,0.078
			c0.015,0.056,0.01,0.103,0.02,0.172l0.12,0.287c0.33,0.793,0.966,1.791,1.738,2.682c0.742,0.914,1.603,1.796,2.492,2.648
			c1.799,1.7,3.793,3.254,5.869,4.699c2.068,1.461,4.27,2.75,6.504,3.978c2.276,1.216,4.481,2.283,6.934,3.306
			c4.649,1.969,9.677,3.295,14.722,4.407c5.061,1.088,10.183,1.983,15.342,2.635c10.321,1.289,20.75,1.822,31.161,1.684
			c2.602-0.074,5.207-0.097,7.803-0.287l3.897-0.231l3.877-0.34c2.579-0.193,5.184-0.555,7.772-0.881
			c1.261-0.168,2.557-0.41,3.833-0.611c1.28-0.213,2.564-0.403,3.832-0.683c10.201-1.952,20.066-5.219,29.538-9.412
			c9.499-4.117,18.722-9.2,28.946-12.589c5.129-1.679,10.49-2.752,15.95-3.145c2.734-0.167,5.491-0.114,8.249,0.168
			c1.379,0.147,2.757,0.34,4.135,0.638c0.689,0.132,1.378,0.312,2.071,0.496c0.349,0.102,0.69,0.19,1.047,0.312
			c0.368,0.119,0.669,0.218,1.144,0.409l1.555,0.628l0.047,1.607c0.015,0.513,0.037,1.04,0.032,1.54l-0.08,1.434
			c-0.097,0.916-0.196,1.83-0.356,2.704c-0.144,0.886-0.321,1.746-0.502,2.606c-0.184,0.857-0.379,1.708-0.589,2.551
			c-0.417,1.686-0.866,3.354-1.349,5.007l-0.742,2.474l-0.793,2.479l-2.056-3.306l4.389,0.605c1.464,0.2,2.924,0.436,4.391,0.606
			l4.406,0.47c1.469,0.154,2.938,0.332,4.411,0.415l4.419,0.353c1.474,0.143,2.95,0.166,4.426,0.244
			c1.477,0.055,2.954,0.161,4.432,0.173l4.435,0.062c1.48,0.044,2.956-0.035,4.436-0.047c1.48-0.017,2.96-0.055,4.436-0.149
			c1.476-0.09,2.959-0.12,4.43-0.27c1.473-0.138,2.954-0.224,4.422-0.403c1.466-0.188,2.945-0.313,4.405-0.551
			c1.463-0.219,2.931-0.423,4.38-0.715c1.459-0.257,2.9-0.583,4.341-0.911c1.426-0.35,2.881-0.717,4.237-1.168l0.862,0.255
			c-0.056-0.065-0.021-0.024-0.043-0.036c-0.012-0.005-0.031-0.012-0.047-0.002c-0.022-0.001,0.043,0.001,0.137-0.073
			c0.188-0.147,0.422-0.409,0.606-0.725c0.382-0.617,0.714-1.339,0.987-2.061c0.283-0.742,0.535-1.508,0.718-2.27
			c0.187-0.772,0.443-1.521,0.574-2.315l0.456-2.361c0.145-0.789,0.243-1.589,0.367-2.384c0.261-1.588,0.405-3.194,0.6-4.794
			c0.142-1.604,0.294-3.212,0.345-4.82c0.025-0.801,0.092-1.619,0.074-2.399c-0.01-0.79,0.037-1.571-0.081-2.382l-0.058-0.566
			c-0.074-0.16-0.097-0.325-0.204-0.484c-0.173-0.324-0.404-0.636-0.654-0.934c-0.5-0.599-1.084-1.146-1.685-1.67
			C279.799,391.053,278.498,390.092,277.169,389.2z"/>
	</g>
	<g>
		<path d="M277.91,391.246c0,0,5.551-12.091,3.256-31.429c-2.293-19.336-63.012-50.893-75.895-49.974
			c-12.885,0.915-63.078,11.514-72.952,20.015c-9.873,8.503-26.012,19.789-41.52,28.698c-15.51,8.904-15.51,8.904-41.04,13.845
			c-25.526,4.937-28.634,6.722-32.124,13.988c-3.489,7.269-2.323,11.865-2.323,11.865s10.466,20.316,55.049,21.037
			c44.59,0.725,74.65-8.438,97.527-16.305c22.875-7.871,29.379-7.555,55.324-7.061C249.155,396.417,267.8,396.65,277.91,391.246z"/>
		<path d="M277.671,391.028c1.189-3.313,1.869-6.805,2.316-10.288l0.334-2.641l0.14-2.66l0.144-2.653l-0.057-2.658
			c-0.041-1.771-0.022-3.538-0.274-5.297l-0.279-2.637l-0.14-1.316l-0.069-0.658l-0.016-0.164c0.005,0.023-0.022-0.17,0.009,0.033
			l-0.02-0.082l-0.076-0.328l-0.306-1.313c-0.129-0.393-0.294-0.712-0.431-1.071c-0.223-0.688-0.722-1.44-1.092-2.163
			c-0.421-0.721-0.939-1.407-1.399-2.111l-1.612-2.006c-2.255-2.616-4.856-4.989-7.548-7.25c-2.708-2.248-5.526-4.385-8.447-6.391
			c-5.844-4.005-11.906-7.734-18.159-11.111c-6.251-3.373-12.641-6.513-19.159-9.22c-3.261-1.332-6.565-2.562-9.863-3.497
			c-1.63-0.434-3.312-0.856-4.802-0.985c-0.399-0.069-0.711-0.05-1.036-0.056c-0.167,0.004-0.318-0.024-0.498,0.001l-0.672,0.057
			c-0.907,0.081-1.672,0.163-2.569,0.279c-3.479,0.437-6.997,1.03-10.5,1.662c-3.509,0.616-7.02,1.269-10.52,1.978
			c-6.991,1.451-13.998,2.888-20.914,4.653c-6.9,1.769-13.812,3.672-20.325,6.307c-1.623,0.662-3.197,1.403-4.665,2.237
			c-0.35,0.22-0.723,0.428-1.058,0.656l-1.014,0.749l-2.137,1.643l-4.274,3.285l-2.14,1.64l-2.223,1.561
			c-2.967,2.07-5.893,4.204-8.888,6.215c-3.039,1.94-6.033,3.942-9.049,5.914c-1.487,1.018-3.059,1.903-4.599,2.839l-4.632,2.784
			c-1.544,0.931-3.064,1.895-4.627,2.797l-4.677,2.683c-1.6,0.852-3.15,1.775-4.793,2.567l-2.46,1.202
			c-0.815,0.411-1.693,0.695-2.538,1.049c-3.408,1.378-6.959,2.234-10.47,3.092c-7.032,1.657-14.074,3.068-21.082,4.619
			c-3.491,0.77-6.977,1.587-10.391,2.527c-3.384,0.959-6.811,2.005-9.569,3.645c-1.378,0.822-2.464,1.812-3.322,3.074
			c-0.431,0.632-0.822,1.329-1.193,2.072l-0.272,0.571l-0.136,0.285l-0.068,0.143c-0.021,0.042,0.058-0.124,0.01-0.017l-0.032,0.078
			l-0.5,1.252l-0.498,1.249l-0.318,1.132c-0.249,0.731-0.391,1.531-0.542,2.325c-0.097,0.396-0.11,0.788-0.154,1.181
			c-0.041,0.394-0.09,0.787-0.076,1.167c-0.003,0.383-0.019,0.771,0.024,1.126c0.019,0.174,0.016,0.38,0.049,0.526l0.062,0.371
			l-0.188-0.496c0.205,0.346,0.628,0.935,0.995,1.409c0.409,0.489,0.812,0.988,1.258,1.461c0.465,0.461,0.896,0.947,1.383,1.391
			l1.475,1.32c0.513,0.421,1.048,0.819,1.569,1.231c0.512,0.423,1.061,0.804,1.626,1.165l1.67,1.114
			c0.576,0.347,1.172,0.665,1.756,0.999c4.706,2.632,9.862,4.507,15.144,5.936l4.012,0.926l1.002,0.232l1.021,0.163l2.041,0.329
			c1.365,0.195,2.709,0.495,4.09,0.606l4.129,0.399l2.063,0.2l2.08,0.075l4.159,0.152l1.039,0.038l0.44,0.019l0.531-0.01
			l2.125-0.039l4.251-0.078l8.502-0.156c2.804-0.138,5.566-0.393,8.35-0.582l4.168-0.29c1.389-0.093,2.779-0.158,4.168-0.359
			l8.338-1.009c1.387-0.183,2.784-0.303,4.164-0.536l4.136-0.722c2.753-0.499,5.52-0.93,8.269-1.45
			c5.467-1.204,10.964-2.286,16.364-3.812l4.067-1.068c1.356-0.357,2.693-0.795,4.041-1.189l4.036-1.212
			c1.349-0.389,2.695-0.793,4.034-1.237l8.102-2.599c2.724-0.834,5.362-1.741,8.156-2.514c2.816-0.732,5.589-1.604,8.468-2.108
			c1.434-0.267,2.843-0.629,4.294-0.813l4.346-0.562c5.806-0.539,11.598-0.631,17.281-0.435c5.71,0.136,11.355,0.417,17.027,0.62
			c5.659,0.224,11.314,0.461,16.963,0.562c5.646,0.107,11.293,0.156,16.901-0.248c2.805-0.188,5.599-0.507,8.345-1.05
			C272.481,392.932,275.174,392.22,277.671,391.028z M278.05,391.507c-2.492,1.447-5.231,2.411-8,3.153
			c-2.777,0.73-5.605,1.233-8.44,1.602c-5.673,0.752-11.376,1.099-17.063,1.287c-5.69,0.176-11.372,0.246-17.049,0.274
			c-5.664,0.032-11.354-0.014-16.981,0.087c-5.65,0.028-11.213,0.282-16.676,0.976l-4.067,0.662
			c-1.355,0.215-2.688,0.609-4.031,0.903c-2.696,0.561-5.326,1.441-7.979,2.2c-2.652,0.797-5.357,1.797-8.033,2.686l-8.03,2.787
			c-2.68,0.964-5.435,1.768-8.155,2.64c-1.367,0.419-2.721,0.881-4.101,1.264l-4.143,1.145c-5.497,1.628-11.115,2.814-16.704,4.117
			c-2.809,0.585-5.648,1.022-8.474,1.523l-4.243,0.73c-1.416,0.236-2.847,0.358-4.269,0.543l-8.548,1.018
			c-1.418,0.201-2.862,0.27-4.301,0.363l-4.317,0.265c-2.874,0.15-5.765,0.364-8.623,0.459l-8.503,0.023l-4.252,0.012l-2.126,0.006
			l-0.531,0.002l-0.622-0.027l-1.084-0.057l-4.336-0.227l-2.167-0.114l-2.165-0.241l-4.328-0.488
			c-1.443-0.142-2.873-0.477-4.309-0.706l-2.151-0.383l-1.075-0.191l-1.065-0.263l-4.257-1.054
			c-5.631-1.604-11.174-3.726-16.299-6.76c-0.638-0.384-1.284-0.751-1.913-1.149l-1.84-1.285c-0.619-0.418-1.223-0.859-1.797-1.351
			c-0.581-0.479-1.171-0.942-1.742-1.435l-1.647-1.565c-0.542-0.529-1.04-1.118-1.56-1.676c-0.507-0.576-0.979-1.194-1.456-1.811
			c-0.47-0.668-0.88-1.229-1.363-2.125l-0.131-0.243l-0.057-0.253c-0.098-0.436-0.107-0.658-0.148-0.959
			c-0.044-0.297-0.035-0.543-0.054-0.816c-0.039-0.542-0.007-1.052,0.015-1.566c0.006-0.521,0.079-1.018,0.146-1.516
			c0.071-0.498,0.117-1.005,0.244-1.481c0.215-0.966,0.422-1.93,0.781-2.894l0.493-1.438l0.551-1.232l0.552-1.229l0.112-0.246
			l0.083-0.158l0.167-0.316l0.334-0.632c0.467-0.847,0.988-1.699,1.606-2.526c1.228-1.671,2.933-3.074,4.684-4.009
			c1.756-0.939,3.546-1.651,5.325-2.182c1.78-0.565,3.558-1.013,5.333-1.431c3.553-0.813,7.093-1.515,10.646-2.166
			c7.077-1.3,14.177-2.46,21.189-3.85c3.481-0.767,6.958-1.539,10.243-2.791c3.328-1.144,6.45-2.872,9.588-4.564l4.691-2.648
			c1.554-0.883,3.076-1.834,4.615-2.747l4.588-2.797c1.522-0.943,3.075-1.838,4.545-2.864c2.971-2.002,5.963-3.974,8.911-6.007
			c2.914-2.074,5.738-4.254,8.609-6.372l2.14-1.604l2.063-1.732l4.123-3.473l2.061-1.736l1.116-0.902
			c0.394-0.295,0.796-0.546,1.195-0.819c1.612-1.016,3.261-1.878,4.932-2.649c6.69-3.062,13.593-5.275,20.521-7.376
			c6.94-2.049,13.92-3.942,20.978-5.511c7.059-1.603,14.122-3.033,21.399-4.001c0.883-0.12,1.905-0.234,2.785-0.315l0.671-0.06
			c0.267-0.034,0.566-0.016,0.849-0.022c0.573-0.002,1.161-0.005,1.65,0.073c2.095,0.201,3.901,0.714,5.734,1.213
			c3.605,1.067,7.029,2.392,10.403,3.812c6.726,2.872,13.22,6.149,19.515,9.782c6.293,3.626,12.449,7.507,18.284,11.877
			c2.927,2.171,5.761,4.482,8.494,6.924c2.729,2.447,5.345,5.058,7.643,8.01l1.655,2.278c0.488,0.82,1.017,1.602,1.461,2.453
			c0.409,0.894,0.888,1.67,1.194,2.708c0.16,0.487,0.351,0.997,0.472,1.465l0.241,1.325l0.061,0.332l0.016,0.082
			c0.041,0.259,0.014,0.121,0.024,0.201l0.009,0.171l0.031,0.686l0.063,1.371l0.124,2.736c0.146,1.82,0.021,3.648-0.046,5.471
			l-0.108,2.729l-0.33,2.716l-0.34,2.707l-0.535,2.677c-0.697,3.564-1.746,7.065-3.261,10.373l-0.042,0.092L278.05,391.507z"/>
	</g>
	
		<linearGradient id="SVGID_3_" gradientUnits="userSpaceOnUse" x1="170.3809" y1="366.4229" x2="294.7001" y2="367.179" gradientTransform="matrix(-0.9973 0.0737 0.0737 0.9973 266.0195 27.582)">
		<stop  offset="0" style="stop-color:#5A5A5C"/>
		<stop  offset="1" style="stop-color:#959DA5"/>
	</linearGradient>
	<path fill="url(#SVGID_3_)" d="M12.177,399.651c0,0,11.066,17.54,38.026,20.689s72.739-1.67,72.739-1.67
		s-44.304,8.227-74.947,4.559C17.353,419.562,8.735,402.238,12.177,399.651z"/>
	<g>
		
			<linearGradient id="SVGID_4_" gradientUnits="userSpaceOnUse" x1="52.0347" y1="34.8267" x2="-3.8272" y2="-372.6368" gradientTransform="matrix(-0.9973 0.0737 0.0737 0.9973 266.0195 27.582)">
			<stop  offset="0" style="stop-color:#4A5964"/>
			<stop  offset="1" style="stop-color:#6B777E"/>
		</linearGradient>
		<path fill="url(#SVGID_4_)" d="M137.768,307.215c3.275-1.883,6.834-5.878,8.066-7.328c-1.319-3.146-6.754-16.217-8.115-20.951
			c-1.162-4.018-0.714-8.48,1.319-13.254c0.89-2.421,4.092-39.656,2.923-62.163c-1.191-22.993-6.676-152.359-5.449-173.118
			c0.329-5.581-0.035-17.011-0.734-31.052h134.217c1.252,0,2.343-0.234,3.288-0.63c-1.657,12.818-3.133,27.332-3.054,38.008
			c0.177,23.467,1.425,84.188,2.567,91.721c1.091,7.198-5.51,18.74-6.779,20.873c0.504,7.828,8.741,134.671,12.05,149.902
			c3.421,15.761,6.743,37.065,6.777,37.275l0.019,0.126l-0.007,0.125c-0.15,2.599-1.615,25.496-6.57,29.812
			c-0.973,0.848-2.137,1.311-3.559,1.41c-2.418,0.173-5.392-0.744-9.158-1.905c-5.388-1.654-12.761-3.92-22.641-4.272
			c-19.908-0.709-39.666-3.564-61.571-6.944c-21.474-3.314-51.095-20.501-52.348-21.23l-0.751-0.446l0.168-0.832
			C129.19,328.603,133.236,309.822,137.768,307.215z"/>
		<path d="M137.608,306.966l1.148-0.744c0.367-0.261,0.71-0.54,1.067-0.81c0.357-0.265,0.688-0.581,1.033-0.87
			c0.347-0.288,0.671-0.604,1.001-0.914c0.664-0.614,1.294-1.268,1.916-1.927c0.625-0.656,1.223-1.338,1.812-2.025l-0.052,0.337
			c-2.447-5.816-4.841-11.646-7.027-17.585l-0.793-2.243l-0.397-1.122l-0.289-1.167c-0.323-1.578-0.495-3.233-0.354-4.836
			c0.104-1.612,0.394-3.212,0.863-4.751c0.211-0.778,0.486-1.533,0.779-2.281l0.188-0.49l0.125-0.578
			c0.098-0.391,0.113-0.751,0.174-1.127c0.77-6.165,1.083-12.516,1.424-18.785c0.312-6.288,0.525-12.581,0.616-18.871
			c0.084-6.287,0.067-12.578-0.23-18.831c-0.339-6.242-0.809-12.57-1.189-18.854l-1.157-18.895l-1.011-18.896
			c-0.344-6.298-0.64-12.599-0.896-18.901l-0.795-18.906L134.94,93.98c-0.228-6.303-0.363-12.614-0.487-18.923
			c-0.125-6.31-0.292-12.615-0.306-18.938c0.017-6.331-0.149-12.603,0.108-19.007l0.127-4.779l0.151-4.687l0.086-2.363l0.003-2.33
			l-0.006-4.657l-0.198-9.425l-0.301-9.439l-0.057-1.768l1.716,0.023l34.396,0.471l17.198,0.146
			c5.732,0.056,11.466,0.093,17.198,0.099l17.198,0.049l17.198-0.02l17.198-0.047l8.599-0.054l4.3-0.027
			c0.336-0.004,0.767,0.001,1.024-0.012c0.342-0.026,0.757-0.02,1.015-0.083c0.568-0.057,1.202-0.264,1.766-0.478l1.674-0.636
			l-0.197,1.761l-1.061,9.435l-0.842,9.448c-0.238,3.15-0.383,6.301-0.579,9.45c-0.129,3.146-0.107,6.285-0.169,9.425
			c0.129,6.331,0.269,12.679,0.463,19.008l0.595,19.007l0.701,19.002l0.769,18.985c0.136,3.162,0.339,6.303,0.505,9.455
			c0.066,1.599,0.262,3.046,0.382,4.576l0.229,2.458c0.016,0.206,0.043,0.376,0.049,0.611l-0.005,0.758
			c-0.012,0.496-0.006,1.044-0.07,1.461c-0.354,3.593-1.44,6.785-2.655,9.873c-1.262,3.072-2.691,5.995-4.356,8.872l0.368-1.529
			c2.203,31.314,4.5,62.634,7.067,93.911l1.95,23.446l1.056,11.702c0.373,3.892,0.762,7.789,1.204,11.647
			c0.249,1.9,0.434,3.895,0.734,5.719l0.438,2.735l0.544,2.948l2.157,11.577c0.705,3.866,1.468,7.703,2.127,11.593l1.896,11.756
			l0.048,0.294l-0.021,0.31c-0.257,3.999-0.643,7.905-1.169,11.857c-0.543,3.945-1.221,7.879-2.351,11.869
			c-0.601,2.002-1.229,4-2.533,6.133c-0.174,0.269-0.334,0.531-0.563,0.811c-0.212,0.272-0.42,0.542-0.716,0.823l-0.208,0.205
			l-0.105,0.101l-0.053,0.051c-0.098,0.08,0.145-0.108-0.232,0.191l-0.296,0.214l-0.297,0.214l-0.147,0.107
			c-0.052,0.037-0.173,0.103-0.257,0.151c-0.372,0.21-0.757,0.405-1.145,0.582c-0.362,0.143-0.688,0.226-1.037,0.331
			c-0.348,0.115-0.682,0.162-1.017,0.205l-0.504,0.065l-0.251,0.03l-0.063,0.007l-0.188,0.008l-0.092,0.001l-0.73,0.005
			c-0.283-0.007-0.656-0.038-0.979-0.062c-0.354-0.023-0.645-0.066-0.915-0.113l-0.837-0.14c-1.071-0.222-2.102-0.479-3.069-0.769
			c-1.966-0.571-3.771-1.193-5.629-1.771c-3.64-1.144-7.294-2.11-11.004-2.757c-1.852-0.344-3.723-0.564-5.596-0.762l-5.783-0.443
			l-11.658-0.931c-3.898-0.427-7.804-0.939-11.7-1.405c-3.911-0.429-7.761-1.07-11.626-1.651c-3.861-0.597-7.73-1.15-11.573-1.822
			l-11.542-1.937l-0.722-0.121l-0.755-0.15l-1.432-0.296c-0.956-0.212-1.903-0.357-2.87-0.641c-1.928-0.509-3.855-1.007-5.714-1.635
			c-3.762-1.158-7.417-2.59-11.05-4.051c-3.609-1.519-7.183-3.113-10.709-4.796c-3.534-1.668-7.027-3.419-10.476-5.251
			c-3.449-1.835-6.871-3.706-10.225-5.726l-0.248-0.149l0.058-0.279c0.943-4.586,2.058-9.135,3.422-13.618
			c0.691-2.238,1.441-4.463,2.367-6.628c0.464-1.081,0.971-2.149,1.579-3.171c0.297-0.514,0.643-1.005,1.017-1.479
			c0.394-0.46,0.822-0.908,1.376-1.238L137.608,306.966z M137.912,307.474c-0.902,0.569-1.576,1.542-2.152,2.519
			c-0.579,0.989-1.067,2.04-1.516,3.107c-0.894,2.138-1.623,4.35-2.291,6.578c-1.319,4.464-2.396,9.006-3.298,13.575l-0.19-0.429
			c3.359,1.943,6.821,3.736,10.29,5.494c3.472,1.754,6.984,3.426,10.533,5.013c3.533,1.622,7.157,3.032,10.776,4.428
			c3.645,1.322,7.304,2.611,11.031,3.62c1.857,0.558,3.721,0.967,5.577,1.393c0.913,0.238,1.902,0.358,2.854,0.535l1.44,0.246
			l0.683,0.113l0.725,0.096l11.583,1.535c3.858,0.543,7.727,0.936,11.589,1.388c3.863,0.433,7.729,0.928,11.583,1.202
			c3.858,0.313,7.701,0.674,11.563,0.951l11.684,0.489l5.888,0.265c2.006,0.153,4.016,0.335,6.007,0.646
			c3.988,0.581,7.914,1.505,11.741,2.592l5.568,1.597c0.903,0.254,1.77,0.448,2.609,0.609l0.606,0.089
			c0.21,0.034,0.402,0.058,0.535,0.06c0.163,0.007,0.274,0.032,0.479,0.037l0.73-0.019c0.369-0.031,1.24-0.267,1.279-0.33
			c0.022-0.01,0.019,0.014,0.065-0.021l0.146-0.109l0.292-0.219l0.293-0.22c-0.353,0.283-0.092,0.07-0.167,0.129l0.012-0.014
			l0.023-0.029l0.049-0.054c0.065-0.05,0.149-0.171,0.233-0.285c0.086-0.095,0.172-0.253,0.261-0.396
			c0.726-1.204,1.319-2.956,1.787-4.69c0.944-3.528,1.516-7.312,2.003-11.088c0.475-3.778,0.824-7.637,1.037-11.417l0.027,0.603
			l-1.944-11.483c-0.682-3.846-1.479-7.704-2.214-11.556l-2.248-11.561l-0.545-2.839l-0.517-3.075
			c-0.332-2.05-0.502-3.97-0.76-5.961c-0.448-3.942-0.834-7.858-1.205-11.782l-1.047-11.757c-0.666-7.837-1.311-15.668-1.867-23.506
			c-2.27-31.347-4.275-62.69-6.17-94.051l-0.051-0.834l0.419-0.695c1.558-2.585,2.968-5.349,4.159-8.124
			c1.158-2.777,2.142-5.656,2.446-8.387c0.064-0.367,0.043-0.616,0.067-0.911l0.03-0.43c0.003-0.161-0.025-0.385-0.036-0.575
			l-0.17-2.281c-0.108-1.633-0.295-3.337-0.332-4.909c-0.115-3.184-0.268-6.375-0.351-9.551c-0.167-6.352-0.347-12.701-0.42-19.046
			l-0.22-19.038c-0.09-12.688-0.169-25.386-0.141-38.076c0.131-3.199,0.181-6.406,0.382-9.591c0.268-3.176,0.485-6.357,0.795-9.525
			l1.057-9.482l1.218-9.454l1.477,1.125c-0.776,0.286-1.519,0.523-2.381,0.607c-0.448,0.074-0.755,0.054-1.127,0.078
			c-0.459,0.014-0.744,0-1.125,0.001l-4.3-0.027l-8.599-0.054l-17.198-0.047l-17.198-0.02L204.57,0.294
			c-5.732,0.005-11.466,0.043-17.198,0.099L170.174,0.54l-34.396,0.471l1.659-1.744l0.562,9.457l0.452,9.479l0.132,4.8l0.059,2.399
			l-0.024,2.365l-0.029,4.769l0.001,4.678c-0.088,6.206,0.243,12.542,0.393,18.82c0.136,6.288,0.371,12.586,0.594,18.883
			l1.297,37.788l1.186,37.803l0.533,18.905l0.49,18.902c0.158,6.315,0.404,12.578,0.524,18.939
			c0.074,6.354-0.115,12.679-0.417,18.995c-0.306,6.315-0.734,12.618-1.26,18.912c-0.538,6.309-1.128,12.546-2.003,18.886
			c-0.073,0.399-0.114,0.83-0.215,1.203l-0.136,0.575l-0.24,0.612c-0.296,0.715-0.575,1.435-0.791,2.176
			c-0.479,1.468-0.783,2.986-0.912,4.516c-0.164,1.541-0.032,3.059,0.241,4.566l0.256,1.134l0.371,1.114l0.741,2.23
			c2.101,5.919,4.492,11.764,6.894,17.587l0.078,0.188l-0.13,0.15c-0.602,0.693-1.21,1.379-1.847,2.041
			c-0.633,0.663-1.274,1.32-1.953,1.941c-0.336,0.312-0.667,0.632-1.023,0.925c-0.356,0.294-0.688,0.607-1.064,0.886
			c-0.373,0.278-0.74,0.57-1.118,0.835l-1.152,0.737L137.912,307.474z"/>
	</g>
	<g>
		
			<linearGradient id="SVGID_5_" gradientUnits="userSpaceOnUse" x1="52.0425" y1="34.9365" x2="-3.5783" y2="-370.7685" gradientTransform="matrix(-0.9973 0.0737 0.0737 0.9973 266.0195 27.582)">
			<stop  offset="0" style="stop-color:#6B777E"/>
			<stop  offset="1" style="stop-color:#4A5964"/>
		</linearGradient>
		<path fill="url(#SVGID_5_)" d="M138.413,308.295c4.281-2.457,8.87-8.165,8.87-8.165s-6.827-16.193-8.35-21.468
			c-1.522-5.273,0.331-10.248,1.278-12.469c0.944-2.222,4.182-40.121,3.01-62.638c-1.169-22.518-6.666-152.352-5.45-172.888
			c0.334-5.639-0.026-17.033-0.729-31.103l132.951,0c0.702,0,1.345-0.083,1.953-0.216c-1.633,12.685-3.062,26.957-2.982,37.577
			c0.182,24.203,1.449,84.386,2.58,91.838c1.129,7.453-6.812,20.396-6.812,20.396s8.643,134.453,12.098,150.35
			c3.456,15.899,6.766,37.188,6.766,37.188s-1.445,24.857-6.157,28.962c-4.714,4.102-14.3-4.365-34.463-5.078
			c-20.163-0.718-39.938-3.615-61.419-6.928c-21.482-3.312-51.891-21.062-51.891-21.062S134.135,310.755,138.413,308.295z"/>
		<path d="M138.252,308.047l1.263-0.834c0.438-0.263,0.792-0.602,1.188-0.902c0.787-0.593,1.507-1.303,2.249-1.971
			c1.437-1.395,2.807-2.875,4.075-4.417l-0.047,0.335l-3.628-8.743l-1.742-4.402c-0.577-1.469-1.183-2.925-1.699-4.428l-0.805-2.238
			l-0.402-1.12c-0.07-0.199-0.129-0.343-0.207-0.59l-0.13-0.576l-0.26-1.154c-0.09-0.383-0.093-0.812-0.142-1.218
			c-0.112-0.827-0.078-1.636-0.053-2.446c0.103-1.615,0.37-3.224,0.851-4.764c0.226-0.774,0.497-1.535,0.797-2.279l0.111-0.28
			l0.054-0.228l0.136-0.576l0.156-1.105c0.409-3.06,0.632-6.237,0.864-9.364c0.213-3.142,0.405-6.284,0.558-9.43
			c0.313-6.29,0.528-12.584,0.623-18.874c0.088-6.289,0.074-12.581-0.216-18.835c-0.335-6.238-0.809-12.571-1.189-18.855
			l-1.16-18.899l-0.997-18.9c-0.353-6.299-0.616-12.603-0.88-18.906l-0.787-18.91l-0.615-18.919
			c-0.236-6.304-0.338-12.618-0.472-18.928c-0.117-6.311-0.312-12.617-0.289-18.942c0.016-6.332-0.151-12.605,0.105-19.01
			l0.127-4.78l0.065-2.326l0.088-2.363l0.088-2.364l0.003-2.33l-0.004-4.66l-0.194-9.428l-0.301-9.441l-0.055-1.715l1.665,0.022
			l33.729,0.452l16.865,0.141c5.622,0.061,11.243,0.065,16.865,0.082l16.864,0.048l16.865-0.032l16.864-0.056l8.433-0.053
			l4.217-0.027c1.38-0.026,2.916,0.061,3.97-0.217l1.48-0.391l-0.175,1.587l-1.038,9.388l-0.826,9.4
			c-0.224,3.134-0.371,6.269-0.561,9.401c-0.104,3.128-0.1,6.256-0.146,9.373c0.134,6.31,0.274,12.617,0.471,18.917l0.595,18.91
			l0.703,18.905l0.353,9.449l0.406,9.439c0.127,3.149,0.337,6.271,0.501,9.408c0.063,1.596,0.243,3.053,0.37,4.565l0.223,2.452
			l0.05,0.589c0.019,0.189,0.035,0.386,0.022,0.663l-0.056,1.526c-0.196,1.82-0.529,3.52-1.025,5.137
			c-0.47,1.629-1.039,3.193-1.668,4.717c-1.271,3.065-2.684,5.933-4.388,8.831l0.389-1.567c2.201,31.353,4.505,62.712,7.072,94.027
			l1.941,23.477l1.057,11.718c0.386,3.892,0.756,7.802,1.209,11.661l0.349,2.89c0.12,0.954,0.204,1.955,0.368,2.847l0.435,2.747
			c0.169,1.046,0.357,1.954,0.535,2.938l2.161,11.592c0.711,3.869,1.464,7.714,2.139,11.605l1.895,11.746l0.052,0.323l-0.021,0.311
			c-0.273,3.925-0.647,7.748-1.178,11.62c-0.546,3.863-1.193,7.719-2.273,11.638c-0.291,0.985-0.582,1.967-0.982,2.977
			c-0.403,1.011-0.837,2.029-1.563,3.125c-0.212,0.284-0.404,0.558-0.646,0.841l-0.423,0.436l-0.218,0.212
			c0.109-0.087-0.212,0.181-0.19,0.16l-0.036,0.026l-0.071,0.055l-0.287,0.215c-0.026,0.023-0.138,0.096-0.238,0.158l-0.303,0.185
			c-0.433,0.265-0.777,0.393-1.141,0.535c-1.479,0.535-2.854,0.51-4.028,0.407c-2.35-0.261-4.235-0.881-6.104-1.457
			c-1.855-0.588-3.645-1.184-5.438-1.725c-3.578-1.093-7.169-1.976-10.822-2.559c-1.824-0.291-3.66-0.523-5.506-0.665l-5.702-0.437
			l-11.435-0.915l-11.476-1.399c-3.835-0.422-7.61-1.055-11.401-1.626c-3.785-0.594-7.583-1.127-11.351-1.787l-11.321-1.903
			c-0.487-0.088-0.908-0.139-1.449-0.257l-1.404-0.292c-0.938-0.206-1.868-0.361-2.812-0.61c-1.88-0.52-3.792-0.971-5.609-1.597
			l-2.753-0.886l-2.715-0.985c-1.818-0.631-3.586-1.388-5.374-2.089c-3.547-1.473-7.052-3.033-10.521-4.664
			c-3.478-1.613-6.893-3.353-10.29-5.119c-3.397-1.772-6.74-3.633-10.062-5.552l-0.25-0.145l0.061-0.28
			c0.925-4.271,1.985-8.502,3.25-12.685c0.639-2.089,1.33-4.165,2.161-6.195c0.416-1.015,0.867-2.019,1.409-2.986
			c0.272-0.483,0.569-0.956,0.907-1.408c0.352-0.442,0.737-0.878,1.263-1.2L138.252,308.047z M138.557,308.554
			c-0.404,0.255-0.755,0.641-1.073,1.05c-0.311,0.423-0.59,0.875-0.849,1.343c-0.515,0.938-0.951,1.927-1.353,2.929
			c-0.803,2.007-1.473,4.073-2.091,6.153c-1.224,4.163-2.25,8.397-3.134,12.645l-0.19-0.425c3.311,1.883,6.708,3.639,10.119,5.345
			c3.421,1.689,6.857,3.351,10.349,4.885c1.734,0.793,3.497,1.518,5.253,2.258c1.771,0.702,3.541,1.406,5.324,2.069
			c1.794,0.632,3.569,1.32,5.385,1.88l2.708,0.879l2.734,0.775c1.821,0.558,3.65,0.917,5.47,1.358
			c0.913,0.209,1.876,0.337,2.812,0.509l1.413,0.243c0.395,0.076,0.925,0.129,1.381,0.195l11.362,1.507
			c3.784,0.533,7.578,0.921,11.367,1.365c3.79,0.426,7.58,0.913,11.362,1.183l11.34,0.95l11.461,0.48l5.746,0.224
			c1.971,0.097,3.938,0.288,5.896,0.544c3.916,0.511,7.793,1.353,11.558,2.387c1.882,0.511,3.737,1.07,5.542,1.587
			c1.792,0.504,3.589,1.007,5.05,1.128c0.72,0.057,1.31,0.004,1.631-0.14c0.079-0.038,0.184-0.077,0.154-0.072l0.008,0.006
			c0.003,0.004-0.002,0.02,0.062-0.034l0.283-0.22l0.07-0.056l0.036-0.027c0.047-0.036-0.257,0.207-0.126,0.099l0.033-0.045
			c0.022-0.029,0.048-0.055,0.076-0.078l0.219-0.302c0.671-1.063,1.259-2.814,1.708-4.502c0.894-3.472,1.465-7.184,1.919-10.896
			c0.447-3.711,0.811-7.502,1.032-11.207l0.03,0.634l-1.949-11.521c-0.699-3.849-1.487-7.713-2.227-11.569l-2.253-11.574
			c-0.179-0.948-0.396-1.965-0.542-2.858l-0.518-3.071c-0.336-2.042-0.511-3.969-0.765-5.96c-0.458-3.948-0.824-7.866-1.21-11.797
			l-1.047-11.771c-0.662-7.847-1.311-15.688-1.885-23.534c-2.269-31.386-4.271-62.769-6.172-94.169l-0.051-0.838l0.439-0.729
			c1.521-2.526,2.969-5.299,4.151-8.046c1.194-2.744,2.147-5.632,2.468-8.285c0.014-0.279,0.034-0.558,0.063-0.837
			c0.025-0.118,0.014-0.314-0.004-0.518l-0.039-0.59l-0.02-0.295l-0.01-0.147l-0.005-0.074c-0.006-0.051,0.036,0.31,0.018,0.139
			l-0.004-0.039l-0.048-0.616l-0.096-1.232c-0.117-1.633-0.283-3.314-0.317-4.873c-0.112-3.167-0.271-6.344-0.346-9.501
			c-0.175-6.32-0.335-12.637-0.429-18.95l-0.22-18.941c-0.094-12.621-0.161-25.264-0.14-37.878c0.114-3.189,0.184-6.374,0.359-9.547
			c0.261-3.161,0.48-6.326,0.776-9.48l1.041-9.437l1.215-9.406l1.305,1.196c-1.704,0.352-3.011,0.188-4.432,0.214l-4.217-0.027
			l-8.433-0.053l-16.864-0.056l-16.865-0.032l-16.864,0.048c-5.622,0.017-11.244,0.021-16.865,0.082l-16.865,0.141l-33.729,0.452
			l1.61-1.693l0.563,9.459l0.454,9.481l0.131,4.799l0.059,2.399l-0.025,2.365l-0.03,4.769l0.002,4.68
			c-0.085,6.208,0.248,12.545,0.399,18.826c0.175,6.289,0.384,12.59,0.616,18.888l1.326,37.796l1.209,37.811
			c0.389,12.606,0.713,25.211,1.032,37.815c0.157,6.317,0.404,12.578,0.52,18.946c0.064,6.355-0.134,12.682-0.439,19
			c-0.311,6.316-0.741,12.621-1.271,18.917c-0.54,6.307-1.136,12.555-2.027,18.882l-0.209,1.23l-0.147,0.573l-0.037,0.143
			l-0.018,0.071c0,0.013-0.057,0.158-0.046,0.128l-0.112,0.268c-0.304,0.711-0.576,1.434-0.806,2.168
			c-0.49,1.462-0.77,2.982-0.897,4.507c-0.038,0.766-0.086,1.534,0.002,2.276c0.039,0.377,0.022,0.744,0.104,1.132l0.237,1.158
			l0.119,0.579l0.178,0.527l0.376,1.113l0.753,2.228c2.095,5.924,4.519,11.759,6.916,17.584l0.077,0.187l-0.124,0.148
			c-1.305,1.568-2.689,3.046-4.157,4.455c-0.76,0.679-1.484,1.385-2.314,2.005c-0.409,0.307-0.795,0.664-1.227,0.92l-1.268,0.826
			L138.557,308.554z"/>
	</g>
	
		<linearGradient id="SVGID_6_" gradientUnits="userSpaceOnUse" x1="129.0151" y1="312.4053" x2="117.2811" y2="-313.3904" gradientTransform="matrix(-0.9973 0.0737 0.0737 0.9973 266.0195 27.582)">
		<stop  offset="0" style="stop-color:#959DA5"/>
		<stop  offset="0.5516" style="stop-color:#6A767E"/>
		<stop  offset="1" style="stop-color:#4A5964"/>
	</linearGradient>
	<path fill="url(#SVGID_6_)" d="M138.413,308.295c4.281-2.457,8.87-8.165,8.87-8.165s-6.827-16.193-8.35-21.468
		c-1.522-5.273,0.331-10.248,1.278-12.469c0.944-2.222,4.182-40.121,3.01-62.638c-1.169-22.518-6.666-152.352-5.45-172.888
		c0.334-5.639-0.026-17.033-0.729-31.103h22.759c1.147,53.223,4.291,121.291,5.492,122.774c1.645,2.038,25.838,26.145,4.96,16.151
		c-20.877-9.996-19.232-7.96-6.064,8.325c13.17,16.279,6.495,55.502,5.453,80.689c-1.047,25.19-7.994,41.467,3.887,50.669
		c11.877,9.193,2.194,9.175-4.036,15.351c-6.228,6.184-9.409,22.922-8.81,30.768c0.408,5.313,0.249,16.59,0.102,23.317
		c-16.273-6.353-31.119-15.016-31.119-15.016S134.135,310.755,138.413,308.295z"/>
</g>
</svg>
