<?xml version="1.0" encoding="utf-8"?>
<!-- Generator: Adobe Illustrator 16.2.0, SVG Export Plug-In . SVG Version: 6.00 Build 0)  -->
<!DOCTYPE svg PUBLIC "-//W3C//DTD SVG 1.1//EN" "http://www.w3.org/Graphics/SVG/1.1/DTD/svg11.dtd">
<svg version="1.1" id="Layer_1" xmlns="http://www.w3.org/2000/svg" xmlns:xlink="http://www.w3.org/1999/xlink" x="0px" y="0px"
	 width="576px" height="432px" viewBox="0 0 576 432" enable-background="new 0 0 576 432" xml:space="preserve" preserveAspectRatio="none">
<path fill="#002356" d="M167.654,297.648c0,0-0.604,97.811-7.543,125.57h24.138c0,0,2.715-84.58,0-125.57"/>
<path d="M167.654,297.648c0.334,5.25,0.553,10.504,0.741,15.758c0.096,2.627,0.182,5.255,0.239,7.882l0.167,7.884
	c0.117,5.258,0.111,10.512,0.124,15.77l-0.008,7.89l-0.118,7.888c-0.129,5.26-0.217,10.52-0.415,15.784
	c-0.119,2.631-0.208,5.261-0.371,7.894l-0.445,7.898l-0.578,7.908c-0.182,2.637-0.493,5.282-0.761,7.921
	c-0.231,2.635-0.687,5.299-1.034,7.95c-0.098,0.665-0.173,1.324-0.291,1.993l-0.397,2.017l-0.82,4.03l-3.576-4.58
	c8.046-0.033,16.092-0.036,24.138-0.001l-3.686,3.568l2.089-62.688l0.49-15.678l0.257-7.842c0.098-2.614,0.118-5.226,0.204-7.84
	l0.205-7.843l0.105-3.924c0.047-1.31,0.103-2.618,0.1-3.924c0.036-5.228,0.099-10.464,0.235-15.716
	c0.611,5.203,1.149,10.424,1.66,15.652c0.275,2.614,0.401,5.23,0.576,7.848l0.496,7.854c0.165,2.619,0.35,5.24,0.42,7.858
	l0.293,7.859l0.291,7.861c0.084,2.622,0.117,5.242,0.161,7.861l0.257,15.725l-0.017,15.721l-0.04,7.861
	c-0.012,2.62-0.042,5.24-0.085,7.859l-0.141,7.859c-0.042,2.619-0.107,5.24-0.185,7.866l-0.104,3.554l-3.582,0.017
	c-8.046,0.035-16.092,0.032-24.138-0.001l-4.521-0.02l0.945-4.562l0.762-3.683l0.394-1.838c0.119-0.621,0.203-1.265,0.306-1.896
	c0.371-2.547,0.846-5.054,1.113-7.646c0.287-2.579,0.658-5.139,0.925-7.729l0.806-7.774l0.678-7.805
	c0.241-2.6,0.407-5.211,0.606-7.818c0.459-5.211,0.809-10.438,1.2-15.66l2.112-31.39c0.374-5.235,0.672-10.476,1.071-15.714
	C166.861,308.134,167.243,302.893,167.654,297.648z"/>
<linearGradient id="SVGID_1_" gradientUnits="userSpaceOnUse" x1="232.1831" y1="136.7695" x2="437.8807" y2="-68.9282" gradientTransform="matrix(1 0 0 -1 -162 253)">
	<stop  offset="0" style="stop-color:#002356"/>
	<stop  offset="1" style="stop-color:#004E96"/>
</linearGradient>
<path fill="url(#SVGID_1_)" d="M301.766,294.771c0.069,0.361,0.142,0.715,0.213,1.058c-85.038,7.173-256.645,1.721-256.645,1.721
	c0.982-40.688,1.251-157.723,1.251-157.723s205.419,0.603,251.279-2.079l0.006,0.238"/>
<path d="M302.129,294.697l0.268,1.047l0.113,0.447l-0.494,0.062c-5.315,0.66-10.642,1.276-15.973,1.868
	c-5.334,0.523-10.676,0.931-16.018,1.4c-5.343,0.455-10.692,0.705-16.04,1.067c-5.349,0.377-10.701,0.583-16.052,0.817
	c-5.352,0.214-10.705,0.521-16.059,0.625l-16.062,0.435c-5.354,0.138-10.708,0.169-16.062,0.241
	c-5.354,0.078-10.708,0.102-16.062,0.13c-5.354,0.047-10.708-0.001-16.061-0.047c-5.354-0.026-10.706-0.132-16.059-0.248
	l-8.027-0.199l-8.026-0.269c-5.351-0.164-10.7-0.403-16.048-0.633l-32.085-1.459l-16.04-0.674
	c-5.347-0.248-10.693-0.404-16.044-0.598l-1.145-0.041l0.018-1.15l0.149-9.854l0.065-9.855c0.063-6.569,0.053-13.142,0.039-19.713
	c0.021-6.57-0.102-13.144-0.154-19.715l-0.214-19.712c-0.102-6.571-0.148-13.138-0.295-19.711
	c-0.145-6.572-0.24-13.144-0.335-19.715c-0.118-6.572-0.138-13.143-0.208-19.714L43.1,139.819l-0.02-3.451l3.515-0.026L78,136.108
	l15.703-0.142c5.234-0.068,10.469-0.035,15.704-0.053l15.703-0.04c5.234-0.035,10.469,0.039,15.703,0.053l15.703,0.081
	c5.234,0.004,10.468,0.03,15.702,0.088l31.405,0.3l15.702,0.153l15.704,0.22l31.403,0.377l7.854,0.141l7.844,0.003
	c5.23-0.014,10.468,0.02,15.71,0.077l0.412,0.004l-0.007,0.368l-0.005,0.238l-0.744,0.019l-0.018-0.238l0.405,0.373
	c-5.221,0.432-10.448,0.842-15.682,1.203l-7.853,0.566l-7.85,0.427l-15.704,0.747c-5.235,0.242-10.474,0.49-15.709,0.646
	l-15.708,0.51l-15.71,0.444c-5.237,0.166-10.473,0.271-15.709,0.36l-15.709,0.292c-5.236,0.109-10.473,0.186-15.71,0.24
	l-15.709,0.153c-5.236,0.035-10.473,0.13-15.709,0.116l-15.71,0.006c-5.236-0.017-10.473,0.017-15.709-0.05l-15.709-0.143
	l-31.42-0.334l3.495-3.477l-0.276,19.718c-0.124,6.573-0.197,13.146-0.368,19.718c-0.149,6.572-0.297,13.145-0.495,19.717
	c-0.169,6.571-0.439,13.147-0.654,19.719l-0.63,19.718c-0.191,6.572-0.453,13.145-0.571,19.717
	c-0.152,6.571-0.302,13.144-0.377,19.717l-0.143,9.857l-0.059,9.861l-1.126-1.191c5.342,0.137,10.689,0.262,16.037,0.295
	c5.348,0.037,10.695,0.123,16.044,0.084c10.697,0.002,21.396-0.129,32.091-0.255l16.042-0.181l8.02-0.094l8.019-0.025
	c5.345-0.045,10.69-0.086,16.035-0.044c5.345,0.048,10.688-0.04,16.033,0.03c5.344,0.039,10.688,0.085,16.031,0.076l16.031,0.045
	l32.058-0.02l8.016-0.015l8.013-0.072c5.341-0.058,10.69-0.026,16.029-0.153l16.033-0.246c5.34-0.168,10.686-0.31,16.042-0.408
	l-0.381,0.509l-0.162-1.067L302.129,294.697z"/>
<g id="XMLID_1_">
	<g>
		<path fill="#FFFFFF" d="M199.544,389.348c0.133,0.86,0.133,0.86,0.106,1.305l-0.018,0.195c-0.044,0.799-0.16,1.438-1.215,3.096
			c-0.195,0.293-0.479,0.64-0.807,1.021c-1.766,1.863-3.655,2.521-5.545,2.795c-2.067,0.302-5.252,0.019-5.252,0.019
			c-0.55-0.089-1.349-0.179-2.209-0.248c-2.209-0.213-4.631-0.284-5.288-2.68c-0.647-2.396-0.071-5.402-0.071-5.402
			s0.106-1.846,2.413-1.987c2.289-0.169,6.316-0.302,9.235-0.94c2.928-0.639,4.95-1.543,6.299-1.401
			c0.168,0.036,0.319,0.054,0.453,0.062c0.204,0.09,0.399,0.195,0.514,0.346c0.08,0.09,0.151,0.16,0.24,0.25
			c0.168,0.149,0.311,0.301,0.461,0.566c0.222,0.417,0.39,1.029,0.523,1.916C199.455,388.734,199.5,389.072,199.544,389.348z"/>
		<path fill="#FFFFFF" d="M188.57,374.471c2.484-0.816,5.829-2.379,7.931-2.022c0.55,0.239,1.171,0.585,1.481,1.011
			c0.151,0.195,0.328,0.462,0.497,0.771c0.47,0.834,0.754,1.862,0.949,3.441c0.284,2.271,0.266,3.719-0.63,4.782l-0.178,0.229
			c-0.239,0.275-0.443,0.551-0.647,0.781c-0.541,0.407-1.224,0.789-2.023,1.012c-2.084,0.549-7.603,0.541-10.965,1.207
			c-3.345,0.655-5.589,1.596-7.497,1.383c-1.898-0.221-3.043-1.072-3.824-3.406c-0.754-2.333,0.275-4.249,2.059-5.456
			c1.801-1.206,4.134-1.534,6.529-1.951C184.417,375.871,185.864,375.384,188.57,374.471z"/>
		<path fill="#FFFFFF" d="M194.656,350.721c0.709,1.686,1.384,3.256,0.186,5.029c-0.319,0.506-0.621,0.949-0.86,1.322
			c-0.355,0.354-0.949,0.852-1.695,1.072c-0.709,0.188-1.339,0.275-1.756,0.328c-0.133-0.229-0.266-0.451-0.417-0.69
			c-1.5-2.388-2.67-5.421-3.22-6.956c0.177-0.115,0.381-0.283,0.639-0.523c1.153-1.126,4.045-4.01,6.441-0.859
			c0.115,0.178,0.23,0.354,0.337,0.55c0.106,0.194,0.213,0.391,0.284,0.577L194.656,350.721z"/>
		<path fill="#FFFFFF" d="M190.459,367.15c1.277-0.408,1.907-1.153,2.2-1.873v-0.008c0.168-0.418,0.222-0.826,0.239-1.146
			c0.106-1.446-0.55-2.741-1.65-4.524c0.577-0.213,1.943-0.595,3.238-0.213c1.012,0.436,2.245,1.092,2.742,1.891
			c0.86,1.445,1.57,3.469,1.81,4.631c0.151,0.79-1.277,3.033-2.679,4.826c-0.639,0.55-1.517,1.152-2.52,1.42
			c-2.067,0.559-8.703,1.898-12.749,3.087c-4.028,1.198-6.875,2.528-8.393-0.507c-1.526-3.033-1.126-6.076,1.535-8.295
			c2.289-1.906,5.279-3.237,9.803-1.037c0.16,0.098,0.328,0.222,0.47,0.311c0.364,0.249,0.63,0.417,0.79,0.523
			C187.266,367.381,188.525,367.807,190.459,367.15z"/>
		<path d="M198.399,385.771c-0.089-0.088-0.16-0.16-0.24-0.248c-0.115-0.15-0.311-0.258-0.514-0.347
			c-0.133-0.009-0.284-0.026-0.453-0.062c-1.349-0.143-3.371,0.764-6.299,1.402c-2.919,0.639-6.947,0.771-9.235,0.939
			c-2.307,0.143-2.413,1.986-2.413,1.986s-0.577,3.008,0.071,5.402c0.657,2.396,3.079,2.468,5.288,2.681
			c0.86,0.069,1.659,0.158,2.209,0.248c0,0,3.185,0.283,5.252-0.019c1.89-0.274,3.779-0.932,5.545-2.795
			c0.328-0.381,0.612-0.729,0.807-1.021c1.056-1.657,1.171-2.297,1.215-3.096l0.018-0.195c0.026-0.442,0.026-0.442-0.106-1.304
			c-0.044-0.274-0.089-0.612-0.16-1.092c-0.133-0.887-0.302-1.499-0.523-1.916C198.71,386.073,198.568,385.923,198.399,385.771z
			 M197.974,383.466c0.204-0.231,0.408-0.506,0.647-0.78l0.178-0.23c0.896-1.064,0.914-2.512,0.63-4.782
			c-0.195-1.579-0.479-2.608-0.949-3.44c-0.169-0.312-0.346-0.578-0.497-0.772c-0.311-0.426-0.932-0.771-1.481-1.011
			c-2.103-0.355-5.447,1.205-7.931,2.021c-2.706,0.914-4.152,1.401-6.317,1.783c-2.396,0.417-4.729,0.745-6.529,1.951
			c-1.783,1.207-2.812,3.123-2.059,5.456c0.781,2.334,1.925,3.187,3.824,3.407c1.908,0.213,4.152-0.729,7.497-1.385
			c3.362-0.666,8.881-0.656,10.965-1.207C196.75,384.255,197.433,383.873,197.974,383.466z M199.038,365.908
			c-0.239-1.162-0.949-3.186-1.81-4.631c-0.497-0.799-1.73-1.455-2.742-1.891c-1.295-0.382-2.661,0-3.238,0.213
			c1.1,1.783,1.756,3.078,1.65,4.524c-0.018,0.319-0.071,0.728-0.239,1.146v0.008c-0.293,0.72-0.923,1.465-2.2,1.873
			c-1.934,0.656-3.194,0.229-5.164-0.914c-0.16-0.106-0.426-0.274-0.79-0.523c-0.142-0.089-0.311-0.213-0.47-0.311
			c-4.524-2.2-7.514-0.869-9.803,1.037c-2.661,2.219-3.061,5.262-1.535,8.295c1.517,3.035,4.365,1.705,8.393,0.507
			c4.045-1.188,10.682-2.528,12.749-3.087c1.002-0.268,1.881-0.87,2.52-1.42C197.761,368.941,199.189,366.698,199.038,365.908z
			 M197.929,371.055c0.053,0.203,0.098,0.398,0.115,0.594c0.435,0.267,0.834,0.596,1.118,0.977c0.16,0.23,0.373,0.541,0.577,0.914
			c0.55,1.012,0.896,2.2,1.1,3.957c0.329,2.6,0.284,4.4-0.922,5.882l-0.177,0.213c-0.116,0.15-0.24,0.283-0.346,0.417
			c0,0.266,0.018,0.516,0.018,0.754c0.195,0.195,0.461,0.452,0.701,0.896c0.311,0.56,0.532,1.322,0.701,2.396
			c0.053,0.471,0.115,0.815,0.142,1.082c0.151,0.896,0.168,1.012,0.124,1.605l-0.018,0.195c-0.062,1.125-0.311,2.004-1.438,3.778
			c-1.242,1.916-4.374,4.597-7.452,6.36c-1.002,0.586-2.28,1.34-3.646,2.146c-0.284,0.159-0.55,0.312-0.834,0.471
			c0.089-0.684,0.018-1.41-0.24-2.05c0.062-1.499-0.728-2.944-2.688-3.292c-2.617-0.461-5.518-1.1-5.917-4.267
			c-0.239-1.872-0.497-3.416-1.428-5.084c-0.683-1.188-1.89-1.534-2.511-2.511c-1.668-2.617-2.147-4.284-2.014-7.514
			c0.035-0.551-0.071-1.057-0.249-1.481c-0.08-0.79-0.355-1.562-0.86-2.165c-0.062-0.115-0.142-0.248-0.231-0.354
			c-0.053-0.756-0.292-1.519-0.736-2.113c0.027-0.193,0.053-0.381,0.089-0.575c0.249-0.479,0.399-1.029,0.417-1.687
			c0-0.187,0.026-0.381,0.026-0.595c0.399-0.976,0.79-1.979,1.322-2.909c0.586-1.029,1.5-1.668,2.396-2.412
			c1.65-1.367,1.207-3.824,0-5.244c-1.011-1.207-2.173-2.297-3.779-2.572c-0.683-0.124-1.384-0.105-2.049,0.035l-0.124-0.532
			c1.686-0.381,2.927-1.96,3.584-2.989c0.284-0.604,0.479-1.109,0.559-1.277c0.044-0.194,0.248-0.328,0.452-0.283
			c0.213,0.044,0.346,0.266,0.302,0.479c-0.089,0.373-0.133,0.746-0.133,1.102c0.178,1.668,1.1,3.565,2.546,5.394
			c1.562,1.979,4.4,3.753,5.021,4.136c1.251,0.629,2.608,1.533,3.495,2.129c0.346,0.238,0.612,0.416,0.746,0.496
			c2.005,1.172,3.034,1.366,4.533,0.86c2.369-0.79,1.872-2.839,1.863-2.929c-0.018-0.034-0.018-0.062-0.018-0.098
			c0,0-0.106-1.32-3.007-5.438c-1.836-2.617-3.3-6.139-4.232-8.729c-1.073-2.423-2.262-4.437-3.247-5.519
			c-1.295-1.455-3.593-1.216-3.593-1.216s-6.157,0.71-15.623,2.199c-9.439,1.5-12.802,6.469-13.795,10.603
			c-1.011,4.116-2.724,12.074-6.396,22.437c-3.655,10.371-3.611,11.524-2.041,13.041c1.579,1.519,0.124,1.287-2.032,0.08
			c-2.156-1.188-1.73-0.684-5.625-4.791c-3.912-4.106-5.873-2.271-10.823-0.728c-4.968,1.544-16.883,6.929-22.605,9.786
			c-1.801,0.904-48.945,19.047-95.495,42.264C-41.72,459.96-86.424,487.63-86.424,487.63c0.24-0.088,37.403-28.371,83.03-53.043
			c37.899-20.476,85.665-38.131,86.108-38.308c7.036-2.752,26.251-10.291,33.491-13.344c8.925-3.744,12.252-5.438,17.122-13.433
			c5.323-8.737,9.439-18.471,10.256-20.591c1.535-4.036,4.613-6.201,9.165-6.458c3.123-0.179,7.718-0.657,12.181-1.101
			c2.333-0.239,4.746-0.488,6.858-0.684l6.05-0.568c0.355-0.025,3.496-0.238,5.163,1.562c0.453,0.479,0.87,1.072,1.242,1.738
			c0.213,0.373,0.373,0.736,0.506,1.048c1.011-0.151,2.52-0.312,3.602-0.179c1.739,0.24,4.418,1.987,4.942,2.352
			c0.026,0.009,0.044,0.027,0.053,0.045c0.133,0.098,1.339,1.038,2.218,2.626c0.133,0.239,0.249,0.479,0.355,0.728l0.062,0.15
			c0.754,1.774,1.694,3.957,0.062,6.379c-0.39,0.596-0.719,1.1-1.002,1.518c1.224,0.506,2.724,1.322,3.424,2.484
			c0.071,0.123,0.151,0.258,0.222,0.391c0.834,1.517,1.517,3.494,1.757,4.666c0.115,0.63,0.062,1.543-1.357,3.762
			C198.754,369.909,198.355,370.486,197.929,371.055z M193.973,349.441c-2.396-3.148-5.288-0.266-6.441,0.86
			c-0.257,0.24-0.461,0.408-0.639,0.523c0.55,1.534,1.721,4.569,3.22,6.956c0.151,0.238,0.284,0.461,0.417,0.691
			c0.417-0.054,1.047-0.143,1.756-0.328c0.746-0.223,1.34-0.72,1.695-1.074c0.239-0.372,0.541-0.815,0.86-1.321
			c1.198-1.774,0.523-3.345-0.186-5.03l-0.062-0.15c-0.071-0.187-0.177-0.381-0.284-0.576
			C194.203,349.798,194.088,349.62,193.973,349.441z"/>
		<path fill="#FFFFFF" d="M154.121,394.652c0.239-0.293,4.019-5.049,4.888-8.021c0.878-3.062,1.384-6.84,2.688-7.639
			c0.329-0.195,0.612-0.284,0.887-0.284c-0.204,2.343-0.319,4.693-0.399,7.062c-0.311,1.578-0.604,3.166-0.533,4.789
			c0,0.133,0.044,0.268,0.071,0.392c-0.222,1.562-0.328,3.132-0.337,4.692c-0.594,2.334-0.79,4.817-0.763,7.187
			c-0.231,1.366-0.417,2.75-0.595,4.135c-0.319,2.617-0.86,5.226-1.233,7.833c-2.484,0.062-7.23,0.124-9.475-0.177
			c-3.149-0.399-5.012-1.394-6.485-2.795c-1.482-1.384-1.872-2.085-3.149-6.867c0,0-0.488,4.995-0.949,7.036
			c-0.461,2.031-2.458,4.533-8.766,8.41c-5.305,3.256-22.055,13.742-27.2,16.971L19.91,500.525l-106.335-12.899
			c0,0,44.704-27.67,89.976-50.249c46.55-23.217,93.694-41.359,95.495-42.264c5.722-2.857,17.637-8.242,22.605-9.786
			c4.95-1.543,6.911-3.38,10.823,0.728c3.895,4.107,3.469,3.604,5.625,4.791c2.156,1.207,3.611,1.438,2.032-0.08
			c-1.57-1.517-1.615-2.67,2.041-13.041c3.673-10.361,5.385-18.319,6.396-22.437c0.994-4.134,4.356-9.103,13.795-10.603
			c9.466-1.489,15.623-2.199,15.623-2.199s2.298-0.239,3.593,1.216c0.985,1.082,2.174,3.096,3.247,5.519
			c0.932,2.59,2.396,6.111,4.232,8.729c2.901,4.117,3.007,5.438,3.007,5.438c0,0.036,0,0.062,0.018,0.098
			c0.009,0.09,0.505,2.139-1.863,2.929c-1.5,0.506-2.528,0.312-4.533-0.86c-0.133-0.08-0.399-0.258-0.746-0.496
			c-0.887-0.596-2.244-1.5-3.495-2.129c-0.621-0.383-3.46-2.156-5.021-4.136c-1.446-1.827-2.369-3.726-2.546-5.394
			c0-0.354,0.044-0.729,0.133-1.102c0.044-0.213-0.089-0.436-0.302-0.479c-0.204-0.045-0.408,0.089-0.452,0.283
			c-0.08,0.168-0.275,0.674-0.559,1.277c-0.657,1.029-1.898,2.607-3.584,2.989c-0.488,0.106-1.012,0.114-1.57-0.019
			c0,0-1.819,1.838-4.063,1.137c0,0-0.071,0.178-0.133,0.566c-0.284,1.189-0.994,4.047-1.757,6.256
			c-0.994,2.893-1.756,11.621-2.865,18.647C157.643,389.766,154.325,394.378,154.121,394.652z"/>
		<path d="M161.697,378.994c-1.304,0.799-1.81,4.578-2.688,7.639c-0.87,2.973-4.649,7.727-4.888,8.02
			c0.204-0.273,3.522-4.887,4.604-11.691c1.109-7.025,1.872-15.756,2.865-18.648c0.763-2.209,1.473-5.064,1.757-6.254
			c0.062-0.391,0.133-0.567,0.133-0.567c2.245,0.7,4.063-1.136,4.063-1.136c0.559,0.133,1.082,0.123,1.57,0.018l0.124,0.532
			c-1.455,0.327-2.777,1.251-3.566,2.563c-0.985,1.623-1.029,3.362-1.207,5.189c-0.124,1.251-0.284,2.484-0.417,3.734
			c-0.736,3.416-1.189,6.85-1.464,10.317C162.31,378.71,162.026,378.799,161.697,378.994z"/>
		<path d="M158.592,416.361c-1.162,0.089-2.173,0.089-3.114,0.062c-1.783-0.026-13.84,1.649-16.892,3.202
			c-2.333,1.171-21.683,12.936-32.506,19.535c-0.612,0.373-74.273,61.365-86.17,61.365l82.861-63.148
			c5.146-3.229,21.895-13.715,27.2-16.971c6.308-3.877,8.304-6.379,8.766-8.41c0.461-2.041,0.949-7.036,0.949-7.036
			c1.277,4.782,1.667,5.483,3.149,6.867c1.473,1.4,3.335,2.396,6.485,2.795c2.245,0.301,6.991,0.239,9.475,0.177
			C158.716,415.323,158.654,415.838,158.592,416.361z"/>
	</g>
	<g>
		<path fill="none" stroke="#000000" stroke-width="0.7436" stroke-linecap="round" stroke-linejoin="round" d="M158.796,414.8
			c-2.484,0.062-7.23,0.124-9.475-0.177c-3.149-0.399-5.012-1.395-6.485-2.795c-1.482-1.384-1.872-2.085-3.149-6.867
			c0,0-0.488,4.995-0.949,7.036c-0.461,2.031-2.458,4.533-8.766,8.41c-5.305,3.256-22.055,13.742-27.2,16.971l-82.861,63.148
			c11.897,0,85.558-60.992,86.17-61.365c10.823-6.601,30.172-18.364,32.506-19.535c3.052-1.553,15.108-3.229,16.892-3.202
			c0.94,0.026,1.952,0.026,3.114-0.062"/>
		<path fill="none" stroke="#000000" stroke-width="0.7436" stroke-linecap="round" stroke-linejoin="round" d="M154.112,394.67
			c0,0,0-0.009,0.009-0.018c0.239-0.293,4.019-5.049,4.888-8.021c0.878-3.062,1.384-6.84,2.688-7.639
			c0.329-0.195,0.612-0.284,0.887-0.284h0.009"/>
		<path fill="none" stroke="#000000" stroke-width="0.7436" stroke-linecap="round" stroke-linejoin="round" d="M187.691,403.692
			c0.284-0.159,0.55-0.312,0.834-0.471c1.366-0.808,2.644-1.562,3.646-2.146c3.079-1.766,6.21-4.444,7.452-6.36
			c1.127-1.773,1.375-2.652,1.438-3.779l0.018-0.194c0.044-0.595,0.027-0.71-0.124-1.605c-0.027-0.267-0.089-0.612-0.142-1.083
			c-0.168-1.072-0.39-1.836-0.701-2.396c-0.24-0.443-0.506-0.7-0.701-0.896c0-0.239-0.018-0.487-0.018-0.754
			c0.106-0.134,0.23-0.267,0.346-0.417l0.177-0.213c1.207-1.48,1.251-3.283,0.922-5.882c-0.204-1.757-0.55-2.945-1.1-3.957
			c-0.204-0.373-0.417-0.685-0.577-0.914c-0.284-0.381-0.683-0.71-1.118-0.976c-0.018-0.195-0.062-0.392-0.115-0.596
			c0.426-0.566,0.825-1.145,1.153-1.686c1.419-2.219,1.473-3.133,1.357-3.762c-0.24-1.172-0.923-3.149-1.757-4.666
			c-0.071-0.133-0.15-0.268-0.222-0.392c-0.701-1.161-2.2-1.979-3.424-2.483c0.284-0.418,0.612-0.922,1.002-1.518
			c1.632-2.422,0.692-4.604-0.062-6.379l-0.062-0.15c-0.106-0.248-0.222-0.488-0.355-0.728c-0.878-1.588-2.085-2.528-2.218-2.626
			c-0.009-0.018-0.027-0.036-0.053-0.045c-0.523-0.363-3.203-2.111-4.942-2.352c-1.082-0.133-2.59,0.026-3.602,0.178
			c-0.133-0.311-0.293-0.674-0.506-1.047c-0.373-0.666-0.79-1.26-1.242-1.738c-1.667-1.801-4.808-1.588-5.163-1.562l-6.05,0.568
			c-2.112,0.193-4.525,0.443-6.858,0.684c-4.462,0.442-9.058,0.922-12.181,1.101c-4.551,0.257-7.63,2.422-9.165,6.458
			c-0.816,2.119-4.933,11.853-10.256,20.591c-4.87,7.994-8.197,9.688-17.122,13.433c-7.239,3.053-26.455,10.592-33.491,13.344
			c-0.443,0.177-48.208,17.832-86.108,38.308c-45.627,24.672-82.79,52.955-83.03,53.043c0,0,44.704-27.67,89.976-50.249
			c46.55-23.217,93.694-41.359,95.495-42.264c5.722-2.857,17.637-8.242,22.605-9.786c4.95-1.543,6.911-3.38,10.823,0.728
			c3.895,4.107,3.469,3.604,5.625,4.791c2.156,1.206,3.611,1.438,2.032-0.08c-1.57-1.517-1.615-2.67,2.041-13.041
			c3.673-10.361,5.385-18.32,6.396-22.437c0.994-4.134,4.356-9.103,13.795-10.603c9.466-1.49,15.623-2.199,15.623-2.199
			s2.298-0.239,3.593,1.216c0.985,1.082,2.174,3.096,3.247,5.518c0.932,2.591,2.396,6.112,4.232,8.729
			c2.901,4.117,3.007,5.438,3.007,5.438c0,0.036,0,0.062,0.018,0.098c0.009,0.09,0.505,2.139-1.863,2.929
			c-1.5,0.506-2.528,0.312-4.533-0.86c-0.133-0.08-0.399-0.258-0.746-0.496c-0.887-0.596-2.244-1.5-3.495-2.13
			c-0.621-0.382-3.46-2.155-5.021-4.135c-1.446-1.827-2.369-3.726-2.546-5.394c0-0.354,0.044-0.729,0.133-1.102
			c0.044-0.213-0.089-0.436-0.302-0.479c-0.204-0.045-0.408,0.088-0.452,0.283c-0.08,0.168-0.275,0.674-0.559,1.277
			c-0.657,1.029-1.898,2.607-3.584,2.989c-0.488,0.106-1.012,0.114-1.57-0.019c0,0-1.819,1.838-4.063,1.137
			c0,0-0.071,0.178-0.133,0.566c-0.284,1.189-0.994,4.047-1.757,6.256c-0.994,2.893-1.756,11.621-2.865,18.647
			c-1.083,6.805-4.4,11.418-4.604,11.692"/>
		<path fill="none" stroke="#000000" stroke-width="0.7436" stroke-linecap="round" stroke-linejoin="round" d="M199.384,388.256
			c0.071,0.479,0.115,0.816,0.16,1.092c0.133,0.86,0.133,0.86,0.106,1.305l-0.018,0.195c-0.044,0.799-0.16,1.438-1.215,3.096
			c-0.195,0.293-0.479,0.64-0.807,1.021c-1.766,1.863-3.655,2.521-5.545,2.795c-2.067,0.302-5.252,0.019-5.252,0.019
			c-0.55-0.089-1.349-0.179-2.209-0.248c-2.209-0.213-4.631-0.284-5.288-2.68c-0.647-2.396-0.071-5.402-0.071-5.402
			s0.106-1.846,2.413-1.987c2.289-0.169,6.316-0.302,9.235-0.94c2.928-0.639,4.95-1.543,6.299-1.401
			c0.168,0.036,0.319,0.054,0.453,0.062c0.204,0.09,0.399,0.195,0.514,0.346c0.08,0.09,0.151,0.16,0.24,0.25
			c0.168,0.149,0.311,0.301,0.461,0.566C199.083,386.757,199.251,387.369,199.384,388.256z"/>
		<path fill="none" stroke="#000000" stroke-width="0.7436" stroke-linecap="round" stroke-linejoin="round" d="M197.982,373.458
			c0.151,0.194,0.328,0.462,0.497,0.772c0.47,0.832,0.754,1.861,0.949,3.44c0.284,2.271,0.266,3.718-0.63,4.782l-0.178,0.23
			c-0.239,0.274-0.443,0.549-0.647,0.78c-0.541,0.407-1.224,0.789-2.023,1.011c-2.084,0.551-7.603,0.541-10.965,1.207
			c-3.345,0.656-5.589,1.598-7.497,1.385c-1.898-0.223-3.043-1.073-3.824-3.407c-0.754-2.333,0.275-4.249,2.059-5.456
			c1.801-1.206,4.134-1.534,6.529-1.951c2.165-0.382,3.611-0.869,6.317-1.783c2.484-0.816,5.829-2.378,7.931-2.021
			C197.051,372.688,197.672,373.032,197.982,373.458z"/>
		<path fill="none" stroke="#000000" stroke-width="0.7436" stroke-linecap="round" stroke-linejoin="round" d="M194.842,355.75
			c-0.319,0.506-0.621,0.949-0.86,1.322c-0.355,0.354-0.949,0.852-1.695,1.072c-0.709,0.188-1.339,0.275-1.756,0.328
			c-0.133-0.229-0.266-0.451-0.417-0.69c-1.5-2.388-2.67-5.421-3.22-6.956c0.177-0.115,0.381-0.283,0.639-0.523
			c1.153-1.126,4.045-4.01,6.441-0.859c0.115,0.178,0.23,0.354,0.337,0.55c0.106,0.194,0.213,0.391,0.284,0.577l0.062,0.149
			C195.365,352.404,196.04,353.977,194.842,355.75z"/>
		<path fill="none" stroke="#000000" stroke-width="0.7436" stroke-linecap="round" stroke-linejoin="round" d="M190.459,367.15
			c1.277-0.408,1.907-1.153,2.2-1.873v-0.008c0.168-0.418,0.222-0.826,0.239-1.146c0.106-1.446-0.55-2.741-1.65-4.524
			c0.577-0.213,1.943-0.595,3.238-0.213c1.012,0.436,2.245,1.092,2.742,1.891c0.86,1.445,1.57,3.469,1.81,4.631
			c0.151,0.79-1.277,3.033-2.679,4.826c-0.639,0.55-1.517,1.152-2.52,1.42c-2.067,0.559-8.703,1.898-12.749,3.087
			c-4.028,1.198-6.875,2.528-8.393-0.507c-1.526-3.033-1.126-6.076,1.535-8.295c2.289-1.906,5.279-3.237,9.803-1.037
			c0.16,0.098,0.328,0.222,0.47,0.311c0.364,0.249,0.63,0.417,0.79,0.523C187.266,367.381,188.525,367.807,190.459,367.15z"/>
		<path fill="none" stroke="#000000" stroke-width="0.7436" stroke-linecap="round" stroke-linejoin="round" d="M164.048,368.393
			c-0.736,3.416-1.189,6.85-1.464,10.317c-0.204,2.343-0.319,4.692-0.399,7.062c0,0.01,0,0.026,0,0.035"/>
		<path fill="none" stroke="#000000" stroke-width="0.7436" stroke-linecap="round" stroke-linejoin="round" d="M170.817,372.863
			c0.027-0.194,0.053-0.381,0.089-0.576"/>
		<path fill="none" stroke="#000000" stroke-width="0.7436" stroke-linecap="round" stroke-linejoin="round" d="M187.691,403.692
			c0.089-0.684,0.018-1.41-0.24-2.05"/>
		<path fill="none" stroke="#000000" stroke-width="0.7436" stroke-linecap="round" stroke-linejoin="round" d="M170.906,372.287
			c0.249-0.479,0.399-1.029,0.417-1.686c0-0.188,0.026-0.383,0.026-0.596c0.399-0.977,0.79-1.979,1.322-2.908
			c0.586-1.029,1.5-1.668,2.396-2.414c1.65-1.365,1.207-3.824,0-5.242c-1.011-1.207-2.173-2.299-3.779-2.573
			c-0.683-0.124-1.384-0.106-2.049,0.034c-1.455,0.328-2.777,1.252-3.566,2.564c-0.985,1.623-1.029,3.362-1.207,5.189
			c-0.124,1.251-0.284,2.484-0.417,3.734"/>
		<path fill="none" stroke="#000000" stroke-width="0.7436" stroke-linecap="round" stroke-linejoin="round" d="M172.645,377.495
			c-0.08-0.79-0.355-1.562-0.86-2.165"/>
		<path fill="none" stroke="#000000" stroke-width="0.7436" stroke-linecap="round" stroke-linejoin="round" d="M171.785,375.33
			c-0.062-0.115-0.142-0.248-0.231-0.354"/>
		<path fill="none" stroke="#000000" stroke-width="0.7436" stroke-linecap="round" stroke-linejoin="round" d="M171.554,374.977
			c-0.053-0.756-0.292-1.519-0.736-2.112"/>
		<path fill="none" stroke="#000000" stroke-width="0.7436" stroke-linecap="round" stroke-linejoin="round" d="M187.452,401.644
			c0.062-1.499-0.728-2.944-2.688-3.292c-2.617-0.461-5.518-1.1-5.917-4.267c-0.239-1.872-0.497-3.416-1.428-5.084
			c-0.683-1.188-1.89-1.534-2.511-2.511c-1.668-2.617-2.147-4.284-2.014-7.514c0.035-0.551-0.071-1.057-0.249-1.481"/>
		<path fill="none" stroke="#000000" stroke-width="0.7436" stroke-linecap="round" stroke-linejoin="round" d="M160.624,402.832
			c-0.231,1.366-0.417,2.75-0.595,4.135c-0.319,2.617-0.86,5.226-1.233,7.833c-0.08,0.523-0.142,1.038-0.204,1.562"/>
		<path fill="none" stroke="#000000" stroke-width="0.7436" stroke-linecap="round" stroke-linejoin="round" d="M161.387,395.646
			c-0.594,2.332-0.79,4.816-0.763,7.186"/>
		<path fill="none" stroke="#000000" stroke-width="0.7436" stroke-linecap="round" stroke-linejoin="round" d="M161.724,390.953
			c-0.222,1.562-0.328,3.132-0.337,4.693"/>
		<path fill="none" stroke="#000000" stroke-width="0.7436" stroke-linecap="round" stroke-linejoin="round" d="M162.186,385.771
			c-0.311,1.58-0.604,3.168-0.533,4.791c0,0.133,0.044,0.267,0.071,0.391"/>
	</g>
</g>
<path fill="#B21C1E" d="M386.026,144.104h-15.69c-5.003,0-9.072-4.069-9.072-9.073v-4.632c0-5.005,4.069-9.073,9.072-9.073h15.69
	c5.001,0,9.068,4.068,9.068,9.073v4.632C395.096,140.035,391.027,144.104,386.026,144.104z M370.336,128.762
	c-0.902,0-1.635,0.734-1.635,1.638v4.632c0,0.903,0.731,1.638,1.635,1.638h15.69c0.9,0,1.635-0.734,1.635-1.638V130.4
	c0-0.903-0.733-1.638-1.635-1.638H370.336z"/>
<g>
	<path d="M386.026,144.104c0,0-1.525,0.007-4.194,0.02c-2.67,0.006-6.482,0.049-11.059,0.144c-2.286,0.142-4.958-0.606-6.952-2.471
		c-1.007-0.912-1.828-2.092-2.362-3.429c-0.285-0.663-0.459-1.378-0.575-2.106c-0.112-0.737-0.122-1.483-0.137-2.183
		c-0.017-1.443-0.1-2.854-0.063-4.386c0.065-1.598,0.594-3.146,1.434-4.524c0.831-1.388,2.068-2.528,3.489-3.342
		c1.434-0.798,3.079-1.222,4.728-1.244c3.052,0.019,6.102,0.009,9.104,0.059c1.502,0.021,2.99,0.043,4.463,0.064
		c0.745,0.018,1.485,0.036,2.222,0.054c0.692,0.039,1.509,0.126,2.236,0.343c2.947,0.78,5.231,2.999,6.266,5.502
		c0.533,1.252,0.75,2.583,0.719,3.846c-0.027,1.233-0.056,2.425-0.081,3.569c-0.004,1.136-0.073,2.263-0.36,3.283
		c-0.279,1.015-0.695,1.937-1.229,2.707c-1.061,1.546-2.392,2.57-3.593,3.148c-1.204,0.587-2.25,0.798-2.958,0.878
		C386.409,144.104,386.026,144.104,386.026,144.104z M386.026,144.104c0,0,0.383-0.004,1.093-0.078
		c0.706-0.087,1.748-0.307,2.94-0.903c1.19-0.583,2.514-1.618,3.51-3.181c1.018-1.561,1.545-3.635,1.359-5.923
		c-0.146-2.272,0.246-4.856-0.915-7.145c-1.065-2.282-3.257-4.193-5.91-4.762c-0.652-0.161-1.281-0.204-2.039-0.215
		c-0.718,0.016-1.438,0.031-2.164,0.047c-1.473,0.021-2.961,0.042-4.464,0.064c-3.003,0.05-6.054,0.04-9.104,0.06
		c-1.401,0.008-2.799,0.353-4.029,1.021c-1.208,0.693-2.291,1.64-3.042,2.811c-0.757,1.159-1.241,2.51-1.351,3.855
		c-0.102,1.408-0.085,2.908-0.132,4.323c-0.02,0.729-0.039,1.407,0.031,2.062c0.076,0.66,0.202,1.316,0.436,1.93
		c0.431,1.239,1.134,2.362,2.032,3.251c0.893,0.896,1.954,1.576,3.071,2.008c1.118,0.444,2.281,0.595,3.422,0.611
		c4.576,0.095,8.39,0.138,11.06,0.144C384.501,144.098,386.026,144.104,386.026,144.104z"/>
	<path d="M370.336,128.762c0.005,0.021-0.208-0.025-0.558,0.11c-0.339,0.118-0.849,0.471-1.012,1.157
		c-0.088,0.68-0.017,1.537-0.006,2.502c0.013,0.485,0.025,1,0.04,1.544c0.04,0.52-0.056,1.181,0.225,1.61
		c0.258,0.479,0.798,0.776,1.361,0.739c0.645-0.028,1.309-0.057,1.991-0.086c1.367-0.059,2.81-0.122,4.301-0.187
		c1.491-0.069,3.032-0.133,4.6-0.164c1.565-0.054,3.156-0.04,4.748-0.062c0.463-0.002,0.837-0.344,0.896-0.793
		c0.022-0.069,0.017-0.331,0.021-0.512l0.005-0.592l0.028-1.179c0.021-0.783,0.043-1.56,0.063-2.327c0.015-0.037,0-0.418-0.03-0.442
		c-0.008-0.07-0.062-0.198-0.124-0.303c-0.127-0.214-0.34-0.379-0.581-0.453c-0.193-0.074-0.606-0.072-0.971-0.09
		c-0.366-0.016-0.729-0.032-1.088-0.047c-0.718-0.031-1.42-0.062-2.104-0.092c-1.366-0.06-2.659-0.116-3.854-0.168
		c-2.386-0.097-4.375-0.14-5.768-0.146C371.132,128.769,370.336,128.762,370.336,128.762z M370.336,128.762
		c0,0,0.796-0.007,2.188-0.02c1.392-0.006,3.381-0.049,5.767-0.146c1.193-0.052,2.486-0.108,3.854-0.168
		c0.685-0.03,1.387-0.061,2.104-0.092c0.358-0.016,0.722-0.031,1.088-0.047c0.366-0.003,0.703-0.073,1.235,0.028
		c0.48,0.104,0.935,0.386,1.24,0.794c0.148,0.208,0.28,0.417,0.362,0.719c0.091,0.337,0.083,0.349,0.107,0.692
		c0.021,0.767,0.042,1.544,0.062,2.327l0.029,1.179l0.005,0.592c-0.004,0.213,0.02,0.349-0.018,0.673
		c-0.058,0.568-0.333,1.114-0.759,1.498c-0.217,0.198-0.449,0.341-0.74,0.459c-0.149,0.05-0.345,0.107-0.464,0.126l-0.148,0.016
		l-0.224,0.019c-1.592-0.022-3.183-0.009-4.748-0.062c-1.566-0.031-3.107-0.095-4.6-0.164c-1.491-0.065-2.934-0.127-4.301-0.187
		c-0.684-0.029-1.348-0.058-1.991-0.086c-0.73-0.013-1.399-0.474-1.654-1.081c-0.08-0.139-0.104-0.324-0.145-0.474
		c-0.004-0.134-0.026-0.306-0.014-0.446c0.009-0.286,0.018-0.564,0.024-0.836c0.016-0.544,0.028-1.06,0.04-1.544
		c0.054-0.97-0.012-1.814,0.089-2.511c0.182-0.699,0.702-1.044,1.047-1.158C370.129,128.732,370.34,128.783,370.336,128.762z"/>
</g>
<path fill="#B21C1E" d="M455.561,144.104h-15.689c-5.002,0-9.072-4.069-9.072-9.073v-4.632c0-5.005,4.07-9.073,9.072-9.073h15.689
	c5.004,0,9.071,4.068,9.071,9.073v4.632C464.632,140.035,460.562,144.104,455.561,144.104z M439.87,128.762
	c-0.901,0-1.637,0.734-1.637,1.638v4.632c0,0.903,0.734,1.638,1.637,1.638h15.689c0.901,0,1.637-0.734,1.637-1.638V130.4
	c0-0.903-0.734-1.638-1.637-1.638H439.87z"/>
<g>
	<path d="M455.561,144.104c0,0-1.524,0.007-4.193,0.02c-2.67,0.006-6.483,0.049-11.06,0.144c-2.285,0.142-4.958-0.606-6.951-2.471
		c-1.009-0.912-1.828-2.092-2.363-3.43c-0.284-0.663-0.458-1.379-0.575-2.107c-0.112-0.737-0.121-1.482-0.136-2.182
		c-0.018-1.444-0.101-2.854-0.063-4.386c0.066-1.598,0.595-3.147,1.435-4.524c0.831-1.388,2.069-2.527,3.489-3.341
		c1.435-0.798,3.08-1.222,4.729-1.243c3.05,0.02,6.101,0.009,9.104,0.059c1.503,0.021,2.991,0.043,4.464,0.064
		c0.745,0.018,1.486,0.036,2.223,0.054c0.691,0.039,1.509,0.126,2.236,0.344c2.947,0.78,5.231,2.999,6.266,5.503
		c0.532,1.252,0.749,2.583,0.718,3.846c-0.028,1.233-0.056,2.425-0.081,3.569c-0.004,1.136-0.074,2.263-0.36,3.283
		c-0.279,1.015-0.696,1.937-1.23,2.707c-1.061,1.546-2.392,2.57-3.594,3.148c-1.204,0.587-2.25,0.797-2.958,0.878
		C455.943,144.104,455.561,144.104,455.561,144.104z M455.561,144.104c0,0,0.384-0.004,1.094-0.078
		c0.706-0.087,1.748-0.307,2.941-0.902c1.19-0.583,2.513-1.617,3.51-3.18c1.018-1.561,1.546-3.635,1.36-5.923
		c-0.146-2.272,0.246-4.856-0.915-7.145c-1.065-2.282-3.256-4.193-5.909-4.763c-0.653-0.162-1.282-0.205-2.04-0.215
		c-0.717,0.016-1.438,0.031-2.165,0.047c-1.472,0.021-2.961,0.042-4.463,0.064c-3.003,0.05-6.054,0.04-9.104,0.059
		c-1.401,0.008-2.8,0.353-4.029,1.021c-1.209,0.692-2.292,1.639-3.043,2.811c-0.757,1.159-1.242,2.51-1.352,3.854
		c-0.102,1.408-0.085,2.908-0.132,4.324c-0.02,0.729-0.039,1.407,0.031,2.062c0.076,0.66,0.201,1.316,0.436,1.93
		c0.431,1.239,1.134,2.362,2.031,3.251c0.893,0.896,1.953,1.576,3.072,2.008c1.117,0.444,2.28,0.595,3.422,0.611
		c4.575,0.095,8.39,0.138,11.06,0.144C454.035,144.098,455.561,144.104,455.561,144.104z"/>
	<path d="M439.87,128.762c0.005,0.021-0.208-0.025-0.559,0.11c-0.339,0.119-0.848,0.471-1.013,1.157
		c-0.089,0.679-0.017,1.537-0.006,2.502c0.012,0.485,0.025,1,0.04,1.544c0.04,0.52-0.056,1.181,0.224,1.61
		c0.26,0.478,0.8,0.776,1.362,0.739c0.644-0.028,1.309-0.057,1.992-0.086c1.367-0.059,2.81-0.122,4.301-0.187
		c1.491-0.069,3.033-0.133,4.599-0.164c1.566-0.054,3.157-0.04,4.748-0.062c0.465-0.002,0.838-0.344,0.899-0.793
		c0.021-0.069,0.016-0.33,0.02-0.512l0.006-0.592l0.028-1.179c0.021-0.783,0.043-1.56,0.063-2.327c0.015-0.037,0-0.418-0.03-0.442
		c-0.008-0.07-0.062-0.197-0.124-0.303c-0.127-0.215-0.34-0.379-0.581-0.454c-0.194-0.074-0.606-0.072-0.971-0.09
		c-0.366-0.016-0.729-0.032-1.088-0.047c-0.719-0.031-1.42-0.062-2.104-0.092c-1.368-0.06-2.66-0.116-3.854-0.168
		c-2.388-0.097-4.375-0.14-5.769-0.146C440.666,128.769,439.87,128.762,439.87,128.762z M439.87,128.762c0,0,0.796-0.007,2.188-0.02
		c1.394-0.006,3.382-0.049,5.769-0.146c1.192-0.052,2.484-0.108,3.854-0.168c0.685-0.03,1.387-0.061,2.104-0.092
		c0.357-0.016,0.722-0.031,1.088-0.047c0.365-0.003,0.704-0.073,1.235,0.028c0.481,0.104,0.935,0.386,1.24,0.794
		c0.148,0.208,0.28,0.417,0.362,0.719c0.091,0.337,0.083,0.349,0.107,0.692c0.021,0.768,0.042,1.544,0.062,2.327l0.029,1.179
		l0.005,0.592c-0.004,0.213,0.019,0.35-0.019,0.674c-0.058,0.568-0.335,1.113-0.76,1.498c-0.216,0.198-0.45,0.341-0.741,0.458
		c-0.148,0.05-0.344,0.107-0.464,0.126l-0.147,0.016l-0.225,0.019c-1.591-0.022-3.182-0.009-4.748-0.062
		c-1.564-0.031-3.106-0.095-4.599-0.164c-1.491-0.065-2.934-0.127-4.301-0.187c-0.685-0.029-1.35-0.058-1.992-0.086
		c-0.732-0.014-1.399-0.475-1.654-1.082c-0.08-0.139-0.104-0.324-0.145-0.474c-0.004-0.134-0.026-0.306-0.014-0.446
		c0.009-0.285,0.018-0.564,0.024-0.836c0.016-0.544,0.028-1.06,0.04-1.544c0.053-0.97-0.013-1.814,0.089-2.511
		c0.184-0.7,0.704-1.044,1.048-1.158C439.663,128.732,439.874,128.783,439.87,128.762z"/>
</g>
<g>
	<path fill="#660000" d="M441.489,130.218v-18.555c0-1.23-1.118-2.228-2.497-2.228h-52.447c-1.379,0-2.497,0.997-2.497,2.228v18.585
		l-11.991-0.031v-29.938c0-2.336,1.592-4.229,3.55-4.229h74.423c1.955,0,3.545,1.893,3.545,4.229v30.002L441.489,130.218z"/>
	<path d="M441.267,130.218c-0.322-4.042-0.55-8.083-0.755-12.125c-0.115-2.021-0.18-4.042-0.271-6.062l-0.008-0.189l-0.005-0.095
		l-0.002-0.047l-0.001-0.024c-0.002-0.039,0.016,0.253,0.007,0.119l-0.06-0.375c-0.021-0.121-0.056-0.031-0.057-0.06
		c0.016,0.011-0.042-0.047-0.066-0.082c-0.126-0.152-0.312-0.299-0.55-0.366c-0.259-0.125-1.531-0.016-2.496-0.003
		c-4.041,0.14-8.083,0.249-12.125,0.317c-4.042,0.101-8.084,0.134-12.125,0.17c-2.021,0.013-4.042,0.053-6.062,0.044l-6.062-0.026
		l-6.062-0.116c-2.021-0.036-4.042-0.127-6.062-0.188c-0.926-0.02-2.323-0.114-2.408-0.022c-0.208,0.048-0.355,0.181-0.456,0.295
		c-0.063,0.056-0.075,0.122-0.108,0.185c-0.002,0.04-0.018,0.053-0.032,0.114l-0.016,0.379l-0.239,6.063l-0.236,6.062
		c-0.093,2.021-0.114,4.042-0.169,6.063l-0.021,0.814l-0.77-0.025c-1.999-0.064-3.997-0.084-5.995-0.103
		c-1.999-0.018-3.997-0.056-5.996-0.037l-0.677,0.006l-0.002-0.687c-0.015-6.107-0.122-12.215-0.337-18.323l-0.299-9.161
		l-0.083-2.291l-0.005-0.143l0.011-0.263l0.014-0.286c0.021-0.214-0.009-0.329,0.056-0.625c0.1-0.547,0.233-1.098,0.45-1.536
		c0.4-0.924,1.051-1.81,2.012-2.402c0.223-0.167,0.477-0.291,0.751-0.391c0.271-0.099,0.529-0.232,0.823-0.26
		c0.283-0.047,0.595-0.09,0.86-0.113l0.573-0.021c12.215-0.407,24.43-0.464,36.645-0.655c3.055-0.048,6.108-0.084,9.162-0.076
		l9.161-0.004c6.107,0.085,12.215,0.095,18.322,0.249l0.286,0.006l0.144,0.003l0.071,0.001l0.289,0.016l0.036,0.005l0.565,0.08
		c0.497,0.089,1.534,0.438,1.909,0.767c1.046,0.667,1.771,1.626,2.195,2.64c0.251,0.502,0.353,1.035,0.477,1.562
		c0.048,0.265,0.054,0.532,0.076,0.798c0.019,0.271,0.032,0.548,0.021,0.708l-0.06,2.291l-0.262,9.161
		c-0.212,6.107-0.433,12.215-0.748,18.323l-0.051,0.976l-0.875-0.055c-4.026-0.25-8.055-0.446-12.08-0.76l-0.206-0.016
		L441.267,130.218z M441.727,129.982c3.951-0.263,7.901-0.418,11.853-0.623l-0.926,0.921c-0.316-6.107-0.536-12.215-0.748-18.323
		l-0.263-9.161l-0.06-2.291c0.002-0.222-0.021-0.325-0.036-0.434c-0.02-0.113-0.016-0.23-0.042-0.339
		c-0.08-0.207-0.105-0.436-0.226-0.609c-0.072-0.208-0.222-0.336-0.32-0.502c-0.143-0.103-0.252-0.255-0.391-0.299
		c-0.032-0.02-0.062-0.04-0.093-0.063c-0.024-0.017-0.012,0.013-0.014,0.009c0.003,0.002,0.009-0.001,0.016-0.013
		c0.01-0.011,0.039-0.034-0.098-0.04l-0.569-0.057l-0.035-0.003c0.494,0.03,0.116,0.009,0.218,0.016l-0.071,0.001l-0.144,0.003
		l-0.286,0.006c-6.107,0.154-12.215,0.164-18.322,0.249l-9.161-0.004c-3.054,0.008-6.107-0.027-9.162-0.076
		c-12.215-0.19-24.43-0.248-36.645-0.655l-0.573-0.021c-0.113,0.011-0.181,0.022-0.277,0.019c-0.094-0.023-0.176,0.044-0.268,0.06
		c-0.093,0.015-0.188,0.043-0.271,0.11c-0.371,0.166-0.716,0.541-0.949,0.991c-0.149,0.239-0.188,0.434-0.272,0.628
		c-0.027,0.033-0.041,0.123-0.05,0.225l-0.034,0.285l-0.034,0.284l-0.009,0.071l-0.005,0.035c-0.003,0.038,0.008-0.202,0.003-0.083
		l-0.005,0.143l-0.083,2.291l-0.299,9.161c-0.215,6.107-0.322,12.215-0.337,18.323l-0.68-0.681c1.998,0.03,3.997,0.001,5.995-0.006
		c1.999-0.007,3.997-0.018,5.996-0.071l-0.791,0.789c-0.055-2.021-0.076-4.042-0.169-6.063l-0.236-6.062l-0.238-6.063l-0.017-0.379
		c0.004-0.19,0.024-0.428,0.049-0.639c0.075-0.423,0.21-0.857,0.437-1.215c0.43-0.736,1.081-1.308,1.82-1.621
		c0.169-0.092,0.431-0.156,0.648-0.219l0.348-0.082l0.188-0.025l0.188-0.025l0.095-0.012l0.022-0.003l0.168-0.008l0.049-0.002
		l0.379-0.016l1.516-0.051c2.021-0.061,4.042-0.152,6.062-0.188l6.062-0.116l6.062-0.026c2.021-0.009,4.042,0.031,6.063,0.044
		c4.041,0.036,8.083,0.069,12.125,0.17c4.042,0.068,8.084,0.177,12.125,0.317l1.516,0.047c0.389,0,1.334,0.04,2.003,0.345
		c0.707,0.3,1.333,0.831,1.749,1.524c0.103,0.184,0.203,0.329,0.28,0.588c0.07,0.212,0.158,0.532,0.166,0.662l0.026,0.378
		l0.009,0.166l-0.001,0.024l-0.002,0.047l-0.004,0.095l-0.008,0.189c-0.093,2.021-0.155,4.042-0.271,6.062
		C442.266,122.056,442.039,126.019,441.727,129.982z"/>
</g>
<path fill="#B21C1E" d="M457.309,134.036l-19.556-0.102V113.17h-49.969v20.823l-19.463-0.051v-33.665
	c0-4.392,3.268-7.964,7.284-7.964h74.423c4.014,0,7.279,3.572,7.279,7.964L457.309,134.036L457.309,134.036z"/>
<path d="M457.308,134.259c-3.261,0.212-6.521,0.388-9.78,0.531c-3.261,0.143-6.521,0.275-9.779,0.371l-1.168,0.034l-0.053-1.261
	c-0.146-3.46-0.235-6.921-0.333-10.382c-0.112-3.46-0.165-6.921-0.23-10.382l1.79,1.79l-6.246,0.107l-6.246,0.055l-6.246,0.054
	l-6.246-0.021c-2.082,0.005-4.163-0.042-6.245-0.081c-2.082-0.036-4.164-0.073-6.246-0.146c-4.164-0.113-8.328-0.286-12.492-0.434
	l1.323-1.324l-0.365,10.412c-0.071,1.735-0.101,3.471-0.137,5.206c-0.031,1.735-0.088,3.471-0.099,5.206l-0.005,0.728l-0.721-0.004
	c-3.244-0.02-6.487-0.093-9.731-0.067l-4.864,0.013c-1.622-0.004-3.244,0.036-4.866,0.052l-0.763,0.008l-0.009-0.78
	c-0.037-3.454-0.146-6.908-0.244-10.362L367,113.22l-0.337-10.362l-0.065-2.671c0.011-0.43,0-0.828,0.086-1.442
	c0.062-0.579,0.179-1.045,0.32-1.562c0.562-2.02,1.816-3.875,3.579-5.159c0.879-0.642,1.892-1.137,2.976-1.408
	c0.54-0.13,1.095-0.233,1.652-0.255l0.413-0.025l0.323-0.005l0.647-0.012l5.182-0.066l10.361-0.127L402.5,90
	c3.454-0.057,6.908-0.062,10.361-0.062c3.454,0.007,6.908-0.039,10.361,0.015l10.362,0.104c3.454,0.021,6.908,0.111,10.362,0.167
	l5.181,0.096l0.647,0.012l0.434,0.013l0.323,0.026l0.322,0.026l0.45,0.071c0.304,0.055,0.628,0.106,0.878,0.193
	c1.071,0.299,2.08,0.796,2.94,1.457c1.729,1.318,2.931,3.181,3.482,5.188c0.273,0.999,0.388,2.058,0.37,3.054l-0.085,2.59
	l-0.356,10.362c-0.128,3.454-0.273,6.908-0.454,10.362c-0.169,3.454-0.325,6.908-0.551,10.362l-0.015,0.209L457.308,134.259z
	 M457.073,133.798c-0.218-3.375-0.373-6.75-0.538-10.124c-0.182-3.454-0.326-6.908-0.454-10.362l-0.357-10.362l-0.085-2.59
	c-0.031-0.731-0.144-1.397-0.357-2.057c-0.433-1.302-1.283-2.432-2.347-3.155c-0.528-0.366-1.119-0.607-1.719-0.738
	c-0.16-0.051-0.268-0.044-0.389-0.066l-0.188-0.031l-0.323-0.01l-0.323-0.01l-0.041-0.001c0.036,0.001-0.137-0.005,0.068,0.002
	l-0.08,0.001l-0.162,0.003l-0.647,0.012l-5.181,0.096c-3.454,0.057-6.908,0.146-10.362,0.167l-10.362,0.104
	c-3.453,0.054-6.907,0.008-10.361,0.015c-3.453,0-6.907-0.005-10.361-0.062l-10.362-0.126l-10.361-0.127l-5.182-0.066l-0.647-0.012
	l-0.323-0.005l-0.233,0.009c-0.307-0.004-0.606,0.047-0.907,0.104c-0.601,0.122-1.181,0.377-1.707,0.734
	c-1.049,0.717-1.912,1.821-2.348,3.11c-0.104,0.307-0.214,0.681-0.255,0.958c-0.066,0.239-0.097,0.705-0.126,1.138l-0.065,2.51
	l-0.337,10.362l-0.307,10.362c-0.098,3.454-0.207,6.908-0.244,10.362l-0.771-0.772c1.622,0.024,3.244,0.073,4.865,0.077l4.865,0.039
	c3.243,0.043,6.487-0.014,9.731-0.017l-0.726,0.724c-0.012-1.735-0.066-3.471-0.099-5.206c-0.037-1.735-0.064-3.47-0.137-5.206
	l-0.365-10.412l-0.045-1.275l1.368-0.049c4.164-0.147,8.328-0.321,12.492-0.434c2.082-0.073,4.164-0.111,6.246-0.146
	c2.082-0.039,4.164-0.086,6.246-0.081l6.245-0.021l6.246,0.054l6.246,0.055l6.246,0.107l1.823,0.032l-0.033,1.758
	c-0.064,3.46-0.118,6.921-0.229,10.382c-0.099,3.46-0.188,6.921-0.333,10.382l-1.221-1.227c3.258,0.129,6.518,0.295,9.775,0.472
	C450.715,133.353,453.894,133.56,457.073,133.798z"/>
<path fill="#B21C1E" d="M445.228,126.5l4.608,0.024v-26.246c0-0.227-0.055-0.393-0.104-0.492H375.9
	c-0.052,0.1-0.104,0.265-0.104,0.492v26.212l4.517,0.014v-14.841c0-3.289,2.797-5.965,6.233-5.965h52.447
	c3.438,0,6.234,2.676,6.234,5.965V126.5L445.228,126.5z"/>
<linearGradient id="SVGID_2_" gradientUnits="userSpaceOnUse" x1="471.8115" y1="139.9146" x2="674.5912" y2="-62.8651" gradientTransform="matrix(1 0 0 -1 -162 253)">
	<stop  offset="0" style="stop-color:#FF0000"/>
	<stop  offset="1" style="stop-color:#B21C1E"/>
</linearGradient>
<path fill="url(#SVGID_2_)" d="M530.201,140.36h-244.73c-0.321,0.918-0.652,1.833-1.006,2.739c-0.289,0.719-1.116,0.807-1.612,0.495
	c-0.018,0.058-0.038,0.114-0.055,0.171c-0.009,0.028-0.024,0.047-0.034,0.074c0.063,0.549,0.068,1.108,0.07,1.661
	c0.001,0.615-0.448,0.925-0.919,0.949v20.909c1.211,0.337,2.161,1.318,2.667,2.58c0.114,0.289,0.191,0.585,0.292,0.878
	c0.521-0.44,1.073-0.859,1.681-1.239c1.928-1.2,5.013-0.113,5.464,2.209c0.652,3.363,0.562,6.678,0.516,10.066
	c1.755,0.857,3.086,2.992,2.083,5.298c-1.41,3.245-2.921,6.437-4.493,9.597c0.001,5.915-0.174,11.835-0.205,17.759
	c-0.003,0.904-0.277,1.634-0.715,2.193c-0.02,2.742-0.125,5.477-0.532,8.229c-0.108,0.734-0.521,1.336-1.079,1.791
	c0.333,3.473,0.25,6.96,0.241,10.448c0,0.203-0.062,0.362-0.146,0.501v14.9c0,1.886-1.154,3.02-2.551,3.422
	c-0.2,5.005-0.42,10.013-0.423,15.027c0,1.228-0.497,2.132-1.231,2.725c0.543-0.475,1.685-0.121,1.685,0.758v2.667
	c0,0.404-0.242,0.704-0.554,0.863c-0.036,0.202-0.081,0.403-0.119,0.605c3.823-1.766,7.448-3.997,11.5-5.271
	c1.306-0.408,2.527-0.007,3.401,0.807c0.068-0.097,0.139-0.193,0.21-0.289c0.01-0.019,0.021-0.035,0.03-0.054
	c0.002,0.002,0.004,0.003,0.006,0.005c0.052-0.068,0.097-0.14,0.15-0.207c0.746-0.926,2.062,0.252,1.57,1.212
	c-0.236,0.46-0.505,0.897-0.785,1.33c0.063,0.248,0.107,0.501,0.123,0.759c0.16,2.723-0.736,6.227-2.261,9.185
	c-0.085,0.665-0.179,1.328-0.31,1.987c-0.055,0.267-0.186,0.445-0.352,0.562c1.305,1.48,1.234,4.034-0.221,5.389
	c-0.087,0.62-0.313,1.209-0.674,1.715h233.316c3.135,0,5.676-2.336,5.676-5.224V145.588
	C535.877,142.701,533.336,140.36,530.201,140.36z"/>
<path d="M296.245,184.975c-0.027-0.484-0.171-0.935-0.336-1.38c-0.173-0.435-0.412-0.843-0.679-1.217
	c-0.283-0.363-0.58-0.717-0.942-0.999c-0.105-0.102-0.229-0.18-0.349-0.263c0.034-1.336,0.058-2.681,0.049-4.05
	c0.011-0.397-0.032-0.835-0.047-1.251l-0.067-1.265c-0.045-0.849-0.181-1.589-0.267-2.389l-0.071-0.589l-0.017-0.095l-0.008-0.027
	l-0.013-0.055l-0.026-0.11l-0.057-0.219c-0.035-0.147-0.084-0.289-0.146-0.427c-0.209-0.571-0.563-1.061-0.953-1.489
	c-0.805-0.84-1.817-1.356-2.893-1.578c-0.54-0.107-1.099-0.153-1.669-0.089c-0.283,0.017-0.57,0.088-0.854,0.153
	c-0.149,0.039-0.328,0.107-0.489,0.168l-0.245,0.099l-0.141,0.07l-0.133,0.067l-0.066,0.033l-0.033,0.017l-0.136,0.078l-0.021,0.015
	c-0.127-0.206-0.262-0.409-0.408-0.605c-0.35-0.429-0.743-0.843-1.227-1.176c-0.077-0.058-0.168-0.098-0.25-0.15l0.475-22.798
	c-0.376,0.378-0.978,0.39-1.374,0.141c-0.018,0.058-0.038,0.114-0.055,0.171c-0.008,0.027-0.025,0.042-0.035,0.068
	c0.064,0.551,0.069,1.112,0.071,1.666c0.001,0.651-0.502,0.966-1.003,0.955c-0.001,0.017,0.006,0.028,0.003,0.045
	c-0.334,2.643-1.11,5.125-2.011,7.607l0.276,13.251l0.023,1.116l1.305,0.631c0.086,0.042,0.184,0.044,0.27,0.095
	c0.09,0.04,0.183,0.079,0.268,0.143c0.093,0.046,0.173,0.128,0.262,0.194c0.086,0.072,0.163,0.165,0.248,0.248
	c0.149,0.193,0.304,0.396,0.414,0.64c0.022,0.045,0.076,0.153,0.074,0.144l0.1,0.281l0.2,0.561l0.196,0.55
	c1.162-0.054,2.311-0.195,3.434-0.536l0.334-0.261l0.202-0.159l0.03-0.017l0.13-0.072l0.122-0.066l0.034-0.004
	c0.026-0.005,0.029-0.017,0.07-0.03c0.102-0.021,0.197-0.063,0.31-0.069c0.208-0.04,0.442-0.03,0.672,0.002
	c0.404-0.128,0.813-0.225,1.213-0.214c2.319,0.062,2.196,2.591,1.991,4.298c-0.07,0.582-0.532,0.886-0.996,0.934l0.02,0.257
	c0.021,0.374,0.071,0.724,0.07,1.12c0.049,1.539,0.061,3.107,0.053,4.69l-0.004,0.722l0.781,0.543
	c0.198,0.138,0.434,0.217,0.607,0.397c0.207,0.141,0.359,0.331,0.52,0.515c0.141,0.192,0.273,0.397,0.362,0.609
	c0.081,0.217,0.17,0.43,0.177,0.658c0.068,0.222,0.001,0.451,0.004,0.68c-0.029,0.221-0.143,0.48-0.181,0.676l-0.871,1.923
	c-1.161,2.565-2.32,5.131-3.511,7.682l-0.11,0.237l-0.002,0.272l-0.073,10.049l-0.037,5.025l-0.018,2.512l-0.001,0.136l-0.001,0.015
	l-0.006,0.078l-0.023,0.313c-0.005,0.256-0.066,0.282-0.083,0.414c-0.06,0.236-0.205,0.503-0.354,0.722l-0.226,0.333l-0.011,0.347
	l-0.082,2.589l-0.042,1.294c-0.021,0.43-0.082,0.851-0.121,1.277l-0.263,2.551l-0.033,0.318l-0.009,0.035l-0.042,0.159
	c-0.029,0.093-0.055,0.239-0.086,0.288c-0.018,0.018-0.029,0.037-0.042,0.055c0.067,0.117,0.115,0.252,0.134,0.407
	c0.47,3.82,0.344,7.66,0.333,11.5c-0.002,0.789-0.749,1.09-1.33,0.913l-0.001,0.26l-0.047,6.277l-0.059,6.277l-0.015,1.568l0,0.035
	l0,0.008l-0.004,0.049l-0.017,0.195l-0.035,0.388c-0.071,0.121-0.049,0.22-0.134,0.367c-0.104,0.304-0.32,0.522-0.543,0.74
	c-0.189,0.153-0.423,0.266-0.669,0.361c-0.101,2.467-0.039,4.936-0.312,7.394c-0.073,0.662-0.651,0.973-1.169,0.945
	c-0.043,0.986-0.077,1.972-0.123,2.957l-0.223,4.985l-0.049,0.486c-0.011,0.269-0.07,0.267-0.088,0.343
	c-0.003,0.061-0.065,0.156-0.114,0.25c-0.006,0.02-0.019,0.033-0.028,0.05c0.068,0.526,0.149,1.05,0.243,1.573
	c0.116,0.039,0.229,0.097,0.33,0.178c0.492-0.485,1.552-0.202,1.694,0.565c0.038-0.046,0.084-0.082,0.12-0.13
	c0.185-0.252,0.372-0.502,0.49-0.789c0.133-0.278,0.264-0.549,0.339-0.9c0.083-0.324,0.165-0.72,0.157-0.869l0.021-0.311l0.01-0.155
	l0.009-0.288l0.057-4.947c0.029-3.017,0.074-6.037,0.134-9.058c0.318-0.167,0.623-0.367,0.905-0.608
	c0.536-0.491,1.016-1.096,1.262-1.786c0.154-0.322,0.221-0.759,0.303-1.138l0.027-0.395l0.014-0.195l0.01-0.201l-0.001-0.1
	l-0.015-1.568l-0.06-6.277l-0.047-6.277l-0.011-3.139l-0.004-1.569c-0.021-0.321-0.059-0.668-0.098-0.999
	c-0.052-0.232-0.126-0.464-0.201-0.693l0.085-4.633c0.065-0.063,0.134-0.124,0.194-0.195c0.188-0.252,0.379-0.428,0.541-0.782
	c0.081-0.161,0.157-0.326,0.227-0.49c0.059-0.151,0.063-0.226,0.098-0.341l0.041-0.159l0.021-0.079l0.034-0.162l0.005-0.043
	l0.032-0.335l0.261-2.679c0.037-0.446,0.098-0.895,0.116-1.338l0.035-1.332l0.062-2.348c0.222-0.354,0.415-0.719,0.534-1.148
	c0.067-0.277,0.16-0.649,0.157-0.815l0.026-0.313l0.017-0.243l0.003-0.157l0.039-2.514l0.08-5.028l0.154-9.774
	c1.163-2.472,2.354-4.931,3.545-7.391l0.919-1.901c0.171-0.472,0.33-0.875,0.415-1.344
	C296.25,185.923,296.334,185.45,296.245,184.975z"/>
<path d="M539.404,290.318l-0.006-0.387l-0.021-1.545l-0.04-3.089c-0.109-8.235-0.33-16.474-0.489-24.711l-0.698-24.711l-0.703-24.71
	l-0.626-24.711c-0.195-8.237-0.272-16.474-0.415-24.711l-0.082-12.355l-0.02-3.089c-0.006-0.277,0.006-0.469-0.014-0.818
	l-0.089-0.767c-0.002-0.246-0.136-0.539-0.217-0.81c-0.095-0.275-0.176-0.56-0.335-0.785c-0.489-1.014-1.373-1.758-2.304-2.316
	c-0.953-0.574-2.063-0.754-3.146-0.815l-15.376-0.064c-5.124-0.011-10.249-0.044-15.373-0.138l-15.373-0.233l-15.373-0.354
	l-30.746-0.851c-10.249-0.311-20.498-0.547-30.746-0.799l-15.373-0.262c-5.125-0.108-10.249-0.132-15.374-0.169l-15.373-0.102
	l-15.373,0.035c-5.124-0.004-10.248,0.038-15.373,0.105l-15.373,0.182c-9.556,0.165-19.111,0.341-28.668,0.56
	c-0.562,1.683-1.134,3.363-1.775,5.018c0.062-0.025,0.125-0.05,0.188-0.074c0.034-0.015,0.066-0.036,0.1-0.052
	c10.053,0.235,20.105,0.417,30.159,0.592l15.373,0.182c5.125,0.067,10.248,0.109,15.372,0.105l15.373,0.035l15.373-0.102
	c5.125-0.037,10.249-0.061,15.374-0.169l15.373-0.262c10.248-0.253,20.497-0.488,30.746-0.799l30.746-0.851l15.373-0.354
	l15.373-0.233c5.124-0.095,10.249-0.128,15.373-0.138l15.373-0.065c0.959,0.073,1.938,0.235,2.77,0.751
	c0.802,0.5,1.567,1.149,1.964,2.019c0.144,0.199,0.191,0.418,0.265,0.63c0.061,0.221,0.178,0.397,0.181,0.674l0.08,0.768
	l-0.001,0.726l-0.02,3.089l-0.082,12.355c-0.143,8.237-0.22,16.474-0.414,24.711l-0.627,24.711l-0.703,24.71l-0.698,24.711
	c-0.159,8.237-0.38,16.476-0.489,24.711l-0.04,3.089l-0.021,1.545l-0.005,0.387l-0.003,0.192c-0.002,0.058-0.015,0.046-0.02,0.072
	c-0.025,0.069-0.035,0.136-0.03,0.207c-0.103,0.253-0.208,0.532-0.483,0.769c-0.049,0.072-0.161,0.096-0.226,0.158
	c-0.065,0.064-0.141,0.122-0.244,0.145c-0.088,0.029-0.187,0.094-0.251,0.123c-0.032-0.013-0.051-0.008-0.067,0.021l-0.013,0.025
	l-0.008,0.017l-0.097,0.008l-0.385,0.03l-0.386,0.029l-0.064,0.006l-1.527-0.02l-3.089-0.041l-6.178-0.046l-24.711-0.146
	c-8.237-0.049-16.474-0.112-24.711-0.082l-24.711,0.021c-8.237-0.003-16.475,0.1-24.711,0.146l-24.711,0.178l-49.423,0.387
	c-8.236,0.08-16.474,0.17-24.711,0.309l-20.772,0.363c0.086-0.326,0.172-0.652,0.235-0.98c0.033-0.434,0.049-0.869,0.049-1.301
	c-0.053-0.432-0.121-0.865-0.205-1.29c-0.141-0.423-0.303-0.845-0.477-1.253c-0.101-0.167-0.218-0.323-0.325-0.487
	c0.087-0.16,0.185-0.316,0.26-0.479c0.376-0.703,0.679-1.432,0.969-2.162c0.288-0.731,0.522-1.48,0.743-2.235
	c0.195-0.763,0.396-1.522,0.509-2.317c0.153-0.738,0.207-1.695,0.256-2.516l-0.021-1.068c-0.006-0.59-0.107-1.099-0.254-1.625
	c-0.317-1.025-0.875-1.959-1.657-2.707c-0.784-0.736-1.8-1.318-2.946-1.496c-0.58-0.096-1.101-0.104-1.804,0.01
	c-0.198,0.029-0.259,0.052-0.345,0.074l-0.26,0.066l-0.158,0.045l-0.033,0.014l-0.065,0.025l-0.132,0.053l-0.263,0.105l-2.101,0.849
	c-0.705,0.278-1.402,0.563-2.035,0.91l-1.953,0.989c-1.264,0.636-2.434,1.268-3.649,1.902v0.851c0,0.404-0.242,0.704-0.554,0.863
	c-0.161,0.901-0.352,1.797-0.564,2.69l0.527-0.22c0.675-0.292,1.392-0.558,2.033-0.875c1.286-0.615,2.61-1.274,3.867-1.854
	l1.893-0.881c0.629-0.318,1.261-0.549,1.891-0.771l1.887-0.694l0.233-0.087l0.118-0.044l0.045-0.017l0.21-0.048
	c0.086-0.02,0.198-0.047,0.179-0.027c0.001,0.019,0.202-0.002,0.322,0.04c0.016,0.003,0.032,0.013,0.048,0.017
	c0.623-0.422,1.29-0.774,2.016-0.98c0.092-0.135,0.19-0.266,0.289-0.397c0.01-0.019,0.021-0.035,0.03-0.054
	c0.002,0.002,0.004,0.003,0.006,0.005c0.052-0.068,0.097-0.14,0.15-0.207c0.746-0.926,2.062,0.252,1.57,1.212
	c-0.279,0.544-0.6,1.059-0.937,1.567c0.053,0.123,0.082,0.264,0.073,0.428c-0.092,1.712-0.468,3.253-1.116,4.762
	c-0.222,0.958-0.465,1.91-0.734,2.855c-0.162,1.219-0.279,2.44-0.519,3.648c-0.098,0.479-0.432,0.697-0.797,0.719
	c-0.3,0.979-0.596,1.958-0.87,2.948c-0.11,0.398-0.381,0.6-0.682,0.67l-0.671,1.273c-0.058,0.109-0.092,0.216-0.104,0.333
	c-0.078,0.083-0.131,0.167-0.165,0.271l-1.261,3.896l3.302,0.059l24.711,0.432c8.237,0.139,16.474,0.229,24.711,0.308l49.422,0.388
	l24.711,0.178c8.237,0.045,16.475,0.148,24.711,0.146l24.711,0.021c8.237,0.029,16.475-0.033,24.711-0.082l24.712-0.146l6.178-0.045
	l3.089-0.041l1.545-0.02l0.096-0.002c0.708-0.032,0.252-0.014,0.436-0.024l0.191-0.021l0.385-0.041l0.384-0.041l0.096-0.01
	l0.179-0.037l0.358-0.08c0.479-0.111,0.955-0.248,1.418-0.402c0.408-0.168,0.761-0.357,1.137-0.551
	c0.376-0.178,0.724-0.413,1.056-0.68c0.33-0.265,0.681-0.498,0.971-0.812c1.229-1.188,2.091-2.812,2.452-4.553
	c0.061-0.441,0.106-0.887,0.138-1.33l0.019-0.312L539.404,290.318z"/>
<path d="M287.562,224.659l-0.001,0.005c0.001-0.008,0.003-0.016,0.004-0.02l0,0.004L287.562,224.659z"/>
<path d="M287.565,224.641L287.565,224.641C287.563,224.65,287.561,224.659,287.565,224.641z"/>
<g id="XMLID_2_">
	<g>
		<path fill="#FFFFFF" d="M426.871,74.723c-0.382,0.594-3.371,5.199-9.04,8.641c-5.501,3.345-12.403,6.955-15.366,9.093
			c-0.311,0.231-0.576,0.444-0.798,0.639c-1.766,1.544-4.135,3.283-5.128,4.001c-0.338,0.195-0.471,0.337-0.471,0.337
			c1.489,1.81,0.487,4.188,0.487,4.188c1.49,2.085,0.115,4.613-0.79,5.899c-0.461,0.497-0.852,0.861-0.976,0.994
			c-0.159,0.116-0.204,0.355-0.089,0.533c0.124,0.177,0.382,0.213,0.55,0.097c0.311-0.222,0.64-0.408,0.977-0.541
			c1.605-0.47,3.718-0.337,5.952,0.302c2.423,0.701,5.138,2.652,5.731,3.087c1.056,0.914,2.403,1.827,3.301,2.422
			c0.346,0.23,0.611,0.408,0.736,0.505c1.845,1.411,2.413,2.289,2.511,3.868c0.168,2.484-1.917,2.812-2.006,2.83
			c-0.026,0-0.053,0.009-0.088,0.018c0,0-1.261,0.408-6.176-0.71c-3.122-0.719-6.929-0.728-9.68-0.612
			c-2.652-0.071-4.959-0.408-6.334-0.905c-1.846-0.647-2.493-2.866-2.493-2.866s-1.677-5.97-3.895-15.286
			c-2.191-9.306,1.136-14.301,4.578-16.794c3.434-2.493,10.14-7.097,18.338-14.425c8.206-7.319,9.297-7.718,11.293-6.831
			c2.005,0.878,1.232-0.382-0.7-1.917c-1.917-1.543-1.287-1.339-6.565-3.389c-5.277-2.058-4.328-4.569-4.781-9.741
			c-0.452-5.181,0.01-18.24,0.479-24.628c0.382-5.021,1.811-72.774,1.811-72.774H455.4l-0.018,0.098
			c0,0.062-0.019,0.142-0.027,0.248l-2.988,21.266l-5.412,38.592c-1.038,5.979-4.382,25.453-5.385,31.601
			c-1.197,7.31-2.75,10.096-4.464,11.293c-1.712,1.207-6.146,3.549-6.146,3.549c4.915-0.63,5.713-0.532,7.55,0.319
			c1.854,0.825,3.479,2.174,5.048,4.933c1.366,2.396,3.639,8.366,4.205,9.856c0.213,0.807,0.408,1.703,0.56,2.706
			c0.506,3.185,0.354,7.718,0.274,9.519c-0.054,1.145-0.284,3.087-0.506,5.154c-0.089,0.843-0.188,1.695-0.284,2.52h-9.759
			c-0.222-0.47-0.479-0.958-0.771-1.446c-1.349-2.271-3.867-2.724-5.401-2.892c-1.509-0.169-3.718-0.728-6.876-1.97
			c-3.167-1.251-6.175,1.34-7.408,2.44c-1.215,1.109-2.555,0.585-2.307-0.923c0.249-1.517,3.549-3.416,6.051-5.385
			C423.677,80.375,426.525,75.344,426.871,74.723z"/>
		<path fill="#FFFFFF" d="M449.236,92.413c0.009,0,0.018,0.009,0.025,0.009h-0.089C449.192,92.422,449.21,92.422,449.236,92.413z"/>
		<path fill="#FFFFFF" d="M449.236,92.413c-0.026,0.009-0.044,0.009-0.062,0.009h-0.07h-1.296v-0.009H449.236z"/>
		<polygon fill="#FFFFFF" points="447.808,92.422 449.104,92.422 438.031,92.591 438.049,92.422 438.049,92.413 447.808,92.413 		
			"/>
		<path d="M447.764,72.514c-0.566-1.49-2.839-7.461-4.205-9.856c-1.569-2.759-3.193-4.107-5.048-4.933
			c-1.837-0.852-2.635-0.949-7.55-0.319c0,0,4.437-2.342,6.147-3.549c1.713-1.197,3.266-3.983,4.463-11.293
			c1.003-6.148,4.347-25.621,5.385-31.601l5.412-38.592l2.989-21.266c-0.604,5.323-5.819,64.213-6.165,66.414
			c-2.032,12.757-4.897,30.971-5.084,33.313c-0.274,3.407,2.75,15.206,3.45,16.838c0.809,1.81,1.678,4.09,2.184,7.319
			c0.522,3.309,0.372,7.967,0.284,9.821c-0.055,1.18-0.275,3.149-0.507,5.234c-0.079,0.79-0.169,1.597-0.258,2.378
			c-0.009,0-0.018-0.009-0.025-0.009h-1.43c0.099-0.825,0.195-1.677,0.284-2.52c0.223-2.067,0.452-4.01,0.506-5.154
			c0.08-1.801,0.23-6.334-0.274-9.519C448.172,74.217,447.977,73.321,447.764,72.514z"/>
		<path d="M444.171,108.604c0.328,1.349,0.479,2.777,0.124,4.365l-0.852-6.494C443.728,107.185,444.002,107.938,444.171,108.604z"/>
		<path d="M444.295,112.969c0.354-1.588,0.204-3.016-0.124-4.365c-0.169-0.666-0.442-1.419-0.728-2.129l-0.355-2.697l0.009,0.009
			c0.259,0.595,0.516,1.198,0.737,1.801c1.232,3.353,1.783,5.376,0.691,8.898c0,0.036-0.01,0.053-0.019,0.089L444.295,112.969z"/>
		<path fill="#FFFFFF" d="M442.805,117.201l1.703-2.626C444.047,115.515,443.487,116.394,442.805,117.201z"/>
		<path fill="#FFFFFF" d="M443.088,103.76c0,0.009,0.009,0.018,0.009,0.026l-0.009-0.009V103.76z"/>
		<path fill="#FFFFFF" d="M442.849,103.485l0.223,0.275C442.99,103.68,442.92,103.583,442.849,103.485z"/>
		<path fill="#FFFFFF" d="M441.447,118.434l-1.5,0.887c0.01-0.009,0.019-0.026,0.036-0.035
			C440.355,118.886,440.861,118.593,441.447,118.434z"/>
		<path fill="#FFFFFF" d="M440.409,100.451l-1.65-2.041C439.434,98.881,439.947,99.635,440.409,100.451z"/>
		<path fill="#FFFFFF" d="M439.495,119.516l-1.215,0.408C438.661,119.703,439.078,119.578,439.495,119.516z"/>
		<path d="M438.298,97.683c1.126,0.603,1.756,1.038,2.457,2.085c0.647,1.002,1.349,1.987,1.767,3.096
			c0.089,0.222,0.194,0.435,0.327,0.621l-2.438-3.034c-0.462-0.816-0.977-1.57-1.65-2.041l-0.701-0.87
			C438.129,97.594,438.209,97.639,438.298,97.683z"/>
		<path fill="#FFFFFF" d="M438.28,119.924l-0.666,0.319C437.774,120.093,438.005,119.986,438.28,119.924z"/>
		<path fill="#FFFFFF" d="M437.499,97.621l0.009-0.098c0.178,0,0.364,0.009,0.55,0.018L437.499,97.621z"/>
		<path fill="#FFFFFF" d="M437.464,97.914c0.497,0.053,0.923,0.231,1.295,0.497l1.65,2.041c0.248,0.435,0.479,0.896,0.71,1.339
			c0.39,0.763,0.78,1.473,1.073,1.952c0,0,0.362,0.71,0.798,1.668c0.143,0.337,0.302,0.692,0.453,1.064l0.852,6.494
			c-0.124,0.585-0.319,1.198-0.604,1.828c-0.239,0.453-0.443,0.843-0.647,1.136c-1.127,1.597-1.677,1.952-2.404,2.298l-0.169,0.088
			c-0.397,0.195-0.397,0.195-1.25,0.399c-0.267,0.062-0.604,0.151-1.064,0.257c-0.878,0.222-1.508,0.302-1.979,0.248
			c-0.302-0.035-0.497-0.115-0.691-0.213c-0.089-0.035-0.16-0.062-0.248-0.097L437.464,97.914z"/>
		<path fill="#FFFFFF" d="M437.614,120.244c-0.56,0.044-1.117,0.08-1.677,0.098L437.614,120.244z"/>
		<path fill="#FFFFFF" d="M435.822,120.341l-0.745,0.044c0.098-0.027,0.195-0.036,0.311-0.036
			C435.538,120.35,435.681,120.35,435.822,120.341z"/>
		<path fill="#FFFFFF" d="M434.607,97.976c1.036-0.354,1.941-0.461,2.899-0.452l-0.009,0.098l-3.069,0.417
			C434.491,98.02,434.545,97.994,434.607,97.976z"/>
		<path fill="#FFFFFF" d="M433.32,111.78c-0.516-2.937-1.916-6.716-2.636-8.898c-0.735-2.191,0.933-2.99,0.933-2.99
			s2.555-1.677,5.021-1.979c0.293-0.035,0.567-0.035,0.825,0l-2.227,21c-0.027-0.009-0.055-0.018-0.08-0.027
			c-0.188-0.053-0.355-0.195-0.516-0.354c-0.062-0.115-0.133-0.248-0.222-0.381C433.773,116.952,433.844,114.734,433.32,111.78z"/>
		<path fill="#FFFFFF" d="M433.356,117.236c0.098,0.825,0,1.605-0.17,2.253c-0.142,0.284-0.311,0.577-0.479,0.905l-0.142,0.249
			c-0.656,1.233-1.979,1.792-4.196,2.395c-1.525,0.417-2.591,0.542-3.54,0.417c-0.346-0.026-0.665-0.098-0.896-0.16
			c-0.522-0.124-1.072-0.568-1.499-0.994c-1.127-1.801-0.959-5.492-1.136-8.1c-0.195-2.848-0.284-4.365-0.754-6.521
			c-0.515-2.377-1.101-4.657-0.675-6.778c0.151-0.701,0.398-1.357,0.771-1.925l3.753-2.059c0.933-0.044,1.678,0.053,2.299,0.293
			l0.025,0.009l1.074,0.683c0.363,0.328,0.674,0.754,0.958,1.269c0.913,1.686,0.896,4.117,1.562,7.461
			C430.97,109.997,433.072,115.098,433.356,117.236z"/>
		<path fill="#FFFFFF" d="M427.794,97.905l-1.074-0.683C427.128,97.381,427.483,97.612,427.794,97.905z"/>
		<path d="M425.372,96.379c0.026,0.009,0.053,0.026,0.088,0.026c0.63,0.098,1.233,0.125,1.783,0.461
			c0.728,0.47,1.394,1.233,1.942,1.908l-1.393-0.87c-0.311-0.293-0.666-0.523-1.074-0.683l-0.025-0.009L425.372,96.379z"/>
		<path fill="#FFFFFF" d="M426.693,97.213c-0.621-0.24-1.366-0.337-2.299-0.293l0.978-0.541L426.693,97.213z"/>
		<path d="M424.396,96.92l-3.754,2.059c0.71-1.136,1.872-1.925,3.506-2.05C424.228,96.92,424.315,96.92,424.396,96.92z"/>
		<path fill="#FFFFFF" d="M421.148,119.951c0.134,1.038-0.079,2.076-0.354,2.883c-1.127,1.97-2.671,4.143-3.451,4.303
			c-1.162,0.222-3.31,0.329-4.968,0.08c-0.932-0.151-2.005-1.047-2.786-1.819c-0.852-1.047-1.012-2.458-1.038-3.078
			c2.067,0.346,3.515,0.461,4.81-0.187c0.302-0.133,0.646-0.346,0.967-0.657h0.018c0.497-0.497,0.914-1.25,0.914-2.386
			c0-0.115-0.009-0.24-0.018-0.364c-0.124-2.041-1.003-3.043-2.812-4.427c-0.159-0.106-0.407-0.293-0.779-0.533
			c-0.135-0.097-0.312-0.204-0.472-0.319c-3.743-3.344-3.646-6.618-2.75-9.466c1.013-3.229,3.594-4.755,6.876-4.569l0.337,0.026
			c3.266,0.302,3.113,3.416,3.53,7.55C419.605,111.186,420.883,117.831,421.148,119.951z"/>
		<path d="M425.372,96.379l-0.978,0.541c-0.079,0-0.168,0-0.247,0.009c-1.634,0.125-2.796,0.914-3.506,2.05l-1.26,0.692
			c0.249-0.115,0.453-0.329,0.595-0.648c0.452-0.94,1.102-1.659,1.987-2.209C422.879,96.228,424.228,96.379,425.372,96.379z"/>
		<path fill="#FFFFFF" d="M419.383,99.67c-0.522,0.39-1.286,0.497-1.916-0.062c-0.025-0.027-0.053-0.044-0.08-0.062L419.383,99.67z"
			/>
		<path d="M421.335,82.237c-2.502,1.97-5.802,3.868-6.051,5.385c-0.248,1.508,1.092,2.032,2.307,0.923
			c1.233-1.1,4.241-3.691,7.408-2.44c3.158,1.242,5.367,1.801,6.876,1.97c1.534,0.168,4.054,0.621,5.402,2.892
			c0.293,0.488,0.55,0.976,0.771,1.446l-34.511,0.009c-0.372,0-0.674,0.106-0.896,0.292l-0.178-0.257
			c2.963-2.138,9.865-5.749,15.366-9.093c5.669-3.442,8.658-8.047,9.04-8.641C426.525,75.344,423.677,80.375,421.335,82.237z"/>
		<path fill="#FFFFFF" d="M415.64,99.439l-0.337-0.026c0.07,0,0.15,0,0.223,0.009C415.56,99.422,415.604,99.431,415.64,99.439z"/>
		<path fill="#FFFFFF" d="M415.524,99.422c-0.071-0.009-0.151-0.009-0.223-0.009l-3.123-0.195c1.694-0.133,3.841-0.798,5.207,0.328
			l-1.747-0.106C415.604,99.431,415.56,99.422,415.524,99.422z"/>
		<path fill="#FFFFFF" d="M409.847,100.868l2.333-1.65C411.426,99.786,410.68,100.38,409.847,100.868z"/>
		<path fill="#FFFFFF" d="M408.471,102.651l1.376-1.783c-0.354,0.461-0.675,0.931-1.028,1.41
			C408.72,102.42,408.604,102.545,408.471,102.651z"/>
		<path fill="#FFFFFF" d="M408.231,102.953l-0.427,1.615C407.93,104.026,408.036,103.485,408.231,102.953z"/>
		<path fill="#FFFFFF" d="M407.637,105.224c0.011,0.142,0.02,0.319-0.009,0.47c-0.026,0.213-0.079,0.417-0.105,0.63L407.637,105.224
			z"/>
		<path fill="#FFFFFF" d="M407.434,107.14l0.07-0.701c-0.009,0.071-0.009,0.142-0.009,0.213
			C407.504,106.821,407.478,106.998,407.434,107.14z"/>
		<path fill="#FFFFFF" d="M406.351,127.11c-1.188,1.774-2.899,1.756-4.72,1.73h-0.159c-0.213,0.009-0.426-0.018-0.646-0.036
			c-0.224-0.026-0.427-0.071-0.641-0.115c-3.822-1.011-2.253-4.782-1.641-6.281c0.124-0.328,0.195-0.577,0.239-0.79
			c1.624-0.071,4.88-0.133,7.656,0.346c0.283,0.044,0.541,0.088,0.799,0.124c0.115,0.399,0.266,1.011,0.362,1.748
			c0.071,0.772-0.158,1.508-0.354,1.979C406.998,126.17,406.697,126.623,406.351,127.11z"/>
		<path fill="#FFFFFF" d="M402.297,93.123l-0.666,0.63C401.844,93.531,402.057,93.318,402.297,93.123z"/>
		<path fill="#FFFFFF" d="M400.948,94.4l0.674-0.639C401.409,93.983,401.188,94.206,400.948,94.4z"/>
		<path d="M407.602,123.836c-0.098-0.736-0.248-1.348-0.362-1.748c-0.258-0.036-0.516-0.08-0.799-0.124
			c-2.776-0.479-6.032-0.417-7.656-0.346c-0.044,0.213-0.115,0.461-0.239,0.79c-0.612,1.5-2.183,5.27,1.641,6.281
			c0.214,0.044,0.417,0.089,0.641,0.115c0.222,0.018,0.435,0.044,0.646,0.036h0.159c1.819,0.026,3.531,0.044,4.72-1.73
			c0.348-0.488,0.647-0.94,0.896-1.295C407.442,125.345,407.673,124.608,407.602,123.836z M396.539,97.098
			c0.993-0.719,3.362-2.458,5.128-4.001c0.222-0.195,0.487-0.408,0.798-0.639l0.178,0.257c-0.133,0.106-0.238,0.24-0.327,0.391
			l-0.019,0.018c-0.24,0.195-0.453,0.408-0.666,0.63l-0.009,0.009l-0.674,0.639c-1.021,0.47-1.767,1.384-2.725,1.952
			c-0.824,0.488-1.34,1.58-1.028,2.511c0.222,0.648,0.009,1.739,0.08,2.413c0.105,1.322,0.486,2.422,0.293,3.789
			c-0.268,1.907,1.604,3.052,2.988,2.732c0.044,0.009,0.115,0.044,0.179,0.053c0.887,0.16,1.677,0.594,2.52,0.922
			c0.408,0.168,1.27,0.284,1.57,0.657c0.397,0.55,0.976,0.887,1.686,0.692c0.567-0.168,1.153-0.79,1.082-1.437
			c-0.062-0.506-0.124-1.029-0.159-1.544c0.045-0.142,0.07-0.319,0.062-0.488c0-0.071,0-0.142,0.009-0.213l0.019-0.115
			c0.026-0.213,0.08-0.417,0.105-0.63c0.027-0.151,0.02-0.329,0.009-0.47l0.169-0.657l0.427-1.615
			c0.089-0.08,0.178-0.195,0.238-0.301c0.135-0.106,0.249-0.231,0.348-0.373c0.354-0.479,0.674-0.949,1.028-1.41
			c0.833-0.488,1.579-1.083,2.333-1.65l3.123,0.195c-3.282-0.187-5.863,1.339-6.876,4.569c-0.896,2.848-0.993,6.122,2.75,9.466
			c0.16,0.116,0.337,0.222,0.472,0.319c0.372,0.24,0.62,0.426,0.779,0.533c1.811,1.384,2.688,2.386,2.812,4.427
			c0.009,0.124,0.018,0.249,0.018,0.364c0,1.136-0.417,1.89-0.914,2.386h-0.018c-0.319,0.311-0.665,0.523-0.967,0.657
			c-1.295,0.647-2.741,0.532-4.81,0.187c0.026,0.621,0.188,2.031,1.038,3.078c0.781,0.772,1.854,1.668,2.786,1.819
			c1.658,0.249,3.806,0.142,4.968-0.08c0.78-0.16,2.324-2.333,3.451-4.303c0.275-0.807,0.488-1.845,0.354-2.883
			c-0.267-2.12-1.543-8.765-1.979-12.961c-0.417-4.134-0.266-7.248-3.53-7.55l1.747,0.106c0.027,0.018,0.055,0.036,0.08,0.062
			c0.63,0.559,1.394,0.452,1.916,0.062l1.26-0.692c-0.372,0.567-0.619,1.224-0.771,1.925c-0.426,2.121,0.16,4.4,0.675,6.778
			c0.47,2.156,0.56,3.673,0.754,6.521c0.177,2.608,0.009,6.299,1.136,8.1c0.427,0.426,0.977,0.87,1.499,0.994
			c0.23,0.062,0.551,0.133,0.896,0.16c0.949,0.125,2.015,0,3.54-0.417c2.218-0.603,3.54-1.162,4.196-2.395l0.142-0.249
			c0.169-0.328,0.338-0.621,0.479-0.905c0.17-0.648,0.268-1.429,0.17-2.253c-0.284-2.138-2.388-7.239-3.043-10.602
			c-0.666-3.345-0.648-5.776-1.562-7.461c-0.284-0.515-0.595-0.94-0.958-1.269l1.393,0.87l0.019,0.018
			c0.258,0.603,0.852,0.994,1.65,0.692c1.196-0.47,2.367-1.011,3.574-1.446l3.069-0.417l-0.035,0.292
			c-0.258-0.035-0.532-0.035-0.825,0c-2.467,0.302-5.021,1.979-5.021,1.979s-1.668,0.798-0.933,2.99
			c0.72,2.183,2.12,5.962,2.636,8.898c0.522,2.954,0.453,5.172,1.101,6.37c0.089,0.133,0.159,0.266,0.222,0.381
			c0.159,0.16,0.328,0.302,0.516,0.355c0.025,0.009,0.053,0.018,0.08,0.027l-0.16,1.473h-0.009
			c-0.055-0.027-0.099-0.036-0.143-0.053c-0.213,0.088-0.453,0.168-0.701,0.275c-0.089,0.142-0.169,0.302-0.258,0.47l-0.124,0.249
			c-0.922,1.677-2.571,2.404-5.101,3.087c-1.704,0.47-2.938,0.604-4.081,0.479c-0.417-0.053-0.79-0.125-1.056-0.195
			c-0.463-0.115-0.924-0.355-1.331-0.657c-0.188,0.062-0.383,0.089-0.596,0.116c-0.362,0.612-0.745,1.207-1.116,1.712
			c-1.519,2.147-2.344,2.555-2.965,2.679c-1.18,0.222-3.272,0.346-4.993,0.151c-0.151-0.018-0.303-0.036-0.436-0.062
			c-1.34-0.204-2.671-1.287-3.603-2.227c-0.274,0.426-0.621,0.914-1.021,1.5c-1.624,2.431-4.001,2.396-5.927,2.369h-0.159
			c-0.274,0-0.542-0.018-0.808-0.053c-1.811-0.213-3.132-0.967-3.282-1.056c-0.02-0.009-0.036-0.018-0.062-0.036
			c-0.522-0.346-3.167-2.156-4.046-3.682c-0.541-0.949-0.958-2.404-1.196-3.398c-0.347,0-0.736-0.018-1.162-0.071
			c-0.754-0.089-1.464-0.249-2.076-0.497c-2.298-0.852-3.3-3.842-3.406-4.179l-1.773-5.82c-0.621-2.023-1.306-4.347-1.971-6.601
			c-1.276-4.294-2.582-8.729-3.602-11.684c-1.49-4.312-0.647-7.976,2.502-10.93c1.658-1.562,9.093-9.058,15.161-17.3
			c5.545-7.532,5.854-11.258,5.936-20.937c0.07-8.952-1.118-89.373-1.181-93.268l7.745-0.009c0,0-1.428,67.753-1.811,72.774
			c-0.47,6.388-0.932,19.447-0.479,24.628c0.453,5.172-0.496,7.683,4.782,9.741c5.277,2.05,4.647,1.846,6.564,3.389
			c1.935,1.535,2.705,2.794,0.7,1.917c-1.996-0.887-3.087-0.488-11.293,6.831c-8.198,7.328-14.904,11.932-18.338,14.425
			c-3.442,2.493-6.771,7.488-4.578,16.794c2.218,9.315,3.895,15.286,3.895,15.286s0.647,2.218,2.493,2.866
			c1.375,0.497,3.683,0.834,6.334,0.905c2.751-0.115,6.558-0.106,9.681,0.612c4.915,1.118,6.175,0.71,6.175,0.71
			c0.035-0.009,0.062-0.018,0.088-0.018c0.089-0.018,2.174-0.346,2.006-2.83c-0.098-1.579-0.666-2.458-2.511-3.868
			c-0.125-0.097-0.391-0.275-0.736-0.505c-0.896-0.595-2.245-1.508-3.301-2.422c-0.595-0.435-3.309-2.387-5.73-3.087
			c-2.235-0.639-4.348-0.772-5.952-0.302c-0.337,0.133-0.666,0.319-0.978,0.541c-0.168,0.116-0.426,0.08-0.55-0.097
			c-0.115-0.178-0.07-0.417,0.089-0.533c0.124-0.133,0.516-0.497,0.977-0.994c0.904-1.286,2.279-3.814,0.79-5.899
			c0,0,1.002-2.377-0.488-4.188C396.068,97.435,396.201,97.292,396.539,97.098z"/>
	</g>
	<g>
		<path fill="none" stroke="#000000" stroke-width="0.7436" stroke-linecap="round" stroke-linejoin="round" d="M426.871,74.723
			c-0.382,0.594-3.371,5.199-9.04,8.641c-5.501,3.345-12.403,6.955-15.366,9.093c-0.311,0.231-0.576,0.444-0.798,0.639
			c-1.766,1.544-4.135,3.283-5.128,4.001c-0.338,0.195-0.471,0.337-0.471,0.337c1.489,1.81,0.487,4.188,0.487,4.188
			c1.49,2.085,0.115,4.613-0.79,5.899c-0.461,0.497-0.852,0.861-0.976,0.994c-0.159,0.116-0.204,0.355-0.089,0.533
			c0.124,0.177,0.382,0.213,0.55,0.097c0.311-0.222,0.64-0.408,0.977-0.541c1.605-0.47,3.718-0.337,5.952,0.302
			c2.423,0.701,5.138,2.652,5.731,3.087c1.056,0.914,2.403,1.827,3.301,2.422c0.346,0.23,0.611,0.408,0.736,0.505
			c1.845,1.411,2.413,2.289,2.511,3.868c0.168,2.484-1.917,2.812-2.006,2.83c-0.026,0-0.053,0.009-0.088,0.018
			c0,0-1.261,0.408-6.176-0.71c-3.122-0.719-6.929-0.728-9.68-0.612c-2.652-0.071-4.959-0.408-6.334-0.905
			c-1.846-0.647-2.493-2.866-2.493-2.866s-1.677-5.97-3.895-15.286c-2.191-9.306,1.136-14.301,4.578-16.794
			c3.434-2.493,10.14-7.097,18.338-14.425c8.206-7.319,9.297-7.718,11.293-6.831c2.005,0.878,1.232-0.382-0.7-1.917
			c-1.917-1.543-1.287-1.339-6.565-3.389c-5.277-2.058-4.328-4.569-4.781-9.741c-0.452-5.181,0.01-18.24,0.479-24.628
			c0.382-5.021,1.811-72.774,1.811-72.774l-7.745,0.009c0.062,3.895,1.251,84.316,1.181,93.268
			c-0.08,9.679-0.391,13.405-5.936,20.937c-6.068,8.242-13.503,15.738-15.161,17.3c-3.149,2.954-3.992,6.618-2.502,10.93
			c1.02,2.955,2.323,7.39,3.602,11.684c0.665,2.253,1.35,4.578,1.97,6.601l1.774,5.82c0.105,0.337,1.108,3.327,3.406,4.179
			c0.611,0.248,1.321,0.408,2.076,0.497c0.426,0.053,0.815,0.071,1.161,0.071c0.239,0.994,0.656,2.449,1.197,3.398
			c0.879,1.526,3.522,3.336,4.046,3.682c0.026,0.018,0.044,0.027,0.062,0.036c0.149,0.089,1.473,0.843,3.281,1.056
			c0.267,0.036,0.532,0.053,0.809,0.053h0.159c1.926,0.027,4.303,0.062,5.927-2.369c0.398-0.585,0.745-1.073,1.02-1.5
			c0.933,0.94,2.264,2.023,3.604,2.227c0.133,0.026,0.283,0.044,0.435,0.062c1.722,0.195,3.814,0.071,4.994-0.151
			c0.621-0.124,1.446-0.532,2.964-2.679c0.372-0.505,0.754-1.1,1.117-1.712c0.213-0.027,0.408-0.053,0.595-0.116
			c0.408,0.302,0.869,0.542,1.331,0.657c0.267,0.071,0.64,0.142,1.057,0.195c1.145,0.124,2.377-0.009,4.081-0.479
			c2.527-0.683,4.179-1.41,5.101-3.087l0.124-0.249c0.089-0.168,0.169-0.328,0.258-0.47c0.248-0.106,0.488-0.187,0.701-0.275
			c0.044,0.018,0.088,0.026,0.142,0.053"/>
		<path fill="none" stroke="#000000" stroke-width="0.7436" stroke-linecap="round" stroke-linejoin="round" d="M438.049,92.413
			c-0.222-0.47-0.479-0.958-0.771-1.446c-1.35-2.271-3.868-2.724-5.402-2.892c-1.509-0.169-3.718-0.728-6.876-1.97
			c-3.167-1.251-6.175,1.34-7.408,2.44c-1.215,1.109-2.555,0.585-2.307-0.923c0.249-1.517,3.549-3.416,6.051-5.385
			c2.342-1.863,5.19-6.893,5.536-7.514c0,0,0,0,0-0.009c0.018-0.018,0.018-0.027,0.026-0.036c0.008-0.009,0.009-0.018,0.009-0.018"
			/>
		<path fill="none" stroke="#000000" stroke-width="0.7436" stroke-linecap="round" stroke-linejoin="round" d="M455.402-49.24
			l-0.019,0.098c0,0.062-0.019,0.142-0.026,0.248l-2.989,21.266l-5.412,38.592c-1.038,5.979-4.382,25.453-5.385,31.601
			c-1.197,7.31-2.75,10.096-4.463,11.293c-1.713,1.207-6.147,3.549-6.147,3.549c4.915-0.63,5.713-0.532,7.55,0.319
			c1.854,0.825,3.479,2.174,5.048,4.933c1.366,2.396,3.639,8.366,4.205,9.856c0.213,0.807,0.408,1.703,0.56,2.706
			c0.506,3.185,0.354,7.718,0.274,9.519c-0.054,1.145-0.284,3.087-0.506,5.154c-0.089,0.843-0.187,1.695-0.284,2.52"/>
		<path fill="none" stroke="#000000" stroke-width="0.7436" stroke-linecap="round" stroke-linejoin="round" d="M449.263,92.422
			c0.089-0.781,0.179-1.588,0.259-2.378c0.229-2.085,0.451-4.054,0.506-5.234c0.088-1.854,0.238-6.512-0.284-9.821
			c-0.506-3.229-1.375-5.509-2.184-7.319c-0.7-1.632-3.726-13.432-3.45-16.838c0.187-2.342,3.052-20.556,5.084-33.313
			c0.346-2.2,5.562-61.09,6.165-66.414"/>
		<path fill="none" stroke="#000000" stroke-width="0.7436" stroke-linecap="round" stroke-linejoin="round" d="M440.409,100.451
			c0.248,0.435,0.479,0.896,0.71,1.339c0.39,0.763,0.78,1.473,1.073,1.952c0,0,0.362,0.71,0.798,1.668
			c0.143,0.337,0.302,0.692,0.453,1.064"/>
		<path fill="none" stroke="#000000" stroke-width="0.7436" stroke-linecap="round" stroke-linejoin="round" d="M444.295,112.969
			c-0.124,0.585-0.319,1.198-0.604,1.828c-0.239,0.453-0.443,0.843-0.647,1.136c-1.127,1.597-1.677,1.952-2.404,2.298l-0.169,0.088
			c-0.397,0.195-0.397,0.195-1.25,0.399c-0.267,0.062-0.604,0.151-1.064,0.257c-0.878,0.222-1.508,0.302-1.979,0.248
			c-0.302-0.035-0.497-0.115-0.691-0.213c-0.089-0.035-0.16-0.062-0.248-0.097c-0.027-0.009-0.055-0.018-0.08-0.027
			c-0.188-0.053-0.355-0.195-0.516-0.355c-0.062-0.115-0.133-0.248-0.222-0.381c-0.646-1.198-0.577-3.416-1.101-6.37
			c-0.516-2.937-1.916-6.716-2.636-8.898c-0.735-2.191,0.933-2.99,0.933-2.99s2.555-1.677,5.021-1.979
			c0.293-0.035,0.567-0.035,0.825,0c0.497,0.053,0.923,0.231,1.295,0.497"/>
		<path fill="none" stroke="#000000" stroke-width="0.7436" stroke-linecap="round" stroke-linejoin="round" d="M424.396,96.92
			c0.932-0.044,1.677,0.053,2.298,0.293"/>
		<path fill="none" stroke="#000000" stroke-width="0.7436" stroke-linecap="round" stroke-linejoin="round" d="M427.794,97.905
			c0.363,0.328,0.674,0.754,0.958,1.269c0.913,1.686,0.896,4.117,1.562,7.461c0.655,3.362,2.759,8.463,3.043,10.602
			c0.098,0.825,0,1.605-0.169,2.253c-0.143,0.284-0.312,0.577-0.479,0.905l-0.142,0.249c-0.656,1.233-1.979,1.792-4.196,2.395
			c-1.525,0.417-2.591,0.542-3.54,0.417c-0.346-0.026-0.665-0.098-0.896-0.16c-0.522-0.124-1.072-0.568-1.499-0.994
			c-1.127-1.801-0.959-5.492-1.136-8.1c-0.194-2.848-0.284-4.365-0.754-6.521c-0.515-2.377-1.101-4.657-0.675-6.778
			c0.151-0.701,0.398-1.357,0.771-1.925"/>
		<path fill="none" stroke="#000000" stroke-width="0.7436" stroke-linecap="round" stroke-linejoin="round" d="M401.631,128.84
			h-0.159c-0.213,0.009-0.426-0.018-0.646-0.036c-0.224-0.026-0.427-0.071-0.641-0.115c-3.822-1.011-2.253-4.782-1.641-6.281
			c0.124-0.328,0.195-0.577,0.239-0.79c1.624-0.071,4.88-0.133,7.656,0.346c0.283,0.044,0.541,0.088,0.799,0.124
			c0.115,0.399,0.266,1.011,0.362,1.748c0.071,0.772-0.158,1.508-0.354,1.979c-0.249,0.355-0.55,0.808-0.896,1.295
			C405.162,128.885,403.45,128.867,401.631,128.84z"/>
		<path fill="none" stroke="#000000" stroke-width="0.7436" stroke-linecap="round" stroke-linejoin="round" d="M415.64,99.439
			c3.266,0.302,3.113,3.416,3.53,7.55c0.437,4.196,1.713,10.841,1.979,12.961c0.134,1.038-0.079,2.076-0.354,2.883
			c-1.127,1.97-2.671,4.143-3.451,4.303c-1.162,0.222-3.31,0.329-4.968,0.08c-0.932-0.151-2.005-1.047-2.786-1.819
			c-0.852-1.047-1.012-2.458-1.038-3.078c2.067,0.346,3.515,0.461,4.81-0.187c0.302-0.133,0.646-0.346,0.967-0.657h0.018
			c0.497-0.497,0.914-1.25,0.914-2.386c0-0.115-0.009-0.24-0.018-0.364c-0.124-2.041-1.003-3.043-2.812-4.427
			c-0.158-0.106-0.407-0.293-0.779-0.533c-0.135-0.097-0.312-0.204-0.472-0.319c-3.743-3.344-3.646-6.618-2.75-9.466
			c1.013-3.229,3.594-4.755,6.876-4.569"/>
		<path fill="none" stroke="#000000" stroke-width="0.7436" stroke-linecap="round" stroke-linejoin="round" d="M443.088,103.76
			c0,0.009,0.009,0.018,0.009,0.026c0.259,0.595,0.516,1.198,0.737,1.801c1.232,3.353,1.783,5.376,0.691,8.898
			c0,0.036-0.01,0.053-0.019,0.089"/>
		<path fill="none" stroke="#000000" stroke-width="0.7436" stroke-linecap="round" stroke-linejoin="round" d="M439.495,119.516
			c-0.417,0.062-0.834,0.187-1.215,0.408"/>
		<path fill="none" stroke="#000000" stroke-width="0.7436" stroke-linecap="round" stroke-linejoin="round" d="M442.805,117.201
			c-0.293,0.266-0.567,0.541-0.834,0.834"/>
		<path fill="none" stroke="#000000" stroke-width="0.7436" stroke-linecap="round" stroke-linejoin="round" d="M441.447,118.434
			c-0.586,0.16-1.092,0.453-1.464,0.852c-0.019,0.009-0.026,0.026-0.036,0.035"/>
		<path fill="none" stroke="#000000" stroke-width="0.7436" stroke-linecap="round" stroke-linejoin="round" d="M438.058,97.541
			c0.071,0.053,0.151,0.098,0.24,0.142c1.126,0.603,1.756,1.038,2.457,2.085c0.647,1.002,1.349,1.987,1.767,3.096
			c0.089,0.222,0.194,0.435,0.327,0.621c0.071,0.098,0.143,0.195,0.223,0.275"/>
		<polyline fill="none" stroke="#000000" stroke-width="0.7436" stroke-linecap="round" stroke-linejoin="round" points="
			443.097,103.787 443.088,103.778 443.07,103.76 		"/>
		<path fill="none" stroke="#000000" stroke-width="0.7436" stroke-linecap="round" stroke-linejoin="round" d="M400.948,94.4
			c-1.021,0.47-1.767,1.384-2.725,1.952c-0.824,0.488-1.34,1.58-1.028,2.511c0.222,0.647,0.009,1.739,0.08,2.413
			c0.105,1.322,0.486,2.422,0.293,3.789c-0.268,1.907,1.604,3.052,2.988,2.732"/>
		<path fill="none" stroke="#000000" stroke-width="0.7436" stroke-linecap="round" stroke-linejoin="round" d="M429.195,98.765
			c0,0.009,0.009,0.018,0.009,0.027c0.258,0.603,0.852,0.994,1.649,0.692c1.197-0.47,2.368-1.011,3.575-1.446
			c0.062-0.018,0.115-0.044,0.179-0.062c1.036-0.354,1.941-0.461,2.899-0.452c0.178,0,0.364,0.009,0.55,0.018"/>
		<path fill="none" stroke="#000000" stroke-width="0.7436" stroke-linecap="round" stroke-linejoin="round" d="M425.372,96.379
			c0.026,0.009,0.053,0.026,0.088,0.026c0.63,0.098,1.233,0.125,1.783,0.461c0.728,0.47,1.394,1.233,1.942,1.908"/>
		
			<line fill="none" stroke="#000000" stroke-width="0.7436" stroke-linecap="round" stroke-linejoin="round" x1="429.204" y1="98.792" x2="429.188" y2="98.774"/>
		<path fill="none" stroke="#000000" stroke-width="0.7436" stroke-linecap="round" stroke-linejoin="round" d="M419.383,99.67
			c0.249-0.115,0.453-0.329,0.595-0.648c0.452-0.94,1.102-1.659,1.987-2.209c0.914-0.585,2.263-0.435,3.407-0.435"/>
		<path fill="none" stroke="#000000" stroke-width="0.7436" stroke-linecap="round" stroke-linejoin="round" d="M412.18,99.218
			c1.694-0.133,3.842-0.798,5.207,0.328c0.027,0.018,0.055,0.036,0.08,0.062c0.63,0.559,1.394,0.452,1.916,0.062"/>
		<path fill="none" stroke="#000000" stroke-width="0.7436" stroke-linecap="round" stroke-linejoin="round" d="M407.806,104.567
			c0.124-0.541,0.23-1.083,0.427-1.615"/>
		
			<line fill="none" stroke="#000000" stroke-width="0.7436" stroke-linecap="round" stroke-linejoin="round" x1="407.806" y1="104.567" x2="407.637" y2="105.224"/>
		<path fill="none" stroke="#000000" stroke-width="0.7436" stroke-linecap="round" stroke-linejoin="round" d="M400.558,107.797
			c0.044,0.009,0.115,0.044,0.179,0.053c0.887,0.16,1.677,0.594,2.52,0.922c0.408,0.168,1.27,0.284,1.57,0.657
			c0.397,0.55,0.976,0.887,1.686,0.692c0.567-0.168,1.153-0.79,1.082-1.437c-0.062-0.506-0.124-1.029-0.159-1.544"/>
		<path fill="none" stroke="#000000" stroke-width="0.7436" stroke-linecap="round" stroke-linejoin="round" d="M409.847,100.868
			c0.833-0.488,1.579-1.083,2.333-1.65"/>
		<path fill="none" stroke="#000000" stroke-width="0.7436" stroke-linecap="round" stroke-linejoin="round" d="M408.231,102.953
			c0.089-0.08,0.178-0.195,0.238-0.301"/>
		<path fill="none" stroke="#000000" stroke-width="0.7436" stroke-linecap="round" stroke-linejoin="round" d="M408.471,102.651
			c0.135-0.106,0.249-0.231,0.348-0.373c0.354-0.479,0.674-0.949,1.028-1.41"/>
		<path fill="none" stroke="#000000" stroke-width="0.7436" stroke-linecap="round" stroke-linejoin="round" d="M407.521,106.324
			c0.026-0.213,0.079-0.417,0.105-0.63c0.027-0.151,0.02-0.329,0.009-0.47"/>
		<path fill="none" stroke="#000000" stroke-width="0.7436" stroke-linecap="round" stroke-linejoin="round" d="M407.434,107.14
			c0.044-0.142,0.07-0.319,0.062-0.488c0-0.071,0-0.142,0.009-0.213"/>
		
			<line fill="none" stroke="#000000" stroke-width="0.7436" stroke-linecap="round" stroke-linejoin="round" x1="407.521" y1="106.324" x2="407.504" y2="106.439"/>
		<path fill="none" stroke="#000000" stroke-width="0.7436" stroke-linecap="round" stroke-linejoin="round" d="M438.28,119.924
			c-0.275,0.062-0.506,0.168-0.666,0.319"/>
		<path fill="none" stroke="#000000" stroke-width="0.7436" stroke-linecap="round" stroke-linejoin="round" d="M439.983,119.286
			c-0.169,0.071-0.319,0.168-0.488,0.23"/>
		<path fill="none" stroke="#000000" stroke-width="0.7436" stroke-linecap="round" stroke-linejoin="round" d="M441.979,118.035
			h-0.009c-0.018,0.026-0.036,0.036-0.062,0.062c-0.143,0.106-0.302,0.222-0.461,0.337"/>
		<path fill="none" stroke="#000000" stroke-width="0.7436" stroke-linecap="round" stroke-linejoin="round" d="M444.508,114.575
			c-0.461,0.94-1.021,1.819-1.703,2.626"/>
		<path fill="none" stroke="#000000" stroke-width="0.7436" stroke-linecap="round" stroke-linejoin="round" d="M435.822,120.341
			c-0.143,0.009-0.284,0.009-0.436,0.009c-0.114,0-0.213,0.009-0.311,0.036"/>
		<path fill="none" stroke="#000000" stroke-width="0.7436" stroke-linecap="round" stroke-linejoin="round" d="M437.614,120.244
			c-0.56,0.044-1.117,0.08-1.677,0.098"/>
		
			<line fill="none" stroke="#000000" stroke-width="0.7436" stroke-linecap="round" stroke-linejoin="round" x1="435.822" y1="120.341" x2="435.938" y2="120.341"/>
		
			<line fill="none" stroke="#000000" stroke-width="0.7436" stroke-linecap="round" stroke-linejoin="round" x1="435.068" y1="120.386" x2="435.077" y2="120.386"/>
		<path fill="none" stroke="#000000" stroke-width="0.7436" stroke-linecap="round" stroke-linejoin="round" d="M401.622,93.762
			c-0.213,0.222-0.435,0.444-0.674,0.639"/>
		<path fill="none" stroke="#000000" stroke-width="0.7436" stroke-linecap="round" stroke-linejoin="round" d="M402.297,93.123
			c-0.24,0.195-0.453,0.408-0.666,0.63"/>
		
			<line fill="none" stroke="#000000" stroke-width="0.7436" stroke-linecap="round" stroke-linejoin="round" x1="402.297" y1="93.123" x2="402.314" y2="93.105"/>
		
			<line fill="none" stroke="#000000" stroke-width="0.7436" stroke-linecap="round" stroke-linejoin="round" x1="401.622" y1="93.762" x2="401.631" y2="93.753"/>
		<path fill="none" stroke="#000000" stroke-width="0.7436" stroke-linecap="round" stroke-linejoin="round" d="M449.263,92.422
			c-0.009,0-0.018-0.009-0.025-0.009h-1.43h-9.759l-34.511,0.009c-0.372,0-0.674,0.106-0.896,0.292
			c-0.133,0.106-0.238,0.24-0.327,0.391c0,0.009-0.01,0.009-0.01,0.018"/>
	</g>
</g>
<path fill="#FFFFFF" stroke="#FFFFFF" stroke-width="1.4872" stroke-miterlimit="10" d="M313.341,261.932l-22.306,2.664
	l7.408-105.939c-0.594,0.17-1.226,0.179-1.842,0.057l-14.984,123.729l19.333-8.428l-13.386,49.076L313.341,261.932z"/>
<path fill="#FFFFFF" stroke="#FFFFFF" stroke-width="1.4872" stroke-miterlimit="10" d="M283.801,277.105
	c0.623-0.098,1.262-0.051,1.855,0.127l14.92-123.184l-19.333,8.428l13.386-49.076l-25.779,61.161l22.309-2.666L283.801,277.105z"/>
<g>
	<path fill="#FFFFFF" stroke="#FFFFFF" stroke-width="5.9486" stroke-miterlimit="10" d="M93.32,213.387
		c0-10.993,0-12.992-0.167-15.241c-0.167-2.415-0.583-3.748-2.998-4.081c-0.583-0.083-1.833-0.167-2.499-0.167
		c-0.25,0-0.583-0.167-0.583-0.417c0-0.417,0.333-0.583,1.166-0.583c3.331,0,8.078,0.167,8.495,0.167
		c1.749,0,5.164-0.167,8.578-0.167c12.243,0,15.407,7.079,15.407,10.827c0,5.58-3.664,9.078-7.412,12.409
		c5.58,1.666,12.909,6.746,12.909,14.741c0,7.912-5.913,15.74-18.405,15.74c-1.333,0-3.998-0.083-6.33-0.249
		c-2.332-0.084-4.414-0.167-4.747-0.167c-0.167,0-1.499,0.083-2.998,0.083c-1.499,0.084-3.248,0.167-4.414,0.167
		c-0.75,0-1.166-0.167-1.166-0.583c0-0.25,0.167-0.417,0.583-0.417c0.667,0,1.583-0.249,2.249-0.333
		c1.416-0.25,1.583-1.832,1.916-3.914c0.417-2.915,0.417-8.495,0.417-15.323L93.32,213.387L93.32,213.387z M99.649,214.886
		c0,0.5,0.167,0.667,0.5,0.75c0.417,0.083,1.749,0.333,4.498,0.333c4.081,0,5.663-0.167,7.162-1.833
		c1.583-1.749,2.832-4.164,2.832-7.579c0-5.413-2.998-11.41-10.327-11.41c-0.833,0-2.582,0.083-3.748,0.333
		c-0.666,0.167-0.916,0.333-0.916,0.75L99.649,214.886L99.649,214.886z M99.649,222.715c0,5.496,0,13.991,0.083,15.074
		c0.25,3.414,0.25,4.247,2.499,5.33c1.999,0.916,5.081,0.999,6.413,0.999c4.83,0,10.743-1.832,10.743-10.91
		c0-3.165-1.249-9.244-6.996-12.908c-2.499-1.583-4.831-1.499-6.579-1.832c-0.917-0.167-4.581-0.167-5.747-0.167
		c-0.25,0-0.417,0.167-0.417,0.5L99.649,222.715L99.649,222.715z"/>
	<path fill="#FFFFFF" stroke="#FFFFFF" stroke-width="5.9486" stroke-miterlimit="10" d="M165.191,191.9
		c16.49,0,28.982,10.077,28.982,26.568c0,15.823-11.743,28.898-29.399,28.898c-20.071,0-28.649-15.074-28.649-27.816
		C136.126,208.14,144.954,191.9,165.191,191.9z M166.857,244.451c6.579,0,19.821-3.498,19.821-23.985
		c0-16.99-10.327-25.901-21.903-25.901c-12.242,0-21.07,7.662-21.07,23.07C143.705,234.124,153.615,244.451,166.857,244.451z"/>
	<path fill="#FFFFFF" stroke="#FFFFFF" stroke-width="5.9486" stroke-miterlimit="10" d="M232.482,191.9
		c16.49,0,28.982,10.077,28.982,26.568c0,15.823-11.743,28.898-29.399,28.898c-20.071,0-28.649-15.074-28.649-27.816
		C203.417,208.14,212.245,191.9,232.482,191.9z M234.148,244.451c6.579,0,19.821-3.498,19.821-23.985
		c0-16.99-10.327-25.901-21.903-25.901c-12.242,0-21.07,7.662-21.07,23.07C210.996,234.124,220.906,244.451,234.148,244.451z"/>
	<path fill="#FFFFFF" stroke="#FFFFFF" stroke-width="5.9486" stroke-miterlimit="10" d="M333.171,237.372
		c0.25,2.499,0.749,6.33,3.748,7.329c2.082,0.666,3.997,0.666,4.747,0.666c0.333,0,0.583,0.167,0.583,0.5
		c0,0.416-0.667,0.666-1.499,0.666c-1.666,0-9.828-0.083-12.493-0.333c-1.749-0.167-2.082-0.416-2.082-0.75
		c0-0.249,0.167-0.499,0.5-0.583c0.416-0.083,0.5-1.165,0.333-2.498l-3.498-35.978h-0.166l-17.656,36.145
		c-1.498,3.081-1.914,3.747-2.582,3.747c-0.666,0-1.082-0.666-2.498-3.248c-1.916-3.498-6.746-12.575-8.577-16.406
		c-2.165-4.497-8.078-16.407-9.328-19.322h-0.333l-2.831,31.981c-0.083,1.082-0.083,2.415-0.083,3.581
		c0,1.082,0.666,1.749,1.748,1.998c1.25,0.334,2.332,0.417,2.832,0.417c0.25,0,0.583,0.25,0.583,0.5c0,0.499-0.5,0.666-1.333,0.666
		c-2.748,0-6.246-0.25-6.829-0.25c-0.666,0-4.164,0.25-6.162,0.25c-0.75,0-1.25-0.167-1.25-0.666c0-0.25,0.334-0.5,0.75-0.5
		c0.583,0,1.083-0.083,2.165-0.25c2.415-0.416,2.499-2.998,2.832-5.663l5.33-46.222c0.083-0.75,0.416-1.25,0.833-1.25
		c0.499,0,1.082,0.25,1.499,1.083l22.152,43.973l21.319-43.89c0.334-0.666,0.667-1.166,1.166-1.166c0.5,0,0.917,0.583,1.083,1.916
		L333.171,237.372z"/>
	<path fill="#FFFFFF" stroke="#FFFFFF" stroke-width="5.9486" stroke-miterlimit="10" d="M355.239,213.387
		c0-10.993,0-12.992-0.167-15.241c-0.167-2.415-0.583-3.581-2.998-3.914c-0.583-0.083-1.832-0.167-2.499-0.167
		c-0.249,0-0.583-0.333-0.583-0.583c0-0.417,0.334-0.583,1.166-0.583c3.332,0,8.079,0.167,8.495,0.167c0.5,0,15.823,0.083,17.488,0
		c1.416-0.083,2.748-0.333,3.331-0.417c0.334-0.083,0.667-0.333,1-0.333c0.25,0,0.333,0.333,0.333,0.667
		c0,0.5-0.416,1.333-0.583,3.331c-0.083,0.667-0.25,3.831-0.416,4.664c-0.084,0.333-0.334,0.75-0.667,0.75
		c-0.416,0-0.583-0.333-0.583-0.917c0-0.5-0.083-1.666-0.416-2.498c-0.5-1.166-1.249-1.666-5.246-2.166
		c-1.249-0.167-9.744-0.25-10.576-0.25c-0.334,0-0.417,0.25-0.417,0.75v19.238c0,0.5,0,0.75,0.417,0.75
		c0.916,0,10.576,0,12.242-0.167c1.748-0.167,2.83-0.25,3.58-1c0.5-0.5,0.833-0.916,1.083-0.916c0.249,0,0.416,0.167,0.416,0.583
		s-0.416,1.583-0.583,3.915c-0.167,1.415-0.333,4.08-0.333,4.58c0,0.583-0.167,1.333-0.666,1.333c-0.333,0-0.5-0.25-0.5-0.667
		c0-0.666,0-1.416-0.333-2.332c-0.25-0.999-0.916-1.832-3.748-2.165c-1.998-0.25-9.826-0.333-11.075-0.333
		c-0.417,0-0.5,0.25-0.5,0.5v5.913c0,2.415-0.083,10.659,0,12.075c0.167,4.747,1.499,5.663,8.745,5.663c1.915,0,5.412,0,7.327-0.749
		c1.916-0.833,2.915-2.082,3.332-4.914c0.166-0.833,0.333-1.082,0.749-1.082c0.417,0,0.5,0.582,0.5,1.082s-0.583,5.33-1,6.829
		c-0.499,1.832-1.249,1.832-4.08,1.832c-5.496,0-9.743-0.166-12.741-0.249c-3.082-0.167-4.997-0.167-6.08-0.167
		c-0.166,0-1.582,0-3.165,0.083c-1.415,0.084-3.081,0.167-4.247,0.167c-0.749,0-1.166-0.167-1.166-0.583
		c0-0.25,0.167-0.583,0.583-0.583c0.666,0,1.582-0.25,2.249-0.333c1.415-0.25,1.582-1.666,1.915-3.748
		c0.417-2.915,0.417-8.495,0.417-15.323V213.387L355.239,213.387z"/>
	<path fill="#FFFFFF" stroke="#FFFFFF" stroke-width="5.9486" stroke-miterlimit="10" d="M401.127,213.387
		c0-10.993,0-12.992-0.167-15.241c-0.167-2.415-0.583-3.581-2.998-3.914c-0.583-0.083-1.832-0.167-2.499-0.167
		c-0.249,0-0.582-0.333-0.582-0.583c0-0.417,0.333-0.583,1.165-0.583c3.332,0,8.245,0.167,8.662,0.167
		c0.749,0,6.912-0.167,9.161-0.167c4.663,0,9.827,0.417,13.658,3.082c1.832,1.333,5.08,4.747,5.08,9.661
		c0,5.247-2.165,10.327-8.994,16.157c5.996,7.495,11.076,13.908,15.322,18.321c3.915,3.998,6.33,4.664,8.162,4.914
		c1.416,0.25,2.165,0.25,2.582,0.25c0.416,0,0.666,0.333,0.666,0.583c0,0.416-0.417,0.583-1.749,0.583h-4.581
		c-4.164,0-5.996-0.417-7.827-1.416c-3.165-1.666-5.83-5.08-9.994-10.41c-3.081-3.831-6.329-8.411-7.911-10.327
		c-0.334-0.333-0.5-0.416-1-0.416l-9.327-0.167c-0.333,0-0.5,0.167-0.5,0.583v1.666c0,6.829,0,12.325,0.333,15.24
		c0.25,2.082,0.666,3.415,2.915,3.748c0.999,0.166,2.582,0.333,3.248,0.333c0.5,0,0.583,0.333,0.583,0.583
		c0,0.333-0.333,0.583-1.166,0.583c-3.998,0-8.661-0.25-8.994-0.25c-0.084,0-4.997,0.25-7.246,0.25
		c-0.749,0-1.166-0.167-1.166-0.583c0-0.25,0.167-0.583,0.583-0.583c0.666,0,1.582-0.167,2.249-0.333
		c1.416-0.333,1.582-1.666,1.915-3.748c0.417-2.915,0.417-8.495,0.417-15.323V213.387L401.127,213.387z M407.456,219.384
		c0,0.416,0.167,0.666,0.5,0.916c1.082,0.583,4.83,1.082,8.078,1.082c1.749,0,3.748-0.083,5.497-1.249
		c2.498-1.665,4.413-5.414,4.413-10.827c0-8.828-4.83-13.908-12.658-13.908c-2.166,0-4.498,0.25-5.247,0.417
		c-0.333,0.167-0.583,0.416-0.583,0.833V219.384z"/>
	<path fill="#FFFFFF" stroke="#FFFFFF" stroke-width="5.9486" stroke-miterlimit="10" d="M477.995,243.119
		c7.745,0,9.744-1.25,11.41-3.248c0.749-0.916,1.249-2.832,1.499-3.831c0.166-0.667,0.416-1.083,0.833-1.083
		c0.416,0,0.583,0.25,0.583,1.582c0,2.249-1,6.413-1.5,8.162c-0.416,1.749-0.499,1.832-2.165,1.832
		c-12.242,0-24.651-0.333-37.478-0.333c-0.833,0-1.333-0.083-1.333-0.583c0-0.333,0.083-0.833,1-2.165
		c10.993-15.907,21.819-31.647,31.896-47.388h-15.49c-3.748,0-8.078-0.083-10.41,1.166c-2.582,1.333-3.914,3.915-4.164,5.58
		c-0.167,1.083-0.583,1.249-1,1.249c-0.333,0-0.416-0.333-0.416-0.916c0-0.833,1.083-7.246,1.499-9.411
		c0.083-1,0.25-1.333,0.666-1.333c0.666,0,1.166,0.416,3.082,0.5c6.995,0.25,10.493,0.167,12.825,0.167h20.487
		c1.083,0,1.499,0.167,1.499,0.583c0,0.333-0.083,0.833-0.416,1.25c-10.66,16.323-21.32,32.147-32.397,48.221L477.995,243.119
		L477.995,243.119z"/>
</g>
<g>
	<path d="M93.308,213.399c0-10.993,0-12.992-0.167-15.241c-0.167-2.415-0.583-3.748-2.998-4.081
		c-0.583-0.083-1.833-0.167-2.499-0.167c-0.25,0-0.583-0.167-0.583-0.417c0-0.417,0.333-0.583,1.166-0.583
		c3.331,0,8.078,0.167,8.495,0.167c1.749,0,5.164-0.167,8.578-0.167c12.243,0,15.407,7.079,15.407,10.827
		c0,5.58-3.664,9.078-7.412,12.409c5.58,1.667,12.909,6.747,12.909,14.741c0,7.912-5.913,15.74-18.405,15.74
		c-1.333,0-3.998-0.083-6.33-0.249c-2.332-0.084-4.414-0.167-4.747-0.167c-0.167,0-1.499,0.083-2.998,0.083
		c-1.499,0.084-3.248,0.167-4.414,0.167c-0.75,0-1.166-0.167-1.166-0.583c0-0.25,0.167-0.417,0.583-0.417
		c0.667,0,1.583-0.249,2.249-0.333c1.416-0.249,1.583-1.832,1.916-3.914c0.417-2.915,0.417-8.495,0.417-15.323L93.308,213.399
		L93.308,213.399z M99.638,214.898c0,0.5,0.167,0.667,0.5,0.75c0.417,0.083,1.749,0.333,4.498,0.333
		c4.081,0,5.663-0.167,7.162-1.833c1.583-1.749,2.832-4.164,2.832-7.579c0-5.413-2.998-11.41-10.327-11.41
		c-0.833,0-2.582,0.083-3.748,0.333c-0.666,0.167-0.916,0.333-0.916,0.75L99.638,214.898L99.638,214.898z M99.638,222.729
		c0,5.496,0,13.99,0.083,15.073c0.25,3.414,0.25,4.247,2.499,5.33c1.999,0.916,5.081,0.999,6.413,0.999
		c4.83,0,10.743-1.832,10.743-10.91c0-3.164-1.249-9.244-6.996-12.908c-2.499-1.582-4.831-1.498-6.579-1.832
		c-0.917-0.166-4.581-0.166-5.747-0.166c-0.25,0-0.417,0.166-0.417,0.5L99.638,222.729L99.638,222.729z"/>
	<path d="M165.18,191.913c16.49,0,28.982,10.077,28.982,26.567c0,15.824-11.743,28.898-29.399,28.898
		c-20.071,0-28.649-15.074-28.649-27.816C136.114,208.153,144.942,191.913,165.18,191.913z M166.846,244.464
		c6.579,0,19.821-3.498,19.821-23.985c0-16.989-10.327-25.9-21.903-25.9c-12.242,0-21.07,7.662-21.07,23.07
		C143.693,234.137,153.604,244.464,166.846,244.464z"/>
	<path d="M232.471,191.913c16.49,0,28.982,10.077,28.982,26.567c0,15.824-11.743,28.898-29.399,28.898
		c-20.071,0-28.649-15.074-28.649-27.816C203.405,208.153,212.233,191.913,232.471,191.913z M234.137,244.464
		c6.579,0,19.821-3.498,19.821-23.985c0-16.989-10.327-25.9-21.903-25.9c-12.242,0-21.07,7.662-21.07,23.07
		C210.984,234.137,220.895,244.464,234.137,244.464z"/>
	<path d="M333.159,237.385c0.25,2.499,0.749,6.33,3.748,7.329c2.082,0.666,3.997,0.666,4.747,0.666c0.333,0,0.583,0.167,0.583,0.5
		c0,0.416-0.667,0.666-1.499,0.666c-1.666,0-9.828-0.083-12.493-0.333c-1.749-0.167-2.082-0.416-2.082-0.75
		c0-0.249,0.167-0.499,0.5-0.582c0.416-0.084,0.5-1.166,0.333-2.499l-3.498-35.978h-0.166l-17.656,36.145
		c-1.498,3.081-1.914,3.747-2.582,3.747c-0.666,0-1.082-0.666-2.498-3.248c-1.916-3.497-6.746-12.575-8.578-16.405
		c-2.164-4.498-8.078-16.408-9.328-19.323h-0.333l-2.831,31.981c-0.083,1.082-0.083,2.415-0.083,3.581
		c0,1.082,0.666,1.749,1.748,1.999c1.25,0.333,2.332,0.416,2.832,0.416c0.25,0,0.583,0.25,0.583,0.5c0,0.499-0.5,0.666-1.333,0.666
		c-2.748,0-6.246-0.25-6.829-0.25c-0.666,0-4.164,0.25-6.162,0.25c-0.75,0-1.25-0.167-1.25-0.666c0-0.25,0.334-0.5,0.75-0.5
		c0.583,0,1.083-0.083,2.165-0.25c2.415-0.416,2.499-2.998,2.832-5.663l5.33-46.222c0.083-0.75,0.416-1.25,0.833-1.25
		c0.499,0,1.082,0.25,1.499,1.083l22.152,43.973l21.32-43.89c0.334-0.666,0.667-1.166,1.166-1.166c0.5,0,0.917,0.583,1.083,1.916
		L333.159,237.385z"/>
	<path d="M355.228,213.399c0-10.993,0-12.992-0.167-15.241c-0.167-2.415-0.583-3.581-2.997-3.914
		c-0.583-0.083-1.832-0.167-2.499-0.167c-0.249,0-0.583-0.333-0.583-0.583c0-0.417,0.334-0.583,1.166-0.583
		c3.331,0,8.078,0.167,8.494,0.167c0.5,0,15.824,0.083,17.489,0c1.416-0.083,2.748-0.333,3.331-0.417
		c0.334-0.083,0.667-0.333,1-0.333c0.25,0,0.333,0.333,0.333,0.667c0,0.5-0.416,1.333-0.583,3.331
		c-0.083,0.667-0.25,3.831-0.416,4.664c-0.084,0.333-0.334,0.75-0.667,0.75c-0.416,0-0.583-0.333-0.583-0.917
		c0-0.5-0.083-1.666-0.416-2.498c-0.5-1.166-1.249-1.666-5.247-2.166c-1.249-0.167-9.744-0.25-10.576-0.25
		c-0.334,0-0.417,0.25-0.417,0.75v19.238c0,0.5,0,0.75,0.417,0.75c0.916,0,10.576,0,12.242-0.167c1.749-0.167,2.831-0.25,3.581-1
		c0.5-0.5,0.833-0.916,1.083-0.916c0.249,0,0.416,0.167,0.416,0.583s-0.416,1.583-0.583,3.916c-0.167,1.414-0.333,4.08-0.333,4.58
		c0,0.582-0.167,1.332-0.666,1.332c-0.333,0-0.5-0.25-0.5-0.666c0-0.666,0-1.416-0.333-2.332c-0.25-1-0.916-1.832-3.748-2.166
		c-1.999-0.25-9.827-0.332-11.076-0.332c-0.417,0-0.5,0.25-0.5,0.5v5.912c0,2.416-0.083,10.659,0,12.075
		c0.167,4.747,1.499,5.663,8.745,5.663c1.915,0,5.413,0,7.328-0.749c1.916-0.833,2.915-2.082,3.332-4.914
		c0.166-0.833,0.333-1.083,0.749-1.083c0.417,0,0.5,0.583,0.5,1.083s-0.583,5.33-1,6.829c-0.499,1.832-1.249,1.832-4.08,1.832
		c-5.497,0-9.744-0.166-12.742-0.249c-3.082-0.167-4.997-0.167-6.08-0.167c-0.165,0-1.581,0-3.165,0.083
		c-1.414,0.084-3.08,0.167-4.246,0.167c-0.749,0-1.166-0.167-1.166-0.583c0-0.25,0.167-0.583,0.583-0.583
		c0.666,0,1.582-0.25,2.249-0.333c1.415-0.25,1.582-1.666,1.915-3.748c0.417-2.915,0.417-8.495,0.417-15.323L355.228,213.399
		L355.228,213.399z"/>
	<path d="M401.115,213.399c0-10.993,0-12.992-0.167-15.241c-0.167-2.415-0.583-3.581-2.998-3.914
		c-0.583-0.083-1.832-0.167-2.499-0.167c-0.249,0-0.582-0.333-0.582-0.583c0-0.417,0.333-0.583,1.165-0.583
		c3.332,0,8.245,0.167,8.662,0.167c0.749,0,6.912-0.167,9.161-0.167c4.662,0,9.826,0.417,13.657,3.082
		c1.832,1.333,5.08,4.747,5.08,9.661c0,5.247-2.165,10.327-8.994,16.157c5.996,7.496,11.076,13.908,15.323,18.321
		c3.915,3.998,6.33,4.664,8.162,4.914c1.416,0.25,2.165,0.25,2.582,0.25c0.416,0,0.666,0.333,0.666,0.583
		c0,0.416-0.417,0.583-1.749,0.583h-4.581c-4.164,0-5.996-0.417-7.828-1.416c-3.165-1.666-5.83-5.08-9.994-10.41
		c-3.081-3.831-6.329-8.411-7.91-10.327c-0.335-0.332-0.5-0.416-1-0.416l-9.327-0.166c-0.333,0-0.5,0.166-0.5,0.582v1.666
		c0,6.829,0,12.325,0.333,15.24c0.25,2.082,0.666,3.415,2.915,3.748c0.999,0.166,2.582,0.333,3.248,0.333
		c0.5,0,0.583,0.333,0.583,0.583c0,0.333-0.333,0.583-1.166,0.583c-3.998,0-8.661-0.25-8.994-0.25c-0.084,0-4.997,0.25-7.246,0.25
		c-0.749,0-1.166-0.167-1.166-0.583c0-0.25,0.167-0.583,0.583-0.583c0.666,0,1.582-0.167,2.249-0.333
		c1.416-0.333,1.582-1.666,1.915-3.748c0.417-2.915,0.417-8.495,0.417-15.322V213.399L401.115,213.399z M407.444,219.396
		c0,0.416,0.167,0.666,0.5,0.916c1.082,0.582,4.83,1.082,8.078,1.082c1.749,0,3.747-0.084,5.496-1.25
		c2.498-1.664,4.413-5.414,4.413-10.827c0-8.828-4.83-13.908-12.657-13.908c-2.166,0-4.498,0.25-5.247,0.417
		c-0.333,0.167-0.583,0.416-0.583,0.833V219.396z"/>
	<path d="M477.983,243.132c7.744,0,9.743-1.25,11.409-3.248c0.749-0.916,1.249-2.832,1.499-3.831
		c0.166-0.667,0.416-1.082,0.833-1.082c0.416,0,0.583,0.25,0.583,1.581c0,2.249-1,6.413-1.5,8.162
		c-0.416,1.749-0.499,1.832-2.165,1.832c-12.241,0-24.65-0.333-37.477-0.333c-0.833,0-1.333-0.083-1.333-0.583
		c0-0.333,0.083-0.833,1-2.165c10.993-15.906,21.819-31.647,31.896-47.388h-15.489c-3.748,0-8.078-0.083-10.41,1.166
		c-2.582,1.333-3.914,3.915-4.164,5.58c-0.167,1.083-0.583,1.249-1,1.249c-0.333,0-0.416-0.333-0.416-0.916
		c0-0.833,1.083-7.246,1.499-9.411c0.083-1,0.25-1.333,0.666-1.333c0.666,0,1.166,0.416,3.082,0.5
		c6.995,0.25,10.493,0.167,12.825,0.167h20.486c1.083,0,1.499,0.167,1.499,0.583c0,0.333-0.083,0.833-0.416,1.25
		c-10.659,16.323-21.319,32.146-32.396,48.221L477.983,243.132L477.983,243.132z"/>
</g>
</svg>
