<?xml version="1.0" encoding="utf-8"?>
<!-- Generator: Adobe Illustrator 16.2.0, SVG Export Plug-In . SVG Version: 6.00 Build 0)  -->
<!DOCTYPE svg PUBLIC "-//W3C//DTD SVG 1.1//EN" "http://www.w3.org/Graphics/SVG/1.1/DTD/svg11.dtd">
<svg version="1.1" id="Layer_1" xmlns="http://www.w3.org/2000/svg" xmlns:xlink="http://www.w3.org/1999/xlink" x="0px" y="0px"
	 width="576px" height="54px" viewBox="0 0 576 54" enable-background="new 0 0 576 54" xml:space="preserve" preserveAspectRatio="none">
<g>
	<g>
		<g>
			<g>
				<g>
					
						<linearGradient id="SVGID_1_" gradientUnits="userSpaceOnUse" x1="-408.8589" y1="-820.5381" x2="-408.8589" y2="-881.4743" gradientTransform="matrix(1 0 0 -1 696.9268 -822.8672)">
						<stop  offset="0" style="stop-color:#AB9060"/>
						<stop  offset="0.5" style="stop-color:#574109"/>
						<stop  offset="1" style="stop-color:#3A2600"/>
					</linearGradient>
					<rect x="40.254" y="6.241" fill="url(#SVGID_1_)" width="495.627" height="23.802"/>
					<path d="M536.076,30.236l-31.171,0.457c-10.326,0.121-20.651,0.296-30.978,0.356l-61.954,0.483l-61.952,0.208l-30.978,0.063
						l-30.977-0.068c-10.326-0.035-20.651-0.102-30.977-0.202l-30.977-0.265l-30.977-0.273c-10.326-0.094-20.651-0.196-30.977-0.21
						l-30.977-0.108c-10.326-0.062-20.651-0.031-30.977,0.004l-30.977,0.079l-30.977,0.19l-0.903,0.005l-0.006-0.914L39.175,6.241
						L39.168,5.17l1.086-0.008l61.954-0.468l61.953-0.288l61.954-0.191l61.954-0.082l61.954,0.133l61.952,0.336l30.978,0.176
						l30.978,0.279l30.978,0.278l30.977,0.376l0.536,0.006l-0.007,0.523L536.076,30.236z M535.682,29.842l-0.328-23.601l0.528,0.529
						l-30.977,0.376l-30.978,0.278L442.95,7.703L411.975,7.88l-61.952,0.336l-61.954,0.133l-61.954-0.082l-61.954-0.191
						l-61.953-0.288L40.254,7.32l1.079-1.079l-0.169,23.802l-0.91-0.91l30.977,0.189l30.977,0.082
						c10.326,0.033,20.651,0.062,30.977,0.002l30.977-0.108c10.326-0.015,20.651-0.116,30.977-0.21l30.977-0.273l30.977-0.265
						c10.326-0.102,20.651-0.167,30.977-0.202l30.977-0.07l30.978,0.065l61.952,0.208l61.954,0.482
						c10.325,0.062,20.65,0.238,30.978,0.357L535.682,29.842z"/>
				</g>
				<g>
					<g>
						<g>
							<g>
								
									<radialGradient id="SVGID_2_" cx="-167.5278" cy="-132.7803" r="28.1846" gradientTransform="matrix(0.9277 -0.9302 -0.9277 -0.9302 52.3077 -279.2209)" gradientUnits="userSpaceOnUse">
									<stop  offset="0" style="stop-color:#F7EAC7"/>
									<stop  offset="0.5" style="stop-color:#F2DB9C"/>
									<stop  offset="1" style="stop-color:#CCAD44"/>
								</radialGradient>
								<path fill="url(#SVGID_2_)" d="M37.395,14.764c2.198,2.207,2.198,5.785,0,7.99L24.321,35.861
									c-2.202,2.209-5.77,2.209-7.969,0L3.279,22.754c-2.202-2.205-2.202-5.783,0-7.99l13.073-13.11
									c2.2-2.205,5.768-2.205,7.969,0L37.395,14.764z"/>
								<path d="M37.548,14.639c0,0,0.284,0.317,0.771,0.962c0.43,0.725,1.015,1.849,1.032,3.448
									c-0.025,0.393,0.018,0.826-0.114,1.252c-0.045,0.221-0.091,0.445-0.138,0.675c-0.058,0.228-0.171,0.441-0.261,0.673
									c-0.16,0.479-0.465,0.896-0.777,1.35c-0.309,0.466-0.621,0.805-0.948,1.234c-1.301,1.646-2.754,3.518-4.427,5.473
									c-1.678,1.948-3.597,3.961-5.739,5.976c-0.269,0.25-0.54,0.504-0.813,0.756l-0.417,0.377l-0.209,0.188l-0.149,0.135
									l-0.028,0.021l-0.057,0.041l-0.114,0.084l-0.463,0.33l-0.234,0.164c-0.084,0.058-0.229,0.125-0.342,0.187
									c-0.242,0.124-0.487,0.243-0.733,0.354l-0.369,0.164l-0.355,0.09c-1.88,0.529-3.959,0.193-5.548-0.863
									c-0.422-0.229-0.752-0.578-1.098-0.898c-0.376-0.332-0.583-0.629-0.863-0.942c-0.524-0.628-1.081-1.229-1.632-1.845
									c-1.094-1.24-2.26-2.437-3.459-3.617c-1.193-1.188-2.429-2.352-3.685-3.505l-1.916-1.704L3.49,24.356l-0.487-0.42
									l-0.244-0.21l-0.122-0.105l-0.061-0.053l-0.03-0.025c-0.042-0.045,0.052,0.062-0.103-0.107
									c-0.297-0.332-0.588-0.57-0.892-0.98L1.1,21.734l-0.216-0.37l-0.141-0.366c-0.188-0.49-0.378-0.988-0.429-1.519
									c-0.037-0.262-0.093-0.527-0.107-0.792l0.023-0.802c0.052-1.079,0.427-2.12,0.939-3.088
									c0.294-0.442,0.659-0.905,0.975-1.287L3,12.576C5.303,10.119,7.57,7.7,9.765,5.359c1.098-1.169,2.198-2.298,3.285-3.394
									c0.547-0.544,1.088-1.083,1.623-1.614l0.102-0.099l0.261-0.24l0.221-0.175l0.439-0.347l0.219-0.173l0.371-0.22
									c0.251-0.144,0.506-0.28,0.762-0.409c1.936-0.868,3.948-0.859,5.705-0.206c0.45,0.125,0.841,0.379,1.235,0.605
									c0.406,0.211,0.742,0.508,1.067,0.809c0.165,0.147,0.325,0.296,0.479,0.449c0.139,0.145,0.222,0.258,0.334,0.388
									c0.211,0.251,0.42,0.5,0.627,0.747c1.657,1.971,3.092,3.861,4.393,5.507c1.295,1.651,2.457,3.06,3.443,4.19
									c0.99,1.126,1.793,1.986,2.349,2.563l0.856,0.884L37.548,14.639z M37.248,14.896c-0.038-0.037-0.337-0.328-0.873-0.851
									c-0.576-0.558-1.434-1.363-2.557-2.356c-1.127-0.989-2.533-2.154-4.181-3.454c-1.642-1.306-3.528-2.747-5.494-4.409
									c-0.246-0.208-0.495-0.417-0.746-0.629c-0.122-0.099-0.261-0.229-0.369-0.303c-0.102-0.057-0.198-0.118-0.292-0.182
									c-0.184-0.132-0.365-0.27-0.589-0.331c-0.214-0.074-0.398-0.214-0.634-0.23c-0.436-0.119-0.899-0.157-1.354-0.116
									c-0.438,0.031-0.953,0.203-1.27,0.364c-0.069,0.043-0.14,0.078-0.216,0.107l-0.12,0.041L18.34,2.728L17.913,3.09
									l-0.215,0.182c-0.15,0.135,0.174-0.159,0.132-0.119l-0.024,0.025l-0.049,0.051l-0.098,0.102
									c-0.53,0.536-1.067,1.079-1.609,1.627c-1.093,1.09-2.219,2.193-3.385,3.295c-2.334,2.201-4.747,4.475-7.198,6.786
									l-0.931,0.858l-0.628,0.678c-0.33,0.497-0.646,1.045-0.749,1.672l-0.099,0.47c-0.018,0.159,0,0.319-0.007,0.481
									c-0.036,0.331,0.045,0.646,0.107,0.974l0.043,0.247l0.082,0.197c0.052,0.134,0.1,0.272,0.146,0.417
									c0.143,0.313,0.46,0.693,0.682,1.037l1.603,1.871l1.699,1.92c1.149,1.26,2.311,2.499,3.495,3.696
									c1.179,1.201,2.371,2.37,3.607,3.469c0.613,0.554,1.215,1.111,1.841,1.638c0.305,0.252,0.631,0.573,0.906,0.726
									c0.282,0.188,0.541,0.396,0.866,0.486c1.209,0.509,2.539,0.417,3.566-0.074l0.198-0.074l0.14-0.105
									c0.093-0.066,0.187-0.127,0.282-0.182c0.051-0.035,0.087-0.035,0.154-0.094l0.207-0.197l0.415-0.389
									c0.473-0.515,0.94-1.021,1.401-1.523c2.009-2.147,4.015-4.071,5.961-5.755c1.95-1.678,3.818-3.136,5.461-4.441
									c0.846-0.686,1.555-1.188,1.971-1.894c0.497-0.663,0.702-1.435,0.795-2.129c0.159-1.423-0.332-2.521-0.689-3.164
									C37.556,15.255,37.281,14.934,37.248,14.896z"/>
							</g>
							<g>
								
									<radialGradient id="SVGID_3_" cx="-183.437" cy="-149.646" r="17.4605" gradientTransform="matrix(0.9277 -0.9302 -0.9277 -0.9302 52.3077 -279.2209)" gradientUnits="userSpaceOnUse">
									<stop  offset="0" style="stop-color:#F7EAC7"/>
									<stop  offset="0.5" style="stop-color:#F2DB9C"/>
									<stop  offset="1" style="stop-color:#CCAD44"/>
								</radialGradient>
								<path fill="url(#SVGID_3_)" d="M30.734,16.323c1.342,1.345,1.342,3.527,0,4.868l-7.97,7.991
									c-1.341,1.346-3.514,1.346-4.855,0l-7.968-7.991c-1.342-1.341-1.342-3.523,0-4.868l7.968-7.989
									c1.341-1.343,3.514-1.343,4.855,0L30.734,16.323z"/>
								<path d="M30.887,16.199c0,0,0.172,0.191,0.474,0.585c0.276,0.458,0.652,1.147,0.698,2.157
									c-0.006,0.249,0.03,0.523-0.042,0.798c-0.034,0.284-0.086,0.584-0.215,0.879c-0.091,0.314-0.275,0.594-0.466,0.9
									c-0.188,0.315-0.352,0.525-0.538,0.807c-0.727,1.07-1.531,2.292-2.497,3.537c-0.97,1.24-2.123,2.484-3.455,3.686
									l-0.507,0.449l-0.262,0.221l-0.132,0.111l-0.017,0.014c-0.25,0.226-0.08,0.069-0.14,0.123l-0.036,0.024l-0.071,0.049
									l-0.292,0.189l-0.147,0.095c-0.05,0.03-0.163,0.089-0.243,0.131c-0.343,0.159-0.737,0.377-1.052,0.42
									c-1.313,0.332-2.727,0.043-3.77-0.707c-0.524-0.356-0.971-0.894-1.232-1.245c-0.303-0.398-0.623-0.786-0.948-1.171
									c-0.65-0.773-1.351-1.511-2.083-2.23c-1.457-1.445-3.064-2.787-4.735-4.064l-0.09-0.097L9.07,21.842l-0.036-0.034
									L8.963,21.74L8.82,21.604c-0.101-0.109-0.178-0.137-0.299-0.314c-0.209-0.31-0.494-0.684-0.599-1.002
									c-0.139-0.331-0.277-0.669-0.325-1.032c-0.086-0.359-0.106-0.725-0.088-1.098c0.021-0.746,0.261-1.477,0.609-2.159
									c0.193-0.312,0.454-0.645,0.662-0.904l0.507-0.583c1.363-1.539,2.711-3.046,4.039-4.482
									c0.656-0.726,1.322-1.419,1.983-2.088c0.334-0.331,0.665-0.658,0.992-0.981L16.585,6.7l0.136-0.104l0.271-0.209l0.134-0.104
									L17.4,6.116c0.187-0.11,0.378-0.213,0.571-0.309c1.417-0.624,2.831-0.596,4.079-0.118c0.316,0.097,0.595,0.274,0.87,0.442
									c0.283,0.158,0.518,0.37,0.744,0.586c0.114,0.106,0.225,0.214,0.33,0.324c0.091,0.1,0.131,0.166,0.199,0.25l0.361,0.476
									c0.938,1.273,1.733,2.504,2.458,3.576c0.721,1.075,1.381,1.981,1.955,2.697c0.578,0.712,1.057,1.247,1.392,1.603
									c0.337,0.354,0.517,0.543,0.517,0.543L30.887,16.199z M30.594,16.462c0,0-0.188-0.18-0.542-0.518
									c-0.355-0.335-0.889-0.815-1.599-1.395c-0.715-0.575-1.619-1.238-2.692-1.961c-1.07-0.727-2.299-1.525-3.57-2.466
									L21.716,9.76c-0.075-0.055-0.169-0.138-0.229-0.171c-0.051-0.018-0.097-0.038-0.14-0.06c-0.085-0.047-0.165-0.1-0.266-0.108
									c-0.096-0.015-0.167-0.078-0.27-0.067c-0.181-0.029-0.367-0.031-0.544-0.002c-0.159,0.018-0.395,0.123-0.452,0.162
									c-0.005,0.009-0.013,0.011-0.026,0.006c-0.007-0.001-0.012-0.008-0.025-0.008l-0.128,0.111l-0.258,0.224l-0.13,0.112
									c-0.04,0.036,0.29-0.262,0.143-0.128l-0.015,0.016l-0.03,0.031L19.287,9.94c-0.322,0.328-0.648,0.659-0.979,0.995
									c-0.667,0.663-1.358,1.331-2.082,1.989c-1.433,1.331-2.937,2.684-4.472,4.051l-0.582,0.508
									c-0.128,0.128-0.196,0.197-0.314,0.294c-0.166,0.211-0.347,0.449-0.419,0.743c-0.053,0.144-0.101,0.295-0.101,0.454
									c-0.039,0.163-0.01,0.32,0.003,0.487c0,0.198,0.058,0.245,0.06,0.409c-0.012,0.062,0.117,0.208,0.168,0.309l0.104,0.167
									l0.052,0.084l0.026,0.041l0.013,0.021c-0.027-0.029,0.081,0.094-0.059-0.059c1.273,1.674,2.61,3.285,4.051,4.746
									c0.718,0.733,1.454,1.437,2.224,2.089c0.385,0.327,0.771,0.647,1.168,0.951c0.437,0.342,0.699,0.525,1.043,0.614
									c0.663,0.203,1.327,0.063,1.785-0.229c0.152-0.051,0.134-0.143,0.214-0.172c0.02-0.018,0.019,0,0.059-0.041l0.121-0.127
									l0.243-0.248l0.062-0.061l0.031-0.029c-0.049,0.044,0.133-0.121-0.107,0.096l0.014-0.018l0.11-0.131l0.22-0.264l0.448-0.508
									c1.199-1.334,2.438-2.49,3.676-3.464c1.243-0.969,2.463-1.776,3.53-2.505c0.251-0.178,0.558-0.372,0.74-0.52
									c0.188-0.152,0.384-0.303,0.511-0.5c0.319-0.357,0.466-0.8,0.541-1.205c0.13-0.833-0.151-1.497-0.355-1.873
									c-0.282-0.386-0.456-0.588-0.456-0.588L30.594,16.462z"/>
							</g>
							<g>
								
									<radialGradient id="SVGID_4_" cx="-174.5801" cy="-139.8472" r="8.1694" gradientTransform="matrix(0.9277 -0.9302 -0.9277 -0.9302 52.3077 -279.2209)" gradientUnits="userSpaceOnUse">
									<stop  offset="0" style="stop-color:#F7EAC7"/>
									<stop  offset="0.5" style="stop-color:#F2DB9C"/>
									<stop  offset="1" style="stop-color:#CCAD44"/>
								</radialGradient>
								<path fill="url(#SVGID_4_)" d="M25.383,17.576c0.65,0.653,0.65,1.714,0,2.364l-3.868,3.878
									c-0.649,0.654-1.708,0.654-2.357,0L15.29,19.94c-0.653-0.65-0.653-1.71,0-2.364l3.869-3.879
									c0.648-0.654,1.708-0.654,2.357,0L25.383,17.576z"/>
								<path d="M25.536,17.452c0,0,0.082,0.099,0.234,0.284c0.152,0.243,0.358,0.585,0.426,1.12
									c0.029,0.264,0.041,0.585-0.06,0.931c-0.032,0.184-0.115,0.356-0.207,0.545c-0.067,0.149-0.137,0.305-0.209,0.466
									c-0.27,0.603-0.541,1.313-0.946,1.981c-0.402,0.672-0.939,1.297-1.62,1.847l-0.261,0.203l-0.138,0.097l-0.069,0.049
									c-0.057,0.051,0.116-0.105-0.13,0.116l-0.009,0.005l-0.019,0.01l-0.037,0.021l-0.398,0.207
									c-0.233,0.117-0.536,0.25-0.729,0.266c-0.858,0.164-1.734-0.082-2.34-0.59c-0.304-0.246-0.562-0.593-0.646-0.768
									c-0.122-0.218-0.261-0.422-0.403-0.625c-0.285-0.406-0.616-0.773-0.975-1.119c-0.359-0.346-0.743-0.671-1.16-0.967
									l-0.644-0.429l-0.335-0.201L14.693,20.8l-0.084-0.05l-0.042-0.025l-0.021-0.013l-0.01-0.006
									c-0.035-0.037,0.063,0.074-0.081-0.084c-0.115-0.096-0.191-0.113-0.339-0.271c-0.156-0.188-0.353-0.455-0.43-0.64
									c-0.207-0.402-0.333-0.863-0.331-1.341c-0.001-0.478,0.13-0.96,0.347-1.412c0.113-0.206,0.289-0.441,0.406-0.598
									l0.228-0.301c0.624-0.785,1.233-1.562,1.847-2.29c0.308-0.364,0.623-0.708,0.942-1.034c0.164-0.16,0.325-0.317,0.485-0.473
									l0.216-0.194l0.067-0.049l0.134-0.098l0.067-0.049l0.198-0.128c0.136-0.083,0.276-0.161,0.419-0.229
									c1.001-0.429,1.936-0.385,2.776-0.047c0.409,0.167,0.78,0.419,1.062,0.722c0.074,0.073,0.144,0.149,0.209,0.227
									c0.046,0.06,0.057,0.092,0.086,0.139c0.049,0.088,0.102,0.17,0.146,0.261c0.369,0.704,0.644,1.413,0.906,2.022
									c0.255,0.617,0.512,1.119,0.759,1.499c0.246,0.38,0.464,0.653,0.622,0.832L25.536,17.452L25.536,17.452z M25.237,17.709
									c-0.02-0.018-0.108-0.098-0.262-0.239c-0.178-0.158-0.451-0.377-0.83-0.625c-0.379-0.247-0.88-0.506-1.497-0.763
									c-0.608-0.264-1.316-0.541-2.019-0.912c-0.09-0.044-0.172-0.097-0.26-0.146c-0.04-0.021-0.095-0.061-0.122-0.065
									c-0.01,0.016-0.016,0.028-0.019,0.039c-0.008,0.037-0.007,0.102,0.02,0.136c0.024,0.042,0.061,0.07,0.106,0.089
									c0.064,0.007,0.055,0.057,0.207-0.001c0.046-0.018,0.09-0.044,0.129-0.076c0.019-0.016,0.039-0.035,0.053-0.052
									l-0.061,0.056l-0.122,0.113l-0.06,0.056c-0.14,0.127,0.182-0.165,0.146-0.132l-0.007,0.008l-0.014,0.016l-0.028,0.031
									c-0.155,0.16-0.312,0.322-0.472,0.486c-0.325,0.32-0.669,0.637-1.032,0.945c-0.726,0.616-1.501,1.228-2.284,1.854
									l-0.301,0.229c-0.046,0.031-0.029-0.009-0.069-0.017c-0.033-0.02-0.106-0.03-0.154-0.004
									c-0.074,0.02-0.135,0.076-0.179,0.15c-0.027,0.066-0.057,0.003-0.11,0.045c-0.017,0.056,0.089,0.22,0.128,0.325
									c-0.139-0.152-0.035-0.036-0.064-0.067l0.006,0.01l0.012,0.021l0.025,0.042l0.05,0.084l0.1,0.168l0.201,0.336l0.426,0.645
									c0.295,0.418,0.619,0.803,0.964,1.162c0.345,0.359,0.711,0.692,1.116,0.979c0.367,0.251,0.945,0.658,1.083,0.543
									c0.222-0.045,0.355-0.218,0.356-0.354c0.034-0.028-0.086-0.046-0.114-0.022c-0.007,0-0.033,0.023-0.022,0.008l0.053-0.068
									l0.107-0.135l0.027-0.031l0.014-0.017l0.007-0.008c-0.241,0.218-0.063,0.056-0.116,0.102l0.048-0.069l0.096-0.139
									l0.203-0.262c0.547-0.682,1.171-1.221,1.841-1.625c0.667-0.406,1.378-0.68,1.979-0.952c0.139-0.06,0.324-0.149,0.412-0.178
									c0.091-0.033,0.194-0.071,0.267-0.135c0.169-0.117,0.267-0.295,0.327-0.468c0.108-0.359-0.003-0.675-0.083-0.837
									C25.333,17.826,25.256,17.732,25.237,17.709z"/>
							</g>
						</g>
						<g>
							
								<radialGradient id="SVGID_5_" cx="251.8901" cy="-154.2256" r="15.0066" gradientTransform="matrix(1.3119 0 0 -1.3155 -289.2483 -193.6183)" gradientUnits="userSpaceOnUse">
								<stop  offset="0" style="stop-color:#F7EAC7"/>
								<stop  offset="0.5" style="stop-color:#F2DB9C"/>
								<stop  offset="1" style="stop-color:#CCAD44"/>
							</radialGradient>
							<path fill="url(#SVGID_5_)" d="M45.939,31.492c0,3.172-2.564,5.742-5.729,5.742l0,0c-3.163,0-5.726-2.57-5.726-5.742V6.022
								c0-3.171,2.563-5.743,5.726-5.743l0,0c3.165,0,5.729,2.572,5.729,5.743V31.492z"/>
							<path d="M46.136,31.514c0,0-0.031,0.338-0.09,0.971c-0.023,0.315-0.174,0.72-0.291,1.191
								c-0.059,0.241-0.204,0.455-0.309,0.715c-0.116,0.252-0.235,0.527-0.432,0.773c-0.665,1.051-1.84,2.244-3.691,2.805
								c-0.234,0.055-0.473,0.108-0.714,0.165l-0.373,0.081l-0.434,0.014c-0.451,0.014-0.852,0.086-1.511-0.063
								c-0.296-0.063-0.628-0.115-0.913-0.214c-0.273-0.113-0.55-0.229-0.831-0.346c-0.291-0.105-0.551-0.271-0.808-0.455
								c-0.253-0.187-0.532-0.354-0.77-0.575c-0.954-0.884-1.717-2.086-2.067-3.488c-0.076-0.349-0.111-0.711-0.147-1.073
								l-0.044-0.539V31.05c0.007-0.567,0.017-1.143,0.042-1.727c0.082-2.334,0.396-4.796,0.683-7.342
								c0.286-2.547,0.499-5.179,0.448-7.853c-0.006-1.337-0.059-2.684-0.134-4.037l-0.152-2.033L33.503,7.04l-0.048-0.509
								L33.43,6.276l-0.012-0.127l-0.006-0.063l-0.003-0.032c0.001-0.059-0.008,0.087,0.002-0.14l0.002-1.023
								c0.01-0.353,0.145-0.851,0.237-1.277c0.084-0.473,0.301-0.79,0.459-1.196c0.151-0.401,0.413-0.732,0.657-1.083
								c1.015-1.364,2.572-2.357,4.292-2.687l0.648-0.094l0.326-0.04l0.163-0.018l0.309,0.014l0.995,0.06
								c0.431,0.074,0.946,0.213,1.409,0.349c0.481,0.139,0.812,0.364,1.22,0.556c1.528,0.853,2.716,2.248,3.359,3.851
								c0.136,0.409,0.294,0.817,0.386,1.234c0.064,0.423,0.115,0.85,0.151,1.274c0.034,0.724,0.03,1.272,0.033,1.907
								c0.003,1.226-0.017,2.425-0.047,3.592c-0.076,2.334-0.151,4.541-0.411,6.579c-0.219,2.037-0.537,3.905-0.778,5.559
								c-0.249,1.656-0.421,3.099-0.521,4.287c-0.094,1.188-0.132,2.122-0.146,2.76c-0.012,0.637-0.018,0.976-0.018,0.976V31.514z
								 M45.742,31.492c0,0-0.006-0.34-0.018-0.977c-0.014-0.637-0.053-1.57-0.146-2.759c-0.1-1.188-0.272-2.631-0.521-4.287
								c-0.241-1.654-0.559-3.521-0.778-5.559c-0.259-2.038-0.335-4.244-0.411-6.579c-0.03-1.167-0.05-2.366-0.047-3.592
								c-0.01-0.59,0.026-1.283,0.005-1.807c-0.026-0.198-0.039-0.396-0.037-0.601c-0.03-0.199-0.106-0.387-0.144-0.589
								c-0.25-0.775-0.775-1.49-1.487-1.993c-0.18-0.091-0.385-0.277-0.54-0.319c-0.168-0.05-0.278-0.137-0.488-0.22L40.143,2.07
								l-0.062-0.009L40.05,2.06c-0.171-0.01,0.198,0.007,0.153,0.007l-0.085,0.007l-0.172,0.01l-0.348,0.007
								c-0.917,0.088-1.849,0.476-2.589,1.166c-0.389,0.313-0.706,0.783-0.94,1.191c-0.083,0.227-0.23,0.361-0.309,0.68L35.559,6.13
								l-0.187,1.928l-0.152,2.033c-0.076,1.353-0.128,2.7-0.134,4.037c-0.051,2.674,0.162,5.305,0.448,7.853
								c0.287,2.546,0.601,5.008,0.683,7.342c0.025,0.584,0.036,1.159,0.042,1.727v0.425l0.036,0.295
								c0.031,0.189,0.014,0.387,0.045,0.573c0.168,0.74,0.458,1.435,0.896,2.046c0.105,0.155,0.25,0.271,0.37,0.413
								c0.123,0.144,0.24,0.296,0.397,0.392c0.148,0.117,0.294,0.231,0.439,0.347c0.145,0.103,0.28,0.147,0.421,0.235
								c0.212,0.201,0.725,0.299,1.147,0.404l0.161,0.041l0.08,0.021l0.04,0.01c-0.038-0.001,0.113,0.009-0.08,0l0.017,0.001
								l0.269,0.016c0.183,0.015,0.363,0.025,0.541,0.039c1.446,0.022,2.724-0.705,3.446-1.546c0.218-0.188,0.343-0.425,0.478-0.638
								c0.123-0.216,0.289-0.406,0.347-0.614c0.124-0.415,0.311-0.741,0.33-1.063c0.069-0.633,0.105-0.971,0.105-0.971
								L45.742,31.492z"/>
						</g>
					</g>
					<g>
						<g>
							<g>
								
									<radialGradient id="SVGID_6_" cx="-694.0269" cy="393.7197" r="28.1863" gradientTransform="matrix(-0.9277 -0.9302 0.9277 -0.9302 -452.9952 -279.2209)" gradientUnits="userSpaceOnUse">
									<stop  offset="0" style="stop-color:#F7EAC7"/>
									<stop  offset="0.5" style="stop-color:#F2DB9C"/>
									<stop  offset="1" style="stop-color:#CCAD44"/>
								</radialGradient>
								<path fill="url(#SVGID_6_)" d="M538.743,14.764c-2.2,2.207-2.2,5.785,0,7.99l13.071,13.107c2.201,2.209,5.77,2.209,7.967,0
									l13.079-13.107c2.197-2.205,2.197-5.783,0-7.99l-13.079-13.11c-2.197-2.205-5.766-2.205-7.967,0L538.743,14.764z"/>
								<path d="M538.896,14.888c-0.002,0-0.285,0.327-0.754,0.964c-0.356,0.643-0.85,1.741-0.69,3.164
									c0.095,0.693,0.3,1.465,0.796,2.128c0.416,0.705,1.126,1.208,1.972,1.894c1.644,1.306,3.512,2.765,5.46,4.442
									c1.946,1.683,3.951,3.607,5.961,5.756c0.461,0.5,0.929,1.009,1.4,1.522l0.415,0.39l0.207,0.197
									c0.065,0.059,0.103,0.059,0.154,0.094c0.096,0.054,0.188,0.112,0.28,0.181l0.142,0.106l0.198,0.073
									c1.026,0.491,2.355,0.583,3.564,0.073c0.325-0.089,0.584-0.299,0.866-0.486c0.272-0.152,0.602-0.476,0.906-0.726
									c0.626-0.525,1.228-1.084,1.841-1.638c1.236-1.098,2.43-2.268,3.607-3.469c2.377-2.385,4.653-4.946,6.871-7.563
									c-0.138,0.15-0.023,0.022-0.05,0.048l0.022-0.033l0.046-0.065l0.092-0.133l0.184-0.264c0.101-0.168,0.294-0.372,0.315-0.51
									c0.045-0.146,0.093-0.284,0.146-0.418l0.081-0.197l0.044-0.247c0.062-0.327,0.145-0.643,0.107-0.975
									c-0.006-0.162,0.011-0.323-0.007-0.481l-0.1-0.47c-0.102-0.627-0.418-1.176-0.748-1.673l-0.626-0.678l-0.932-0.858
									c-2.451-2.311-4.864-4.584-7.199-6.784c-1.166-1.101-2.293-2.205-3.386-3.294c-0.542-0.549-1.079-1.091-1.609-1.627
									l-0.099-0.102l-0.046-0.05l-0.024-0.025c-0.147-0.136,0.176,0.156,0.133,0.118l-0.216-0.182l-0.428-0.363l-0.213-0.18
									l-0.12-0.042c-0.077-0.029-0.146-0.064-0.217-0.106c-0.314-0.161-0.83-0.333-1.269-0.364
									c-0.454-0.042-0.918-0.004-1.354,0.116c-0.236,0.016-0.421,0.156-0.635,0.23c-0.226,0.062-0.405,0.198-0.59,0.331
									c-0.094,0.064-0.189,0.125-0.292,0.182c-0.107,0.072-0.247,0.204-0.368,0.302c-0.251,0.212-0.499,0.421-0.745,0.629
									c-1.967,1.662-3.854,3.103-5.494,4.409c-1.648,1.3-3.053,2.465-4.181,3.455c-1.122,0.993-1.98,1.799-2.557,2.356
									c-0.574,0.56-0.881,0.858-0.881,0.858L538.896,14.888z M538.604,14.625c0,0,0.299-0.307,0.855-0.883
									c0.556-0.578,1.358-1.438,2.349-2.564c0.986-1.13,2.147-2.539,3.442-4.19c1.302-1.646,2.736-3.536,4.393-5.507
									c0.207-0.247,0.416-0.496,0.627-0.747c0.113-0.13,0.195-0.243,0.337-0.389c0.152-0.152,0.313-0.301,0.479-0.448
									c0.325-0.302,0.662-0.597,1.067-0.809c0.394-0.227,0.785-0.48,1.234-0.605c1.758-0.653,3.77-0.662,5.705,0.208
									c0.257,0.129,0.513,0.266,0.764,0.41l0.368,0.219l0.22,0.173l0.438,0.348l0.222,0.174l0.259,0.239l0.102,0.099
									c0.535,0.532,1.076,1.07,1.623,1.614c1.088,1.095,2.188,2.224,3.287,3.393c2.194,2.34,4.462,4.758,6.767,7.216l0.855,0.933
									c0.318,0.384,0.681,0.846,0.976,1.289c0.513,0.969,0.887,2.01,0.938,3.088l0.021,0.802c-0.015,0.265-0.068,0.53-0.105,0.792
									c-0.052,0.53-0.242,1.027-0.43,1.518l-0.142,0.367l-0.216,0.369l-0.45,0.719c-0.155,0.255-0.298,0.338-0.447,0.516
									l-0.517,0.547c-2.614,2.225-5.17,4.505-7.549,6.888c-1.2,1.183-2.366,2.378-3.461,3.615
									c-0.553,0.615-1.108,1.22-1.633,1.847c-0.28,0.313-0.486,0.608-0.862,0.94c-0.347,0.321-0.676,0.672-1.099,0.9
									c-1.589,1.059-3.668,1.395-5.548,0.863l-0.355-0.09l-0.369-0.162c-0.245-0.112-0.491-0.231-0.732-0.355
									c-0.112-0.061-0.259-0.129-0.343-0.186l-0.232-0.166l-0.464-0.329l-0.113-0.083l-0.058-0.042l-0.027-0.021l-0.149-0.135
									l-0.21-0.188l-0.416-0.375c-0.272-0.254-0.544-0.506-0.812-0.758c-2.143-2.015-4.062-4.025-5.738-5.977
									c-1.673-1.954-3.125-3.826-4.428-5.473c-0.325-0.43-0.64-0.768-0.946-1.233c-0.312-0.452-0.617-0.87-0.777-1.35
									c-0.089-0.231-0.203-0.444-0.261-0.673c-0.047-0.23-0.094-0.455-0.139-0.674c-0.133-0.427-0.089-0.86-0.113-1.252
									c0.018-1.6,0.604-2.724,1.033-3.448c0.486-0.645,0.771-0.961,0.771-0.961L538.604,14.625z"/>
							</g>
							<g>
								
									<radialGradient id="SVGID_7_" cx="-709.9375" cy="376.8525" r="17.4614" gradientTransform="matrix(-0.9277 -0.9302 0.9277 -0.9302 -452.9952 -279.2209)" gradientUnits="userSpaceOnUse">
									<stop  offset="0" style="stop-color:#F7EAC7"/>
									<stop  offset="0.5" style="stop-color:#F2DB9C"/>
									<stop  offset="1" style="stop-color:#CCAD44"/>
								</radialGradient>
								<path fill="url(#SVGID_7_)" d="M545.401,16.323c-1.337,1.345-1.337,3.527,0,4.868l7.97,7.991
									c1.344,1.346,3.517,1.346,4.854,0l7.971-7.991c1.343-1.341,1.343-3.523,0-4.868l-7.971-7.989
									c-1.338-1.343-3.511-1.343-4.854,0L545.401,16.323z"/>
								<path d="M545.555,16.447c0,0-0.174,0.202-0.454,0.589c-0.202,0.376-0.482,1.041-0.353,1.874
									c0.074,0.405,0.222,0.848,0.54,1.205c0.265,0.385,0.686,0.622,1.249,1.02c1.066,0.729,2.287,1.537,3.53,2.506
									c1.237,0.973,2.478,2.129,3.676,3.464l0.448,0.508l0.221,0.263l0.11,0.132c-0.052-0.044,0.132,0.123-0.109-0.095
									l0.016,0.015l0.03,0.03l0.062,0.062l0.242,0.248l0.121,0.125c0.037,0.037,0.038,0.023,0.059,0.041
									c0.08,0.027,0.062,0.121,0.215,0.172c0.46,0.293,1.123,0.432,1.785,0.229c0.343-0.088,0.606-0.275,1.044-0.617
									c0.396-0.303,0.784-0.625,1.169-0.951c0.77-0.652,1.506-1.355,2.224-2.088c0.727-0.727,1.405-1.51,2.09-2.292l0.994-1.212
									l0.484-0.621l0.241-0.311l0.121-0.155l0.061-0.077l0.03-0.039l0.016-0.02c-0.027,0.029,0.081-0.092-0.058,0.061
									c0.121-0.212,0.319-0.471,0.376-0.644c0.002-0.164,0.061-0.21,0.06-0.409c0.014-0.167,0.042-0.324,0.003-0.487
									c0-0.159-0.049-0.31-0.101-0.454c-0.072-0.294-0.254-0.532-0.42-0.743c-0.119-0.097-0.187-0.165-0.314-0.294l-0.582-0.508
									c-1.535-1.367-3.039-2.719-4.473-4.05c-0.725-0.658-1.415-1.325-2.082-1.988c-0.33-0.335-0.656-0.667-0.979-0.994
									l-0.06-0.062l-0.029-0.031l-0.015-0.016c-0.146-0.132,0.181,0.162,0.141,0.127l-0.129-0.112l-0.258-0.224l-0.129-0.111
									c-0.013,0.001-0.019,0.008-0.024,0.01c-0.013,0.005-0.02,0.003-0.023-0.006c-0.058-0.039-0.292-0.144-0.451-0.161
									c-0.178-0.029-0.363-0.027-0.545,0.003c-0.104-0.012-0.174,0.052-0.271,0.067c-0.102,0.008-0.182,0.061-0.267,0.108
									c-0.044,0.022-0.09,0.043-0.141,0.06c-0.059,0.031-0.154,0.115-0.229,0.17l-0.476,0.362c-1.271,0.941-2.5,1.739-3.569,2.466
									c-1.073,0.724-1.979,1.386-2.692,1.961c-0.711,0.58-1.244,1.06-1.6,1.396c-0.354,0.338-0.541,0.518-0.541,0.518
									L545.555,16.447z M545.262,16.184c0,0,0.181-0.189,0.518-0.543c0.335-0.356,0.812-0.891,1.392-1.603
									c0.573-0.716,1.233-1.622,1.954-2.697c0.725-1.072,1.521-2.303,2.457-3.576l0.361-0.477
									c0.067-0.084,0.106-0.149,0.201-0.251c0.104-0.11,0.215-0.218,0.328-0.324c0.227-0.216,0.461-0.428,0.743-0.586
									c0.275-0.167,0.554-0.345,0.87-0.442c1.246-0.478,2.661-0.508,4.079,0.117c0.192,0.095,0.384,0.199,0.571,0.309l0.273,0.168
									l0.135,0.104l0.271,0.209l0.135,0.105l0.283,0.26c0.326,0.323,0.657,0.65,0.991,0.981c0.661,0.668,1.327,1.361,1.982,2.087
									c1.327,1.436,2.677,2.943,4.039,4.481l0.507,0.583c0.209,0.258,0.47,0.592,0.662,0.903c0.35,0.682,0.59,1.413,0.61,2.158
									c0.018,0.373-0.002,0.739-0.088,1.098c-0.049,0.362-0.187,0.702-0.325,1.033c-0.104,0.318-0.388,0.691-0.598,1.002
									c-0.217,0.27-0.39,0.387-0.585,0.587c-0.15,0.164-0.054,0.054-0.092,0.095l-0.02,0.016l-0.039,0.029l-0.077,0.061
									l-0.155,0.122l-0.311,0.243l-0.619,0.485l-1.209,0.997c-0.781,0.688-1.562,1.368-2.286,2.096
									c-0.73,0.719-1.434,1.457-2.083,2.229c-0.325,0.386-0.646,0.772-0.948,1.171c-0.263,0.354-0.703,0.887-1.229,1.246
									c-1.043,0.752-2.457,1.041-3.771,0.71c-0.313-0.042-0.709-0.259-1.051-0.419l-0.246-0.131l-0.146-0.094l-0.291-0.189
									l-0.071-0.049l-0.036-0.024l-0.018-0.013l-0.141-0.125l-0.132-0.111l-0.262-0.221l-0.508-0.449
									c-1.331-1.201-2.484-2.444-3.454-3.686c-0.966-1.244-1.771-2.467-2.497-3.535c-0.188-0.283-0.349-0.492-0.538-0.809
									c-0.19-0.307-0.374-0.586-0.465-0.9c-0.129-0.295-0.182-0.595-0.215-0.879c-0.072-0.274-0.036-0.549-0.042-0.798
									c0.045-1.009,0.419-1.7,0.693-2.157c0.302-0.396,0.474-0.586,0.474-0.586L545.262,16.184z"/>
							</g>
							<g>
								
									<radialGradient id="SVGID_8_" cx="-701.0801" cy="386.6533" r="8.1642" gradientTransform="matrix(-0.9277 -0.9302 0.9277 -0.9302 -452.9952 -279.2209)" gradientUnits="userSpaceOnUse">
									<stop  offset="0" style="stop-color:#F7EAC7"/>
									<stop  offset="0.5" style="stop-color:#F2DB9C"/>
									<stop  offset="1" style="stop-color:#CCAD44"/>
								</radialGradient>
								<path fill="url(#SVGID_8_)" d="M550.753,17.576c-0.649,0.653-0.649,1.714,0,2.364l3.867,3.878
									c0.655,0.654,1.71,0.654,2.357,0l3.872-3.878c0.65-0.65,0.65-1.71,0-2.364l-3.872-3.879c-0.647-0.654-1.702-0.654-2.357,0
									L550.753,17.576z"/>
								<path d="M550.906,17.7c0,0-0.085,0.101-0.216,0.287c-0.08,0.162-0.192,0.478-0.083,0.837
									c0.06,0.173,0.156,0.351,0.325,0.468c0.073,0.064,0.177,0.103,0.268,0.135c0.088,0.029,0.271,0.119,0.412,0.178
									c0.602,0.271,1.312,0.545,1.979,0.952c0.67,0.403,1.294,0.942,1.842,1.626l0.202,0.262l0.098,0.138l0.048,0.069
									c0.113,0.105-0.149-0.133-0.119-0.105l0.007,0.008l0.014,0.017l0.027,0.032l0.107,0.134l0.054,0.068
									c0.011,0.015-0.016-0.007-0.021-0.007c-0.025-0.023-0.144-0.005-0.109,0.023c0.004,0.138,0.134,0.312,0.355,0.354
									c0.139,0.114,0.718-0.293,1.084-0.544c0.404-0.286,0.771-0.618,1.116-0.978c0.346-0.359,0.67-0.744,0.965-1.162l0.428-0.645
									l0.2-0.335l0.101-0.168l0.05-0.084l0.024-0.042l0.014-0.021l0.006-0.011c-0.03,0.033,0.077-0.087-0.066,0.07
									c0.039-0.105,0.146-0.269,0.128-0.326c-0.053-0.042-0.083,0.021-0.108-0.045c-0.045-0.075-0.105-0.131-0.18-0.152
									c-0.049-0.027-0.121-0.017-0.154,0.002c-0.04,0.009-0.025,0.045-0.067,0.019l-0.301-0.229
									c-0.783-0.625-1.56-1.237-2.285-1.853c-0.363-0.308-0.707-0.625-1.032-0.945c-0.158-0.164-0.315-0.326-0.473-0.486
									l-0.027-0.031l-0.014-0.016l-0.008-0.008c-0.138-0.126,0.181,0.163,0.146,0.131l-0.062-0.057l-0.122-0.113l-0.062-0.056
									c0.016,0.016,0.034,0.036,0.055,0.051c0.039,0.032,0.083,0.058,0.129,0.076c0.215,0.059,0.247-0.017,0.312-0.087
									c0.026-0.034,0.024-0.098,0.016-0.132c-0.004-0.01-0.01-0.022-0.021-0.038c-0.015-0.008-0.079,0.042-0.115,0.059
									c-0.089,0.05-0.171,0.103-0.261,0.147c-0.703,0.372-1.411,0.648-2.02,0.912c-0.616,0.257-1.118,0.516-1.497,0.764
									c-0.379,0.248-0.651,0.467-0.829,0.625c-0.176,0.16-0.271,0.245-0.271,0.245L550.906,17.7z M550.613,17.437
									c0,0,0.085-0.094,0.244-0.27c0.156-0.178,0.376-0.452,0.621-0.832c0.246-0.38,0.505-0.882,0.76-1.499
									c0.263-0.609,0.537-1.318,0.905-2.022c0.046-0.09,0.098-0.173,0.146-0.261c0.032-0.05,0.033-0.073,0.093-0.145
									c0.064-0.077,0.135-0.151,0.208-0.224c0.281-0.299,0.649-0.55,1.059-0.717c0.837-0.337,1.774-0.383,2.775,0.047
									c0.144,0.069,0.283,0.146,0.419,0.229l0.198,0.128l0.067,0.049l0.134,0.098l0.066,0.049l0.216,0.193
									c0.159,0.156,0.32,0.313,0.484,0.473c0.319,0.326,0.635,0.67,0.942,1.034c0.614,0.728,1.225,1.504,1.849,2.289l0.229,0.301
									c0.122,0.161,0.294,0.394,0.407,0.6c0.216,0.453,0.347,0.934,0.345,1.411c0.002,0.478-0.124,0.938-0.33,1.339
									c-0.076,0.185-0.272,0.452-0.428,0.64c-0.147,0.158-0.225,0.177-0.339,0.271c-0.147,0.162-0.048,0.049-0.083,0.087
									l-0.011,0.007l-0.021,0.012l-0.042,0.025l-0.084,0.05l-0.168,0.101l-0.335,0.201l-0.645,0.428
									c-0.417,0.296-0.803,0.621-1.161,0.967c-0.357,0.346-0.689,0.713-0.976,1.119c-0.144,0.202-0.281,0.406-0.403,0.625
									c-0.083,0.174-0.34,0.52-0.645,0.767c-0.604,0.509-1.483,0.754-2.341,0.591c-0.193-0.017-0.494-0.147-0.727-0.262
									l-0.398-0.207l-0.036-0.021l-0.02-0.011l-0.01-0.004c0.023,0.022-0.244-0.22-0.135-0.12l-0.069-0.049l-0.138-0.097
									l-0.263-0.203c-0.681-0.549-1.218-1.176-1.618-1.846c-0.405-0.669-0.678-1.381-0.946-1.983
									c-0.072-0.16-0.143-0.315-0.209-0.466c-0.093-0.189-0.175-0.361-0.207-0.545c-0.102-0.346-0.089-0.667-0.061-0.931
									c0.067-0.535,0.272-0.877,0.427-1.12c0.151-0.185,0.232-0.284,0.232-0.284L550.613,17.437z"/>
							</g>
						</g>
						<g>
							
								<radialGradient id="SVGID_9_" cx="-492.6831" cy="-154.2256" r="15.0062" gradientTransform="matrix(-1.3119 0 0 -1.3155 -111.4334 -193.6183)" gradientUnits="userSpaceOnUse">
								<stop  offset="0" style="stop-color:#F7EAC7"/>
								<stop  offset="0.5" style="stop-color:#F2DB9C"/>
								<stop  offset="1" style="stop-color:#CCAD44"/>
							</radialGradient>
							<path fill="url(#SVGID_9_)" d="M530.201,31.492c0,3.172,2.563,5.742,5.728,5.742l0,0c3.161,0,5.728-2.57,5.728-5.742V6.022
								c0-3.171-2.565-5.743-5.728-5.743l0,0c-3.163,0-5.728,2.572-5.728,5.743V31.492z"/>
							<path d="M530.396,31.473c0,0,0.036,0.338,0.105,0.971c0.02,0.322,0.206,0.648,0.33,1.063
								c0.058,0.208,0.224,0.397,0.348,0.614c0.136,0.213,0.26,0.449,0.478,0.638c0.723,0.841,2,1.569,3.445,1.546
								c0.178-0.014,0.357-0.025,0.54-0.037l0.27-0.018c-0.039,0.002,0.109-0.006-0.083,0.004l0.021-0.005l0.039-0.011l0.08-0.021
								l0.161-0.041c0.424-0.104,0.935-0.202,1.146-0.405c0.142-0.088,0.275-0.133,0.422-0.234c0.145-0.113,0.291-0.229,0.438-0.346
								c0.158-0.096,0.275-0.25,0.397-0.392c0.12-0.144,0.266-0.259,0.37-0.414c0.438-0.61,0.729-1.305,0.896-2.045
								c0.031-0.188,0.014-0.385,0.045-0.573l0.036-0.297v-0.424c0.007-0.566,0.017-1.143,0.043-1.727
								c0.081-2.334,0.396-4.796,0.683-7.342s0.498-5.178,0.447-7.852c-0.006-1.337-0.059-2.685-0.134-4.037l-0.153-2.033
								l-0.186-1.928l-0.201-1.003c-0.078-0.318-0.226-0.453-0.309-0.68c-0.235-0.408-0.553-0.877-0.94-1.19
								c-0.741-0.689-1.673-1.078-2.59-1.166l-0.349-0.007l-0.172-0.01l-0.086-0.007c-0.045,0,0.325-0.017,0.153-0.007l-0.031,0.005
								l-0.062,0.009l-0.987,0.141c-0.209,0.083-0.319,0.169-0.487,0.22c-0.153,0.042-0.359,0.228-0.54,0.319
								c-0.713,0.502-1.236,1.218-1.485,1.993c-0.038,0.202-0.114,0.39-0.146,0.588c0.001,0.205-0.011,0.403-0.037,0.601
								c-0.021,0.524,0.016,1.217,0.005,1.807c0.004,1.226-0.017,2.425-0.048,3.592c-0.074,2.334-0.149,4.541-0.409,6.578
								c-0.22,2.037-0.537,3.905-0.777,5.559c-0.249,1.656-0.422,3.099-0.521,4.287c-0.094,1.188-0.133,2.122-0.146,2.759
								c-0.012,0.637-0.019,0.977-0.019,0.977V31.473z M530.004,31.492c0,0-0.006-0.34-0.018-0.977
								c-0.015-0.637-0.054-1.57-0.146-2.759c-0.1-1.188-0.271-2.631-0.521-4.287c-0.24-1.654-0.56-3.521-0.777-5.559
								c-0.26-2.037-0.335-4.244-0.41-6.578c-0.03-1.167-0.051-2.366-0.048-3.592c0.002-0.634-0.002-1.183,0.032-1.906
								c0.036-0.425,0.087-0.852,0.151-1.274c0.093-0.417,0.25-0.826,0.387-1.234c0.643-1.604,1.83-2.999,3.356-3.852
								c0.408-0.192,0.739-0.418,1.222-0.556c0.463-0.137,0.978-0.275,1.408-0.35l0.994-0.06l0.311-0.014l0.162,0.018l0.326,0.04
								l0.647,0.094c1.719,0.33,3.276,1.323,4.291,2.687c0.243,0.351,0.506,0.682,0.657,1.083c0.158,0.406,0.375,0.723,0.459,1.196
								c0.093,0.426,0.228,0.924,0.236,1.277l0.004,1.023c0.01,0.227,0.001,0.081,0.003,0.14l-0.003,0.032l-0.008,0.063
								l-0.012,0.127l-0.023,0.255l-0.049,0.509l-0.095,1.018l-0.153,2.033c-0.074,1.353-0.128,2.7-0.134,4.037
								c-0.051,2.674,0.161,5.305,0.447,7.852c0.287,2.546,0.602,5.008,0.683,7.343c0.026,0.582,0.036,1.158,0.043,1.726v0.423
								l-0.044,0.541c-0.036,0.363-0.07,0.725-0.146,1.073c-0.352,1.401-1.113,2.606-2.067,3.489
								c-0.236,0.22-0.517,0.389-0.77,0.574c-0.257,0.184-0.518,0.35-0.809,0.455c-0.279,0.117-0.557,0.231-0.83,0.346
								c-0.283,0.1-0.615,0.15-0.912,0.214c-0.658,0.149-1.062,0.078-1.513,0.065l-0.433-0.015l-0.373-0.081
								c-0.242-0.056-0.48-0.111-0.715-0.165c-1.853-0.561-3.026-1.754-3.691-2.805c-0.197-0.246-0.314-0.521-0.432-0.774
								c-0.105-0.259-0.25-0.473-0.31-0.714c-0.116-0.473-0.269-0.876-0.291-1.19c-0.059-0.635-0.09-0.973-0.09-0.973
								L530.004,31.492z"/>
						</g>
					</g>
				</g>
			</g>
			<g>
				<g>
					
						<linearGradient id="SVGID_10_" gradientUnits="userSpaceOnUse" x1="564.752" y1="-208.9946" x2="564.752" y2="-239.6283" gradientTransform="matrix(1 0 0 -1 -162 -197)">
						<stop  offset="0" style="stop-color:#FFFFFF"/>
						<stop  offset="0.3837" style="stop-color:#FDFDFD"/>
						<stop  offset="0.5487" style="stop-color:#F6F6F6"/>
						<stop  offset="0.6713" style="stop-color:#E9E9E9"/>
						<stop  offset="0.7253" style="stop-color:#E1E1E1"/>
						<stop  offset="1" style="stop-color:#737373"/>
					</linearGradient>
					<rect x="286.686" y="28.869" fill="url(#SVGID_10_)" width="232.134" height="8.975"/>
					<path d="M286.889,37.641c4.769-0.188,9.537-0.324,14.304-0.451c4.837-0.127,9.673-0.287,14.51-0.371l14.508-0.271l14.509-0.206
						c9.672-0.106,19.346-0.198,29.018-0.225c9.672-0.056,19.345-0.062,29.017,0.043c9.673,0.073,19.345,0.325,29.018,0.481
						c9.673,0.16,19.345,0.422,29.018,0.498c4.836,0.072,9.672,0.076,14.508,0.098c4.836,0.035,9.673-0.006,14.509-0.014
						c9.672-0.029,19.346-0.156,29.018-0.32l-0.941,0.941l-0.138-8.975l1.079,1.08c-9.672,0.152-19.346,0.381-29.018,0.471
						c-9.673,0.107-19.345,0.246-29.017,0.289L431.77,30.9c-9.672,0.09-19.344,0.062-29.017,0.078l-29.017-0.144L344.72,30.49
						l-14.509-0.19l-14.508-0.28l-14.51-0.291l-14.507-0.385l0.474-0.475L286.889,37.641z M286.495,38.033l-0.283-9.164
						l-0.015-0.461l0.489-0.014l14.507-0.385l14.51-0.29l14.508-0.281l14.509-0.191l29.018-0.344l29.017-0.145
						c9.673,0.016,19.345-0.012,29.018,0.078l29.018,0.193c9.672,0.043,19.344,0.18,29.017,0.288
						c9.672,0.09,19.346,0.319,29.018,0.472l1.095,0.019l-0.016,1.061l-0.139,8.975l-0.015,0.957l-0.927-0.016
						c-9.672-0.163-19.346-0.291-29.018-0.32c-4.836-0.007-9.673-0.048-14.509-0.013c-4.836,0.021-9.672,0.024-14.508,0.097
						c-9.673,0.077-19.345,0.34-29.019,0.499c-9.672,0.155-19.344,0.408-29.017,0.481c-9.672,0.105-19.345,0.098-29.017,0.044
						c-9.672-0.026-19.346-0.118-29.018-0.226l-14.509-0.207l-14.508-0.271c-4.837-0.083-9.673-0.244-14.509-0.371
						c-4.836-0.128-9.672-0.266-14.508-0.457L286.495,38.033z"/>
				</g>
				<g>
					<rect x="286.686" y="1.505" fill="#FFFFFF" width="232.134" height="27.364"/>
					<path d="M286.889,28.666c4.769-0.174,9.537-0.309,14.306-0.422l14.509-0.357c9.672-0.203,19.344-0.342,29.017-0.475
						l14.508-0.142l14.51-0.101l14.509-0.064l14.508,0.014l14.509,0.118l14.509,0.239l29.018,0.506
						c4.836,0.101,9.672,0.145,14.508,0.194c4.836,0.068,9.673,0.06,14.509,0.084l14.509-0.01l14.509-0.092l-0.71,0.709
						l-0.175-13.682l-0.194-13.682l1.079,1.079L489.807,3.03L460.79,3.315L431.77,3.496c-9.672,0.066-19.344,0.125-29.017,0.113
						l-14.508-0.005L373.736,3.53l-14.509-0.097l-14.509-0.16l-29.017-0.339l-29.017-0.523l0.905-0.905l-0.332,13.682
						C287.157,19.681,287.034,24.174,286.889,28.666z M286.489,28.869c-0.148-4.561-0.272-9.121-0.376-13.682l-0.332-13.682
						l-0.022-0.889l0.927-0.017l29.017-0.523l29.017-0.339l14.509-0.16l14.509-0.097l14.509-0.073l14.508-0.005
						c9.673-0.013,19.345,0.046,29.018,0.113l29.018,0.179l29.017,0.285l29.018,0.447l1.094,0.017l-0.015,1.062l-0.195,13.682
						l-0.174,13.682l-0.009,0.715l-0.701-0.004l-14.509-0.092l-14.509-0.012c-4.836,0.024-9.673,0.017-14.509,0.084
						c-4.836,0.051-9.672,0.096-14.508,0.194l-29.018,0.507l-14.509,0.239l-14.509,0.117l-14.508,0.014l-14.509-0.062l-14.51-0.103
						l-14.508-0.142c-9.673-0.133-19.345-0.271-29.017-0.475l-14.51-0.356c-4.836-0.115-9.672-0.251-14.507-0.431l-0.191-0.006
						L286.489,28.869z"/>
				</g>
				<g>
					
						<linearGradient id="SVGID_11_" gradientUnits="userSpaceOnUse" x1="564.752" y1="-197.8633" x2="564.752" y2="-229.6286" gradientTransform="matrix(1 0 0 -1 -162 -197)">
						<stop  offset="0" style="stop-color:#EA1D2A"/>
						<stop  offset="0.1771" style="stop-color:#DE1B27"/>
						<stop  offset="0.4985" style="stop-color:#BD1420"/>
						<stop  offset="0.5549" style="stop-color:#B7131E"/>
						<stop  offset="0.8022" style="stop-color:#9D1215"/>
						<stop  offset="1" style="stop-color:#8C1210"/>
					</linearGradient>
					<rect x="286.686" y="1.049" fill="url(#SVGID_11_)" width="232.134" height="31.08"/>
					<path d="M286.89,1.252l0.246,7.567l0.197,7.77c0.122,5.18,0.287,10.36,0.368,15.54l-1.015-1.014l14.507-0.256l14.51-0.205
						c9.672-0.076,19.345-0.209,29.017-0.229l14.509-0.062l14.509,0.018l14.509,0.117l14.508,0.238l29.018,0.5
						c9.673,0.178,19.345,0.259,29.018,0.281c9.672,0.032,19.344-0.004,29.017-0.088l14.509-0.177l14.509-0.203l-1.079,1.078
						c-0.15-10.359-0.372-20.72-0.465-31.08l1.544,1.544c-9.672,0.089-19.346,0.238-29.018,0.275l-29.017,0.177
						c-9.673,0.068-19.345,0.12-29.018,0.107l-14.509-0.006l-14.509-0.072l-14.508-0.094l-14.509-0.158L344.72,2.492l-29.017-0.515
						l-14.51-0.339C296.426,1.529,291.658,1.404,286.89,1.252z M286.686,0.852c4.835-0.155,9.671-0.281,14.507-0.392l14.51-0.339
						l29.017-0.515l29.018-0.329l14.509-0.158l14.508-0.094l14.509-0.072l14.509-0.006c9.673-0.012,19.345,0.04,29.018,0.107
						l29.017,0.177c9.672,0.037,19.346,0.186,29.018,0.275l1.558,0.014l-0.014,1.53c-0.093,10.36-0.314,20.72-0.465,31.08
						l-0.018,1.095l-1.062-0.015l-14.51-0.205l-14.508-0.174c-9.673-0.086-19.345-0.122-29.017-0.09
						c-9.673,0.022-19.345,0.104-29.019,0.282l-29.017,0.5l-14.508,0.236l-14.509,0.119l-14.509,0.018l-14.509-0.062
						c-9.672-0.02-19.345-0.152-29.017-0.229l-14.51-0.205l-14.507-0.256l-1.03-0.02l0.016-0.997
						c0.081-5.18,0.247-10.359,0.368-15.54l0.197-7.77l0.258-7.961L286.686,0.852z"/>
				</g>
				<g>
					<polygon fill="#FFFFFF" points="126.61,32.621 132.981,32.621 134.195,28.869 98.523,28.869 99.735,32.621 106.11,32.621 
						100.955,36.377 101.429,37.844 131.293,37.844 131.771,36.377 					"/>
					<path d="M126.61,32.424c2.124-0.386,4.248-0.645,6.371-0.851l-0.998,0.726c0.271-1.294,0.581-2.574,0.9-3.854l1.312,1.803
						c-1.486,0.125-2.973,0.166-4.459,0.246c-1.486,0.072-2.973,0.107-4.459,0.131c-1.486,0.034-2.973,0.023-4.459-0.025
						c-1.486-0.041-2.973-0.166-4.459-0.285c-2.973-0.268-5.945-0.623-8.918-0.752c-1.486-0.09-2.973-0.11-4.459-0.092
						c-1.486,0.006-2.973,0.051-4.459,0.123l0.689-0.947c0.475,1.229,0.956,2.455,1.466,3.67l-0.944-0.688
						c2.125-0.166,4.25-0.361,6.375-0.518l4.512-0.33l-3.623,3.062c-1.628,1.376-3.294,2.698-4.97,4.011l0.662-2.037l0.525,1.449
						l-1.788-1.301c2.489-0.094,4.978-0.156,7.466-0.218c2.488-0.046,4.977-0.017,7.466,0.047c2.489,0.065,4.978,0.198,7.466,0.324
						l3.733,0.245l3.733,0.316l-1.107,0.803l0.626-1.418l0.365,1.129c-1.593-1.428-3.166-2.883-4.683-4.412l-0.282-0.284
						L126.61,32.424z M127.62,32.953c1.604,0.839,3.19,1.701,4.745,2.609l0.542,0.315l-0.177,0.812l-0.33,1.516l-0.158,0.725
						l-0.95,0.079l-3.733,0.314l-3.733,0.245c-2.488,0.127-4.977,0.26-7.466,0.324c-2.489,0.062-4.978,0.094-7.466,0.047
						c-2.489-0.061-4.978-0.123-7.466-0.217l-1.432-0.055l-0.355-1.247l-0.423-1.481l-0.38-1.332l1.042-0.705
						c1.761-1.193,3.532-2.373,5.34-3.502l0.89,2.731c-2.125-0.155-4.25-0.353-6.375-0.521l-0.8-0.062l-0.144-0.625
						c-0.297-1.284-0.625-2.561-0.958-3.834l-0.261-0.993l0.95,0.047c1.486,0.072,2.973,0.116,4.459,0.123
						c1.486,0.02,2.973-0.002,4.459-0.091c2.973-0.129,5.945-0.485,8.918-0.754c1.486-0.118,2.973-0.243,4.459-0.283
						c1.486-0.05,2.973-0.061,4.459-0.025c1.486,0.022,2.973,0.057,4.459,0.131c1.486,0.079,2.973,0.119,4.459,0.245l1.967,0.167
						l-0.656,1.636c-0.49,1.224-0.99,2.442-1.527,3.649l-0.351,0.789l-0.646-0.062C131.192,33.496,129.409,33.246,127.62,32.953z"/>
				</g>
				<g>
					<polygon fill="#FFFFFF" points="163.787,32.621 170.166,32.621 171.38,28.869 135.706,28.869 136.921,32.621 143.301,32.621 
						138.132,36.377 138.61,37.844 168.472,37.844 168.948,36.377 					"/>
					<path d="M163.787,32.424c2.126-0.387,4.252-0.645,6.379-0.852l-0.998,0.727c0.272-1.294,0.582-2.574,0.901-3.854l1.312,1.803
						c-1.486,0.126-2.973,0.166-4.459,0.246c-1.486,0.072-2.973,0.107-4.459,0.131c-1.486,0.034-2.973,0.023-4.459-0.025
						c-1.487-0.041-2.973-0.166-4.459-0.285c-2.973-0.268-5.946-0.623-8.918-0.752c-1.487-0.09-2.973-0.11-4.459-0.092
						c-1.486,0.006-2.973,0.051-4.459,0.123l0.689-0.947c0.476,1.229,0.958,2.453,1.47,3.67l-0.944-0.688
						c2.126-0.166,4.253-0.361,6.38-0.518l4.576-0.336l-3.688,3.067c-0.82,0.683-1.636,1.371-2.475,2.028l-2.508,1.982l0.662-2.043
						l0.529,1.448l-1.787-1.296c2.489-0.094,4.977-0.156,7.465-0.219c2.489-0.045,4.977-0.016,7.465,0.048
						c2.489,0.065,4.977,0.198,7.466,0.324l3.732,0.245l3.733,0.315l-1.107,0.806l0.625-1.418l0.366,1.125
						c-1.594-1.426-3.166-2.881-4.684-4.41l-0.282-0.284L163.787,32.424z M164.796,32.953c1.604,0.839,3.191,1.701,4.745,2.609
						l0.542,0.314l-0.176,0.812l-0.328,1.514l-0.157,0.725l-0.951,0.08l-3.733,0.315l-3.732,0.245
						c-2.489,0.127-4.977,0.259-7.466,0.324c-2.488,0.062-4.977,0.094-7.465,0.047c-2.488-0.061-4.977-0.123-7.465-0.217
						l-1.429-0.054l-0.358-1.244l-0.427-1.481L136.01,35.6l1.049-0.699l2.66-1.772c0.884-0.595,1.791-1.157,2.693-1.728l0.888,2.732
						c-2.126-0.156-4.253-0.354-6.38-0.52l-0.799-0.062l-0.145-0.623c-0.298-1.285-0.626-2.561-0.961-3.834l-0.261-0.996
						l0.951,0.047c1.486,0.073,2.973,0.117,4.459,0.125c1.486,0.019,2.973-0.004,4.459-0.092c2.973-0.129,5.946-0.486,8.918-0.753
						c1.486-0.119,2.973-0.244,4.459-0.284c1.486-0.05,2.973-0.061,4.459-0.025c1.487,0.022,2.973,0.057,4.459,0.131
						c1.486,0.078,2.973,0.119,4.459,0.245l1.968,0.166l-0.656,1.638c-0.49,1.224-0.99,2.44-1.528,3.649l-0.352,0.789l-0.646-0.063
						C168.374,33.496,166.588,33.247,164.796,32.953z"/>
				</g>
				<g>
					<polygon fill="#FFFFFF" points="89.421,32.621 95.795,32.621 97.016,28.869 57.316,28.869 57.316,37.844 94.104,37.844 
						94.579,36.377 					"/>
					<path d="M89.421,32.424c1.062-0.195,2.125-0.343,3.187-0.486c1.062-0.123,2.125-0.264,3.187-0.354l-0.988,0.718
						c0.277-1.293,0.583-2.575,0.909-3.854l1.299,1.788c-1.654,0.138-3.309,0.185-4.962,0.271c-1.654,0.074-3.308,0.104-4.962,0.129
						c-3.308,0.067-6.617-0.141-9.925-0.465c-1.654-0.151-3.308-0.327-4.962-0.45c-0.827-0.076-1.654-0.105-2.481-0.154
						c-0.827-0.053-1.654-0.072-2.481-0.092c-0.827-0.011-1.654-0.017-2.481,0.002c-0.827,0.02-1.654,0.008-2.481,0.051
						c-1.654,0.056-3.308,0.152-4.962,0.277l0.934-0.935c0.22,2.991,0.524,5.983,0.691,8.976l-1.625-1.625
						c3.066-0.16,6.131-0.246,9.197-0.352l4.599-0.12c1.533-0.024,3.065-0.026,4.598-0.017c3.065,0.033,6.131,0.158,9.197,0.312
						c1.533,0.06,3.065,0.188,4.598,0.276c1.533,0.104,3.066,0.24,4.599,0.373l-1.095,0.796l0.622-1.419l0.362,1.113
						c-1.593-1.425-3.167-2.875-4.687-4.401l-0.281-0.283L89.421,32.424z M90.474,32.979c1.585,0.836,3.154,1.693,4.693,2.592
						l0.536,0.314l-0.174,0.801l-0.33,1.515l-0.156,0.715l-0.939,0.081c-1.533,0.132-3.065,0.268-4.599,0.372
						c-1.533,0.09-3.065,0.219-4.598,0.276c-3.065,0.152-6.131,0.278-9.197,0.312c-1.533,0.011-3.065,0.009-4.598-0.017
						l-4.599-0.119c-3.065-0.104-6.131-0.191-9.197-0.353l-1.709-0.089l0.085-1.535c0.167-2.99,0.471-5.982,0.691-8.975l0.073-0.998
						l0.86,0.064c1.654,0.125,3.309,0.223,4.962,0.276c0.827,0.045,1.654,0.033,2.481,0.052c0.827,0.018,1.654,0.012,2.481,0.002
						c0.827-0.02,1.654-0.039,2.481-0.093c0.827-0.048,1.654-0.075,2.481-0.153c1.654-0.123,3.308-0.297,4.962-0.451
						c3.308-0.323,6.617-0.531,9.925-0.465c1.654,0.023,3.308,0.056,4.962,0.13c1.654,0.086,3.308,0.133,4.962,0.271l1.948,0.161
						l-0.649,1.628c-0.488,1.225-0.995,2.441-1.532,3.65l-0.343,0.771l-0.645-0.055c-1.062-0.091-2.125-0.231-3.187-0.354
						C91.896,33.209,91.185,33.092,90.474,32.979z"/>
				</g>
				<g>
					<polygon fill="#FFFFFF" points="247.262,28.869 248.476,32.621 254.852,32.621 249.705,36.377 250.177,37.844 286.686,37.844 
						286.686,28.869 					"/>
					<path d="M247.599,29.111c0.568,1.08,1.114,2.168,1.615,3.271l-0.739-0.536c1.063-0.139,2.125-0.24,3.188-0.34
						c1.062-0.113,2.125-0.177,3.188-0.255l4.03-0.301l-3.223,2.776c-0.807,0.695-1.632,1.365-2.464,2.028
						c-0.832,0.661-1.647,1.345-2.493,1.987l0.613-1.885l0.513,1.453l-1.652-1.205c1.521-0.023,3.042-0.06,4.564-0.023
						c1.521,0.029,3.042,0.096,4.562,0.229c1.521,0.104,3.042,0.272,4.563,0.414c1.521,0.147,3.042,0.285,4.564,0.371
						c1.521,0.092,3.042,0.154,4.563,0.152c1.521-0.018,3.042-0.018,4.563-0.098c3.042-0.119,6.085-0.405,9.127-0.649l-1.34,1.34
						c-0.264-2.991-0.403-5.981-0.497-8.975l1.837,1.838l-4.928,0.16c-1.643,0.038-3.285,0.104-4.928,0.11
						c-3.285,0.033-6.571-0.039-9.856-0.182c-1.643-0.086-3.285-0.135-4.928-0.252c-1.643-0.105-3.285-0.207-4.928-0.354
						c-1.643-0.127-3.285-0.299-4.928-0.473C250.66,29.542,249.129,29.354,247.599,29.111z M247.262,28.672
						c1.643-0.268,3.285-0.462,4.928-0.652c1.643-0.174,3.286-0.344,4.928-0.471c1.643-0.148,3.285-0.248,4.928-0.354
						c1.643-0.117,3.286-0.165,4.928-0.252c3.285-0.142,6.571-0.216,9.856-0.182c1.643,0.005,3.285,0.073,4.928,0.11l4.928,0.162
						l1.892,0.062l-0.055,1.774c-0.093,2.992-0.232,5.982-0.498,8.975l-0.127,1.438l-1.213-0.099
						c-3.042-0.244-6.085-0.531-9.127-0.65c-1.521-0.079-3.042-0.079-4.563-0.098c-1.521-0.002-3.042,0.062-4.563,0.152
						c-1.521,0.086-3.042,0.225-4.564,0.372c-1.521,0.142-3.042,0.308-4.563,0.413c-1.521,0.133-3.042,0.199-4.563,0.229
						c-1.521,0.035-3.042,0.002-4.564-0.023l-1.308-0.021l-0.344-1.183l-0.43-1.479l-0.352-1.209l0.965-0.676
						c0.87-0.609,1.77-1.178,2.653-1.769c0.884-0.591,1.774-1.171,2.683-1.728l0.808,2.478c-1.063-0.079-2.125-0.144-3.188-0.257
						c-1.063-0.1-2.125-0.2-3.188-0.338l-0.647-0.084l-0.092-0.453c-0.262-1.297-0.48-2.607-0.662-3.932l-0.03-0.222L247.262,28.672
						z"/>
				</g>
				<g>
					<polygon fill="#FFFFFF" points="200.972,32.621 207.355,32.621 208.571,28.869 172.893,28.869 174.115,32.621 180.481,32.621 
						175.321,36.377 175.797,37.844 205.666,37.844 206.141,36.377 					"/>
					<path d="M200.972,32.424c1.064-0.197,2.128-0.35,3.191-0.492c1.064-0.129,2.128-0.268,3.192-0.358l-0.999,0.726
						c0.272-1.294,0.583-2.574,0.902-3.854l1.312,1.804c-1.487,0.126-2.973,0.166-4.46,0.246c-1.486,0.073-2.973,0.106-4.459,0.131
						c-1.487,0.034-2.973,0.022-4.46-0.024c-1.486-0.041-2.973-0.166-4.46-0.285c-2.973-0.269-5.946-0.625-8.919-0.754
						c-1.486-0.088-2.973-0.109-4.459-0.09c-1.487,0.006-2.973,0.051-4.46,0.123l0.689-0.949c0.478,1.229,0.962,2.453,1.477,3.67
						l-0.944-0.687c2.122-0.166,4.244-0.362,6.366-0.519l4.516-0.329l-3.627,3.062c-1.629,1.377-3.298,2.699-4.975,4.01l0.662-2.037
						l0.527,1.449l-1.787-1.3c2.489-0.094,4.978-0.155,7.467-0.218c2.489-0.046,4.978-0.018,7.467,0.046
						c2.489,0.065,4.978,0.199,7.467,0.324l3.733,0.246l3.734,0.315l-1.108,0.805l0.624-1.418l0.367,1.127
						c-1.596-1.426-3.171-2.881-4.692-4.411l-0.281-0.283L200.972,32.424z M202.037,32.982c1.587,0.83,3.158,1.682,4.697,2.578
						l0.542,0.315l-0.175,0.812l-0.327,1.516l-0.157,0.727l-0.952,0.079l-3.734,0.315l-3.733,0.244
						c-2.489,0.127-4.978,0.26-7.467,0.324c-2.489,0.062-4.978,0.094-7.467,0.047c-2.489-0.061-4.978-0.123-7.467-0.217
						l-1.431-0.055l-0.356-1.246l-0.424-1.482l-0.381-1.332l1.043-0.705c1.763-1.193,3.535-2.375,5.345-3.502l0.889,2.73
						c-2.122-0.154-4.244-0.352-6.366-0.518l-0.798-0.062l-0.146-0.621c-0.3-1.287-0.631-2.562-0.968-3.837l-0.263-0.995
						l0.953,0.047c1.487,0.071,2.973,0.117,4.46,0.123c1.486,0.02,2.973-0.002,4.459-0.091c2.973-0.129,5.946-0.485,8.919-0.752
						c1.487-0.119,2.974-0.244,4.46-0.285c1.487-0.05,2.973-0.061,4.46-0.025c1.486,0.021,2.973,0.057,4.459,0.13
						c1.487,0.079,2.973,0.12,4.46,0.245l1.969,0.167l-0.657,1.638c-0.491,1.223-0.991,2.441-1.529,3.65l-0.349,0.781l-0.649-0.057
						c-1.064-0.093-2.128-0.23-3.192-0.357C203.455,33.217,202.746,33.098,202.037,32.982z"/>
				</g>
				<g>
					<polygon fill="#FFFFFF" points="238.162,32.621 244.537,32.621 245.754,28.869 210.079,28.869 211.292,32.621 217.67,32.621 
						212.516,36.377 212.987,37.844 242.848,37.844 243.321,36.377 					"/>
					<path d="M238.162,32.424c2.125-0.387,4.25-0.645,6.375-0.852l-0.998,0.726c0.273-1.294,0.583-2.575,0.904-3.854l1.311,1.805
						c-1.486,0.126-2.973,0.166-4.459,0.246c-1.486,0.072-2.973,0.107-4.459,0.131c-1.486,0.034-2.973,0.023-4.459-0.025
						c-1.486-0.041-2.973-0.166-4.459-0.285c-2.973-0.268-5.946-0.625-8.919-0.754c-1.486-0.088-2.973-0.108-4.459-0.09
						c-1.486,0.006-2.973,0.051-4.459,0.125l0.69-0.949c0.475,1.229,0.956,2.453,1.467,3.67l-0.944-0.688
						c2.126-0.166,4.252-0.363,6.378-0.52l4.566-0.332l-3.676,3.064c-0.818,0.684-1.632,1.37-2.468,2.028l-2.501,1.981l0.663-2.033
						l0.522,1.449l-1.789-1.305c2.488-0.094,4.977-0.156,7.465-0.219c2.488-0.045,4.977-0.016,7.465,0.048
						c2.489,0.065,4.977,0.198,7.465,0.324l3.732,0.245l3.733,0.315l-1.108,0.806l0.622-1.418l0.366,1.125
						c-1.593-1.426-3.164-2.881-4.682-4.41l-0.281-0.284L238.162,32.424z M239.171,32.953c1.604,0.839,3.189,1.701,4.743,2.609
						l0.541,0.313l-0.174,0.812l-0.325,1.514l-0.156,0.727l-0.952,0.08l-3.733,0.315l-3.732,0.245
						c-2.488,0.127-4.977,0.259-7.465,0.324c-2.488,0.062-4.977,0.094-7.465,0.047c-2.488-0.061-4.977-0.123-7.465-0.217
						l-1.435-0.055l-0.354-1.251l-0.419-1.481l-0.378-1.338l1.042-0.695l2.653-1.773c0.881-0.596,1.786-1.158,2.686-1.729
						l0.89,2.731c-2.126-0.155-4.252-0.353-6.378-0.519l-0.8-0.063l-0.145-0.624c-0.297-1.285-0.625-2.561-0.958-3.834l-0.26-0.994
						l0.95,0.047c1.486,0.071,2.973,0.117,4.459,0.123c1.486,0.02,2.973-0.002,4.459-0.091c2.973-0.129,5.946-0.485,8.919-0.753
						c1.486-0.118,2.973-0.244,4.459-0.284c1.487-0.05,2.973-0.061,4.459-0.025c1.486,0.022,2.973,0.057,4.459,0.131
						c1.486,0.078,2.973,0.119,4.459,0.245l1.969,0.167l-0.658,1.637c-0.491,1.223-0.992,2.443-1.531,3.65l-0.352,0.787
						l-0.646-0.062C242.746,33.496,240.961,33.246,239.171,32.953z"/>
				</g>
				<g>
					
						<linearGradient id="SVGID_12_" gradientUnits="userSpaceOnUse" x1="334.001" y1="-197.6953" x2="334.0008" y2="-571.8373" gradientTransform="matrix(1 0 0 -1 -162 -197)">
						<stop  offset="0" style="stop-color:#B21C1E"/>
						<stop  offset="0.7033" style="stop-color:#CE1824"/>
						<stop  offset="0.8017" style="stop-color:#BA1B20"/>
						<stop  offset="0.9016" style="stop-color:#AE1C1E"/>
						<stop  offset="1" style="stop-color:#AA1D1D"/>
					</linearGradient>
					<rect x="57.316" y="1.049" fill="url(#SVGID_12_)" width="229.37" height="0.456"/>
					<path d="M286.482,1.253c-4.71,0.196-9.421,0.333-14.131,0.465c-4.779,0.137-9.557,0.291-14.336,0.379L243.68,2.371
						l-14.335,0.204l-14.336,0.147l-14.335,0.071c-4.778,0.037-9.557,0.025-14.335,0.011c-4.779,0.008-9.557-0.068-14.335-0.113
						l-28.671-0.54l-14.335-0.286l-14.336-0.176l-14.335-0.042L85.988,1.715c-4.779,0.037-9.557,0.086-14.335,0.176l-14.336,0.23
						l1.072-1.072l0.007,0.456l-1.079-1.079c9.557-0.158,19.114-0.397,28.671-0.484l14.335-0.174l14.335-0.116l28.671-0.2
						l14.335-0.048l14.335-0.002c9.557,0.071,19.114,0.072,28.671,0.201l28.671,0.357c9.557,0.108,19.114,0.365,28.671,0.54
						c4.779,0.083,9.557,0.223,14.336,0.357l14.335,0.435l-0.213,0.213L286.482,1.253z M286.876,0.86l0.022,0.645l0.007,0.206
						l-0.22,0.007L272.35,2.153c-4.779,0.134-9.557,0.274-14.336,0.357c-9.557,0.175-19.114,0.432-28.671,0.54l-28.671,0.357
						c-9.557,0.128-19.114,0.13-28.671,0.201l-14.335-0.002L143.33,3.558l-28.671-0.2l-14.335-0.116L85.988,3.068
						c-9.557-0.087-19.114-0.326-28.671-0.484L56.22,2.566l0.017-1.061l0.007-0.456l0.018-1.088l1.054,0.017l14.336,0.23
						c4.778,0.089,9.557,0.139,14.335,0.176l14.335,0.067l14.335-0.042l14.336-0.176l14.335-0.286l28.671-0.54
						c4.778-0.044,9.557-0.121,14.335-0.113c4.778-0.014,9.557-0.026,14.335,0.011l14.335,0.071l14.336,0.147l14.335,0.204
						l14.335,0.274c4.779,0.088,9.557,0.242,14.336,0.379c4.778,0.134,9.557,0.271,14.335,0.472L286.876,0.86z"/>
				</g>
				<g>
					<path fill="#FFFFFF" d="M97.77,26.541l0.753,2.328h35.672l0.755-2.328l0.755,2.328h35.675l0.753-2.328l0.759,2.328h35.678
						l0.752-2.328l0.756,2.328h35.675l0.755-2.328l0.753,2.328h39.424V1.505H57.316v27.364h39.699L97.77,26.541z M263.13,14.553
						l1.974-6.074l1.962,6.074h6.373l-5.151,3.765l1.972,6.074l-5.156-3.758l-5.163,3.758l1.971-6.074l-5.158-3.765H263.13z
						 M225.942,14.553l1.967-6.074l1.98,6.074h6.366l-5.153,3.765l1.972,6.074l-5.165-3.758l-5.155,3.758l1.971-6.074l-5.161-3.765
						H225.942z M188.755,14.553l1.979-6.074l1.963,6.074h6.387l-5.159,3.765l1.963,6.074l-5.155-3.758l-5.158,3.758l1.967-6.074
						l-5.156-3.765H188.755z M151.577,14.553l1.963-6.074l1.976,6.074h6.368l-5.151,3.765l1.966,6.074l-5.159-3.758l-5.155,3.758
						l1.972-6.074l-5.162-3.765H151.577z M114.387,14.553l1.971-6.074l1.967,6.074h6.374l-5.15,3.765l1.976,6.074l-5.167-3.758
						l-5.159,3.758l1.971-6.074l-5.161-3.765H114.387z M79.17,20.635l-5.155,3.758l1.968-6.074l-5.15-3.765h6.377l1.96-6.074
						l1.967,6.074h6.384l-5.158,3.765l1.969,6.074L79.17,20.635z"/>
					<g>
						<path d="M97.769,25.958l1.019,2.825l-0.265-0.192c5.945-0.221,11.891-0.319,17.836-0.485l8.918-0.211l8.918-0.166
							l-1.086,0.789l0.711-2.343l1.061-3.491l1.199,3.491l0.794,2.315l-1.169-0.852l17.837-0.248l17.837-0.164l-1.562,1.136
							l0.732-2.334l1.538-4.905l1.627,4.901l0.771,2.325l-1.594-1.158l17.839-0.077c5.947-0.043,11.893,0.005,17.839,0.005
							l-1.664,1.211l0.761-2.325l1.688-5.157l1.622,5.155l0.734,2.335l-1.633-1.187l8.919,0.081l8.919,0.138l17.837,0.299
							l-1.141,0.829l0.795-2.314l1.167-3.398l1.035,3.398l0.712,2.342l-1.061-0.772l19.712,0.337l9.856,0.104l9.856,0.056
							l-0.62,0.62c0.02-4.561,0.037-9.121,0.014-13.682l-0.059-13.682l0.665,0.665c-9.557,0.049-19.114,0.22-28.671,0.344
							l-28.671,0.449L200.67,3.273l-28.671,0.176L143.33,3.602c-9.557-0.008-19.114,0.051-28.671-0.023
							c-9.557-0.062-19.114-0.058-28.671-0.188l-28.671-0.31l1.576-1.576c-0.053,4.561-0.085,9.121-0.179,13.682l-0.241,13.682
							l-1.155-1.155c6.617,0.131,13.233,0.201,19.85,0.382c6.617,0.17,13.233,0.293,19.85,0.504l-0.257,0.188L97.769,25.958z
							 M97.769,27.25l-0.496,1.702l-0.053,0.181l-0.204,0.006c-6.617,0.211-13.233,0.334-19.85,0.504
							c-6.617,0.182-13.233,0.252-19.85,0.383l-1.135,0.021l-0.021-1.178l-0.24-13.681c-0.094-4.561-0.126-9.122-0.179-13.682
							l-0.018-1.559l1.594-0.017l28.671-0.31c9.557-0.13,19.114-0.126,28.671-0.188c9.557-0.074,19.114-0.015,28.671-0.023
							l28.671,0.154l28.671,0.176l28.671,0.308l28.671,0.449c9.557,0.125,19.114,0.295,28.671,0.344l0.668,0.003l-0.003,0.662
							l-0.059,13.682c-0.023,4.561-0.005,9.121,0.014,13.682l0.002,0.615l-0.623,0.005l-9.856,0.055l-9.856,0.104l-19.712,0.336
							l-0.792,0.014l-0.269-0.785l-0.793-2.314l2.202,0.001l-0.714,2.341l-0.249,0.813l-0.893,0.016l-17.837,0.299l-8.919,0.138
							l-8.919,0.081l-1.232,0.012l-0.401-1.197l-0.777-2.321l3.31-0.002l-0.744,2.331l-0.386,1.211h-1.278
							c-5.946,0-11.893,0.048-17.839,0.005l-17.839-0.077l-1.226-0.005l-0.369-1.151l-0.746-2.333l3.165-0.003l-0.775,2.32
							l-0.383,1.146l-1.179-0.01l-17.837-0.164l-17.837-0.248l-0.914-0.014l-0.256-0.838l-0.715-2.341h2.259l-0.799,2.313
							l-0.278,0.805l-0.808-0.016l-8.918-0.166l-8.918-0.212c-5.945-0.166-11.891-0.265-17.836-0.485l-0.212-0.008l-0.053-0.185
							L97.769,27.25z"/>
						<path d="M262.974,14.334l1.193-6.16l0.552-2.845l1.324,2.847l2.712,5.832l-1.688-1.228l6.373,0.591l3.7,0.343l-3.002,1.795
							l-5.5,3.287l0.213-0.66l2.534,5.892l1.392,3.236l-3.213-1.915l-5.504-3.28h2.088l-5.105,3.838l-4.585,3.446l1.703-5.539
							l1.877-6.104l0.712,2.2l-4.635-4.482l-2.472-2.391l3.11,0.433L262.974,14.334z M263.263,14.732l-6.509,0.904l0.639-1.958
							l5.681,3.048l1.237,0.664l-0.524,1.536l-2.064,6.043l-2.882-2.091l5.221-3.678l1.16-0.817l0.928,0.818l4.808,4.235
							l-1.821,1.321l-1.409-6.257l-0.088-0.393l0.302-0.267l4.802-4.242l0.698,2.137l-6.373,0.591l-1.426,0.132l-0.261-1.361
							l-1.213-6.316l1.875,0.001L263.263,14.732z"/>
						<path d="M225.785,14.334l1.188-6.159l0.546-2.836l1.327,2.834l2.73,5.83l-1.686-1.224l6.366,0.59l3.703,0.343l-3.005,1.795
							l-5.502,3.287l0.214-0.66l2.534,5.892l1.39,3.23l-3.21-1.909l-5.512-3.279l2.088-0.001l-5.096,3.837l-4.589,3.456l1.705-5.546
							l1.877-6.104l0.713,2.2l-4.638-4.482l-2.474-2.39l3.112,0.432L225.785,14.334z M226.075,14.732l-6.51,0.904l0.638-1.958
							l5.684,3.048l1.238,0.664l-0.525,1.537l-2.065,6.044l-2.883-2.091l5.212-3.678l1.159-0.818l0.929,0.817l4.816,4.236
							l-1.82,1.321l-1.41-6.257l-0.088-0.393l0.302-0.267l4.804-4.243l0.698,2.138l-6.366,0.59l-1.422,0.132l-0.264-1.355
							l-1.231-6.318l1.874-0.002L226.075,14.732z"/>
						<path d="M188.598,14.334l1.198-6.161l0.552-2.841l1.323,2.843l2.713,5.832l-1.688-1.228l6.387,0.591l3.703,0.343l-3.006,1.794
							l-5.507,3.288l0.214-0.659l2.526,5.892l1.385,3.231l-3.207-1.912l-5.502-3.279h2.089l-5.1,3.837l-4.583,3.448l1.699-5.539
							l1.873-6.104l0.713,2.198l-4.633-4.482l-2.47-2.39l3.108,0.433L188.598,14.334z M188.887,14.732l-6.501,0.904l0.639-1.957
							l5.68,3.048l1.236,0.663l-0.523,1.535l-2.06,6.043l-2.883-2.089l5.216-3.679l1.16-0.818l0.929,0.818l4.807,4.235l-1.822,1.319
							l-1.4-6.255l-0.088-0.393l0.302-0.267l4.81-4.243l0.697,2.137l-6.387,0.591l-1.426,0.132l-0.261-1.36l-1.214-6.316
							l1.875,0.002L188.887,14.732z"/>
						<path d="M151.419,14.334l1.183-6.158l0.546-2.843l1.329,2.841l2.726,5.83l-1.687-1.225l6.368,0.59l3.701,0.343l-3.003,1.795
							l-5.5,3.287l0.213-0.659l2.528,5.892l1.386,3.23l-3.208-1.91l-5.507-3.28h2.088l-5.097,3.837l-4.589,3.456l1.706-5.546
							l1.878-6.104l0.713,2.2l-4.638-4.481l-2.475-2.391l3.113,0.432L151.419,14.334z M151.709,14.732l-6.515,0.905l0.639-1.958
							l5.684,3.048l1.238,0.664l-0.525,1.537l-2.065,6.044l-2.883-2.091l5.213-3.678l1.16-0.818l0.929,0.818l4.811,4.235
							l-1.821,1.32L156.17,18.5l-0.088-0.393l0.302-0.267l4.801-4.243l0.698,2.138l-6.368,0.59l-1.423,0.132l-0.263-1.357
							l-1.226-6.318l1.874-0.001L151.709,14.732z"/>
						<path d="M114.23,14.334l1.19-6.16l0.55-2.844l1.325,2.845l2.716,5.831l-1.687-1.227l6.374,0.591l3.699,0.343l-3.001,1.794
							l-5.499,3.288l0.213-0.66l2.538,5.891l1.393,3.232l-3.212-1.91l-5.515-3.279l2.087-0.001l-5.1,3.837l-4.587,3.45l1.704-5.542
							l1.877-6.104l0.713,2.2l-4.638-4.482l-2.474-2.391l3.112,0.433L114.23,14.334z M114.52,14.732l-6.51,0.904l0.638-1.958
							l5.684,3.048l1.238,0.664l-0.525,1.537l-2.064,6.043l-2.883-2.091l5.216-3.678l1.159-0.817l0.928,0.816l4.819,4.236
							l-1.82,1.321l-1.414-6.256l-0.089-0.394l0.302-0.267l4.8-4.242l0.698,2.137l-6.374,0.591l-1.425,0.132l-0.262-1.359
							l-1.217-6.317h1.875L114.52,14.732z"/>
						<path d="M79.169,20.904l-4.574,4.284l-2.11,1.977l0.593-3.076l1.218-6.317l0.64,1.978l-4.801-4.242l-2.783-2.459l3.481,0.323
							l6.377,0.591l-0.562,0.41l1.398-6.255l0.771-3.448l1.479,3.446l2.529,5.892l-1.687-1.227l6.384-0.099l5.709-0.088
							l-4.606,3.472l-5.1,3.845l0.712-2.199l1.125,6.348l0.603,3.401l-2.272-2.191L79.169,20.904z M79.168,20.412l5.801,3.104
							l-1.669,1.21l-2.812-5.8l-0.612-1.263l1.325-0.937l5.216-3.686l1.104,3.384l-6.384-0.099l-1.417-0.022L79.45,15.1
							l-1.404-6.256l2.25-0.001l-2.523,5.893l-0.159,0.372l-0.403,0.038l-6.377,0.591l0.698-2.136l5.499,3.288l1.223,0.73
							l-0.582,1.248l-2.718,5.831l-1.517-1.1L79.168,20.412z"/>
					</g>
				</g>
				<g>
					
						<linearGradient id="SVGID_13_" gradientUnits="userSpaceOnUse" x1="334" y1="-197.6904" x2="333.9998" y2="-574.2729" gradientTransform="matrix(1 0 0 -1 -162 -197)">
						<stop  offset="0" style="stop-color:#B21C1E"/>
						<stop  offset="0.7033" style="stop-color:#CE1824"/>
						<stop  offset="0.8017" style="stop-color:#BA1B20"/>
						<stop  offset="0.9016" style="stop-color:#AE1C1E"/>
						<stop  offset="1" style="stop-color:#AA1D1D"/>
					</linearGradient>
					<path fill="url(#SVGID_13_)" d="M97.77,26.541l0.753,2.328h35.672l0.755-2.328l0.755,2.328h35.675l0.753-2.328l0.759,2.328
						h35.678l0.752-2.328l0.756,2.328h35.675l0.755-2.328l0.753,2.328h39.424V1.505H57.316v27.364h39.699L97.77,26.541z
						 M263.13,14.553l1.974-6.074l1.962,6.074h6.373l-5.151,3.765l1.972,6.074l-5.156-3.758l-5.163,3.758l1.971-6.074l-5.158-3.765
						H263.13z M225.942,14.553l1.967-6.074l1.98,6.074h6.366l-5.153,3.765l1.972,6.074l-5.165-3.758l-5.155,3.758l1.971-6.074
						l-5.161-3.765H225.942z M188.755,14.553l1.979-6.074l1.963,6.074h6.387l-5.159,3.765l1.963,6.074l-5.155-3.758l-5.158,3.758
						l1.967-6.074l-5.156-3.765H188.755z M151.577,14.553l1.963-6.074l1.976,6.074h6.368l-5.151,3.765l1.966,6.074l-5.159-3.758
						l-5.155,3.758l1.972-6.074l-5.162-3.765H151.577z M114.387,14.553l1.971-6.074l1.967,6.074h6.374l-5.15,3.765l1.976,6.074
						l-5.167-3.758l-5.159,3.758l1.971-6.074l-5.161-3.765H114.387z M79.17,20.635l-5.155,3.758l1.968-6.074l-5.15-3.765h6.377
						l1.96-6.074l1.967,6.074h6.384l-5.158,3.765l1.969,6.074L79.17,20.635z"/>
					<g>
						<path d="M97.769,25.958l1.019,2.825l-0.265-0.192c5.945-0.221,11.891-0.319,17.836-0.485l8.918-0.211l8.918-0.166
							l-1.086,0.789l0.711-2.343l1.061-3.491l1.199,3.491l0.794,2.315l-1.169-0.852l17.837-0.248l17.837-0.164l-1.562,1.136
							l0.732-2.334l1.538-4.905l1.627,4.901l0.771,2.325l-1.594-1.158l17.839-0.077c5.947-0.043,11.893,0.005,17.839,0.005
							l-1.664,1.211l0.761-2.325l1.688-5.157l1.622,5.155l0.734,2.335l-1.633-1.187l8.919,0.081l8.919,0.138l17.837,0.299
							l-1.141,0.829l0.795-2.314l1.167-3.398l1.035,3.398l0.712,2.342l-1.061-0.772l19.712,0.337l9.856,0.104l9.856,0.056
							l-0.62,0.62c0.02-4.561,0.037-9.121,0.014-13.682l-0.059-13.682l0.665,0.665c-9.557,0.049-19.114,0.22-28.671,0.344
							l-28.671,0.449L200.67,3.273l-28.671,0.176L143.33,3.602c-9.557-0.008-19.114,0.051-28.671-0.023
							c-9.557-0.062-19.114-0.058-28.671-0.188l-28.671-0.31l1.576-1.576c-0.053,4.561-0.085,9.121-0.179,13.682l-0.241,13.682
							l-1.155-1.155c6.617,0.131,13.233,0.201,19.85,0.382c6.617,0.17,13.233,0.293,19.85,0.504l-0.257,0.188L97.769,25.958z
							 M97.769,27.25l-0.496,1.702l-0.053,0.181l-0.204,0.006c-6.617,0.211-13.233,0.334-19.85,0.504
							c-6.617,0.182-13.233,0.252-19.85,0.383l-1.135,0.021l-0.021-1.178l-0.24-13.681c-0.094-4.561-0.126-9.122-0.179-13.682
							l-0.018-1.559l1.594-0.017l28.671-0.31c9.557-0.13,19.114-0.126,28.671-0.188c9.557-0.074,19.114-0.015,28.671-0.023
							l28.671,0.154l28.671,0.176l28.671,0.308l28.671,0.449c9.557,0.125,19.114,0.295,28.671,0.344l0.668,0.003l-0.003,0.662
							l-0.059,13.682c-0.023,4.561-0.005,9.121,0.014,13.682l0.002,0.615l-0.623,0.005l-9.856,0.055l-9.856,0.104l-19.712,0.336
							l-0.792,0.014l-0.269-0.785l-0.793-2.314l2.202,0.001l-0.714,2.341l-0.249,0.813l-0.893,0.016l-17.837,0.299l-8.919,0.138
							l-8.919,0.081l-1.232,0.012l-0.401-1.197l-0.777-2.321l3.31-0.002l-0.744,2.331l-0.386,1.211h-1.278
							c-5.946,0-11.893,0.048-17.839,0.005l-17.839-0.077l-1.226-0.005l-0.369-1.151l-0.746-2.333l3.165-0.003l-0.775,2.32
							l-0.383,1.146l-1.179-0.01l-17.837-0.164l-17.837-0.248l-0.914-0.014l-0.256-0.838l-0.715-2.341h2.259l-0.799,2.313
							l-0.278,0.805l-0.808-0.016l-8.918-0.166l-8.918-0.212c-5.945-0.166-11.891-0.265-17.836-0.485l-0.212-0.008l-0.053-0.185
							L97.769,27.25z"/>
						<path d="M262.974,14.334l1.193-6.16l0.552-2.845l1.324,2.847l2.712,5.832l-1.688-1.228l6.373,0.591l3.7,0.343l-3.002,1.795
							l-5.5,3.287l0.213-0.66l2.534,5.892l1.392,3.236l-3.213-1.915l-5.504-3.28h2.088l-5.105,3.838l-4.585,3.446l1.703-5.539
							l1.877-6.104l0.712,2.2l-4.635-4.482l-2.472-2.391l3.11,0.433L262.974,14.334z M263.263,14.732l-6.509,0.904l0.639-1.958
							l5.681,3.048l1.237,0.664l-0.524,1.536l-2.064,6.043l-2.882-2.091l5.221-3.678l1.16-0.817l0.928,0.818l4.808,4.235
							l-1.821,1.321l-1.409-6.257l-0.088-0.393l0.302-0.267l4.802-4.242l0.698,2.137l-6.373,0.591l-1.426,0.132l-0.261-1.361
							l-1.213-6.316l1.875,0.001L263.263,14.732z"/>
						<path d="M225.785,14.334l1.188-6.159l0.546-2.836l1.327,2.834l2.73,5.83l-1.686-1.224l6.366,0.59l3.703,0.343l-3.005,1.795
							l-5.502,3.287l0.214-0.66l2.534,5.892l1.39,3.23l-3.21-1.909l-5.512-3.279l2.088-0.001l-5.096,3.837l-4.589,3.456l1.705-5.546
							l1.877-6.104l0.713,2.2l-4.638-4.482l-2.474-2.39l3.112,0.432L225.785,14.334z M226.075,14.732l-6.51,0.904l0.638-1.958
							l5.684,3.048l1.238,0.664l-0.525,1.537l-2.065,6.044l-2.883-2.091l5.212-3.678l1.159-0.818l0.929,0.817l4.816,4.236
							l-1.82,1.321l-1.41-6.257l-0.088-0.393l0.302-0.267l4.804-4.243l0.698,2.138l-6.366,0.59l-1.422,0.132l-0.264-1.355
							l-1.231-6.318l1.874-0.002L226.075,14.732z"/>
						<path d="M188.598,14.334l1.198-6.161l0.552-2.841l1.323,2.843l2.713,5.832l-1.688-1.228l6.387,0.591l3.703,0.343l-3.006,1.794
							l-5.507,3.288l0.214-0.659l2.526,5.892l1.385,3.231l-3.207-1.912l-5.502-3.279h2.089l-5.1,3.837l-4.583,3.448l1.699-5.539
							l1.873-6.104l0.713,2.198l-4.633-4.482l-2.47-2.39l3.108,0.433L188.598,14.334z M188.887,14.732l-6.501,0.904l0.639-1.957
							l5.68,3.048l1.236,0.663l-0.523,1.535l-2.06,6.043l-2.883-2.089l5.216-3.679l1.16-0.818l0.929,0.818l4.807,4.235l-1.822,1.319
							l-1.4-6.255l-0.088-0.393l0.302-0.267l4.81-4.243l0.697,2.137l-6.387,0.591l-1.426,0.132l-0.261-1.36l-1.214-6.316
							l1.875,0.002L188.887,14.732z"/>
						<path d="M151.419,14.334l1.183-6.158l0.546-2.843l1.329,2.841l2.726,5.83l-1.687-1.225l6.368,0.59l3.701,0.343l-3.003,1.795
							l-5.5,3.287l0.213-0.659l2.528,5.892l1.386,3.23l-3.208-1.91l-5.507-3.28h2.088l-5.097,3.837l-4.589,3.456l1.706-5.546
							l1.878-6.104l0.713,2.2l-4.638-4.481l-2.475-2.391l3.113,0.432L151.419,14.334z M151.709,14.732l-6.515,0.905l0.639-1.958
							l5.684,3.048l1.238,0.664l-0.525,1.537l-2.065,6.044l-2.883-2.091l5.213-3.678l1.16-0.818l0.929,0.818l4.811,4.235
							l-1.821,1.32L156.17,18.5l-0.088-0.393l0.302-0.267l4.801-4.243l0.698,2.138l-6.368,0.59l-1.423,0.132l-0.263-1.357
							l-1.226-6.318l1.874-0.001L151.709,14.732z"/>
						<path d="M114.23,14.334l1.19-6.16l0.55-2.844l1.325,2.845l2.716,5.831l-1.687-1.227l6.374,0.591l3.699,0.343l-3.001,1.794
							l-5.499,3.288l0.213-0.66l2.538,5.891l1.393,3.232l-3.212-1.91l-5.515-3.279l2.087-0.001l-5.1,3.837l-4.587,3.45l1.704-5.542
							l1.877-6.104l0.713,2.2l-4.638-4.482l-2.474-2.391l3.112,0.433L114.23,14.334z M114.52,14.732l-6.51,0.904l0.638-1.958
							l5.684,3.048l1.238,0.664l-0.525,1.537l-2.064,6.043l-2.883-2.091l5.216-3.678l1.159-0.817l0.928,0.816l4.819,4.236
							l-1.82,1.321l-1.414-6.256l-0.089-0.394l0.302-0.267l4.8-4.242l0.698,2.137l-6.374,0.591l-1.425,0.132l-0.262-1.359
							l-1.217-6.317h1.875L114.52,14.732z"/>
						<path d="M79.169,20.904l-4.574,4.284l-2.11,1.977l0.593-3.076l1.218-6.317l0.64,1.978l-4.801-4.242l-2.783-2.459l3.481,0.323
							l6.377,0.591l-0.562,0.41l1.398-6.255l0.771-3.448l1.479,3.446l2.529,5.892l-1.687-1.227l6.384-0.099l5.709-0.088
							l-4.606,3.472l-5.1,3.845l0.712-2.199l1.125,6.348l0.603,3.401l-2.272-2.191L79.169,20.904z M79.168,20.412l5.801,3.104
							l-1.669,1.21l-2.812-5.8l-0.612-1.263l1.325-0.937l5.216-3.686l1.104,3.384l-6.384-0.099l-1.417-0.022L79.45,15.1
							l-1.404-6.256l2.25-0.001l-2.523,5.893l-0.159,0.372l-0.403,0.038l-6.377,0.591l0.698-2.136l5.499,3.288l1.223,0.73
							l-0.582,1.248l-2.718,5.831l-1.517-1.1L79.168,20.412z"/>
					</g>
				</g>
				<g>
					
						<linearGradient id="SVGID_14_" gradientUnits="userSpaceOnUse" x1="334.001" y1="-198.5576" x2="334.001" y2="-234.2941" gradientTransform="matrix(1 0 0 -1 -162 -197)">
						<stop  offset="0" style="stop-color:#0093D4"/>
						<stop  offset="0.1985" style="stop-color:#007BBB"/>
						<stop  offset="0.5934" style="stop-color:#00427F"/>
						<stop  offset="0.6873" style="stop-color:#002C64"/>
						<stop  offset="0.8148" style="stop-color:#001445"/>
						<stop  offset="0.9236" style="stop-color:#000533"/>
						<stop  offset="1" style="stop-color:#00002C"/>
					</linearGradient>
					<path fill="url(#SVGID_14_)" d="M57.316,1.049v36.794h36.787l0.476-1.467l-5.158-3.756h6.374l1.22-3.752l0.754-2.328
						l0.753,2.328l1.212,3.752h6.375l-5.155,3.756l0.474,1.467h29.864l0.479-1.467l-5.161-3.756h6.371l1.214-3.752l0.755-2.328
						l0.755,2.328l1.215,3.752h6.38l-5.168,3.756l0.478,1.467h29.862l0.476-1.467l-5.161-3.756h6.379l1.214-3.752l0.753-2.328
						l0.759,2.328l1.223,3.752h6.366l-5.16,3.756l0.476,1.467h29.869l0.475-1.467l-5.169-3.756h6.383l1.216-3.752l0.752-2.328
						l0.756,2.328l1.213,3.752h6.378l-5.154,3.756l0.471,1.467h29.861l0.474-1.467l-5.159-3.756h6.375l1.218-3.752l0.755-2.328
						l0.753,2.328l1.213,3.752h6.376l-5.147,3.756l0.472,1.467h36.509V1.049H57.316z M84.332,24.393l-5.162-3.758l-5.155,3.758
						l1.968-6.074l-5.15-3.765h6.377l1.96-6.074l1.967,6.074h6.384l-5.158,3.765L84.332,24.393z M121.525,24.393l-5.167-3.758
						l-5.159,3.758l1.971-6.074l-5.161-3.765h6.378l1.971-6.074l1.967,6.074h6.374l-5.15,3.765L121.525,24.393z M158.699,24.393
						l-5.159-3.758l-5.155,3.758l1.972-6.074l-5.162-3.765h6.382l1.963-6.074l1.976,6.074h6.368l-5.151,3.765L158.699,24.393z
						 M195.888,24.393l-5.155-3.758l-5.158,3.758l1.967-6.074l-5.156-3.765h6.369l1.979-6.074l1.963,6.074h6.387l-5.159,3.765
						L195.888,24.393z M233.074,24.393l-5.165-3.758l-5.155,3.758l1.971-6.074l-5.161-3.765h6.377l1.967-6.074l1.98,6.074h6.366
						l-5.153,3.765L233.074,24.393z M270.261,24.393l-5.156-3.758l-5.163,3.758l1.971-6.074l-5.158-3.765h6.376l1.974-6.074
						l1.962,6.074h6.373l-5.151,3.765L270.261,24.393z"/>
					<g>
						<path d="M57.518,1.25c0.164,6.065,0.297,12.13,0.4,18.196l0.345,18.397l-0.947-0.946l36.787-0.447l-1.327,0.964l0.458-1.472
							l0.513,1.578l-5.199-3.699l-3.725-2.65l4.598-0.031l6.374-0.045l-1.453,1.055l1.932-6.091l1.464-4.615l1.527,4.615
							l2.008,6.067l-1.538-1.119l6.375-0.044l5.113-0.036l-4.136,3.038l-5.14,3.776l0.611-1.882l0.479,1.466l-1.609-1.171
							l29.864-0.076l-1.68,1.22l0.48-1.467l0.64,1.976l-5.156-3.764l-4.362-3.184l5.396,0.008l6.371,0.009l-1.662,1.209l2.005-6.069
							l1.661-5.03l1.592,5.03l1.928,6.093l-1.585-1.151L143.3,31l5.051,0.035l-4.098,2.898l-5.216,3.69l0.56-1.726l0.459,1.474
							l-1.447-1.052l29.862,0.381l-1.087,0.79l0.495-1.461l0.407,1.254l-5.112-3.823l-2.568-1.921l3.18,0.042l6.379,0.083
							l-0.909,0.662l2.047-6.055l0.864-2.555l0.795,2.553l1.902,6.106l-0.75-0.544l6.366,0.051l2.272,0.018l-1.838,1.316
							l-5.19,3.715l0.249-0.768l0.464,1.471l-0.642-0.467l14.935,0.061c4.978,0.018,9.957,0.031,14.935,0l-0.585,0.426l0.469-1.469
							l0.226,0.693l-5.184-3.736l-1.611-1.16l1.991-0.008l6.383-0.024l-0.638,0.464l1.945-6.087l0.653-2.044l0.67,2.043l1.992,6.072
							l-0.685-0.498l6.378-0.037l2.305-0.014l-1.858,1.383l-5.115,3.812l0.3-0.919l0.486,1.462l-0.801-0.584l29.861-0.326
							l-1.11,0.81l0.456-1.473l0.431,1.321l-5.205-3.692l-3.152-2.236l3.895-0.047l6.375-0.077l-1.274,0.926l1.899-6.104l1.297-4.17
							l1.399,4.171l2.033,6.059l-1.415-1.029l6.376-0.051l4.704-0.037l-3.797,2.817l-5.117,3.797l0.576-1.771l0.483,1.463
							l-1.524-1.11l36.509-0.24l-1.841,1.843l-0.168-36.795l2.009,2.009l-28.671,0.09l-28.671-0.011L200.672,3.03l-28.671-0.221
							L143.33,2.575l-28.671-0.351c-9.557-0.142-19.114-0.22-28.671-0.417L57.518,1.25z M57.125,0.856l28.863-0.565
							c9.557-0.197,19.114-0.275,28.671-0.417l28.671-0.351l28.671-0.234l28.671-0.221l28.671-0.107l28.671-0.011l28.671,0.09
							l2.018,0.006l-0.01,2.003l-0.168,36.794l-0.008,1.854l-1.833-0.012l-36.509-0.24l-1.179-0.008l-0.345-1.104l-0.46-1.472
							l-0.346-1.106l0.922-0.662l5.177-3.715l0.907,2.78l-6.376-0.051l-1.097-0.01l-0.318-1.021l-1.9-6.101l2.697,0.001
							l-2.046,6.057l-0.317,0.938l-0.958-0.013l-6.375-0.077l0.743-2.283l5.114,3.817l0.7,0.522l-0.27,0.801l-0.491,1.461
							l-0.275,0.816l-0.835-0.009l-29.861-0.325l-0.623-0.007l-0.179-0.577l-0.455-1.473l-0.179-0.578l0.479-0.341l5.194-3.701
							l0.446,1.37l-6.378-0.038l-0.527-0.003l-0.158-0.495l-1.945-6.087l1.323-0.001l-1.992,6.073l-0.153,0.466l-0.485-0.002
							l-6.383-0.024l0.38-1.168l5.155,3.774l0.366,0.269l-0.14,0.426l-0.481,1.466l-0.141,0.429l-0.445-0.003
							c-4.978-0.032-9.957-0.019-14.935-0.001l-14.935,0.061l-0.486,0.002l-0.156-0.469l-0.487-1.463l-0.156-0.468l0.405-0.3
							l5.13-3.797l0.434,1.334l-6.366,0.051l-0.563,0.005l-0.187-0.549l-2.061-6.054l1.659-0.002l-1.888,6.105l-0.202,0.651
							l-0.708,0.011l-6.379,0.083l0.611-1.879l5.21,3.688l0.653,0.463l-0.246,0.793l-0.457,1.473l-0.242,0.779l-0.845,0.01
							l-29.862,0.381l-1.085,0.014l-0.362-1.064l-0.497-1.461l-0.354-1.043l0.914-0.682l5.121-3.82l0.954,2.935l-6.38,0.044
							l-1.2,0.009l-0.385-1.161l-2.012-6.066l3.253,0.001l-1.933,6.09l-0.384,1.207l-1.279,0.002l-6.371,0.009l1.033-3.176
							l5.167,3.748l1.037,0.753l-0.397,1.223l-0.477,1.467l-0.397,1.224l-1.283-0.003l-29.864-0.077l-1.235-0.003l-0.374-1.168
							l-0.469-1.469l-0.374-1.168l0.985-0.713l5.17-3.734l0.978,3.002l-6.375-0.044l-1.188-0.009l-0.351-1.11l-1.923-6.093h2.991
							l-2.018,6.069l-0.353,1.062l-1.1-0.009l-6.374-0.043l0.874-2.684l5.116,3.812l0.835,0.621l-0.323,0.957l-0.493,1.461
							l-0.33,0.978l-0.997-0.013l-36.787-0.447l-0.964-0.012l0.018-0.937l0.345-18.396c0.105-6.132,0.239-12.265,0.405-18.397
							L57.125,0.856z"/>
						<path d="M84.596,24.763l-6.005-3.331h1.161l-4.691,4.395l-5.995,5.614l3.263-7.595l2.531-5.892l0.427,1.318l-4.801-4.242
							l-1.062-0.938l1.41-0.131l6.377-0.591l-1.125,0.819l1.397-6.255l1.336-5.982l2.039,5.98l2.06,6.044l-1.781-1.295l6.384-0.099
							l8.03-0.124l-6.869,3.687l-5.681,3.049l0.392-1.209L84.596,24.763z M83.697,23.531l-2.365-4.878l-0.274-0.566l0.667-0.644
							l4.635-4.481l1.162,3.562l-6.384-0.099l-1.39-0.021l-0.391-1.274l-1.873-6.104l3.375-0.001l-2.523,5.892l-0.38,0.888
							l-0.745-0.069l-6.377-0.591l0.349-1.068l5.499,3.288l0.637,0.381l-0.21,0.938l-1.406,6.257l-2.731-1.98l5.619-3.121
							l0.729-0.405l0.432,0.404L83.697,23.531z"/>
						<path d="M121.79,24.763l-6.011-3.331h1.16l-4.694,4.395l-5.996,5.612l3.264-7.595l2.533-5.891l0.428,1.32l-4.812-4.243
							l-1.064-0.938l1.412-0.131l6.378-0.591l-1.124,0.817l1.408-6.257l1.342-5.96l2.033,5.961l2.061,6.044l-1.781-1.295
							l6.374-0.099l8.018-0.124l-6.855,3.685l-5.673,3.05l0.391-1.211L121.79,24.763z M120.889,23.53l-2.371-4.876l-0.275-0.565
							l0.666-0.646l4.627-4.48l1.163,3.562l-6.374-0.099l-1.39-0.021l-0.391-1.274l-1.873-6.104l3.375,0.001l-2.534,5.892
							l-0.381,0.886l-0.743-0.069l-6.378-0.591l0.349-1.069l5.509,3.287l0.639,0.382l-0.211,0.939l-1.408,6.256l-2.731-1.98
							l5.622-3.121l0.729-0.404l0.432,0.404L120.889,23.53z"/>
						<path d="M158.962,24.763l-6.003-3.331h1.161l-4.691,4.395l-6.001,5.622l3.27-7.604l2.534-5.891l0.428,1.32l-4.813-4.243
							l-1.064-0.938l1.413-0.131l6.382-0.591l-1.125,0.818l1.4-6.256l1.334-5.96l2.04,5.957l2.07,6.043l-1.78-1.293l6.368-0.099
							l8.02-0.124l-6.857,3.686l-5.674,3.049l0.392-1.208L158.962,24.763z M158.064,23.531l-2.363-4.879l-0.274-0.565l0.666-0.645
							l4.627-4.48l1.163,3.562l-6.368-0.099l-1.388-0.021l-0.392-1.271l-1.882-6.104l3.374-0.003l-2.525,5.892l-0.38,0.888
							l-0.745-0.069l-6.382-0.591l0.349-1.069l5.51,3.287l0.64,0.382l-0.212,0.939l-1.409,6.257l-2.731-1.981l5.619-3.121
							l0.729-0.405l0.432,0.405L158.064,23.531z"/>
						<path d="M196.152,24.763l-5.999-3.332h1.16l-4.694,4.396l-5.988,5.606l3.257-7.587l2.529-5.892l0.428,1.319l-4.808-4.242
							l-1.062-0.938l1.411-0.131l6.369-0.59l-1.124,0.815l1.416-6.257l1.347-5.953l2.027,5.957l2.057,6.044l-1.781-1.296
							l6.387-0.099l8.031-0.124l-6.87,3.687l-5.681,3.048l0.392-1.208L196.152,24.763z M195.254,23.531l-2.361-4.879l-0.273-0.565
							l0.666-0.644l4.636-4.481l1.162,3.562l-6.387-0.099l-1.391-0.021l-0.391-1.275l-1.87-6.104l3.374,0.004l-2.542,5.891
							l-0.382,0.884l-0.742-0.068l-6.369-0.59l0.349-1.069l5.505,3.288l0.638,0.381l-0.21,0.938l-1.404,6.256l-2.732-1.979
							l5.623-3.121l0.729-0.404l0.432,0.405L195.254,23.531z"/>
						<path d="M233.338,24.763l-6.009-3.331h1.161l-4.69,4.394l-6,5.622l3.269-7.604l2.533-5.891l0.428,1.32l-4.812-4.243
							l-1.064-0.938l1.412-0.131l6.377-0.591l-1.125,0.818l1.404-6.256l1.334-5.944l2.039,5.941l2.074,6.043l-1.78-1.292
							l6.366-0.099l8.023-0.124l-6.861,3.686l-5.676,3.049l0.392-1.21L233.338,24.763z M232.439,23.53l-2.368-4.877l-0.274-0.566
							l0.666-0.645l4.63-4.481l1.163,3.562l-6.366-0.099l-1.387-0.021l-0.393-1.271l-1.886-6.104l3.373-0.003l-2.53,5.892
							l-0.381,0.887l-0.744-0.069l-6.377-0.591l0.349-1.069l5.509,3.287l0.639,0.382l-0.211,0.939l-1.409,6.256l-2.731-1.98
							l5.619-3.121l0.729-0.405l0.432,0.404L232.439,23.53z"/>
						<path d="M270.525,24.763l-6-3.332l1.16,0.001l-4.699,4.395l-5.992,5.604l3.261-7.587l2.533-5.891l0.427,1.32l-4.81-4.243
							l-1.063-0.938l1.412-0.131l6.376-0.59l-1.124,0.816l1.412-6.257l1.345-5.962l2.029,5.965l2.056,6.043l-1.781-1.296
							l6.373-0.099l8.02-0.124l-6.857,3.685l-5.673,3.05l0.391-1.21L270.525,24.763z M269.625,23.528l-2.367-4.875l-0.274-0.565
							l0.666-0.645l4.627-4.48l1.163,3.562l-6.373-0.099l-1.391-0.021l-0.391-1.275l-1.868-6.104l3.374,0.003l-2.537,5.891
							l-0.381,0.885l-0.743-0.069l-6.376-0.59l0.349-1.069l5.507,3.288l0.639,0.381l-0.211,0.938l-1.408,6.256l-2.73-1.98
							l5.627-3.121l0.728-0.404l0.432,0.404L269.625,23.528z"/>
					</g>
				</g>
				<g>
					
						<linearGradient id="SVGID_15_" gradientUnits="userSpaceOnUse" x1="241.1772" y1="-205.6685" x2="241.1772" y2="-235.6345" gradientTransform="matrix(1 0 0 -1 -162 -197)">
						<stop  offset="0" style="stop-color:#FFFFFF"/>
						<stop  offset="0.3837" style="stop-color:#FDFDFD"/>
						<stop  offset="0.5487" style="stop-color:#F6F6F6"/>
						<stop  offset="0.6713" style="stop-color:#E9E9E9"/>
						<stop  offset="0.7253" style="stop-color:#E1E1E1"/>
						<stop  offset="1" style="stop-color:#737373"/>
					</linearGradient>
					<polygon fill="url(#SVGID_15_)" points="87.521,14.553 81.137,14.553 79.17,8.479 77.21,14.553 70.833,14.553 75.983,18.318 
						74.015,24.393 79.17,20.635 84.332,24.393 82.363,18.318 					"/>
					<path d="M87.143,14.675l-6.006,0.371l-0.327,0.02l-0.142-0.361l-2.342-5.953l1.688-0.001l-2.242,5.983l-0.161,0.428
						l-0.402-0.019l-6.377-0.295l0.174-0.534l5.325,3.527l0.333,0.221l-0.12,0.438l-1.687,6.166l-1.366-0.99l5.126-3.797
						l0.542-0.402l0.56,0.401l5.191,3.718l-1.518,1.101l-1.547-6.212l-0.104-0.417l0.3-0.188L87.143,14.675z M87.772,14.47
						l-5.09,4.286l0.196-0.604l2.391,5.938l1.274,3.166l-2.792-2.066l-5.132-3.797l1.102-0.001l-5.184,3.718l-2.38,1.707
						l1.014-2.697l2.25-5.983l0.213,0.659l-4.976-4.003l-0.619-0.498l0.793-0.037l6.377-0.295l-0.562,0.409l1.679-6.165l0.868-3.188
						l0.819,3.188l1.592,6.195l-0.469-0.341L87.772,14.47z"/>
				</g>
				<g>
					
						<linearGradient id="SVGID_16_" gradientUnits="userSpaceOnUse" x1="427.0967" y1="-205.6685" x2="427.0967" y2="-235.6345" gradientTransform="matrix(1 0 0 -1 -162 -197)">
						<stop  offset="0" style="stop-color:#FFFFFF"/>
						<stop  offset="0.3837" style="stop-color:#FDFDFD"/>
						<stop  offset="0.5487" style="stop-color:#F6F6F6"/>
						<stop  offset="0.6713" style="stop-color:#E9E9E9"/>
						<stop  offset="0.7253" style="stop-color:#E1E1E1"/>
						<stop  offset="1" style="stop-color:#737373"/>
					</linearGradient>
					<polygon fill="url(#SVGID_16_)" points="259.941,24.393 265.104,20.635 270.261,24.393 268.289,18.318 273.44,14.553 
						267.067,14.553 265.104,8.479 263.13,14.553 256.754,14.553 261.912,18.318 					"/>
					<path d="M260.177,24.07l4.637-3.834l0.253-0.209l0.328,0.209l5.388,3.439l-1.365,0.99l-1.69-6.165l-0.121-0.439l0.334-0.221
						l5.325-3.527l0.174,0.534l-6.373,0.295l-0.402,0.019l-0.161-0.428L264.26,8.75l1.687,0.001l-1.927,6.089l-0.203,0.642
						l-0.687,0.005l-6.376,0.049l0.581-1.781l4.896,4.123l0.329,0.277l-0.132,0.329L260.177,24.07z M259.786,24.608l1.61-6.457
						l0.196,0.604l-5.42-3.407l-2.875-1.808l3.457,0.027l6.376,0.049l-0.89,0.646l2.021-6.059l0.928-2.783l0.759,2.784l1.681,6.165
						l-0.562-0.409l6.373,0.295l0.793,0.037l-0.619,0.498l-4.977,4.003l0.213-0.659l2.253,5.983l1.161,3.082l-2.526-2.092
						l-4.924-4.076h0.58L259.786,24.608z"/>
				</g>
				<g>
					
						<linearGradient id="SVGID_17_" gradientUnits="userSpaceOnUse" x1="278.3545" y1="-205.6685" x2="278.3545" y2="-235.6345" gradientTransform="matrix(1 0 0 -1 -162 -197)">
						<stop  offset="0" style="stop-color:#FFFFFF"/>
						<stop  offset="0.3837" style="stop-color:#FDFDFD"/>
						<stop  offset="0.5487" style="stop-color:#F6F6F6"/>
						<stop  offset="0.6713" style="stop-color:#E9E9E9"/>
						<stop  offset="0.7253" style="stop-color:#E1E1E1"/>
						<stop  offset="1" style="stop-color:#737373"/>
					</linearGradient>
					<polygon fill="url(#SVGID_17_)" points="111.2,24.393 116.358,20.635 121.525,24.393 119.549,18.318 124.699,14.553 
						118.325,14.553 116.358,8.479 114.387,14.553 108.009,14.553 113.17,18.318 					"/>
					<path d="M111.436,24.07l4.632-3.833l0.252-0.209l0.327,0.208l5.399,3.439l-1.365,0.992l-1.695-6.167l-0.121-0.439l0.334-0.221
						l5.324-3.527l0.174,0.534l-6.374,0.295l-0.401,0.019l-0.161-0.427l-2.249-5.983h1.687l-1.924,6.089l-0.203,0.642l-0.688,0.005
						l-6.378,0.049l0.581-1.781l4.9,4.123l0.329,0.277l-0.133,0.329L111.436,24.07z M111.044,24.609l1.61-6.458l0.196,0.604
						l-5.422-3.407l-2.878-1.808l3.458,0.027l6.378,0.049l-0.89,0.647l2.018-6.059l0.926-2.782l0.761,2.783l1.685,6.165
						l-0.562-0.409l6.374,0.295l0.792,0.037l-0.618,0.498l-4.976,4.003l0.213-0.66l2.257,5.983l1.162,3.078l-2.526-2.087
						l-4.935-4.077h0.58L111.044,24.609z"/>
				</g>
				<g>
					
						<linearGradient id="SVGID_18_" gradientUnits="userSpaceOnUse" x1="315.5391" y1="-205.6685" x2="315.5391" y2="-235.6345" gradientTransform="matrix(1 0 0 -1 -162 -197)">
						<stop  offset="0" style="stop-color:#FFFFFF"/>
						<stop  offset="0.3837" style="stop-color:#FDFDFD"/>
						<stop  offset="0.5487" style="stop-color:#F6F6F6"/>
						<stop  offset="0.6713" style="stop-color:#E9E9E9"/>
						<stop  offset="0.7253" style="stop-color:#E1E1E1"/>
						<stop  offset="1" style="stop-color:#737373"/>
					</linearGradient>
					<polygon fill="url(#SVGID_18_)" points="148.384,24.393 153.54,20.635 158.699,24.393 156.733,18.318 161.884,14.553 
						155.516,14.553 153.54,8.479 151.577,14.553 145.194,14.553 150.356,18.318 					"/>
					<path d="M148.621,24.07l4.629-3.833l0.252-0.209l0.328,0.209l5.391,3.438l-1.366,0.99L156.17,18.5l-0.12-0.438l0.333-0.221
						l5.325-3.527l0.174,0.534l-6.368,0.295l-0.401,0.019l-0.161-0.427l-2.257-5.982l1.687-0.001l-1.916,6.089l-0.202,0.643
						l-0.688,0.005l-6.382,0.049l0.581-1.781l4.9,4.123l0.329,0.277l-0.133,0.329L148.621,24.07z M148.229,24.609l1.611-6.458
						l0.196,0.604l-5.423-3.407l-2.878-1.808l3.458,0.027l6.382,0.049l-0.891,0.648l2.01-6.059l0.923-2.783l0.764,2.781l1.694,6.166
						l-0.562-0.408l6.368,0.295l0.793,0.037l-0.619,0.498l-4.976,4.003l0.213-0.659l2.247,5.984l1.155,3.075l-2.521-2.086
						l-4.927-4.076h0.58L148.229,24.609z"/>
				</g>
				<g>
					
						<linearGradient id="SVGID_19_" gradientUnits="userSpaceOnUse" x1="352.7344" y1="-205.6685" x2="352.7344" y2="-235.6345" gradientTransform="matrix(1 0 0 -1 -162 -197)">
						<stop  offset="0" style="stop-color:#FFFFFF"/>
						<stop  offset="0.3837" style="stop-color:#FDFDFD"/>
						<stop  offset="0.5487" style="stop-color:#F6F6F6"/>
						<stop  offset="0.6713" style="stop-color:#E9E9E9"/>
						<stop  offset="0.7253" style="stop-color:#E1E1E1"/>
						<stop  offset="1" style="stop-color:#737373"/>
					</linearGradient>
					<polygon fill="url(#SVGID_19_)" points="185.575,24.393 190.733,20.635 195.888,24.393 193.925,18.318 199.083,14.553 
						192.697,14.553 190.733,8.479 188.755,14.553 182.386,14.553 187.542,18.318 					"/>
					<path d="M185.811,24.07l4.632-3.833l0.252-0.21l0.328,0.21l5.387,3.438l-1.366,0.99l-1.682-6.166l-0.12-0.439l0.333-0.221
						l5.333-3.526l0.174,0.534l-6.387,0.296l-0.402,0.019l-0.161-0.428l-2.245-5.983l1.687,0.002l-1.932,6.089l-0.203,0.641
						l-0.687,0.005l-6.369,0.049l0.581-1.781l4.895,4.124l0.328,0.276l-0.132,0.328L185.811,24.07z M185.42,24.608l1.606-6.457
						l0.196,0.604l-5.417-3.407l-2.875-1.808l3.456,0.027l6.369,0.049l-0.89,0.646l2.025-6.059l0.929-2.778l0.758,2.78l1.682,6.165
						l-0.562-0.409l6.387,0.296l0.794,0.037l-0.62,0.498l-4.984,4.004l0.214-0.659l2.245,5.983l1.154,3.076l-2.52-2.087
						l-4.922-4.076h0.58L185.42,24.608z"/>
				</g>
				<g>
					
						<linearGradient id="SVGID_20_" gradientUnits="userSpaceOnUse" x1="389.9102" y1="-205.6685" x2="389.9102" y2="-235.6345" gradientTransform="matrix(1 0 0 -1 -162 -197)">
						<stop  offset="0" style="stop-color:#FFFFFF"/>
						<stop  offset="0.3837" style="stop-color:#FDFDFD"/>
						<stop  offset="0.5487" style="stop-color:#F6F6F6"/>
						<stop  offset="0.6713" style="stop-color:#E9E9E9"/>
						<stop  offset="0.7253" style="stop-color:#E1E1E1"/>
						<stop  offset="1" style="stop-color:#737373"/>
					</linearGradient>
					<polygon fill="url(#SVGID_20_)" points="222.755,24.393 227.91,20.635 233.074,24.393 231.103,18.318 236.256,14.553 
						229.89,14.553 227.91,8.479 225.942,14.553 219.565,14.553 224.726,18.318 					"/>
					<path d="M222.991,24.07l4.628-3.833l0.252-0.209l0.327,0.209l5.396,3.438l-1.365,0.99l-1.69-6.165l-0.121-0.439l0.334-0.221
						l5.328-3.526l0.174,0.534l-6.366,0.295l-0.4,0.019l-0.161-0.426l-2.262-5.982l1.687-0.001l-1.92,6.089l-0.203,0.643
						l-0.688,0.005l-6.377,0.049l0.581-1.781l4.9,4.123l0.329,0.277l-0.133,0.329L222.991,24.07z M222.6,24.609l1.611-6.458
						l0.196,0.604l-5.422-3.407l-2.878-1.808l3.458,0.027l6.377,0.049l-0.891,0.647l2.014-6.059l0.923-2.775l0.764,2.773
						l1.699,6.166l-0.562-0.408l6.366,0.295l0.793,0.037l-0.619,0.498l-4.979,4.003l0.213-0.66l2.253,5.983l1.159,3.076
						l-2.524-2.086l-4.932-4.076h0.58L222.6,24.609z"/>
				</g>
				<g>
					<polygon fill="#FFFFFF" points="106.11,32.621 99.735,32.621 98.523,28.869 97.77,26.541 97.016,28.869 95.795,32.621 
						89.421,32.621 94.579,36.377 94.104,37.844 101.429,37.844 100.955,36.377 					"/>
					<path d="M105.593,32.791c-0.89,0.15-1.78,0.283-2.67,0.369c-1.062,0.107-2.125,0.191-3.188,0.238l-0.52,0.023l-0.22-0.562
						c-0.39-0.993-0.729-2.004-1.082-3.008c-0.335-1.011-0.64-2.031-0.883-3.072h1.479c-0.405,0.988-0.854,1.963-1.271,2.949
						c-0.438,0.978-0.814,1.976-1.156,2.984l-0.071,0.211l-0.216-0.002c-1.062-0.011-2.125,0.018-3.187,0.085l-3.187,0.255
						l0.378-1.162c1.843,1.084,3.594,2.291,5.354,3.487l0.558,0.38l-0.205,0.709L95.08,38.16l-0.976-1.342
						c0.61-0.028,1.221-0.022,1.832-0.026c0.61-0.005,1.221-0.007,1.831,0.017c1.221,0.023,2.442,0.07,3.663,0.142l-0.851,1.17
						c-0.138-0.495-0.253-0.998-0.38-1.496l-0.155-0.608l0.443-0.279c0.9-0.57,1.815-1.119,2.741-1.654
						C104.002,33.632,104.794,33.207,105.593,32.791z M106.168,32.701c-0.759,0.764-1.538,1.5-2.33,2.219
						c-0.793,0.716-1.596,1.419-2.415,2.102l0.289-0.889c0.189,0.479,0.39,0.953,0.568,1.436l0.405,1.099l-1.256,0.072
						c-1.221,0.069-2.442,0.116-3.663,0.141c-0.61,0.022-1.221,0.021-1.831,0.017c-0.611-0.004-1.221,0.002-1.832-0.024
						l-1.437-0.065l0.461-1.277l0.524-1.45l0.354,1.09c-1.679-1.308-3.366-2.604-4.962-4.024l-1.471-1.312l1.85,0.147l3.187,0.256
						c1.062,0.068,2.125,0.097,3.187,0.087l-0.287,0.208c0.317-1.018,0.6-2.047,0.821-3.096c0.242-1.039,0.449-2.094,0.701-3.131
						l0.544-2.237l0.936,2.238c0.413,0.985,0.765,1.99,1.083,3.007c0.302,1.021,0.618,2.039,0.882,3.072l-0.74-0.539
						c1.062,0.047,2.125,0.131,3.188,0.238c1.062,0.104,2.125,0.241,3.187,0.441l0.198,0.037L106.168,32.701z"/>
				</g>
				<g>
					<polygon fill="#FFFFFF" points="143.301,32.621 136.921,32.621 135.706,28.869 134.951,26.541 134.195,28.869 132.981,32.621 
						126.61,32.621 131.771,36.377 131.293,37.844 138.61,37.844 138.132,36.377 					"/>
					<path d="M142.783,32.791c-0.891,0.152-1.781,0.283-2.672,0.369c-1.063,0.107-2.126,0.191-3.19,0.24l-0.52,0.021l-0.221-0.562
						c-0.391-0.992-0.731-2.002-1.084-3.008c-0.336-1.01-0.641-2.031-0.885-3.071h1.479c-0.405,0.987-0.855,1.963-1.27,2.946
						c-0.437,0.979-0.811,1.978-1.151,2.986l-0.071,0.211l-0.216-0.002c-1.062-0.011-2.124,0.018-3.186,0.085l-3.186,0.255
						l0.378-1.162c1.844,1.084,3.596,2.291,5.357,3.487l0.56,0.38l-0.206,0.711l-0.43,1.482l-0.976-1.344
						c0.61-0.028,1.22-0.022,1.83-0.026c0.609-0.005,1.219-0.007,1.829,0.017c1.22,0.023,2.439,0.07,3.659,0.142l-0.851,1.172
						c-0.139-0.495-0.256-0.998-0.384-1.496l-0.157-0.61l0.446-0.281c0.902-0.569,1.819-1.119,2.747-1.653
						C141.188,33.631,141.982,33.207,142.783,32.791z M143.359,32.701c-0.761,0.765-1.542,1.502-2.337,2.219
						s-1.601,1.42-2.421,2.102l0.289-0.891c0.191,0.479,0.392,0.953,0.571,1.436l0.409,1.101l-1.26,0.072
						c-1.22,0.069-2.439,0.116-3.659,0.141c-0.61,0.022-1.22,0.021-1.829,0.017c-0.61-0.004-1.22,0.002-1.83-0.024l-1.439-0.065
						l0.464-1.279l0.526-1.449l0.354,1.091c-1.68-1.308-3.369-2.604-4.965-4.024l-1.472-1.311l1.85,0.146l3.186,0.256
						c1.062,0.068,2.124,0.097,3.186,0.087l-0.287,0.208c0.315-1.018,0.597-2.047,0.816-3.096c0.24-1.041,0.449-2.094,0.701-3.131
						l0.542-2.234l0.936,2.234c0.414,0.985,0.766,1.991,1.086,3.008c0.303,1.021,0.62,2.037,0.885,3.071l-0.74-0.538
						c1.063,0.047,2.126,0.131,3.19,0.238c1.063,0.104,2.126,0.241,3.19,0.441l0.198,0.037L143.359,32.701z"/>
				</g>
				<g>
					<polygon fill="#FFFFFF" points="180.481,32.621 174.115,32.621 172.893,28.869 172.134,26.541 171.38,28.869 170.166,32.621 
						163.787,32.621 168.948,36.377 168.472,37.844 175.797,37.844 175.321,36.377 					"/>
					<path d="M179.964,32.791c-0.889,0.15-1.777,0.282-2.666,0.369c-1.061,0.107-2.122,0.191-3.183,0.238l-0.518,0.022l-0.221-0.56
						c-0.393-0.993-0.735-2.002-1.091-3.008c-0.339-1.011-0.645-2.03-0.891-3.071l1.48-0.002c-0.404,0.988-0.853,1.963-1.268,2.947
						c-0.437,0.979-0.812,1.978-1.152,2.986l-0.071,0.211l-0.216-0.002c-1.063-0.012-2.126,0.018-3.189,0.084l-3.189,0.256
						l0.378-1.162c1.844,1.084,3.596,2.291,5.357,3.487l0.559,0.38l-0.205,0.71l-0.428,1.481l-0.976-1.342
						c0.61-0.028,1.221-0.022,1.831-0.026c0.61-0.005,1.221-0.007,1.832,0.017c1.221,0.023,2.441,0.07,3.662,0.142l-0.851,1.171
						c-0.139-0.496-0.254-0.998-0.382-1.497l-0.155-0.608l0.444-0.281c0.9-0.568,1.816-1.117,2.743-1.652
						C178.372,33.632,179.165,33.207,179.964,32.791z M180.54,32.701c-0.759,0.764-1.539,1.501-2.333,2.219
						c-0.794,0.717-1.598,1.42-2.417,2.102l0.289-0.89c0.19,0.479,0.391,0.953,0.569,1.437l0.406,1.099l-1.257,0.072
						c-1.221,0.069-2.441,0.116-3.662,0.141c-0.611,0.022-1.221,0.021-1.832,0.017c-0.61-0.004-1.221,0.002-1.831-0.024
						l-1.438-0.065l0.462-1.277l0.524-1.45l0.354,1.09c-1.68-1.308-3.368-2.604-4.965-4.024l-1.472-1.311l1.85,0.146l3.189,0.256
						c1.063,0.068,2.126,0.097,3.189,0.086l-0.287,0.209c0.316-1.018,0.596-2.047,0.815-3.096c0.241-1.041,0.447-2.094,0.699-3.13
						l0.542-2.233l0.938,2.23c0.415,0.985,0.769,1.99,1.09,3.008c0.305,1.021,0.623,2.039,0.891,3.072l-0.739-0.537
						c1.061,0.047,2.122,0.131,3.183,0.239c1.061,0.104,2.122,0.24,3.183,0.44l0.198,0.037L180.54,32.701z"/>
				</g>
				<g>
					<polygon fill="#FFFFFF" points="217.67,32.621 211.292,32.621 210.079,28.869 209.323,26.541 208.571,28.869 207.355,32.621 
						200.972,32.621 206.141,36.377 205.666,37.844 212.987,37.844 212.516,36.377 					"/>
					<path d="M217.154,32.791c-0.891,0.15-1.782,0.283-2.673,0.369c-1.063,0.107-2.126,0.191-3.189,0.24l-0.52,0.021l-0.221-0.562
						c-0.39-0.993-0.73-2.004-1.083-3.008c-0.335-1.01-0.642-2.031-0.886-3.071h1.479c-0.404,0.987-0.852,1.963-1.268,2.948
						c-0.438,0.978-0.812,1.976-1.153,2.984l-0.071,0.211l-0.216-0.002c-1.064-0.011-2.128,0.018-3.192,0.085l-3.191,0.257
						l0.378-1.164c1.847,1.082,3.602,2.291,5.365,3.486l0.56,0.38l-0.205,0.71l-0.427,1.482l-0.977-1.344
						c0.61-0.027,1.22-0.021,1.83-0.024c0.61-0.005,1.22-0.007,1.83,0.017c1.22,0.023,2.44,0.07,3.661,0.142l-0.852,1.168
						c-0.137-0.495-0.251-0.998-0.377-1.496l-0.153-0.606l0.442-0.279c0.9-0.57,1.815-1.119,2.74-1.654
						C215.563,33.633,216.355,33.207,217.154,32.791z M217.729,32.701c-0.758,0.764-1.537,1.5-2.33,2.218
						c-0.793,0.717-1.596,1.42-2.414,2.103l0.289-0.887c0.188,0.479,0.388,0.953,0.564,1.436l0.401,1.097l-1.253,0.072
						c-1.22,0.069-2.44,0.116-3.661,0.141c-0.61,0.022-1.22,0.021-1.83,0.017c-0.61-0.004-1.22,0.002-1.83-0.024l-1.437-0.065
						l0.46-1.277l0.523-1.45l0.354,1.091c-1.683-1.309-3.374-2.604-4.974-4.023l-1.477-1.312l1.854,0.148l3.191,0.256
						c1.064,0.068,2.128,0.096,3.192,0.086l-0.287,0.208c0.316-1.017,0.598-2.046,0.817-3.095c0.241-1.041,0.447-2.095,0.699-3.131
						l0.542-2.238l0.938,2.236c0.413,0.986,0.767,1.99,1.086,3.008c0.303,1.021,0.618,2.039,0.883,3.073l-0.74-0.538
						c1.063,0.047,2.126,0.131,3.189,0.237c1.063,0.104,2.126,0.241,3.189,0.44l0.198,0.037L217.729,32.701z"/>
				</g>
				<g>
					<polygon fill="#FFFFFF" points="254.852,32.621 248.476,32.621 247.262,28.869 246.509,26.541 245.754,28.869 244.537,32.621 
						238.162,32.621 243.321,36.377 242.848,37.844 250.177,37.844 249.705,36.377 					"/>
					<path d="M254.336,32.791c-0.891,0.15-1.782,0.283-2.672,0.369c-1.063,0.107-2.125,0.191-3.188,0.24l-0.52,0.021l-0.221-0.562
						c-0.39-0.993-0.73-2.002-1.083-3.008c-0.336-1.011-0.64-2.031-0.883-3.071h1.479c-0.405,0.987-0.854,1.963-1.271,2.948
						c-0.438,0.978-0.813,1.976-1.154,2.984l-0.071,0.211l-0.216-0.002c-1.062-0.011-2.125,0.018-3.187,0.086l-3.188,0.256
						l0.378-1.164c1.843,1.082,3.595,2.291,5.355,3.487l0.558,0.379l-0.204,0.71l-0.425,1.481l-0.977-1.341
						c0.611-0.028,1.222-0.022,1.833-0.026c0.61-0.005,1.221-0.007,1.832,0.017c1.222,0.023,2.443,0.07,3.665,0.142l-0.851,1.168
						c-0.137-0.495-0.251-0.997-0.378-1.496l-0.153-0.604l0.442-0.281c0.898-0.57,1.812-1.119,2.736-1.654
						C252.748,33.633,253.539,33.207,254.336,32.791z M254.91,32.701c-0.757,0.764-1.535,1.5-2.326,2.218
						c-0.792,0.716-1.593,1.419-2.41,2.103l0.288-0.888c0.188,0.479,0.388,0.954,0.565,1.437l0.402,1.096l-1.253,0.073
						c-1.222,0.069-2.443,0.116-3.665,0.141c-0.611,0.022-1.222,0.021-1.832,0.017c-0.611-0.004-1.222,0.002-1.833-0.024
						l-1.436-0.065l0.459-1.275l0.522-1.45l0.354,1.088c-1.679-1.308-3.367-2.604-4.963-4.024l-1.473-1.312l1.851,0.147l3.188,0.256
						c1.062,0.068,2.125,0.097,3.187,0.087l-0.287,0.208c0.316-1.018,0.599-2.047,0.819-3.096c0.242-1.041,0.449-2.094,0.701-3.131
						l0.544-2.237l0.936,2.238c0.413,0.985,0.764,1.991,1.083,3.007c0.302,1.021,0.618,2.039,0.883,3.071l-0.74-0.538
						c1.063,0.047,2.125,0.131,3.188,0.238c1.062,0.104,2.125,0.241,3.188,0.441l0.198,0.037L254.91,32.701z"/>
				</g>
			</g>
		</g>
	</g>
</g>
</svg>
