<?xml version="1.0" encoding="utf-8"?>
<!-- Generator: Adobe Illustrator 16.2.0, SVG Export Plug-In . SVG Version: 6.00 Build 0)  -->
<!DOCTYPE svg PUBLIC "-//W3C//DTD SVG 1.1//EN" "http://www.w3.org/Graphics/SVG/1.1/DTD/svg11.dtd">
<svg version="1.1" id="Layer_1" xmlns="http://www.w3.org/2000/svg" xmlns:xlink="http://www.w3.org/1999/xlink" x="0px" y="0px"
	 width="498.269px" height="411.634px" viewBox="20.88 0 498.269 411.634" enable-background="new 20.88 0 498.269 411.634"
	 xml:space="preserve" preserveAspectRatio="none">
<g>
	
		<image overflow="visible" width="2275" height="1913" xlink:href="4DF5A83ACE1B3239.png"  transform="matrix(0.2395 0 0 0.2396 -2.1274 -23.6162)">
	</image>
	<g>
		<g>
			<g>
				
					<linearGradient id="SVGID_1_" gradientUnits="userSpaceOnUse" x1="431.9131" y1="-175.9238" x2="431.9131" y2="454.4052" gradientTransform="matrix(1 0 0 -1 -162 255)">
					<stop  offset="0" style="stop-color:#FFFFFF"/>
					<stop  offset="0.3837" style="stop-color:#FDFDFD"/>
					<stop  offset="0.5487" style="stop-color:#F6F6F6"/>
					<stop  offset="0.6713" style="stop-color:#E9E9E9"/>
					<stop  offset="0.7253" style="stop-color:#E1E1E1"/>
					<stop  offset="1" style="stop-color:#737373"/>
				</linearGradient>
				<rect x="22.477" y="2.223" fill="url(#SVGID_1_)" width="494.871" height="403.6"/>
				<path d="M517.564,406.039l-62.076,0.574l-30.93,0.253l-30.93,0.163l-61.857,0.327l-61.859,0.192l-123.718,0.233l-61.859-0.092
					l-61.859-0.281l-1.596-0.008l0.009-1.58l0.564-100.9l0.232-50.45l0.109-50.45l-0.021-50.45l-0.085-50.45l-0.179-50.45
					l-0.23-50.45l-0.005-1.192l1.203-0.006l123.718-0.577L269.912,0.12L393.63-0.104l61.858-0.015l61.858,0.083l2.266,0.003
					l-0.006,2.256l-0.272,100.9l-0.363,100.9l-0.582,100.9L517.564,406.039z M517.127,405.602l-0.82-100.679l-0.582-100.9
					l-0.362-100.9l-0.272-100.9l2.259,2.259L455.49,4.565l-61.86-0.016L269.912,4.325L146.194,3.998L22.477,3.42l1.198-1.198
					l-0.23,50.45l-0.179,50.45l-0.085,50.45l-0.021,50.45l0.109,50.451l0.232,50.449l0.564,100.9l-1.587-1.588l61.859-0.281
					l61.859-0.092l123.718,0.232l61.859,0.193l61.857,0.327l30.93,0.163l30.93,0.253L517.127,405.602z"/>
			</g>
			<g>
				
					<linearGradient id="SVGID_2_" gradientUnits="userSpaceOnUse" x1="431.9121" y1="-121.4355" x2="431.9121" y2="-154.7583" gradientTransform="matrix(1 0 0 -1 -162 255)">
					<stop  offset="0" style="stop-color:#B21C1E"/>
					<stop  offset="0.7033" style="stop-color:#CE1824"/>
					<stop  offset="0.8017" style="stop-color:#BA1B20"/>
					<stop  offset="0.9016" style="stop-color:#AE1C1E"/>
					<stop  offset="1" style="stop-color:#AA1D1D"/>
				</linearGradient>
				<rect x="22.477" y="376.557" fill="url(#SVGID_2_)" width="494.871" height="33.174"/>
				<path d="M517.348,409.948c-10.31,0.208-20.618,0.358-30.93,0.495c-10.31,0.128-20.619,0.329-30.93,0.396l-61.858,0.537
					l-61.857,0.228l-30.931,0.089l-30.93-0.059l-30.929-0.201l-30.93-0.289l-61.859-0.572l-30.929-0.146
					c-10.31-0.017-20.62-0.062-30.93-0.011l-30.929,0.088l-15.465,0.045l-15.465,0.12l-0.933,0.008l-0.007-0.946l-0.258-33.175
					l-0.009-1.188l1.207-0.01l61.859-0.515l61.859-0.317l61.859-0.209l30.93-0.088l30.929-0.014l61.858,0.131l61.858,0.348
					l30.93,0.188l30.93,0.282l30.93,0.304l30.93,0.381l0.72,0.008l-0.012,0.699l-0.491,33.39L517.348,409.948z M517.126,409.507
					l-0.486-32.95l0.708,0.707l-30.93,0.381l-30.93,0.304l-30.93,0.282l-30.93,0.187l-61.859,0.349l-61.857,0.131l-30.929-0.014
					l-30.93-0.089l-61.859-0.208l-61.859-0.318l-61.859-0.514l1.198-1.197l-0.258,33.175l-0.94-0.939l15.465,0.12l15.465,0.045
					l30.929,0.088c10.31,0.052,20.62,0.006,30.93-0.011l30.929-0.146l61.859-0.572l30.93-0.289l30.929-0.201l30.93-0.058
					l30.93,0.088l61.858,0.228l61.858,0.537c10.311,0.067,20.619,0.269,30.93,0.396C496.654,409.15,506.89,409.302,517.126,409.507z
					"/>
			</g>
			<g>
				
					<linearGradient id="SVGID_3_" gradientUnits="userSpaceOnUse" x1="431.9121" y1="253.6543" x2="431.9121" y2="-149.0265" gradientTransform="matrix(1 0 0 -1 -162 255)">
					<stop  offset="0" style="stop-color:#B21C1E"/>
					<stop  offset="0.7033" style="stop-color:#CE1824"/>
					<stop  offset="0.8017" style="stop-color:#BA1B20"/>
					<stop  offset="0.9016" style="stop-color:#AE1C1E"/>
					<stop  offset="1" style="stop-color:#AA1D1D"/>
				</linearGradient>
				<rect x="22.477" y="314.083" fill="url(#SVGID_3_)" width="494.871" height="29.752"/>
				<path d="M517.348,344.055c-10.31,0.209-20.618,0.359-30.93,0.497c-10.31,0.13-20.619,0.329-30.93,0.396l-61.858,0.537
					l-61.857,0.229l-30.931,0.083l-30.93-0.064l-30.929-0.211l-30.93-0.289l-61.859-0.569l-30.929-0.136
					c-10.31-0.028-20.62-0.047-30.93,0.002l-30.929,0.09c-10.31,0.009-20.62,0.099-30.93,0.182l-0.958,0.008l-0.007-0.973
					l-0.233-29.752l-0.009-1.188l1.207-0.011l61.859-0.517l61.859-0.318l61.859-0.21l30.93-0.085l30.929-0.013l61.858,0.138
					l61.858,0.355l30.93,0.188l30.93,0.294l30.93,0.307l30.93,0.394l0.676,0.009l-0.011,0.656l-0.448,29.966L517.348,344.055z
					 M517.126,343.611l-0.443-29.528l0.665,0.665l-30.93,0.393l-30.93,0.308l-30.93,0.294l-30.93,0.188l-61.859,0.356l-61.857,0.138
					l-30.929-0.013l-30.93-0.085l-61.859-0.21l-61.859-0.318l-61.859-0.517l1.198-1.197l-0.233,29.752l-0.965-0.965
					c10.31,0.083,20.62,0.173,30.93,0.182l30.929,0.09c10.31,0.049,20.62,0.03,30.93,0.002l30.929-0.135l61.859-0.57l30.93-0.289
					l30.929-0.211l30.93-0.064l30.93,0.083l61.858,0.229l61.858,0.537c10.311,0.066,20.619,0.267,30.93,0.396
					C496.654,343.255,506.89,343.404,517.126,343.611z"/>
			</g>
			<g>
				
					<linearGradient id="SVGID_4_" gradientUnits="userSpaceOnUse" x1="431.9121" y1="253.6562" x2="431.9121" y2="-149.0311" gradientTransform="matrix(1 0 0 -1 -162 255)">
					<stop  offset="0" style="stop-color:#B21C1E"/>
					<stop  offset="0.7033" style="stop-color:#CE1824"/>
					<stop  offset="0.8017" style="stop-color:#BA1B20"/>
					<stop  offset="0.9016" style="stop-color:#AE1C1E"/>
					<stop  offset="1" style="stop-color:#AA1D1D"/>
				</linearGradient>
				<rect x="22.477" y="251.62" fill="url(#SVGID_4_)" width="494.871" height="29.748"/>
				<path d="M517.348,281.586c-10.31,0.209-20.618,0.361-30.93,0.499c-10.31,0.13-20.619,0.329-30.93,0.396l-61.858,0.537
					l-61.857,0.229l-30.931,0.083l-30.93-0.063l-30.929-0.211l-30.93-0.291l-61.859-0.568l-30.929-0.135
					c-10.31-0.028-20.62-0.047-30.93,0.002l-30.929,0.088c-10.31,0.01-20.62,0.1-30.93,0.183l-0.958,0.008l-0.007-0.973
					l-0.233-29.748l-0.009-1.188l1.207-0.01l61.859-0.516l61.859-0.319l61.859-0.209l30.93-0.085l30.929-0.014l61.858,0.138
					l61.858,0.356l30.93,0.188l30.93,0.294l30.93,0.307l30.93,0.394l0.676,0.008l-0.011,0.656l-0.448,29.962L517.348,281.586z
					 M517.126,281.146l-0.443-29.526l0.665,0.665l-30.93,0.395l-30.93,0.305l-30.93,0.295l-30.93,0.188l-61.859,0.357l-61.857,0.137
					l-30.929-0.013l-30.93-0.085l-61.859-0.209l-61.859-0.319l-61.859-0.517l1.198-1.197l-0.233,29.748l-0.965-0.965
					c10.31,0.082,20.62,0.172,30.93,0.182l30.929,0.089c10.31,0.05,20.62,0.031,30.93,0.002l30.929-0.135l61.859-0.569l30.93-0.291
					l30.929-0.209l30.93-0.064l30.93,0.083l61.858,0.228l61.858,0.537c10.311,0.068,20.619,0.268,30.93,0.396
					C496.654,280.787,506.89,280.938,517.126,281.146z"/>
			</g>
			<g>
				
					<linearGradient id="SVGID_5_" gradientUnits="userSpaceOnUse" x1="431.9121" y1="253.6465" x2="431.9121" y2="-149.0227" gradientTransform="matrix(1 0 0 -1 -162 255)">
					<stop  offset="0" style="stop-color:#B21C1E"/>
					<stop  offset="0.7033" style="stop-color:#CE1824"/>
					<stop  offset="0.8017" style="stop-color:#BA1B20"/>
					<stop  offset="0.9016" style="stop-color:#AE1C1E"/>
					<stop  offset="1" style="stop-color:#AA1D1D"/>
				</linearGradient>
				<rect x="22.477" y="189.146" fill="url(#SVGID_5_)" width="494.871" height="29.741"/>
				<path d="M517.348,219.105c-10.31,0.209-20.618,0.361-30.93,0.5c-10.31,0.129-20.619,0.328-30.93,0.396l-61.858,0.538
					l-61.857,0.229l-30.931,0.082l-30.93-0.063l-30.929-0.21l-30.93-0.29l-61.859-0.569l-30.929-0.135
					c-10.31-0.027-20.62-0.046-30.93,0.002l-30.929,0.089c-10.31,0.009-20.62,0.099-30.93,0.183l-0.958,0.008l-0.007-0.973
					l-0.233-29.742l-0.009-1.188l1.207-0.01l61.859-0.516l61.859-0.319l61.859-0.209l30.93-0.085l30.929-0.013l61.858,0.137
					l61.858,0.357l30.93,0.188l30.93,0.294l30.93,0.306l30.93,0.394l0.676,0.008l-0.011,0.656l-0.448,29.957H517.348z
					 M517.126,218.666l-0.443-29.519l0.665,0.665l-30.93,0.394l-30.93,0.306l-30.93,0.294l-30.93,0.188l-61.859,0.357l-61.857,0.137
					l-30.929-0.013l-30.93-0.085l-61.859-0.209l-61.859-0.319l-61.859-0.516l1.198-1.198l-0.233,29.741l-0.965-0.965
					c10.31,0.083,20.62,0.172,30.93,0.182l30.929,0.09c10.31,0.049,20.62,0.031,30.93,0.002l30.929-0.135l61.859-0.569l30.93-0.29
					l30.929-0.21l30.93-0.064l30.93,0.083l61.858,0.228l61.858,0.537c10.311,0.067,20.619,0.267,30.93,0.396
					C496.654,218.307,506.89,218.458,517.126,218.666z"/>
			</g>
			<g>
				
					<linearGradient id="SVGID_6_" gradientUnits="userSpaceOnUse" x1="431.9121" y1="232.332" x2="431.9121" y2="-114.9955" gradientTransform="matrix(1 0 0 -1 -162 255)">
					<stop  offset="0" style="stop-color:#B21C1E"/>
					<stop  offset="0.7033" style="stop-color:#CE1824"/>
					<stop  offset="0.8017" style="stop-color:#BA1B20"/>
					<stop  offset="0.9016" style="stop-color:#AE1C1E"/>
					<stop  offset="1" style="stop-color:#AA1D1D"/>
				</linearGradient>
				<rect x="22.477" y="130.766" fill="url(#SVGID_6_)" width="494.871" height="25.665"/>
				<path d="M517.348,156.649c-10.31,0.211-20.618,0.363-30.93,0.502c-10.31,0.133-20.619,0.329-30.93,0.397l-61.858,0.537
					l-61.857,0.23c-10.312,0.024-20.62,0.11-30.931,0.076l-30.93-0.073c-10.31-0.043-20.62-0.107-30.929-0.22l-30.93-0.292
					l-61.859-0.564c-10.31-0.073-20.62-0.118-30.929-0.125c-10.31-0.04-20.62-0.023-30.93,0.019l-30.929,0.09
					c-10.31,0.005-20.62,0.134-30.93,0.201l-0.987,0.007l-0.008-1.002l-0.203-25.665l-0.009-1.188l1.207-0.01l61.859-0.519
					l61.859-0.319l61.859-0.211l30.93-0.081l30.929-0.013l61.858,0.145l61.858,0.368l30.93,0.189l30.93,0.309l30.93,0.308
					l30.93,0.41l0.621,0.008l-0.009,0.604l-0.396,25.879L517.348,156.649z M517.125,156.208l-0.39-25.443l0.611,0.612l-30.93,0.41
					l-30.93,0.308l-30.93,0.309l-30.93,0.189l-61.859,0.368l-61.857,0.145l-30.929-0.013l-30.93-0.081l-61.859-0.211l-61.859-0.319
					l-61.859-0.519l1.198-1.198L23.47,156.43l-0.995-0.995c10.31,0.067,20.62,0.196,30.93,0.201l30.929,0.09
					c10.31,0.042,20.62,0.058,30.93,0.019c10.31-0.007,20.62-0.051,30.929-0.125l61.859-0.564l30.93-0.292
					c10.31-0.113,20.62-0.177,30.929-0.22l30.93-0.073c10.311-0.035,20.619,0.051,30.93,0.076l61.858,0.23l61.858,0.537
					c10.311,0.068,20.62,0.264,30.93,0.397C496.654,155.848,506.89,156,517.125,156.208z"/>
			</g>
			<g>
				
					<linearGradient id="SVGID_7_" gradientUnits="userSpaceOnUse" x1="431.9121" y1="253.6582" x2="431.9121" y2="-149.0639" gradientTransform="matrix(1 0 0 -1 -162 255)">
					<stop  offset="0" style="stop-color:#B21C1E"/>
					<stop  offset="0.7033" style="stop-color:#CE1824"/>
					<stop  offset="0.8017" style="stop-color:#BA1B20"/>
					<stop  offset="0.9016" style="stop-color:#AE1C1E"/>
					<stop  offset="1" style="stop-color:#AA1D1D"/>
				</linearGradient>
				<rect x="22.477" y="64.198" fill="url(#SVGID_7_)" width="494.871" height="29.758"/>
				<path d="M517.348,94.175c-10.31,0.209-20.618,0.361-30.93,0.499c-10.31,0.13-20.619,0.329-30.93,0.396l-61.858,0.538
					l-61.857,0.228l-30.931,0.083l-30.93-0.064l-30.929-0.21l-30.93-0.291l-61.859-0.569l-30.929-0.135
					c-10.31-0.028-20.62-0.046-30.93,0.002L53.406,94.74c-10.31,0.009-20.62,0.099-30.93,0.182l-0.958,0.008l-0.007-0.973
					l-0.233-29.758l-0.009-1.188L22.477,63l61.859-0.516l61.859-0.319l61.859-0.209l30.93-0.085l30.929-0.013l61.858,0.137
					l61.858,0.357l30.93,0.188l30.93,0.294l30.93,0.306l30.93,0.393l0.676,0.009l-0.011,0.656l-0.448,29.973L517.348,94.175z
					 M517.126,93.734l-0.443-29.536l0.665,0.665l-30.93,0.393l-30.93,0.306l-30.93,0.294l-30.93,0.188l-61.859,0.357l-61.857,0.137
					l-30.929-0.013l-30.93-0.085l-61.859-0.209l-61.859-0.319l-61.859-0.516l1.198-1.198l-0.233,29.758l-0.965-0.965
					c10.31,0.083,20.62,0.173,30.93,0.182l30.929,0.089c10.31,0.049,20.62,0.031,30.93,0.002l30.929-0.135l61.859-0.569l30.93-0.291
					l30.929-0.21l30.93-0.064l30.93,0.083l61.858,0.228l61.858,0.538c10.311,0.067,20.619,0.266,30.93,0.396
					C496.654,93.376,506.89,93.527,517.126,93.734z"/>
			</g>
			<g>
				
					<linearGradient id="SVGID_8_" gradientUnits="userSpaceOnUse" x1="431.9121" y1="253.6514" x2="431.9121" y2="-149.0228" gradientTransform="matrix(1 0 0 -1 -162 255)">
					<stop  offset="0" style="stop-color:#B21C1E"/>
					<stop  offset="0.7033" style="stop-color:#CE1824"/>
					<stop  offset="0.8017" style="stop-color:#BA1B20"/>
					<stop  offset="0.9016" style="stop-color:#AE1C1E"/>
					<stop  offset="1" style="stop-color:#AA1D1D"/>
				</linearGradient>
				<rect x="22.477" y="1.731" fill="url(#SVGID_8_)" width="494.871" height="29.751"/>
				<path d="M517.348,31.701c-10.31,0.209-20.618,0.361-30.93,0.499c-10.31,0.13-20.619,0.329-30.93,0.396l-61.858,0.538
					l-61.857,0.228l-30.931,0.083l-30.93-0.064l-30.929-0.21l-30.93-0.291l-61.859-0.569l-30.929-0.135
					c-10.31-0.028-20.62-0.046-30.93,0.002l-30.929,0.089c-10.31,0.009-20.62,0.099-30.93,0.182l-0.958,0.008l-0.007-0.973
					L21.279,1.731L21.27,0.543l1.207-0.01l61.859-0.516l61.859-0.319l61.859-0.209l30.93-0.085l30.929-0.013l61.858,0.137
					l61.858,0.357l30.93,0.188l30.93,0.294l30.93,0.306l30.93,0.394l0.676,0.008l-0.011,0.656l-0.448,29.966L517.348,31.701z
					 M517.126,31.26l-0.443-29.529l0.665,0.665l-30.93,0.394l-30.93,0.306L424.56,3.389l-30.93,0.188l-61.858,0.357L269.912,4.07
					l-30.929-0.013l-30.93-0.085l-61.859-0.209L84.335,3.444L22.477,2.929l1.198-1.198l-0.233,29.751l-0.965-0.965
					c10.31,0.083,20.62,0.173,30.93,0.182l30.929,0.089c10.31,0.049,20.62,0.031,30.93,0.002l30.929-0.135l61.859-0.569l30.93-0.291
					l30.929-0.21l30.93-0.064l30.931,0.083l61.857,0.228l61.858,0.538c10.311,0.067,20.62,0.266,30.93,0.396
					C496.654,30.902,506.89,31.053,517.126,31.26z"/>
			</g>
			<g>
				
					<linearGradient id="SVGID_9_" gradientUnits="userSpaceOnUse" x1="307.4541" y1="230.0264" x2="307.4541" y2="69.1208" gradientTransform="matrix(1 0 0 -1 -162 255)">
					<stop  offset="0" style="stop-color:#002E62"/>
					<stop  offset="0.215" style="stop-color:#00487D"/>
					<stop  offset="0.422" style="stop-color:#005A8F"/>
					<stop  offset="0.5674" style="stop-color:#006096"/>
					<stop  offset="0.6652" style="stop-color:#005B91"/>
					<stop  offset="0.7884" style="stop-color:#004C81"/>
					<stop  offset="0.9248" style="stop-color:#003467"/>
					<stop  offset="1" style="stop-color:#002356"/>
				</linearGradient>
				<rect x="22.477" y="1.731" fill="url(#SVGID_9_)" width="245.955" height="187.634"/>
				<path d="M268.646,189.58l-15.587,0.329l-15.372,0.263l-15.373,0.253l-15.372,0.168l-30.744,0.336l-30.745,0.223l-30.744,0.125
					l-15.373,0.045l-15.372-0.001c-10.248,0.006-20.496-0.052-30.744-0.124l-30.745-0.324l-1.524-0.016l0.018-1.49l0.546-46.909
					l0.201-23.454l0.086-23.455c0.041-7.818-0.021-15.636-0.04-23.454l-0.08-23.455c-0.005-7.818-0.118-15.636-0.181-23.454
					L21.279,1.731l-0.011-1.185l1.209-0.013l30.745-0.334l30.744-0.255L114.71-0.26l30.744-0.126l30.744-0.126l30.745-0.086
					l30.744-0.009l30.745,0.104l2.238,0.007l-0.003,2.228c-0.022,15.636-0.185,31.272-0.288,46.909l-0.367,46.909l-0.561,46.908
					l-0.374,23.455L268.646,189.58z M268.209,189.142l-0.423-23.23l-0.374-23.455l-0.561-46.908l-0.367-46.909
					c-0.103-15.636-0.264-31.272-0.288-46.909l2.235,2.235L237.686,4.07l-30.744-0.009l-30.745-0.086l-30.744-0.126L114.71,3.722
					L83.965,3.519L53.221,3.263L22.477,2.929l1.198-1.198l-0.222,23.455c-0.063,7.818-0.176,15.636-0.181,23.454L23.19,72.094
					c-0.018,7.818-0.08,15.636-0.04,23.454l0.086,23.455l0.201,23.454l0.546,46.909l-1.506-1.506l30.745-0.324
					c10.248-0.072,20.496-0.13,30.744-0.124l15.372-0.001l15.373,0.045l30.744,0.125l30.745,0.223l30.744,0.336l15.372,0.168
					l15.373,0.253l15.372,0.263L268.209,189.142z"/>
			</g>
			<g>
				<g>
					<g>
						<g>
							<polygon fill="#FFFFFF" points="45.909,6.336 48.018,12.832 54.866,12.832 49.332,16.859 51.448,23.354 45.909,19.336 
								40.38,23.354 42.493,16.859 36.97,12.832 43.809,12.832 							"/>
							<path d="M45.91,6.043l2.627,6.62l-0.52-0.377l6.849-0.438l3.645-0.233l-3.065,2.013l-5.727,3.762l0.237-0.733l1.804,6.596
								l0.232,0.85l-0.737-0.482l-5.731-3.751h0.771l-5.336,4.282l-2.498,2.004l0.983-3.105l2.062-6.511l0.375,1.161l-5.555-3.983
								l-3.138-2.25l3.782,0.272l6.839,0.493l-0.572,0.416L45.91,6.043z M45.911,6.786l-1.531,6.231l-0.094,0.381l-0.478,0.035
								l-6.839,0.493l0.645-1.978l5.491,4.072l0.612,0.454l-0.236,0.708l-2.165,6.478l-1.515-1.101l5.722-3.751l0.424-0.278
								l0.347,0.278l5.346,4.283l-0.504,0.367l-2.427-6.393l-0.158-0.416l0.396-0.318l5.341-4.293l0.579,1.78l-6.849-0.438
								l-0.43-0.028L47.498,13L45.911,6.786z"/>
						</g>
						<g>
							<polygon fill="#FFFFFF" points="245.287,6.336 247.393,12.832 254.226,12.832 248.702,16.859 250.815,23.354 245.287,19.336 
								239.75,23.354 241.863,16.859 236.334,12.832 243.17,12.832 							"/>
							<path d="M245.289,6.044l2.624,6.619l-0.52-0.378l6.833-0.438l3.639-0.233l-3.059,2.013l-5.717,3.762l0.237-0.733l1.801,6.596
								l0.232,0.851l-0.737-0.484l-5.721-3.751h0.771l-5.344,4.283l-2.496,2l0.981-3.102l2.061-6.511l0.376,1.161l-5.561-3.983
								l-3.142-2.25l3.786,0.272l6.835,0.492l-0.572,0.415L245.289,6.044z M245.289,6.784l-1.547,6.234l-0.094,0.381l-0.478,0.035
								l-6.835,0.492l0.644-1.978l5.497,4.071l0.613,0.454l-0.237,0.707l-2.165,6.478l-1.514-1.101l5.729-3.751l0.424-0.278
								l0.347,0.278l5.335,4.282l-0.505,0.367l-2.425-6.393l-0.157-0.416l0.395-0.318l5.33-4.292l0.58,1.78l-6.833-0.438
								l-0.431-0.028L246.873,13L245.289,6.784z"/>
						</g>
						<g>
							<polygon fill="#FFFFFF" points="85.785,6.336 87.896,12.832 94.729,12.832 89.205,16.859 91.328,23.354 85.785,19.336 
								80.254,23.354 82.369,16.859 76.833,12.832 83.676,12.832 							"/>
							<path d="M85.786,6.044l2.63,6.619l-0.52-0.378l6.833-0.438l3.639-0.233l-3.059,2.013l-5.717,3.762l0.237-0.734l1.812,6.596
								l0.233,0.85l-0.738-0.482L85.4,19.868h0.771l-5.338,4.282l-2.498,2.004l0.983-3.105l2.063-6.512l0.376,1.162l-5.568-3.983
								l-3.146-2.251l3.79,0.273l6.843,0.493l-0.572,0.416L85.786,6.044z M85.787,6.784l-1.539,6.233l-0.094,0.381l-0.478,0.035
								l-6.843,0.493l0.644-1.978l5.503,4.071l0.613,0.454l-0.237,0.708l-2.167,6.478l-1.514-1.101l5.724-3.752l0.424-0.278
								l0.347,0.278l5.35,4.283l-0.504,0.368l-2.435-6.393l-0.158-0.416l0.396-0.318l5.331-4.292l0.58,1.78l-6.833-0.438
								l-0.431-0.028L87.376,13L85.787,6.784z"/>
						</g>
						<g>
							<polygon fill="#FFFFFF" points="125.656,6.336 127.774,12.832 134.604,12.832 129.08,16.859 131.189,23.354 125.656,19.336 
								120.129,23.354 122.244,16.859 116.71,12.832 123.551,12.832 							"/>
							<path d="M125.657,6.044l2.637,6.618l-0.52-0.377l6.83-0.438l3.638-0.233l-3.058,2.013l-5.717,3.762l0.237-0.733l1.797,6.596
								l0.231,0.85l-0.736-0.482l-5.726-3.751h0.771l-5.334,4.283l-2.499,2.006l0.984-3.107l2.063-6.512l0.376,1.162l-5.566-3.983
								l-3.145-2.251l3.789,0.273l6.841,0.493l-0.572,0.416L125.657,6.044z M125.658,6.784l-1.535,6.233l-0.094,0.381l-0.478,0.035
								l-6.841,0.493l0.644-1.978l5.501,4.072l0.613,0.454l-0.237,0.708l-2.167,6.478l-1.515-1.101l5.72-3.751l0.424-0.279
								l0.347,0.278l5.341,4.283l-0.505,0.367l-2.421-6.393l-0.157-0.415l0.395-0.318l5.33-4.292l0.58,1.78l-6.83-0.438l-0.43-0.027
								l-0.09-0.35L125.658,6.784z"/>
						</g>
						<g>
							<polygon fill="#FFFFFF" points="165.541,6.336 167.645,12.832 174.494,12.832 168.958,16.859 171.067,23.354 165.541,19.336 
								160.007,23.354 162.116,16.859 156.589,12.832 163.417,12.832 							"/>
							<path d="M165.542,6.044l2.622,6.619l-0.52-0.378l6.849-0.438l3.645-0.233l-3.066,2.013l-5.729,3.762l0.238-0.733l1.797,6.596
								l0.231,0.85l-0.736-0.483l-5.719-3.751h0.771l-5.341,4.283l-2.493,2l0.979-3.1l2.056-6.511l0.376,1.161l-5.559-3.983
								l-3.141-2.25l3.785,0.272l6.829,0.492l-0.572,0.415L165.542,6.044z M165.542,6.783l-1.553,6.235l-0.095,0.38l-0.477,0.034
								l-6.829,0.492l0.644-1.978l5.495,4.071l0.612,0.454l-0.236,0.707l-2.161,6.479l-1.514-1.1l5.726-3.751l0.425-0.278
								l0.347,0.278l5.333,4.282l-0.505,0.367l-2.42-6.393l-0.157-0.416l0.395-0.317l5.342-4.293l0.579,1.78l-6.849-0.438
								l-0.43-0.028L167.125,13L165.542,6.783z"/>
						</g>
						<g>
							<polygon fill="#FFFFFF" points="205.404,6.336 207.527,12.832 214.354,12.832 208.828,16.859 210.942,23.354 205.404,19.336 
								199.876,23.354 201.99,16.859 196.456,12.832 203.295,12.832 							"/>
							<path d="M205.405,6.044l2.642,6.617l-0.52-0.377l6.827-0.438l3.64-0.233l-3.06,2.013l-5.719,3.762l0.237-0.733l1.802,6.596
								l0.232,0.85l-0.737-0.482l-5.73-3.751h0.771l-5.335,4.282l-2.498,2.005l0.983-3.106l2.062-6.511l0.376,1.161l-5.566-3.983
								l-3.146-2.251l3.789,0.273l6.839,0.493l-0.572,0.416L205.405,6.044z M205.406,6.783l-1.54,6.234l-0.094,0.381l-0.478,0.034
								l-6.839,0.493l0.644-1.978l5.502,4.071l0.613,0.454l-0.237,0.708l-2.165,6.478l-1.515-1.101l5.721-3.751l0.424-0.278
								l0.347,0.278l5.344,4.283l-0.504,0.367l-2.426-6.393l-0.157-0.416l0.395-0.318l5.333-4.292l0.58,1.78l-6.827-0.438
								l-0.43-0.027l-0.09-0.35L205.406,6.783z"/>
						</g>
					</g>
					<g>
						<g>
							<polygon fill="#FFFFFF" points="45.909,160.9 48.018,167.401 54.866,167.401 49.332,171.427 51.448,177.923 45.909,173.903 
								40.38,177.923 42.493,171.427 36.97,167.401 43.809,167.401 							"/>
							<path d="M45.91,160.607l2.627,6.626l-0.52-0.378l6.849-0.438l3.646-0.233l-3.066,2.013l-5.728,3.76l0.238-0.733l1.804,6.598
								l0.232,0.85l-0.737-0.483l-5.731-3.755h0.771l-5.336,4.286l-2.499,2.006l0.983-3.107l2.061-6.513l0.376,1.161l-5.556-3.981
								l-3.14-2.25l3.784,0.272l6.839,0.493l-0.572,0.416L45.91,160.607z M45.911,161.35l-1.53,6.236l-0.094,0.382l-0.479,0.034
								l-6.839,0.493l0.644-1.978l5.491,4.07l0.612,0.454l-0.236,0.707l-2.165,6.479l-1.515-1.101l5.722-3.755l0.425-0.279
								l0.347,0.278l5.346,4.286l-0.505,0.367l-2.427-6.395l-0.158-0.416l0.396-0.318l5.341-4.292l0.579,1.78l-6.849-0.438
								l-0.43-0.027l-0.089-0.351L45.911,161.35z"/>
						</g>
						<g>
							<polygon fill="#FFFFFF" points="245.287,160.9 247.393,167.401 254.226,167.401 248.702,171.427 250.815,177.923 
								245.287,173.903 239.75,177.923 241.863,171.427 236.334,167.401 243.17,167.401 							"/>
							<path d="M245.289,160.607l2.624,6.625l-0.52-0.378l6.833-0.438l3.64-0.233l-3.06,2.013l-5.717,3.761l0.237-0.733l1.801,6.597
								l0.232,0.851l-0.737-0.484l-5.721-3.755h0.771l-5.343,4.286l-2.497,2.002l0.982-3.104l2.061-6.513l0.376,1.161l-5.561-3.981
								l-3.143-2.25l3.787,0.272l6.835,0.492l-0.572,0.415L245.289,160.607z M245.289,161.348l-1.546,6.239l-0.095,0.381
								l-0.478,0.034l-6.835,0.492l0.644-1.978l5.496,4.07l0.613,0.454l-0.237,0.708l-2.165,6.479l-1.514-1.101l5.729-3.755
								l0.425-0.278l0.347,0.279l5.335,4.285l-0.505,0.367l-2.425-6.395l-0.157-0.416l0.395-0.318l5.331-4.291l0.58,1.78
								l-6.833-0.438l-0.431-0.028l-0.089-0.351L245.289,161.348z"/>
						</g>
						<g>
							<polygon fill="#FFFFFF" points="85.785,160.9 87.896,167.401 94.729,167.401 89.205,171.427 91.328,177.923 85.785,173.903 
								80.254,177.923 82.369,171.427 76.833,167.401 83.676,167.401 							"/>
							<path d="M85.786,160.607l2.63,6.625l-0.52-0.378l6.833-0.438l3.64-0.233l-3.061,2.013l-5.717,3.761l0.237-0.734l1.812,6.598
								l0.233,0.851l-0.738-0.483l-5.735-3.755h0.771l-5.338,4.285l-2.499,2.006l0.984-3.107l2.063-6.513l0.376,1.162l-5.567-3.981
								l-3.148-2.251l3.791,0.273l6.843,0.493l-0.572,0.416L85.786,160.607z M85.787,161.349l-1.539,6.238l-0.094,0.381
								l-0.478,0.034l-6.843,0.493l0.644-1.978l5.503,4.07l0.614,0.454l-0.237,0.708l-2.167,6.479l-1.515-1.101l5.724-3.755
								l0.425-0.279l0.347,0.278l5.35,4.286l-0.504,0.368l-2.435-6.394l-0.159-0.416l0.396-0.318l5.331-4.291l0.58,1.78
								l-6.833-0.438l-0.431-0.027l-0.089-0.351L85.787,161.349z"/>
						</g>
						<g>
							<polygon fill="#FFFFFF" points="125.656,160.9 127.774,167.401 134.604,167.401 129.08,171.427 131.189,177.923 
								125.656,173.903 120.129,177.923 122.244,171.427 116.71,167.401 123.551,167.401 							"/>
							<path d="M125.657,160.607l2.637,6.625l-0.52-0.377l6.83-0.438l3.64-0.233l-3.06,2.013l-5.716,3.761l0.237-0.733l1.797,6.597
								l0.231,0.85l-0.736-0.483l-5.727-3.754h0.772l-5.334,4.286l-2.5,2.009l0.985-3.109l2.063-6.513l0.376,1.161l-5.566-3.981
								l-3.146-2.251l3.79,0.273l6.841,0.493l-0.572,0.416L125.657,160.607z M125.658,161.348l-1.534,6.238l-0.094,0.382
								l-0.478,0.034l-6.841,0.493l0.644-1.978l5.501,4.07l0.613,0.454l-0.237,0.708l-2.167,6.479l-1.515-1.101l5.72-3.755
								l0.425-0.279l0.347,0.279l5.341,4.286l-0.505,0.367l-2.421-6.395l-0.157-0.415l0.395-0.318l5.33-4.291l0.58,1.78l-6.83-0.438
								l-0.43-0.027l-0.09-0.35L125.658,161.348z"/>
						</g>
						<g>
							<polygon fill="#FFFFFF" points="165.541,160.9 167.645,167.401 174.494,167.401 168.958,171.427 171.067,177.923 
								165.541,173.903 160.007,177.923 162.116,171.427 156.589,167.401 163.417,167.401 							"/>
							<path d="M165.542,160.608l2.622,6.625l-0.52-0.378l6.849-0.438l3.646-0.233l-3.067,2.013l-5.729,3.76l0.238-0.733
								l1.797,6.597l0.232,0.851l-0.737-0.484l-5.719-3.755h0.771l-5.341,4.286l-2.494,2.001l0.979-3.102l2.056-6.513l0.376,1.161
								l-5.559-3.981l-3.142-2.25l3.786,0.272l6.829,0.492l-0.572,0.415L165.542,160.608z M165.542,161.348l-1.552,6.241
								l-0.095,0.38l-0.478,0.035l-6.829,0.492l0.644-1.978l5.495,4.07l0.612,0.454l-0.236,0.707l-2.161,6.479l-1.515-1.1
								l5.727-3.755l0.425-0.278l0.347,0.279l5.333,4.286l-0.505,0.366l-2.42-6.395l-0.158-0.416l0.396-0.317l5.342-4.292
								l0.579,1.78l-6.849-0.438l-0.431-0.028l-0.089-0.351L165.542,161.348z"/>
						</g>
						<g>
							<polygon fill="#FFFFFF" points="205.404,160.9 207.527,167.401 214.354,167.401 208.828,171.427 210.942,177.923 
								205.404,173.903 199.876,177.923 201.99,171.427 196.456,167.401 203.295,167.401 							"/>
							<path d="M205.405,160.608l2.642,6.624l-0.52-0.377l6.827-0.437l3.641-0.233l-3.062,2.013l-5.719,3.761l0.238-0.733
								l1.802,6.598l0.232,0.85l-0.737-0.483l-5.73-3.755h0.772l-5.335,4.286l-2.499,2.007l0.983-3.108l2.062-6.513l0.376,1.162
								l-5.566-3.982l-3.147-2.251l3.79,0.273l6.839,0.492l-0.572,0.416L205.405,160.608z M205.406,161.347l-1.539,6.24
								l-0.094,0.381l-0.478,0.035l-6.839,0.492l0.644-1.978l5.502,4.07l0.613,0.454l-0.237,0.708l-2.165,6.479l-1.515-1.1
								l5.721-3.755l0.425-0.279l0.347,0.278l5.345,4.286l-0.505,0.367l-2.426-6.395l-0.157-0.416l0.395-0.318l5.333-4.291
								l0.58,1.78l-6.827-0.437l-0.43-0.028l-0.09-0.35L205.406,161.347z"/>
						</g>
					</g>
					<g>
						<g>
							<polygon fill="#FFFFFF" points="45.909,122.257 48.018,128.763 54.866,128.763 49.332,132.779 51.448,139.279 
								45.909,135.264 40.38,139.279 42.493,132.779 36.97,128.763 43.809,128.763 							"/>
							<path d="M45.91,121.963l2.627,6.631l-0.52-0.378l6.849-0.438l3.654-0.233l-3.076,2.015l-5.727,3.75l0.239-0.734l1.804,6.602
								l0.232,0.849l-0.737-0.482l-5.731-3.75h0.771l-5.336,4.28l-2.496,2.002l0.981-3.103l2.061-6.517l0.377,1.162l-5.555-3.972
								l-3.149-2.251l3.792,0.273l6.839,0.492l-0.572,0.417L45.91,121.963z M45.911,122.707l-1.53,6.241l-0.094,0.382l-0.479,0.035
								l-6.839,0.492l0.643-1.978l5.491,4.06l0.614,0.454l-0.236,0.708l-2.166,6.483l-1.514-1.101l5.722-3.75l0.424-0.278
								l0.347,0.278l5.346,4.281l-0.504,0.367l-2.428-6.398l-0.158-0.417l0.396-0.318l5.341-4.281l0.578,1.781l-6.849-0.438
								l-0.431-0.027l-0.089-0.351L45.911,122.707z"/>
						</g>
						<g>
							<polygon fill="#FFFFFF" points="245.287,122.257 247.393,128.763 254.226,128.763 248.702,132.779 250.815,139.279 
								245.287,135.264 239.75,139.279 241.863,132.779 236.334,128.763 243.17,128.763 							"/>
							<path d="M245.289,121.964l2.625,6.631l-0.521-0.378l6.833-0.438l3.648-0.233l-3.07,2.014l-5.716,3.75l0.238-0.733
								l1.801,6.601l0.232,0.85l-0.737-0.483l-5.721-3.75h0.771l-5.344,4.281l-2.494,1.998l0.98-3.099l2.061-6.517l0.377,1.162
								l-5.561-3.972l-3.153-2.251l3.795,0.273l6.835,0.492l-0.572,0.415L245.289,121.964z M245.289,122.705l-1.546,6.244
								l-0.094,0.381l-0.478,0.034l-6.835,0.492l0.643-1.979l5.496,4.06l0.614,0.454l-0.236,0.708l-2.165,6.483l-1.514-1.101
								l5.729-3.75l0.424-0.277l0.347,0.278l5.335,4.28l-0.505,0.367l-2.425-6.398l-0.158-0.416l0.396-0.318l5.331-4.281l0.579,1.78
								l-6.833-0.438l-0.431-0.027l-0.089-0.351L245.289,122.705z"/>
						</g>
						<g>
							<polygon fill="#FFFFFF" points="85.785,122.257 87.896,128.763 94.729,128.763 89.205,132.779 91.328,139.279 
								85.785,135.264 80.254,139.279 82.369,132.779 76.833,128.763 83.676,128.763 							"/>
							<path d="M85.786,121.964l2.63,6.63l-0.521-0.378l6.833-0.438l3.648-0.233l-3.07,2.014l-5.717,3.75l0.238-0.734l1.811,6.602
								l0.233,0.85l-0.737-0.482l-5.735-3.749h0.771l-5.339,4.28l-2.496,2.001l0.982-3.103l2.063-6.517l0.377,1.162l-5.567-3.972
								l-3.157-2.252l3.799,0.273l6.843,0.492l-0.572,0.416L85.786,121.964z M85.787,122.706l-1.539,6.243l-0.094,0.381
								l-0.478,0.035l-6.843,0.492l0.642-1.979l5.503,4.061l0.615,0.454l-0.237,0.708l-2.167,6.483l-1.514-1.101l5.724-3.75
								l0.424-0.278l0.347,0.277l5.35,4.281l-0.504,0.367l-2.435-6.397l-0.158-0.417l0.396-0.318l5.331-4.281l0.579,1.78
								l-6.833-0.438l-0.431-0.027l-0.09-0.351L85.787,122.706z"/>
						</g>
						<g>
							<polygon fill="#FFFFFF" points="125.656,122.257 127.774,128.763 134.604,128.763 129.08,132.779 131.189,139.279 
								125.656,135.264 120.129,139.279 122.244,132.779 116.71,128.763 123.551,128.763 							"/>
							<path d="M125.657,121.964l2.638,6.63l-0.521-0.378l6.83-0.437l3.648-0.233l-3.069,2.014l-5.716,3.75l0.238-0.733l1.797,6.601
								l0.231,0.849l-0.736-0.482l-5.726-3.75h0.771l-5.334,4.28l-2.498,2.004l0.983-3.105l2.063-6.517l0.377,1.162l-5.565-3.972
								l-3.156-2.252l3.798,0.273l6.841,0.492l-0.572,0.417L125.657,121.964z M125.658,122.705l-1.534,6.243l-0.094,0.382
								l-0.479,0.035l-6.841,0.492l0.643-1.979l5.501,4.061l0.615,0.454l-0.237,0.708l-2.167,6.483l-1.515-1.101l5.72-3.75
								l0.424-0.278l0.347,0.278l5.34,4.281l-0.504,0.367l-2.421-6.398l-0.158-0.416l0.396-0.318l5.33-4.281l0.579,1.78l-6.83-0.437
								l-0.431-0.028l-0.09-0.35L125.658,122.705z"/>
						</g>
						<g>
							<polygon fill="#FFFFFF" points="165.541,122.257 167.645,128.763 174.494,128.763 168.958,132.779 171.067,139.279 
								165.541,135.264 160.007,139.279 162.116,132.779 156.589,128.763 163.417,128.763 							"/>
							<path d="M165.542,121.964l2.623,6.631l-0.52-0.378l6.849-0.438l3.655-0.233l-3.077,2.015l-5.728,3.75l0.239-0.733
								l1.797,6.601l0.231,0.85l-0.736-0.482l-5.719-3.75h0.771l-5.341,4.28l-2.492,1.998l0.978-3.098l2.056-6.517l0.377,1.161
								l-5.559-3.972l-3.151-2.251l3.794,0.273l6.829,0.492l-0.572,0.415L165.542,121.964z M165.542,122.705l-1.552,6.245
								l-0.095,0.381l-0.478,0.034l-6.829,0.492l0.643-1.979l5.495,4.06l0.613,0.454l-0.236,0.708l-2.16,6.483l-1.515-1.101
								l5.727-3.749l0.424-0.278l0.347,0.278l5.333,4.28l-0.505,0.367l-2.421-6.398l-0.157-0.416l0.396-0.318l5.342-4.281
								l0.578,1.781l-6.849-0.438l-0.431-0.027l-0.089-0.351L165.542,122.705z"/>
						</g>
						<g>
							<polygon fill="#FFFFFF" points="205.404,122.257 207.527,128.763 214.354,128.763 208.828,132.779 210.942,139.279 
								205.404,135.264 199.876,139.279 201.99,132.779 196.456,128.763 203.295,128.763 							"/>
							<path d="M205.405,121.964l2.643,6.629l-0.521-0.377l6.827-0.437l3.649-0.233l-3.071,2.014l-5.719,3.75l0.238-0.733
								l1.802,6.601l0.231,0.849l-0.736-0.482l-5.73-3.75h0.771l-5.335,4.28l-2.496,2.003l0.981-3.104l2.061-6.517l0.378,1.162
								l-5.566-3.972l-3.157-2.252l3.799,0.273l6.839,0.492l-0.572,0.416L205.405,121.964z M205.406,122.704l-1.539,6.245
								l-0.094,0.381l-0.478,0.035l-6.839,0.492l0.643-1.979l5.502,4.061l0.614,0.454l-0.237,0.708l-2.165,6.483l-1.515-1.101
								l5.721-3.75l0.424-0.278l0.347,0.278l5.345,4.281l-0.504,0.367l-2.426-6.398l-0.158-0.416l0.396-0.318l5.333-4.282
								l0.579,1.781l-6.827-0.437l-0.431-0.027l-0.09-0.35L205.406,122.704z"/>
						</g>
					</g>
					<g>
						<g>
							<polygon fill="#FFFFFF" points="45.909,83.617 48.018,90.121 54.866,90.121 49.332,94.138 51.448,100.634 45.909,96.623 
								40.38,100.634 42.493,94.138 36.97,90.121 43.809,90.121 							"/>
							<path d="M45.91,83.323l2.627,6.629l-0.52-0.378l6.849-0.438l3.653-0.233l-3.075,2.014l-5.727,3.752l0.239-0.734l1.804,6.598
								l0.232,0.849l-0.736-0.481l-5.731-3.746h0.77l-5.336,4.277l-2.496,2l0.981-3.102l2.061-6.513l0.377,1.162l-5.555-3.974
								l-3.147-2.251l3.791,0.273l6.839,0.492l-0.572,0.417L45.91,83.323z M45.911,84.066l-1.53,6.239l-0.094,0.382l-0.479,0.035
								l-6.839,0.492l0.644-1.978l5.491,4.062l0.614,0.454l-0.237,0.708l-2.165,6.479l-1.514-1.101l5.722-3.746l0.424-0.278
								l0.347,0.277l5.346,4.278l-0.504,0.367l-2.427-6.395l-0.158-0.416l0.396-0.318l5.341-4.283l0.578,1.781l-6.849-0.438
								l-0.431-0.027l-0.089-0.351L45.911,84.066z"/>
						</g>
						<g>
							<polygon fill="#FFFFFF" points="245.287,83.617 247.393,90.121 254.226,90.121 248.702,94.138 250.815,100.634 
								245.287,96.623 239.75,100.634 241.863,94.138 236.334,90.121 243.17,90.121 							"/>
							<path d="M245.289,83.324l2.625,6.628l-0.521-0.378l6.833-0.438l3.647-0.233l-3.068,2.014l-5.717,3.752l0.238-0.734
								l1.801,6.598l0.232,0.85l-0.737-0.482l-5.721-3.746h0.77l-5.344,4.277l-2.494,1.996l0.98-3.098l2.061-6.513l0.377,1.162
								l-5.561-3.973l-3.151-2.251l3.794,0.273l6.835,0.492l-0.572,0.415L245.289,83.324z M245.289,84.065l-1.546,6.242
								l-0.095,0.381l-0.478,0.034l-6.835,0.492l0.643-1.979l5.497,4.062l0.614,0.454l-0.237,0.708l-2.165,6.479l-1.514-1.102
								l5.729-3.746l0.424-0.277l0.346,0.278l5.335,4.277l-0.504,0.367l-2.425-6.395l-0.158-0.416l0.396-0.318l5.331-4.283
								l0.579,1.78l-6.833-0.438l-0.431-0.027l-0.089-0.351L245.289,84.065z"/>
						</g>
						<g>
							<polygon fill="#FFFFFF" points="85.785,83.617 87.896,90.121 94.729,90.121 89.205,94.138 91.328,100.634 85.785,96.623 
								80.254,100.634 82.369,94.138 76.833,90.121 83.676,90.121 							"/>
							<path d="M85.786,83.324l2.63,6.628l-0.52-0.378l6.833-0.438l3.647-0.233l-3.069,2.014l-5.717,3.752l0.238-0.734l1.811,6.598
								l0.233,0.85l-0.737-0.482L85.4,97.154h0.77l-5.338,4.277l-2.496,2l0.982-3.101l2.063-6.513l0.377,1.162l-5.567-3.973
								l-3.156-2.252l3.798,0.273l6.843,0.493l-0.572,0.416L85.786,83.324z M85.787,84.065l-1.539,6.241l-0.094,0.381l-0.478,0.034
								l-6.843,0.493l0.643-1.979l5.503,4.062l0.615,0.454l-0.237,0.709l-2.167,6.479l-1.514-1.102l5.724-3.746l0.424-0.277
								l0.346,0.277l5.351,4.278l-0.504,0.368l-2.435-6.394l-0.158-0.417l0.396-0.318l5.331-4.283l0.579,1.78l-6.833-0.438
								l-0.431-0.027l-0.09-0.351L85.787,84.065z"/>
						</g>
						<g>
							<polygon fill="#FFFFFF" points="125.656,83.617 127.774,90.121 134.604,90.121 129.08,94.138 131.189,100.634 
								125.656,96.623 120.129,100.634 122.244,94.138 116.71,90.121 123.551,90.121 							"/>
							<path d="M125.657,83.324l2.637,6.627l-0.52-0.378l6.83-0.438l3.647-0.233l-3.068,2.014l-5.716,3.752l0.238-0.733l1.797,6.597
								l0.231,0.849l-0.736-0.481l-5.726-3.746h0.771l-5.334,4.277l-2.497,2.002l0.983-3.104l2.063-6.513l0.377,1.162l-5.566-3.973
								l-3.154-2.252l3.797,0.273l6.841,0.492l-0.572,0.417L125.657,83.324z M125.658,84.065l-1.534,6.241l-0.094,0.382
								l-0.478,0.035l-6.841,0.492l0.643-1.979l5.501,4.062l0.615,0.454l-0.237,0.709l-2.167,6.479l-1.514-1.102l5.719-3.746
								l0.424-0.278l0.347,0.278l5.341,4.277l-0.504,0.367l-2.421-6.395l-0.157-0.416l0.396-0.318l5.33-4.283l0.579,1.78
								l-6.83-0.437l-0.431-0.028l-0.09-0.35L125.658,84.065z"/>
						</g>
						<g>
							<polygon fill="#FFFFFF" points="165.541,83.617 167.645,90.121 174.494,90.121 168.958,94.138 171.067,100.634 
								165.541,96.623 160.007,100.634 162.116,94.138 156.589,90.121 163.417,90.121 							"/>
							<path d="M165.542,83.324l2.623,6.628l-0.52-0.378l6.849-0.438l3.654-0.233l-3.076,2.015l-5.728,3.751l0.239-0.733
								l1.797,6.597l0.231,0.849l-0.736-0.482l-5.719-3.747h0.77l-5.341,4.277l-2.491,1.996l0.978-3.097l2.056-6.513l0.377,1.161
								l-5.559-3.973l-3.15-2.251l3.793,0.273l6.829,0.492l-0.572,0.415L165.542,83.324z M165.542,84.064l-1.552,6.243l-0.095,0.381
								l-0.478,0.035l-6.829,0.492l0.643-1.979l5.495,4.062l0.613,0.453l-0.236,0.708l-2.161,6.479l-1.514-1.101l5.726-3.746
								l0.424-0.277l0.346,0.278l5.334,4.277l-0.505,0.367l-2.421-6.395l-0.157-0.416l0.396-0.317l5.342-4.283l0.578,1.781
								l-6.849-0.438l-0.431-0.027l-0.089-0.351L165.542,84.064z"/>
						</g>
						<g>
							<polygon fill="#FFFFFF" points="205.404,83.617 207.527,90.121 214.354,90.121 208.828,94.138 210.942,100.634 
								205.404,96.623 199.876,100.634 201.99,94.138 196.456,90.121 203.295,90.121 							"/>
							<path d="M205.405,83.324l2.643,6.626l-0.521-0.377l6.827-0.438l3.648-0.233l-3.07,2.014l-5.719,3.752l0.238-0.734
								l1.802,6.598l0.232,0.849l-0.736-0.481l-5.73-3.746h0.77l-5.335,4.277l-2.496,2.001l0.982-3.102l2.062-6.513l0.377,1.162
								l-5.566-3.973l-3.155-2.252l3.797,0.273l6.839,0.492l-0.572,0.416L205.405,83.324z M205.406,84.063l-1.539,6.243
								l-0.094,0.381l-0.478,0.035l-6.839,0.492l0.643-1.979l5.502,4.062l0.614,0.454l-0.237,0.708l-2.165,6.479l-1.514-1.101
								l5.72-3.746l0.424-0.278l0.347,0.277l5.345,4.278l-0.504,0.367l-2.426-6.395l-0.158-0.416l0.396-0.318l5.333-4.283
								l0.579,1.78l-6.827-0.437l-0.43-0.028l-0.09-0.35L205.406,84.063z"/>
						</g>
					</g>
					<g>
						<g>
							<polygon fill="#FFFFFF" points="45.909,44.978 48.018,51.482 54.866,51.482 49.332,55.499 51.448,61.993 45.909,57.984 
								40.38,61.993 42.493,55.499 36.97,51.482 43.809,51.482 							"/>
							<path d="M45.91,44.685l2.627,6.629l-0.52-0.378l6.849-0.438l3.654-0.233l-3.076,2.015l-5.727,3.75l0.239-0.734l1.804,6.596
								l0.232,0.848l-0.736-0.481l-5.731-3.743h0.77l-5.337,4.274l-2.495,1.998l0.981-3.1l2.062-6.511l0.376,1.162l-5.555-3.972
								l-3.148-2.251l3.792,0.273l6.839,0.492l-0.572,0.417L45.91,44.685z M45.911,45.428l-1.53,6.239l-0.094,0.382l-0.479,0.035
								l-6.839,0.492l0.643-1.978l5.491,4.061l0.614,0.454l-0.237,0.708l-2.165,6.478l-1.514-1.102l5.722-3.743l0.424-0.277
								l0.346,0.277l5.346,4.275l-0.504,0.367l-2.427-6.393l-0.158-0.416l0.396-0.318l5.341-4.282l0.578,1.781l-6.849-0.438
								l-0.431-0.027l-0.089-0.351L45.911,45.428z"/>
						</g>
						<g>
							<polygon fill="#FFFFFF" points="245.287,44.978 247.393,51.482 254.226,51.482 248.702,55.499 250.815,61.993 
								245.287,57.984 239.75,61.993 241.863,55.499 236.334,51.482 243.17,51.482 							"/>
							<path d="M245.289,44.685l2.625,6.628l-0.521-0.378l6.833-0.438l3.648-0.233l-3.069,2.014l-5.717,3.751l0.238-0.734
								l1.801,6.596l0.232,0.849l-0.737-0.482l-5.721-3.743h0.77l-5.344,4.275l-2.493,1.994l0.98-3.096l2.061-6.511l0.377,1.162
								l-5.561-3.972l-3.152-2.251l3.795,0.273l6.835,0.492l-0.572,0.415L245.289,44.685z M245.289,45.426l-1.546,6.242
								l-0.095,0.381l-0.478,0.034l-6.835,0.492l0.643-1.979l5.496,4.061l0.614,0.454l-0.237,0.708l-2.165,6.478l-1.513-1.102
								l5.729-3.743l0.424-0.277l0.346,0.277l5.335,4.274l-0.504,0.367l-2.425-6.393l-0.158-0.416l0.396-0.318l5.331-4.282
								l0.579,1.78l-6.833-0.438l-0.431-0.027l-0.089-0.351L245.289,45.426z"/>
						</g>
						<g>
							<polygon fill="#FFFFFF" points="85.785,44.978 87.896,51.482 94.729,51.482 89.205,55.499 91.328,61.993 85.785,57.984 
								80.254,61.993 82.369,55.499 76.833,51.482 83.676,51.482 							"/>
							<path d="M85.786,44.685l2.63,6.628l-0.52-0.378l6.833-0.438l3.648-0.233l-3.07,2.014l-5.717,3.751l0.238-0.734l1.811,6.596
								l0.233,0.849l-0.737-0.481L85.4,58.516h0.77l-5.339,4.274l-2.496,1.998l0.982-3.1l2.063-6.512l0.377,1.163l-5.567-3.972
								l-3.157-2.252l3.799,0.273l6.843,0.493l-0.572,0.416L85.786,44.685z M85.787,45.426l-1.539,6.241l-0.094,0.381l-0.478,0.034
								l-6.843,0.493l0.643-1.979l5.503,4.061l0.615,0.454l-0.237,0.709l-2.167,6.478l-1.514-1.102l5.724-3.743l0.424-0.277
								l0.346,0.277l5.351,4.274l-0.504,0.368l-2.435-6.393l-0.159-0.417l0.396-0.318l5.331-4.282l0.579,1.78l-6.833-0.438
								L87.465,52l-0.09-0.351L85.787,45.426z"/>
						</g>
						<g>
							<polygon fill="#FFFFFF" points="125.656,44.978 127.774,51.482 134.604,51.482 129.08,55.499 131.189,61.993 125.656,57.984 
								120.129,61.993 122.244,55.499 116.71,51.482 123.551,51.482 							"/>
							<path d="M125.657,44.685l2.637,6.627l-0.52-0.378l6.83-0.437l3.648-0.233l-3.069,2.014l-5.716,3.751l0.238-0.733l1.797,6.596
								l0.231,0.848l-0.735-0.481l-5.726-3.743h0.77l-5.334,4.274l-2.497,2l0.982-3.102l2.063-6.512l0.377,1.163l-5.566-3.972
								l-3.155-2.252l3.798,0.273l6.841,0.492l-0.572,0.417L125.657,44.685z M125.658,45.426l-1.534,6.241l-0.094,0.382
								l-0.478,0.035l-6.841,0.492l0.643-1.979l5.501,4.061l0.615,0.454l-0.237,0.709l-2.167,6.478l-1.514-1.102l5.719-3.743
								l0.424-0.277l0.347,0.277l5.341,4.274l-0.504,0.367l-2.421-6.393l-0.158-0.416l0.396-0.318l5.33-4.282l0.579,1.78
								l-6.83-0.437l-0.431-0.028l-0.09-0.35L125.658,45.426z"/>
						</g>
						<g>
							<polygon fill="#FFFFFF" points="165.541,44.978 167.645,51.482 174.494,51.482 168.958,55.499 171.067,61.993 
								165.541,57.984 160.007,61.993 162.116,55.499 156.589,51.482 163.417,51.482 							"/>
							<path d="M165.645,44.944c1.021,2.064,1.897,4.176,2.723,6.304l-0.723-0.526c1.142-0.08,2.283-0.104,3.424-0.155
								c1.142-0.033,2.283-0.045,3.424-0.069l3.147-0.064l-2.569,1.846c-0.926,0.665-1.845,1.339-2.776,1.996
								c-0.941,0.643-1.868,1.308-2.826,1.927l0.316-0.972c0.613,2.194,1.176,4.405,1.594,6.662l0.147,0.794l-0.652-0.427
								l-5.719-3.743h0.77l-5.341,4.274l-2.491,1.994l0.978-3.095l2.056-6.511l0.377,1.161l-5.559-3.972l-3.151-2.251l3.794,0.273
								l6.829,0.492l-0.572,0.415l2.686-6.581L165.645,44.944z M165.535,45.454l-1.545,6.214l-0.095,0.381l-0.478,0.035
								l-6.829,0.492l0.643-1.979l5.495,4.061l0.613,0.453l-0.236,0.708l-2.161,6.478l-1.513-1.101l5.726-3.743l0.424-0.277
								l0.346,0.278l5.333,4.274l-0.504,0.367c-0.987-2.072-1.831-4.191-2.624-6.327l-0.204-0.55l0.521-0.422
								c0.886-0.719,1.805-1.394,2.708-2.089c0.914-0.682,1.839-1.346,2.759-2.02l0.578,1.781c-1.142-0.023-2.283-0.036-3.424-0.069
								c-1.142-0.051-2.283-0.075-3.424-0.155l-0.597-0.042l-0.126-0.484C166.383,49.653,165.909,47.57,165.535,45.454z"/>
						</g>
						<g>
							<polygon fill="#FFFFFF" points="205.404,44.978 207.527,51.482 214.354,51.482 208.828,55.499 210.942,61.993 
								205.404,57.984 199.876,61.993 201.99,55.499 196.456,51.482 203.295,51.482 							"/>
							<path d="M205.405,44.686l2.643,6.626l-0.521-0.377l6.827-0.437l3.649-0.233l-3.071,2.014l-5.719,3.751l0.238-0.734
								l1.802,6.596l0.231,0.848l-0.736-0.481l-5.73-3.743h0.77l-5.335,4.274l-2.496,1.999l0.981-3.101L201,55.177l0.377,1.162
								l-5.566-3.972l-3.156-2.252l3.798,0.273l6.839,0.492l-0.572,0.416L205.405,44.686z M205.406,45.425l-1.539,6.243
								l-0.094,0.381l-0.478,0.035l-6.839,0.492l0.643-1.979l5.502,4.061l0.615,0.454l-0.237,0.709l-2.165,6.478l-1.514-1.102
								l5.72-3.743l0.424-0.277l0.346,0.277l5.345,4.275l-0.504,0.367l-2.426-6.393l-0.158-0.416l0.396-0.318l5.333-4.282
								l0.579,1.78l-6.827-0.437l-0.43-0.028l-0.09-0.35L205.406,45.425z"/>
						</g>
					</g>
				</g>
				<g>
					<g>
						<g>
							<polygon fill="#FFFFFF" points="65.856,25.654 67.963,32.154 74.799,32.154 69.269,36.172 71.382,42.677 65.856,38.66 
								60.318,42.677 62.433,36.172 56.903,32.154 63.738,32.154 							"/>
							<path d="M65.857,25.361l2.626,6.624l-0.52-0.378l6.836-0.438l3.651-0.233l-3.072,2.014l-5.723,3.752l0.238-0.733l1.801,6.606
								l0.232,0.85l-0.737-0.483L65.47,39.19h0.771l-5.345,4.283l-2.495,1.999l0.98-3.1l2.062-6.522l0.377,1.162l-5.562-3.973
								l-3.152-2.251l3.795,0.273l6.835,0.492l-0.572,0.415L65.857,25.361z M65.857,26.101L64.31,32.34l-0.094,0.381l-0.478,0.034
								l-6.835,0.492l0.643-1.979l5.498,4.062l0.614,0.454l-0.236,0.708l-2.167,6.488l-1.515-1.1l5.73-3.751l0.424-0.278
								l0.347,0.278l5.333,4.282l-0.505,0.367l-2.425-6.403l-0.158-0.416l0.396-0.318l5.337-4.283l0.579,1.781l-6.836-0.438
								l-0.431-0.028l-0.089-0.351L65.857,26.101z"/>
						</g>
						<g>
							<polygon fill="#FFFFFF" points="105.722,25.654 107.839,32.154 114.677,32.154 109.136,36.172 111.258,42.677 105.722,38.66 
								100.191,42.677 102.315,36.172 96.78,32.154 103.612,32.154 							"/>
							<path d="M105.723,25.361l2.636,6.624l-0.52-0.377l6.838-0.438l3.657-0.234l-3.08,2.015l-5.733,3.752l0.239-0.735l1.811,6.606
								l0.233,0.851l-0.738-0.483l-5.729-3.751h0.771l-5.338,4.282l-2.502,2.007l0.988-3.109l2.072-6.521l0.377,1.163l-5.567-3.973
								l-3.156-2.252l3.798,0.273l6.832,0.492l-0.572,0.416L105.723,25.361z M105.724,26.101l-1.54,6.239l-0.094,0.382l-0.478,0.034
								l-6.832,0.492l0.643-1.979l5.503,4.062l0.615,0.454l-0.238,0.709l-2.176,6.488l-1.514-1.102l5.724-3.751l0.424-0.278
								l0.347,0.278l5.343,4.283l-0.504,0.367l-2.434-6.403l-0.159-0.417l0.397-0.318l5.349-4.283l0.578,1.781l-6.838-0.438
								l-0.43-0.028l-0.09-0.35L105.724,26.101z"/>
						</g>
						<g>
							<polygon fill="#FFFFFF" points="145.595,25.654 147.72,32.154 154.547,32.154 149.013,36.172 151.123,42.677 145.595,38.66 
								140.065,42.677 142.178,36.172 136.644,32.154 143.484,32.154 							"/>
							<path d="M145.596,25.362l2.644,6.623l-0.52-0.377l6.827-0.437l3.653-0.234l-3.075,2.015l-5.727,3.752l0.238-0.733
								l1.798,6.605l0.231,0.85l-0.736-0.483l-5.721-3.751h0.771l-5.337,4.283l-2.495,2.002l0.98-3.103l2.061-6.521l0.378,1.162
								L136,33.042l-3.155-2.252l3.797,0.273l6.84,0.492l-0.572,0.416L145.596,25.362z M145.597,26.1l-1.541,6.24l-0.094,0.381
								l-0.478,0.035l-6.84,0.492l0.643-1.979l5.502,4.062l0.614,0.454l-0.236,0.708l-2.166,6.488l-1.515-1.101l5.723-3.751
								l0.425-0.278l0.347,0.278l5.335,4.282l-0.505,0.367l-2.422-6.403l-0.158-0.416l0.396-0.318l5.341-4.283l0.578,1.781
								l-6.827-0.437l-0.43-0.028l-0.09-0.35L145.597,26.1z"/>
						</g>
						<g>
							<polygon fill="#FFFFFF" points="185.473,25.654 187.585,32.154 194.425,32.154 188.896,36.172 191.001,42.677 185.473,38.66 
								179.945,42.677 182.061,36.172 176.519,32.154 183.363,32.154 							"/>
							<path d="M185.474,25.361l2.632,6.625l-0.52-0.378l6.84-0.438l3.65-0.233l-3.071,2.014l-5.722,3.752l0.239-0.733l1.792,6.606
								l0.23,0.849l-0.735-0.482l-5.721-3.751h0.771l-5.334,4.283l-2.497,2.004l0.982-3.105l2.063-6.521l0.378,1.163l-5.574-3.973
								l-3.161-2.253l3.802,0.273l6.845,0.493l-0.572,0.416L185.474,25.361z M185.475,26.102l-1.54,6.238l-0.094,0.381l-0.478,0.034
								l-6.845,0.493l0.642-1.979l5.51,4.062l0.615,0.454l-0.237,0.709l-2.167,6.488l-1.515-1.101l5.72-3.751l0.425-0.279
								l0.347,0.279l5.335,4.282l-0.505,0.367l-2.417-6.404l-0.157-0.416l0.396-0.317l5.336-4.283l0.579,1.781l-6.84-0.438
								l-0.43-0.028l-0.09-0.35L185.475,26.102z"/>
						</g>
						<g>
							<polygon fill="#FFFFFF" points="225.349,25.654 227.458,32.154 234.293,32.154 228.774,36.172 230.879,42.677 225.349,38.66 
								219.813,42.677 221.931,36.172 216.397,32.154 223.233,32.154 							"/>
							<path d="M225.351,25.361l2.628,6.624l-0.52-0.378l6.835-0.438l3.644-0.233l-3.065,2.014l-5.712,3.752l0.238-0.733
								l1.792,6.606l0.23,0.849l-0.735-0.482l-5.723-3.752h0.771l-5.343,4.282l-2.497,2.001l0.982-3.103l2.066-6.522l0.377,1.163
								l-5.566-3.973l-3.155-2.252l3.797,0.273l6.836,0.492l-0.572,0.416L225.351,25.361z M225.351,26.101l-1.545,6.239
								l-0.094,0.381l-0.478,0.035l-6.836,0.492l0.643-1.979l5.502,4.062l0.615,0.454l-0.237,0.709l-2.169,6.488l-1.514-1.102
								l5.729-3.751l0.424-0.278l0.347,0.278l5.337,4.282l-0.505,0.367l-2.417-6.404l-0.157-0.415l0.395-0.318l5.326-4.283
								l0.58,1.78l-6.835-0.438l-0.431-0.028l-0.089-0.351L225.351,26.101z"/>
						</g>
					</g>
					<g>
						<g>
							<polygon fill="#FFFFFF" points="65.856,64.298 67.963,70.801 74.799,70.801 69.269,74.817 71.382,81.323 65.856,77.305 
								60.318,81.323 62.433,74.817 56.903,70.801 63.738,70.801 							"/>
							<path d="M65.857,64.006l2.626,6.627l-0.52-0.378l6.836-0.438l3.652-0.234l-3.074,2.015l-5.723,3.751l0.239-0.734l1.8,6.607
								l0.232,0.851l-0.737-0.484l-5.719-3.753h0.771l-5.345,4.284l-2.495,2l0.98-3.101l2.062-6.523l0.377,1.162l-5.562-3.972
								l-3.154-2.251l3.796,0.273l6.835,0.492l-0.572,0.415L65.857,64.006z M65.857,64.746l-1.547,6.241l-0.095,0.381l-0.478,0.034
								l-6.835,0.492l0.643-1.979l5.498,4.06l0.614,0.454l-0.236,0.708l-2.167,6.489l-1.514-1.101l5.73-3.752l0.424-0.278
								l0.347,0.279l5.333,4.283l-0.505,0.367l-2.425-6.404l-0.158-0.416l0.396-0.318l5.337-4.281l0.579,1.781l-6.836-0.438
								l-0.431-0.028l-0.089-0.351L65.857,64.746z"/>
						</g>
						<g>
							<polygon fill="#FFFFFF" points="105.722,64.298 107.839,70.801 114.677,70.801 109.136,74.817 111.258,81.323 
								105.722,77.305 100.191,81.323 102.315,74.817 96.78,70.801 103.612,70.801 							"/>
							<path d="M105.723,64.006l2.636,6.626l-0.52-0.377l6.838-0.438l3.659-0.234l-3.081,2.015l-5.733,3.75l0.239-0.735l1.811,6.607
								l0.233,0.851l-0.738-0.483l-5.729-3.753h0.771l-5.338,4.284l-2.502,2.008l0.988-3.11l2.072-6.522l0.377,1.163l-5.567-3.972
								l-3.157-2.252l3.799,0.273l6.832,0.492l-0.572,0.416L105.723,64.006z M105.724,64.746l-1.54,6.241l-0.094,0.382l-0.478,0.034
								l-6.832,0.492l0.643-1.979l5.502,4.061l0.616,0.454l-0.238,0.709l-2.176,6.488l-1.514-1.102l5.724-3.753l0.424-0.278
								l0.347,0.278l5.343,4.284l-0.505,0.367l-2.435-6.404l-0.158-0.417l0.397-0.318l5.349-4.282l0.578,1.781l-6.838-0.438
								l-0.43-0.027l-0.09-0.351L105.724,64.746z"/>
						</g>
						<g>
							<polygon fill="#FFFFFF" points="145.595,64.298 147.72,70.801 154.547,70.801 149.013,74.817 151.123,81.323 145.595,77.305 
								140.065,81.323 142.178,74.817 136.644,70.801 143.484,70.801 							"/>
							<path d="M145.596,64.006l2.644,6.625l-0.52-0.377l6.827-0.437l3.655-0.234l-3.077,2.015l-5.727,3.75l0.239-0.733l1.797,6.607
								l0.231,0.85l-0.736-0.483l-5.721-3.753h0.771l-5.337,4.284l-2.496,2.003l0.981-3.104l2.061-6.522l0.378,1.162L136,71.687
								l-3.157-2.252l3.799,0.273l6.84,0.492l-0.572,0.416L145.596,64.006z M145.597,64.745l-1.541,6.242l-0.094,0.381l-0.478,0.035
								l-6.84,0.492l0.643-1.979l5.502,4.061l0.614,0.453l-0.236,0.709l-2.166,6.489l-1.515-1.101l5.723-3.753l0.425-0.278
								l0.347,0.278l5.335,4.284l-0.505,0.367l-2.422-6.404l-0.158-0.416l0.396-0.318l5.341-4.281l0.578,1.781l-6.827-0.437
								l-0.43-0.028l-0.09-0.35L145.597,64.745z"/>
						</g>
						<g>
							<polygon fill="#FFFFFF" points="185.473,64.298 187.585,70.801 194.425,70.801 188.896,74.817 191.001,81.323 
								185.473,77.305 179.945,81.323 182.061,74.817 176.519,70.801 183.363,70.801 							"/>
							<path d="M185.474,64.005l2.632,6.627l-0.52-0.378l6.84-0.438l3.651-0.233l-3.072,2.014l-5.722,3.75l0.239-0.732l1.792,6.606
								l0.23,0.849l-0.735-0.482l-5.721-3.753h0.771l-5.334,4.284l-2.498,2.006l0.982-3.106l2.063-6.523l0.378,1.163l-5.574-3.972
								l-3.162-2.253l3.804,0.273l6.845,0.493l-0.572,0.416L185.474,64.005z M185.475,64.746l-1.54,6.241l-0.094,0.381l-0.478,0.034
								l-6.845,0.493l0.642-1.979l5.51,4.061l0.616,0.454l-0.237,0.709l-2.167,6.489l-1.515-1.101l5.72-3.753l0.425-0.279
								l0.347,0.279l5.335,4.284l-0.505,0.367l-2.417-6.405l-0.157-0.416l0.396-0.318l5.336-4.281l0.579,1.781l-6.84-0.438
								l-0.431-0.028l-0.089-0.35L185.475,64.746z"/>
						</g>
						<g>
							<polygon fill="#FFFFFF" points="225.349,64.298 227.458,70.801 234.293,70.801 228.774,74.817 230.879,81.323 
								225.349,77.305 219.813,81.323 221.931,74.817 216.397,70.801 223.233,70.801 							"/>
							<path d="M225.351,64.006l2.628,6.626l-0.52-0.378l6.835-0.438l3.645-0.233l-3.066,2.014l-5.712,3.751l0.238-0.733
								l1.792,6.607l0.23,0.849l-0.735-0.482l-5.723-3.753h0.771l-5.343,4.284l-2.497,2.002l0.983-3.104l2.066-6.522l0.377,1.162
								l-5.566-3.972l-3.157-2.252l3.799,0.273l6.836,0.492l-0.572,0.416L225.351,64.006z M225.351,64.746l-1.545,6.241
								l-0.095,0.381l-0.478,0.034l-6.836,0.492l0.643-1.979l5.502,4.061l0.615,0.454l-0.237,0.709l-2.169,6.489l-1.514-1.101
								l5.728-3.753l0.425-0.278l0.347,0.278l5.337,4.284l-0.505,0.367l-2.417-6.405l-0.157-0.416l0.395-0.317l5.326-4.281
								l0.579,1.78l-6.835-0.438l-0.431-0.027l-0.089-0.351L225.351,64.746z"/>
						</g>
					</g>
					<g>
						<g>
							<polygon fill="#FFFFFF" points="65.856,102.937 67.963,109.438 74.799,109.438 69.269,113.463 71.382,119.963 
								65.856,115.946 60.318,119.963 62.433,113.463 56.903,109.438 63.738,109.438 							"/>
							<path d="M65.857,102.645l2.626,6.625l-0.52-0.378l6.836-0.438l3.645-0.233l-3.065,2.014l-5.723,3.759l0.238-0.733
								l1.801,6.601l0.232,0.851l-0.737-0.484l-5.719-3.751h0.771l-5.345,4.283l-2.496,2l0.981-3.101l2.063-6.517l0.376,1.161
								l-5.562-3.98l-3.145-2.25l3.789,0.272l6.835,0.492l-0.572,0.415L65.857,102.645z M65.857,103.385l-1.547,6.24l-0.095,0.381
								l-0.478,0.034l-6.835,0.492l0.644-1.978l5.498,4.069l0.613,0.454l-0.237,0.708l-2.167,6.482l-1.514-1.101l5.73-3.751
								l0.424-0.278l0.347,0.278l5.333,4.282l-0.505,0.367l-2.425-6.398l-0.157-0.416l0.395-0.318l5.337-4.29l0.579,1.78
								l-6.836-0.438l-0.431-0.028l-0.089-0.351L65.857,103.385z"/>
						</g>
						<g>
							<polygon fill="#FFFFFF" points="105.722,102.937 107.839,109.438 114.677,109.438 109.136,113.463 111.258,119.963 
								105.722,115.946 100.191,119.963 102.315,113.463 96.78,109.438 103.612,109.438 							"/>
							<path d="M105.723,102.645l2.636,6.625l-0.52-0.377l6.838-0.438l3.651-0.233l-3.072,2.014l-5.734,3.759l0.238-0.734
								l1.811,6.602l0.233,0.851l-0.738-0.483l-5.729-3.751h0.771l-5.338,4.282l-2.503,2.008l0.989-3.11l2.072-6.517l0.376,1.163
								l-5.567-3.98l-3.149-2.251l3.792,0.273l6.832,0.492l-0.572,0.416L105.723,102.645z M105.724,103.384l-1.54,6.24l-0.094,0.382
								l-0.478,0.034l-6.832,0.492l0.643-1.978l5.503,4.069l0.615,0.455l-0.238,0.708l-2.176,6.483l-1.514-1.102l5.724-3.751
								l0.424-0.278l0.347,0.278l5.343,4.283l-0.504,0.367l-2.434-6.398l-0.158-0.417l0.396-0.318l5.348-4.291l0.579,1.781
								l-6.838-0.438l-0.43-0.027l-0.09-0.351L105.724,103.384z"/>
						</g>
						<g>
							<polygon fill="#FFFFFF" points="145.595,102.937 147.72,109.438 154.547,109.438 149.013,113.463 151.123,119.963 
								145.595,115.946 140.065,119.963 142.178,113.463 136.644,109.438 143.484,109.438 							"/>
							<path d="M145.596,102.645l2.644,6.624l-0.52-0.377l6.827-0.437l3.647-0.233l-3.068,2.014l-5.727,3.759l0.238-0.733
								l1.798,6.601l0.231,0.85l-0.736-0.483l-5.721-3.751h0.771l-5.337,4.283l-2.497,2.003l0.982-3.104l2.061-6.517l0.377,1.162
								l-5.566-3.98l-3.148-2.251l3.791,0.273l6.84,0.492l-0.572,0.416L145.596,102.645z M145.597,103.383l-1.541,6.241
								l-0.094,0.381l-0.478,0.035l-6.84,0.492l0.644-1.978l5.501,4.069l0.614,0.454l-0.237,0.708l-2.165,6.483l-1.515-1.101
								l5.723-3.751l0.425-0.278l0.347,0.278l5.335,4.282l-0.505,0.367l-2.422-6.398l-0.157-0.416l0.396-0.318l5.341-4.29
								l0.579,1.78l-6.827-0.437l-0.43-0.028l-0.09-0.35L145.597,103.383z"/>
						</g>
						<g>
							<polygon fill="#FFFFFF" points="185.473,102.937 187.585,109.438 194.425,109.438 188.896,113.463 191.001,119.963 
								185.473,115.946 179.945,119.963 182.061,113.463 176.519,109.438 183.363,109.438 							"/>
							<path d="M185.474,102.644l2.632,6.625l-0.52-0.378l6.84-0.438l3.644-0.233l-3.064,2.013l-5.722,3.759l0.238-0.732
								l1.792,6.601l0.23,0.849l-0.735-0.482l-5.721-3.751h0.771l-5.334,4.283l-2.498,2.005l0.983-3.106l2.063-6.517l0.377,1.162
								l-5.574-3.98l-3.153-2.251l3.796,0.273l6.845,0.493l-0.572,0.416L185.474,102.644z M185.475,103.385l-1.54,6.239
								l-0.094,0.381l-0.478,0.034l-6.845,0.493l0.643-1.979l5.51,4.069l0.614,0.454l-0.237,0.709l-2.167,6.483l-1.515-1.101
								l5.72-3.751l0.425-0.279l0.347,0.279l5.335,4.282l-0.505,0.367l-2.417-6.399l-0.157-0.415l0.395-0.317l5.335-4.291l0.58,1.78
								l-6.84-0.438l-0.43-0.028l-0.09-0.35L185.475,103.385z"/>
						</g>
						<g>
							<polygon fill="#FFFFFF" points="225.349,102.937 227.458,109.438 234.293,109.438 228.774,113.463 230.879,119.963 
								225.349,115.946 219.813,119.963 221.931,113.463 216.397,109.438 223.233,109.438 							"/>
							<path d="M225.351,102.645l2.628,6.625l-0.52-0.378l6.835-0.438l3.637-0.233l-3.057,2.013l-5.712,3.76l0.238-0.732
								l1.792,6.601l0.23,0.849l-0.735-0.482l-5.723-3.752h0.771l-5.343,4.282l-2.498,2.002l0.984-3.104l2.066-6.517l0.376,1.162
								l-5.566-3.979l-3.148-2.251l3.791,0.273l6.836,0.492l-0.572,0.416L225.351,102.645z M225.351,103.385l-1.545,6.24
								l-0.095,0.381l-0.478,0.034l-6.836,0.492l0.644-1.978l5.501,4.069l0.614,0.454l-0.237,0.708l-2.169,6.483l-1.514-1.102
								l5.729-3.751l0.424-0.278l0.347,0.278l5.337,4.282l-0.505,0.367l-2.417-6.399l-0.157-0.415l0.395-0.318l5.326-4.29l0.58,1.78
								l-6.835-0.438l-0.431-0.028l-0.089-0.351L225.351,103.385z"/>
						</g>
					</g>
					<g>
						<g>
							<polygon fill="#FFFFFF" points="65.856,141.584 67.963,148.083 74.799,148.083 69.269,152.097 71.382,158.602 
								65.856,154.589 60.318,158.602 62.433,152.097 56.903,148.083 63.738,148.083 							"/>
							<path d="M65.857,141.292l2.626,6.623l-0.52-0.378l6.836-0.438l3.654-0.234l-3.076,2.015l-5.723,3.748l0.239-0.734l1.8,6.606
								l0.231,0.85l-0.736-0.482l-5.718-3.748h0.77l-5.345,4.278l-2.493,1.996l0.979-3.097l2.062-6.522l0.378,1.162l-5.562-3.969
								l-3.156-2.252l3.798,0.273l6.835,0.492l-0.572,0.415L65.857,141.292z M65.857,142.031l-1.547,6.238l-0.094,0.381
								l-0.478,0.034l-6.835,0.492l0.643-1.979l5.498,4.058l0.614,0.454l-0.236,0.708l-2.167,6.488l-1.514-1.101l5.73-3.747
								l0.424-0.277l0.347,0.278l5.333,4.278l-0.505,0.367l-2.425-6.403l-0.158-0.416l0.396-0.318l5.337-4.279l0.578,1.781
								l-6.836-0.438l-0.431-0.028l-0.089-0.351L65.857,142.031z"/>
						</g>
						<g>
							<polygon fill="#FFFFFF" points="105.722,141.584 107.839,148.083 114.677,148.083 109.136,152.097 111.258,158.602 
								105.722,154.589 100.191,158.602 102.315,152.097 96.78,148.083 103.612,148.083 							"/>
							<path d="M105.723,141.292l2.636,6.623l-0.52-0.377l6.838-0.438l3.661-0.234l-3.084,2.016l-5.733,3.748l0.239-0.735
								l1.811,6.606l0.233,0.85l-0.738-0.482l-5.729-3.747h0.771l-5.338,4.278l-2.5,2.003l0.987-3.106l2.072-6.521l0.378,1.164
								l-5.567-3.97l-3.16-2.253l3.802,0.274l6.832,0.492l-0.572,0.416L105.723,141.292z M105.724,142.031l-1.54,6.238l-0.094,0.381
								l-0.478,0.035l-6.832,0.492l0.642-1.979l5.503,4.058l0.616,0.454l-0.238,0.71l-2.176,6.488l-1.514-1.103l5.724-3.747
								l0.424-0.278l0.347,0.278l5.343,4.278l-0.504,0.367l-2.435-6.403l-0.158-0.417l0.397-0.318l5.348-4.279l0.578,1.781
								l-6.838-0.438l-0.43-0.028l-0.09-0.35L105.724,142.031z"/>
						</g>
						<g>
							<polygon fill="#FFFFFF" points="145.595,141.584 147.72,148.083 154.547,148.083 149.013,152.097 151.123,158.602 
								145.595,154.589 140.065,158.602 142.178,152.097 136.644,148.083 143.484,148.083 							"/>
							<path d="M145.596,141.292l2.644,6.622l-0.52-0.377l6.827-0.437l3.657-0.234l-3.08,2.015l-5.727,3.748l0.239-0.733
								l1.797,6.606l0.231,0.849l-0.736-0.482l-5.72-3.747h0.771l-5.337,4.278l-2.494,2l0.98-3.1l2.061-6.521l0.378,1.162
								l-5.566-3.969l-3.159-2.252l3.801,0.273l6.84,0.493l-0.572,0.415L145.596,141.292z M145.597,142.03l-1.541,6.239
								l-0.094,0.381l-0.478,0.034l-6.84,0.493l0.642-1.979l5.502,4.058l0.615,0.454l-0.236,0.709l-2.166,6.488l-1.514-1.101
								l5.723-3.747l0.424-0.278l0.347,0.278l5.335,4.278l-0.505,0.367l-2.422-6.403l-0.158-0.417l0.396-0.317l5.341-4.279
								l0.578,1.781l-6.827-0.437l-0.43-0.028l-0.09-0.35L145.597,142.03z"/>
						</g>
						<g>
							<polygon fill="#FFFFFF" points="185.473,141.584 187.585,148.083 194.425,148.083 188.896,152.097 191.001,158.602 
								185.473,154.589 179.945,158.602 182.061,152.097 176.519,148.083 183.363,148.083 							"/>
							<path d="M185.474,141.291l2.632,6.624l-0.52-0.378l6.84-0.438l3.653-0.234l-3.075,2.015l-5.721,3.749l0.239-0.733
								l1.792,6.606l0.23,0.848l-0.735-0.481l-5.721-3.747h0.771l-5.334,4.278l-2.496,2.002l0.981-3.103l2.063-6.521l0.379,1.163
								l-5.574-3.969l-3.164-2.253l3.806,0.274l6.845,0.493l-0.572,0.416L185.474,141.291z M185.475,142.032l-1.54,6.237
								l-0.094,0.381l-0.478,0.034l-6.845,0.493l0.642-1.979l5.51,4.058l0.616,0.453l-0.237,0.709l-2.167,6.488l-1.514-1.101
								l5.72-3.747l0.425-0.278l0.347,0.278l5.335,4.278l-0.505,0.367l-2.417-6.404l-0.157-0.416l0.396-0.317l5.336-4.279
								l0.578,1.781l-6.84-0.438l-0.43-0.028l-0.09-0.35L185.475,142.032z"/>
						</g>
						<g>
							<polygon fill="#FFFFFF" points="225.349,141.584 227.458,148.083 234.293,148.083 228.774,152.097 230.879,158.602 
								225.349,154.589 219.813,158.602 221.931,152.097 216.397,148.083 223.233,148.083 							"/>
							<path d="M225.351,141.292l2.628,6.623l-0.52-0.378l6.835-0.438l3.647-0.233l-3.069,2.014l-5.711,3.749l0.238-0.733
								l1.792,6.606l0.23,0.848l-0.735-0.481l-5.723-3.747h0.77l-5.343,4.278l-2.496,1.999l0.982-3.1l2.066-6.522l0.378,1.163
								l-5.566-3.969l-3.159-2.252l3.801,0.273l6.836,0.492l-0.572,0.416L225.351,141.292z M225.351,142.031l-1.545,6.238
								l-0.094,0.381l-0.478,0.035l-6.836,0.492l0.642-1.979l5.502,4.058l0.615,0.454l-0.237,0.709l-2.169,6.488l-1.514-1.102
								l5.728-3.747l0.424-0.277l0.346,0.278l5.337,4.278l-0.504,0.367l-2.417-6.404l-0.157-0.416l0.395-0.318l5.326-4.278
								l0.579,1.78l-6.835-0.438l-0.431-0.028l-0.089-0.351L225.351,142.031z"/>
						</g>
					</g>
				</g>
			</g>
		</g>
	</g>
</g>
</svg>
