<?xml version="1.0" standalone="no"?>
<!DOCTYPE svg PUBLIC "-//W3C//DTD SVG 1.1//EN" "http://www.w3.org/Graphics/SVG/1.1/DTD/svg11.dtd">
<svg version="1.1" id="Layer_1" xmlns="http://www.w3.org/2000/svg" xmlns:xlink="http://www.w3.org/1999/xlink" x="0px" y="0px"
	 width="576px" height="288px" viewBox="0 0 576 288" enable-background="new 0 0 576 288" xml:space="preserve" preserveAspectRatio="none">
<polyline points="576,158.397 548.198,158.397 524.699,100.442 481.074,91.489 417.133,56.593 375.549,51.916 329.928,42.185 
	283.188,42.185 284.417,81.909 246.25,72.731 188.596,42.185 121.708,42.185 67.148,33.945 33.695,0 17.319,42.185 40.767,34.369 
	67.148,56.593 66.102,79.199 113.341,84.715 111.185,106.219 106.256,121.087 67.148,128.156 37.188,132.397 17.319,116.351 
	0,132.397 17.319,132.397 40.637,149.977 100.565,148.292 90.754,170.188 66.102,196.148 48.288,213.978 15.214,196.148 
	33.695,230.829 55.569,253.495 83.402,288.117 576,289.334 "/>
</svg>
