<?xml version="1.0" standalone="no"?>
<!DOCTYPE svg PUBLIC "-//W3C//DTD SVG 1.1//EN" "http://www.w3.org/Graphics/SVG/1.1/DTD/svg11.dtd">
<svg version="1.1" id="Layer_1" xmlns="http://www.w3.org/2000/svg" xmlns:xlink="http://www.w3.org/1999/xlink" x="0px" y="0px"
	 width="244.482px" height="288px" viewBox="0 0 244.482 288" enable-background="new 0 0 244.482 288" xml:space="preserve">
<path stroke="#000000" stroke-width="1.3807" d="M0.001,193.385l30.364-32.017l23.525-26.64l20.251,46.843l39.136-25.677
	l-19.666,34.011l82.703,50.625l6.442-2.763l-65.354-51.617l23.932-38.852l-16.568-20.361l30.397-4.661l7.358-22.253l18.6,1.086
	l23.712,0.613l-19.601-3.791l-26.225-1.591l-7.261,24.412l-31.102-3.903l46.699-43.581L87.978,1.931L85.828,0l60.341,70.602
	c0,0-45.478,38.272-50.084,41.052c-2.632,1.587,5.903,11.389,13.705,19.503l-31.966,42.178l-21.171-52.445l-33.138,37.719
	L0.001,193.385z"/>
</svg>
